<?xml version="1.0" encoding="utf-8"?>
<!-- Generator: Adobe Illustrator 28.1.0, SVG Export Plug-In . SVG Version: 6.00 Build 0)  -->
<svg version="1.1" xmlns="http://www.w3.org/2000/svg" xmlns:xlink="http://www.w3.org/1999/xlink" x="0px" y="0px"
	 viewBox="0 0 328 213" style="enable-background:new 0 0 328 213;" xml:space="preserve">
<style type="text/css">
	.st0{fill:#010101;}
	.st1{fill:#069763;}
	.st2{fill:none;}
	.st3{fill:#FFFFFF;}
	.st4{fill:#BA2636;}
	.st5{fill:#F6E500;}
	.st6{fill:#231F20;}
	.st7{fill:#D91B5D;}
	.st8{display:none;}
	.st9{display:inline;}
	.st10{clip-path:url(#SVGID_00000054967335451968524610000011762929869175361964_);fill:#FFFFFF;}
	.st11{clip-path:url(#SVGID_00000075153281346384608580000014820450569745672340_);fill:#FFFFFF;}
</style>
<g id="Layer_1">
	<g>
		<g>
			<path class="st0" d="M110.8,92.1c0,1.7-0.4,3-1.2,3.9s-2.1,1.3-4,1.3h-2.4v4.5h-2.9V87.2h5.4c1.6,0,2.9,0.4,3.8,1.1
				S110.8,90.4,110.8,92.1z M107.7,92.1c0-0.8-0.2-1.4-0.7-1.8s-1.3-0.5-2.4-0.5h-1.5v4.9h1.2c1.1,0,1.8-0.1,2.2-0.2
				s0.7-0.4,0.9-0.8C107.6,93.3,107.7,92.8,107.7,92.1z"/>
			<path class="st0" d="M122.5,96.2c0,1.8-0.4,3.2-1.3,4.3c-0.8,1-2.2,1.5-4,1.5c-3.5,0-5.3-1.9-5.3-5.8c0-1.9,0.4-3.3,1.3-4.3
				c0.8-1,2.2-1.5,4-1.5c1.8,0,3.1,0.5,4,1.5C122.1,92.9,122.5,94.4,122.5,96.2z M119.7,96.2c0-1.2-0.2-2.1-0.6-2.6
				c-0.4-0.6-1-0.8-1.9-0.8c-0.9,0-1.5,0.3-1.9,0.9s-0.6,1.4-0.6,2.6c0,1.2,0.2,2,0.6,2.6c0.4,0.6,1,0.8,1.9,0.8
				c0.9,0,1.5-0.3,1.9-0.8C119.5,98.3,119.7,97.4,119.7,96.2z"/>
			<path class="st0" d="M130.9,101.7v-1.1c-1.1,1-2.2,1.5-3.4,1.5c-1.2,0-2.1-0.3-2.7-1c-0.6-0.6-0.9-1.5-0.9-2.5
				c0-0.8,0.2-1.4,0.5-1.9c0.3-0.5,0.8-0.9,1.4-1.2c0.6-0.3,1.5-0.5,2.7-0.6l2.3-0.2v-0.5c0-0.6-0.2-1-0.6-1.3
				c-0.4-0.2-0.9-0.3-1.6-0.3c-0.6,0-1.1,0.1-1.5,0.3c-0.4,0.2-0.7,0.5-0.9,0.8l-2.1-1.3c0.4-0.6,0.9-1.1,1.7-1.4
				c0.8-0.3,1.7-0.5,2.9-0.5c1.7,0,2.9,0.3,3.7,0.9s1.1,1.6,1.1,2.9v7.4H130.9z M130.7,96.6l-1.4,0.1c-1,0.1-1.7,0.3-2.1,0.6
				s-0.6,0.7-0.6,1.3c0,0.5,0.1,0.8,0.4,1c0.3,0.2,0.6,0.3,1.1,0.3c0.3,0,0.7-0.1,1.2-0.3c0.5-0.2,0.9-0.5,1.4-0.9V96.6z"/>
			<path class="st0" d="M142.4,93.3c-0.3-0.1-0.6-0.2-1.1-0.2c-0.5,0-1,0.1-1.4,0.4s-0.9,0.6-1.4,1.1v7.1h-2.7v-11h2.7v1.6
				c0.5-0.5,1-0.9,1.5-1.2c0.5-0.3,1.1-0.5,1.8-0.5c0.6,0,1,0.1,1.2,0.2L142.4,93.3z"/>
			<path class="st0" d="M152.7,100.1c-0.4,0.6-1,1.1-1.7,1.4s-1.5,0.5-2.6,0.5c-1.8,0-3.1-0.5-4-1.4c-0.9-1-1.4-2.4-1.4-4.3
				c0-1.8,0.4-3.3,1.3-4.3c0.9-1,2.2-1.5,3.9-1.5c0.9,0,1.8,0.2,2.5,0.5c0.7,0.3,1.3,0.8,1.7,1.4l-2,1.4c-0.2-0.3-0.5-0.6-0.9-0.7
				c-0.3-0.2-0.7-0.2-1.3-0.2c-0.9,0-1.6,0.3-2,0.8c-0.4,0.6-0.6,1.4-0.6,2.6s0.2,2,0.6,2.6c0.4,0.5,1.1,0.8,2.1,0.8
				c0.4,0,0.8-0.1,1.1-0.2c0.3-0.1,0.7-0.4,1-0.8L152.7,100.1z"/>
			<path class="st0" d="M161.2,101.7v-6c0-1.2-0.1-1.9-0.3-2.3c-0.2-0.4-0.6-0.6-1.1-0.6c-0.8,0-1.8,0.5-2.9,1.6v7.3h-2.7V86.1h2.7
				v6c0.6-0.6,1.2-1,1.8-1.3c0.6-0.3,1.3-0.4,1.9-0.4c1.2,0,2.1,0.3,2.6,1c0.5,0.7,0.7,1.7,0.7,2.9v7.3H161.2z"/>
			<path class="st0" d="M182.8,99.3c-0.6,0.9-1.4,1.6-2.3,2s-2,0.7-3.3,0.7c-4.5,0-6.7-2.5-6.7-7.5c0-2.6,0.6-4.5,1.7-5.7
				c1.1-1.2,2.8-1.8,4.9-1.8c1.4,0,2.6,0.2,3.5,0.7c0.9,0.5,1.6,1.1,2,1.9l-2.3,1.8c-0.3-0.5-0.6-0.9-0.9-1.1
				c-0.3-0.2-0.6-0.4-1-0.5c-0.4-0.1-0.8-0.2-1.3-0.2c-1.2,0-2.1,0.4-2.7,1.1c-0.6,0.8-0.9,2-0.9,3.8c0,1.7,0.3,2.9,0.9,3.7
				s1.5,1.2,2.8,1.2c0.9,0,1.5-0.2,2-0.5c0.5-0.3,0.9-0.8,1.3-1.3L182.8,99.3z"/>
			<path class="st0" d="M191,93.3c-0.3-0.1-0.6-0.2-1.1-0.2c-0.5,0-1,0.1-1.4,0.4s-0.9,0.6-1.4,1.1v7.1h-2.7v-11h2.7v1.6
				c0.5-0.5,1-0.9,1.5-1.2c0.5-0.3,1.1-0.5,1.8-0.5c0.6,0,1,0.1,1.2,0.2L191,93.3z"/>
			<path class="st0" d="M194.4,96.9c0,1,0.3,1.7,0.7,2.1s1.1,0.6,2,0.6c0.5,0,1-0.1,1.4-0.2c0.4-0.1,0.8-0.4,1.1-0.8l2,1.4
				c-0.4,0.6-1,1.1-1.7,1.4c-0.7,0.3-1.7,0.5-2.9,0.5c-1.8,0-3.2-0.5-4-1.4c-0.9-0.9-1.3-2.4-1.3-4.3c0-3.9,1.8-5.9,5.3-5.9
				c1.6,0,2.7,0.4,3.6,1.3c0.8,0.9,1.2,2.2,1.2,3.9v1.3H194.4z M199,95c0-1.7-0.7-2.5-2.2-2.5c-0.5,0-0.9,0.1-1.2,0.2
				c-0.3,0.2-0.6,0.4-0.7,0.7c-0.2,0.3-0.3,0.8-0.4,1.5H199z"/>
			<path class="st0" d="M205.8,96.9c0,1,0.3,1.7,0.7,2.1c0.4,0.4,1.1,0.6,2,0.6c0.5,0,1-0.1,1.4-0.2c0.4-0.1,0.8-0.4,1.1-0.8l2,1.4
				c-0.4,0.6-1,1.1-1.7,1.4c-0.7,0.3-1.7,0.5-2.9,0.5c-1.8,0-3.2-0.5-4-1.4c-0.9-0.9-1.3-2.4-1.3-4.3c0-3.9,1.8-5.9,5.3-5.9
				c1.6,0,2.7,0.4,3.6,1.3c0.8,0.9,1.2,2.2,1.2,3.9v1.3H205.8z M210.4,95c0-1.7-0.7-2.5-2.2-2.5c-0.5,0-0.9,0.1-1.2,0.2
				c-0.3,0.2-0.6,0.4-0.7,0.7c-0.2,0.3-0.3,0.8-0.4,1.5H210.4z"/>
			<path class="st0" d="M221.6,101.7l-2.9-4.5l-1.1,1.1v3.4H215V86.1h2.7V95l3.7-4.3h3.1l-4.1,4.6l4.4,6.4H221.6z"/>
			<path class="st0" d="M237.1,101.7h-7v-2.3h2v-9.9h-2v-2.3h7v2.3h-2v9.9h2V101.7z"/>
			<path class="st0" d="M246.2,101.7v-6c0-1.1-0.1-1.9-0.3-2.3s-0.6-0.6-1.2-0.6c-0.8,0-1.8,0.5-2.9,1.6v7.3h-2.7v-11h2.7v1.4
				c0.6-0.6,1.2-1,1.8-1.3c0.6-0.3,1.3-0.4,1.9-0.4c1.1,0,2,0.3,2.5,0.9c0.6,0.6,0.8,1.6,0.8,3v7.3H246.2z"/>
			<path class="st0" d="M258.5,101.7v-1.1c-0.5,0.4-1,0.8-1.6,1c-0.6,0.3-1.2,0.4-1.9,0.4c-1.4,0-2.4-0.5-3.2-1.5
				c-0.7-1-1.1-2.4-1.1-4.2c0-1.9,0.4-3.3,1.2-4.3c0.8-1,1.9-1.5,3.4-1.5c0.5,0,1,0.1,1.6,0.3c0.5,0.2,1,0.5,1.3,0.8v-5.4h2.7v15.6
				H258.5z M258.3,93.8c-0.3-0.3-0.6-0.5-1.1-0.7c-0.4-0.2-0.9-0.3-1.3-0.3c-0.7,0-1.3,0.3-1.7,0.9s-0.7,1.5-0.7,2.5
				c0,1.1,0.2,1.9,0.5,2.5c0.4,0.6,0.9,0.9,1.7,0.9c0.4,0,0.9-0.1,1.4-0.3c0.5-0.2,0.9-0.5,1.2-0.8V93.8z"/>
			<path class="st0" d="M266.3,87.7c0,0.5-0.1,0.9-0.4,1.1c-0.3,0.2-0.6,0.3-1.1,0.3c-0.6,0-1-0.1-1.2-0.4c-0.2-0.2-0.3-0.6-0.3-1
				c0-0.5,0.1-0.8,0.3-1.1c0.2-0.2,0.6-0.3,1.1-0.3c0.5,0,0.9,0.1,1.2,0.3S266.3,87.2,266.3,87.7z M263.5,101.7v-11h2.7v11H263.5z"
				/>
			<path class="st0" d="M275.1,101.7v-1.1c-1.1,1-2.2,1.5-3.4,1.5c-1.2,0-2.1-0.3-2.7-1c-0.6-0.6-0.9-1.5-0.9-2.5
				c0-0.8,0.2-1.4,0.5-1.9c0.3-0.5,0.8-0.9,1.4-1.2c0.6-0.3,1.5-0.5,2.7-0.6l2.3-0.2v-0.5c0-0.6-0.2-1-0.6-1.3
				c-0.4-0.2-0.9-0.3-1.6-0.3c-0.6,0-1.1,0.1-1.5,0.3c-0.4,0.2-0.7,0.5-0.9,0.8l-2.1-1.3c0.4-0.6,0.9-1.1,1.7-1.4
				c0.8-0.3,1.7-0.5,2.9-0.5c1.7,0,2.9,0.3,3.7,0.9s1.1,1.6,1.1,2.9v7.4H275.1z M274.9,96.6l-1.4,0.1c-1,0.1-1.7,0.3-2.1,0.6
				s-0.6,0.7-0.6,1.3c0,0.5,0.1,0.8,0.4,1c0.3,0.2,0.6,0.3,1.1,0.3c0.3,0,0.7-0.1,1.2-0.3c0.5-0.2,0.9-0.5,1.4-0.9V96.6z"/>
			<path class="st0" d="M287.1,101.7v-6c0-1.1-0.1-1.9-0.3-2.3c-0.2-0.4-0.6-0.6-1.2-0.6c-0.8,0-1.8,0.5-2.9,1.6v7.3H280v-11h2.7
				v1.4c0.6-0.6,1.2-1,1.8-1.3c0.6-0.3,1.3-0.4,1.9-0.4c1.1,0,2,0.3,2.5,0.9c0.6,0.6,0.8,1.6,0.8,3v7.3H287.1z"/>
			<path class="st0" d="M300.6,98.5c0,0.7-0.2,1.3-0.5,1.9s-0.9,0.9-1.6,1.2c-0.7,0.3-1.4,0.4-2.3,0.4c-2.3,0-3.9-0.6-4.7-1.9l2-1.4
				c0.3,0.4,0.7,0.7,1.1,0.9c0.4,0.1,0.9,0.2,1.4,0.2c1.3,0,1.9-0.4,1.9-1.1c0-0.3-0.2-0.6-0.5-0.8c-0.4-0.2-0.9-0.4-1.7-0.5
				c-1.5-0.3-2.5-0.8-3.1-1.4c-0.6-0.6-0.9-1.3-0.9-2.3c0-1,0.4-1.8,1.1-2.4c0.7-0.6,1.8-0.9,3.3-0.9c1,0,1.8,0.2,2.6,0.5
				c0.7,0.3,1.3,0.8,1.7,1.4l-2,1.4c-0.5-0.7-1.3-1.1-2.4-1.1c-0.6,0-1,0.1-1.3,0.3c-0.3,0.2-0.4,0.4-0.4,0.7c0,0.3,0.1,0.5,0.4,0.7
				c0.3,0.2,0.8,0.4,1.5,0.5c1.2,0.3,2.1,0.6,2.7,0.9c0.5,0.3,0.9,0.7,1.2,1.1C300.4,97.3,300.6,97.9,300.6,98.5z"/>
		</g>
		<g>
			<path class="st0" d="M101.2,109.2v2.8h3.9v1.2h-3.9v4.5h-1.3v-9.6h5.8v1.2H101.2z"/>
			<path class="st0" d="M109,117.7v-9.6h5.9v1.2h-4.6v2.8h3.9v1.2h-3.9v3.3h4.6v1.2H109z"/>
			<path class="st0" d="M125.4,112.9c0,1.2-0.2,2.1-0.5,2.8s-0.8,1.2-1.4,1.5c-0.6,0.3-1.5,0.5-2.7,0.5h-2.5v-9.6h2.4
				c1.1,0,2,0.2,2.7,0.5c0.7,0.3,1.1,0.8,1.4,1.5C125.3,110.8,125.4,111.7,125.4,112.9z M124.1,112.9c0-0.9-0.1-1.6-0.3-2.2
				s-0.5-0.9-1-1.1c-0.5-0.2-1.1-0.4-2-0.4h-1.1v7.3h1.1c0.8,0,1.5-0.1,2-0.4c0.5-0.2,0.8-0.6,1-1.1
				C124,114.6,124.1,113.8,124.1,112.9z"/>
			<path class="st0" d="M128.9,117.7v-9.6h5.9v1.2h-4.6v2.8h3.9v1.2h-3.9v3.3h4.6v1.2H128.9z"/>
			<path class="st0" d="M143.8,117.7l-2.5-3.9h-1.7v3.9h-1.3v-9.6h3c1.2,0,2.1,0.2,2.6,0.7s0.8,1.1,0.8,2c0,0.8-0.2,1.4-0.5,1.9
				c-0.3,0.5-0.8,0.8-1.5,0.9l2.6,4.1H143.8z M143.4,110.9c0-0.6-0.2-1.1-0.5-1.3c-0.3-0.2-0.8-0.4-1.6-0.4h-1.7v3.4h1.6
				c0.5,0,1-0.1,1.3-0.2c0.3-0.1,0.5-0.3,0.7-0.5C143.3,111.7,143.4,111.3,143.4,110.9z"/>
			<path class="st0" d="M147.5,117.7l3.3-9.6h1.7l3.3,9.6h-1.4l-0.8-2.5h-3.9l-0.8,2.5H147.5z M150,114h3.1l-1.6-4.7L150,114z"/>
			<path class="st0" d="M158.8,117.7v-9.6h1.3v8.5h4.4v1.2H158.8z"/>
			<path class="st0" d="M179.2,115.1c0,0.9-0.3,1.6-0.9,2.1c-0.6,0.5-1.5,0.7-2.6,0.7c-0.9,0-1.6-0.2-2.2-0.5s-1.1-0.8-1.4-1.4
				l1-0.7c0.5,1,1.4,1.4,2.5,1.4c0.7,0,1.2-0.1,1.6-0.4s0.6-0.7,0.6-1.2c0-0.3-0.1-0.5-0.2-0.7c-0.1-0.2-0.3-0.4-0.5-0.5
				s-0.4-0.2-0.7-0.3c-0.3-0.1-0.5-0.2-0.8-0.2c-0.5-0.1-0.9-0.2-1.3-0.4c-0.4-0.1-0.8-0.3-1.1-0.5c-0.3-0.2-0.5-0.4-0.7-0.7
				c-0.2-0.3-0.3-0.7-0.3-1.2c0-0.9,0.3-1.5,0.8-2c0.6-0.5,1.4-0.7,2.5-0.7c0.9,0,1.6,0.2,2.1,0.5c0.5,0.3,0.9,0.7,1.2,1.2l-1,0.7
				c-0.3-0.4-0.6-0.7-0.9-1c-0.4-0.2-0.8-0.3-1.4-0.3c-0.6,0-1.1,0.1-1.5,0.4s-0.5,0.6-0.5,1.1c0,0.2,0.1,0.5,0.2,0.6
				s0.3,0.3,0.4,0.4c0.2,0.1,0.4,0.2,0.7,0.3s0.6,0.2,1,0.3c0.4,0.1,0.9,0.2,1.2,0.4c0.4,0.1,0.7,0.3,1,0.5c0.3,0.2,0.5,0.5,0.7,0.8
				C179.2,114.2,179.2,114.6,179.2,115.1z"/>
			<path class="st0" d="M182.7,117.7v-9.6h5.9v1.2H184v2.8h3.9v1.2H184v3.3h4.6v1.2H182.7z"/>
			<path class="st0" d="M197.6,117.7l-2.5-3.9h-1.7v3.9h-1.3v-9.6h3c1.2,0,2.1,0.2,2.6,0.7s0.8,1.1,0.8,2c0,0.8-0.2,1.4-0.5,1.9
				c-0.3,0.5-0.8,0.8-1.5,0.9l2.6,4.1H197.6z M197.2,110.9c0-0.6-0.2-1.1-0.5-1.3s-0.8-0.4-1.6-0.4h-1.7v3.4h1.6
				c0.5,0,1-0.1,1.3-0.2c0.3-0.1,0.5-0.3,0.7-0.5C197.1,111.7,197.2,111.3,197.2,110.9z"/>
			<path class="st0" d="M205.8,117.7h-1.7l-3-9.6h1.3l2.6,8.4l2.6-8.4h1.3L205.8,117.7z"/>
			<path class="st0" d="M215.3,117.7h-3.9v-1.1h1.3v-7.4h-1.3v-1.1h3.9v1.1H214v7.4h1.3V117.7z"/>
			<path class="st0" d="M226.1,116c-0.3,0.5-0.6,0.9-0.9,1.1c-0.3,0.3-0.7,0.4-1.1,0.6s-0.9,0.2-1.5,0.2c-1.4,0-2.5-0.4-3.2-1.3
				c-0.7-0.8-1-2.1-1-3.8c0-1.7,0.3-2.9,1-3.8c0.7-0.8,1.7-1.3,3.1-1.3c0.6,0,1.1,0.1,1.5,0.2c0.4,0.1,0.8,0.3,1.1,0.6
				c0.3,0.2,0.6,0.6,0.8,1l-1.1,0.7c-0.2-0.3-0.4-0.6-0.6-0.8c-0.2-0.2-0.5-0.3-0.8-0.4c-0.3-0.1-0.6-0.2-1-0.2c-1,0-1.7,0.3-2.1,1
				c-0.5,0.6-0.7,1.6-0.7,2.9c0,1.3,0.2,2.2,0.7,2.9c0.4,0.7,1.2,1,2.2,1c0.5,0,1-0.1,1.4-0.3c0.4-0.2,0.8-0.6,1.1-1.1L226.1,116z"
				/>
			<path class="st0" d="M229.3,117.7v-9.6h5.9v1.2h-4.6v2.8h3.9v1.2h-3.9v3.3h4.6v1.2H229.3z"/>
			<path class="st0" d="M245.3,115.1c0,0.9-0.3,1.6-0.9,2.1c-0.6,0.5-1.5,0.7-2.6,0.7c-0.9,0-1.6-0.2-2.2-0.5s-1.1-0.8-1.4-1.4
				l1-0.7c0.5,1,1.4,1.4,2.5,1.4c0.7,0,1.2-0.1,1.6-0.4s0.6-0.7,0.6-1.2c0-0.3-0.1-0.5-0.2-0.7c-0.1-0.2-0.3-0.4-0.5-0.5
				s-0.4-0.2-0.7-0.3c-0.3-0.1-0.5-0.2-0.8-0.2c-0.5-0.1-0.9-0.2-1.3-0.4c-0.4-0.1-0.8-0.3-1.1-0.5c-0.3-0.2-0.5-0.4-0.7-0.7
				s-0.3-0.7-0.3-1.2c0-0.9,0.3-1.5,0.8-2c0.6-0.5,1.4-0.7,2.5-0.7c0.9,0,1.6,0.2,2.1,0.5c0.5,0.3,0.9,0.7,1.2,1.2l-1,0.7
				c-0.3-0.4-0.6-0.7-0.9-1c-0.4-0.2-0.8-0.3-1.4-0.3c-0.6,0-1.1,0.1-1.5,0.4s-0.5,0.6-0.5,1.1c0,0.2,0.1,0.5,0.2,0.6
				s0.3,0.3,0.4,0.4c0.2,0.1,0.4,0.2,0.7,0.3s0.6,0.2,1,0.3c0.4,0.1,0.9,0.2,1.2,0.4c0.4,0.1,0.7,0.3,1,0.5c0.3,0.2,0.5,0.5,0.7,0.8
				C245.2,114.2,245.3,114.6,245.3,115.1z"/>
		</g>
		<g>
			<g>
				<path class="st1" d="M65.4,102.2c0,5.7-4.6,10.3-10.3,10.3s-10.3-4.6-10.3-10.3c0-5.7,4.6-10.3,10.3-10.3S65.4,96.5,65.4,102.2z
					"/>
				<polyline class="st2" points="53.7,123 55.2,125.2 56.8,123.1 				"/>
				<polygon class="st3" points="31.1,102.2 36.1,106.4 51,106.4 51,119.7 55.1,124.9 59.2,119.8 59.2,106.4 74,106.4 79.1,102.2 
					74.1,98.1 59.2,98.1 59.2,84.6 55.1,79.7 51.2,84.6 51.2,98.2 36.2,98.2 				"/>
				<polygon class="st4" points="53.6,81.3 55.1,79.4 56.6,81.4 56.6,98 53.6,98 				"/>
				<polygon class="st4" points="33,103.7 31.1,102.2 33,100.7 44.2,100.7 44.2,103.7 				"/>
				<polygon class="st4" points="56.6,123.1 55.1,125 53.6,123.1 53.6,106.4 56.6,106.4 				"/>
				<polygon class="st4" points="77.4,100.7 79.3,102.2 77.3,103.7 66.6,103.7 66.6,100.7 				"/>
				<path d="M55.2,125.3l-4.3-5.5v-13.3H36.1l-0.1,0l-5.2-4.3l5.3-4.2H51V84.6l0-0.1l4.1-5.4l4.2,5.4V98h14.8l0.1,0l5.3,4.1
					l-5.3,4.4H59.4v13.3L55.2,125.3z M51.3,119.7l3.9,5l3.9-5v-13.5h15l4.9-4L74,98.4H59V84.7l-3.9-4.9l-3.8,4.9v13.6H36.3l-4.8,3.8
					l4.7,3.9h15V119.7z"/>
				<g>
					<path class="st5" d="M65.4,102.3c0,5.7-4.6,10.3-10.3,10.3c-5.7,0-10.3-4.6-10.3-10.3c0-5.7,4.6-10.3,10.3-10.3
						C60.8,92,65.4,96.6,65.4,102.3z M55,86.3c-8.8,0-16,7.2-16,16c0,8.8,7.2,16,16,16c8.8,0,16-7.2,16-16
						C71,93.5,63.9,86.3,55,86.3z"/>
					<path class="st6" d="M55,118.6c-8.9,0-16.2-7.3-16.2-16.2c0-8.9,7.3-16.2,16.2-16.2c8.9,0,16.2,7.3,16.2,16.2
						C71.2,111.3,63.9,118.6,55,118.6z M55,86.5c-8.7,0-15.8,7.1-15.8,15.8s7.1,15.8,15.8,15.8c8.7,0,15.8-7.1,15.8-15.8
						S63.7,86.5,55,86.5z M55.1,112.8c-5.8,0-10.5-4.7-10.5-10.5c0-5.8,4.7-10.5,10.5-10.5c5.8,0,10.5,4.7,10.5,10.5
						C65.6,108.1,60.9,112.8,55.1,112.8z M55.1,92.1c-5.6,0-10.2,4.6-10.2,10.2c0,5.6,4.6,10.2,10.2,10.2s10.2-4.6,10.2-10.2
						C65.2,96.7,60.7,92.1,55.1,92.1z"/>
				</g>
				<g>
					<path class="st6" d="M42.3,103.1c-0.4,0-0.8-0.4-0.8-0.8c0-0.4,0.4-0.8,0.8-0.8c0.4,0,0.8,0.4,0.8,0.8
						C43.1,102.7,42.8,103.1,42.3,103.1z"/>
				</g>
				<g>
					<path class="st6" d="M67.8,103c-0.4,0-0.8-0.4-0.8-0.8c0-0.4,0.4-0.8,0.8-0.8c0.4,0,0.8,0.4,0.8,0.8
						C68.6,102.6,68.2,103,67.8,103z"/>
				</g>
				<g>
					<path d="M79.4,102.2c0,0-0.2,0.1-0.1,0.3c0,0.1,0.1,0.1,0.1,0.1s-0.1,0.1-0.1,0.3c0,0.2,0.1,0.2,0.1,0.2s-0.1,0.1-0.1,0.2
						s0,0.1,0,0.1l-0.2-0.2l-0.1,0.8l-1.1-0.4l0.1,0.6l-0.7,0l0.2,0.7c0,0-0.4,0.1-0.6,0.3c-0.2,0.2-0.2,0.3-0.2,0.3l0.6,0l-0.4,0.3
						l0.1,0.2l-0.1,0.3l0.7,0.3l-0.7,0.9l0,0.6l0.8-0.5l-0.3,1.3l0,1.7c0,0,0.2-0.5,0.3-0.6c0.1-0.1,0.2-0.2,0.2-0.2
						s-0.3,0.9-0.5,1.4c-0.2,0.4-0.1,0.6-0.1,0.6s-0.2,1-0.2,1.7c0,0.6-0.1,1.4-0.1,1.6c0,0.2,0,0.2,0,0.2l0.2-0.3l-0.1,0.3
						c0,0,0,2.2,0,2.4c0,0.2,0,0.3,0,0.3l0.2,0l-0.1,0.3c0,0,0,1.6,0,1.8c0,0.2,0.2,0.7,0.3,0.9c0.1,0.3,0.6,1.1,1.1,1.7
						c0.5,0.6,0.8,0.9,0.8,1c0,0.1,0.1,0.4,0,0.4c-0.1,0-0.8,0-1,0.1c-0.2,0.1-0.2,0-0.3,0.1c-0.1,0-0.6,0.3-0.6,0.3l0.1,0.2
						c0,0,0.3,0,0.6-0.1c0.2,0,0.2-0.1,0.5-0.1c0.3,0,0.6,0.1,0.7,0c0.1-0.1,0.3-0.3,0.3-0.3s0.1,0.4-0.1,0.5
						c-0.2,0.2-1.2,0.5-1.4,0.6c-0.2,0.1-0.5,0.3-0.5,0.5c0,0.2,0.5,0.2,0.5,0.2s0-0.4,0.1-0.5c0.1-0.1,0.3-0.1,0.6-0.1
						c0.3,0,0.5-0.1,0.7-0.3c0.2-0.2,0.3-0.3,0.4-0.7c0-0.4,0-0.4,0-0.4s0-0.2,0.5-0.4c0.5-0.2,0.9-0.5,1-0.5
						c0.1-0.1,0.4-0.2,0.4-0.2s0.1-1.2,0.2-1.5c0.1-0.3,0.2-0.3,0.2-0.3s0.6-3.8,0.6-4.2c0-0.4,0.1-0.7,0.1-0.7s-1.3-0.4-2-2.1
						c-0.7-1.7-0.9-2.9-0.9-3c0-0.1,0,1.8,0.1,2.2c0.2,0.4,1.2,2.8,1.3,3.1c0.1,0.3,0.6,1.5,0.3,2.4c-0.3,0.9-0.5,0.8-0.5,0.8
						s0.2-0.2,0.4-0.8c0.1-0.6,0-1.6-0.4-2.5c-0.4-0.9-1.1-2.5-1.1-2.7c-0.1-0.2-0.2-0.6-0.2-1c0-0.4-0.1-1.4-0.1-1.7
						c0-0.3-0.3-2.5-0.3-2.7c0-0.2,0.5,2.1,0.5,2.2c0,0.1,0.2,0.4,0.2,0.6c0,0.3,0.2,1.5,0.8,2.6c0.6,1.1,1,1.5,1.7,2
						c0.2,0.1,0.3,0.2,0.3,0.2s0-1,0-1.4c-0.1-0.3-0.6-1.5-0.7-1.8c-0.2-0.3-0.2-0.3-0.2-0.3s0.5,0.6,0.6,1c0.2,0.5,0.2,0.4,0.2,0.4
						s0.2-1.1,0.1-2.2c-0.2-1-0.3-1.7-0.3-1.7s0.3,0.3,0.7,1.3c0.5,1,0.4,1.1,0.4,1.2c0,0.1,0.1,0.1,0.1,0.1l0.3,0
						c0,0-0.1-0.9-0.1-0.9c0-0.1-0.7-1.1-0.8-1.3c-0.1-0.2-0.4-0.8-0.6-1.1C82,109,82,109,82,109s0-0.1,0.1,0c0.1,0,0.1-0.3-0.1-0.5
						c-0.2-0.2-0.4-0.4-0.4-0.4s0.4,0.3,0.5,0.4c0.1,0.1,0.3,0.2,0.3,0c0-0.2-0.1-0.5-0.2-0.5c0-0.1-0.2-0.3-0.2-0.3
						s1.3,1.1,1.5,1.5c0.2,0.4,0.4,0.9,0.5,1c0.1,0.1,0.1,0.3,0.1,0.3s0.2-0.2,0.2-0.2c0,0-0.1-0.5-0.1-0.5l-0.2-0.4
						c0,0-0.7-1-0.9-1.1c-0.1-0.2-0.6-0.5-0.6-0.5s0.2-0.1,0.3,0c0.1,0.1-0.1-0.6-0.2-0.7c-0.1-0.1-0.4-0.5-0.5-0.5
						c-0.1,0,0.4-0.1,0.5,0c0.2,0.1,0.5,0.2,0.6,0.3c0.1,0.1-0.2-0.5-0.4-0.7c-0.2-0.2-0.7-0.5-0.8-0.5c0-0.1,0-0.1,0.1-0.2
						c0.1-0.1,0.6-0.2,0.7-0.3c0.1-0.1,0.2-0.2-0.1-0.2c-0.4,0-0.8,0-0.8-0.1c0-0.1,0-0.3,0.1-0.4c0.1-0.2,0.2-0.2,0.3-0.3
						c0,0-0.2-0.1-0.3-0.1c-0.1,0-0.1-0.1-0.1-0.1s-0.4-1-0.7-1.2c-0.2-0.2-0.3-0.4-0.5-0.5c-0.2-0.1-0.7-0.3-0.9-0.2
						C79.8,101.9,79.5,102.1,79.4,102.2z"/>
					<path class="st3" d="M82.6,115.9c0,0-0.1,0-0.3-0.2c-0.7-0.5-1.1-0.9-1.7-2c-0.6-1.1-0.8-2.4-0.8-2.6c0-0.3-0.2-0.5-0.2-0.6
						c0-0.1-0.6-2.5-0.5-2.2c0,0.2,0.3,2.4,0.3,2.7c0,0.3,0.1,1.4,0.1,1.7c0,0.4,0.2,0.8,0.2,1c0.1,0.2,0.8,1.8,1.1,2.7
						c0.4,0.9,0.5,1.9,0.4,2.5c-0.1,0.6-0.4,0.8-0.4,0.8s0.3,0.1,0.5-0.8c0.3-0.9-0.2-2.1-0.3-2.4c-0.1-0.3-1.2-2.7-1.3-3.1
						c-0.2-0.4-0.1-2.3-0.1-2.2c0,0.1,0.1,1.3,0.9,3c0.7,1.7,2,2.1,2,2.1L82.6,115.9z"/>
					<path class="st3" d="M81.1,108.5c0,0-0.1-0.7-0.2-0.8c-0.1-0.2-0.2-0.3-0.3-0.4c-0.1-0.1-0.1-0.2-0.1-0.2s0.3,0.1,0.3,0.1
						c0.1,0,0.3-2.9-0.1-3.5c-0.1-0.1-0.6,0.5-0.7,0.6c-0.1,0-0.2-0.7-0.3-0.8c-0.1-0.1-0.2,0.7-0.2,0.8c0,0-0.3-0.6-0.4-0.6
						c0,0,0,0.7-0.1,0.8c-0.1,0.1-0.6-0.2-0.8-0.2c0,0,0,0.4,0,0.6v0.1c0,0-0.4-0.1-0.6,0c-0.2,0,0.2,0.2,0.3,0.3
						c0.1,0.1,0.1,0.1,0.1,0.1s-0.3,0.2-0.5,0.3c-0.2,0.1-0.1,0.1-0.1,0.1s0.4,0.1,0.4,0.2c0.1,0.1-0.5,0.5-0.6,0.6
						c-0.1,0.1,0.7,0.2,0.7,0.2s-0.2,0.7-0.2,0.8c-0.1,0.1,0.5-0.1,0.5-0.1s0,0.8,0,0.9c0,0.1,0.8-0.4,0.8-0.4l0.4,0.4
						c0,0,0.1-0.5,0.1-0.6c0-0.1,0.3,0.4,0.4,0.4c0,0.1,0.3-0.4,0.3-0.4S81.1,108.3,81.1,108.5z"/>
					<path class="st3" d="M81.3,105.3c0,0-0.1,0.6-0.1,0.8c0,0.2,0,0.7,0,0.7s0.5,0.1,0.5,0.2c0.1,0.1,0-0.2,0.1-0.3
						c0-0.2-0.1-0.4-0.1-0.4s-0.3-0.1-0.3-0.2c0.1,0,0.1-0.1,0.2-0.1c0.1,0,0.1,0,0.1,0l0-0.8c0,0,0-0.1-0.1-0.1
						C81.6,105.1,81.3,105.3,81.3,105.3z"/>
					<path class="st3" d="M81.9,105.8c0,0,0.1-0.4,0.2-0.3c0.1,0,0.8,0.6,0.7,0.6c-0.1,0-0.3,0-0.4-0.1c-0.1,0-0.2,0-0.3,0
						C81.9,106.1,82,105.8,81.9,105.8z"/>
					<path class="st3" d="M82.2,106.5c0,0,0.2,0.2,0.3,0.3c0.1,0.1,0.2,0.3,0.2,0.4c0,0.1,0,0-0.2,0c-0.2,0-0.5-0.2-0.5-0.2
						s0-0.5,0-0.6C82,106.4,82.1,106.5,82.2,106.5z"/>
					<path class="st3" d="M81.3,107.5c0.1,0.2,0.7,0.5,0.8,0.6c0.1,0.1,0.1-0.1,0-0.4c-0.1-0.2-0.5-0.5-0.6-0.5c0,0-0.2-0.2-0.2-0.2
						C81.2,107,81.1,107.2,81.3,107.5z"/>
					<path class="st3" d="M78.1,121.4c0,0,0.4,0.8,1.2,1.6c0,0,0.4,0.3,0.5,0.3c0.1,0,0.6-0.3,0.8-0.4c0.2-0.1,0.6-0.6,0.6-0.6
						s0.2-0.7,0.3-1c0-0.3,0-0.4,0-0.4s-1-0.9-1.2-1.2c-0.2-0.3-0.2-0.5-0.2-0.5s-0.6-3.6-0.8-5.2c-0.2-1.6-0.2-2.1-0.2-2.1
						s-0.2,0.3-0.2,0.6c-0.1,0.3,0.1,3.1,0.3,4.3c0.2,1.1,0.2,2,0.2,2S78.2,120.9,78.1,121.4z"/>
					<path class="st3" d="M79.8,109.3c0,0,0.4,0.2,0.5,0.6c0.1,0.2,0.2,1.8,0.4,2.3c0.1,0.4,0.3,0.6,0.5,0.7
						c0.1,0.1-0.3-0.4-0.4-1.2c-0.1-0.7-0.2-1.4-0.2-1.6C80.5,109.9,80.4,109.3,79.8,109.3z"/>
					<path class="st3" d="M79.8,108.4c0,0,0.7,0.7,1.2,1c0.6,0.5,0.9,1.1,0.8,1.7c0,0.2-0.2-0.7-0.6-1.3
						C81.1,109.7,79.9,108.7,79.8,108.4z"/>
					<path class="st3" d="M78,115.9c0,0,0.2-0.4,0.3-0.5c0.1-0.1,0.5-0.5,0.3-1.4c-0.1-0.7-0.2-1.8,0-2.1c0.2-0.3,0.2-0.3,0.3-0.5
						c0.1-0.1-0.1,0-0.3,0.3c-0.2,0.3,0.1-0.8,0.2-1.2c0.1-0.5,0.1-0.7,0.1-0.7s-0.4,1.1-0.7,2.4c-0.3,1.3-0.2,1-0.2,1.3
						c0,0.1,0.2-0.7,0.5-1.1c0.1-0.1,0.1,0.7,0.1,1.1c0.1,0.6,0,1.2-0.1,1.4C78.4,115.1,78,115.6,78,115.9z"/>
					<path class="st3" d="M77.8,119.4c0,0,0-0.3,0.2-0.6c0.2-0.1,0.2-0.5,0.2-0.6c0-0.1,0.3,0.4,0.1,0.7c-0.2,0.3-0.3,0.5-0.4,0.9
						C77.9,119.9,77.8,119.4,77.8,119.4z"/>
					<path class="st3" d="M77.4,118.6c0,0,0.4-0.7,0.6-1.5c0.1-0.4,0.1-0.7,0.1-0.7S78.3,117.6,77.4,118.6z"/>
					<path class="st3" d="M78.6,109.6c0,0-0.2-0.8,0.4-1.3C79,108.2,78.5,109.5,78.6,109.6z"/>
					<path class="st3" d="M81.4,108.1c0,0,0,0.3,0,0.4c0,0,0.3,0.2,0.4,0.2c0,0,0.2,0,0.1-0.1C81.9,108.5,81.5,108.1,81.4,108.1z"/>
				</g>
				<path class="st3" d="M81.3,105l0.4-0.1c0,0,0.2-0.5,0.3-0.6c0-0.1-0.7,0-0.7,0C81.2,104.2,81.3,104.9,81.3,105z"/>
				<path class="st3" d="M81.2,103.9c0,0-0.2-0.4-0.3-0.8c0-0.1,0.1-0.4,0.1-0.4c-0.1-0.2,0.6,0.9,0.7,1
					C81.8,103.9,81.2,103.9,81.2,103.9z"/>
				<g>
					<path class="st5" d="M80.7,102.4c0,0.1-0.3,0.2-0.6,0.2c-0.3,0-0.6-0.1-0.6-0.2c0-0.1,0.3-0.2,0.6-0.2
						C80.4,102.2,80.7,102.3,80.7,102.4z"/>
					<path class="st6" d="M80.1,102.7c-0.3,0-0.6-0.1-0.6-0.2s0.3-0.2,0.6-0.2c0.3,0,0.6,0.1,0.6,0.2S80.5,102.7,80.1,102.7z
						 M80.1,102.2c-0.3,0-0.5,0.1-0.5,0.2s0.2,0.2,0.5,0.2s0.5-0.1,0.5-0.2S80.5,102.2,80.1,102.2z"/>
				</g>
				<g>
					<path class="st4" d="M80.7,102.9c0,0.1-0.3,0.2-0.6,0.2c-0.3,0-0.6-0.1-0.6-0.2c0-0.1,0.3-0.2,0.6-0.2
						C80.4,102.7,80.7,102.8,80.7,102.9z"/>
					<path class="st6" d="M80.1,103.1c-0.3,0-0.6-0.1-0.6-0.2c0-0.1,0.3-0.2,0.6-0.2c0.3,0,0.6,0.1,0.6,0.2
						C80.7,103,80.5,103.1,80.1,103.1z M80.1,102.7c-0.3,0-0.5,0.1-0.5,0.2c0,0.1,0.2,0.2,0.5,0.2s0.5-0.1,0.5-0.2
						C80.7,102.8,80.5,102.7,80.1,102.7z"/>
				</g>
				<g>
					<path class="st5" d="M80.7,103.3c0,0.1-0.3,0.2-0.6,0.2c-0.3,0-0.6-0.1-0.6-0.2c0-0.1,0.3-0.2,0.6-0.2
						C80.4,103.1,80.7,103.2,80.7,103.3z"/>
					<path class="st6" d="M80.1,103.6c-0.3,0-0.6-0.1-0.6-0.2c0-0.1,0.3-0.2,0.6-0.2c0.3,0,0.6,0.1,0.6,0.2
						C80.7,103.5,80.5,103.6,80.1,103.6z M80.1,103.1c-0.3,0-0.5,0.1-0.5,0.2c0,0.1,0.2,0.2,0.5,0.2c0.3,0,0.5-0.1,0.5-0.2
						C80.7,103.2,80.4,103.1,80.1,103.1z"/>
				</g>
				<g>
					<path d="M77.6,126.5c-0.3,0-0.5-0.2-0.5-0.5c0-0.3,0.2-0.5,0.5-0.5c0.3,0,0.5,0.2,0.5,0.5C78.1,126.3,77.9,126.5,77.6,126.5z"
						/>
				</g>
				<g>
					<path d="M77.3,125.1c-0.3,0-0.5-0.2-0.5-0.5c0-0.3,0.2-0.5,0.5-0.5c0.3,0,0.5,0.2,0.5,0.5C77.7,124.9,77.5,125.1,77.3,125.1z"
						/>
				</g>
				<g>
					<path d="M83.9,112.9c-0.3,0-0.5-0.2-0.5-0.5c0-0.3,0.2-0.5,0.5-0.5c0.3,0,0.5,0.2,0.5,0.5C84.3,112.7,84.1,112.9,83.9,112.9z"
						/>
				</g>
				<g>
					<path d="M84.4,110.6c-0.3,0-0.5-0.2-0.5-0.5c0-0.3,0.2-0.5,0.5-0.5s0.5,0.2,0.5,0.5C84.9,110.4,84.7,110.6,84.4,110.6z"/>
				</g>
				<g>
					<path d="M30.9,102.2c0,0,0.2,0.1,0.1,0.3c0,0.1-0.1,0.1-0.1,0.1s0.1,0.1,0.1,0.3c0,0.2-0.1,0.2-0.1,0.2s0.1,0.1,0.1,0.2
						c0,0.1,0,0.1,0,0.1l0.2-0.2l0.1,0.8l1.1-0.4l-0.1,0.6l0.7,0l-0.2,0.7c0,0,0.4,0.1,0.6,0.3c0.2,0.2,0.2,0.3,0.2,0.3l-0.6,0
						l0.4,0.3l-0.1,0.2l0.1,0.3l-0.7,0.3l0.7,0.9l0,0.6l-0.8-0.5l0.3,1.3l0,1.7c0,0-0.2-0.5-0.3-0.6c-0.1-0.1-0.2-0.2-0.2-0.2
						s0.3,0.9,0.5,1.4c0.2,0.4,0.1,0.6,0.1,0.6s0.2,1,0.2,1.7c0,0.6,0.1,1.4,0.1,1.6c0,0.2,0,0.2,0,0.2L33,115l0.1,0.3
						c0,0,0,2.2,0,2.4c0,0.2,0,0.3,0,0.3l-0.2,0l0.1,0.3c0,0,0,1.6,0,1.8c0,0.2-0.2,0.7-0.3,0.9c-0.1,0.3-0.6,1.1-1.1,1.7
						c-0.5,0.6-0.8,0.9-0.8,1c0,0.1-0.1,0.4,0,0.4c0.1,0,0.8,0,1,0.1c0.2,0.1,0.2,0,0.3,0.1c0.1,0,0.6,0.3,0.6,0.3l-0.1,0.2
						c0,0-0.3,0-0.6-0.1c-0.2,0-0.2-0.1-0.5-0.1c-0.3,0-0.6,0.1-0.7,0c-0.1-0.1-0.3-0.3-0.3-0.3s-0.1,0.4,0.1,0.5
						c0.2,0.2,1.2,0.5,1.4,0.6c0.2,0.1,0.5,0.3,0.5,0.5c0,0.2-0.5,0.2-0.5,0.2s0-0.4-0.1-0.5c-0.1-0.1-0.3-0.1-0.6-0.1
						c-0.3,0-0.5-0.1-0.7-0.3c-0.2-0.2-0.3-0.3-0.4-0.7c0-0.4,0-0.4,0-0.4s0-0.2-0.5-0.4c-0.5-0.2-0.9-0.5-1-0.5
						c-0.1-0.1-0.4-0.2-0.4-0.2s-0.1-1.2-0.2-1.5c-0.1-0.3-0.2-0.3-0.2-0.3s-0.6-3.8-0.6-4.2c0-0.4-0.1-0.7-0.1-0.7s1.3-0.4,2-2.1
						c0.7-1.7,0.9-2.9,0.9-3c0-0.1,0,1.8-0.1,2.2c-0.2,0.4-1.2,2.8-1.3,3.1c-0.1,0.3-0.6,1.5-0.3,2.4c0.3,0.9,0.5,0.8,0.5,0.8
						s-0.2-0.2-0.4-0.8c-0.1-0.6,0-1.6,0.4-2.5c0.4-0.9,1.1-2.5,1.1-2.7c0.1-0.2,0.2-0.6,0.2-1c0-0.4,0.1-1.4,0.1-1.7
						c0-0.3,0.3-2.5,0.3-2.7c0-0.2-0.5,2.1-0.5,2.2c0,0.1-0.2,0.4-0.2,0.6c0,0.3-0.2,1.5-0.8,2.6c-0.6,1.1-1,1.5-1.7,2
						c-0.2,0.1-0.3,0.2-0.3,0.2s0-1,0-1.4c0.1-0.3,0.6-1.5,0.7-1.8c0.2-0.3,0.2-0.3,0.2-0.3s-0.5,0.6-0.6,1
						c-0.2,0.5-0.2,0.4-0.2,0.4s-0.2-1.1-0.1-2.2c0.2-1,0.3-1.7,0.3-1.7s-0.3,0.3-0.7,1.3c-0.5,1-0.4,1.1-0.4,1.2
						c0,0.1-0.1,0.1-0.1,0.1l-0.3,0c0,0,0.1-0.9,0.1-0.9c0-0.1,0.7-1.1,0.8-1.3c0.1-0.2,0.4-0.8,0.6-1.1c0.3-0.3,0.2-0.4,0.2-0.4
						s0-0.1-0.1,0c-0.1,0-0.1-0.3,0.1-0.5c0.2-0.2,0.4-0.4,0.4-0.4s-0.4,0.3-0.5,0.4c-0.1,0.1-0.3,0.2-0.3,0c0-0.2,0.1-0.5,0.2-0.5
						c0-0.1,0.2-0.3,0.2-0.3s-1.3,1.1-1.5,1.5c-0.2,0.4-0.4,0.9-0.5,1c-0.1,0.1-0.1,0.3-0.1,0.3s-0.2-0.2-0.2-0.2
						c0,0,0.1-0.5,0.1-0.5l0.2-0.4c0,0,0.7-1,0.9-1.1c0.1-0.2,0.6-0.5,0.6-0.5s-0.2-0.1-0.3,0c-0.1,0.1,0.1-0.6,0.2-0.7
						c0.1-0.1,0.4-0.5,0.5-0.5c0.1,0-0.4-0.1-0.5,0c-0.2,0.1-0.5,0.2-0.6,0.3c-0.1,0.1,0.2-0.5,0.4-0.7c0.2-0.2,0.7-0.5,0.8-0.5
						c0-0.1,0-0.1-0.1-0.2c-0.1-0.1-0.6-0.2-0.7-0.3c-0.1-0.1-0.2-0.2,0.1-0.2c0.4,0,0.8,0,0.8-0.1c0-0.1,0-0.3-0.1-0.4
						c-0.1-0.2-0.2-0.2-0.3-0.3c0,0,0.2-0.1,0.3-0.1c0.1,0,0.1-0.1,0.1-0.1s0.4-1,0.7-1.2c0.2-0.2,0.3-0.4,0.5-0.5
						c0.2-0.1,0.6-0.2,0.8-0.1C30.5,102,30.8,102,30.9,102.2z"/>
					<path class="st4" d="M29.2,108.4c0,0,0.1-0.7,0.2-0.8c0.1-0.2,0.2-0.3,0.3-0.4c0.1-0.1,0.1-0.2,0.1-0.2s-0.3,0.1-0.3,0.1
						c-0.1,0-0.3-2.9,0.1-3.5c0.1-0.1,0.6,0.5,0.7,0.6c0.1,0,0.2-0.7,0.3-0.8c0.1-0.1,0.2,0.7,0.2,0.8c0,0,0.3-0.6,0.4-0.6
						c0,0,0,0.7,0.1,0.8c0.1,0.1,0.6-0.2,0.8-0.2c0,0,0,0.4,0,0.6v0.1c0,0,0.4-0.1,0.6,0c0.2,0-0.2,0.2-0.3,0.3
						c-0.1,0.1-0.1,0.1-0.1,0.1s0.3,0.2,0.5,0.3c0.2,0.1,0.1,0.1,0.1,0.1s-0.4,0.1-0.4,0.2c-0.1,0.1,0.5,0.5,0.6,0.6
						c0.1,0.1-0.7,0.2-0.7,0.2s0.2,0.7,0.2,0.8c0.1,0.1-0.5-0.1-0.5-0.1s0,0.8,0,0.9c0,0.1-0.8-0.4-0.8-0.4l-0.4,0.4
						c0,0-0.1-0.5-0.1-0.6c0-0.1-0.3,0.4-0.4,0.4c0,0.1-0.3-0.4-0.3-0.4S29.2,108.3,29.2,108.4z"/>
					<path class="st4" d="M29,105.3c0,0,0.1,0.6,0.1,0.8c0,0.2,0,0.7,0,0.7s-0.5,0.1-0.5,0.2c-0.1,0.1,0-0.2-0.1-0.3
						c0-0.2,0.1-0.4,0.1-0.4s0.3-0.1,0.3-0.2c-0.1,0-0.1-0.1-0.2-0.1c-0.1,0-0.1,0-0.1,0l0-0.8c0,0,0-0.1,0.1-0.1
						C28.7,105.1,29,105.3,29,105.3z"/>
					<path class="st4" d="M28.3,105.8c0,0-0.1-0.4-0.2-0.3c-0.1,0-0.8,0.6-0.7,0.6c0.1,0,0.3,0,0.4-0.1c0.1,0,0.2,0,0.3,0
						C28.3,106,28.3,105.8,28.3,105.8z"/>
					<path class="st4" d="M28.1,106.5c0,0-0.2,0.2-0.3,0.3c-0.1,0.1-0.2,0.3-0.2,0.4c0,0.1,0,0,0.2,0c0.2,0,0.5-0.2,0.5-0.2
						s0-0.5,0-0.6C28.3,106.4,28.1,106.5,28.1,106.5z"/>
					<path class="st4" d="M29,107.4c-0.1,0.2-0.7,0.5-0.8,0.6c-0.1,0.1-0.1-0.1,0-0.4c0.1-0.2,0.5-0.5,0.6-0.5c0,0,0.2-0.2,0.2-0.2
						C29.1,107,29.2,107.1,29,107.4z"/>
					<path class="st4" d="M32.2,121.4c0,0-0.4,0.8-1.2,1.6c0,0-0.4,0.3-0.5,0.3c-0.1,0-0.6-0.3-0.8-0.4c-0.2-0.1-0.6-0.6-0.6-0.6
						s-0.2-0.7-0.3-1c0-0.3,0-0.4,0-0.4s1-0.8,1.2-1.2c0.2-0.3,0.2-0.5,0.2-0.5s0.6-3.6,0.8-5.2c0.2-1.6,0.2-2.1,0.2-2.1
						s0.2,0.3,0.2,0.6c0.1,0.3-0.1,3.1-0.3,4.3c-0.2,1.1-0.2,2-0.2,2S32.1,120.9,32.2,121.4z"/>
					<path class="st3" d="M30.5,109.3c0,0-0.4,0.2-0.5,0.6c-0.1,0.2-0.2,1.8-0.4,2.3c-0.1,0.4-0.3,0.6-0.5,0.7
						c-0.1,0.1,0.3-0.4,0.4-1.2c0.1-0.7,0.2-1.4,0.2-1.6C29.8,109.8,29.9,109.3,30.5,109.3z"/>
					<path class="st3" d="M30.4,108.4c0,0-0.7,0.7-1.2,1c-0.6,0.5-0.9,1.1-0.8,1.7c0,0.2,0.2-0.7,0.6-1.3
						C29.2,109.6,30.4,108.6,30.4,108.4z"/>
					<path class="st3" d="M32.2,115.9c0,0-0.2-0.4-0.3-0.5c-0.1-0.1-0.5-0.5-0.3-1.4c0.1-0.7,0.2-1.8,0-2.1
						c-0.2-0.3-0.2-0.3-0.3-0.5c-0.1-0.1,0.1,0,0.3,0.3c0.2,0.3-0.1-0.8-0.2-1.2c-0.1-0.5-0.1-0.7-0.1-0.7s0.4,1.1,0.7,2.4
						c0.3,1.3,0.2,1,0.2,1.3c0,0.1-0.2-0.7-0.5-1.1c-0.1-0.1-0.1,0.7-0.1,1.1c-0.1,0.6,0,1.2,0.1,1.4
						C31.9,115.1,32.3,115.5,32.2,115.9z"/>
					<path class="st3" d="M32.5,119.4c0,0,0-0.3-0.2-0.6c-0.2-0.1-0.2-0.5-0.2-0.6c0-0.1-0.3,0.4-0.1,0.7c0.2,0.3,0.3,0.5,0.4,0.9
						C32.4,119.9,32.5,119.4,32.5,119.4z"/>
					<path class="st3" d="M32.9,118.6c0,0-0.4-0.7-0.6-1.5c-0.1-0.4-0.1-0.7-0.1-0.7S31.9,117.6,32.9,118.6z"/>
					<path class="st3" d="M31.7,109.6c0,0,0.2-0.8-0.4-1.3C31.3,108.2,31.7,109.5,31.7,109.6z"/>
					<path class="st4" d="M28.8,108.1c0,0,0,0.3,0,0.4c0,0-0.3,0.2-0.4,0.2c0,0-0.2,0-0.1-0.1C28.4,108.5,28.8,108.1,28.8,108.1z"/>
				</g>
				<path class="st4" d="M29,104.9l-0.4-0.1c0,0-0.2-0.5-0.3-0.6c0-0.1,0.7,0,0.7,0C29.1,104.2,29,104.9,29,104.9z"/>
				<path class="st3" d="M29.1,103.9c0,0,0.3-0.5,0.2-0.8c-0.1-0.6-0.6,0.5-0.6,0.7C28.5,103.9,29.1,103.8,29.1,103.9z"/>
				<path class="st4" d="M30.1,102.2c-0.3,0-0.5,0.1-0.5,0.2c0,0.1,0.2,0.2,0.5,0.2c0.3,0,0.5-0.1,0.5-0.2
					C30.7,102.3,30.5,102.2,30.1,102.2z"/>
				<g>
					<path class="st3" d="M30.1,102.6c-0.3,0-0.5,0.1-0.5,0.2c0,0.1,0.2,0.2,0.5,0.2c0.3,0,0.5-0.1,0.5-0.2
						C30.7,102.8,30.5,102.6,30.1,102.6z"/>
				</g>
				<g>
					<path class="st4" d="M30.1,103.1c-0.3,0-0.5,0.1-0.5,0.2c0,0.1,0.2,0.2,0.5,0.2s0.5-0.1,0.5-0.2
						C30.7,103.2,30.5,103.1,30.1,103.1z"/>
				</g>
				<g>
					<path d="M32.6,126.5c-0.3,0-0.5-0.2-0.5-0.5c0-0.3,0.2-0.5,0.5-0.5c0.3,0,0.5,0.2,0.5,0.5C33.1,126.3,32.9,126.5,32.6,126.5z"
						/>
				</g>
				<g>
					<path d="M33,125.1c-0.3,0-0.5-0.2-0.5-0.5c0-0.3,0.2-0.5,0.5-0.5s0.5,0.2,0.5,0.5C33.5,124.9,33.3,125.1,33,125.1z"/>
				</g>
				<g>
					<path d="M26.4,112.9c-0.3,0-0.5-0.2-0.5-0.5c0-0.3,0.2-0.5,0.5-0.5c0.3,0,0.5,0.2,0.5,0.5C26.9,112.7,26.7,112.9,26.4,112.9z"
						/>
				</g>
				<g>
					<path d="M25.9,110.6c-0.3,0-0.5-0.2-0.5-0.5c0-0.3,0.2-0.5,0.5-0.5c0.3,0,0.5,0.2,0.5,0.5C26.3,110.4,26.1,110.6,25.9,110.6z"
						/>
				</g>
				<path class="st6" d="M61.2,124c0.1,0,0.1,0.1,0.1,0.1c0,0,0.1,0.1,0.1,0.1c0,0,0,0.1,0,0.2c0,0.1,0,0.1-0.1,0.2
					c0,0.1-0.1,0.1-0.2,0.2c0.1,0,0.1,0.1,0.1,0.1c0,0.1,0,0.1,0,0.2v0.1c0,0.1,0,0.1,0,0.1c0,0,0,0.1,0.1,0.1v0h-0.3
					c0,0,0-0.1,0-0.1c0,0,0-0.1,0-0.1l0-0.1c0-0.1,0-0.2,0-0.2c0,0-0.1-0.1-0.2-0.1h-0.3v0.6h-0.3V124h0.7C61,124,61.1,124,61.2,124
					z M60.5,124.3v0.4h0.3c0.1,0,0.1,0,0.1,0c0.1,0,0.1-0.1,0.1-0.2c0-0.1,0-0.2-0.1-0.2c0,0-0.1,0-0.1,0H60.5z"/>
				<path class="st6" d="M60.8,126.1c-0.7,0-1.3-0.6-1.3-1.3c0-0.7,0.6-1.3,1.3-1.3c0.7,0,1.3,0.6,1.3,1.3
					C62.1,125.5,61.5,126.1,60.8,126.1z M60.8,123.6c-0.7,0-1.2,0.5-1.2,1.2c0,0.7,0.5,1.2,1.2,1.2c0.7,0,1.2-0.5,1.2-1.2
					C62,124.1,61.5,123.6,60.8,123.6z"/>
				<path class="st4" d="M28.3,105c0,0-0.6-0.1-0.6-0.1c0,0.1,0.5,0.3,0.5,0.3C28.2,105.3,28.3,105.1,28.3,105z"/>
				<g>
					<g>
						<path class="st6" d="M47.4,104.4c-1.1,0-2-0.9-2-2.1c0-1.2,0.7-2.4,2.1-2.4c0.5,0,0.7,0.1,1,0.3c0.3,0.2,0.4,0.3,0.4,0.6v0.4
							c0,0.3-0.1,0.3-0.3,0.3c-0.2,0-0.2-0.2-0.3-0.3c-0.2-0.5-0.5-0.7-0.9-0.7c-0.9,0-1.3,0.8-1.3,1.6c0,1.2,0.7,1.6,1.2,1.6
							c0.4,0,0.6-0.1,0.9-0.5c0.1-0.1,0.2-0.2,0.3-0.2c0.1,0,0.3,0.1,0.3,0.3c0,0.3-0.6,0.7-0.6,0.7
							C48.1,104.3,47.8,104.4,47.4,104.4z"/>
					</g>
					<g>
						<path class="st6" d="M52.8,104.3h-0.7c-0.3,0-0.4-0.2-0.4-0.3c0-0.2,0.1-0.2,0.2-0.3c0,0,0,0,0.1,0c0-0.2-0.4-1-0.7-1.3
							c-0.2,0.1-0.4,0.1-0.6,0.1v1.1c0,0,0,0,0,0l0.1,0c0.1,0,0.2,0.1,0.2,0.3c0,0.1-0.1,0.3-0.3,0.3h-0.7c-0.3,0-0.3-0.2-0.3-0.3
							c0-0.2,0.1-0.2,0.2-0.3l0,0c0,0,0-0.1,0-0.2v-2.8c0-0.2,0-0.2,0-0.2c-0.1,0-0.3-0.1-0.3-0.3c0-0.1,0-0.3,0.3-0.3h1.6
							c0.8,0,1.3,0.4,1.3,1.1c0,0.4-0.3,0.8-0.7,1.1c0.3,0.4,0.5,0.9,0.7,1.3c0.1,0.2,0.1,0.2,0.2,0.2c0.1,0,0.2,0.1,0.2,0.3
							C53.1,104.1,53.1,104.3,52.8,104.3z M51.1,100.6c-0.4,0-0.4,0-0.4,0.3v1.1c0.7-0.1,1.3-0.3,1.3-0.8
							C52,100.9,51.9,100.6,51.1,100.6z"/>
					</g>
					<g>
						<path class="st6" d="M56.3,104.3H54c-0.3,0-0.4-0.2-0.4-0.3c0-0.2,0.2-0.3,0.2-0.3c0.1,0,0.1,0,0.1,0c0,0,0-0.1,0-0.1v-2.9
							c0-0.1,0-0.1,0-0.1l0,0c-0.1,0-0.2-0.1-0.2-0.3c0-0.1,0-0.3,0.3-0.3h2.2c0.2,0,0.3,0.1,0.4,0.4l0,0.1c0,0.1,0,0.2,0,0.3
							c0,0.1-0.1,0.2-0.2,0.2c-0.1,0-0.1,0-0.2-0.1c-0.1-0.2-0.3-0.3-0.8-0.3h-0.5c-0.1,0-0.2,0-0.2,0c0,0,0,0.1,0,0.2v0.8h0.7
							c0.2,0,0.3,0,0.3-0.1c0,0,0.1-0.1,0.2-0.1c0.3,0,0.3,0.3,0.3,0.4c0,0.3,0,0.5-0.3,0.5c-0.1,0-0.2-0.1-0.2-0.1c0,0,0,0-0.3,0
							h-0.7v1.1c0,0.3,0,0.3,0.2,0.3h0.4c0.8,0,0.9-0.1,1-0.3c0.1-0.1,0.2-0.2,0.3-0.2c0.1,0,0.2,0.1,0.2,0.2c0,0.1,0,0.2,0,0.3
							l0,0.2C56.7,104.2,56.6,104.3,56.3,104.3z"/>
					</g>
					<g>
						<path class="st6" d="M60,104.3h-2.3c-0.3,0-0.4-0.2-0.4-0.3c0-0.2,0.2-0.3,0.2-0.3c0,0,0.1,0,0.1,0c0,0,0-0.1,0-0.1v-2.9
							c0-0.1,0-0.1,0-0.1l0,0c-0.1,0-0.2-0.1-0.2-0.3c0-0.1,0-0.3,0.3-0.3h2.2c0.2,0,0.3,0.1,0.4,0.4l0,0.1c0,0.1,0,0.2,0,0.3
							c0,0.1-0.1,0.2-0.2,0.2c-0.1,0-0.2,0-0.2-0.1c-0.1-0.2-0.3-0.3-0.8-0.3h-0.5c-0.1,0-0.2,0-0.2,0c0,0,0,0.1,0,0.2v0.8h0.7
							c0.2,0,0.3,0,0.3-0.1c0,0,0.1-0.1,0.2-0.1c0.3,0,0.3,0.3,0.3,0.4c0,0.3,0,0.5-0.3,0.5c-0.1,0-0.2-0.1-0.2-0.1c0,0,0,0-0.3,0
							h-0.7v1.1c0,0.3,0,0.3,0.2,0.3h0.4c0.8,0,0.9-0.1,1-0.3c0.1-0.1,0.2-0.2,0.3-0.2c0.1,0,0.2,0.1,0.2,0.2c0,0.1,0,0.2,0,0.3
							c0,0.1,0,0.1,0,0.2C60.3,104.2,60.2,104.3,60,104.3z M60,100.7C60,100.7,60,100.7,60,100.7C60,100.7,60,100.7,60,100.7z"/>
					</g>
					<g>
						<path class="st6" d="M63.6,104.3c-0.1,0-0.2,0-0.3-0.1c-0.1,0-0.1-0.1-0.1-0.2c0-0.2,0.1-0.2,0.2-0.3c0-0.2-0.6-1.1-0.9-1.5
							l-0.5,0.5v0.9c0,0,0,0,0,0c0,0,0,0,0.1,0c0.1,0,0.2,0.1,0.2,0.3c0,0.1,0,0.3-0.3,0.3h-0.7c-0.3,0-0.3-0.2-0.3-0.3
							c0-0.2,0.2-0.3,0.2-0.3c0.1,0,0.1,0,0.1,0c0,0,0-0.1,0-0.1v-3c0,0,0,0,0,0c-0.1,0-0.3-0.1-0.3-0.3c0-0.1,0-0.3,0.3-0.3H62
							c0.3,0,0.3,0.2,0.3,0.3c0,0.2-0.1,0.2-0.2,0.3c-0.1,0-0.1,0-0.1,0.1c0,0,0,0,0,0c0,0,0,0,0,0.1l0,0.1v1.2
							c0.4-0.4,0.7-0.7,1-1.1c0.1-0.1,0.2-0.2,0.2-0.3c0,0,0,0,0,0c-0.1,0-0.2-0.1-0.2-0.3c0-0.1,0-0.3,0.3-0.3H64
							c0.1,0,0.2,0,0.3,0.1c0,0,0.1,0.1,0.1,0.2c0,0.2-0.2,0.3-0.2,0.3c-0.1,0.1-0.1,0.1-0.4,0.4c-0.2,0.3-0.5,0.6-0.7,0.9
							c0.5,0.5,0.9,1.2,1.1,1.7c0.1,0.2,0.1,0.2,0.2,0.3c0.1,0,0.2,0.1,0.2,0.3c0,0.1,0,0.3-0.3,0.3H63.6
							C63.6,104.3,63.6,104.3,63.6,104.3z"/>
					</g>
				</g>
				<g>
					<path class="st4" d="M48.8,101.1c0,0.1,0,0.2-0.1,0.2c-0.1,0-0.1-0.1-0.2-0.2c-0.2-0.5-0.6-0.8-1-0.8c-1,0-1.4,0.9-1.4,1.8
						c0,1.2,0.7,1.8,1.4,1.8c0.4,0,0.7-0.2,1.1-0.5c0.1-0.1,0.1-0.1,0.2-0.1c0.1,0,0.1,0.1,0.1,0.1c0,0.2-0.4,0.5-0.5,0.6
						c-0.3,0.2-0.5,0.3-0.9,0.3c-1,0-1.8-0.8-1.8-1.9c0-1.1,0.6-2.2,2-2.2c0.4,0,0.7,0.1,1,0.3c0.3,0.2,0.3,0.3,0.3,0.4V101.1z"/>
					<path class="st4" d="M50.1,100.7c0-0.3,0-0.3-0.1-0.4c-0.1,0-0.2-0.1-0.2-0.2c0-0.1,0.1-0.1,0.2-0.1h1.6c0.6,0,1.1,0.3,1.1,0.9
						c0,0.5-0.4,0.9-0.8,1c0.3,0.4,0.6,0.9,0.8,1.4c0.1,0.2,0.1,0.2,0.3,0.3c0.1,0,0.1,0,0.1,0.1c0,0.1-0.1,0.1-0.2,0.1h-0.7
						c-0.1,0-0.2,0-0.2-0.1c0-0.2,0.3-0.1,0.3-0.3c0-0.3-0.6-1.2-0.8-1.4c-0.3,0.1-0.5,0.1-0.8,0.2v1.3c0,0.1,0.1,0.1,0.2,0.1
						c0.1,0,0.1,0,0.1,0.1c0,0.1-0.1,0.1-0.2,0.1h-0.7c-0.1,0-0.2,0-0.2-0.1c0-0.1,0.1-0.1,0.2-0.2c0.1,0,0.1-0.1,0.1-0.3V100.7z
						 M50.5,102.1c0.5-0.1,1.6-0.2,1.6-1c0-0.6-0.6-0.7-1.1-0.7c-0.5,0-0.5,0.1-0.5,0.4V102.1z"/>
					<path class="st4" d="M54.1,100.7c0-0.1,0-0.3-0.2-0.3c-0.1,0-0.1,0-0.1-0.1c0-0.1,0.1-0.1,0.2-0.1h2.2c0.2,0,0.2,0.2,0.2,0.3
						c0,0.1,0,0.2,0,0.3c0,0.1,0,0.1-0.1,0.1c0,0-0.1,0-0.1,0c-0.2-0.2-0.4-0.4-0.9-0.4h-0.5c-0.3,0-0.4,0.1-0.4,0.4v1h0.9
						c0.2,0,0.3,0,0.4-0.1c0,0,0.1-0.1,0.1-0.1c0.1,0,0.1,0.1,0.1,0.3c0,0.3,0,0.4-0.1,0.4c0,0-0.1,0-0.1-0.1
						c-0.1-0.1-0.2-0.1-0.4-0.1h-0.9v1.2c0,0.4,0,0.5,0.3,0.5h0.4c0.8,0,0.9-0.1,1.1-0.3c0,0,0.1-0.1,0.2-0.1c0.1,0,0.1,0,0.1,0.1
						c0,0.1,0,0.3-0.1,0.5c0,0.1,0,0.2-0.2,0.2H54c-0.1,0-0.2,0-0.2-0.1c0-0.1,0.1-0.1,0.1-0.1c0.2-0.1,0.2-0.1,0.2-0.3V100.7z"/>
					<path class="st4" d="M57.7,100.7c0-0.1,0-0.3-0.2-0.3c-0.1,0-0.1,0-0.1-0.1c0-0.1,0.1-0.1,0.2-0.1h2.2c0.2,0,0.2,0.2,0.2,0.3
						c0,0.1,0,0.2,0,0.3c0,0.1,0,0.1-0.1,0.1c0,0-0.1,0-0.1,0c-0.2-0.2-0.4-0.4-0.9-0.4h-0.5c-0.3,0-0.4,0.1-0.4,0.4v1h0.9
						c0.2,0,0.3,0,0.4-0.1c0,0,0.1-0.1,0.1-0.1c0.1,0,0.1,0.1,0.1,0.3c0,0.3,0,0.4-0.1,0.4c0,0-0.1,0-0.1-0.1
						c-0.1-0.1-0.2-0.1-0.4-0.1h-0.9v1.2c0,0.4,0,0.5,0.3,0.5h0.4c0.8,0,0.9-0.1,1.1-0.3c0,0,0.1-0.1,0.2-0.1c0.1,0,0.1,0,0.1,0.1
						c0,0.1,0,0.3-0.1,0.5c0,0.1,0,0.2-0.2,0.2h-2.3c-0.1,0-0.2,0-0.2-0.1c0-0.1,0.1-0.1,0.1-0.1c0.2-0.1,0.2-0.1,0.2-0.3V100.7z"/>
					<path class="st4" d="M61.4,100.5c0-0.1-0.1-0.1-0.2-0.1c-0.1,0-0.1,0-0.1-0.1c0-0.1,0.1-0.1,0.2-0.1H62c0.1,0,0.2,0,0.2,0.1
						c0,0.1-0.1,0.1-0.1,0.1c-0.2,0.1-0.2,0.1-0.2,0.3v1.6c0.5-0.5,0.9-0.9,1.3-1.4c0.1-0.1,0.2-0.2,0.2-0.4c0-0.2-0.3-0.1-0.3-0.3
						c0-0.1,0.1-0.1,0.2-0.1H64c0.1,0,0.2,0,0.2,0.1c0,0.1-0.1,0.1-0.1,0.1c-0.1,0.1-0.2,0.1-0.4,0.4c-0.2,0.3-0.5,0.6-0.8,1
						c0.5,0.6,1,1.3,1.2,1.8c0.1,0.2,0.1,0.3,0.3,0.3c0.1,0,0.1,0.1,0.1,0.2c0,0.1-0.1,0.1-0.2,0.1h-0.7c-0.1,0-0.2,0-0.2-0.1
						c0-0.1,0.2-0.1,0.2-0.3c0-0.3-0.8-1.4-1.1-1.7l-0.7,0.7v1c0,0.1,0.1,0.1,0.2,0.1c0.1,0,0.1,0,0.1,0.1c0,0.1-0.1,0.1-0.2,0.1
						h-0.7c-0.1,0-0.2,0-0.2-0.1c0-0.1,0.1-0.1,0.1-0.1c0.2-0.1,0.2-0.1,0.2-0.3V100.5z"/>
				</g>
				<g>
					<g>
						<path class="st6" d="M43.8,93.4c-0.1-0.1-0.1-0.1-0.2-0.1c-0.1,0.1-0.1,0.1-0.2,0c-0.1-0.1,0-0.1,0-0.2l0.7-0.8
							c0.6-0.6,1.1-0.6,1.4-0.3c0.7,0.6,0.4,1.5-0.3,2.2l0.6,0.6c0.1,0.1,0.2,0.1,0.3,0.1c0.1-0.1,0.2-0.1,0.2,0
							c0.1,0.1,0,0.1,0,0.2l-0.4,0.4c0,0.1-0.1,0.1-0.2,0c-0.1-0.1,0-0.1,0-0.2c0-0.1,0-0.2-0.1-0.3L43.8,93.4z M45.1,94.1
							c0.4-0.4,0.8-1.2,0.3-1.7c-0.3-0.3-0.7-0.2-1.1,0.2c-0.3,0.4-0.3,0.4-0.1,0.6L45.1,94.1z"/>
						<path class="st6" d="M45.8,95.7c0,0-0.1,0-0.2-0.1c-0.1-0.1-0.1-0.2-0.1-0.3c0-0.1,0-0.1,0-0.1c0,0-0.1,0-0.1-0.1l-1.8-1.7
							c0,0,0,0,0,0c-0.1,0.1-0.2,0.1-0.4,0c-0.1-0.1-0.2-0.2,0-0.4l0.7-0.8c0.7-0.8,1.3-0.7,1.7-0.4c0.6,0.6,0.6,1.4-0.2,2.3
							l0.5,0.5c0,0,0.1,0.1,0.1,0.1c0.1-0.1,0.3-0.1,0.4,0c0.1,0.1,0.1,0.1,0.1,0.2c0,0.1-0.1,0.2-0.1,0.2L46,95.6
							C46,95.6,45.9,95.7,45.8,95.7C45.8,95.7,45.8,95.7,45.8,95.7z M44.9,92.4C44.9,92.4,44.9,92.4,44.9,92.4
							c-0.2,0-0.4,0.1-0.6,0.3c-0.2,0.3-0.2,0.3-0.1,0.4l0.8,0.7c0.2-0.2,0.4-0.6,0.4-0.9c0-0.2-0.1-0.3-0.2-0.4
							C45.1,92.5,45,92.4,44.9,92.4z"/>
					</g>
					<g>
						<path class="st6" d="M47.1,91.9c-0.5-0.9-0.4-1.9,0.4-2.3c0.7-0.4,1.7-0.2,2.3,0.8c0.5,0.9,0.3,1.9-0.5,2.3
							C48.6,93,47.7,92.9,47.1,91.9z M49.4,90.6c-0.5-0.8-1.2-1.1-1.8-0.8c-0.6,0.4-0.6,1.2-0.2,1.9c0.5,0.8,1.2,1.1,1.7,0.8
							C49.8,92.1,49.8,91.3,49.4,90.6z"/>
						<path class="st6" d="M48.6,93c-0.2,0-0.3,0-0.5-0.1c-0.5-0.1-0.9-0.5-1.2-1c-0.3-0.5-0.4-1-0.3-1.4c0.1-0.5,0.4-0.9,0.8-1.1
							c0.7-0.4,1.8-0.3,2.5,0.8c0.3,0.5,0.4,1,0.3,1.4c-0.1,0.5-0.4,0.9-0.8,1.1C49.1,92.9,48.9,93,48.6,93z M48.1,89.8
							c-0.1,0-0.3,0-0.4,0.1c-0.5,0.3-0.5,1.1-0.1,1.7c0.4,0.7,1,1,1.5,0.7c0.3-0.2,0.4-0.5,0.4-0.7c0-0.3-0.1-0.7-0.2-1l0,0
							c-0.2-0.4-0.5-0.6-0.8-0.8C48.4,89.8,48.3,89.8,48.1,89.8z"/>
					</g>
					<g>
						<path class="st6" d="M51.7,90.2c0,0.2-0.1,0.6,0,0.8c0.1,0.3,0.3,0.2,0.3,0.3c0,0.1-0.1,0.1-0.2,0.2l-0.3,0.1
							c-0.1,0-0.2,0-0.2-0.1c0-0.1,0-0.1,0-0.1c0.1-0.1,0.1-0.1,0.1-0.2c0.1-1.1,0.3-2.2,0.5-3c0-0.1,0.1-0.3,0.1-0.4
							c0.1,0,0.3,0.2,0.3,0.3c0.5,0.6,1,1.4,1.6,2.5c0,0.1,0.1,0.1,0.2,0.1c0,0,0.1,0,0.1,0.1c0,0.1-0.1,0.1-0.1,0.1l-0.5,0.1
							c-0.1,0-0.2,0-0.2-0.1c0-0.1,0.2-0.1,0.2-0.3c0-0.1-0.3-0.6-0.4-0.8L51.7,90.2z M53,89.7c-0.3-0.5-0.6-1-0.9-1.3
							c-0.1,0.5-0.2,1-0.3,1.6L53,89.7z"/>
						<path class="st6" d="M51.3,91.7c0,0-0.1,0-0.1,0c-0.1,0-0.1-0.1-0.1-0.2c0-0.1,0.1-0.2,0.1-0.3c0-0.1,0-0.1,0.1-0.1
							c0.1-1,0.3-2.2,0.5-3l0,0c0.1-0.2,0.1-0.4,0.3-0.4c0.1,0,0.3,0.1,0.4,0.3c0.5,0.6,1,1.4,1.7,2.6c0,0,0,0,0.1,0.1
							c0,0,0.2,0.1,0.2,0.2c0,0.1,0,0.3-0.3,0.3l-0.5,0.1c0,0-0.2,0-0.3,0c0,0-0.1-0.1-0.1-0.2c0-0.2,0.1-0.3,0.1-0.3c0,0,0,0,0,0
							c0-0.1-0.2-0.4-0.3-0.6l-1.1,0.2c0,0,0,0.1,0,0.1c0,0.2,0,0.4,0,0.5c0,0.1,0,0.1,0.1,0.1c0.1,0,0.2,0.1,0.2,0.2
							c0,0.1,0,0.2-0.1,0.3c-0.1,0-0.1,0-0.2,0.1l-0.3,0.1C51.4,91.7,51.3,91.7,51.3,91.7z M52.1,88.7c-0.1,0.4-0.1,0.7-0.2,1.1
							l0.8-0.2C52.5,89.3,52.3,89,52.1,88.7z"/>
					</g>
					<g>
						<path class="st6" d="M55.4,88.1c0-0.3,0-0.3-0.1-0.3c-0.1,0-0.2-0.1-0.2-0.1c0-0.1,0.1-0.1,0.2-0.1l1.3,0.1
							c0.5,0.1,0.9,0.3,0.9,0.9c0,0.4-0.4,0.7-0.8,0.8c0.3,0.4,0.4,0.8,0.6,1.3c0,0.2,0.1,0.2,0.2,0.3c0,0,0.1,0,0.1,0.1
							c0,0.1-0.1,0.1-0.2,0.1l-0.6-0.1c-0.1,0-0.2,0-0.2-0.1c0-0.1,0.2-0.1,0.2-0.2c0-0.3-0.4-1.1-0.6-1.3c-0.2,0-0.5,0.1-0.7,0.1
							l-0.1,1.1c0,0.1,0.1,0.1,0.1,0.1c0.1,0,0.1,0,0.1,0.1c0,0.1-0.1,0.1-0.2,0.1L55,90.9c-0.1,0-0.2,0-0.1-0.1
							c0-0.1,0.1-0.1,0.2-0.1c0.1,0,0.1-0.1,0.1-0.2L55.4,88.1z M55.6,89.3c0.5,0,1.4,0,1.4-0.7c0.1-0.5-0.5-0.6-0.8-0.7
							c-0.4,0-0.5,0-0.5,0.3L55.6,89.3z"/>
						<path class="st6" d="M57.5,91.3C57.4,91.3,57.4,91.3,57.5,91.3l-0.7-0.1c-0.3,0-0.3-0.2-0.3-0.3c0-0.2,0.2-0.2,0.2-0.2
							c0,0,0,0,0,0c0-0.2-0.3-0.8-0.5-1.1c-0.2,0-0.3,0-0.5,0l-0.1,0.9l0,0c0.1,0,0.2,0.1,0.2,0.3c0,0.1-0.1,0.1-0.1,0.2
							c-0.1,0.1-0.2,0.1-0.3,0.1L55,91.1c-0.1,0-0.2,0-0.2-0.1c0,0-0.1-0.1-0.1-0.2c0-0.2,0.2-0.2,0.3-0.2l0,0c0,0,0,0,0,0
							c0,0,0-0.1,0-0.1l0.2-2.4c0-0.1,0-0.1,0-0.2c-0.1-0.1-0.2-0.1-0.2-0.3c0-0.1,0.1-0.3,0.3-0.2l1.3,0.1c0.3,0,0.6,0.1,0.8,0.3
							c0.2,0.2,0.3,0.5,0.3,0.8c0,0.4-0.3,0.7-0.7,0.9c0.2,0.4,0.4,0.8,0.5,1.2c0,0.1,0.1,0.2,0.1,0.2c0.1,0,0.2,0.1,0.2,0.3
							c0,0.1-0.1,0.1-0.1,0.2C57.6,91.3,57.5,91.3,57.5,91.3z M55.7,90.7L55.7,90.7C55.7,90.7,55.7,90.7,55.7,90.7z M56,88
							c-0.1,0-0.1,0-0.1,0c0,0,0,0.1,0,0.2l-0.1,0.9c0.6,0,1.1-0.1,1.1-0.6c0-0.2,0-0.3-0.2-0.4c-0.1-0.1-0.3-0.1-0.5-0.1
							C56.1,88,56.1,88,56,88z"/>
					</g>
					<g>
						<path class="st6" d="M61.7,90.1c0,0.1-0.1,0.1-0.2,0.1c-0.1,0,0-0.2,0-0.2c0-0.5-0.2-0.8-0.6-1c-0.8-0.3-1.4,0.3-1.7,0.9
							c-0.4,0.9-0.1,1.6,0.5,1.9c0.3,0.1,0.7,0.1,1-0.1c0.1,0,0.1-0.1,0.2-0.1c0.1,0,0.1,0.1,0,0.1c-0.1,0.1-0.5,0.3-0.6,0.3
							c-0.3,0.1-0.5,0-0.8-0.1c-0.8-0.3-1.2-1.3-0.8-2.1c0.4-0.8,1.2-1.6,2.3-1.1c0.3,0.1,0.5,0.3,0.7,0.5c0.2,0.2,0.2,0.3,0.1,0.5
							L61.7,90.1z"/>
						<path class="st6" d="M60.1,92.3c-0.2,0-0.4,0-0.6-0.1c-0.4-0.2-0.8-0.5-0.9-0.9c-0.2-0.4-0.2-0.9,0-1.4
							c0.2-0.5,0.5-0.9,0.9-1.1c0.5-0.3,1-0.3,1.6-0.1c0.4,0.2,0.5,0.3,0.7,0.6c0.2,0.2,0.2,0.4,0.1,0.6l-0.1,0.3
							c0,0.1-0.1,0.2-0.2,0.2c-0.1,0-0.1,0-0.2,0c-0.1-0.1-0.1-0.2-0.1-0.3c0-0.5-0.1-0.7-0.5-0.9c-0.4-0.2-0.7,0-0.9,0.1
							c-0.3,0.2-0.5,0.4-0.6,0.8c-0.4,0.9,0,1.5,0.4,1.7c0.3,0.1,0.5,0.1,0.9-0.1c0.1,0,0.2-0.1,0.3-0.1c0.1,0.1,0.2,0.2,0.1,0.3
							c-0.1,0.3-0.7,0.4-0.7,0.4C60.4,92.3,60.2,92.3,60.1,92.3z"/>
					</g>
					<g>
						<path class="st6" d="M63.6,90.7c0-0.1,0-0.1,0-0.2c0-0.1-0.1-0.1,0-0.2c0.1-0.1,0.1,0,0.2,0l0.4,0.4c0.1,0,0.1,0.1,0,0.2
							c-0.1,0.1-0.1,0-0.2,0c-0.2-0.1-0.2,0-0.3,0.1l-0.6,0.7l1.4,1.2l0.7-0.8c0.1-0.1-0.2-0.2,0-0.3c0.1-0.1,0.1,0,0.2,0l0.5,0.4
							c0.1,0,0.1,0.1,0,0.2c-0.1,0.1-0.1,0-0.2,0c-0.2-0.1-0.2,0-0.3,0.1l-1.7,1.9c-0.1,0.1,0.1,0.3,0,0.4c-0.1,0.1-0.1,0-0.2,0
							l-0.5-0.4c-0.1,0-0.1-0.1,0-0.2c0-0.1,0.1,0,0.2,0c0.1,0.1,0.2,0.1,0.3-0.1l0.8-0.9L63,91.9L62.1,93c0,0.1,0,0.1,0,0.2
							c0,0.1,0.1,0.1,0,0.2c-0.1,0.1-0.1,0-0.2,0l-0.4-0.4c-0.1,0-0.1-0.1,0-0.2c0-0.1,0.1,0,0.2,0c0.2,0.1,0.2,0,0.3-0.1L63.6,90.7
							z"/>
						<path class="st6" d="M63.7,95c-0.1,0-0.2-0.1-0.2-0.1l-0.5-0.4c-0.2-0.2-0.1-0.3-0.1-0.4c0.1-0.1,0.3-0.1,0.3-0.1
							c0,0,0.1,0,0.1,0c0,0,0-0.1,0.1-0.1l0.7-0.8l-1.2-1L62.2,93l0,0c0,0.1,0.1,0.2,0,0.3c-0.1,0.1-0.1,0.1-0.2,0.1c0,0,0,0,0,0
							c-0.1,0-0.2-0.1-0.2-0.1L61.4,93c0,0-0.1-0.1-0.1-0.2c0,0,0-0.1,0.1-0.2c0.1-0.1,0.3-0.1,0.3,0c0,0,0,0,0.1,0c0,0,0,0,0-0.1
							l1.7-1.9l0,0c0-0.1-0.1-0.2,0-0.4c0.1-0.1,0.2-0.2,0.4,0l0.4,0.4c0,0,0.1,0.1,0.1,0.2c0,0,0,0.1-0.1,0.2
							c-0.1,0.1-0.3,0.1-0.3,0.1c-0.1,0-0.1,0-0.1,0c0,0,0,0,0,0.1l-0.5,0.6l1.2,1l0.6-0.7c0-0.1-0.2-0.2,0-0.4
							c0.1-0.1,0.2-0.2,0.4,0l0.5,0.4c0,0,0.1,0.1,0.1,0.2c0,0,0,0.1-0.1,0.2c-0.1,0.2-0.3,0.1-0.3,0.1c0,0,0,0-0.1,0c0,0,0,0,0,0.1
							l-1.7,1.9c0,0,0,0,0,0c0,0.1,0.1,0.2,0,0.3C63.9,95,63.8,95,63.7,95C63.7,95,63.7,95,63.7,95z M62.2,93.1L62.2,93.1
							C62.2,93.1,62.2,93.1,62.2,93.1z"/>
					</g>
				</g>
				<g>
					<path class="st4" d="M43.8,93.4c-0.1-0.1-0.1-0.1-0.2-0.1c-0.1,0.1-0.1,0.1-0.2,0c-0.1-0.1,0-0.1,0-0.2l0.7-0.8
						c0.6-0.6,1.1-0.6,1.4-0.3c0.7,0.6,0.4,1.5-0.3,2.2l0.6,0.6c0.1,0.1,0.2,0.1,0.3,0.1c0.1-0.1,0.2-0.1,0.2,0c0.1,0.1,0,0.1,0,0.2
						l-0.4,0.4c0,0.1-0.1,0.1-0.2,0c-0.1-0.1,0-0.1,0-0.2c0-0.1,0-0.2-0.1-0.3L43.8,93.4z M45.1,94.1c0.4-0.4,0.8-1.2,0.3-1.7
						c-0.3-0.3-0.7-0.2-1.1,0.2c-0.3,0.4-0.3,0.4-0.1,0.6L45.1,94.1z"/>
					<path class="st4" d="M47.1,91.9c-0.5-0.9-0.4-1.9,0.4-2.3c0.7-0.4,1.7-0.2,2.3,0.8c0.5,0.9,0.3,1.9-0.5,2.3
						C48.6,93,47.7,92.9,47.1,91.9z M49.4,90.6c-0.5-0.8-1.2-1.1-1.8-0.8c-0.6,0.4-0.6,1.2-0.2,1.9c0.5,0.8,1.2,1.1,1.7,0.8
						C49.8,92.1,49.8,91.3,49.4,90.6z"/>
					<path class="st4" d="M51.7,90.2c0,0.2-0.1,0.6,0,0.8c0.1,0.3,0.3,0.2,0.3,0.3c0,0.1-0.1,0.1-0.2,0.2l-0.3,0.1
						c-0.1,0-0.2,0-0.2-0.1c0-0.1,0-0.1,0-0.1c0.1-0.1,0.1-0.1,0.1-0.2c0.1-1.1,0.3-2.2,0.5-3c0-0.1,0.1-0.3,0.1-0.4
						c0.1,0,0.3,0.2,0.3,0.3c0.5,0.6,1,1.4,1.6,2.5c0,0.1,0.1,0.1,0.2,0.1c0,0,0.1,0,0.1,0.1c0,0.1-0.1,0.1-0.1,0.1l-0.5,0.1
						c-0.1,0-0.2,0-0.2-0.1c0-0.1,0.2-0.1,0.2-0.3c0-0.1-0.3-0.6-0.4-0.8L51.7,90.2z M53,89.7c-0.3-0.5-0.6-1-0.9-1.3
						c-0.1,0.5-0.2,1-0.3,1.6L53,89.7z"/>
					<path class="st4" d="M55.4,88.1c0-0.3,0-0.3-0.1-0.3c-0.1,0-0.2-0.1-0.2-0.1c0-0.1,0.1-0.1,0.2-0.1l1.3,0.1
						c0.5,0.1,0.9,0.3,0.9,0.9c0,0.4-0.4,0.7-0.8,0.8c0.3,0.4,0.4,0.8,0.6,1.3c0,0.2,0.1,0.2,0.2,0.3c0,0,0.1,0,0.1,0.1
						c0,0.1-0.1,0.1-0.2,0.1l-0.6-0.1c-0.1,0-0.2,0-0.2-0.1c0-0.1,0.2-0.1,0.2-0.2c0-0.3-0.4-1.1-0.6-1.3c-0.2,0-0.5,0.1-0.7,0.1
						l-0.1,1.1c0,0.1,0.1,0.1,0.1,0.1c0.1,0,0.1,0,0.1,0.1c0,0.1-0.1,0.1-0.2,0.1L55,90.9c-0.1,0-0.2,0-0.1-0.1
						c0-0.1,0.1-0.1,0.2-0.1c0.1,0,0.1-0.1,0.1-0.2L55.4,88.1z M55.6,89.3c0.5,0,1.4,0,1.4-0.7c0.1-0.5-0.5-0.6-0.8-0.7
						c-0.4,0-0.5,0-0.5,0.3L55.6,89.3z"/>
					<path class="st4" d="M61.7,90.1c0,0.1-0.1,0.1-0.2,0.1c-0.1,0,0-0.2,0-0.2c0-0.5-0.2-0.8-0.6-1c-0.8-0.3-1.4,0.3-1.7,0.9
						c-0.4,0.9-0.1,1.6,0.5,1.9c0.3,0.1,0.7,0.1,1-0.1c0.1,0,0.1-0.1,0.2-0.1c0.1,0,0.1,0.1,0,0.1c-0.1,0.1-0.5,0.3-0.6,0.3
						c-0.3,0.1-0.5,0-0.8-0.1c-0.8-0.3-1.2-1.3-0.8-2.1c0.4-0.8,1.2-1.6,2.3-1.1c0.3,0.1,0.5,0.3,0.7,0.5c0.2,0.2,0.2,0.3,0.1,0.5
						L61.7,90.1z"/>
					<path class="st4" d="M63.6,90.7c0-0.1,0-0.1,0-0.2c0-0.1-0.1-0.1,0-0.2c0.1-0.1,0.1,0,0.2,0l0.4,0.4c0.1,0,0.1,0.1,0,0.2
						c-0.1,0.1-0.1,0-0.2,0c-0.2-0.1-0.2,0-0.3,0.1l-0.6,0.7l1.4,1.2l0.7-0.8c0.1-0.1-0.2-0.2,0-0.3c0.1-0.1,0.1,0,0.2,0l0.5,0.4
						c0.1,0,0.1,0.1,0,0.2c-0.1,0.1-0.1,0-0.2,0c-0.2-0.1-0.2,0-0.3,0.1l-1.7,1.9c-0.1,0.1,0.1,0.3,0,0.4c-0.1,0.1-0.1,0-0.2,0
						l-0.5-0.4c-0.1,0-0.1-0.1,0-0.2c0-0.1,0.1,0,0.2,0c0.1,0.1,0.2,0.1,0.3-0.1l0.8-0.9L63,91.9L62.1,93c0,0.1,0,0.1,0,0.2
						c0,0.1,0.1,0.1,0,0.2c-0.1,0.1-0.1,0-0.2,0l-0.4-0.4c-0.1,0-0.1-0.1,0-0.2c0-0.1,0.1,0,0.2,0c0.2,0.1,0.2,0,0.3-0.1L63.6,90.7z
						"/>
				</g>
				<g>
					<g>
						<path class="st6" d="M45.4,109.3c0.1,0,0-0.1,0-0.2c0-0.1,0-0.1,0-0.2c0.1-0.1,0.1,0,0.2,0.1l0.4,0.5c0,0.1,0.1,0.1,0,0.2
							c-0.1,0-0.1,0-0.2,0c-0.1-0.1-0.2-0.1-0.3,0l-2.1,1.5c-0.1,0,0,0.1,0,0.2c0,0.1,0,0.1,0,0.2c-0.1,0.1-0.1,0-0.2-0.1l-0.4-0.5
							c0-0.1-0.1-0.1,0-0.2c0.1,0,0.1,0,0.2,0c0.1,0.1,0.2,0.1,0.3,0L45.4,109.3z"/>
						<path class="st6" d="M43.4,111.7C43.3,111.7,43.3,111.7,43.4,111.7c-0.1,0-0.2-0.1-0.2-0.2l-0.4-0.5c0,0-0.1-0.1-0.1-0.2
							c0-0.1,0-0.2,0.1-0.3c0.2-0.1,0.3,0,0.3,0c0,0,0,0,0,0c0,0,0,0,0.1-0.1l2.1-1.5l0,0c0-0.1-0.1-0.2,0.1-0.3
							c0.1-0.1,0.2-0.1,0.4,0.1l0.4,0.5c0.2,0.2,0,0.4,0,0.4c-0.1,0.1-0.3,0-0.3,0c0,0-0.1,0-0.1,0c0,0,0,0,0,0l0,0l-2,1.5l0,0
							c0,0.1,0.1,0.2-0.1,0.3C43.5,111.7,43.4,111.7,43.4,111.7z"/>
					</g>
					<g>
						<path class="st6" d="M46.8,111.2c0.1-0.1,0.2-0.3,0.1-0.4c0,0-0.1-0.1,0-0.2c0-0.1,0.1,0,0.2,0l0.4,0.3c0.1,0,0.1,0.1,0.1,0.2
							c0,1,0,1.9-0.2,3l1.2-1.6c0.2-0.2,0.2-0.2,0.1-0.3c-0.1-0.1-0.1-0.1,0-0.2c0-0.1,0.1,0,0.2,0l0.4,0.3c0.1,0,0.1,0.1,0,0.2
							c0,0.1-0.1,0-0.2,0c-0.1,0-0.1,0-0.3,0.2l-1.7,2.1c-0.1,0.1-0.1,0.2-0.2,0.1c-0.1-0.1,0-0.1,0.1-0.5c0.1-1.1,0.3-2.4,0.2-3.1
							l-1.5,2c-0.1,0.1-0.1,0.2,0,0.3c0,0.1,0.1,0.1,0,0.2c0,0.1-0.1,0.1-0.2,0l-0.5-0.4c-0.1,0-0.1-0.1,0-0.2c0-0.1,0.1,0,0.2,0
							c0.1,0.1,0.2,0,0.3-0.2L46.8,111.2z"/>
						<path class="st6" d="M46.8,115.1c0,0-0.1,0-0.2-0.1c-0.1-0.1-0.1-0.2-0.1-0.4c0-0.1,0-0.2,0.1-0.3c0.1-0.9,0.2-1.9,0.2-2.7
							l-1.3,1.6c0,0,0,0.1,0,0.1c0.1,0.1,0.2,0.2,0,0.4c-0.1,0.1-0.3,0.1-0.4,0l-0.5-0.4c-0.1,0-0.1-0.1-0.1-0.2
							c0-0.1,0-0.1,0.1-0.2c0.1-0.2,0.3-0.1,0.4-0.1c0,0,0.1-0.1,0.1-0.1l1.4-1.8c0.1-0.2,0.1-0.2,0.1-0.2c-0.1-0.1-0.1-0.3,0-0.4
							c0.1-0.1,0.2-0.1,0.4,0l0.3,0.3c0.1,0.1,0.2,0.1,0.1,0.3c0,0.8,0,1.5-0.1,2.4l0.8-1.1c0,0,0.1-0.1,0.1-0.2
							c-0.1-0.1-0.2-0.2,0-0.4c0.1-0.1,0.2-0.1,0.4,0l0.4,0.3c0.1,0.1,0.1,0.1,0.1,0.2c0,0,0,0.1-0.1,0.2c-0.1,0.1-0.3,0.1-0.3,0.1
							c0,0-0.1,0.1-0.1,0.1l-1.7,2.2C47.1,115,47,115.1,46.8,115.1C46.8,115.1,46.8,115.1,46.8,115.1z"/>
					</g>
					<g>
						<path class="st6" d="M50.3,113.3c0-0.1-0.1-0.1-0.1-0.1c-0.1,0-0.1-0.1-0.1-0.1c0-0.1,0.1-0.1,0.2-0.1l0.8,0.3
							c0.5,0.1,0.8,0.3,1.1,0.7c0.3,0.5,0.3,1,0.1,1.5c-0.2,0.5-0.8,1.5-2.1,1.1l-1.1-0.3c-0.1,0-0.1-0.1-0.1-0.2
							c0-0.1,0.1-0.1,0.1-0.1c0.2,0,0.2,0,0.2-0.2L50.3,113.3z M49.9,115.6c-0.1,0.5-0.2,0.6,0.3,0.7c0.8,0.3,1.5-0.1,1.8-1
							c0.3-0.9,0-1.6-0.9-1.9c-0.4-0.1-0.4,0-0.6,0.3L49.9,115.6z"/>
						<path class="st6" d="M50.9,116.8c-0.2,0-0.4,0-0.6-0.1l-1.1-0.3c-0.3-0.1-0.2-0.3-0.2-0.3c0.1-0.2,0.2-0.2,0.3-0.2
							c0,0,0.1,0,0.1,0l0,0c0,0,0,0,0-0.1l0,0l0.8-2.4c0,0,0,0,0,0l0,0c-0.1,0-0.2-0.1-0.1-0.3c0-0.1,0.1-0.2,0.4-0.2l0.8,0.3
							c0.5,0.2,0.9,0.3,1.2,0.8c0.3,0.5,0.4,1,0.2,1.6C52.3,116,51.8,116.8,50.9,116.8z M50.1,115.6L50.1,115.6
							c-0.1,0.2-0.1,0.3-0.1,0.4c0,0,0,0.1,0.3,0.1c0.4,0.1,0.7,0.1,0.9,0c0.3-0.1,0.5-0.4,0.6-0.8c0.3-0.8,0-1.4-0.8-1.7
							c-0.2-0.1-0.2,0-0.2,0c0,0-0.1,0.2-0.1,0.3L50.1,115.6z M50.1,113.2L50.1,113.2L50.1,113.2z"/>
					</g>
					<g>
						<path class="st6" d="M54.4,114.2c0-0.1-0.1-0.1-0.1-0.1c-0.1,0-0.1,0-0.1-0.1c0-0.1,0.1-0.1,0.2-0.1l0.6,0
							c0.1,0,0.2,0,0.1,0.1c0,0.1-0.1,0.1-0.1,0.1c-0.2,0-0.1,0.1-0.2,0.3l-0.1,2.6c0,0.1,0.1,0.1,0.1,0.1c0.1,0,0.1,0,0.1,0.1
							c0,0.1-0.1,0.1-0.2,0.1l-0.6,0c-0.1,0-0.2,0-0.2-0.1c0-0.1,0.1-0.1,0.1-0.1c0.2,0,0.2-0.1,0.2-0.3L54.4,114.2z"/>
						<path class="st6" d="M54.8,117.5C54.8,117.5,54.8,117.5,54.8,117.5l-0.6,0c-0.3,0-0.3-0.2-0.3-0.3c0-0.2,0.2-0.2,0.2-0.3
							c0,0,0,0,0.1,0c0,0,0,0,0,0c0,0,0,0,0-0.1l0.1-2.6c0,0,0,0,0,0l0,0c-0.1,0-0.2-0.1-0.2-0.3c0-0.1,0-0.1,0.1-0.2
							c0.1-0.1,0.2-0.1,0.2-0.1l0.6,0c0.1,0,0.2,0,0.2,0.1c0,0,0.1,0.1,0.1,0.2c0,0.2-0.1,0.2-0.2,0.2c0,0-0.1,0-0.1,0
							c0,0,0,0,0,0.1l-0.1,2.6l0,0c0.1,0,0.2,0.1,0.2,0.3C55.1,117.3,55.1,117.5,54.8,117.5z M54.3,114.2L54.3,114.2L54.3,114.2z"/>
					</g>
					<g>
						<path class="st6" d="M57.5,116c0,0.2-0.1,0.6,0,0.8c0.1,0.3,0.3,0.2,0.3,0.3c0,0.1-0.1,0.1-0.2,0.2l-0.3,0.1
							c-0.1,0-0.2,0-0.2-0.1c0-0.1,0-0.1,0-0.1c0.1-0.1,0.1-0.1,0.1-0.2c0.1-1.1,0.2-2.2,0.4-3c0-0.1,0.1-0.3,0.1-0.4
							c0.1,0,0.3,0.2,0.3,0.3c0.5,0.6,1,1.4,1.7,2.5c0.1,0.1,0.1,0.1,0.2,0.1c0,0,0.1,0,0.1,0.1c0,0.1-0.1,0.1-0.1,0.1l-0.5,0.1
							c-0.1,0-0.2,0-0.2-0.1c0-0.1,0.2-0.1,0.2-0.3c0-0.1-0.3-0.6-0.4-0.8L57.5,116z M58.7,115.4c-0.3-0.5-0.7-1-1-1.3
							c-0.1,0.5-0.2,1-0.2,1.6L58.7,115.4z"/>
						<path class="st6" d="M57.1,117.4C57.1,117.4,57.1,117.4,57.1,117.4c-0.1,0-0.2-0.1-0.2-0.2c0-0.1,0-0.2,0.1-0.3
							c0-0.1,0-0.1,0.1-0.1c0.1-1,0.2-2.2,0.4-3l0,0c0-0.2,0.1-0.4,0.2-0.4c0.1,0,0.3,0.1,0.4,0.3c0.5,0.6,1,1.3,1.7,2.5
							c0,0,0,0,0.1,0.1c0,0,0.2,0,0.2,0.2c0,0.1,0,0.2,0,0.2c-0.1,0.1-0.2,0.1-0.2,0.1l-0.5,0.1c0,0-0.2,0-0.3,0
							c0,0-0.1-0.1-0.1-0.2c0-0.2,0.1-0.3,0.1-0.3c0,0,0,0,0,0c0-0.1-0.2-0.4-0.4-0.6l-1.1,0.3c0,0,0,0.1,0,0.1c0,0.2,0,0.4,0,0.5
							c0,0.1,0,0.1,0.1,0.1c0.1,0,0.2,0.1,0.2,0.2c0,0.1,0,0.1,0,0.2c-0.1,0.1-0.2,0.1-0.3,0.2l-0.3,0.1
							C57.2,117.4,57.2,117.4,57.1,117.4z M57.9,114.4c-0.1,0.3-0.1,0.7-0.2,1.1l0.8-0.2C58.3,115,58.1,114.7,57.9,114.4z"/>
					</g>
					<g>
						<path class="st6" d="M60.7,113.2c-0.1-0.1-0.2-0.3-0.4-0.2c-0.1,0-0.1,0.1-0.2,0c0-0.1,0-0.1,0.1-0.1l0.4-0.2
							c0.1,0,0.1-0.1,0.2,0c1,0.3,1.8,0.7,2.7,1.2l-1.1-1.7c-0.1-0.2-0.2-0.3-0.3-0.2c-0.1,0-0.2,0.1-0.2,0c0-0.1,0-0.1,0-0.1
							l0.4-0.3c0.1,0,0.1,0,0.2,0c0,0.1,0,0.1-0.1,0.2c-0.1,0.1,0,0.1,0.1,0.3l1.5,2.3c0,0.1,0.2,0.2,0.1,0.3
							c-0.1,0.1-0.1-0.1-0.5-0.2c-1-0.5-2.2-1.1-2.9-1.3l1.4,2.1c0.1,0.1,0.1,0.2,0.2,0.1c0.1,0,0.1-0.1,0.2,0c0,0.1,0,0.1,0,0.2
							l-0.5,0.3c-0.1,0-0.1,0-0.2,0c0-0.1,0-0.1,0.1-0.2c0.1-0.1,0.1-0.1-0.1-0.3L60.7,113.2z"/>
						<path class="st6" d="M62,115.8C62,115.8,62,115.8,62,115.8c-0.1,0-0.2,0-0.2-0.1c-0.1-0.2,0-0.3,0.1-0.4c0,0-0.1-0.1-0.1-0.2
							l-1.2-1.9c-0.1-0.2-0.1-0.2-0.2-0.1c-0.2,0.1-0.3,0-0.4-0.1c-0.1-0.1-0.1-0.3,0.1-0.4l0.4-0.2c0.1-0.1,0.2-0.1,0.3,0
							c0.7,0.2,1.5,0.5,2.2,0.9l-0.8-1.2c0-0.1-0.1-0.2-0.1-0.2c-0.1,0-0.2,0.1-0.4-0.1c-0.1-0.1-0.1-0.2,0-0.2c0,0,0-0.1,0.1-0.2
							l0.4-0.3c0.1-0.1,0.3-0.1,0.4,0.1c0.1,0.1,0,0.3-0.1,0.3c0,0,0,0.1,0.1,0.1l1.5,2.3c0.1,0.1,0.1,0.2,0.1,0.3
							c0,0,0,0.1-0.1,0.2c-0.1,0.1-0.3,0-0.4,0c-0.1,0-0.1-0.1-0.3-0.2c-0.8-0.4-1.7-0.9-2.4-1.1l1.1,1.7c0,0,0,0.1,0,0.1
							c0.1,0,0.3-0.1,0.4,0.1c0.1,0.1,0.1,0.2,0,0.2c0,0.1-0.1,0.1-0.1,0.2l-0.5,0.3C62.2,115.8,62.1,115.8,62,115.8z"/>
					</g>
					<g>
						<path class="st6" d="M66.7,111.6c0.3-0.3,0.3-0.8,0-1.1c-0.8-0.6-1.5,1.3-2.5,0.5c-0.4-0.3-0.5-0.9-0.1-1.5
							c0.2-0.2,0.4-0.4,0.7-0.5c0.1,0,0.1,0,0.2,0c0.1,0,0.2,0.1,0.2,0.2c0,0,0.1,0.1,0.1,0.2c-0.1,0.1-0.6-0.1-1,0.4
							c-0.2,0.2-0.2,0.6,0.1,0.8c0.8,0.6,1.4-1.3,2.5-0.4c0.3,0.3,0.6,0.9,0,1.6c-0.6,0.7-1.2,0.5-1.4,0.4c-0.1,0-0.1-0.1,0-0.2
							c0-0.1,0.1,0,0.2,0C66.1,112,66.4,111.9,66.7,111.6z"/>
						<path class="st6" d="M65.9,112.5c-0.2,0-0.4-0.1-0.5-0.2c-0.1-0.1-0.2-0.3-0.1-0.4c0.1-0.1,0.3-0.1,0.3-0.1
							c0.4,0.1,0.7,0,0.9-0.3l0,0c0.2-0.3,0.3-0.6,0-0.9c-0.3-0.2-0.5,0-0.9,0.3c-0.4,0.3-1,0.7-1.6,0.2c-0.2-0.2-0.4-0.5-0.4-0.8
							c0-0.3,0.1-0.6,0.3-0.9c0.2-0.2,0.5-0.4,0.8-0.5c0.1,0,0.2,0,0.3,0c0,0,0.1,0,0.3,0.2c0.1,0,0.1,0.1,0.2,0.2
							c0,0.1,0,0.1,0,0.2c-0.1,0.1-0.2,0.1-0.3,0.1c-0.2,0-0.5,0-0.7,0.3c-0.1,0.2-0.2,0.5,0,0.6c0.3,0.2,0.5,0.1,0.8-0.2
							c0.4-0.3,1-0.7,1.7-0.2c0.2,0.2,0.4,0.5,0.4,0.8c0,0.3,0,0.6-0.3,1C66.6,112.3,66.2,112.5,65.9,112.5z"/>
					</g>
				</g>
				<g>
					<path class="st4" d="M45.4,109.3c0.1,0,0-0.1,0-0.2c0-0.1,0-0.1,0-0.2c0.1-0.1,0.1,0,0.2,0.1l0.4,0.5c0,0.1,0.1,0.1,0,0.2
						c-0.1,0-0.1,0-0.2,0c-0.1-0.1-0.2-0.1-0.3,0l-2.1,1.5c-0.1,0,0,0.1,0,0.2c0,0.1,0,0.1,0,0.2c-0.1,0.1-0.1,0-0.2-0.1l-0.4-0.5
						c0-0.1-0.1-0.1,0-0.2c0.1,0,0.1,0,0.2,0c0.1,0.1,0.2,0.1,0.3,0L45.4,109.3z"/>
					<path class="st4" d="M46.8,111.2c0.1-0.1,0.2-0.3,0.1-0.4c0,0-0.1-0.1,0-0.2c0-0.1,0.1,0,0.2,0l0.4,0.3c0.1,0,0.1,0.1,0.1,0.2
						c0,1,0,1.9-0.2,3l1.2-1.6c0.2-0.2,0.2-0.2,0.1-0.3c-0.1-0.1-0.1-0.1,0-0.2c0-0.1,0.1,0,0.2,0l0.4,0.3c0.1,0,0.1,0.1,0,0.2
						c0,0.1-0.1,0-0.2,0c-0.1,0-0.1,0-0.3,0.2l-1.7,2.1c-0.1,0.1-0.1,0.2-0.2,0.1c-0.1-0.1,0-0.1,0.1-0.5c0.1-1.1,0.3-2.4,0.2-3.1
						l-1.5,2c-0.1,0.1-0.1,0.2,0,0.3c0,0.1,0.1,0.1,0,0.2c0,0.1-0.1,0.1-0.2,0l-0.5-0.4c-0.1,0-0.1-0.1,0-0.2c0-0.1,0.1,0,0.2,0
						c0.1,0.1,0.2,0,0.3-0.2L46.8,111.2z"/>
					<path class="st4" d="M50.3,113.3c0-0.1-0.1-0.1-0.1-0.1c-0.1,0-0.1-0.1-0.1-0.1c0-0.1,0.1-0.1,0.2-0.1l0.8,0.3
						c0.5,0.1,0.8,0.3,1.1,0.7c0.3,0.5,0.3,1,0.1,1.5c-0.2,0.5-0.8,1.5-2.1,1.1l-1.1-0.3c-0.1,0-0.1-0.1-0.1-0.2
						c0-0.1,0.1-0.1,0.1-0.1c0.2,0,0.2,0,0.2-0.2L50.3,113.3z M49.9,115.6c-0.1,0.5-0.2,0.6,0.3,0.7c0.8,0.3,1.5-0.1,1.8-1
						c0.3-0.9,0-1.6-0.9-1.9c-0.4-0.1-0.4,0-0.6,0.3L49.9,115.6z"/>
					<path class="st4" d="M54.4,114.2c0-0.1-0.1-0.1-0.1-0.1c-0.1,0-0.1,0-0.1-0.1c0-0.1,0.1-0.1,0.2-0.1l0.6,0c0.1,0,0.2,0,0.1,0.1
						c0,0.1-0.1,0.1-0.1,0.1c-0.2,0-0.1,0.1-0.2,0.3l-0.1,2.6c0,0.1,0.1,0.1,0.1,0.1c0.1,0,0.1,0,0.1,0.1c0,0.1-0.1,0.1-0.2,0.1
						l-0.6,0c-0.1,0-0.2,0-0.2-0.1c0-0.1,0.1-0.1,0.1-0.1c0.2,0,0.2-0.1,0.2-0.3L54.4,114.2z"/>
					<path class="st4" d="M57.5,116c0,0.2-0.1,0.6,0,0.8c0.1,0.3,0.3,0.2,0.3,0.3c0,0.1-0.1,0.1-0.2,0.2l-0.3,0.1
						c-0.1,0-0.2,0-0.2-0.1c0-0.1,0-0.1,0-0.1c0.1-0.1,0.1-0.1,0.1-0.2c0.1-1.1,0.2-2.2,0.4-3c0-0.1,0.1-0.3,0.1-0.4
						c0.1,0,0.3,0.2,0.3,0.3c0.5,0.6,1,1.4,1.7,2.5c0.1,0.1,0.1,0.1,0.2,0.1c0,0,0.1,0,0.1,0.1c0,0.1-0.1,0.1-0.1,0.1l-0.5,0.1
						c-0.1,0-0.2,0-0.2-0.1c0-0.1,0.2-0.1,0.2-0.3c0-0.1-0.3-0.6-0.4-0.8L57.5,116z M58.7,115.4c-0.3-0.5-0.7-1-1-1.3
						c-0.1,0.5-0.2,1-0.2,1.6L58.7,115.4z"/>
					<path class="st4" d="M60.7,113.2c-0.1-0.1-0.2-0.3-0.4-0.2c-0.1,0-0.1,0.1-0.2,0c0-0.1,0-0.1,0.1-0.1l0.4-0.2
						c0.1,0,0.1-0.1,0.2,0c1,0.3,1.8,0.7,2.7,1.2l-1.1-1.7c-0.1-0.2-0.2-0.3-0.3-0.2c-0.1,0-0.2,0.1-0.2,0c0-0.1,0-0.1,0-0.1
						l0.4-0.3c0.1,0,0.1,0,0.2,0c0,0.1,0,0.1-0.1,0.2c-0.1,0.1,0,0.1,0.1,0.3l1.5,2.3c0,0.1,0.2,0.2,0.1,0.3
						c-0.1,0.1-0.1-0.1-0.5-0.2c-1-0.5-2.2-1.1-2.9-1.3l1.4,2.1c0.1,0.1,0.1,0.2,0.2,0.1c0.1,0,0.1-0.1,0.2,0c0,0.1,0,0.1,0,0.2
						l-0.5,0.3c-0.1,0-0.1,0-0.2,0c0-0.1,0-0.1,0.1-0.2c0.1-0.1,0.1-0.1-0.1-0.3L60.7,113.2z"/>
					<path class="st4" d="M66.7,111.6c0.3-0.3,0.3-0.8,0-1.1c-0.8-0.6-1.5,1.3-2.5,0.5c-0.4-0.3-0.5-0.9-0.1-1.5
						c0.2-0.2,0.4-0.4,0.7-0.5c0.1,0,0.1,0,0.2,0c0.1,0,0.2,0.1,0.2,0.2c0,0,0.1,0.1,0.1,0.2c-0.1,0.1-0.6-0.1-1,0.4
						c-0.2,0.2-0.2,0.6,0.1,0.8c0.8,0.6,1.4-1.3,2.5-0.4c0.3,0.3,0.6,0.9,0,1.6c-0.6,0.7-1.2,0.5-1.4,0.4c-0.1,0-0.1-0.1,0-0.2
						c0-0.1,0.1,0,0.2,0C66.1,112,66.4,111.9,66.7,111.6z"/>
				</g>
			</g>
			<path class="st3" d="M27.7,115.9c0,0,0.1,0,0.3-0.2c0.7-0.5,1.1-0.9,1.7-2c0.6-1.1,0.8-2.4,0.8-2.6c0-0.3,0.2-0.5,0.2-0.6
				c0-0.1,0.6-2.5,0.5-2.2c0,0.2-0.3,2.4-0.3,2.7c0,0.3-0.1,1.4-0.1,1.7c0,0.4-0.2,0.8-0.2,1c-0.1,0.2-0.8,1.8-1.1,2.7
				c-0.4,0.9-0.5,1.9-0.4,2.5c0.1,0.6,0.4,0.8,0.4,0.8s-0.3,0.1-0.5-0.8c-0.3-0.9,0.2-2.1,0.3-2.4c0.1-0.3,1.2-2.7,1.3-3.1
				c0.2-0.4,0.1-2.3,0.1-2.2c0,0.1-0.1,1.3-0.9,3c-0.7,1.7-2,2.1-2,2.1L27.7,115.9z"/>
		</g>
		<path class="st7" d="M33,124.2c-0.2,0-0.4,0.2-0.4,0.4c0,0.2,0.2,0.4,0.4,0.4s0.4-0.2,0.4-0.4C33.4,124.4,33.2,124.2,33,124.2z"/>
		<path class="st5" d="M32.6,125.6c-0.2,0-0.4,0.2-0.4,0.4s0.2,0.4,0.4,0.4c0.2,0,0.4-0.2,0.4-0.4S32.9,125.6,32.6,125.6z"/>
		<path class="st5" d="M25.9,109.7c-0.2,0-0.4,0.2-0.4,0.4c0,0.2,0.2,0.4,0.4,0.4c0.2,0,0.4-0.2,0.4-0.4
			C26.2,109.9,26.1,109.7,25.9,109.7z"/>
		<path class="st4" d="M26.4,112c-0.2,0-0.4,0.2-0.4,0.4c0,0.2,0.2,0.4,0.4,0.4c0.2,0,0.4-0.2,0.4-0.4C26.8,112.2,26.6,112,26.4,112
			z"/>
		<path class="st4" d="M42.3,101.6c-0.4,0-0.7,0.3-0.7,0.7c0,0.4,0.3,0.7,0.7,0.7c0.4,0,0.7-0.3,0.7-0.7
			C43,101.9,42.7,101.6,42.3,101.6z"/>
		<path class="st4" d="M67.8,101.5c-0.4,0-0.7,0.3-0.7,0.7c0,0.4,0.3,0.7,0.7,0.7c0.4,0,0.7-0.3,0.7-0.7
			C68.5,101.8,68.2,101.5,67.8,101.5z"/>
		<path class="st4" d="M84.4,109.8c-0.2,0-0.4,0.2-0.4,0.4c0,0.2,0.2,0.4,0.4,0.4c0.2,0,0.4-0.2,0.4-0.4
			C84.8,109.9,84.6,109.8,84.4,109.8z"/>
		<path class="st5" d="M83.9,112c-0.2,0-0.4,0.2-0.4,0.4c0,0.2,0.2,0.4,0.4,0.4c0.2,0,0.4-0.2,0.4-0.4C84.3,112.2,84.1,112,83.9,112
			z"/>
		<path class="st4" d="M77.6,125.6c-0.2,0-0.4,0.2-0.4,0.4c0,0.2,0.2,0.4,0.4,0.4c0.2,0,0.4-0.2,0.4-0.4
			C78,125.8,77.8,125.6,77.6,125.6z"/>
		<path class="st5" d="M77.3,124.2c-0.2,0-0.4,0.2-0.4,0.4c0,0.2,0.2,0.4,0.4,0.4c0.2,0,0.4-0.2,0.4-0.4
			C77.7,124.4,77.5,124.2,77.3,124.2z"/>
	</g>
</g>
<g id="Layer_3" class="st8">
	<g class="st9">
		<polygon class="st3" points="38.3,102.8 57.7,78.8 60.1,75.8 55.3,75.8 34,102.9 55.3,130 60.3,130 		"/>
		<polygon class="st3" points="72.1,102.8 60.7,117.4 57.7,113.6 66.2,102.8 57.7,92.1 60.7,88.3 		"/>
		<g>
			<path class="st3" d="M108.7,103.4c0,2.6-0.9,4.6-2.6,6c-1.7,1.4-4.3,2.1-7.6,2.1c-2.3,0-4.3-0.4-6.1-1.2c-1.7-0.8-3.1-2-4.2-3.7
				l4.1-3.1c0.6,0.9,1.2,1.5,1.7,1.9c0.5,0.4,1.2,0.8,1.9,1c0.7,0.2,1.6,0.4,2.6,0.4c1.5,0,2.6-0.3,3.4-0.7c0.8-0.5,1.2-1.3,1.2-2.3
				c0-0.6-0.1-1.1-0.4-1.5c-0.3-0.4-0.7-0.7-1.3-1c-0.6-0.3-1.6-0.6-3-1c-1.4-0.4-2.7-0.7-3.9-1.1c-1.2-0.4-2.2-0.9-3.1-1.5
				c-0.9-0.6-1.6-1.3-2.1-2.2c-0.5-0.9-0.8-2-0.8-3.4c0-2.5,0.8-4.4,2.5-5.8c1.7-1.4,4.1-2.1,7.2-2.1c4.5,0,7.7,1.6,9.6,4.7L104,92
				c-0.7-1.1-1.5-1.9-2.4-2.4c-0.9-0.5-2-0.7-3.2-0.7c-1.2,0-2.2,0.2-3,0.7c-0.8,0.4-1.2,1.2-1.2,2.1c0,0.8,0.4,1.5,1.2,1.9
				c0.8,0.4,2.2,0.9,4.2,1.4c1.1,0.3,2.2,0.6,3.3,0.9c1.1,0.3,2.1,0.8,2.9,1.4c0.9,0.6,1.5,1.4,2.1,2.3
				C108.4,100.6,108.7,101.9,108.7,103.4z"/>
			<path class="st3" d="M127.6,111v-2.6c-0.9,0.9-1.9,1.7-3.2,2.3c-1.2,0.6-2.4,0.9-3.6,0.9c-2.2,0-3.8-0.6-4.7-1.9
				c-0.9-1.2-1.3-3-1.3-5.3V91.1h4.9v11c0,1.4,0.1,2.5,0.2,3.2c0.2,0.7,0.4,1.3,0.8,1.5c0.4,0.3,0.9,0.4,1.6,0.4
				c1.5,0,3.2-1,5.2-2.9V91.1h4.9V111H127.6z"/>
			<path class="st3" d="M163.7,111V99.3c0-1.2-0.1-2.1-0.2-2.7c-0.1-0.7-0.4-1.1-0.6-1.3c-0.3-0.2-0.8-0.4-1.4-0.4
				c-0.7,0-1.5,0.3-2.4,0.8c-0.8,0.6-1.6,1.2-2.3,2V111h-4.9V99.3c0-1.3-0.1-2.2-0.2-2.8c-0.1-0.6-0.3-1-0.6-1.3
				c-0.3-0.3-0.8-0.4-1.5-0.4c-0.6,0-1.3,0.2-2.1,0.7c-0.8,0.5-1.7,1.2-2.6,2.2V111H140V91.1h4.9v2.6c0.9-1,1.9-1.8,2.9-2.3
				c1-0.6,2.1-0.8,3.3-0.8c1.7,0,2.9,0.3,3.7,0.9c0.8,0.6,1.3,1.4,1.6,2.5c1.1-1.1,2.2-2,3.2-2.5c1-0.6,2.2-0.8,3.5-0.8
				c1.9,0,3.3,0.5,4.2,1.6c0.9,1.1,1.3,2.9,1.3,5.5V111H163.7z"/>
			<path class="st3" d="M199.6,111V99.3c0-1.2-0.1-2.1-0.2-2.7c-0.1-0.7-0.4-1.1-0.6-1.3c-0.3-0.2-0.8-0.4-1.4-0.4
				c-0.7,0-1.5,0.3-2.4,0.8c-0.8,0.6-1.6,1.2-2.3,2V111h-4.9V99.3c0-1.3-0.1-2.2-0.2-2.8c-0.1-0.6-0.3-1-0.6-1.3
				c-0.3-0.3-0.8-0.4-1.5-0.4c-0.6,0-1.3,0.2-2.1,0.7c-0.8,0.5-1.7,1.2-2.6,2.2V111h-4.9V91.1h4.9v2.6c0.9-1,1.9-1.8,2.9-2.3
				c1-0.6,2.1-0.8,3.3-0.8c1.7,0,2.9,0.3,3.7,0.9c0.8,0.6,1.3,1.4,1.6,2.5c1.1-1.1,2.2-2,3.2-2.5c1-0.6,2.2-0.8,3.5-0.8
				c1.9,0,3.3,0.5,4.2,1.6c0.9,1.1,1.3,2.9,1.3,5.5V111H199.6z"/>
			<path class="st3" d="M229.8,101.1c0,3.3-0.8,5.9-2.3,7.7c-1.5,1.8-3.9,2.8-7.2,2.8c-6.4,0-9.6-3.5-9.6-10.5c0-3.4,0.8-6,2.3-7.8
				c1.5-1.8,3.9-2.8,7.3-2.8c3.3,0,5.7,0.9,7.2,2.8C229,95.1,229.8,97.7,229.8,101.1z M224.7,101.1c0-2.2-0.3-3.8-1-4.8
				c-0.7-1-1.8-1.5-3.4-1.5c-1.6,0-2.7,0.5-3.5,1.5c-0.7,1-1.1,2.6-1.1,4.7c0,2.1,0.4,3.7,1.1,4.7c0.7,1,1.9,1.5,3.5,1.5
				c1.6,0,2.7-0.5,3.4-1.5C224.4,104.8,224.7,103.2,224.7,101.1z"/>
			<path class="st3" d="M259.9,111V99.3c0-1.2-0.1-2.1-0.2-2.7c-0.1-0.7-0.4-1.1-0.6-1.3c-0.3-0.2-0.8-0.4-1.4-0.4
				c-0.7,0-1.5,0.3-2.4,0.8c-0.8,0.6-1.6,1.2-2.3,2V111h-4.9V99.3c0-1.3-0.1-2.2-0.2-2.8c-0.1-0.6-0.3-1-0.6-1.3
				c-0.3-0.3-0.8-0.4-1.5-0.4c-0.6,0-1.3,0.2-2.1,0.7c-0.8,0.5-1.7,1.2-2.6,2.2V111h-4.9V91.1h4.9v2.6c0.9-1,1.9-1.8,2.9-2.3
				c1-0.6,2.1-0.8,3.3-0.8c1.7,0,2.9,0.3,3.7,0.9c0.8,0.6,1.3,1.4,1.6,2.5c1.1-1.1,2.2-2,3.2-2.5c1-0.6,2.2-0.8,3.5-0.8
				c1.9,0,3.3,0.5,4.2,1.6c0.9,1.1,1.3,2.9,1.3,5.5V111H259.9z"/>
			<path class="st3" d="M276.2,102.3c0.1,1.8,0.5,3,1.3,3.8c0.8,0.8,2,1.2,3.6,1.2c1,0,1.8-0.1,2.5-0.4c0.7-0.2,1.4-0.7,1.9-1.4
				l3.6,2.6c-0.8,1.1-1.8,2-3.1,2.6c-1.3,0.6-3,0.9-5.2,0.9c-3.3,0-5.7-0.9-7.3-2.6c-1.6-1.7-2.4-4.3-2.4-7.8
				c0-7.1,3.2-10.7,9.6-10.7c2.8,0,5,0.8,6.5,2.4c1.5,1.6,2.2,3.9,2.2,7v2.4H276.2z M284.5,98.9c0-3-1.3-4.5-4-4.5
				c-0.9,0-1.6,0.1-2.1,0.4c-0.6,0.3-1,0.7-1.3,1.3c-0.3,0.6-0.6,1.5-0.8,2.8H284.5z"/>
		</g>
		<g>
			<path class="st3" d="M94.5,130.5l-4-7.9v7.9h-2.2v-11h2.9l3.7,7.4v-7.4h2.2v11H94.5z"/>
			<path class="st3" d="M107.4,130.5v-0.9c-0.8,0.7-1.7,1.1-2.6,1.1c-0.9,0-1.6-0.2-2.1-0.7c-0.5-0.5-0.7-1.1-0.7-1.9
				c0-0.6,0.1-1.1,0.4-1.5c0.2-0.4,0.6-0.7,1.1-0.9c0.5-0.2,1.2-0.4,2.1-0.5l1.8-0.2v-0.4c0-0.5-0.1-0.8-0.4-1
				c-0.3-0.2-0.7-0.3-1.2-0.3c-0.4,0-0.8,0.1-1.2,0.2c-0.3,0.1-0.6,0.4-0.7,0.6l-1.6-1c0.3-0.5,0.7-0.8,1.3-1.1
				c0.6-0.3,1.3-0.4,2.2-0.4c1.3,0,2.2,0.2,2.8,0.7c0.6,0.5,0.9,1.2,0.9,2.2v5.7H107.4z M107.2,126.6l-1,0.1
				c-0.7,0.1-1.3,0.2-1.6,0.4c-0.3,0.2-0.5,0.5-0.5,1c0,0.4,0.1,0.6,0.3,0.8c0.2,0.1,0.5,0.2,0.8,0.2c0.2,0,0.6-0.1,0.9-0.2
				c0.4-0.2,0.7-0.4,1.1-0.7V126.6z"/>
			<path class="st3" d="M119,130.5c-0.6,0.2-1.1,0.2-1.7,0.2c-1,0-1.7-0.2-2.1-0.7c-0.4-0.4-0.6-1.1-0.6-2.1v-4.2h-1.1v-1.6h1.1
				v-2.3h2.1v2.3h1.9v1.6h-1.9v3.9c0,0.5,0.1,0.9,0.2,1.1c0.2,0.2,0.4,0.3,0.7,0.3c0.4,0,0.8-0.1,1.1-0.2L119,130.5z"/>
			<path class="st3" d="M125.5,119.9c0,0.4-0.1,0.7-0.3,0.8c-0.2,0.2-0.5,0.2-0.9,0.2c-0.4,0-0.7-0.1-0.9-0.3
				c-0.2-0.2-0.2-0.4-0.2-0.8c0-0.4,0.1-0.6,0.3-0.8c0.2-0.2,0.5-0.2,0.9-0.2c0.4,0,0.7,0.1,0.9,0.2
				C125.4,119.2,125.5,119.5,125.5,119.9z M123.3,130.5v-8.4h2.1v8.4H123.3z"/>
			<path class="st3" d="M134.6,130.5h-1.9l-3-8.4h2.1l1.9,5.5l1.9-5.5h2.1L134.6,130.5z"/>
			<path class="st3" d="M143.5,126.9c0,0.7,0.2,1.3,0.5,1.6c0.3,0.3,0.8,0.5,1.5,0.5c0.4,0,0.8,0,1.1-0.2c0.3-0.1,0.6-0.3,0.8-0.6
				l1.5,1.1c-0.3,0.5-0.8,0.8-1.3,1.1c-0.5,0.2-1.3,0.4-2.2,0.4c-1.4,0-2.4-0.4-3.1-1.1c-0.7-0.7-1-1.8-1-3.3c0-3,1.3-4.5,4-4.5
				c1.2,0,2.1,0.3,2.7,1s0.9,1.7,0.9,2.9v1H143.5z M147,125.4c0-1.3-0.6-1.9-1.7-1.9c-0.4,0-0.7,0.1-0.9,0.2
				c-0.2,0.1-0.4,0.3-0.6,0.6c-0.1,0.2-0.3,0.6-0.3,1.2H147z"/>
			<path class="st3" d="M166,130.5h-2.7l-3.4-11h2.3l2.5,8.2l2.5-8.2h2.2L166,130.5z"/>
			<path class="st3" d="M175,126.9c0,0.7,0.2,1.3,0.5,1.6c0.3,0.3,0.8,0.5,1.5,0.5c0.4,0,0.8,0,1.1-0.2c0.3-0.1,0.6-0.3,0.8-0.6
				l1.5,1.1c-0.3,0.5-0.8,0.8-1.3,1.1c-0.5,0.2-1.3,0.4-2.2,0.4c-1.4,0-2.4-0.4-3.1-1.1c-0.7-0.7-1-1.8-1-3.3c0-3,1.3-4.5,4-4.5
				c1.2,0,2.1,0.3,2.7,1s0.9,1.7,0.9,2.9v1H175z M178.5,125.4c0-1.3-0.6-1.9-1.7-1.9c-0.4,0-0.7,0.1-0.9,0.2
				c-0.2,0.1-0.4,0.3-0.6,0.6c-0.1,0.2-0.3,0.6-0.3,1.2H178.5z"/>
			<path class="st3" d="M190.8,130.5v-4.6c0-0.9-0.1-1.5-0.2-1.7c-0.2-0.3-0.5-0.4-0.9-0.4c-0.6,0-1.3,0.4-2.2,1.2v5.6h-2.1v-8.4
				h2.1v1.1c0.4-0.4,0.9-0.8,1.4-1c0.5-0.2,1-0.3,1.5-0.3c0.9,0,1.5,0.2,1.9,0.7c0.4,0.5,0.6,1.2,0.6,2.3v5.6H190.8z"/>
			<path class="st3" d="M202.8,130.5c-0.6,0.2-1.1,0.2-1.7,0.2c-1,0-1.7-0.2-2.1-0.7c-0.4-0.4-0.6-1.1-0.6-2.1v-4.2h-1.1v-1.6h1.1
				v-2.3h2.1v2.3h1.9v1.6h-1.9v3.9c0,0.5,0.1,0.9,0.2,1.1c0.2,0.2,0.4,0.3,0.7,0.3c0.4,0,0.8-0.1,1.1-0.2L202.8,130.5z"/>
			<path class="st3" d="M212.3,130.5v-1.1c-0.4,0.4-0.8,0.7-1.3,1c-0.5,0.2-1,0.4-1.5,0.4c-0.9,0-1.6-0.3-2-0.8
				c-0.4-0.5-0.6-1.3-0.6-2.2v-5.6h2.1v4.6c0,0.6,0,1,0.1,1.4c0.1,0.3,0.2,0.5,0.3,0.6c0.2,0.1,0.4,0.2,0.7,0.2
				c0.6,0,1.3-0.4,2.2-1.2v-5.6h2.1v8.4H212.3z"/>
			<path class="st3" d="M224.7,124.1c-0.2-0.1-0.5-0.2-0.8-0.2c-0.4,0-0.7,0.1-1.1,0.3c-0.3,0.2-0.7,0.5-1.1,0.8v5.4h-2.1v-8.4h2.1
				v1.2c0.4-0.4,0.7-0.7,1.1-0.9c0.4-0.3,0.9-0.4,1.4-0.4c0.4,0,0.7,0.1,0.9,0.2L224.7,124.1z"/>
			<path class="st3" d="M230.8,126.9c0,0.7,0.2,1.3,0.5,1.6c0.3,0.3,0.8,0.5,1.5,0.5c0.4,0,0.8,0,1.1-0.2c0.3-0.1,0.6-0.3,0.8-0.6
				l1.5,1.1c-0.3,0.5-0.8,0.8-1.3,1.1c-0.5,0.2-1.3,0.4-2.2,0.4c-1.4,0-2.4-0.4-3.1-1.1c-0.7-0.7-1-1.8-1-3.3c0-3,1.3-4.5,4-4.5
				c1.2,0,2.1,0.3,2.7,1s0.9,1.7,0.9,2.9v1H230.8z M234.3,125.4c0-1.3-0.6-1.9-1.7-1.9c-0.4,0-0.7,0.1-0.9,0.2
				c-0.2,0.1-0.4,0.3-0.6,0.6c-0.1,0.2-0.3,0.6-0.3,1.2H234.3z"/>
			<path class="st3" d="M247.6,128.1c0,0.6-0.1,1-0.4,1.4c-0.3,0.4-0.7,0.7-1.2,0.9c-0.5,0.2-1.1,0.3-1.8,0.3
				c-1.7,0-2.9-0.5-3.6-1.5l1.5-1.1c0.3,0.3,0.5,0.6,0.9,0.7c0.3,0.1,0.7,0.2,1,0.2c1,0,1.5-0.3,1.5-0.9c0-0.2-0.1-0.4-0.4-0.6
				c-0.3-0.1-0.7-0.3-1.3-0.4c-1.1-0.2-1.9-0.6-2.3-1c-0.5-0.4-0.7-1-0.7-1.7c0-0.7,0.3-1.3,0.9-1.8c0.6-0.5,1.4-0.7,2.5-0.7
				c0.8,0,1.4,0.1,2,0.4c0.6,0.2,1,0.6,1.3,1.1l-1.5,1.1c-0.4-0.6-1-0.8-1.8-0.8c-0.4,0-0.7,0.1-1,0.2c-0.2,0.1-0.3,0.3-0.3,0.6
				c0,0.2,0.1,0.4,0.3,0.5c0.2,0.1,0.6,0.3,1.2,0.4c1,0.2,1.6,0.5,2,0.7c0.4,0.2,0.7,0.5,0.9,0.9
				C247.5,127.2,247.6,127.6,247.6,128.1z"/>
			<path class="st3" d="M259.3,130.5v-11h2.2v9h4.6v2.1H259.3z"/>
			<path class="st3" d="M270.6,130.5v-11h2.2v9h4.6v2.1H270.6z"/>
			<path class="st3" d="M290.7,128.7c-0.5,0.7-1.1,1.2-1.7,1.6c-0.7,0.3-1.5,0.5-2.5,0.5c-3.4,0-5.1-1.9-5.1-5.8
				c0-2,0.4-3.4,1.3-4.3c0.9-0.9,2.1-1.4,3.7-1.4c1.1,0,2,0.2,2.6,0.5c0.7,0.4,1.2,0.8,1.6,1.4l-1.7,1.4c-0.3-0.4-0.5-0.7-0.7-0.8
				c-0.2-0.2-0.5-0.3-0.7-0.4c-0.3-0.1-0.6-0.1-1-0.1c-0.9,0-1.6,0.3-2.1,0.9c-0.5,0.6-0.7,1.5-0.7,2.9c0,1.3,0.2,2.2,0.7,2.8
				c0.4,0.6,1.2,0.9,2.1,0.9c0.7,0,1.2-0.1,1.5-0.4c0.4-0.3,0.7-0.6,1-1L290.7,128.7z"/>
		</g>
		<path class="st3" d="M82.3,102.9L61.2,75.8l-3,3.8L40,102.9L61.2,130L82.3,102.9z M61.8,88.4l11.4,14.6l-11.4,14.6l-3-3.8
			l-8.5-10.8l8.5-10.8L61.8,88.4z"/>
	</g>
</g>
<g id="Layer_2" class="st8">
	<g class="st9">
		<g>
			<defs>
				<polygon id="SVGID_1_" points="83.8,69.7 95.2,54.3 97.1,73.4 92.1,65.8 				"/>
			</defs>
			<use xlink:href="#SVGID_1_"  style="overflow:visible;fill:#FFFFFF;"/>
			<clipPath id="SVGID_00000013898098370097414950000003709834401894781604_">
				<use xlink:href="#SVGID_1_"  style="overflow:visible;"/>
			</clipPath>
			
				<rect x="83.8" y="54.3" style="clip-path:url(#SVGID_00000013898098370097414950000003709834401894781604_);fill:#FFFFFF;" width="13.2" height="19.1"/>
		</g>
		<g>
			<defs>
				<path id="SVGID_00000035507023482635363300000002999274280757079733_" d="M43.6,127L43.6,127L43.6,127L43.6,127l-4.8,2.6l0,0h0
					c4.4,2.6,9.6,4.1,15.1,4.1c16.5,0,29.9-13.4,29.9-29.9c0-1.5-0.1-3-0.3-4.5c-1.3,2.2-2.7,4.3-4.3,6.3
					c-1,13.1-11.9,23.5-25.3,23.5c-1.5,0-3-0.1-4.4-0.4c20.1-11.1,40.4-31.4,40.2-56.3C82.7,98.3,66.8,114.1,43.6,127"/>
			</defs>
			<use xlink:href="#SVGID_00000035507023482635363300000002999274280757079733_"  style="overflow:visible;fill:#FFFFFF;"/>
			<clipPath id="SVGID_00000092455207497629758550000004807482336401928338_">
				<use xlink:href="#SVGID_00000035507023482635363300000002999274280757079733_"  style="overflow:visible;"/>
			</clipPath>
		</g>
		<path class="st3" d="M30.8,121.5c19.3-3.3,36.1-9.7,46-24.5c-17,15.8-32.7,20.1-48,21.3C29.4,119.4,30,120.5,30.8,121.5"/>
		<g>
			<defs>
				<path id="SVGID_00000156562088319343901960000001417034546106804910_" d="M29.6,104.9c0-0.4,0-0.7,0-1.1
					c0-14,11.3-25.3,25.3-25.3c8.2,0,15.4,3.9,20.1,9.9c1.1-1.1,2.1-2.2,3.1-3.3C72.6,78.3,64.3,74,54.9,74
					C38.4,74,25,87.3,25,103.8c0,1.4,0.1,2.9,0.3,4.3l0,0c25.2,9,57.8-10.2,64.4-36.5C77.8,91.7,55.8,112.2,29.6,104.9"/>
			</defs>
			<use xlink:href="#SVGID_00000156562088319343901960000001417034546106804910_"  style="overflow:visible;fill:#FFFFFF;"/>
			<clipPath id="SVGID_00000132089095899427472540000008589156146181547401_">
				<use xlink:href="#SVGID_00000156562088319343901960000001417034546106804910_"  style="overflow:visible;"/>
			</clipPath>
		</g>
		<g>
			<defs>
				<polygon id="SVGID_00000046314103379560133480000006177684674713395605_" points="83.8,69.7 95.2,54.3 92.1,65.8 				"/>
			</defs>
			<use xlink:href="#SVGID_00000046314103379560133480000006177684674713395605_"  style="overflow:visible;fill:#FFFFFF;"/>
			<clipPath id="SVGID_00000063597287598753679500000002158139939804184753_">
				<use xlink:href="#SVGID_00000046314103379560133480000006177684674713395605_"  style="overflow:visible;"/>
			</clipPath>
			
				<rect x="83.8" y="54.3" style="clip-path:url(#SVGID_00000063597287598753679500000002158139939804184753_);fill:#FFFFFF;" width="11.4" height="15.4"/>
		</g>
		<path class="st3" d="M104.5,101.1h7.2c2.4,0,4.1-0.4,5.1-1.3c1-0.9,1.5-2.1,1.5-3.8c0-1.2-0.3-2.2-0.9-3c-0.6-0.8-1.4-1.4-2.3-1.6
			c-0.6-0.2-1.8-0.2-3.5-0.2h-7.1V101.1z M100.8,115.7V87.8h10.5c1.9,0,3.3,0.1,4.3,0.3c1.4,0.2,2.5,0.7,3.5,1.3
			c0.9,0.6,1.7,1.5,2.2,2.7c0.6,1.2,0.8,2.4,0.8,3.8c0,2.4-0.8,4.4-2.3,6c-1.5,1.6-4.2,2.5-8.2,2.5h-7.2v11.4H100.8z"/>
		<path class="st3" d="M104.5,101.1h7.2c2.4,0,4.1-0.4,5.1-1.3c1-0.9,1.5-2.1,1.5-3.8c0-1.2-0.3-2.2-0.9-3c-0.6-0.8-1.4-1.4-2.3-1.6
			c-0.6-0.2-1.8-0.2-3.5-0.2h-7.1V101.1z M100.8,115.7V87.8h10.5c1.9,0,3.3,0.1,4.3,0.3c1.4,0.2,2.5,0.7,3.5,1.3
			c0.9,0.6,1.7,1.5,2.2,2.7c0.6,1.2,0.8,2.4,0.8,3.8c0,2.4-0.8,4.4-2.3,6c-1.5,1.6-4.2,2.5-8.2,2.5h-7.2v11.4H100.8z"/>
		<path class="st3" d="M146.8,105.9l3.7,0.9c-0.8,3-2.2,5.4-4.2,6.9c-2,1.6-4.5,2.4-7.4,2.4c-3,0-5.5-0.6-7.3-1.8
			c-1.9-1.2-3.3-3-4.3-5.3c-1-2.3-1.5-4.8-1.5-7.5c0-2.9,0.6-5.4,1.7-7.6c1.1-2.2,2.7-3.8,4.7-4.9c2.1-1.1,4.3-1.7,6.8-1.7
			c2.8,0,5.1,0.7,7.1,2.1c1.9,1.4,3.2,3.4,4,6l-3.6,0.9c-0.6-2-1.6-3.5-2.8-4.4c-1.2-0.9-2.8-1.4-4.7-1.4c-2.1,0-3.9,0.5-5.4,1.5
			c-1.4,1-2.5,2.4-3,4.1c-0.6,1.7-0.9,3.5-0.9,5.4c0,2.4,0.3,4.5,1,6.2c0.7,1.8,1.8,3.1,3.2,4c1.5,0.9,3,1.3,4.7,1.3
			c2.1,0,3.8-0.6,5.3-1.8C145.3,110.1,146.3,108.3,146.8,105.9"/>
		<path class="st3" d="M146.8,105.9l3.7,0.9c-0.8,3-2.2,5.4-4.2,6.9c-2,1.6-4.5,2.4-7.4,2.4c-3,0-5.5-0.6-7.3-1.8
			c-1.9-1.2-3.3-3-4.3-5.3c-1-2.3-1.5-4.8-1.5-7.5c0-2.9,0.6-5.4,1.7-7.6c1.1-2.2,2.7-3.8,4.7-4.9c2.1-1.1,4.3-1.7,6.8-1.7
			c2.8,0,5.1,0.7,7.1,2.1c1.9,1.4,3.2,3.4,4,6l-3.6,0.9c-0.6-2-1.6-3.5-2.8-4.4c-1.2-0.9-2.8-1.4-4.7-1.4c-2.1,0-3.9,0.5-5.4,1.5
			c-1.4,1-2.5,2.4-3,4.1c-0.6,1.7-0.9,3.5-0.9,5.4c0,2.4,0.3,4.5,1,6.2c0.7,1.8,1.8,3.1,3.2,4c1.5,0.9,3,1.3,4.7,1.3
			c2.1,0,3.8-0.6,5.3-1.8C145.3,110.1,146.3,108.3,146.8,105.9z"/>
		<rect x="155.7" y="87.8" class="st3" width="3.7" height="27.9"/>
		<rect x="155.7" y="87.8" class="st3" width="3.7" height="27.9"/>
		<path class="st3" d="M177.1,104.3h9.5l-2.9-7.7c-0.9-2.4-1.6-4.3-2-5.8c-0.4,1.8-0.9,3.6-1.5,5.3L177.1,104.3z M169,115.7
			l10.7-27.9h4l11.4,27.9H191l-3.3-8.5H176l-3.1,8.5H169z"/>
		<path class="st3" d="M177.1,104.3h9.5l-2.9-7.7c-0.9-2.4-1.6-4.3-2-5.8c-0.4,1.8-0.9,3.6-1.5,5.3L177.1,104.3z M169,115.7
			l10.7-27.9h4l11.4,27.9H191l-3.3-8.5H176l-3.1,8.5H169z"/>
		<path class="st3" d="M202.6,115.7l-7.7-20.2h3.6l4.3,12.1c0.5,1.3,0.9,2.7,1.3,4.1c0.3-1.1,0.7-2.4,1.3-3.9l4.5-12.4h3.5
			l-7.7,20.2H202.6z"/>
		<path class="st3" d="M202.6,115.7l-7.7-20.2h3.6l4.3,12.1c0.5,1.3,0.9,2.7,1.3,4.1c0.3-1.1,0.7-2.4,1.3-3.9l4.5-12.4h3.5
			l-7.7,20.2H202.6z"/>
		<path class="st3" d="M216.5,95.5h3.4v20.2h-3.4V95.5z M216.5,87.8h3.4v3.9h-3.4V87.8z"/>
		<path class="st3" d="M216.5,95.5h3.4v20.2h-3.4V95.5z M216.5,87.8h3.4v3.9h-3.4V87.8z"/>
		<path class="st3" d="M238.1,105.6c-1.2,0.5-3.1,0.9-5.6,1.3c-1.4,0.2-2.4,0.4-3,0.7c-0.6,0.3-1,0.6-1.4,1.1
			c-0.3,0.5-0.5,1-0.5,1.6c0,0.9,0.3,1.7,1,2.3c0.7,0.6,1.7,0.9,3,0.9c1.3,0,2.5-0.3,3.5-0.9c1-0.6,1.8-1.4,2.3-2.4
			c0.4-0.8,0.6-1.9,0.6-3.4V105.6z M238.4,113.2c-1.3,1.1-2.5,1.8-3.7,2.3c-1.2,0.4-2.4,0.7-3.8,0.7c-2.2,0-3.9-0.5-5.1-1.6
			c-1.2-1.1-1.8-2.5-1.8-4.2c0-1,0.2-1.9,0.7-2.7c0.5-0.8,1-1.5,1.8-2c0.7-0.5,1.6-0.9,2.5-1.1c0.7-0.2,1.7-0.3,3-0.5
			c2.8-0.3,4.8-0.7,6.1-1.2c0-0.5,0-0.8,0-0.9c0-1.4-0.3-2.4-1-3c-0.9-0.8-2.2-1.2-3.9-1.2c-1.6,0-2.8,0.3-3.6,0.8
			c-0.8,0.6-1.3,1.6-1.7,3l-3.4-0.5c0.3-1.4,0.8-2.6,1.5-3.5c0.7-0.9,1.7-1.6,3-2c1.3-0.5,2.9-0.7,4.6-0.7c1.7,0,3.1,0.2,4.2,0.6
			s1.9,0.9,2.4,1.5c0.5,0.6,0.9,1.4,1.1,2.3c0.1,0.6,0.2,1.6,0.2,3.2v4.6c0,3.2,0.1,5.2,0.2,6.1c0.1,0.8,0.4,1.7,0.9,2.4h-3.6
			C238.7,115,238.5,114.2,238.4,113.2"/>
		<path class="st3" d="M238.1,105.6c-1.2,0.5-3.1,0.9-5.6,1.3c-1.4,0.2-2.4,0.4-3,0.7c-0.6,0.3-1,0.6-1.4,1.1
			c-0.3,0.5-0.5,1-0.5,1.6c0,0.9,0.3,1.7,1,2.3c0.7,0.6,1.7,0.9,3,0.9c1.3,0,2.5-0.3,3.5-0.9c1-0.6,1.8-1.4,2.3-2.4
			c0.4-0.8,0.6-1.9,0.6-3.4V105.6z M238.4,113.2c-1.3,1.1-2.5,1.8-3.7,2.3c-1.2,0.4-2.4,0.7-3.8,0.7c-2.2,0-3.9-0.5-5.1-1.6
			c-1.2-1.1-1.8-2.5-1.8-4.2c0-1,0.2-1.9,0.7-2.7c0.5-0.8,1-1.5,1.8-2c0.7-0.5,1.6-0.9,2.5-1.1c0.7-0.2,1.7-0.3,3-0.5
			c2.8-0.3,4.8-0.7,6.1-1.2c0-0.5,0-0.8,0-0.9c0-1.4-0.3-2.4-1-3c-0.9-0.8-2.2-1.2-3.9-1.2c-1.6,0-2.8,0.3-3.6,0.8
			c-0.8,0.6-1.3,1.6-1.7,3l-3.4-0.5c0.3-1.4,0.8-2.6,1.5-3.5c0.7-0.9,1.7-1.6,3-2c1.3-0.5,2.9-0.7,4.6-0.7c1.7,0,3.1,0.2,4.2,0.6
			s1.9,0.9,2.4,1.5c0.5,0.6,0.9,1.4,1.1,2.3c0.1,0.6,0.2,1.6,0.2,3.2v4.6c0,3.2,0.1,5.2,0.2,6.1c0.1,0.8,0.4,1.7,0.9,2.4h-3.6
			C238.7,115,238.5,114.2,238.4,113.2z"/>
		<path class="st3" d="M254.4,112.7l0.5,3c-1,0.2-1.8,0.3-2.6,0.3c-1.2,0-2.2-0.2-2.9-0.6c-0.7-0.4-1.2-0.9-1.4-1.6
			c-0.3-0.6-0.4-2-0.4-4.1V98.2H245v-2.7h2.5v-5l3.4-2.1v7.1h3.5v2.7h-3.5V110c0,1,0.1,1.6,0.2,1.9c0.1,0.3,0.3,0.5,0.6,0.7
			c0.3,0.2,0.7,0.2,1.2,0.2C253.3,112.8,253.8,112.7,254.4,112.7"/>
		<path class="st3" d="M254.4,112.7l0.5,3c-1,0.2-1.8,0.3-2.6,0.3c-1.2,0-2.2-0.2-2.9-0.6c-0.7-0.4-1.2-0.9-1.4-1.6
			c-0.3-0.6-0.4-2-0.4-4.1V98.2H245v-2.7h2.5v-5l3.4-2.1v7.1h3.5v2.7h-3.5V110c0,1,0.1,1.6,0.2,1.9c0.1,0.3,0.3,0.5,0.6,0.7
			c0.3,0.2,0.7,0.2,1.2,0.2C253.3,112.8,253.8,112.7,254.4,112.7z"/>
		<path class="st3" d="M257.7,95.5h3.4v20.2h-3.4V95.5z M257.7,87.8h3.4v3.9h-3.4V87.8z"/>
		<path class="st3" d="M257.7,95.5h3.4v20.2h-3.4V95.5z M257.7,87.8h3.4v3.9h-3.4V87.8z"/>
		<path class="st3" d="M268.7,105.6c0,2.6,0.6,4.5,1.7,5.8c1.1,1.3,2.6,1.9,4.3,1.9c1.7,0,3.1-0.6,4.3-1.9c1.1-1.3,1.7-3.3,1.7-5.9
			c0-2.5-0.6-4.4-1.7-5.7c-1.1-1.3-2.6-1.9-4.2-1.9c-1.7,0-3.1,0.6-4.3,1.9C269.2,101.1,268.7,103,268.7,105.6 M265.1,105.6
			c0-3.7,1-6.5,3.1-8.3c1.7-1.5,3.9-2.2,6.4-2.2c2.8,0,5.1,0.9,6.8,2.7c1.8,1.8,2.6,4.3,2.6,7.6c0,2.6-0.4,4.7-1.2,6.1
			c-0.8,1.5-1.9,2.7-3.4,3.5c-1.5,0.8-3.1,1.2-4.9,1.2c-2.8,0-5.1-0.9-6.9-2.7C266,111.6,265.1,109,265.1,105.6"/>
		<path class="st3" d="M268.7,105.6c0,2.6,0.6,4.5,1.7,5.8c1.1,1.3,2.6,1.9,4.3,1.9c1.7,0,3.1-0.6,4.3-1.9c1.1-1.3,1.7-3.3,1.7-5.9
			c0-2.5-0.6-4.4-1.7-5.7c-1.1-1.3-2.6-1.9-4.2-1.9c-1.7,0-3.1,0.6-4.3,1.9C269.2,101.1,268.7,103,268.7,105.6z M265.1,105.6
			c0-3.7,1-6.5,3.1-8.3c1.7-1.5,3.9-2.2,6.4-2.2c2.8,0,5.1,0.9,6.8,2.7c1.8,1.8,2.6,4.3,2.6,7.6c0,2.6-0.4,4.7-1.2,6.1
			c-0.8,1.5-1.9,2.7-3.4,3.5c-1.5,0.8-3.1,1.2-4.9,1.2c-2.8,0-5.1-0.9-6.9-2.7C266,111.6,265.1,109,265.1,105.6z"/>
		<path class="st3" d="M288.1,115.7V95.5h3.1v2.9c1.5-2.2,3.6-3.3,6.4-3.3c1.2,0,2.3,0.2,3.4,0.7c1,0.4,1.8,1,2.3,1.7
			c0.5,0.7,0.9,1.6,1.1,2.5c0.1,0.6,0.2,1.7,0.2,3.3v12.4h-3.4v-12.3c0-1.4-0.1-2.4-0.4-3.1c-0.3-0.7-0.7-1.2-1.4-1.7
			c-0.7-0.4-1.5-0.6-2.4-0.6c-1.5,0-2.7,0.5-3.8,1.4c-1.1,0.9-1.6,2.7-1.6,5.3v11.1H288.1z"/>
		<path class="st3" d="M288.1,115.7V95.5h3.1v2.9c1.5-2.2,3.6-3.3,6.4-3.3c1.2,0,2.3,0.2,3.4,0.7c1,0.4,1.8,1,2.3,1.7
			c0.5,0.7,0.9,1.6,1.1,2.5c0.1,0.6,0.2,1.7,0.2,3.3v12.4h-3.4v-12.3c0-1.4-0.1-2.4-0.4-3.1c-0.3-0.7-0.7-1.2-1.4-1.7
			c-0.7-0.4-1.5-0.6-2.4-0.6c-1.5,0-2.7,0.5-3.8,1.4c-1.1,0.9-1.6,2.7-1.6,5.3v11.1H288.1z"/>
	</g>
</g>
</svg>
