<svg xmlns="http://www.w3.org/2000/svg" xmlns:xlink="http://www.w3.org/1999/xlink" version="1.1" x="0px" y="0px" viewBox="0 0 464 80" style="enable-background:new 0 0 464 80;" xml:space="preserve" width="464" height="80">
<style type="text/css">
	.st0{fill:#FFFFFF;}
	.bg{fill:#FFFFFF;}
	.st1{fill:#009762;}
	.st2{fill:none;}
	.st3{fill:#B92535;}
	.st4{fill:none;stroke:#231F20;stroke-width:0.2741;}
	.st5{fill:#F6E600;stroke:#231F20;stroke-width:0.2741;}
	.st6{fill:#B92535;stroke:#231F20;stroke-width:0.137;}
	.st7{fill:#F6E600;stroke:#231F20;stroke-width:6.852139e-02;}
	.st8{fill:#B92535;stroke:#231F20;stroke-width:6.852139e-02;}
	.st9{fill:#F6E600;stroke:#231F20;stroke-width:0.137;}
	.st10{fill:#FFFFFF;stroke:#231F20;stroke-width:6.852139e-02;}
	.st11{fill:#D91C5C;stroke:#231F20;stroke-width:0.137;}
	.st12{fill:#231F20;}
	.st13{fill:none;stroke:#231F20;stroke-width:0.202;}
	.st14{fill:#231F20;stroke:#231F20;stroke-width:0.2193;}
	.st15{fill:#231F20;stroke:#231F20;stroke-width:0.2056;}
</style>
<g>
	<path class="st0" d="M144,21.4c0,2.9-0.7,5.1-2.1,6.5s-3.6,2.1-6.7,2.1h-4v7.5h-5V13.3h9.1c2.8,0,4.9,0.6,6.4,1.9   S144,18.5,144,21.4z M138.8,21.4c0-1.4-0.4-2.4-1.1-3s-2.1-0.9-4.1-0.9h-2.5v8.2h2c1.8,0,3.1-0.1,3.8-0.4s1.2-0.7,1.5-1.3   S138.8,22.6,138.8,21.4z"></path>
	<path class="st0" d="M163.7,28.4c0,3.1-0.7,5.5-2.1,7.2s-3.7,2.6-6.7,2.6c-5.9,0-8.9-3.2-8.9-9.7c0-3.1,0.7-5.5,2.1-7.2   s3.7-2.6,6.7-2.6s5.3,0.9,6.7,2.6S163.7,25.3,163.7,28.4z M159,28.4c0-2-0.3-3.5-0.9-4.4s-1.7-1.4-3.2-1.4s-2.5,0.5-3.2,1.4   s-1,2.4-1,4.4s0.3,3.4,1,4.4c0.7,0.9,1.7,1.4,3.2,1.4s2.5-0.5,3.2-1.4C158.7,31.9,159,30.4,159,28.4z"></path>
	<path class="st0" d="M177.9,37.6v-1.9c-1.8,1.6-3.7,2.5-5.8,2.5c-2,0-3.6-0.5-4.6-1.6s-1.6-2.4-1.6-4.1c0-1.3,0.3-2.4,0.8-3.3   s1.3-1.5,2.4-2s2.6-0.8,4.5-1l3.9-0.4V25c0-1-0.3-1.7-0.9-2.1s-1.5-0.6-2.7-0.6c-1,0-1.8,0.2-2.5,0.5s-1.2,0.8-1.6,1.4l-3.5-2.3   c0.6-1,1.6-1.8,2.9-2.4s2.9-0.8,4.8-0.8c2.9,0,4.9,0.5,6.2,1.5s1.9,2.6,1.9,4.9v12.5C182.1,37.6,177.9,37.6,177.9,37.6z M177.5,29   l-2.3,0.2c-1.6,0.1-2.8,0.5-3.5,0.9s-1.1,1.2-1.1,2.2c0,0.8,0.2,1.4,0.7,1.7s1.1,0.5,1.9,0.5c0.6,0,1.2-0.2,2-0.5s1.6-0.8,2.3-1.5   L177.5,29L177.5,29z"></path>
	<path class="st0" d="M197.2,23.6c-0.5-0.2-1.1-0.4-1.9-0.4c-0.8,0-1.6,0.2-2.4,0.6s-1.5,1-2.3,1.8v12h-4.5V19.1h4.5v2.6   c0.8-0.8,1.6-1.5,2.5-2.1s1.9-0.8,3-0.8c0.9,0,1.6,0.1,2,0.4L197.2,23.6z"></path>
	<path class="st0" d="M214.5,34.9c-0.7,1-1.6,1.8-2.8,2.4s-2.6,0.8-4.4,0.8c-3,0-5.2-0.8-6.8-2.4s-2.3-4-2.3-7.2   c0-3.1,0.7-5.5,2.2-7.3s3.7-2.6,6.6-2.6c1.6,0,3,0.3,4.2,0.8s2.2,1.3,2.8,2.4l-3.4,2.4c-0.4-0.6-0.9-1-1.4-1.2s-1.3-0.4-2.1-0.4   c-1.5,0-2.6,0.5-3.3,1.4s-1,2.4-1,4.4s0.3,3.4,1,4.4c0.7,0.9,1.8,1.4,3.5,1.4c0.7,0,1.3-0.1,1.9-0.3s1.1-0.6,1.7-1.3L214.5,34.9z"></path>
	<path class="st0" d="M228.9,37.6V27.4c0-1.9-0.2-3.2-0.5-3.9s-1-0.9-1.9-0.9c-1.3,0-3,0.9-4.9,2.7v12.3H217V11.4h4.5v10.1   c1-1,2-1.7,3.1-2.2s2.2-0.7,3.2-0.7c2.1,0,3.5,0.6,4.4,1.7s1.3,2.8,1.3,4.9v12.3L228.9,37.6L228.9,37.6z"></path>
	<path class="st0" d="M265.1,33.6c-1,1.6-2.3,2.7-3.8,3.4s-3.4,1.1-5.6,1.1c-7.5,0-11.3-4.2-11.3-12.7c0-4.3,1-7.5,2.9-9.6   s4.7-3.1,8.3-3.1c2.4,0,4.3,0.4,5.8,1.2s2.6,1.9,3.4,3.2l-3.8,3c-0.6-0.8-1.1-1.5-1.5-1.8s-1-0.7-1.6-0.8s-1.3-0.3-2.1-0.3   c-2,0-3.5,0.6-4.6,1.9s-1.6,3.4-1.6,6.4c0,2.8,0.5,4.9,1.5,6.2c1,1.4,2.5,2.1,4.7,2.1c1.4,0,2.6-0.3,3.4-0.8s1.5-1.3,2.2-2.2   L265.1,33.6z"></path>
	<path class="st0" d="M278.9,23.6c-0.5-0.2-1.1-0.4-1.9-0.4s-1.6,0.2-2.4,0.6s-1.5,1-2.3,1.8v12h-4.5V19.1h4.5v2.6   c0.8-0.8,1.6-1.5,2.5-2.1s1.9-0.8,3-0.8c0.9,0,1.6,0.1,2,0.4L278.9,23.6z"></path>
	<path class="st0" d="M284.6,29.5c0.1,1.6,0.5,2.8,1.2,3.5s1.8,1.1,3.4,1.1c0.9,0,1.7-0.1,2.3-0.3s1.3-0.7,1.8-1.3l3.4,2.4   c-0.7,1.1-1.7,1.9-2.9,2.4s-2.8,0.8-4.8,0.8c-3,0-5.3-0.8-6.8-2.4s-2.2-4-2.2-7.2c0-6.6,3-9.9,8.9-9.9c2.6,0,4.6,0.7,6,2.2   s2.1,3.6,2.1,6.5v2.2C297,29.5,284.6,29.5,284.6,29.5z M292.4,26.4c0-2.8-1.2-4.2-3.7-4.2c-0.8,0-1.5,0.1-2,0.4s-0.9,0.7-1.2,1.2   s-0.6,1.4-0.7,2.6C284.8,26.4,292.4,26.4,292.4,26.4z"></path>
	<path class="st0" d="M303.8,29.5c0.1,1.6,0.5,2.8,1.2,3.5s1.8,1.1,3.4,1.1c0.9,0,1.7-0.1,2.3-0.3s1.3-0.7,1.8-1.3l3.4,2.4   c-0.7,1.1-1.7,1.9-2.9,2.4s-2.8,0.8-4.8,0.8c-3,0-5.3-0.8-6.8-2.4s-2.2-4-2.2-7.2c0-6.6,3-9.9,8.9-9.9c2.6,0,4.6,0.7,6,2.2   s2.1,3.6,2.1,6.5v2.2C316.2,29.5,303.8,29.5,303.8,29.5z M311.6,26.4c0-2.8-1.2-4.2-3.7-4.2c-0.8,0-1.5,0.1-2,0.4s-0.9,0.7-1.2,1.2   s-0.6,1.4-0.7,2.6C304,26.4,311.6,26.4,311.6,26.4z"></path>
	<path class="st0" d="M330.5,37.6l-4.9-7.6l-1.8,1.9v5.7h-4.5V11.4h4.5v15l6.2-7.2h5.3l-7,7.8l7.3,10.7h-5.1V37.6z"></path>
	<path class="st0" d="M356.5,37.6h-11.7v-3.8h3.4V17.1h-3.4v-3.8h11.7v3.8h-3.4v16.7h3.4V37.6z"></path>
	<path class="st0" d="M371.8,37.6V27.4c0-1.9-0.2-3.2-0.5-3.8s-1-1-2-1c-1.3,0-3,0.9-4.9,2.7v12.3h-4.5V19.1h4.5v2.4   c1-1,2-1.7,3.1-2.2s2.2-0.7,3.2-0.7c1.9,0,3.3,0.5,4.2,1.5s1.4,2.7,1.4,5.1v12.3L371.8,37.6L371.8,37.6z"></path>
	<path class="st0" d="M392.5,37.6v-1.8c-0.8,0.7-1.7,1.3-2.7,1.7s-2,0.6-3.2,0.6c-2.3,0-4.1-0.8-5.3-2.5s-1.8-4-1.8-7.1   s0.7-5.6,2-7.3s3.3-2.6,5.7-2.6c0.9,0,1.8,0.2,2.7,0.5s1.7,0.8,2.3,1.4v-9.1h4.5v26.2H392.5z M392.1,24.3c-0.5-0.4-1.1-0.8-1.8-1.2   s-1.4-0.5-2.2-0.5c-1.2,0-2.2,0.5-2.9,1.6s-1.1,2.5-1.1,4.3c0,1.8,0.3,3.2,0.9,4.2s1.5,1.5,2.8,1.5c0.8,0,1.5-0.2,2.3-0.5   s1.4-0.8,2-1.3L392.1,24.3L392.1,24.3z"></path>
	<path class="st0" d="M405.7,14.1c0,0.9-0.2,1.5-0.6,1.8s-1.1,0.5-1.9,0.5c-1,0-1.6-0.2-2-0.6c-0.3-0.4-0.5-1-0.5-1.7   c0-0.8,0.2-1.4,0.6-1.8s1-0.5,1.9-0.5s1.6,0.2,2,0.5S405.7,13.3,405.7,14.1z M400.9,37.6V19.1h4.5v18.4L400.9,37.6L400.9,37.6z"></path>
	<path class="st0" d="M420.5,37.6v-1.9c-1.8,1.6-3.7,2.5-5.8,2.5c-2,0-3.6-0.5-4.6-1.6s-1.6-2.4-1.6-4.1c0-1.3,0.3-2.4,0.8-3.3   s1.3-1.5,2.4-2s2.6-0.8,4.5-1l3.9-0.4V25c0-1-0.3-1.7-0.9-2.1s-1.5-0.6-2.7-0.6c-1,0-1.8,0.2-2.5,0.5s-1.2,0.8-1.6,1.4l-3.5-2.3   c0.6-1,1.6-1.8,2.9-2.4s2.9-0.8,4.8-0.8c2.9,0,4.9,0.5,6.2,1.5s1.9,2.6,1.9,4.9v12.5C424.7,37.6,420.5,37.6,420.5,37.6z M420.1,29   l-2.3,0.2c-1.6,0.1-2.8,0.5-3.5,0.9s-1.1,1.2-1.1,2.2c0,0.8,0.2,1.4,0.7,1.7s1.1,0.5,1.9,0.5c0.6,0,1.2-0.2,2-0.5s1.6-0.8,2.3-1.5   V29z"></path>
	<path class="st0" d="M440.6,37.6V27.4c0-1.9-0.2-3.2-0.5-3.8s-1-1-2-1c-1.3,0-3,0.9-4.9,2.7v12.3h-4.5V19.1h4.5v2.4   c1-1,2-1.7,3.1-2.2s2.2-0.7,3.2-0.7c1.9,0,3.3,0.5,4.2,1.5s1.4,2.7,1.4,5.1v12.3L440.6,37.6L440.6,37.6z"></path>
	<path class="st0" d="M463.3,32.3c0,1.2-0.3,2.3-0.9,3.1s-1.5,1.5-2.6,2s-2.4,0.7-3.9,0.7c-3.9,0-6.5-1.1-7.9-3.2l3.4-2.4   c0.6,0.8,1.2,1.3,1.9,1.5s1.5,0.4,2.3,0.4c2.2,0,3.2-0.6,3.2-1.9c0-0.6-0.3-1-0.9-1.3s-1.6-0.6-2.9-0.9c-2.4-0.5-4.2-1.3-5.2-2.3   s-1.5-2.3-1.5-3.8c0-1.6,0.6-3,1.9-4s3.1-1.6,5.5-1.6c1.7,0,3.1,0.3,4.4,0.8s2.2,1.3,2.9,2.4l-3.4,2.4c-0.8-1.2-2.1-1.9-4-1.9   c-0.9,0-1.6,0.2-2.1,0.5s-0.7,0.7-0.7,1.2s0.2,0.9,0.7,1.2s1.3,0.6,2.6,0.9c2.1,0.5,3.6,1,4.5,1.5s1.6,1.1,2,1.9   S463.3,31.2,463.3,32.3z"></path>
</g>
<g>
	<path class="st0" d="M127.9,50.3V55h6.5v2h-6.5v7.6h-2.2V48.4h9.8v2h-7.6V50.3z"></path>
	<path class="st0" d="M141.1,64.6V48.4h9.9v2h-7.7v4.7h6.6v2h-6.6v5.6h7.7v2L141.1,64.6L141.1,64.6z"></path>
	<path class="st0" d="M168.6,56.5c0,2-0.3,3.6-0.8,4.7s-1.3,2-2.4,2.6c-1.1,0.6-2.6,0.8-4.5,0.8h-4.1V48.4h4.1   c1.9,0,3.4,0.3,4.5,0.8s1.9,1.4,2.4,2.6S168.6,54.5,168.6,56.5z M166.3,56.4c0-1.5-0.2-2.8-0.5-3.6s-0.9-1.5-1.7-1.9   s-1.9-0.6-3.3-0.6H159v12.3h1.8c1.4,0,2.5-0.2,3.3-0.6s1.3-1,1.7-1.9S166.3,58,166.3,56.4z"></path>
	<path class="st0" d="M174.5,64.6V48.4h9.9v2h-7.7v4.7h6.6v2h-6.6v5.6h7.7v2L174.5,64.6L174.5,64.6z"></path>
	<path class="st0" d="M199.6,64.6l-4.1-6.6h-2.8v6.6h-2.2V48.4h5c2,0,3.5,0.4,4.3,1.1s1.3,1.9,1.3,3.4c0,1.3-0.3,2.4-0.8,3.2   s-1.4,1.3-2.6,1.5l4.4,7C202.1,64.6,199.6,64.6,199.6,64.6z M198.9,53.1c0-1.1-0.3-1.8-0.8-2.2s-1.4-0.6-2.6-0.6h-2.8V56h2.7   c0.9,0,1.6-0.1,2.1-0.3s0.9-0.5,1.1-0.9S198.9,53.8,198.9,53.1z"></path>
	<path class="st0" d="M205.8,64.6l5.5-16.2h2.8l5.5,16.2h-2.3l-1.4-4.2h-6.6l-1.4,4.2H205.8z M210,58.4h5.3l-2.6-7.9L210,58.4z"></path>
	<path class="st0" d="M224.8,64.6V48.4h2.2v14.2h7.3v2C234.3,64.6,224.8,64.6,224.8,64.6z"></path>
	<path class="st0" d="M259.2,60.1c0,1.5-0.5,2.7-1.5,3.5c-1,0.8-2.5,1.3-4.4,1.3c-1.5,0-2.7-0.3-3.7-0.8s-1.8-1.3-2.4-2.4l1.8-1.2   c0.9,1.6,2.3,2.4,4.2,2.4c1.1,0,2.1-0.2,2.7-0.7c0.7-0.5,1-1.1,1-2c0-0.5-0.1-0.9-0.3-1.2s-0.5-0.6-0.8-0.8s-0.7-0.4-1.2-0.5   s-0.9-0.3-1.4-0.4c-0.8-0.2-1.5-0.4-2.2-0.6s-1.3-0.5-1.8-0.8s-0.9-0.7-1.2-1.3s-0.4-1.2-0.4-2c0-1.4,0.5-2.6,1.4-3.4   s2.3-1.3,4.2-1.3c1.5,0,2.6,0.3,3.5,0.8s1.6,1.2,2.1,2.1l-1.7,1.2c-0.4-0.7-0.9-1.2-1.5-1.6c-0.6-0.4-1.4-0.6-2.3-0.6   c-1.1,0-1.9,0.2-2.5,0.7s-0.9,1.1-0.9,1.9c0,0.4,0.1,0.8,0.3,1s0.4,0.5,0.8,0.7s0.7,0.4,1.2,0.5s1,0.3,1.7,0.4   c0.7,0.2,1.4,0.4,2.1,0.6c0.7,0.2,1.2,0.5,1.7,0.8s0.9,0.8,1.2,1.4S259.2,59.3,259.2,60.1z"></path>
	<path class="st0" d="M265,64.6V48.4h9.9v2h-7.7v4.7h6.6v2h-6.6v5.6h7.7v2L265,64.6L265,64.6z"></path>
	<path class="st0" d="M290.1,64.6L286,58h-2.8v6.6H281V48.4h5c2,0,3.5,0.4,4.3,1.1s1.3,1.9,1.3,3.4c0,1.3-0.3,2.4-0.8,3.2   s-1.4,1.3-2.6,1.5l4.4,7C292.6,64.6,290.1,64.6,290.1,64.6z M289.4,53.1c0-1.1-0.3-1.8-0.8-2.2s-1.4-0.6-2.6-0.6h-2.8V56h2.7   c0.9,0,1.6-0.1,2.1-0.3s0.9-0.5,1.1-0.9S289.4,53.8,289.4,53.1z"></path>
	<path class="st0" d="M303.8,64.6h-2.9l-5.1-16.2h2.3l4.3,14.1l4.3-14.1h2.2L303.8,64.6z"></path>
	<path class="st0" d="M319.8,64.6h-6.6v-1.9h2.2V50.2h-2.2v-1.8h6.6v1.8h-2.2v12.5h2.2V64.6z"></path>
	<path class="st0" d="M338,61.7c-0.5,0.8-1,1.5-1.6,1.9c-0.6,0.4-1.2,0.7-1.9,1s-1.5,0.3-2.5,0.3c-2.4,0-4.2-0.7-5.4-2.1   s-1.7-3.5-1.7-6.3s0.6-4.9,1.7-6.3s2.9-2.1,5.3-2.1c0.9,0,1.8,0.1,2.5,0.4s1.4,0.6,1.9,1s1,1,1.4,1.7l-1.8,1.2   c-0.3-0.6-0.7-1-1-1.3s-0.8-0.5-1.3-0.7s-1.1-0.3-1.7-0.3c-1.6,0-2.8,0.5-3.6,1.6s-1.1,2.7-1.1,4.9s0.4,3.8,1.1,4.9s2,1.6,3.6,1.6   c0.9,0,1.7-0.2,2.4-0.5s1.3-1,1.8-1.9L338,61.7z"></path>
	<path class="st0" d="M343.4,64.6V48.4h9.9v2h-7.7v4.7h6.6v2h-6.6v5.6h7.7v2L343.4,64.6L343.4,64.6z"></path>
	<path class="st0" d="M370.2,60.1c0,1.5-0.5,2.7-1.5,3.5c-1,0.8-2.5,1.3-4.4,1.3c-1.5,0-2.7-0.3-3.7-0.8s-1.8-1.3-2.4-2.4l1.8-1.2   c0.9,1.6,2.3,2.4,4.2,2.4c1.1,0,2.1-0.2,2.7-0.7s1-1.1,1-2c0-0.5-0.1-0.9-0.3-1.2s-0.5-0.6-0.8-0.8s-0.7-0.4-1.2-0.5   s-0.9-0.3-1.4-0.4c-0.8-0.2-1.5-0.4-2.2-0.6s-1.3-0.5-1.8-0.8s-0.9-0.7-1.2-1.3s-0.4-1.2-0.4-2c0-1.4,0.5-2.6,1.4-3.4   s2.3-1.3,4.2-1.3c1.5,0,2.6,0.3,3.5,0.8s1.6,1.2,2.1,2.1l-1.7,1.2c-0.4-0.7-0.9-1.2-1.5-1.6s-1.4-0.6-2.3-0.6   c-1.1,0-1.9,0.2-2.5,0.7s-0.9,1.1-0.9,1.9c0,0.4,0.1,0.8,0.3,1s0.4,0.5,0.8,0.7s0.7,0.4,1.2,0.5s1,0.3,1.7,0.4   c0.7,0.2,1.4,0.4,2.1,0.6s1.2,0.5,1.7,0.8s0.9,0.8,1.2,1.4S370.2,59.3,370.2,60.1z"></path>
</g>
<g>
	<path class="st1" d="M67.7,38.5c0,9.6-7.8,17.4-17.4,17.4s-17.4-7.8-17.4-17.4s7.8-17.4,17.4-17.4S67.7,28.9,67.7,38.5z"></path>
	<polyline class="st2" points="47.9,73.4 50.5,77.1 53.2,73.7  "></polyline>
	<polygon class="bg" points="10,38.4 18.4,45.6 43.5,45.6 43.5,68 50.3,76.7 57.2,68.1 57.2,45.5 82.2,45.5 90.6,38.5 82.3,31.6    57.2,31.6 57.2,8.9 50.3,0.5 43.7,8.9 43.7,31.7 18.5,31.7  "></polygon>
	<polygon class="st3" points="47.8,3.4 50.3,0.2 52.8,3.4 52.8,31.4 47.8,31.4  "></polygon>
	<polygon class="st3" points="13.1,41 9.9,38.5 13.2,36 32,36 32,41  "></polygon>
	<polygon class="st3" points="52.8,73.7 50.3,76.9 47.8,73.6 47.8,45.6 52.9,45.6  "></polygon>
	<polygon class="st3" points="87.8,36 90.9,38.5 87.7,41 69.7,41 69.6,35.9  "></polygon>
	<polygon class="st4" points="18.6,31.7 43.7,31.7 43.7,9 50.3,0.3 57.2,8.9 57.2,31.7 82.2,31.7 90.8,38.4 82.2,45.4 57.2,45.4    57.2,67.9 50.4,76.8 43.5,68 43.5,45.4 18.5,45.4 10.1,38.5  "></polygon>
	<path class="st5" d="M67.6,38.6c0,9.6-7.8,17.4-17.4,17.4s-17.4-7.8-17.4-17.4s7.8-17.4,17.4-17.4C59.8,21.2,67.6,29,67.6,38.6z    M50.2,11.8c-14.9,0-26.9,12.1-26.9,26.9c0,14.9,12.1,26.9,26.9,26.9c14.9,0,26.9-12.1,26.9-26.9S65,11.8,50.2,11.8z"></path>
	<path class="st6" d="M30.1,38.6c0,0.7-0.6,1.3-1.3,1.3c-0.7,0-1.3-0.6-1.3-1.3s0.6-1.3,1.3-1.3S30.1,37.9,30.1,38.6z"></path>
	<path class="st6" d="M72.9,38.5c0,0.7-0.6,1.3-1.3,1.3c-0.7,0-1.3-0.6-1.3-1.3s0.6-1.3,1.3-1.3C72.4,37.2,72.9,37.8,72.9,38.5z"></path>
	<g>
		<path d="M91.1,38.5c0,0-0.3,0.1-0.2,0.4c0,0.2,0.2,0.2,0.2,0.2s-0.2,0.2-0.2,0.4c0,0.3,0.2,0.4,0.2,0.4S91,40,90.9,40.2    c0,0.2,0,0.2,0,0.2L90.5,40l-0.2,1.4l-1.9-0.8l0.2,1l-1.1,0.1l0.3,1.2c0,0-0.7,0.2-1,0.6c-0.3,0.4-0.3,0.5-0.3,0.5h1.1l-0.7,0.6    l0.2,0.3l-0.2,0.4l1.1,0.6l-1.1,1.5l0.1,1l1.3-0.8l-0.5,2.2l0.1,2.8c0,0,0.4-0.8,0.5-1c0.2-0.2,0.4-0.3,0.4-0.3s-0.6,1.6-0.9,2.3    c-0.3,0.8-0.2,0.9-0.2,0.9s-0.3,1.8-0.4,2.8c0,1.1-0.1,2.4-0.1,2.6c0,0.3,0,0.3,0,0.3l0.4-0.4l-0.1,0.5c0,0,0,3.7,0,4s0,0.5,0,0.5    l0.3-0.1l-0.2,0.4c0,0-0.1,2.6-0.1,3c0,0.3,0.4,1.2,0.5,1.6s0.9,1.9,1.8,2.9c0.9,0.9,1.4,1.5,1.4,1.7s0.2,0.6,0,0.6    s-1.4,0-1.6,0.1c-0.3,0.1-0.4,0-0.5,0.1c-0.2,0.1-1.1,0.4-1.1,0.4l0.1,0.3c0,0,0.6,0,0.9-0.1c0.4-0.1,0.4-0.2,0.8-0.1    c0.4,0,1,0.2,1.2,0c0.2-0.1,0.4-0.5,0.4-0.5s0.2,0.6-0.1,0.9c-0.3,0.3-2,0.9-2.4,1.1s-0.8,0.5-0.8,0.8s0.8,0.4,0.8,0.4    s-0.1-0.7,0.1-0.8c0.2-0.1,0.6-0.2,1-0.2s0.9-0.2,1.2-0.5c0.4-0.3,0.5-0.6,0.6-1.2s0-0.7,0-0.7s0-0.4,0.8-0.7    c0.8-0.3,1.5-0.8,1.6-0.9s0.7-0.3,0.7-0.3s0.2-2,0.4-2.5c0.2-0.4,0.3-0.5,0.3-0.5s0.9-6.3,1-7c0-0.7,0.1-1.1,0.1-1.1    s-2.2-0.7-3.4-3.5c-1.2-2.8-1.5-4.8-1.5-5c0-0.1,0,3.1,0.2,3.7c0.3,0.7,2.1,4.6,2.3,5.2c0.2,0.5,1.1,2.6,0.6,4.1S94,67.8,94,67.8    s0.4-0.3,0.6-1.3s0-2.8-0.6-4.2c-0.7-1.5-1.8-4.1-1.9-4.5s-0.3-1-0.4-1.6c0-0.6-0.2-2.4-0.2-2.9s-0.5-4.2-0.6-4.6    c-0.1-0.4,0.9,3.5,0.9,3.7s0.3,0.6,0.3,1.1c0,0.4,0.3,2.6,1.3,4.4c1,1.8,1.7,2.6,2.8,3.4c0.3,0.2,0.5,0.3,0.5,0.3s0.1-1.7-0.1-2.3    c-0.1-0.6-1-2.6-1.2-3.1C95,55.7,95,55.7,95,55.7s0.8,1,1.1,1.7c0.3,0.8,0.3,0.6,0.3,0.6s0.4-1.9,0.1-3.6    c-0.3-1.7-0.5-2.9-0.5-2.9s0.4,0.5,1.2,2.3c0.8,1.8,0.6,1.9,0.7,2.1C97.9,56,98,56,98,56h0.4c0,0-0.1-1.4-0.2-1.6    c-0.1-0.2-1.1-1.8-1.3-2.2c-0.2-0.4-0.6-1.3-1-1.8s-0.4-0.6-0.4-0.6s0-0.1,0.2,0s0.2-0.4-0.1-0.8c-0.3-0.4-0.6-0.8-0.6-0.8    s0.7,0.5,0.9,0.7c0.1,0.1,0.5,0.4,0.5,0s-0.2-0.8-0.3-0.9c0-0.1-0.4-0.4-0.4-0.4s2.1,1.8,2.5,2.5s0.7,1.5,0.8,1.7    c0.1,0.2,0.2,0.5,0.2,0.5s0.3-0.3,0.3-0.4c0-0.1-0.1-0.9-0.1-0.9l-0.3-0.6c0,0-1.2-1.6-1.4-1.9c-0.2-0.3-1-0.9-1-0.9    s0.3-0.1,0.4,0s-0.1-1-0.4-1.2c-0.2-0.2-0.7-0.8-0.8-0.8c-0.2,0,0.7-0.1,0.9,0c0.3,0.1,0.8,0.3,1,0.5c0.1,0.1-0.3-0.8-0.7-1.2    c-0.4-0.4-1.2-0.8-1.3-0.9c0-0.1,0-0.2,0.2-0.3s1-0.3,1.1-0.4c0.2-0.1,0.4-0.3-0.2-0.3s-1.3,0-1.3-0.1s-0.1-0.5,0.1-0.8    s0.4-0.4,0.5-0.4s-0.3-0.1-0.5-0.1s-0.2-0.2-0.2-0.2s-0.7-1.7-1.1-2.1c-0.4-0.4-0.5-0.7-0.9-0.9c-0.3-0.2-1.1-0.4-1.5-0.3    C91.8,38,91.3,38.2,91.1,38.5z"></path>
		<path class="bg" d="M94,49c0,0-0.1-1.1-0.3-1.4c-0.2-0.3-0.4-0.5-0.6-0.7C93,46.7,93,46.6,93,46.6s0.5,0.2,0.6,0.2S94,42,93.5,41    c-0.1-0.2-1,0.9-1.2,1s-0.4-1.2-0.4-1.4c-0.1-0.2-0.3,1.1-0.4,1.3c0,0-0.6-1-0.7-1c0,0,0,1.1-0.1,1.3c-0.1,0.1-1-0.4-1.3-0.4    c0,0,0,0.8,0,0.9v0.2c0,0-0.8-0.1-1,0c-0.3,0,0.4,0.3,0.5,0.4c0.1,0.1,0.1,0.1,0.1,0.1s-0.5,0.3-0.8,0.4c-0.3,0.1-0.2,0.1-0.2,0.1    s0.6,0.1,0.7,0.3c0.1,0.1-0.9,0.9-1,1.1c-0.1,0.2,1.2,0.3,1.2,0.3s-0.3,1.1-0.4,1.3s0.9-0.2,0.9-0.2s0,1.4-0.1,1.5    c0,0.1,1.4-0.7,1.4-0.7l0.6,0.7c0,0,0.1-0.9,0.2-1c0-0.1,0.6,0.6,0.6,0.7c0,0.1,0.5-0.6,0.5-0.6S94,48.7,94,49z"></path>
		<path class="bg" d="M94.4,43.7c0,0-0.1,1-0.1,1.3s0,1.2,0,1.2s0.8,0.1,0.9,0.3c0.1,0.1,0.1-0.4,0.1-0.5c0-0.4-0.2-0.6-0.2-0.6    s-0.5-0.2-0.4-0.3c0.1,0,0.2-0.1,0.4-0.1c0.2,0,0.2,0,0.2,0v-1.4c0,0,0-0.2-0.2-0.2C94.9,43.3,94.4,43.7,94.4,43.7z"></path>
		<path class="bg" d="M95.5,44.6c0,0,0.1-0.6,0.4-0.5c0.1,0.1,1.4,1,1.2,1c-0.2,0-0.5-0.1-0.7-0.1s-0.3,0.1-0.6,0    C95.4,45,95.5,44.5,95.5,44.6z"></path>
		<path class="bg" d="M95.9,45.8c0,0,0.4,0.3,0.5,0.5s0.3,0.5,0.3,0.7s0,0.1-0.3,0s-0.8-0.3-0.8-0.3s0-0.9,0-1    C95.5,45.5,95.8,45.7,95.9,45.8z"></path>
		<path class="bg" d="M94.4,47.3c0.2,0.3,1.1,0.9,1.3,1.1c0.2,0.2,0.1-0.2-0.1-0.6c-0.2-0.4-0.9-0.8-1-0.9    c-0.1-0.1-0.3-0.4-0.4-0.4C94.2,46.5,94,46.8,94.4,47.3z"></path>
		<path class="bg" d="M89,70.8c0,0,0.7,1.3,2.1,2.7c0,0,0.7,0.6,0.8,0.6c0.1,0,1-0.6,1.4-0.8c0.4-0.2,1-0.9,1-0.9s0.4-1.2,0.4-1.7    c0.1-0.5,0.1-0.6,0.1-0.6s-1.8-1.4-2-2c-0.3-0.6-0.3-0.8-0.3-0.8s-1.1-6-1.4-8.7S90.8,55,90.8,55s-0.3,0.4-0.4,1s0.1,5.3,0.4,7.2    s0.3,3.4,0.3,3.4S89.2,69.9,89,70.8z"></path>
		<path class="bg" d="M91.8,50.5c0,0,0.7,0.3,0.9,0.9c0.1,0.4,0.4,3.1,0.6,3.8s0.5,1,0.8,1.2c0.1,0.1-0.4-0.6-0.7-2    c-0.2-1.1-0.3-2.4-0.4-2.7C93,51.3,92.8,50.4,91.8,50.5z"></path>
		<path class="bg" d="M91.9,49c0,0,1.2,1.1,2,1.8c1.1,0.8,1.5,1.8,1.4,2.9c0,0.4-0.3-1.2-1-2.1C94,51,92,49.3,91.9,49z"></path>
		<path class="bg" d="M88.9,61.5c0,0,0.3-0.7,0.5-0.9s0.8-0.9,0.6-2.3c-0.1-1.2-0.3-3.1,0-3.6s0.3-0.5,0.5-0.8    c0.1-0.1-0.2,0-0.6,0.4s0.2-1.3,0.4-2.1c0.1-0.8,0.1-1.1,0.1-1.1s-0.7,1.9-1.2,4c-0.6,2.1-0.4,1.7-0.4,2.3c0,0.2,0.3-1.1,0.8-1.8    c0.1-0.1,0.1,1.3,0.2,1.8c0.2,1,0,2-0.2,2.4C89.5,60.2,88.8,60.9,88.9,61.5z"></path>
		<path class="bg" d="M88.5,67.4c0,0-0.1-0.5,0.4-0.9c0.3-0.2,0.4-0.8,0.3-1.1c-0.1-0.2,0.5,0.7,0.2,1.2c-0.4,0.5-0.5,0.8-0.6,1.4    C88.7,68.3,88.5,67.4,88.5,67.4z"></path>
		<path class="bg" d="M87.8,66.1c0,0,0.7-1.2,1-2.6c0.1-0.7,0.2-1.1,0.2-1.1S89.4,64.3,87.8,66.1z"></path>
		<path class="bg" d="M89.8,50.9c0,0-0.4-1.3,0.6-2.3C90.5,48.5,89.7,50.8,89.8,50.9z"></path>
		<path class="bg" d="M94.6,48.4V49c0,0.1,0.5,0.4,0.6,0.4s0.3,0.1,0.2-0.2C95.3,49,94.7,48.5,94.6,48.4z"></path>
	</g>
	<path class="bg" d="M94.3,43.1l0.7-0.2c0,0,0.3-0.9,0.4-1.1c0.1-0.2-1.1,0.1-1.2,0.1C94.2,41.9,94.4,43.1,94.3,43.1z"></path>
	<path class="bg" d="M94.2,41.4c0,0-0.3-0.6-0.5-1.3c0-0.2,0.1-0.6,0.1-0.8c-0.2-0.4,1.1,1.5,1.2,1.8   C95.2,41.3,94.2,41.3,94.2,41.4z"></path>
	<path class="st7" d="M93.4,38.8c0,0.2-0.4,0.4-0.9,0.4s-1-0.2-1-0.4s0.4-0.4,1-0.4C93,38.5,93.4,38.6,93.4,38.8z"></path>
	<path class="st8" d="M93.4,39.6c0,0.2-0.4,0.4-0.9,0.4s-1-0.2-1-0.4s0.4-0.4,1-0.4C93,39.2,93.4,39.4,93.4,39.6z"></path>
	<path class="st7" d="M93.4,40.3c0,0.2-0.4,0.4-1,0.4c-0.5,0-1-0.2-1-0.4s0.4-0.4,1-0.4C92.9,40,93.4,40.1,93.4,40.3z"></path>
	<path class="st6" d="M88.9,78.5c0,0.4-0.3,0.7-0.7,0.7c-0.4,0-0.7-0.3-0.7-0.7c0-0.4,0.3-0.7,0.7-0.7S88.9,78.1,88.9,78.5z"></path>
	<path class="st9" d="M88.3,76.2c0,0.4-0.3,0.7-0.7,0.7c-0.4,0-0.7-0.3-0.7-0.7c0-0.4,0.3-0.7,0.7-0.7S88.3,75.8,88.3,76.2z"></path>
	<path class="st9" d="M99.5,55.7c0,0.4-0.3,0.7-0.7,0.7c-0.4,0-0.7-0.3-0.7-0.7s0.3-0.7,0.7-0.7C99.1,54.9,99.5,55.3,99.5,55.7z"></path>
	<path class="st6" d="M100.4,51.8c0,0.4-0.3,0.7-0.7,0.7c-0.4,0-0.7-0.3-0.7-0.7s0.3-0.7,0.7-0.7C100,51.1,100.4,51.4,100.4,51.8z"></path>
	<g>
		<path d="M9.6,38.4c0,0,0.3,0.1,0.2,0.4C9.8,39,9.6,39,9.6,39s0.2,0.2,0.2,0.4c0,0.3-0.2,0.4-0.2,0.4s0.1,0.1,0.2,0.3    c0,0.2,0,0.2,0,0.2l0.4-0.4l0.2,1.4l1.9-0.8l-0.2,1l1.1,0.1L13,43.1c0,0,0.7,0.2,1,0.6c0.3,0.4,0.3,0.5,0.3,0.5h-1.1l0.7,0.6    L13.7,45l0.2,0.4L12.7,46l1.1,1.5l-0.1,1l-1.3-0.8l0.5,2.2l-0.1,2.8c0,0-0.4-0.8-0.5-1c-0.2-0.2-0.4-0.3-0.4-0.3s0.6,1.6,0.9,2.3    c0.3,0.8,0.2,0.9,0.2,0.9s0.3,1.8,0.4,2.8c0,1.1,0.1,2.4,0.1,2.6c0,0.3,0,0.3,0,0.3L13.1,60l0.1,0.5c0,0,0,3.7,0,4s0,0.5,0,0.5H13    l0.2,0.4c0,0,0.1,2.6,0.1,3c0,0.3-0.4,1.2-0.5,1.6s-0.9,1.9-1.8,2.9c-0.9,0.9-1.4,1.5-1.4,1.7s-0.2,0.6,0,0.6s1.4,0,1.6,0.1    c0.3,0.1,0.4,0,0.5,0.1c0.2,0.1,1.1,0.4,1.1,0.4l0,0.2c0,0-0.6,0-0.9-0.1c-0.4-0.1-0.4-0.2-0.8-0.1c-0.4,0-1,0.2-1.2,0    c-0.2-0.1-0.4-0.5-0.4-0.5s-0.2,0.6,0.1,0.9s2,0.9,2.4,1.1c0.4,0.2,0.8,0.5,0.8,0.8S12,78.5,12,78.5s0.1-0.7-0.1-0.8    c-0.2-0.1-0.6-0.2-1-0.2S10,77.3,9.7,77c-0.4-0.3-0.5-0.6-0.6-1.2C9,75,9,74.9,9,74.9s0-0.4-0.8-0.7c-0.8-0.3-1.5-0.8-1.6-0.9    C6.5,73.2,5.9,73,5.9,73s-0.2-2-0.4-2.5C5.4,70.1,5.2,70,5.2,70s-0.9-6.3-1-7c0-0.7-0.1-1.1-0.1-1.1s2.2-0.7,3.4-3.5    s1.5-4.8,1.5-5c0-0.1,0,3.1-0.2,3.7c-0.3,0.7-2.1,4.6-2.3,5.2c-0.1,0.6-1,2.7-0.5,4.1c0.5,1.5,0.9,1.4,0.9,1.4s-0.4-0.3-0.6-1.3    s0-2.8,0.6-4.2c0.7-1.5,1.8-4.1,1.9-4.5s0.3-1,0.4-1.6c0-0.6,0.2-2.4,0.2-2.9s0.5-4.2,0.6-4.6c0.1-0.4-0.9,3.5-0.9,3.7    S8.8,53,8.8,53.5c0,0.4-0.3,2.6-1.3,4.4c-1,1.8-1.7,2.6-2.8,3.4c-0.3,0.2-0.5,0.3-0.5,0.3s-0.1-1.7,0.1-2.3c0.1-0.6,1-2.6,1.2-3.1    c0.3-0.5,0.3-0.5,0.3-0.5s-0.8,1-1.1,1.7C4.4,58.2,4.4,58,4.4,58S4,56.1,4.3,54.4c0.3-1.7,0.5-2.9,0.5-2.9S4.4,52,3.6,53.8    S3,55.7,2.9,55.9c0,0.2-0.2,0.2-0.2,0.2H2.3c0,0,0.1-1.4,0.2-1.6c0.1-0.2,1.1-1.8,1.3-2.2s0.6-1.3,1-1.8s0.4-0.6,0.4-0.6    s0-0.1-0.2,0s-0.2-0.4,0.1-0.8c0.3-0.4,0.6-0.8,0.6-0.8S5,48.7,4.8,48.9c-0.1,0.1-0.5,0.4-0.5,0s0.2-0.8,0.3-0.9    c0-0.1,0.4-0.4,0.4-0.4s-2.1,1.8-2.5,2.5s-0.7,1.5-0.8,1.7c-0.1,0.2-0.3,0.5-0.3,0.5S1.1,52,1.1,51.9c0-0.1,0.1-0.9,0.1-0.9    l0.3-0.6c0,0,1.2-1.6,1.4-1.9c0.2-0.3,1-0.9,1-0.9s-0.3-0.1-0.4,0c-0.1,0.1,0.1-1,0.4-1.2c0.2-0.2,0.7-0.8,0.8-0.8    c0.2,0-0.7-0.1-0.9,0c-0.3,0.1-0.8,0.3-1,0.5c-0.1,0.1,0.3-0.8,0.7-1.2s1.2-0.8,1.3-0.9c0-0.1,0-0.2-0.2-0.3s-1-0.3-1.1-0.4    C3.2,43,3,42.8,3.6,42.8s1.3,0,1.3-0.1C5,42.6,5,42.2,4.8,42c-0.2-0.3-0.4-0.4-0.5-0.4s0.3-0.1,0.5-0.1S5,41.3,5,41.3    s0.7-1.7,1.1-2.1c0.4-0.4,0.5-0.6,0.9-0.8c0.3-0.2,1.1-0.3,1.4-0.2C8.9,38.2,9.4,38.2,9.6,38.4z"></path>
		<path class="st3" d="M6.7,48.9c0,0,0.1-1.1,0.3-1.4c0.2-0.3,0.4-0.5,0.6-0.7s0.1-0.3,0.1-0.3s-0.5,0.2-0.6,0.2s-0.4-4.8,0.1-5.8    c0.1-0.2,1,0.9,1.2,1s0.4-1.2,0.4-1.4c0.1-0.2,0.3,1.1,0.4,1.3c0,0,0.6-1,0.7-1c0,0,0,1.1,0.1,1.3c0.1,0.1,1-0.4,1.3-0.4    c0,0,0,0.8,0,0.9v0.2c0,0,0.8-0.1,1,0c0.3,0-0.4,0.3-0.5,0.4c-0.1,0.1-0.1,0.1-0.1,0.1s0.5,0.3,0.8,0.4c0.3,0.1,0.2,0.1,0.2,0.1    s-0.6,0.1-0.7,0.3c-0.1,0.1,0.9,0.9,1,1.1c0.1,0.2-1.2,0.3-1.2,0.3s0.3,1.1,0.4,1.3c0.1,0.2-0.9-0.2-0.9-0.2s0,1.4,0.1,1.5    c0,0.1-1.4-0.7-1.4-0.7L9.4,48c0,0-0.1-0.9-0.2-1c0-0.1-0.6,0.6-0.6,0.7c0,0.1-0.5-0.6-0.5-0.6S6.7,48.7,6.7,48.9z"></path>
		<path class="st3" d="M6.4,43.7c0,0,0.1,1,0.1,1.3s0,1.2,0,1.2s-0.8,0.1-0.9,0.3c-0.1,0.1-0.1-0.4-0.1-0.5c0-0.4,0.2-0.6,0.2-0.6    S6.3,45,6.2,45c-0.1,0-0.2-0.1-0.4-0.1c-0.2,0-0.2,0-0.2,0v-1.4c0,0,0-0.2,0.2-0.2C5.8,43.3,6.4,43.7,6.4,43.7z"></path>
		<path class="st3" d="M5.3,44.5c0,0-0.1-0.6-0.4-0.5c-0.1,0.1-1.4,1-1.2,1s0.5,0,0.7,0c0.2,0,0.3,0.1,0.6,0    C5.3,44.9,5.2,44.4,5.3,44.5z"></path>
		<path class="st3" d="M4.9,45.7c0,0-0.4,0.3-0.5,0.5s-0.3,0.5-0.3,0.7s0,0.1,0.3,0s0.8-0.3,0.8-0.3s0-0.9,0-1S4.9,45.6,4.9,45.7z"></path>
		<path class="st3" d="M6.4,47.3c-0.2,0.3-1.1,0.9-1.3,1.1c-0.2,0.2-0.1-0.2,0.1-0.6c0.2-0.4,0.9-0.8,1-0.9c0.1-0.1,0.3-0.4,0.4-0.4    C6.5,46.5,6.7,46.8,6.4,47.3z"></path>
		<path class="st3" d="M11.7,70.8c0,0-0.7,1.3-2.1,2.7c0,0-0.7,0.6-0.8,0.6s-1-0.6-1.4-0.8c-0.4-0.2-1-0.9-1-0.9S6,71.2,6,70.7    c-0.1-0.5-0.1-0.6-0.1-0.6s1.8-1.4,2-2c0.3-0.6,0.3-0.8,0.3-0.8s1.1-6,1.4-8.7C9.9,55.9,9.9,55,9.9,55s0.3,0.4,0.4,1    c0.1,0.6-0.1,5.3-0.4,7.2c-0.3,1.9-0.3,3.4-0.3,3.4S11.6,69.9,11.7,70.8z"></path>
		<path class="bg" d="M8.9,50.4c0,0-0.7,0.3-0.9,0.9c-0.1,0.4-0.4,3.1-0.6,3.8s-0.5,1-0.8,1.2c-0.1,0.1,0.4-0.6,0.7-2    c0.2-1.1,0.3-2.4,0.4-2.7C7.7,51.3,7.9,50.4,8.9,50.4z"></path>
		<path class="bg" d="M8.8,48.9c0,0-1.2,1.1-2,1.8c-1.1,0.8-1.5,1.8-1.4,2.9c0,0.4,0.3-1.2,1-2.1C6.7,51,8.8,49.3,8.8,48.9z"></path>
		<path class="bg" d="M11.8,61.5c0,0-0.3-0.7-0.5-0.9s-0.8-0.9-0.6-2.3c0.1-1.2,0.3-3.1,0-3.6s-0.3-0.5-0.5-0.8    c-0.1-0.1,0.2,0,0.6,0.4c0.4,0.4-0.2-1.3-0.4-2.1c-0.1-0.8-0.1-1.1-0.1-1.1s0.7,1.9,1.2,4c0.6,2.1,0.4,1.7,0.4,2.3    c0,0.2-0.3-1.1-0.8-1.8c-0.1-0.1-0.1,1.3-0.2,1.8c-0.2,1,0,2,0.2,2.4C11.3,60.1,11.9,60.9,11.8,61.5z"></path>
		<path class="bg" d="M12.3,67.4c0,0,0.1-0.5-0.4-0.9c-0.3-0.2-0.4-0.8-0.3-1.1c0.1-0.2-0.5,0.7-0.2,1.2c0.4,0.5,0.5,0.8,0.6,1.4    C12,68.3,12.3,67.4,12.3,67.4z"></path>
		<path class="bg" d="M13,66c0,0-0.7-1.2-1-2.6c-0.1-0.7-0.2-1.1-0.2-1.1S11.3,64.3,13,66z"></path>
		<path class="bg" d="M10.9,50.9c0,0,0.4-1.3-0.6-2.3C10.2,48.5,11,50.7,10.9,50.9z"></path>
		<path class="st3" d="M6.1,48.4V49c0,0.1-0.5,0.4-0.6,0.4s-0.3,0.1-0.2-0.2C5.4,49,6,48.4,6.1,48.4z"></path>
	</g>
	<path class="st3" d="M6.4,43.1l-0.7-0.2c0,0-0.3-0.9-0.4-1.1c-0.1-0.2,1.1,0.1,1.2,0.1C6.5,41.8,6.3,43,6.4,43.1z"></path>
	<path class="bg" d="M6.5,41.3c0,0,0.4-0.9,0.4-1.3c-0.2-1.1-0.9,0.9-1.1,1.1C5.6,41.4,6.5,41.2,6.5,41.3z"></path>
	<path class="st8" d="M7.4,38.8c0,0.2,0.4,0.4,1,0.4c0.5,0,1-0.2,1-0.4s-0.4-0.4-1-0.4C7.8,38.4,7.4,38.6,7.4,38.8z"></path>
	<path class="st10" d="M7.4,39.6c0,0.2,0.4,0.4,1,0.4c0.5,0,1-0.2,1-0.4s-0.4-0.4-1-0.4C7.8,39.2,7.4,39.3,7.4,39.6z"></path>
	<path class="st8" d="M7.4,40.3c0,0.2,0.4,0.4,1,0.4c0.5,0,1-0.2,1-0.4s-0.4-0.4-1-0.4C7.8,39.9,7.4,40.1,7.4,40.3z"></path>
	<path class="st9" d="M11.8,78.5c0,0.4,0.3,0.7,0.7,0.7s0.7-0.3,0.7-0.7c0-0.4-0.3-0.7-0.7-0.7S11.8,78.1,11.8,78.5z"></path>
	<path class="st11" d="M12.4,76.1c0,0.4,0.3,0.7,0.7,0.7s0.7-0.3,0.7-0.7c0-0.4-0.3-0.7-0.7-0.7S12.4,75.7,12.4,76.1z"></path>
	<path class="st6" d="M1.3,55.6c0,0.4,0.3,0.7,0.7,0.7s0.7-0.3,0.7-0.7S2.4,54.9,2,54.9C1.6,54.9,1.3,55.2,1.3,55.6z"></path>
	<path class="st9" d="M0.4,51.8c0,0.4,0.3,0.7,0.7,0.7s0.7-0.3,0.7-0.7s-0.3-0.7-0.7-0.7S0.4,51.4,0.4,51.8z"></path>
	<path class="st12" d="M62.8,74.6c0.1,0.1,0.2,0.2,0.3,0.3c0.1,0.1,0.1,0.2,0.2,0.3c0,0.1,0.1,0.3,0.1,0.4c0,0.2,0,0.4-0.1,0.5   c-0.1,0.2-0.2,0.3-0.4,0.4c0.2,0.1,0.3,0.2,0.4,0.3c0.1,0.1,0.1,0.3,0.1,0.6v0.3c0,0.2,0,0.3,0,0.4s0.1,0.2,0.1,0.2v0.1h-0.8   c0-0.1,0-0.2,0-0.2c0-0.1,0-0.2,0-0.3v-0.4c0-0.3,0-0.4-0.1-0.5s-0.2-0.1-0.4-0.1h-0.7v1.5h-0.7v-3.9h1.7   C62.5,74.5,62.7,74.6,62.8,74.6z M61.3,75.2v1.1h0.8c0.2,0,0.3,0,0.4-0.1c0.1-0.1,0.2-0.2,0.2-0.4c0-0.2-0.1-0.4-0.2-0.5   c-0.1,0-0.2-0.1-0.3-0.1H61.3z"></path>
	<path class="st13" d="M65,76.5c0,1.7-1.4,3.1-3.1,3.1c-1.7,0-3.1-1.4-3.1-3.1s1.4-3.1,3.1-3.1C63.6,73.3,65,74.7,65,76.5z"></path>
	<path class="st3" d="M5.1,43.2c0,0-1.1-0.2-1.1-0.1c0,0.1,0.8,0.4,0.9,0.5C5.1,43.6,5.2,43.3,5.1,43.2z"></path>
	<g>
		<path class="st14" d="M39.7,36.7c0,0.2,0,0.3-0.2,0.3c-0.1,0-0.2-0.2-0.3-0.3c-0.4-0.9-0.9-1.3-1.7-1.3c-1.6,0-2.4,1.6-2.4,3    c0,2,1.1,3,2.4,3c0.7,0,1.3-0.3,1.8-0.9c0.1-0.1,0.2-0.2,0.3-0.2s0.2,0.1,0.2,0.2c0,0.3-0.6,0.8-0.8,1c-0.5,0.3-0.9,0.5-1.6,0.5    c-1.7,0-3.1-1.4-3.1-3.2s1-3.8,3.3-3.8c0.7,0,1.1,0.1,1.6,0.4c0.5,0.3,0.6,0.5,0.6,0.7L39.7,36.7L39.7,36.7z"></path>
		<path class="st14" d="M41.8,36.1c0-0.5,0-0.6-0.2-0.6c-0.2-0.1-0.3-0.1-0.3-0.3s0.2-0.2,0.3-0.2h2.6c1.1,0,1.9,0.5,1.9,1.6    c0,0.9-0.7,1.4-1.4,1.8c0.6,0.7,1,1.6,1.3,2.4c0.1,0.3,0.2,0.4,0.4,0.5c0.1,0,0.2,0.1,0.2,0.2c0,0.2-0.2,0.2-0.3,0.2H45    c-0.1,0-0.3,0-0.3-0.2c0-0.3,0.4-0.2,0.4-0.5c0-0.5-0.9-2-1.3-2.4c-0.4,0.1-0.9,0.2-1.4,0.3v2.2c0,0.1,0.2,0.2,0.3,0.2    c0.1,0.1,0.2,0.1,0.2,0.2c0,0.2-0.2,0.2-0.3,0.2h-1.1c-0.1,0-0.3,0-0.3-0.2s0.1-0.2,0.3-0.3s0.2-0.1,0.2-0.5L41.8,36.1L41.8,36.1z     M42.6,38.4c0.9-0.1,2.7-0.3,2.7-1.7c0-1-1-1.2-1.8-1.2c-0.9,0-0.9,0.2-0.9,0.7V38.4z"></path>
		<path class="st14" d="M48.6,35.9c0-0.2,0-0.4-0.3-0.5c-0.1,0-0.2-0.1-0.2-0.2c0-0.2,0.2-0.2,0.3-0.2h3.7c0.3,0,0.3,0.3,0.4,0.4    c0,0.2,0.1,0.4,0.1,0.6c0,0.1-0.1,0.1-0.1,0.1c-0.1,0-0.1,0-0.1-0.1c-0.3-0.4-0.6-0.6-1.5-0.6H50c-0.5,0-0.7,0.2-0.6,0.7v1.7h1.5    c0.4,0,0.5,0,0.7-0.2c0.1-0.1,0.1-0.1,0.2-0.1c0.2,0,0.2,0.2,0.2,0.5c0,0.4,0,0.6-0.2,0.6c-0.1,0-0.1-0.1-0.2-0.1    c-0.2-0.2-0.3-0.2-0.6-0.2h-1.5v2.1c0,0.6,0.1,0.8,0.5,0.8h0.6c1.3,0,1.6-0.2,1.9-0.5c0.1-0.1,0.2-0.2,0.3-0.2s0.1,0.1,0.1,0.2    c0,0.2-0.1,0.4-0.1,0.8c0,0.2-0.1,0.3-0.4,0.3h-3.9c-0.1,0-0.3,0-0.3-0.2c0-0.1,0.1-0.2,0.2-0.2c0.3-0.1,0.3-0.2,0.3-0.5v-5H48.6z    "></path>
		<path class="st14" d="M54.7,35.9c0-0.2,0-0.4-0.3-0.5c-0.1,0-0.2-0.1-0.2-0.2c0-0.2,0.2-0.2,0.3-0.2h3.7c0.3,0,0.3,0.3,0.4,0.4    c0,0.2,0.1,0.4,0.1,0.6c0,0.1-0.1,0.1-0.1,0.1c-0.1,0-0.1,0-0.1-0.1c-0.3-0.4-0.6-0.6-1.5-0.6h-0.8c-0.5,0-0.7,0.2-0.6,0.7v1.7H57    c0.4,0,0.5,0,0.7-0.2c0.1-0.1,0.1-0.1,0.2-0.1c0.2,0,0.2,0.2,0.2,0.5c0,0.4,0,0.6-0.2,0.6c-0.1,0-0.1-0.1-0.2-0.1    c-0.2-0.2-0.3-0.2-0.6-0.2h-1.5v2.1c0,0.6,0.1,0.8,0.5,0.8h0.6c1.3,0,1.6-0.2,1.9-0.5c0.1-0.1,0.2-0.2,0.3-0.2s0.1,0.1,0.1,0.2    c0,0.2-0.1,0.4-0.1,0.8c0,0.2-0.1,0.3-0.4,0.3h-3.9c-0.1,0-0.3,0-0.3-0.2c0-0.1,0.1-0.2,0.2-0.2c0.3-0.1,0.3-0.2,0.3-0.5    L54.7,35.9L54.7,35.9z"></path>
		<path class="st14" d="M60.9,35.7c0-0.1-0.2-0.2-0.3-0.2s-0.2-0.1-0.2-0.2c0-0.2,0.2-0.2,0.3-0.2h1.2c0.1,0,0.3,0,0.3,0.2    s-0.1,0.2-0.2,0.2c-0.3,0.1-0.3,0.2-0.3,0.5v2.7c0.8-0.8,1.5-1.5,2.2-2.3c0.2-0.2,0.4-0.4,0.4-0.6c0-0.3-0.4-0.2-0.4-0.5    c0-0.2,0.2-0.2,0.3-0.2h1.2c0.1,0,0.3,0,0.3,0.2c0,0.1-0.1,0.2-0.2,0.2c-0.2,0.1-0.3,0.2-0.7,0.7c-0.4,0.5-0.9,1-1.4,1.6    c0.9,0.9,1.7,2.2,2,3c0.1,0.3,0.2,0.5,0.5,0.6c0.1,0.1,0.2,0.1,0.2,0.3s-0.2,0.2-0.3,0.2h-1.1c-0.1,0-0.4,0-0.4-0.2    s0.3-0.2,0.3-0.4c0-0.5-1.4-2.4-1.8-2.8l-1.1,1.1v1.7c0,0.1,0.2,0.2,0.3,0.2s0.2,0.1,0.2,0.2c0,0.2-0.2,0.2-0.3,0.2h-1.2    c-0.1,0-0.3,0-0.3-0.2c0-0.1,0.1-0.2,0.2-0.2c0.3-0.1,0.3-0.2,0.3-0.5C60.9,41,60.9,35.7,60.9,35.7z"></path>
	</g>
	<g>
		<path class="st3" d="M39.7,36.6c0,0.2,0,0.3-0.2,0.3c-0.1,0-0.2-0.2-0.3-0.3c-0.4-0.9-0.9-1.3-1.7-1.3c-1.6,0-2.4,1.6-2.4,3    c0,2,1.1,3,2.4,3c0.7,0,1.3-0.3,1.8-0.9c0.1-0.1,0.2-0.2,0.3-0.2s0.2,0.1,0.2,0.2c0,0.3-0.6,0.8-0.8,1c-0.5,0.3-0.9,0.5-1.6,0.5    c-1.7,0-3.1-1.4-3.1-3.2s1-3.8,3.3-3.8c0.7,0,1.1,0.1,1.6,0.4c0.5,0.3,0.6,0.5,0.6,0.7L39.7,36.6L39.7,36.6z"></path>
		<path class="st3" d="M41.8,36c0-0.5,0-0.6-0.2-0.6c-0.2-0.1-0.3-0.1-0.3-0.3s0.2-0.2,0.3-0.2h2.6c1.1,0,1.9,0.5,1.9,1.6    c0,0.9-0.7,1.4-1.4,1.8c0.6,0.7,1,1.6,1.3,2.4c0.1,0.3,0.2,0.4,0.4,0.5c0.1,0,0.2,0.1,0.2,0.2c0,0.2-0.2,0.2-0.3,0.2H45    c-0.1,0-0.3,0-0.3-0.2c0-0.3,0.4-0.2,0.4-0.5c0-0.5-0.9-2-1.3-2.4c-0.4,0.1-0.9,0.2-1.4,0.3V41c0,0.1,0.2,0.2,0.3,0.2    c0.1,0.1,0.2,0.1,0.2,0.2c0,0.2-0.2,0.2-0.3,0.2h-1.1c-0.1,0-0.3,0-0.3-0.2s0.1-0.2,0.3-0.3s0.2-0.1,0.2-0.5L41.8,36L41.8,36z     M42.6,38.3c0.9-0.1,2.7-0.3,2.7-1.7c0-1-1-1.2-1.8-1.2c-0.9,0-0.9,0.2-0.9,0.7V38.3z"></path>
		<path class="st3" d="M48.6,35.9c0-0.2,0-0.4-0.3-0.5c-0.1,0-0.2-0.1-0.2-0.2c0-0.2,0.2-0.2,0.3-0.2h3.7c0.3,0,0.3,0.3,0.4,0.4    c0,0.2,0.1,0.4,0.1,0.6c0,0.1-0.1,0.1-0.1,0.1c-0.1,0-0.1,0-0.1-0.1c-0.3-0.4-0.6-0.6-1.5-0.6H50c-0.5,0-0.7,0.2-0.6,0.7v1.7h1.5    c0.4,0,0.5,0,0.7-0.2c0.1-0.1,0.1-0.1,0.2-0.1c0.2,0,0.2,0.2,0.2,0.5c0,0.4,0,0.6-0.2,0.6c-0.1,0-0.1-0.1-0.2-0.1    c-0.2-0.2-0.3-0.2-0.6-0.2h-1.5v2.1c0,0.6,0.1,0.8,0.5,0.8h0.6c1.3,0,1.6-0.2,1.9-0.5c0.1-0.1,0.2-0.2,0.3-0.2s0.1,0.1,0.1,0.2    c0,0.2-0.1,0.4-0.1,0.8c0,0.2-0.1,0.3-0.4,0.3h-3.9c-0.1,0-0.3,0-0.3-0.2c0-0.1,0.1-0.2,0.2-0.2c0.3-0.1,0.3-0.2,0.3-0.5v-5H48.6z    "></path>
		<path class="st3" d="M54.7,35.9c0-0.2,0-0.4-0.3-0.5c-0.1,0-0.2-0.1-0.2-0.2c0-0.2,0.2-0.2,0.3-0.2h3.7c0.3,0,0.3,0.3,0.4,0.4    c0,0.2,0.1,0.4,0.1,0.6c0,0.1-0.1,0.1-0.1,0.1c-0.1,0-0.1,0-0.1-0.1c-0.3-0.4-0.6-0.6-1.5-0.6h-0.8c-0.5,0-0.7,0.2-0.6,0.7v1.7H57    c0.4,0,0.5,0,0.7-0.2c0.1-0.1,0.1-0.1,0.2-0.1c0.2,0,0.2,0.2,0.2,0.5c0,0.4,0,0.6-0.2,0.6c-0.1,0-0.1-0.1-0.2-0.1    c-0.2-0.2-0.3-0.2-0.6-0.2h-1.5v2.1c0,0.6,0.1,0.8,0.5,0.8h0.6c1.3,0,1.6-0.2,1.9-0.5c0.1-0.1,0.2-0.2,0.3-0.2s0.1,0.1,0.1,0.2    c0,0.2-0.1,0.4-0.1,0.8c0,0.2-0.1,0.3-0.4,0.3h-3.9c-0.1,0-0.3,0-0.3-0.2c0-0.1,0.1-0.2,0.2-0.2c0.3-0.1,0.3-0.2,0.3-0.5    L54.7,35.9L54.7,35.9z"></path>
		<path class="st3" d="M60.9,35.6c0-0.1-0.2-0.2-0.3-0.2s-0.2-0.1-0.2-0.2c0-0.2,0.2-0.2,0.3-0.2h1.2c0.1,0,0.3,0,0.3,0.2    s-0.1,0.2-0.2,0.2c-0.3,0.1-0.3,0.2-0.3,0.5v2.7c0.8-0.8,1.5-1.5,2.2-2.3c0.2-0.2,0.4-0.4,0.4-0.6c0-0.3-0.4-0.2-0.4-0.5    c0-0.2,0.2-0.2,0.3-0.2h1.2c0.1,0,0.3,0,0.3,0.2c0,0.1-0.1,0.2-0.2,0.2c-0.2,0.1-0.3,0.2-0.7,0.7c-0.4,0.5-0.9,1-1.4,1.6    c0.9,0.9,1.7,2.2,2,3c0.1,0.3,0.2,0.5,0.5,0.6c0.1,0.1,0.2,0.1,0.2,0.3s-0.2,0.2-0.3,0.2h-1.1c-0.1,0-0.4,0-0.4-0.2    s0.3-0.2,0.3-0.4c0-0.5-1.4-2.4-1.8-2.8l-1.1,1.1V41c0,0.1,0.2,0.2,0.3,0.2s0.2,0.1,0.2,0.2c0,0.2-0.2,0.2-0.3,0.2h-1.2    c-0.1,0-0.3,0-0.3-0.2c0-0.1,0.1-0.2,0.2-0.2c0.3-0.1,0.3-0.2,0.3-0.5C60.9,40.7,60.9,35.6,60.9,35.6z"></path>
	</g>
	<g>
		<path class="st15" d="M31.2,23.7c-0.2-0.2-0.2-0.2-0.4-0.1c-0.1,0.1-0.2,0.1-0.3,0c-0.1-0.1,0-0.2,0-0.3l1.2-1.4    c1-1.1,1.9-1.1,2.4-0.6c1.2,1.1,0.6,2.5-0.5,3.7l1,0.9c0.2,0.2,0.3,0.2,0.4,0.2c0.2-0.1,0.3-0.2,0.4-0.1c0.1,0.1,0,0.2,0,0.3    l-0.7,0.8c-0.1,0.1-0.2,0.2-0.3,0.1s-0.1-0.2,0-0.3c0.1-0.2,0.1-0.3-0.2-0.5L31.2,23.7z M33.5,24.8c0.6-0.6,1.3-2,0.4-2.8    c-0.5-0.5-1.2-0.4-1.9,0.3c-0.5,0.6-0.4,0.7-0.1,1L33.5,24.8z"></path>
		<path class="st15" d="M36.9,21.1c-0.8-1.4-0.7-3.1,0.7-3.9c1.2-0.7,2.9-0.3,3.8,1.3c0.9,1.5,0.6,3.1-0.8,3.9    C39.4,23,37.8,22.8,36.9,21.1z M40.7,18.9c-0.8-1.3-2-1.9-3-1.3c-1.1,0.6-0.9,2.1-0.3,3.2c0.8,1.3,2,1.8,2.9,1.3    C41.3,21.4,41.5,20.1,40.7,18.9z"></path>
		<path class="st15" d="M44.6,18.3c0,0.3-0.1,1-0.1,1.3c0.1,0.5,0.5,0.3,0.5,0.5s-0.2,0.2-0.4,0.3L44,20.5c-0.2,0-0.3,0.1-0.3-0.1    c0-0.1,0-0.1,0.1-0.2C43.9,20,44,20,44,19.8c0.2-1.9,0.5-3.8,0.8-5c0.1-0.2,0.1-0.6,0.2-0.6c0.1,0,0.4,0.4,0.5,0.4    c0.8,1,1.7,2.4,2.8,4.3c0.1,0.1,0.2,0.2,0.3,0.2s0.1,0.1,0.2,0.1c0,0.2-0.1,0.2-0.2,0.2l-0.9,0.2c-0.1,0-0.3,0-0.3-0.1    c0-0.2,0.3-0.2,0.3-0.5c0-0.2-0.5-1-0.7-1.3L44.6,18.3z M46.7,17.5c-0.5-0.8-1.1-1.7-1.6-2.3c-0.2,0.9-0.4,1.6-0.5,2.7L46.7,17.5z    "></path>
		<path class="st15" d="M50.7,14.7c0-0.4,0-0.5-0.1-0.5c-0.2-0.1-0.3-0.1-0.3-0.2c0-0.2,0.2-0.2,0.3-0.2l2.2,0.2    c0.9,0.1,1.6,0.6,1.5,1.5c-0.1,0.8-0.7,1.2-1.3,1.4c0.4,0.7,0.7,1.4,0.9,2.2c0.1,0.3,0.1,0.4,0.3,0.5c0.1,0,0.2,0.1,0.2,0.2    c0,0.2-0.2,0.1-0.3,0.1L53,19.8c-0.1,0-0.3,0-0.3-0.2s0.4-0.1,0.4-0.4c0-0.4-0.6-1.8-0.9-2.2c-0.4,0.1-0.8,0.1-1.2,0.1l0,2    c0,0.1,0.1,0.1,0.2,0.2c0.1,0.1,0.2,0.1,0.2,0.2c0,0.2-0.2,0.2-0.3,0.1l-1-0.1c-0.1,0-0.3,0-0.2-0.2c0-0.1,0.1-0.1,0.3-0.2    c0.1,0,0.2-0.1,0.2-0.4L50.7,14.7z M51.2,16.7c0.8-0.1,2.3-0.1,2.4-1.2c0.1-0.9-0.8-1.1-1.4-1.2c-0.7-0.1-0.8,0.1-0.8,0.5    L51.2,16.7z"></path>
		<path class="st15" d="M61.5,18.1c-0.1,0.1-0.1,0.2-0.3,0.2c-0.1,0-0.1-0.3-0.1-0.4c0-0.8-0.3-1.3-0.9-1.6    c-1.3-0.5-2.4,0.4-2.9,1.6c-0.7,1.6-0.1,2.7,0.9,3.2c0.6,0.2,1.1,0.2,1.7-0.1c0.1,0,0.2-0.1,0.3-0.1s0.1,0.1,0.1,0.2    c-0.1,0.2-0.8,0.4-1,0.5c-0.5,0.1-0.9,0.1-1.4-0.2c-1.3-0.6-2-2.1-1.4-3.6c0.6-1.4,2-2.6,3.9-1.9c0.6,0.2,0.8,0.5,1.1,0.9    s0.3,0.6,0.2,0.8L61.5,18.1z"></path>
		<path class="st15" d="M64.6,19c0.1-0.1,0-0.2-0.1-0.3c0-0.1-0.1-0.2,0-0.3c0.1-0.1,0.2,0,0.3,0l0.7,0.7c0.1,0.1,0.2,0.2,0.1,0.3    c-0.1,0.1-0.2,0.1-0.3,0c-0.3-0.1-0.3-0.1-0.5,0.2l-1.1,1.2l2.4,2.1l1.2-1.4c0.1-0.2-0.3-0.3-0.1-0.6c0.1-0.1,0.2,0,0.3,0l0.8,0.7    c0.1,0.1,0.2,0.2,0.1,0.3c-0.1,0.1-0.2,0.1-0.3,0c-0.1,0-0.1,0.1-0.3,0.3L65,25.4c-0.2,0.2,0.2,0.5,0,0.6c-0.1,0.1-0.2,0-0.3,0    l-0.8-0.7c-0.1-0.1-0.2-0.2-0.1-0.3c0.1-0.1,0.2-0.1,0.3,0c0.2,0.1,0.3,0.1,0.5-0.2l1.4-1.6l-2.4-2.1L62,23    c-0.1,0.1,0,0.2,0.1,0.3c0.1,0.1,0.1,0.2,0,0.3c-0.1,0.1-0.2,0-0.3,0L61,22.8c-0.1-0.1-0.2-0.2-0.1-0.3c0.1-0.1,0.2-0.1,0.3,0    c0.3,0.1,0.3,0,0.5-0.2L64.6,19z"></path>
	</g>
	<g>
		<path class="st3" d="M31.2,23.7c-0.2-0.2-0.2-0.2-0.4-0.1c-0.1,0.1-0.2,0.1-0.3,0c-0.1-0.1,0-0.2,0-0.3l1.2-1.4    c1-1.1,1.9-1.1,2.4-0.6c1.2,1.1,0.6,2.5-0.5,3.7l1,0.9c0.2,0.2,0.3,0.2,0.4,0.2c0.2-0.1,0.3-0.2,0.4-0.1c0.1,0.1,0,0.2,0,0.3    l-0.7,0.8c-0.1,0.1-0.2,0.2-0.3,0.1s-0.1-0.2,0-0.3c0.1-0.2,0.1-0.3-0.2-0.5L31.2,23.7z M33.5,24.8c0.6-0.6,1.3-2,0.4-2.8    c-0.5-0.5-1.2-0.4-1.9,0.3c-0.5,0.6-0.4,0.7-0.1,1L33.5,24.8z"></path>
		<path class="st3" d="M36.9,21.1c-0.8-1.4-0.7-3.1,0.7-3.9c1.2-0.7,2.9-0.3,3.8,1.3c0.9,1.5,0.6,3.1-0.8,3.9    C39.4,23,37.8,22.8,36.9,21.1z M40.7,18.9c-0.8-1.3-2-1.9-3-1.3c-1.1,0.6-0.9,2.1-0.3,3.2c0.8,1.3,2,1.8,2.9,1.3    C41.3,21.4,41.5,20.1,40.7,18.9z"></path>
		<path class="st3" d="M44.6,18.3c0,0.3-0.1,1-0.1,1.3c0.1,0.5,0.5,0.3,0.5,0.5s-0.2,0.2-0.4,0.3L44,20.5c-0.2,0-0.3,0.1-0.3-0.1    c0-0.1,0-0.1,0.1-0.2C43.9,20,44,20,44,19.8c0.2-1.9,0.5-3.8,0.8-5c0.1-0.2,0.1-0.6,0.2-0.6c0.1,0,0.4,0.4,0.5,0.4    c0.8,1,1.7,2.4,2.8,4.3c0.1,0.1,0.2,0.2,0.3,0.2s0.1,0.1,0.2,0.1c0,0.2-0.1,0.2-0.2,0.2l-0.9,0.2c-0.1,0-0.3,0-0.3-0.1    c0-0.2,0.3-0.2,0.3-0.5c0-0.2-0.5-1-0.7-1.3L44.6,18.3z M46.7,17.5c-0.5-0.8-1.1-1.7-1.6-2.3c-0.2,0.9-0.4,1.6-0.5,2.7L46.7,17.5z    "></path>
		<path class="st3" d="M50.7,14.7c0-0.4,0-0.5-0.1-0.5c-0.2-0.1-0.3-0.1-0.3-0.2c0-0.2,0.2-0.2,0.3-0.2l2.2,0.2    c0.9,0.1,1.6,0.6,1.5,1.5c-0.1,0.8-0.7,1.2-1.3,1.4c0.4,0.7,0.7,1.4,0.9,2.2c0.1,0.3,0.1,0.4,0.3,0.5c0.1,0,0.2,0.1,0.2,0.2    c0,0.2-0.2,0.1-0.3,0.1L53,19.8c-0.1,0-0.3,0-0.3-0.2s0.4-0.1,0.4-0.4c0-0.4-0.6-1.8-0.9-2.2c-0.4,0.1-0.8,0.1-1.2,0.1l0,2    c0,0.1,0.1,0.1,0.2,0.2c0.1,0.1,0.2,0.1,0.2,0.2c0,0.2-0.2,0.2-0.3,0.1l-1-0.1c-0.1,0-0.3,0-0.2-0.2c0-0.1,0.1-0.1,0.3-0.2    c0.1,0,0.2-0.1,0.2-0.4L50.7,14.7z M51.2,16.7c0.8-0.1,2.3-0.1,2.4-1.2c0.1-0.9-0.8-1.1-1.4-1.2c-0.7-0.1-0.8,0.1-0.8,0.5    L51.2,16.7z"></path>
		<path class="st3" d="M61.5,18.1c-0.1,0.1-0.1,0.2-0.3,0.2c-0.1,0-0.1-0.3-0.1-0.4c0-0.8-0.3-1.3-0.9-1.6c-1.3-0.5-2.4,0.4-2.9,1.6    c-0.7,1.6-0.1,2.7,0.9,3.2c0.6,0.2,1.1,0.2,1.7-0.1c0.1,0,0.2-0.1,0.3-0.1s0.1,0.1,0.1,0.2c-0.1,0.2-0.8,0.4-1,0.5    c-0.5,0.1-0.9,0.1-1.4-0.2c-1.3-0.6-2-2.1-1.4-3.6c0.6-1.4,2-2.6,3.9-1.9c0.6,0.2,0.8,0.5,1.1,0.9s0.3,0.6,0.2,0.8L61.5,18.1z"></path>
		<path class="st3" d="M64.6,19c0.1-0.1,0-0.2-0.1-0.3c0-0.1-0.1-0.2,0-0.3c0.1-0.1,0.2,0,0.3,0l0.7,0.7c0.1,0.1,0.2,0.2,0.1,0.3    c-0.1,0.1-0.2,0.1-0.3,0c-0.3-0.1-0.3-0.1-0.5,0.2l-1.1,1.2l2.4,2.1l1.2-1.4c0.1-0.2-0.3-0.3-0.1-0.6c0.1-0.1,0.2,0,0.3,0l0.8,0.7    c0.1,0.1,0.2,0.2,0.1,0.3c-0.1,0.1-0.2,0.1-0.3,0c-0.1,0-0.1,0.1-0.3,0.3L65,25.4c-0.2,0.2,0.2,0.5,0,0.6c-0.1,0.1-0.2,0-0.3,0    l-0.8-0.7c-0.1-0.1-0.2-0.2-0.1-0.3c0.1-0.1,0.2-0.1,0.3,0c0.2,0.1,0.3,0.1,0.5-0.2l1.4-1.6l-2.4-2.1L62,23    c-0.1,0.1,0,0.2,0.1,0.3c0.1,0.1,0.1,0.2,0,0.3c-0.1,0.1-0.2,0-0.3,0L61,22.8c-0.1-0.1-0.2-0.2-0.1-0.3c0.1-0.1,0.2-0.1,0.3,0    c0.3,0.1,0.3,0,0.5-0.2L64.6,19z"></path>
	</g>
	<g>
		<path class="st15" d="M34.1,50.3c0.1-0.1,0-0.2,0-0.3s-0.1-0.2,0-0.3s0.2,0,0.3,0.1l0.6,0.8c0.1,0.1,0.1,0.2,0,0.3s-0.2,0-0.3,0    c-0.2-0.2-0.3-0.1-0.5,0.1l-3.5,2.6c-0.1,0.1,0,0.2,0,0.3s0.1,0.2,0,0.3s-0.2,0-0.3-0.1l-0.6-0.8c-0.1-0.1-0.1-0.2,0-0.3    s0.2,0,0.3,0c0.2,0.2,0.3,0.1,0.5-0.1L34.1,50.3z"></path>
		<path class="st15" d="M36.3,53.7c0.2-0.2,0.3-0.4,0.1-0.7c-0.1-0.1-0.2-0.2-0.1-0.3c0.1-0.1,0.2,0,0.3,0l0.6,0.5    c0.1,0.1,0.2,0.1,0.1,0.3c0.1,1.7,0,3.3-0.3,5l2-2.6c0.3-0.4,0.3-0.4,0.2-0.6c-0.1-0.1-0.2-0.2-0.1-0.3c0.1-0.1,0.2-0.1,0.3,0    l0.7,0.5c0.1,0.1,0.1,0.2,0.1,0.3c-0.1,0.1-0.2,0.1-0.3,0c-0.2-0.1-0.2,0-0.5,0.3l-2.8,3.6c-0.1,0.1-0.2,0.4-0.4,0.2    c-0.2-0.1,0-0.2,0.1-0.8c0.2-1.8,0.5-4,0.4-5.3l-2.6,3.4c-0.1,0.2-0.2,0.3-0.1,0.4c0.1,0.1,0.2,0.2,0.1,0.3    c-0.1,0.1-0.2,0.1-0.3,0L33,57.3c-0.1-0.1-0.1-0.2,0-0.3s0.2-0.1,0.3,0c0.2,0.1,0.3,0,0.5-0.3L36.3,53.7z"></path>
		<path class="st15" d="M42.2,57.1c0-0.1-0.1-0.2-0.2-0.2c-0.1-0.1-0.2-0.1-0.1-0.2c0.1-0.2,0.2-0.1,0.3-0.1l1.4,0.5    c0.8,0.2,1.4,0.5,1.9,1.2c0.5,0.8,0.5,1.6,0.2,2.5c-0.3,0.8-1.3,2.6-3.5,1.9L40.4,62c-0.1,0-0.2-0.1-0.2-0.3    c0-0.1,0.1-0.1,0.2-0.1c0.3,0,0.3-0.1,0.4-0.4L42.2,57.1z M41.6,60.9c-0.3,0.8-0.3,0.9,0.5,1.2c1.3,0.4,2.5-0.1,2.9-1.6    c0.5-1.5,0.1-2.6-1.5-3.1c-0.6-0.2-0.7-0.1-0.9,0.6L41.6,60.9z"></path>
		<path class="st15" d="M49.2,58.7c0-0.1-0.1-0.1-0.2-0.2c-0.1,0-0.2-0.1-0.2-0.2c0-0.2,0.2-0.2,0.3-0.2h1c0.1,0,0.3,0,0.2,0.2    c0,0.1-0.1,0.2-0.2,0.2c-0.3,0.1-0.3,0.1-0.3,0.5l-0.2,4.4c0,0.1,0.1,0.1,0.2,0.2c0.1,0,0.2,0.1,0.2,0.2c0,0.2-0.1,0.2-0.3,0.2h-1    c-0.1,0-0.3,0-0.3-0.2c0-0.1,0.1-0.2,0.2-0.2c0.3-0.1,0.3-0.1,0.3-0.5L49.2,58.7z"></path>
		<path class="st15" d="M54.4,61.6c0,0.3-0.1,1,0,1.3c0.1,0.5,0.5,0.3,0.5,0.5s-0.2,0.2-0.4,0.3l-0.6,0.1c-0.2,0-0.3,0.1-0.3-0.1    c0-0.1,0-0.1,0.1-0.2c0.1-0.1,0.1-0.2,0.2-0.3c0.1-1.9,0.4-3.8,0.7-5c0-0.2,0.1-0.6,0.2-0.6c0.1,0,0.4,0.3,0.5,0.4    c0.9,1,1.8,2.3,2.9,4.2c0.1,0.1,0.2,0.2,0.3,0.2s0.1,0,0.2,0.1c0,0.2-0.1,0.2-0.2,0.2L57.4,63c-0.1,0-0.3,0-0.3-0.1    c-0.1-0.2,0.3-0.2,0.3-0.5c0-0.2-0.5-1-0.7-1.3L54.4,61.6z M56.4,60.7c-0.5-0.8-1.1-1.7-1.6-2.2c-0.2,0.9-0.3,1.7-0.4,2.7    L56.4,60.7z"></path>
		<path class="st15" d="M59.8,56.9c-0.2-0.3-0.3-0.5-0.6-0.4c-0.1,0-0.2,0.1-0.3,0s0-0.2,0.1-0.2l0.6-0.4c0.1-0.1,0.2-0.1,0.3,0    c1.6,0.5,3.1,1.1,4.6,1.9L62.7,55c-0.2-0.4-0.3-0.4-0.5-0.4c-0.1,0-0.3,0.1-0.3,0c-0.1-0.1,0-0.2,0.1-0.3l0.7-0.5    c0.1-0.1,0.2-0.1,0.3,0s0,0.2-0.1,0.3c-0.1,0.2-0.1,0.2,0.1,0.5l2.5,3.8c0.1,0.1,0.3,0.3,0.1,0.4c-0.2,0.1-0.2-0.1-0.8-0.4    c-1.7-0.8-3.6-1.8-4.8-2.1l2.3,3.6c0.1,0.2,0.2,0.3,0.4,0.2c0.1,0,0.2-0.1,0.3,0.1c0.1,0.1,0,0.2-0.1,0.3L62.1,61    c-0.1,0.1-0.2,0.1-0.3-0.1c-0.1-0.1,0-0.2,0.1-0.3s0.1-0.2-0.1-0.6L59.8,56.9z"></path>
		<path class="st15" d="M69.8,54.3c0.4-0.5,0.6-1.3-0.1-1.9c-1.3-1-2.5,2.2-4.1,0.8c-0.7-0.5-0.9-1.5-0.1-2.5    c0.3-0.3,0.7-0.7,1.1-0.8c0.1,0,0.2,0,0.3,0c0.1,0,0.3,0.2,0.4,0.3s0.2,0.2,0.1,0.3c-0.1,0.2-1-0.2-1.7,0.7    c-0.3,0.4-0.4,1,0.1,1.4c1.4,1.1,2.3-2.2,4.3-0.7c0.5,0.4,1,1.6,0.1,2.7c-1,1.2-2.1,0.8-2.3,0.7c-0.1-0.1-0.2-0.2-0.1-0.3    s0.2-0.1,0.3-0.1C68.8,55,69.4,54.8,69.8,54.3z"></path>
	</g>
	<g>
		<path class="st3" d="M34.1,50.3c0.1-0.1,0-0.2,0-0.3s-0.1-0.2,0-0.3s0.2,0,0.3,0.1l0.6,0.8c0.1,0.1,0.1,0.2,0,0.3s-0.2,0-0.3,0    c-0.2-0.2-0.3-0.1-0.5,0.1l-3.5,2.6c-0.1,0.1,0,0.2,0,0.3s0.1,0.2,0,0.3s-0.2,0-0.3-0.1l-0.6-0.8c-0.1-0.1-0.1-0.2,0-0.3    s0.2,0,0.3,0c0.2,0.2,0.3,0.1,0.5-0.1L34.1,50.3z"></path>
		<path class="st3" d="M36.3,53.7c0.2-0.2,0.3-0.4,0.1-0.7c-0.1-0.1-0.2-0.2-0.1-0.3c0.1-0.1,0.2,0,0.3,0l0.6,0.5    c0.1,0.1,0.2,0.1,0.1,0.3c0.1,1.7,0,3.3-0.3,5l2-2.6c0.3-0.4,0.3-0.4,0.2-0.6c-0.1-0.1-0.2-0.2-0.1-0.3c0.1-0.1,0.2-0.1,0.3,0    l0.7,0.5c0.1,0.1,0.1,0.2,0.1,0.3c-0.1,0.1-0.2,0.1-0.3,0c-0.2-0.1-0.2,0-0.5,0.3l-2.8,3.6c-0.1,0.1-0.2,0.4-0.4,0.2    c-0.2-0.1,0-0.2,0.1-0.8c0.2-1.8,0.5-4,0.4-5.3l-2.6,3.4c-0.1,0.2-0.2,0.3-0.1,0.4c0.1,0.1,0.2,0.2,0.1,0.3    c-0.1,0.1-0.2,0.1-0.3,0L33,57.3c-0.1-0.1-0.1-0.2,0-0.3s0.2-0.1,0.3,0c0.2,0.1,0.3,0,0.5-0.3L36.3,53.7z"></path>
		<path class="st3" d="M42.2,57.1c0-0.1-0.1-0.2-0.2-0.2c-0.1-0.1-0.2-0.1-0.1-0.2c0.1-0.2,0.2-0.1,0.3-0.1l1.4,0.5    c0.8,0.2,1.4,0.5,1.9,1.2c0.5,0.8,0.5,1.6,0.2,2.5c-0.3,0.8-1.3,2.6-3.5,1.9L40.4,62c-0.1,0-0.2-0.1-0.2-0.3    c0-0.1,0.1-0.1,0.2-0.1c0.3,0,0.3-0.1,0.4-0.4L42.2,57.1z M41.6,60.9c-0.3,0.8-0.3,0.9,0.5,1.2c1.3,0.4,2.5-0.1,2.9-1.6    c0.5-1.5,0.1-2.6-1.5-3.1c-0.6-0.2-0.7-0.1-0.9,0.6L41.6,60.9z"></path>
		<path class="st3" d="M49.2,58.7c0-0.1-0.1-0.1-0.2-0.2c-0.1,0-0.2-0.1-0.2-0.2c0-0.2,0.2-0.2,0.3-0.2h1c0.1,0,0.3,0,0.2,0.2    c0,0.1-0.1,0.2-0.2,0.2c-0.3,0.1-0.3,0.1-0.3,0.5l-0.2,4.4c0,0.1,0.1,0.1,0.2,0.2c0.1,0,0.2,0.1,0.2,0.2c0,0.2-0.1,0.2-0.3,0.2h-1    c-0.1,0-0.3,0-0.3-0.2c0-0.1,0.1-0.2,0.2-0.2c0.3-0.1,0.3-0.1,0.3-0.5L49.2,58.7z"></path>
		<path class="st3" d="M54.4,61.6c0,0.3-0.1,1,0,1.3c0.1,0.5,0.5,0.3,0.5,0.5s-0.2,0.2-0.4,0.3l-0.6,0.1c-0.2,0-0.3,0.1-0.3-0.1    c0-0.1,0-0.1,0.1-0.2c0.1-0.1,0.1-0.2,0.2-0.3c0.1-1.9,0.4-3.8,0.7-5c0-0.2,0.1-0.6,0.2-0.6c0.1,0,0.4,0.3,0.5,0.4    c0.9,1,1.8,2.3,2.9,4.2c0.1,0.1,0.2,0.2,0.3,0.2s0.1,0,0.2,0.1c0,0.2-0.1,0.2-0.2,0.2L57.4,63c-0.1,0-0.3,0-0.3-0.1    c-0.1-0.2,0.3-0.2,0.3-0.5c0-0.2-0.5-1-0.7-1.3L54.4,61.6z M56.4,60.7c-0.5-0.8-1.1-1.7-1.6-2.2c-0.2,0.9-0.3,1.7-0.4,2.7    L56.4,60.7z"></path>
		<path class="st3" d="M59.8,56.9c-0.2-0.3-0.3-0.5-0.6-0.4c-0.1,0-0.2,0.1-0.3,0s0-0.2,0.1-0.2l0.6-0.4c0.1-0.1,0.2-0.1,0.3,0    c1.6,0.5,3.1,1.1,4.6,1.9L62.7,55c-0.2-0.4-0.3-0.4-0.5-0.4c-0.1,0-0.3,0.1-0.3,0c-0.1-0.1,0-0.2,0.1-0.3l0.7-0.5    c0.1-0.1,0.2-0.1,0.3,0s0,0.2-0.1,0.3c-0.1,0.2-0.1,0.2,0.1,0.5l2.5,3.8c0.1,0.1,0.3,0.3,0.1,0.4c-0.2,0.1-0.2-0.1-0.8-0.4    c-1.7-0.8-3.6-1.8-4.8-2.1l2.3,3.6c0.1,0.2,0.2,0.3,0.4,0.2c0.1,0,0.2-0.1,0.3,0.1c0.1,0.1,0,0.2-0.1,0.3L62.1,61    c-0.1,0.1-0.2,0.1-0.3-0.1c-0.1-0.1,0-0.2,0.1-0.3s0.1-0.2-0.1-0.6L59.8,56.9z"></path>
		<path class="st3" d="M69.8,54.3c0.4-0.5,0.6-1.3-0.1-1.9c-1.3-1-2.5,2.2-4.1,0.8c-0.7-0.5-0.9-1.5-0.1-2.5    c0.3-0.3,0.7-0.7,1.1-0.8c0.1,0,0.2,0,0.3,0c0.1,0,0.3,0.2,0.4,0.3s0.2,0.2,0.1,0.3c-0.1,0.2-1-0.2-1.7,0.7    c-0.3,0.4-0.4,1,0.1,1.4c1.4,1.1,2.3-2.2,4.3-0.7c0.5,0.4,1,1.6,0.1,2.7c-1,1.2-2.1,0.8-2.3,0.7c-0.1-0.1-0.2-0.2-0.1-0.3    s0.2-0.1,0.3-0.1C68.8,55,69.4,54.8,69.8,54.3z"></path>
	</g>
</g>
</svg>
