<?xml version="1.0" encoding="utf-8"?>
<!-- Generator: Adobe Illustrator 28.1.0, SVG Export Plug-In . SVG Version: 6.00 Build 0)  -->

<svg version="1.1" id="Layer_1" xmlns="http://www.w3.org/2000/svg" xmlns:xlink="http://www.w3.org/1999/xlink" x="0px" y="0px"
	 viewBox="0 0 328 213" style="enable-background:new 0 0 328 213;" xml:space="preserve">
<style type="text/css">
	.st0{fill:#78AFBF;}
	.st1{fill:#003462;}
</style>
<g>
	<path class="st0" d="M68.5,114.1c-2.4,8.4-9.8,14.4-18.3,14.9V123l4.2,2.8c0.1,0,0.1,0,0.2,0c0,0,0-0.1,0-0.2l-4-4.9
		c1.1-0.3,4.1-1.6,5.9-3.9c1.6-2.1,1.9-4.3,1.9-5.4c0,0,0-0.1,0-0.1c0,0-0.1,0-0.1,0c-1.2,0.2-2.9,0.6-4.7,1.9
		c-1,0.8-1.8,1.6-2.3,2.4l2.6-6.5c0,0,0-0.1,0-0.1c0,0-0.1-0.1-0.1-0.1h-9.9c0,0-0.1,0-0.1,0.1c0,0,0,0.1,0,0.1l2.7,6.3
		c-0.5-0.7-1.2-1.5-2.1-2.1c-1.7-1.3-3.5-1.8-4.7-1.9c0,0-0.1,0-0.1,0c0,0,0,0.1,0,0.1c0,1.1,0.4,3.4,1.9,5.4
		c1.8,2.3,4.8,3.6,5.9,3.9l-3.2,5.3c0,0.1,0,0.1,0,0.2c0,0,0.1,0,0.2,0l3.9-3.3v6c-8.6-0.3-16.3-6.3-18.7-14.9
		c1.1-0.5,11.1-4.9,13.9-16c2.4-9.8-2.5-17.4-3.3-18.7c0.5-0.5,4-4,9.4-3.7c4.6,0.2,8,3.1,8.7,3.7c-0.8,1.2-5.7,9-3.2,18.8
		C57.8,109.3,67.5,113.6,68.5,114.1z"/>
	<g>
		<g>
			<path class="st1" d="M211,93.9c0,6.3-1.5,11-4.4,14c-3,3.1-7.8,4.6-14.4,4.6h-8.7v16.2h-10.7V76.3h19.7c5.9,0,10.5,1.4,13.7,4.1
				C209.4,83.2,211,87.7,211,93.9z M200,94c0-3-0.8-5.1-2.4-6.4c-1.6-1.3-4.6-2-8.8-2h-5.3v17.6h4.4c3.9,0,6.6-0.3,8.1-0.8
				c1.5-0.5,2.6-1.5,3.2-2.7S200,96.5,200,94z"/>
			<path class="st1" d="M258.6,120.1c-2.2,3.4-5,5.8-8.3,7.4c-3.3,1.6-7.3,2.4-12.1,2.4c-16.2,0-24.3-9.1-24.3-27.3
				c0-9.3,2.1-16.2,6.2-20.6c4.1-4.4,10-6.7,17.8-6.7c5.1,0,9.3,0.9,12.5,2.6c3.2,1.7,5.7,4,7.4,6.8l-8.3,6.4
				c-1.2-1.8-2.3-3.1-3.3-3.9c-1-0.8-2.2-1.4-3.4-1.8c-1.3-0.4-2.8-0.6-4.6-0.6c-4.3,0-7.6,1.4-9.8,4.1c-2.2,2.7-3.4,7.3-3.4,13.7
				c0,6,1.1,10.4,3.2,13.4c2.1,3,5.5,4.4,10.1,4.4c3.1,0,5.5-0.6,7.2-1.8c1.7-1.2,3.3-2.8,4.7-4.7L258.6,120.1z"/>
			<path class="st1" d="M289,128.7h-25.3v-8.2h7.3v-36h-7.3v-8.2H289v8.2h-7.3v36h7.3V128.7z"/>
		</g>
		<g>
			<path class="st1" d="M104.2,129.1V107H84.3v22.1H74v-52h10.3v20.2h19.9V77.1h10.3v52H104.2z"/>
		</g>
	</g>
	<path class="st0" d="M120.5,128.7V120c3.9-3.4,7.5-6.6,10.7-9.7c3.2-3.1,5.7-5.7,7.5-7.7c1.8-2,3.1-4,4.1-5.9
		c1-1.9,1.5-3.8,1.5-5.9c0-1.6-0.6-2.9-1.8-3.8c-1.2-0.9-2.8-1.4-4.9-1.4c-2.2,0-4.1,0.5-5.5,1.6c-1.4,1.1-2.6,2.3-3.5,3.8l-8.2-5.9
		c2-3.1,4.5-5.4,7.3-6.7c2.8-1.3,6.3-2,10.5-2c5.1,0,9.2,1.2,12.2,3.7c3,2.5,4.5,5.9,4.5,10.4c0,3.3-0.6,6.2-1.7,8.7
		c-1.2,2.5-2.8,4.9-5,7.2c-2.2,2.3-4.8,4.9-8,7.7s-5.2,4.5-5.9,5.1h22.3v9.6H120.5z"/>
</g>
</svg>
