<?xml version="1.0" encoding="utf-8"?>
<!-- Generator: Adobe Illustrator 28.1.0, SVG Export Plug-In . SVG Version: 6.00 Build 0)  -->
<svg version="1.1" id="Layer_1" xmlns="http://www.w3.org/2000/svg" xmlns:xlink="http://www.w3.org/1999/xlink" x="0px" y="0px"
	 viewBox="0 0 328 213" style="enable-background:new 0 0 328 213;" xml:space="preserve">
<style type="text/css">
	
		.st0{clip-path:url(#SVGID_00000152257837925202205150000000595425054408046266_);fill:url(#SVGID_00000127759972496601087000000014506210122667326374_);}
	.st1{fill:url(#SVGID_00000010270153646370630090000013460616790963985847_);}
	
		.st2{clip-path:url(#SVGID_00000143596298744419064040000003414621945715435703_);fill:url(#SVGID_00000092417649412115081660000000388347929310685620_);}
	.st3{fill:#577C8F;}
	.st4{fill:#0E4C8C;}
</style>
<g>
	<g>
		<defs>
			<polygon id="SVGID_1_" points="83.8,69.7 95.2,54.3 97.1,73.4 92.1,65.8 			"/>
		</defs>
		
			<linearGradient id="SVGID_00000106105866270085899070000011645191316350514621_" gradientUnits="userSpaceOnUse" x1="83.8448" y1="63.8693" x2="97.0507" y2="63.8693">
			<stop  offset="2.184394e-07" style="stop-color:#1DA1DC"/>
			<stop  offset="0.9935" style="stop-color:#1D2A57"/>
		</linearGradient>
		<use xlink:href="#SVGID_1_"  style="overflow:visible;fill:url(#SVGID_00000106105866270085899070000011645191316350514621_);"/>
		<clipPath id="SVGID_00000003069578871806032520000002447993711487929475_">
			<use xlink:href="#SVGID_1_"  style="overflow:visible;"/>
		</clipPath>
		
			<linearGradient id="SVGID_00000041987525641530434490000013025259165977394362_" gradientUnits="userSpaceOnUse" x1="83.8448" y1="63.8693" x2="97.0507" y2="63.8693">
			<stop  offset="2.184394e-07" style="stop-color:#1DA1DC"/>
			<stop  offset="0.9935" style="stop-color:#1D2A57"/>
		</linearGradient>
		
			<rect x="83.8" y="54.3" style="clip-path:url(#SVGID_00000003069578871806032520000002447993711487929475_);fill:url(#SVGID_00000041987525641530434490000013025259165977394362_);" width="13.2" height="19.1"/>
	</g>
	<g>
		<defs>
			<path id="SVGID_00000127733651930550048130000004439073861303820981_" d="M43.6,127L43.6,127L43.6,127L43.6,127l-4.8,2.6l0,0h0
				c4.4,2.6,9.6,4.1,15.1,4.1c16.5,0,29.9-13.4,29.9-29.9c0-1.5-0.1-3-0.3-4.5c-1.3,2.2-2.7,4.3-4.3,6.3
				c-1,13.1-11.9,23.5-25.3,23.5c-1.5,0-3-0.1-4.4-0.4c20.1-11.1,40.4-31.4,40.2-56.3C82.7,98.3,66.8,114.1,43.6,127"/>
		</defs>
		
			<linearGradient id="SVGID_00000028317163654776051470000015800790285981441693_" gradientUnits="userSpaceOnUse" x1="38.7448" y1="103.1097" x2="89.5626" y2="103.1097">
			<stop  offset="2.184394e-07" style="stop-color:#1DA1DC"/>
			<stop  offset="0.9935" style="stop-color:#1D2A57"/>
		</linearGradient>
		
			<use xlink:href="#SVGID_00000127733651930550048130000004439073861303820981_"  style="overflow:visible;fill:url(#SVGID_00000028317163654776051470000015800790285981441693_);"/>
		<clipPath id="SVGID_00000126287439258464988790000012177954676619822722_">
			<use xlink:href="#SVGID_00000127733651930550048130000004439073861303820981_"  style="overflow:visible;"/>
		</clipPath>
	</g>
	
		<linearGradient id="SVGID_00000120550599068189954590000008423361596885099655_" gradientUnits="userSpaceOnUse" x1="28.737" y1="109.2445" x2="76.7333" y2="109.2445">
		<stop  offset="2.184394e-07" style="stop-color:#1DA1DC"/>
		<stop  offset="0.9935" style="stop-color:#1D2A57"/>
	</linearGradient>
	<path style="fill:url(#SVGID_00000120550599068189954590000008423361596885099655_);" d="M30.8,121.5c19.3-3.3,36.1-9.7,46-24.5
		c-17,15.8-32.7,20.1-48,21.3C29.4,119.4,30,120.5,30.8,121.5"/>
	<g>
		<defs>
			<path id="SVGID_00000000910883787465540000000016448969546853551499_" d="M29.6,104.9c0-0.4,0-0.7,0-1.1
				c0-14,11.3-25.3,25.3-25.3c8.2,0,15.4,3.9,20.1,9.9c1.1-1.1,2.1-2.2,3.1-3.3C72.6,78.3,64.3,74,54.9,74C38.4,74,25,87.3,25,103.8
				c0,1.4,0.1,2.9,0.3,4.3l0,0c25.2,9,57.8-10.2,64.4-36.5C77.8,91.7,55.8,112.2,29.6,104.9"/>
		</defs>
		
			<linearGradient id="SVGID_00000137819933093482929730000011764850220518698912_" gradientUnits="userSpaceOnUse" x1="25.0261" y1="90.9877" x2="89.7327" y2="90.9877">
			<stop  offset="2.184394e-07" style="stop-color:#1DA1DC"/>
			<stop  offset="0.9935" style="stop-color:#1D2A57"/>
		</linearGradient>
		
			<use xlink:href="#SVGID_00000000910883787465540000000016448969546853551499_"  style="overflow:visible;fill:url(#SVGID_00000137819933093482929730000011764850220518698912_);"/>
		<clipPath id="SVGID_00000165193867182451872740000010750440816363139516_">
			<use xlink:href="#SVGID_00000000910883787465540000000016448969546853551499_"  style="overflow:visible;"/>
		</clipPath>
	</g>
	<g>
		<defs>
			<polygon id="SVGID_00000090981170172330305500000000401824379113302690_" points="83.8,69.7 95.2,54.3 92.1,65.8 			"/>
		</defs>
		
			<linearGradient id="SVGID_00000151504954190230754300000013597148382050485406_" gradientUnits="userSpaceOnUse" x1="83.8442" y1="62.0363" x2="95.2392" y2="62.0363">
			<stop  offset="2.184394e-07" style="stop-color:#1DA1DC"/>
			<stop  offset="0.9935" style="stop-color:#1D2A57"/>
		</linearGradient>
		
			<use xlink:href="#SVGID_00000090981170172330305500000000401824379113302690_"  style="overflow:visible;fill:url(#SVGID_00000151504954190230754300000013597148382050485406_);"/>
		<clipPath id="SVGID_00000052786144530907325400000017760654209061089416_">
			<use xlink:href="#SVGID_00000090981170172330305500000000401824379113302690_"  style="overflow:visible;"/>
		</clipPath>
		
			<linearGradient id="SVGID_00000128464136339430102740000015618252130692805040_" gradientUnits="userSpaceOnUse" x1="83.8442" y1="62.0363" x2="95.2392" y2="62.0363">
			<stop  offset="2.184394e-07" style="stop-color:#1DA1DC"/>
			<stop  offset="0.9935" style="stop-color:#1D2A57"/>
		</linearGradient>
		
			<rect x="83.8" y="54.3" style="clip-path:url(#SVGID_00000052786144530907325400000017760654209061089416_);fill:url(#SVGID_00000128464136339430102740000015618252130692805040_);" width="11.4" height="15.4"/>
	</g>
	<path class="st3" d="M104.5,101.1h7.2c2.4,0,4.1-0.4,5.1-1.3c1-0.9,1.5-2.1,1.5-3.8c0-1.2-0.3-2.2-0.9-3c-0.6-0.8-1.4-1.4-2.3-1.6
		c-0.6-0.2-1.8-0.2-3.5-0.2h-7.1V101.1z M100.8,115.7V87.8h10.5c1.9,0,3.3,0.1,4.3,0.3c1.4,0.2,2.5,0.7,3.5,1.3
		c0.9,0.6,1.7,1.5,2.2,2.7c0.6,1.2,0.8,2.4,0.8,3.8c0,2.4-0.8,4.4-2.3,6c-1.5,1.6-4.2,2.5-8.2,2.5h-7.2v11.4H100.8z"/>
	<path class="st3" d="M104.5,101.1h7.2c2.4,0,4.1-0.4,5.1-1.3c1-0.9,1.5-2.1,1.5-3.8c0-1.2-0.3-2.2-0.9-3c-0.6-0.8-1.4-1.4-2.3-1.6
		c-0.6-0.2-1.8-0.2-3.5-0.2h-7.1V101.1z M100.8,115.7V87.8h10.5c1.9,0,3.3,0.1,4.3,0.3c1.4,0.2,2.5,0.7,3.5,1.3
		c0.9,0.6,1.7,1.5,2.2,2.7c0.6,1.2,0.8,2.4,0.8,3.8c0,2.4-0.8,4.4-2.3,6c-1.5,1.6-4.2,2.5-8.2,2.5h-7.2v11.4H100.8z"/>
	<path class="st3" d="M146.8,105.9l3.7,0.9c-0.8,3-2.2,5.4-4.2,6.9c-2,1.6-4.5,2.4-7.4,2.4c-3,0-5.5-0.6-7.3-1.8
		c-1.9-1.2-3.3-3-4.3-5.3c-1-2.3-1.5-4.8-1.5-7.5c0-2.9,0.6-5.4,1.7-7.6c1.1-2.2,2.7-3.8,4.7-4.9c2.1-1.1,4.3-1.7,6.8-1.7
		c2.8,0,5.1,0.7,7.1,2.1c1.9,1.4,3.2,3.4,4,6l-3.6,0.9c-0.6-2-1.6-3.5-2.8-4.4c-1.2-0.9-2.8-1.4-4.7-1.4c-2.1,0-3.9,0.5-5.4,1.5
		c-1.4,1-2.5,2.4-3,4.1c-0.6,1.7-0.9,3.5-0.9,5.4c0,2.4,0.3,4.5,1,6.2c0.7,1.8,1.8,3.1,3.2,4c1.5,0.9,3,1.3,4.7,1.3
		c2.1,0,3.8-0.6,5.3-1.8C145.3,110.1,146.3,108.3,146.8,105.9"/>
	<path class="st3" d="M146.8,105.9l3.7,0.9c-0.8,3-2.2,5.4-4.2,6.9c-2,1.6-4.5,2.4-7.4,2.4c-3,0-5.5-0.6-7.3-1.8
		c-1.9-1.2-3.3-3-4.3-5.3c-1-2.3-1.5-4.8-1.5-7.5c0-2.9,0.6-5.4,1.7-7.6c1.1-2.2,2.7-3.8,4.7-4.9c2.1-1.1,4.3-1.7,6.8-1.7
		c2.8,0,5.1,0.7,7.1,2.1c1.9,1.4,3.2,3.4,4,6l-3.6,0.9c-0.6-2-1.6-3.5-2.8-4.4c-1.2-0.9-2.8-1.4-4.7-1.4c-2.1,0-3.9,0.5-5.4,1.5
		c-1.4,1-2.5,2.4-3,4.1c-0.6,1.7-0.9,3.5-0.9,5.4c0,2.4,0.3,4.5,1,6.2c0.7,1.8,1.8,3.1,3.2,4c1.5,0.9,3,1.3,4.7,1.3
		c2.1,0,3.8-0.6,5.3-1.8C145.3,110.1,146.3,108.3,146.8,105.9z"/>
	<rect x="155.7" y="87.8" class="st3" width="3.7" height="27.9"/>
	<rect x="155.7" y="87.8" class="st3" width="3.7" height="27.9"/>
	<path class="st4" d="M177.1,104.3h9.5l-2.9-7.7c-0.9-2.4-1.6-4.3-2-5.8c-0.4,1.8-0.9,3.6-1.5,5.3L177.1,104.3z M169,115.7
		l10.7-27.9h4l11.4,27.9H191l-3.3-8.5H176l-3.1,8.5H169z"/>
	<path class="st4" d="M177.1,104.3h9.5l-2.9-7.7c-0.9-2.4-1.6-4.3-2-5.8c-0.4,1.8-0.9,3.6-1.5,5.3L177.1,104.3z M169,115.7
		l10.7-27.9h4l11.4,27.9H191l-3.3-8.5H176l-3.1,8.5H169z"/>
	<path class="st4" d="M202.6,115.7l-7.7-20.2h3.6l4.3,12.1c0.5,1.3,0.9,2.7,1.3,4.1c0.3-1.1,0.7-2.4,1.3-3.9l4.5-12.4h3.5l-7.7,20.2
		H202.6z"/>
	<path class="st4" d="M202.6,115.7l-7.7-20.2h3.6l4.3,12.1c0.5,1.3,0.9,2.7,1.3,4.1c0.3-1.1,0.7-2.4,1.3-3.9l4.5-12.4h3.5l-7.7,20.2
		H202.6z"/>
	<path class="st4" d="M216.5,95.5h3.4v20.2h-3.4V95.5z M216.5,87.8h3.4v3.9h-3.4V87.8z"/>
	<path class="st4" d="M216.5,95.5h3.4v20.2h-3.4V95.5z M216.5,87.8h3.4v3.9h-3.4V87.8z"/>
	<path class="st4" d="M238.1,105.6c-1.2,0.5-3.1,0.9-5.6,1.3c-1.4,0.2-2.4,0.4-3,0.7c-0.6,0.3-1,0.6-1.4,1.1c-0.3,0.5-0.5,1-0.5,1.6
		c0,0.9,0.3,1.7,1,2.3c0.7,0.6,1.7,0.9,3,0.9c1.3,0,2.5-0.3,3.5-0.9c1-0.6,1.8-1.4,2.3-2.4c0.4-0.8,0.6-1.9,0.6-3.4V105.6z
		 M238.4,113.2c-1.3,1.1-2.5,1.8-3.7,2.3c-1.2,0.4-2.4,0.7-3.8,0.7c-2.2,0-3.9-0.5-5.1-1.6c-1.2-1.1-1.8-2.5-1.8-4.2
		c0-1,0.2-1.9,0.7-2.7c0.5-0.8,1-1.5,1.8-2c0.7-0.5,1.6-0.9,2.5-1.1c0.7-0.2,1.7-0.3,3-0.5c2.8-0.3,4.8-0.7,6.1-1.2
		c0-0.5,0-0.8,0-0.9c0-1.4-0.3-2.4-1-3c-0.9-0.8-2.2-1.2-3.9-1.2c-1.6,0-2.8,0.3-3.6,0.8c-0.8,0.6-1.3,1.6-1.7,3l-3.4-0.5
		c0.3-1.4,0.8-2.6,1.5-3.5c0.7-0.9,1.7-1.6,3-2c1.3-0.5,2.9-0.7,4.6-0.7c1.7,0,3.1,0.2,4.2,0.6s1.9,0.9,2.4,1.5
		c0.5,0.6,0.9,1.4,1.1,2.3c0.1,0.6,0.2,1.6,0.2,3.2v4.6c0,3.2,0.1,5.2,0.2,6.1c0.1,0.8,0.4,1.7,0.9,2.4h-3.6
		C238.7,115,238.5,114.2,238.4,113.2"/>
	<path class="st4" d="M238.1,105.6c-1.2,0.5-3.1,0.9-5.6,1.3c-1.4,0.2-2.4,0.4-3,0.7c-0.6,0.3-1,0.6-1.4,1.1c-0.3,0.5-0.5,1-0.5,1.6
		c0,0.9,0.3,1.7,1,2.3c0.7,0.6,1.7,0.9,3,0.9c1.3,0,2.5-0.3,3.5-0.9c1-0.6,1.8-1.4,2.3-2.4c0.4-0.8,0.6-1.9,0.6-3.4V105.6z
		 M238.4,113.2c-1.3,1.1-2.5,1.8-3.7,2.3c-1.2,0.4-2.4,0.7-3.8,0.7c-2.2,0-3.9-0.5-5.1-1.6c-1.2-1.1-1.8-2.5-1.8-4.2
		c0-1,0.2-1.9,0.7-2.7c0.5-0.8,1-1.5,1.8-2c0.7-0.5,1.6-0.9,2.5-1.1c0.7-0.2,1.7-0.3,3-0.5c2.8-0.3,4.8-0.7,6.1-1.2
		c0-0.5,0-0.8,0-0.9c0-1.4-0.3-2.4-1-3c-0.9-0.8-2.2-1.2-3.9-1.2c-1.6,0-2.8,0.3-3.6,0.8c-0.8,0.6-1.3,1.6-1.7,3l-3.4-0.5
		c0.3-1.4,0.8-2.6,1.5-3.5c0.7-0.9,1.7-1.6,3-2c1.3-0.5,2.9-0.7,4.6-0.7c1.7,0,3.1,0.2,4.2,0.6s1.9,0.9,2.4,1.5
		c0.5,0.6,0.9,1.4,1.1,2.3c0.1,0.6,0.2,1.6,0.2,3.2v4.6c0,3.2,0.1,5.2,0.2,6.1c0.1,0.8,0.4,1.7,0.9,2.4h-3.6
		C238.7,115,238.5,114.2,238.4,113.2z"/>
	<path class="st4" d="M254.4,112.7l0.5,3c-1,0.2-1.8,0.3-2.6,0.3c-1.2,0-2.2-0.2-2.9-0.6c-0.7-0.4-1.2-0.9-1.4-1.6
		c-0.3-0.6-0.4-2-0.4-4.1V98.2H245v-2.7h2.5v-5l3.4-2.1v7.1h3.5v2.7h-3.5V110c0,1,0.1,1.6,0.2,1.9c0.1,0.3,0.3,0.5,0.6,0.7
		c0.3,0.2,0.7,0.2,1.2,0.2C253.3,112.8,253.8,112.7,254.4,112.7"/>
	<path class="st4" d="M254.4,112.7l0.5,3c-1,0.2-1.8,0.3-2.6,0.3c-1.2,0-2.2-0.2-2.9-0.6c-0.7-0.4-1.2-0.9-1.4-1.6
		c-0.3-0.6-0.4-2-0.4-4.1V98.2H245v-2.7h2.5v-5l3.4-2.1v7.1h3.5v2.7h-3.5V110c0,1,0.1,1.6,0.2,1.9c0.1,0.3,0.3,0.5,0.6,0.7
		c0.3,0.2,0.7,0.2,1.2,0.2C253.3,112.8,253.8,112.7,254.4,112.7z"/>
	<path class="st4" d="M257.7,95.5h3.4v20.2h-3.4V95.5z M257.7,87.8h3.4v3.9h-3.4V87.8z"/>
	<path class="st4" d="M257.7,95.5h3.4v20.2h-3.4V95.5z M257.7,87.8h3.4v3.9h-3.4V87.8z"/>
	<path class="st4" d="M268.7,105.6c0,2.6,0.6,4.5,1.7,5.8c1.1,1.3,2.6,1.9,4.3,1.9c1.7,0,3.1-0.6,4.3-1.9c1.1-1.3,1.7-3.3,1.7-5.9
		c0-2.5-0.6-4.4-1.7-5.7c-1.1-1.3-2.6-1.9-4.2-1.9c-1.7,0-3.1,0.6-4.3,1.9C269.2,101.1,268.7,103,268.7,105.6 M265.1,105.6
		c0-3.7,1-6.5,3.1-8.3c1.7-1.5,3.9-2.2,6.4-2.2c2.8,0,5.1,0.9,6.8,2.7c1.8,1.8,2.6,4.3,2.6,7.6c0,2.6-0.4,4.7-1.2,6.1
		c-0.8,1.5-1.9,2.7-3.4,3.5c-1.5,0.8-3.1,1.2-4.9,1.2c-2.8,0-5.1-0.9-6.9-2.7C266,111.6,265.1,109,265.1,105.6"/>
	<path class="st4" d="M268.7,105.6c0,2.6,0.6,4.5,1.7,5.8c1.1,1.3,2.6,1.9,4.3,1.9c1.7,0,3.1-0.6,4.3-1.9c1.1-1.3,1.7-3.3,1.7-5.9
		c0-2.5-0.6-4.4-1.7-5.7c-1.1-1.3-2.6-1.9-4.2-1.9c-1.7,0-3.1,0.6-4.3,1.9C269.2,101.1,268.7,103,268.7,105.6z M265.1,105.6
		c0-3.7,1-6.5,3.1-8.3c1.7-1.5,3.9-2.2,6.4-2.2c2.8,0,5.1,0.9,6.8,2.7c1.8,1.8,2.6,4.3,2.6,7.6c0,2.6-0.4,4.7-1.2,6.1
		c-0.8,1.5-1.9,2.7-3.4,3.5c-1.5,0.8-3.1,1.2-4.9,1.2c-2.8,0-5.1-0.9-6.9-2.7C266,111.6,265.1,109,265.1,105.6z"/>
	<path class="st4" d="M288.1,115.7V95.5h3.1v2.9c1.5-2.2,3.6-3.3,6.4-3.3c1.2,0,2.3,0.2,3.4,0.7c1,0.4,1.8,1,2.3,1.7
		c0.5,0.7,0.9,1.6,1.1,2.5c0.1,0.6,0.2,1.7,0.2,3.3v12.4h-3.4v-12.3c0-1.4-0.1-2.4-0.4-3.1c-0.3-0.7-0.7-1.2-1.4-1.7
		c-0.7-0.4-1.5-0.6-2.4-0.6c-1.5,0-2.7,0.5-3.8,1.4c-1.1,0.9-1.6,2.7-1.6,5.3v11.1H288.1z"/>
	<path class="st4" d="M288.1,115.7V95.5h3.1v2.9c1.5-2.2,3.6-3.3,6.4-3.3c1.2,0,2.3,0.2,3.4,0.7c1,0.4,1.8,1,2.3,1.7
		c0.5,0.7,0.9,1.6,1.1,2.5c0.1,0.6,0.2,1.7,0.2,3.3v12.4h-3.4v-12.3c0-1.4-0.1-2.4-0.4-3.1c-0.3-0.7-0.7-1.2-1.4-1.7
		c-0.7-0.4-1.5-0.6-2.4-0.6c-1.5,0-2.7,0.5-3.8,1.4c-1.1,0.9-1.6,2.7-1.6,5.3v11.1H288.1z"/>
</g>
</svg>
