<?xml version="1.0" encoding="utf-8"?>
<!-- Generator: Adobe Illustrator 28.1.0, SVG Export Plug-In . SVG Version: 6.00 Build 0)  -->
<svg version="1.1" id="Layer_1" xmlns="http://www.w3.org/2000/svg" xmlns:xlink="http://www.w3.org/1999/xlink" x="0px" y="0px"
	 viewBox="0 0 328 213" style="enable-background:new 0 0 328 213;" xml:space="preserve">
<style type="text/css">
	.st0{clip-path:url(#SVGID_00000176004791084551734290000008124112628876287365_);}
	.st1{clip-path:url(#SVGID_00000152229740694362320610000001704265538778274176_);}
</style>
<g>
	<g>
		<defs>
			<polygon id="SVGID_1_" points="83.8,69.7 95.2,54.3 97.1,73.4 92.1,65.8 			"/>
		</defs>
		<use xlink:href="#SVGID_1_"  style="overflow:visible;"/>
		<clipPath id="SVGID_00000178908730202455580360000010045547391086114487_">
			<use xlink:href="#SVGID_1_"  style="overflow:visible;"/>
		</clipPath>
		
			<rect x="83.8" y="54.3" style="clip-path:url(#SVGID_00000178908730202455580360000010045547391086114487_);" width="13.2" height="19.1"/>
	</g>
	<g>
		<defs>
			<path id="SVGID_00000147924260113787169410000010158898203068659134_" d="M43.6,127L43.6,127L43.6,127L43.6,127l-4.8,2.6l0,0h0
				c4.4,2.6,9.6,4.1,15.1,4.1c16.5,0,29.9-13.4,29.9-29.9c0-1.5-0.1-3-0.3-4.5c-1.3,2.2-2.7,4.3-4.3,6.3
				c-1,13.1-11.9,23.5-25.3,23.5c-1.5,0-3-0.1-4.4-0.4c20.1-11.1,40.4-31.4,40.2-56.3C82.7,98.3,66.8,114.1,43.6,127"/>
		</defs>
		<use xlink:href="#SVGID_00000147924260113787169410000010158898203068659134_"  style="overflow:visible;"/>
		<clipPath id="SVGID_00000039839298215679999270000002472830204045790390_">
			<use xlink:href="#SVGID_00000147924260113787169410000010158898203068659134_"  style="overflow:visible;"/>
		</clipPath>
	</g>
	<path d="M30.8,121.5c19.3-3.3,36.1-9.7,46-24.5c-17,15.8-32.7,20.1-48,21.3C29.4,119.4,30,120.5,30.8,121.5"/>
	<g>
		<defs>
			<path id="SVGID_00000119106325132662018000000002064397589420964757_" d="M29.6,104.9c0-0.4,0-0.7,0-1.1
				c0-14,11.3-25.3,25.3-25.3c8.2,0,15.4,3.9,20.1,9.9c1.1-1.1,2.1-2.2,3.1-3.3C72.6,78.3,64.3,74,54.9,74C38.4,74,25,87.3,25,103.8
				c0,1.4,0.1,2.9,0.3,4.3l0,0c25.2,9,57.8-10.2,64.4-36.5C77.8,91.7,55.8,112.2,29.6,104.9"/>
		</defs>
		<use xlink:href="#SVGID_00000119106325132662018000000002064397589420964757_"  style="overflow:visible;"/>
		<clipPath id="SVGID_00000044179003476635141880000009388511797447232418_">
			<use xlink:href="#SVGID_00000119106325132662018000000002064397589420964757_"  style="overflow:visible;"/>
		</clipPath>
	</g>
	<g>
		<defs>
			<polygon id="SVGID_00000158013047614754908130000013598571790358106797_" points="83.8,69.7 95.2,54.3 92.1,65.8 			"/>
		</defs>
		<use xlink:href="#SVGID_00000158013047614754908130000013598571790358106797_"  style="overflow:visible;"/>
		<clipPath id="SVGID_00000121959064250939927410000013458696375133091004_">
			<use xlink:href="#SVGID_00000158013047614754908130000013598571790358106797_"  style="overflow:visible;"/>
		</clipPath>
		
			<rect x="83.8" y="54.3" style="clip-path:url(#SVGID_00000121959064250939927410000013458696375133091004_);" width="11.4" height="15.4"/>
	</g>
	<path d="M104.5,101.1h7.2c2.4,0,4.1-0.4,5.1-1.3c1-0.9,1.5-2.1,1.5-3.8c0-1.2-0.3-2.2-0.9-3c-0.6-0.8-1.4-1.4-2.3-1.6
		c-0.6-0.2-1.8-0.2-3.5-0.2h-7.1V101.1z M100.8,115.7V87.8h10.5c1.9,0,3.3,0.1,4.3,0.3c1.4,0.2,2.5,0.7,3.5,1.3
		c0.9,0.6,1.7,1.5,2.2,2.7c0.6,1.2,0.8,2.4,0.8,3.8c0,2.4-0.8,4.4-2.3,6c-1.5,1.6-4.2,2.5-8.2,2.5h-7.2v11.4H100.8z"/>
	<path d="M104.5,101.1h7.2c2.4,0,4.1-0.4,5.1-1.3c1-0.9,1.5-2.1,1.5-3.8c0-1.2-0.3-2.2-0.9-3c-0.6-0.8-1.4-1.4-2.3-1.6
		c-0.6-0.2-1.8-0.2-3.5-0.2h-7.1V101.1z M100.8,115.7V87.8h10.5c1.9,0,3.3,0.1,4.3,0.3c1.4,0.2,2.5,0.7,3.5,1.3
		c0.9,0.6,1.7,1.5,2.2,2.7c0.6,1.2,0.8,2.4,0.8,3.8c0,2.4-0.8,4.4-2.3,6c-1.5,1.6-4.2,2.5-8.2,2.5h-7.2v11.4H100.8z"/>
	<path d="M146.8,105.9l3.7,0.9c-0.8,3-2.2,5.4-4.2,6.9c-2,1.6-4.5,2.4-7.4,2.4c-3,0-5.5-0.6-7.3-1.8c-1.9-1.2-3.3-3-4.3-5.3
		c-1-2.3-1.5-4.8-1.5-7.5c0-2.9,0.6-5.4,1.7-7.6c1.1-2.2,2.7-3.8,4.7-4.9c2.1-1.1,4.3-1.7,6.8-1.7c2.8,0,5.1,0.7,7.1,2.1
		c1.9,1.4,3.2,3.4,4,6l-3.6,0.9c-0.6-2-1.6-3.5-2.8-4.4c-1.2-0.9-2.8-1.4-4.7-1.4c-2.1,0-3.9,0.5-5.4,1.5c-1.4,1-2.5,2.4-3,4.1
		c-0.6,1.7-0.9,3.5-0.9,5.4c0,2.4,0.3,4.5,1,6.2c0.7,1.8,1.8,3.1,3.2,4c1.5,0.9,3,1.3,4.7,1.3c2.1,0,3.8-0.6,5.3-1.8
		C145.3,110.1,146.3,108.3,146.8,105.9"/>
	<path d="M146.8,105.9l3.7,0.9c-0.8,3-2.2,5.4-4.2,6.9c-2,1.6-4.5,2.4-7.4,2.4c-3,0-5.5-0.6-7.3-1.8c-1.9-1.2-3.3-3-4.3-5.3
		c-1-2.3-1.5-4.8-1.5-7.5c0-2.9,0.6-5.4,1.7-7.6c1.1-2.2,2.7-3.8,4.7-4.9c2.1-1.1,4.3-1.7,6.8-1.7c2.8,0,5.1,0.7,7.1,2.1
		c1.9,1.4,3.2,3.4,4,6l-3.6,0.9c-0.6-2-1.6-3.5-2.8-4.4c-1.2-0.9-2.8-1.4-4.7-1.4c-2.1,0-3.9,0.5-5.4,1.5c-1.4,1-2.5,2.4-3,4.1
		c-0.6,1.7-0.9,3.5-0.9,5.4c0,2.4,0.3,4.5,1,6.2c0.7,1.8,1.8,3.1,3.2,4c1.5,0.9,3,1.3,4.7,1.3c2.1,0,3.8-0.6,5.3-1.8
		C145.3,110.1,146.3,108.3,146.8,105.9z"/>
	<rect x="155.7" y="87.8" width="3.7" height="27.9"/>
	<rect x="155.7" y="87.8" width="3.7" height="27.9"/>
	<path d="M177.1,104.3h9.5l-2.9-7.7c-0.9-2.4-1.6-4.3-2-5.8c-0.4,1.8-0.9,3.6-1.5,5.3L177.1,104.3z M169,115.7l10.7-27.9h4
		l11.4,27.9H191l-3.3-8.5H176l-3.1,8.5H169z"/>
	<path d="M177.1,104.3h9.5l-2.9-7.7c-0.9-2.4-1.6-4.3-2-5.8c-0.4,1.8-0.9,3.6-1.5,5.3L177.1,104.3z M169,115.7l10.7-27.9h4
		l11.4,27.9H191l-3.3-8.5H176l-3.1,8.5H169z"/>
	<path d="M202.6,115.7l-7.7-20.2h3.6l4.3,12.1c0.5,1.3,0.9,2.7,1.3,4.1c0.3-1.1,0.7-2.4,1.3-3.9l4.5-12.4h3.5l-7.7,20.2H202.6z"/>
	<path d="M202.6,115.7l-7.7-20.2h3.6l4.3,12.1c0.5,1.3,0.9,2.7,1.3,4.1c0.3-1.1,0.7-2.4,1.3-3.9l4.5-12.4h3.5l-7.7,20.2H202.6z"/>
	<path d="M216.5,95.5h3.4v20.2h-3.4V95.5z M216.5,87.8h3.4v3.9h-3.4V87.8z"/>
	<path d="M216.5,95.5h3.4v20.2h-3.4V95.5z M216.5,87.8h3.4v3.9h-3.4V87.8z"/>
	<path d="M238.1,105.6c-1.2,0.5-3.1,0.9-5.6,1.3c-1.4,0.2-2.4,0.4-3,0.7c-0.6,0.3-1,0.6-1.4,1.1c-0.3,0.5-0.5,1-0.5,1.6
		c0,0.9,0.3,1.7,1,2.3c0.7,0.6,1.7,0.9,3,0.9c1.3,0,2.5-0.3,3.5-0.9c1-0.6,1.8-1.4,2.3-2.4c0.4-0.8,0.6-1.9,0.6-3.4V105.6z
		 M238.4,113.2c-1.3,1.1-2.5,1.8-3.7,2.3c-1.2,0.4-2.4,0.7-3.8,0.7c-2.2,0-3.9-0.5-5.1-1.6c-1.2-1.1-1.8-2.5-1.8-4.2
		c0-1,0.2-1.9,0.7-2.7c0.5-0.8,1-1.5,1.8-2c0.7-0.5,1.6-0.9,2.5-1.1c0.7-0.2,1.7-0.3,3-0.5c2.8-0.3,4.8-0.7,6.1-1.2
		c0-0.5,0-0.8,0-0.9c0-1.4-0.3-2.4-1-3c-0.9-0.8-2.2-1.2-3.9-1.2c-1.6,0-2.8,0.3-3.6,0.8c-0.8,0.6-1.3,1.6-1.7,3l-3.4-0.5
		c0.3-1.4,0.8-2.6,1.5-3.5c0.7-0.9,1.7-1.6,3-2c1.3-0.5,2.9-0.7,4.6-0.7c1.7,0,3.1,0.2,4.2,0.6s1.9,0.9,2.4,1.5
		c0.5,0.6,0.9,1.4,1.1,2.3c0.1,0.6,0.2,1.6,0.2,3.2v4.6c0,3.2,0.1,5.2,0.2,6.1c0.1,0.8,0.4,1.7,0.9,2.4h-3.6
		C238.7,115,238.5,114.2,238.4,113.2"/>
	<path d="M238.1,105.6c-1.2,0.5-3.1,0.9-5.6,1.3c-1.4,0.2-2.4,0.4-3,0.7c-0.6,0.3-1,0.6-1.4,1.1c-0.3,0.5-0.5,1-0.5,1.6
		c0,0.9,0.3,1.7,1,2.3c0.7,0.6,1.7,0.9,3,0.9c1.3,0,2.5-0.3,3.5-0.9c1-0.6,1.8-1.4,2.3-2.4c0.4-0.8,0.6-1.9,0.6-3.4V105.6z
		 M238.4,113.2c-1.3,1.1-2.5,1.8-3.7,2.3c-1.2,0.4-2.4,0.7-3.8,0.7c-2.2,0-3.9-0.5-5.1-1.6c-1.2-1.1-1.8-2.5-1.8-4.2
		c0-1,0.2-1.9,0.7-2.7c0.5-0.8,1-1.5,1.8-2c0.7-0.5,1.6-0.9,2.5-1.1c0.7-0.2,1.7-0.3,3-0.5c2.8-0.3,4.8-0.7,6.1-1.2
		c0-0.5,0-0.8,0-0.9c0-1.4-0.3-2.4-1-3c-0.9-0.8-2.2-1.2-3.9-1.2c-1.6,0-2.8,0.3-3.6,0.8c-0.8,0.6-1.3,1.6-1.7,3l-3.4-0.5
		c0.3-1.4,0.8-2.6,1.5-3.5c0.7-0.9,1.7-1.6,3-2c1.3-0.5,2.9-0.7,4.6-0.7c1.7,0,3.1,0.2,4.2,0.6s1.9,0.9,2.4,1.5
		c0.5,0.6,0.9,1.4,1.1,2.3c0.1,0.6,0.2,1.6,0.2,3.2v4.6c0,3.2,0.1,5.2,0.2,6.1c0.1,0.8,0.4,1.7,0.9,2.4h-3.6
		C238.7,115,238.5,114.2,238.4,113.2z"/>
	<path d="M254.4,112.7l0.5,3c-1,0.2-1.8,0.3-2.6,0.3c-1.2,0-2.2-0.2-2.9-0.6c-0.7-0.4-1.2-0.9-1.4-1.6c-0.3-0.6-0.4-2-0.4-4.1V98.2
		H245v-2.7h2.5v-5l3.4-2.1v7.1h3.5v2.7h-3.5V110c0,1,0.1,1.6,0.2,1.9c0.1,0.3,0.3,0.5,0.6,0.7c0.3,0.2,0.7,0.2,1.2,0.2
		C253.3,112.8,253.8,112.7,254.4,112.7"/>
	<path d="M254.4,112.7l0.5,3c-1,0.2-1.8,0.3-2.6,0.3c-1.2,0-2.2-0.2-2.9-0.6c-0.7-0.4-1.2-0.9-1.4-1.6c-0.3-0.6-0.4-2-0.4-4.1V98.2
		H245v-2.7h2.5v-5l3.4-2.1v7.1h3.5v2.7h-3.5V110c0,1,0.1,1.6,0.2,1.9c0.1,0.3,0.3,0.5,0.6,0.7c0.3,0.2,0.7,0.2,1.2,0.2
		C253.3,112.8,253.8,112.7,254.4,112.7z"/>
	<path d="M257.7,95.5h3.4v20.2h-3.4V95.5z M257.7,87.8h3.4v3.9h-3.4V87.8z"/>
	<path d="M257.7,95.5h3.4v20.2h-3.4V95.5z M257.7,87.8h3.4v3.9h-3.4V87.8z"/>
	<path d="M268.7,105.6c0,2.6,0.6,4.5,1.7,5.8c1.1,1.3,2.6,1.9,4.3,1.9c1.7,0,3.1-0.6,4.3-1.9c1.1-1.3,1.7-3.3,1.7-5.9
		c0-2.5-0.6-4.4-1.7-5.7c-1.1-1.3-2.6-1.9-4.2-1.9c-1.7,0-3.1,0.6-4.3,1.9C269.2,101.1,268.7,103,268.7,105.6 M265.1,105.6
		c0-3.7,1-6.5,3.1-8.3c1.7-1.5,3.9-2.2,6.4-2.2c2.8,0,5.1,0.9,6.8,2.7c1.8,1.8,2.6,4.3,2.6,7.6c0,2.6-0.4,4.7-1.2,6.1
		c-0.8,1.5-1.9,2.7-3.4,3.5c-1.5,0.8-3.1,1.2-4.9,1.2c-2.8,0-5.1-0.9-6.9-2.7C266,111.6,265.1,109,265.1,105.6"/>
	<path d="M268.7,105.6c0,2.6,0.6,4.5,1.7,5.8c1.1,1.3,2.6,1.9,4.3,1.9c1.7,0,3.1-0.6,4.3-1.9c1.1-1.3,1.7-3.3,1.7-5.9
		c0-2.5-0.6-4.4-1.7-5.7c-1.1-1.3-2.6-1.9-4.2-1.9c-1.7,0-3.1,0.6-4.3,1.9C269.2,101.1,268.7,103,268.7,105.6z M265.1,105.6
		c0-3.7,1-6.5,3.1-8.3c1.7-1.5,3.9-2.2,6.4-2.2c2.8,0,5.1,0.9,6.8,2.7c1.8,1.8,2.6,4.3,2.6,7.6c0,2.6-0.4,4.7-1.2,6.1
		c-0.8,1.5-1.9,2.7-3.4,3.5c-1.5,0.8-3.1,1.2-4.9,1.2c-2.8,0-5.1-0.9-6.9-2.7C266,111.6,265.1,109,265.1,105.6z"/>
	<path d="M288.1,115.7V95.5h3.1v2.9c1.5-2.2,3.6-3.3,6.4-3.3c1.2,0,2.3,0.2,3.4,0.7c1,0.4,1.8,1,2.3,1.7c0.5,0.7,0.9,1.6,1.1,2.5
		c0.1,0.6,0.2,1.7,0.2,3.3v12.4h-3.4v-12.3c0-1.4-0.1-2.4-0.4-3.1c-0.3-0.7-0.7-1.2-1.4-1.7c-0.7-0.4-1.5-0.6-2.4-0.6
		c-1.5,0-2.7,0.5-3.8,1.4c-1.1,0.9-1.6,2.7-1.6,5.3v11.1H288.1z"/>
	<path d="M288.1,115.7V95.5h3.1v2.9c1.5-2.2,3.6-3.3,6.4-3.3c1.2,0,2.3,0.2,3.4,0.7c1,0.4,1.8,1,2.3,1.7c0.5,0.7,0.9,1.6,1.1,2.5
		c0.1,0.6,0.2,1.7,0.2,3.3v12.4h-3.4v-12.3c0-1.4-0.1-2.4-0.4-3.1c-0.3-0.7-0.7-1.2-1.4-1.7c-0.7-0.4-1.5-0.6-2.4-0.6
		c-1.5,0-2.7,0.5-3.8,1.4c-1.1,0.9-1.6,2.7-1.6,5.3v11.1H288.1z"/>
</g>
</svg>
