<?xml version="1.0" encoding="utf-8"?>
<!-- Generator: Adobe Illustrator 28.1.0, SVG Export Plug-In . SVG Version: 6.00 Build 0)  -->
<svg version="1.1" xmlns="http://www.w3.org/2000/svg" xmlns:xlink="http://www.w3.org/1999/xlink" x="0px" y="0px"
	 viewBox="0 0 328 213" style="enable-background:new 0 0 328 213;" xml:space="preserve">
<style type="text/css">
	.st0{fill:#0468B1;}
	.st1{fill:#95C93D;}
	.st2{fill:#231F20;}
	.st3{display:none;}
	.st4{display:inline;}
	.st5{clip-path:url(#SVGID_00000051362351760647734830000010586838887335144854_);fill:#FFFFFF;}
	.st6{fill:#FFFFFF;}
	.st7{clip-path:url(#SVGID_00000075132801825621324990000004255061026931718303_);fill:#FFFFFF;}
</style>
<g id="Layer_1">
	<g>
		<polygon class="st0" points="44.4,102.9 61.2,75.8 55.3,75.8 34,102.9 55.3,130 61.2,130 		"/>
		<path class="st1" d="M82.3,102.9L61.2,75.8l-3,3.8L40,102.9L61.2,130L82.3,102.9z M61.8,88.4l11.4,14.6l-11.4,14.6l-3-3.8
			l-8.5-10.8l8.5-10.8L61.8,88.4z"/>
		<polygon class="st0" points="73.2,102.9 61.8,117.5 58.8,113.7 67.3,102.9 58.8,92.2 61.8,88.4 		"/>
		<g>
			<path class="st2" d="M108.7,103.4c0,2.6-0.9,4.6-2.6,6c-1.7,1.4-4.3,2.1-7.6,2.1c-2.3,0-4.3-0.4-6.1-1.2c-1.7-0.8-3.1-2-4.2-3.7
				l4.1-3.1c0.6,0.9,1.2,1.5,1.7,1.9c0.5,0.4,1.2,0.8,1.9,1c0.7,0.2,1.6,0.4,2.6,0.4c1.5,0,2.6-0.3,3.4-0.7c0.8-0.5,1.2-1.3,1.2-2.3
				c0-0.6-0.1-1.1-0.4-1.5c-0.3-0.4-0.7-0.7-1.3-1c-0.6-0.3-1.6-0.6-3-1c-1.4-0.4-2.7-0.7-3.9-1.1c-1.2-0.4-2.2-0.9-3.1-1.5
				c-0.9-0.6-1.6-1.3-2.1-2.2c-0.5-0.9-0.8-2-0.8-3.4c0-2.5,0.8-4.4,2.5-5.8c1.7-1.4,4.1-2.1,7.2-2.1c4.5,0,7.7,1.6,9.6,4.7L104,92
				c-0.7-1.1-1.5-1.9-2.4-2.4c-0.9-0.5-2-0.7-3.2-0.7c-1.2,0-2.2,0.2-3,0.7c-0.8,0.4-1.2,1.2-1.2,2.1c0,0.8,0.4,1.5,1.2,1.9
				c0.8,0.4,2.2,0.9,4.2,1.4c1.1,0.3,2.2,0.6,3.3,0.9c1.1,0.3,2.1,0.8,2.9,1.4c0.9,0.6,1.5,1.4,2.1,2.3
				C108.4,100.6,108.7,101.9,108.7,103.4z"/>
			<path class="st2" d="M127.6,111v-2.6c-0.9,0.9-1.9,1.7-3.2,2.3c-1.2,0.6-2.4,0.9-3.6,0.9c-2.2,0-3.8-0.6-4.7-1.9
				c-0.9-1.2-1.3-3-1.3-5.3V91.1h4.9v11c0,1.4,0.1,2.5,0.2,3.2c0.2,0.7,0.4,1.3,0.8,1.5c0.4,0.3,0.9,0.4,1.6,0.4
				c1.5,0,3.2-1,5.2-2.9V91.1h4.9V111H127.6z"/>
			<path class="st2" d="M163.7,111V99.3c0-1.2-0.1-2.1-0.2-2.7c-0.1-0.7-0.4-1.1-0.6-1.3c-0.3-0.2-0.8-0.4-1.4-0.4
				c-0.7,0-1.5,0.3-2.4,0.8c-0.8,0.6-1.6,1.2-2.3,2V111h-4.9V99.3c0-1.3-0.1-2.2-0.2-2.8c-0.1-0.6-0.3-1-0.6-1.3
				c-0.3-0.3-0.8-0.4-1.5-0.4c-0.6,0-1.3,0.2-2.1,0.7c-0.8,0.5-1.7,1.2-2.6,2.2V111H140V91.1h4.9v2.6c0.9-1,1.9-1.8,2.9-2.3
				c1-0.6,2.1-0.8,3.3-0.8c1.7,0,2.9,0.3,3.7,0.9c0.8,0.6,1.3,1.4,1.6,2.5c1.1-1.1,2.2-2,3.2-2.5c1-0.6,2.2-0.8,3.5-0.8
				c1.9,0,3.3,0.5,4.2,1.6c0.9,1.1,1.3,2.9,1.3,5.5V111H163.7z"/>
			<path class="st2" d="M199.6,111V99.3c0-1.2-0.1-2.1-0.2-2.7c-0.1-0.7-0.4-1.1-0.6-1.3c-0.3-0.2-0.8-0.4-1.4-0.4
				c-0.7,0-1.5,0.3-2.4,0.8c-0.8,0.6-1.6,1.2-2.3,2V111h-4.9V99.3c0-1.3-0.1-2.2-0.2-2.8c-0.1-0.6-0.3-1-0.6-1.3
				c-0.3-0.3-0.8-0.4-1.5-0.4c-0.6,0-1.3,0.2-2.1,0.7c-0.8,0.5-1.7,1.2-2.6,2.2V111h-4.9V91.1h4.9v2.6c0.9-1,1.9-1.8,2.9-2.3
				c1-0.6,2.1-0.8,3.3-0.8c1.7,0,2.9,0.3,3.7,0.9c0.8,0.6,1.3,1.4,1.6,2.5c1.1-1.1,2.2-2,3.2-2.5c1-0.6,2.2-0.8,3.5-0.8
				c1.9,0,3.3,0.5,4.2,1.6c0.9,1.1,1.3,2.9,1.3,5.5V111H199.6z"/>
			<path class="st2" d="M229.8,101.1c0,3.3-0.8,5.9-2.3,7.7c-1.5,1.8-3.9,2.8-7.2,2.8c-6.4,0-9.6-3.5-9.6-10.5c0-3.4,0.8-6,2.3-7.8
				c1.5-1.8,3.9-2.8,7.3-2.8c3.3,0,5.7,0.9,7.2,2.8C229,95.1,229.8,97.7,229.8,101.1z M224.7,101.1c0-2.2-0.3-3.8-1-4.8
				c-0.7-1-1.8-1.5-3.4-1.5c-1.6,0-2.7,0.5-3.5,1.5c-0.7,1-1.1,2.6-1.1,4.7c0,2.1,0.4,3.7,1.1,4.7c0.7,1,1.9,1.5,3.5,1.5
				c1.6,0,2.7-0.5,3.4-1.5C224.4,104.8,224.7,103.2,224.7,101.1z"/>
			<path class="st2" d="M259.9,111V99.3c0-1.2-0.1-2.1-0.2-2.7c-0.1-0.7-0.4-1.1-0.6-1.3c-0.3-0.2-0.8-0.4-1.4-0.4
				c-0.7,0-1.5,0.3-2.4,0.8c-0.8,0.6-1.6,1.2-2.3,2V111h-4.9V99.3c0-1.3-0.1-2.2-0.2-2.8c-0.1-0.6-0.3-1-0.6-1.3
				c-0.3-0.3-0.8-0.4-1.5-0.4c-0.6,0-1.3,0.2-2.1,0.7c-0.8,0.5-1.7,1.2-2.6,2.2V111h-4.9V91.1h4.9v2.6c0.9-1,1.9-1.8,2.9-2.3
				c1-0.6,2.1-0.8,3.3-0.8c1.7,0,2.9,0.3,3.7,0.9c0.8,0.6,1.3,1.4,1.6,2.5c1.1-1.1,2.2-2,3.2-2.5c1-0.6,2.2-0.8,3.5-0.8
				c1.9,0,3.3,0.5,4.2,1.6c0.9,1.1,1.3,2.9,1.3,5.5V111H259.9z"/>
			<path class="st2" d="M276.2,102.3c0.1,1.8,0.5,3,1.3,3.8c0.8,0.8,2,1.2,3.6,1.2c1,0,1.8-0.1,2.5-0.4c0.7-0.2,1.4-0.7,1.9-1.4
				l3.6,2.6c-0.8,1.1-1.8,2-3.1,2.6c-1.3,0.6-3,0.9-5.2,0.9c-3.3,0-5.7-0.9-7.3-2.6c-1.6-1.7-2.4-4.3-2.4-7.8
				c0-7.1,3.2-10.7,9.6-10.7c2.8,0,5,0.8,6.5,2.4c1.5,1.6,2.2,3.9,2.2,7v2.4H276.2z M284.5,98.9c0-3-1.3-4.5-4-4.5
				c-0.9,0-1.6,0.1-2.1,0.4c-0.6,0.3-1,0.7-1.3,1.3c-0.3,0.6-0.6,1.5-0.8,2.8H284.5z"/>
		</g>
		<g>
			<path class="st2" d="M94.5,130.5l-4-7.9v7.9h-2.2v-11h2.9l3.7,7.4v-7.4h2.2v11H94.5z"/>
			<path class="st2" d="M107.4,130.5v-0.9c-0.8,0.7-1.7,1.1-2.6,1.1c-0.9,0-1.6-0.2-2.1-0.7c-0.5-0.5-0.7-1.1-0.7-1.9
				c0-0.6,0.1-1.1,0.4-1.5c0.2-0.4,0.6-0.7,1.1-0.9c0.5-0.2,1.2-0.4,2.1-0.5l1.8-0.2v-0.4c0-0.5-0.1-0.8-0.4-1
				c-0.3-0.2-0.7-0.3-1.2-0.3c-0.4,0-0.8,0.1-1.2,0.2c-0.3,0.1-0.6,0.4-0.7,0.6l-1.6-1c0.3-0.5,0.7-0.8,1.3-1.1
				c0.6-0.3,1.3-0.4,2.2-0.4c1.3,0,2.2,0.2,2.8,0.7c0.6,0.5,0.9,1.2,0.9,2.2v5.7H107.4z M107.2,126.6l-1,0.1
				c-0.7,0.1-1.3,0.2-1.6,0.4c-0.3,0.2-0.5,0.5-0.5,1c0,0.4,0.1,0.6,0.3,0.8c0.2,0.1,0.5,0.2,0.8,0.2c0.2,0,0.6-0.1,0.9-0.2
				c0.4-0.2,0.7-0.4,1.1-0.7V126.6z"/>
			<path class="st2" d="M119,130.5c-0.6,0.2-1.1,0.2-1.7,0.2c-1,0-1.7-0.2-2.1-0.7c-0.4-0.4-0.6-1.1-0.6-2.1v-4.2h-1.1v-1.6h1.1
				v-2.3h2.1v2.3h1.9v1.6h-1.9v3.9c0,0.5,0.1,0.9,0.2,1.1c0.2,0.2,0.4,0.3,0.7,0.3c0.4,0,0.8-0.1,1.1-0.2L119,130.5z"/>
			<path class="st2" d="M125.5,119.9c0,0.4-0.1,0.7-0.3,0.8c-0.2,0.2-0.5,0.2-0.9,0.2c-0.4,0-0.7-0.1-0.9-0.3
				c-0.2-0.2-0.2-0.4-0.2-0.8c0-0.4,0.1-0.6,0.3-0.8c0.2-0.2,0.5-0.2,0.9-0.2c0.4,0,0.7,0.1,0.9,0.2
				C125.4,119.2,125.5,119.5,125.5,119.9z M123.3,130.5v-8.4h2.1v8.4H123.3z"/>
			<path class="st2" d="M134.6,130.5h-1.9l-3-8.4h2.1l1.9,5.5l1.9-5.5h2.1L134.6,130.5z"/>
			<path class="st2" d="M143.5,126.9c0,0.7,0.2,1.3,0.5,1.6c0.3,0.3,0.8,0.5,1.5,0.5c0.4,0,0.8,0,1.1-0.2c0.3-0.1,0.6-0.3,0.8-0.6
				l1.5,1.1c-0.3,0.5-0.8,0.8-1.3,1.1c-0.5,0.2-1.3,0.4-2.2,0.4c-1.4,0-2.4-0.4-3.1-1.1c-0.7-0.7-1-1.8-1-3.3c0-3,1.3-4.5,4-4.5
				c1.2,0,2.1,0.3,2.7,1s0.9,1.7,0.9,2.9v1H143.5z M147,125.4c0-1.3-0.6-1.9-1.7-1.9c-0.4,0-0.7,0.1-0.9,0.2
				c-0.2,0.1-0.4,0.3-0.6,0.6c-0.1,0.2-0.3,0.6-0.3,1.2H147z"/>
			<path class="st2" d="M166,130.5h-2.7l-3.4-11h2.3l2.5,8.2l2.5-8.2h2.2L166,130.5z"/>
			<path class="st2" d="M175,126.9c0,0.7,0.2,1.3,0.5,1.6c0.3,0.3,0.8,0.5,1.5,0.5c0.4,0,0.8,0,1.1-0.2c0.3-0.1,0.6-0.3,0.8-0.6
				l1.5,1.1c-0.3,0.5-0.8,0.8-1.3,1.1c-0.5,0.2-1.3,0.4-2.2,0.4c-1.4,0-2.4-0.4-3.1-1.1c-0.7-0.7-1-1.8-1-3.3c0-3,1.3-4.5,4-4.5
				c1.2,0,2.1,0.3,2.7,1s0.9,1.7,0.9,2.9v1H175z M178.5,125.4c0-1.3-0.6-1.9-1.7-1.9c-0.4,0-0.7,0.1-0.9,0.2
				c-0.2,0.1-0.4,0.3-0.6,0.6c-0.1,0.2-0.3,0.6-0.3,1.2H178.5z"/>
			<path class="st2" d="M190.8,130.5v-4.6c0-0.9-0.1-1.5-0.2-1.7c-0.2-0.3-0.5-0.4-0.9-0.4c-0.6,0-1.3,0.4-2.2,1.2v5.6h-2.1v-8.4
				h2.1v1.1c0.4-0.4,0.9-0.8,1.4-1c0.5-0.2,1-0.3,1.5-0.3c0.9,0,1.5,0.2,1.9,0.7c0.4,0.5,0.6,1.2,0.6,2.3v5.6H190.8z"/>
			<path class="st2" d="M202.8,130.5c-0.6,0.2-1.1,0.2-1.7,0.2c-1,0-1.7-0.2-2.1-0.7c-0.4-0.4-0.6-1.1-0.6-2.1v-4.2h-1.1v-1.6h1.1
				v-2.3h2.1v2.3h1.9v1.6h-1.9v3.9c0,0.5,0.1,0.9,0.2,1.1c0.2,0.2,0.4,0.3,0.7,0.3c0.4,0,0.8-0.1,1.1-0.2L202.8,130.5z"/>
			<path class="st2" d="M212.3,130.5v-1.1c-0.4,0.4-0.8,0.7-1.3,1c-0.5,0.2-1,0.4-1.5,0.4c-0.9,0-1.6-0.3-2-0.8
				c-0.4-0.5-0.6-1.3-0.6-2.2v-5.6h2.1v4.6c0,0.6,0,1,0.1,1.4c0.1,0.3,0.2,0.5,0.3,0.6c0.2,0.1,0.4,0.2,0.7,0.2
				c0.6,0,1.3-0.4,2.2-1.2v-5.6h2.1v8.4H212.3z"/>
			<path class="st2" d="M224.7,124.1c-0.2-0.1-0.5-0.2-0.8-0.2c-0.4,0-0.7,0.1-1.1,0.3c-0.3,0.2-0.7,0.5-1.1,0.8v5.4h-2.1v-8.4h2.1
				v1.2c0.4-0.4,0.7-0.7,1.1-0.9c0.4-0.3,0.9-0.4,1.4-0.4c0.4,0,0.7,0.1,0.9,0.2L224.7,124.1z"/>
			<path class="st2" d="M230.8,126.9c0,0.7,0.2,1.3,0.5,1.6c0.3,0.3,0.8,0.5,1.5,0.5c0.4,0,0.8,0,1.1-0.2c0.3-0.1,0.6-0.3,0.8-0.6
				l1.5,1.1c-0.3,0.5-0.8,0.8-1.3,1.1c-0.5,0.2-1.3,0.4-2.2,0.4c-1.4,0-2.4-0.4-3.1-1.1c-0.7-0.7-1-1.8-1-3.3c0-3,1.3-4.5,4-4.5
				c1.2,0,2.1,0.3,2.7,1s0.9,1.7,0.9,2.9v1H230.8z M234.3,125.4c0-1.3-0.6-1.9-1.7-1.9c-0.4,0-0.7,0.1-0.9,0.2
				c-0.2,0.1-0.4,0.3-0.6,0.6c-0.1,0.2-0.3,0.6-0.3,1.2H234.3z"/>
			<path class="st2" d="M247.6,128.1c0,0.6-0.1,1-0.4,1.4c-0.3,0.4-0.7,0.7-1.2,0.9c-0.5,0.2-1.1,0.3-1.8,0.3
				c-1.7,0-2.9-0.5-3.6-1.5l1.5-1.1c0.3,0.3,0.5,0.6,0.9,0.7c0.3,0.1,0.7,0.2,1,0.2c1,0,1.5-0.3,1.5-0.9c0-0.2-0.1-0.4-0.4-0.6
				c-0.3-0.1-0.7-0.3-1.3-0.4c-1.1-0.2-1.9-0.6-2.3-1c-0.5-0.4-0.7-1-0.7-1.7c0-0.7,0.3-1.3,0.9-1.8c0.6-0.5,1.4-0.7,2.5-0.7
				c0.8,0,1.4,0.1,2,0.4c0.6,0.2,1,0.6,1.3,1.1l-1.5,1.1c-0.4-0.6-1-0.8-1.8-0.8c-0.4,0-0.7,0.1-1,0.2c-0.2,0.1-0.3,0.3-0.3,0.6
				c0,0.2,0.1,0.4,0.3,0.5c0.2,0.1,0.6,0.3,1.2,0.4c1,0.2,1.6,0.5,2,0.7c0.4,0.2,0.7,0.5,0.9,0.9
				C247.5,127.2,247.6,127.6,247.6,128.1z"/>
			<path class="st2" d="M259.3,130.5v-11h2.2v9h4.6v2.1H259.3z"/>
			<path class="st2" d="M270.6,130.5v-11h2.2v9h4.6v2.1H270.6z"/>
			<path class="st2" d="M290.7,128.7c-0.5,0.7-1.1,1.2-1.7,1.6c-0.7,0.3-1.5,0.5-2.5,0.5c-3.4,0-5.1-1.9-5.1-5.8
				c0-2,0.4-3.4,1.3-4.3c0.9-0.9,2.1-1.4,3.7-1.4c1.1,0,2,0.2,2.6,0.5c0.7,0.4,1.2,0.8,1.6,1.4l-1.7,1.4c-0.3-0.4-0.5-0.7-0.7-0.8
				c-0.2-0.2-0.5-0.3-0.7-0.4c-0.3-0.1-0.6-0.1-1-0.1c-0.9,0-1.6,0.3-2.1,0.9c-0.5,0.6-0.7,1.5-0.7,2.9c0,1.3,0.2,2.2,0.7,2.8
				c0.4,0.6,1.2,0.9,2.1,0.9c0.7,0,1.2-0.1,1.5-0.4c0.4-0.3,0.7-0.6,1-1L290.7,128.7z"/>
		</g>
	</g>
</g>
<g id="Layer_2" class="st3">
	<g class="st4">
		<g>
			<defs>
				<polygon id="SVGID_1_" points="83.8,69.7 95.2,54.3 97.1,73.4 92.1,65.8 				"/>
			</defs>
			<use xlink:href="#SVGID_1_"  style="overflow:visible;fill:#FFFFFF;"/>
			<clipPath id="SVGID_00000037651254071792226030000017972487423782087574_">
				<use xlink:href="#SVGID_1_"  style="overflow:visible;"/>
			</clipPath>
			
				<rect x="83.8" y="54.3" style="clip-path:url(#SVGID_00000037651254071792226030000017972487423782087574_);fill:#FFFFFF;" width="13.2" height="19.1"/>
		</g>
		<g>
			<defs>
				<path id="SVGID_00000018237252951094823280000013719819124084078475_" d="M43.6,127L43.6,127L43.6,127L43.6,127l-4.8,2.6l0,0h0
					c4.4,2.6,9.6,4.1,15.1,4.1c16.5,0,29.9-13.4,29.9-29.9c0-1.5-0.1-3-0.3-4.5c-1.3,2.2-2.7,4.3-4.3,6.3
					c-1,13.1-11.9,23.5-25.3,23.5c-1.5,0-3-0.1-4.4-0.4c20.1-11.1,40.4-31.4,40.2-56.3C82.7,98.3,66.8,114.1,43.6,127"/>
			</defs>
			<use xlink:href="#SVGID_00000018237252951094823280000013719819124084078475_"  style="overflow:visible;fill:#FFFFFF;"/>
			<clipPath id="SVGID_00000142175089786201405020000006166751080805144226_">
				<use xlink:href="#SVGID_00000018237252951094823280000013719819124084078475_"  style="overflow:visible;"/>
			</clipPath>
		</g>
		<path class="st6" d="M30.8,121.5c19.3-3.3,36.1-9.7,46-24.5c-17,15.8-32.7,20.1-48,21.3C29.4,119.4,30,120.5,30.8,121.5"/>
		<g>
			<defs>
				<path id="SVGID_00000095338338831857354360000006607953287292950451_" d="M29.6,104.9c0-0.4,0-0.7,0-1.1
					c0-14,11.3-25.3,25.3-25.3c8.2,0,15.4,3.9,20.1,9.9c1.1-1.1,2.1-2.2,3.1-3.3C72.6,78.3,64.3,74,54.9,74
					C38.4,74,25,87.3,25,103.8c0,1.4,0.1,2.9,0.3,4.3l0,0c25.2,9,57.8-10.2,64.4-36.5C77.8,91.7,55.8,112.2,29.6,104.9"/>
			</defs>
			<use xlink:href="#SVGID_00000095338338831857354360000006607953287292950451_"  style="overflow:visible;fill:#FFFFFF;"/>
			<clipPath id="SVGID_00000085960141575182852570000007213215225587409840_">
				<use xlink:href="#SVGID_00000095338338831857354360000006607953287292950451_"  style="overflow:visible;"/>
			</clipPath>
		</g>
		<g>
			<defs>
				<polygon id="SVGID_00000032613061731783592520000010188151433591123332_" points="83.8,69.7 95.2,54.3 92.1,65.8 				"/>
			</defs>
			<use xlink:href="#SVGID_00000032613061731783592520000010188151433591123332_"  style="overflow:visible;fill:#FFFFFF;"/>
			<clipPath id="SVGID_00000121971776320300164110000014847457468935833755_">
				<use xlink:href="#SVGID_00000032613061731783592520000010188151433591123332_"  style="overflow:visible;"/>
			</clipPath>
			
				<rect x="83.8" y="54.3" style="clip-path:url(#SVGID_00000121971776320300164110000014847457468935833755_);fill:#FFFFFF;" width="11.4" height="15.4"/>
		</g>
		<path class="st6" d="M104.5,101.1h7.2c2.4,0,4.1-0.4,5.1-1.3c1-0.9,1.5-2.1,1.5-3.8c0-1.2-0.3-2.2-0.9-3c-0.6-0.8-1.4-1.4-2.3-1.6
			c-0.6-0.2-1.8-0.2-3.5-0.2h-7.1V101.1z M100.8,115.7V87.8h10.5c1.9,0,3.3,0.1,4.3,0.3c1.4,0.2,2.5,0.7,3.5,1.3
			c0.9,0.6,1.7,1.5,2.2,2.7c0.6,1.2,0.8,2.4,0.8,3.8c0,2.4-0.8,4.4-2.3,6c-1.5,1.6-4.2,2.5-8.2,2.5h-7.2v11.4H100.8z"/>
		<path class="st6" d="M104.5,101.1h7.2c2.4,0,4.1-0.4,5.1-1.3c1-0.9,1.5-2.1,1.5-3.8c0-1.2-0.3-2.2-0.9-3c-0.6-0.8-1.4-1.4-2.3-1.6
			c-0.6-0.2-1.8-0.2-3.5-0.2h-7.1V101.1z M100.8,115.7V87.8h10.5c1.9,0,3.3,0.1,4.3,0.3c1.4,0.2,2.5,0.7,3.5,1.3
			c0.9,0.6,1.7,1.5,2.2,2.7c0.6,1.2,0.8,2.4,0.8,3.8c0,2.4-0.8,4.4-2.3,6c-1.5,1.6-4.2,2.5-8.2,2.5h-7.2v11.4H100.8z"/>
		<path class="st6" d="M146.8,105.9l3.7,0.9c-0.8,3-2.2,5.4-4.2,6.9c-2,1.6-4.5,2.4-7.4,2.4c-3,0-5.5-0.6-7.3-1.8
			c-1.9-1.2-3.3-3-4.3-5.3c-1-2.3-1.5-4.8-1.5-7.5c0-2.9,0.6-5.4,1.7-7.6c1.1-2.2,2.7-3.8,4.7-4.9c2.1-1.1,4.3-1.7,6.8-1.7
			c2.8,0,5.1,0.7,7.1,2.1c1.9,1.4,3.2,3.4,4,6l-3.6,0.9c-0.6-2-1.6-3.5-2.8-4.4c-1.2-0.9-2.8-1.4-4.7-1.4c-2.1,0-3.9,0.5-5.4,1.5
			c-1.4,1-2.5,2.4-3,4.1c-0.6,1.7-0.9,3.5-0.9,5.4c0,2.4,0.3,4.5,1,6.2c0.7,1.8,1.8,3.1,3.2,4c1.5,0.9,3,1.3,4.7,1.3
			c2.1,0,3.8-0.6,5.3-1.8C145.3,110.1,146.3,108.3,146.8,105.9"/>
		<path class="st6" d="M146.8,105.9l3.7,0.9c-0.8,3-2.2,5.4-4.2,6.9c-2,1.6-4.5,2.4-7.4,2.4c-3,0-5.5-0.6-7.3-1.8
			c-1.9-1.2-3.3-3-4.3-5.3c-1-2.3-1.5-4.8-1.5-7.5c0-2.9,0.6-5.4,1.7-7.6c1.1-2.2,2.7-3.8,4.7-4.9c2.1-1.1,4.3-1.7,6.8-1.7
			c2.8,0,5.1,0.7,7.1,2.1c1.9,1.4,3.2,3.4,4,6l-3.6,0.9c-0.6-2-1.6-3.5-2.8-4.4c-1.2-0.9-2.8-1.4-4.7-1.4c-2.1,0-3.9,0.5-5.4,1.5
			c-1.4,1-2.5,2.4-3,4.1c-0.6,1.7-0.9,3.5-0.9,5.4c0,2.4,0.3,4.5,1,6.2c0.7,1.8,1.8,3.1,3.2,4c1.5,0.9,3,1.3,4.7,1.3
			c2.1,0,3.8-0.6,5.3-1.8C145.3,110.1,146.3,108.3,146.8,105.9z"/>
		<rect x="155.7" y="87.8" class="st6" width="3.7" height="27.9"/>
		<rect x="155.7" y="87.8" class="st6" width="3.7" height="27.9"/>
		<path class="st6" d="M177.1,104.3h9.5l-2.9-7.7c-0.9-2.4-1.6-4.3-2-5.8c-0.4,1.8-0.9,3.6-1.5,5.3L177.1,104.3z M169,115.7
			l10.7-27.9h4l11.4,27.9H191l-3.3-8.5H176l-3.1,8.5H169z"/>
		<path class="st6" d="M177.1,104.3h9.5l-2.9-7.7c-0.9-2.4-1.6-4.3-2-5.8c-0.4,1.8-0.9,3.6-1.5,5.3L177.1,104.3z M169,115.7
			l10.7-27.9h4l11.4,27.9H191l-3.3-8.5H176l-3.1,8.5H169z"/>
		<path class="st6" d="M202.6,115.7l-7.7-20.2h3.6l4.3,12.1c0.5,1.3,0.9,2.7,1.3,4.1c0.3-1.1,0.7-2.4,1.3-3.9l4.5-12.4h3.5
			l-7.7,20.2H202.6z"/>
		<path class="st6" d="M202.6,115.7l-7.7-20.2h3.6l4.3,12.1c0.5,1.3,0.9,2.7,1.3,4.1c0.3-1.1,0.7-2.4,1.3-3.9l4.5-12.4h3.5
			l-7.7,20.2H202.6z"/>
		<path class="st6" d="M216.5,95.5h3.4v20.2h-3.4V95.5z M216.5,87.8h3.4v3.9h-3.4V87.8z"/>
		<path class="st6" d="M216.5,95.5h3.4v20.2h-3.4V95.5z M216.5,87.8h3.4v3.9h-3.4V87.8z"/>
		<path class="st6" d="M238.1,105.6c-1.2,0.5-3.1,0.9-5.6,1.3c-1.4,0.2-2.4,0.4-3,0.7c-0.6,0.3-1,0.6-1.4,1.1
			c-0.3,0.5-0.5,1-0.5,1.6c0,0.9,0.3,1.7,1,2.3c0.7,0.6,1.7,0.9,3,0.9c1.3,0,2.5-0.3,3.5-0.9c1-0.6,1.8-1.4,2.3-2.4
			c0.4-0.8,0.6-1.9,0.6-3.4V105.6z M238.4,113.2c-1.3,1.1-2.5,1.8-3.7,2.3c-1.2,0.4-2.4,0.7-3.8,0.7c-2.2,0-3.9-0.5-5.1-1.6
			c-1.2-1.1-1.8-2.5-1.8-4.2c0-1,0.2-1.9,0.7-2.7c0.5-0.8,1-1.5,1.8-2c0.7-0.5,1.6-0.9,2.5-1.1c0.7-0.2,1.7-0.3,3-0.5
			c2.8-0.3,4.8-0.7,6.1-1.2c0-0.5,0-0.8,0-0.9c0-1.4-0.3-2.4-1-3c-0.9-0.8-2.2-1.2-3.9-1.2c-1.6,0-2.8,0.3-3.6,0.8
			c-0.8,0.6-1.3,1.6-1.7,3l-3.4-0.5c0.3-1.4,0.8-2.6,1.5-3.5c0.7-0.9,1.7-1.6,3-2c1.3-0.5,2.9-0.7,4.6-0.7c1.7,0,3.1,0.2,4.2,0.6
			s1.9,0.9,2.4,1.5c0.5,0.6,0.9,1.4,1.1,2.3c0.1,0.6,0.2,1.6,0.2,3.2v4.6c0,3.2,0.1,5.2,0.2,6.1c0.1,0.8,0.4,1.7,0.9,2.4h-3.6
			C238.7,115,238.5,114.2,238.4,113.2"/>
		<path class="st6" d="M238.1,105.6c-1.2,0.5-3.1,0.9-5.6,1.3c-1.4,0.2-2.4,0.4-3,0.7c-0.6,0.3-1,0.6-1.4,1.1
			c-0.3,0.5-0.5,1-0.5,1.6c0,0.9,0.3,1.7,1,2.3c0.7,0.6,1.7,0.9,3,0.9c1.3,0,2.5-0.3,3.5-0.9c1-0.6,1.8-1.4,2.3-2.4
			c0.4-0.8,0.6-1.9,0.6-3.4V105.6z M238.4,113.2c-1.3,1.1-2.5,1.8-3.7,2.3c-1.2,0.4-2.4,0.7-3.8,0.7c-2.2,0-3.9-0.5-5.1-1.6
			c-1.2-1.1-1.8-2.5-1.8-4.2c0-1,0.2-1.9,0.7-2.7c0.5-0.8,1-1.5,1.8-2c0.7-0.5,1.6-0.9,2.5-1.1c0.7-0.2,1.7-0.3,3-0.5
			c2.8-0.3,4.8-0.7,6.1-1.2c0-0.5,0-0.8,0-0.9c0-1.4-0.3-2.4-1-3c-0.9-0.8-2.2-1.2-3.9-1.2c-1.6,0-2.8,0.3-3.6,0.8
			c-0.8,0.6-1.3,1.6-1.7,3l-3.4-0.5c0.3-1.4,0.8-2.6,1.5-3.5c0.7-0.9,1.7-1.6,3-2c1.3-0.5,2.9-0.7,4.6-0.7c1.7,0,3.1,0.2,4.2,0.6
			s1.9,0.9,2.4,1.5c0.5,0.6,0.9,1.4,1.1,2.3c0.1,0.6,0.2,1.6,0.2,3.2v4.6c0,3.2,0.1,5.2,0.2,6.1c0.1,0.8,0.4,1.7,0.9,2.4h-3.6
			C238.7,115,238.5,114.2,238.4,113.2z"/>
		<path class="st6" d="M254.4,112.7l0.5,3c-1,0.2-1.8,0.3-2.6,0.3c-1.2,0-2.2-0.2-2.9-0.6c-0.7-0.4-1.2-0.9-1.4-1.6
			c-0.3-0.6-0.4-2-0.4-4.1V98.2H245v-2.7h2.5v-5l3.4-2.1v7.1h3.5v2.7h-3.5V110c0,1,0.1,1.6,0.2,1.9c0.1,0.3,0.3,0.5,0.6,0.7
			c0.3,0.2,0.7,0.2,1.2,0.2C253.3,112.8,253.8,112.7,254.4,112.7"/>
		<path class="st6" d="M254.4,112.7l0.5,3c-1,0.2-1.8,0.3-2.6,0.3c-1.2,0-2.2-0.2-2.9-0.6c-0.7-0.4-1.2-0.9-1.4-1.6
			c-0.3-0.6-0.4-2-0.4-4.1V98.2H245v-2.7h2.5v-5l3.4-2.1v7.1h3.5v2.7h-3.5V110c0,1,0.1,1.6,0.2,1.9c0.1,0.3,0.3,0.5,0.6,0.7
			c0.3,0.2,0.7,0.2,1.2,0.2C253.3,112.8,253.8,112.7,254.4,112.7z"/>
		<path class="st6" d="M257.7,95.5h3.4v20.2h-3.4V95.5z M257.7,87.8h3.4v3.9h-3.4V87.8z"/>
		<path class="st6" d="M257.7,95.5h3.4v20.2h-3.4V95.5z M257.7,87.8h3.4v3.9h-3.4V87.8z"/>
		<path class="st6" d="M268.7,105.6c0,2.6,0.6,4.5,1.7,5.8c1.1,1.3,2.6,1.9,4.3,1.9c1.7,0,3.1-0.6,4.3-1.9c1.1-1.3,1.7-3.3,1.7-5.9
			c0-2.5-0.6-4.4-1.7-5.7c-1.1-1.3-2.6-1.9-4.2-1.9c-1.7,0-3.1,0.6-4.3,1.9C269.2,101.1,268.7,103,268.7,105.6 M265.1,105.6
			c0-3.7,1-6.5,3.1-8.3c1.7-1.5,3.9-2.2,6.4-2.2c2.8,0,5.1,0.9,6.8,2.7c1.8,1.8,2.6,4.3,2.6,7.6c0,2.6-0.4,4.7-1.2,6.1
			c-0.8,1.5-1.9,2.7-3.4,3.5c-1.5,0.8-3.1,1.2-4.9,1.2c-2.8,0-5.1-0.9-6.9-2.7C266,111.6,265.1,109,265.1,105.6"/>
		<path class="st6" d="M268.7,105.6c0,2.6,0.6,4.5,1.7,5.8c1.1,1.3,2.6,1.9,4.3,1.9c1.7,0,3.1-0.6,4.3-1.9c1.1-1.3,1.7-3.3,1.7-5.9
			c0-2.5-0.6-4.4-1.7-5.7c-1.1-1.3-2.6-1.9-4.2-1.9c-1.7,0-3.1,0.6-4.3,1.9C269.2,101.1,268.7,103,268.7,105.6z M265.1,105.6
			c0-3.7,1-6.5,3.1-8.3c1.7-1.5,3.9-2.2,6.4-2.2c2.8,0,5.1,0.9,6.8,2.7c1.8,1.8,2.6,4.3,2.6,7.6c0,2.6-0.4,4.7-1.2,6.1
			c-0.8,1.5-1.9,2.7-3.4,3.5c-1.5,0.8-3.1,1.2-4.9,1.2c-2.8,0-5.1-0.9-6.9-2.7C266,111.6,265.1,109,265.1,105.6z"/>
		<path class="st6" d="M288.1,115.7V95.5h3.1v2.9c1.5-2.2,3.6-3.3,6.4-3.3c1.2,0,2.3,0.2,3.4,0.7c1,0.4,1.8,1,2.3,1.7
			c0.5,0.7,0.9,1.6,1.1,2.5c0.1,0.6,0.2,1.7,0.2,3.3v12.4h-3.4v-12.3c0-1.4-0.1-2.4-0.4-3.1c-0.3-0.7-0.7-1.2-1.4-1.7
			c-0.7-0.4-1.5-0.6-2.4-0.6c-1.5,0-2.7,0.5-3.8,1.4c-1.1,0.9-1.6,2.7-1.6,5.3v11.1H288.1z"/>
		<path class="st6" d="M288.1,115.7V95.5h3.1v2.9c1.5-2.2,3.6-3.3,6.4-3.3c1.2,0,2.3,0.2,3.4,0.7c1,0.4,1.8,1,2.3,1.7
			c0.5,0.7,0.9,1.6,1.1,2.5c0.1,0.6,0.2,1.7,0.2,3.3v12.4h-3.4v-12.3c0-1.4-0.1-2.4-0.4-3.1c-0.3-0.7-0.7-1.2-1.4-1.7
			c-0.7-0.4-1.5-0.6-2.4-0.6c-1.5,0-2.7,0.5-3.8,1.4c-1.1,0.9-1.6,2.7-1.6,5.3v11.1H288.1z"/>
	</g>
</g>
</svg>
