<?xml version="1.0" encoding="utf-8"?>
<!-- Generator: Adobe Illustrator 28.1.0, SVG Export Plug-In . SVG Version: 6.00 Build 0)  -->
<svg version="1.1" xmlns="http://www.w3.org/2000/svg" xmlns:xlink="http://www.w3.org/1999/xlink" x="0px" y="0px"
	 viewBox="0 0 328 213" style="enable-background:new 0 0 328 213;" xml:space="preserve">
<style type="text/css">
	.st0{display:none;}
	.st1{display:inline;}
	.st2{clip-path:url(#SVGID_00000054970594326843873390000001454238816505034880_);fill:#FFFFFF;}
	.st3{fill:#FFFFFF;}
	.st4{clip-path:url(#SVGID_00000067920422496959123590000005384670441997675678_);fill:#FFFFFF;}
</style>
<g id="Layer_1">
	<g>
		<g>
			<g>
				<path d="M84.1,76.2c0,12.1-9.2,20.6-22.8,20.6H47.6v25.9H36.8V55.7h24.5C74.9,55.7,84.1,64,84.1,76.2z M47.6,65.3v22.1h13.5
					c7.7,0,11.9-4.6,11.9-11c0-6.5-4.2-11.1-11.9-11.1H47.6z"/>
				<path d="M156.1,70l-8.1,6c-4.7-7.2-11.6-11.6-20.5-11.6c-13.8,0-24.2,10.5-24.2,24.8s10.4,24.8,24.2,24.8
					c8.9,0,15.9-4.4,20.5-11.6l8.1,6c-5.6,9.4-16.2,15.5-28.8,15.5C107.7,123.9,92,109,92,89.2c0-19.6,15.7-34.7,35.3-34.7
					C139.9,54.6,150.4,60.7,156.1,70z"/>
				<path d="M179.8,122.8H169V55.7h10.8V122.8z"/>
			</g>
		</g>
		<g>
			<path d="M36.9,131h5.2c2.9,0,4.9,1.8,4.9,4.4c0,2.6-2,4.4-4.9,4.4h-2.9v5.5h-2.3V131z M42.1,137.7c1.6,0,2.5-1,2.5-2.3
				c0-1.4-0.9-2.4-2.5-2.4h-2.9v4.7H42.1z"/>
			<path d="M58.6,145.3l-4.1-5.5h-2.6v5.5h-2.3V131h5.2c2.9,0,4.9,1.8,4.9,4.4c0,1.9-1,3.4-2.8,4l4.3,5.9H58.6z M51.9,137.7h2.9
				c1.6,0,2.5-1,2.5-2.3c0-1.4-0.9-2.4-2.5-2.4h-2.9V137.7z"/>
			<path d="M62.1,138.1c0-4.2,3.3-7.4,7.5-7.4c4.1,0,7.5,3.2,7.5,7.4c0,4.2-3.4,7.4-7.5,7.4C65.4,145.5,62.1,142.3,62.1,138.1z
				 M74.7,138.1c0-3-2.2-5.3-5.1-5.3c-3,0-5.1,2.2-5.1,5.3c0,3.1,2.2,5.3,5.1,5.3C72.5,143.4,74.7,141.2,74.7,138.1z"/>
			<path d="M79.8,131H89v2.1h-6.9v4.3h5.7v2.1h-5.7v5.9h-2.3V131z"/>
			<path d="M91.3,131h9.4v2.1h-7.1v3.7H99v2h-5.4v4.5h7.4v2.1h-9.7V131z"/>
			<path d="M102.6,142.4l1.6-1.2c0.8,1.2,2,2.3,3.8,2.3c1.5,0,2.5-0.8,2.5-2c0-1.1-0.8-1.6-2.1-2.1l-1.6-0.7c-1.7-0.8-3.3-1.9-3.3-4
				c0-2.4,2-3.9,4.5-3.9c2.1,0,3.8,1.1,4.6,2.6l-1.6,1.2c-0.7-1.1-1.8-1.7-3-1.7c-1.1,0-2.2,0.6-2.2,1.7c0,1.1,0.8,1.5,2,2l1.6,0.7
				c2.2,1,3.4,2.1,3.4,4.1c0,2.5-2.1,4.1-4.8,4.1C105.6,145.5,103.7,144.3,102.6,142.4z"/>
			<path d="M114.6,142.4l1.6-1.2c0.8,1.2,2,2.3,3.8,2.3c1.5,0,2.5-0.8,2.5-2c0-1.1-0.8-1.6-2.1-2.1l-1.6-0.7c-1.7-0.8-3.3-1.9-3.3-4
				c0-2.4,2-3.9,4.5-3.9c2.1,0,3.8,1.1,4.6,2.6l-1.6,1.2c-0.7-1.1-1.8-1.7-3-1.7c-1.1,0-2.2,0.6-2.2,1.7c0,1.1,0.8,1.5,2,2l1.6,0.7
				c2.2,1,3.4,2.1,3.4,4.1c0,2.5-2.1,4.1-4.8,4.1C117.7,145.5,115.7,144.3,114.6,142.4z"/>
			<path d="M127.8,131h2.3v14.3h-2.3V131z"/>
			<path d="M132.8,138.1c0-4.2,3.3-7.4,7.5-7.4c4.1,0,7.5,3.2,7.5,7.4c0,4.2-3.4,7.4-7.5,7.4C136.1,145.5,132.8,142.3,132.8,138.1z
				 M145.5,138.1c0-3-2.2-5.3-5.1-5.3c-3,0-5.1,2.2-5.1,5.3c0,3.1,2.2,5.3,5.1,5.3C143.3,143.4,145.5,141.2,145.5,138.1z"/>
			<path d="M162.4,131v14.5h-0.8l-8.7-9.9v9.7h-2.3v-14.5h0.8l8.7,9.9V131H162.4z"/>
			<path d="M174.6,142.9h-6.4l-1,2.4h-2.5l6.3-14.5h0.8l6.3,14.5h-2.5L174.6,142.9z M171.4,135l-2.4,5.9h4.8L171.4,135z"/>
			<path d="M180.4,131h2.3v12.2h6.5v2.1h-8.8V131z"/>
			<path d="M195.5,142.4l1.6-1.2c0.8,1.2,2,2.3,3.8,2.3c1.5,0,2.5-0.8,2.5-2c0-1.1-0.8-1.6-2.1-2.1l-1.6-0.7c-1.7-0.8-3.3-1.9-3.3-4
				c0-2.4,2-3.9,4.5-3.9c2.1,0,3.8,1.1,4.6,2.6l-1.6,1.2c-0.7-1.1-1.8-1.7-3-1.7c-1.1,0-2.2,0.6-2.2,1.7c0,1.1,0.8,1.5,2,2l1.6,0.7
				c2.2,1,3.4,2.1,3.4,4.1c0,2.5-2.1,4.1-4.8,4.1C198.5,145.5,196.6,144.3,195.5,142.4z"/>
			<path d="M208.6,131h9.4v2.1h-7.1v3.7h5.4v2h-5.4v4.5h7.4v2.1h-9.7V131z"/>
			<path d="M230,145.3l-4.1-5.5h-2.6v5.5H221V131h5.2c2.9,0,4.9,1.8,4.9,4.4c0,1.9-1,3.4-2.8,4l4.3,5.9H230z M223.3,137.7h2.9
				c1.6,0,2.5-1,2.5-2.3c0-1.4-0.9-2.4-2.5-2.4h-2.9V137.7z"/>
			<path d="M246,131l-6.3,14.5h-0.8l-6.3-14.5h2.6l4.1,10l4.1-10H246z"/>
			<path d="M248.2,131h2.3v14.3h-2.3V131z"/>
			<path d="M253.3,138.1c0-4.2,3.3-7.4,7.5-7.4c2.7,0,4.9,1.3,6.1,3.3l-1.7,1.3c-1-1.5-2.5-2.5-4.4-2.5c-2.9,0-5.2,2.2-5.2,5.3
				c0,3.1,2.2,5.3,5.2,5.3c1.9,0,3.4-0.9,4.4-2.5l1.7,1.3c-1.2,2-3.5,3.3-6.1,3.3C256.6,145.5,253.3,142.4,253.3,138.1z"/>
			<path d="M269.7,131h9.4v2.1H272v3.7h5.4v2H272v4.5h7.4v2.1h-9.7V131z"/>
			<path d="M281,142.4l1.6-1.2c0.8,1.2,2,2.3,3.8,2.3c1.5,0,2.5-0.8,2.5-2c0-1.1-0.8-1.6-2.1-2.1l-1.6-0.7c-1.7-0.8-3.3-1.9-3.3-4
				c0-2.4,2-3.9,4.5-3.9c2.1,0,3.8,1.1,4.6,2.6l-1.6,1.2c-0.7-1.1-1.8-1.7-3-1.7c-1.1,0-2.2,0.6-2.2,1.7c0,1.1,0.8,1.5,2,2l1.6,0.7
				c2.2,1,3.4,2.1,3.4,4.1c0,2.5-2.1,4.1-4.8,4.1C284,145.5,282.1,144.3,281,142.4z"/>
		</g>
		<path d="M290.5,56v65.7h-69.3l2.2-3.3l0.2,0.6l-0.9,2.1c0.6-0.3,1.2-0.6,1.8-0.9c0.3-0.1,0.5-0.3,0.6-0.7c0.6-1.6,1.3-3.1,2.3-4.5
			c0.1-0.1,0.3-0.2,0.4-0.2c1.3,0,2.6,0,3.9,0c1,0,2-0.2,2.8-0.7c2.1-1.1,4-2.5,5.6-4.2c3.5-3.6,5.7-7.8,7.1-12.6
			c0.2-0.5,0-0.8-0.6-0.7c-1.3,0-2.6,0.1-3.9,0.1c-0.1,0-0.2,0-0.3,0c-0.1,0-0.2-0.1-0.2-0.1c0-0.1,0.1-0.2,0.1-0.2
			c0.1-0.1,0.2-0.1,0.2-0.1c1.6-0.6,3.2-1.3,4.8-1.9c0.3-0.1,0.5-0.3,0.5-0.6c0.1-1.3,0.2-2.6,0.2-3.9c0-2.1-0.2-4.2-0.7-6.3
			c-0.3-1.1-0.6-2.3-0.9-3.4c0-0.2-0.2-0.3-0.4-0.4c-0.1,0-0.4,0.1-0.5,0.3c-1.2,2.1-2.7,3.9-4.3,5.7c-0.3,0.4-0.4,0.7-0.3,1.2
			c0.2,1,0.3,2,0.4,2.9c0,0.1-0.1,0.2-0.1,0.3c-0.1-0.1-0.2-0.1-0.3-0.2c-0.3-0.6-0.7-1.2-1-1.8c-0.2-0.4-0.5-0.4-0.8-0.1
			c-1.5,1.5-3.1,3-4.6,4.5c-2.9,2.9-5.5,6.1-7.4,9.8c-1.2,2.3-2,4.6-2.1,7.2c0,0.5,0,1,0.1,1.6c0.1-0.2,0.2-0.2,0.2-0.3
			c2.2-2.9,4.4-5.8,6.8-8.6c2-2.3,4-4.5,6.4-6.5c0.1-0.1,0.2-0.2,0.3-0.2c0.1,0,0.3,0,0.4,0.1c0,0,0,0.2,0,0.3
			c0,0.1-0.1,0.1-0.2,0.2c-1.4,1.6-2.9,3.2-4.3,4.8c-5.2,6.5-9.7,13.4-13.8,20.6h-25.2V56H290.5z M205.5,108.3h8.9V92.9h7.5
			c9.2,0,15.7-5.7,15.7-14.1c0-8.5-6.5-14.1-15.7-14.1h-16.4V108.3z M214.4,85.1V72.6h7.5c4.2,0,6.6,2.6,6.6,6.2
			c0,3.8-2.4,6.3-6.6,6.3H214.4z M266.2,109.1c8.6,0,15.2-4.9,15.2-13.1c0-6.2-3.9-9.7-10.8-12.7l-4.9-2.2c-3.2-1.5-5.1-2.5-5.1-5
			c0-2.9,2.5-4.2,5.4-4.2c3.6,0,6.2,1.8,8.3,5l6.1-4.7c-2.6-4.8-7.5-8.2-14.4-8.2c-8.2,0-14.5,4.8-14.5,12.3
			c0,6.3,4.6,9.8,10.6,12.5l4.7,2.1c3.4,1.6,5.5,2.6,5.5,5.4c0,3-2.4,4.8-6.2,4.8c-5.2,0-8.3-3-10.7-6.3l-6.1,4.6
			C252.6,105.2,258.6,109.1,266.2,109.1z"/>
	</g>
</g>
<g id="Layer_2" class="st0">
	<g class="st1">
		<g>
			<defs>
				<polygon id="SVGID_1_" points="83.8,69.7 95.2,54.3 97.1,73.4 92.1,65.8 				"/>
			</defs>
			<use xlink:href="#SVGID_1_"  style="overflow:visible;fill:#FFFFFF;"/>
			<clipPath id="SVGID_00000009577329378133426310000010495153473369231249_">
				<use xlink:href="#SVGID_1_"  style="overflow:visible;"/>
			</clipPath>
			
				<rect x="83.8" y="54.3" style="clip-path:url(#SVGID_00000009577329378133426310000010495153473369231249_);fill:#FFFFFF;" width="13.2" height="19.1"/>
		</g>
		<g>
			<defs>
				<path id="SVGID_00000069365425132945916720000011752858480734378146_" d="M43.6,127L43.6,127L43.6,127L43.6,127l-4.8,2.6l0,0h0
					c4.4,2.6,9.6,4.1,15.1,4.1c16.5,0,29.9-13.4,29.9-29.9c0-1.5-0.1-3-0.3-4.5c-1.3,2.2-2.7,4.3-4.3,6.3
					c-1,13.1-11.9,23.5-25.3,23.5c-1.5,0-3-0.1-4.4-0.4c20.1-11.1,40.4-31.4,40.2-56.3C82.7,98.3,66.8,114.1,43.6,127"/>
			</defs>
			<use xlink:href="#SVGID_00000069365425132945916720000011752858480734378146_"  style="overflow:visible;fill:#FFFFFF;"/>
			<clipPath id="SVGID_00000085228807078046831740000017963237881948660866_">
				<use xlink:href="#SVGID_00000069365425132945916720000011752858480734378146_"  style="overflow:visible;"/>
			</clipPath>
		</g>
		<path class="st3" d="M30.8,121.5c19.3-3.3,36.1-9.7,46-24.5c-17,15.8-32.7,20.1-48,21.3C29.4,119.4,30,120.5,30.8,121.5"/>
		<g>
			<defs>
				<path id="SVGID_00000142854414121002718550000011214953954437567674_" d="M29.6,104.9c0-0.4,0-0.7,0-1.1
					c0-14,11.3-25.3,25.3-25.3c8.2,0,15.4,3.9,20.1,9.9c1.1-1.1,2.1-2.2,3.1-3.3C72.6,78.3,64.3,74,54.9,74
					C38.4,74,25,87.3,25,103.8c0,1.4,0.1,2.9,0.3,4.3l0,0c25.2,9,57.8-10.2,64.4-36.5C77.8,91.7,55.8,112.2,29.6,104.9"/>
			</defs>
			<use xlink:href="#SVGID_00000142854414121002718550000011214953954437567674_"  style="overflow:visible;fill:#FFFFFF;"/>
			<clipPath id="SVGID_00000119825798338533106190000013124426297825067958_">
				<use xlink:href="#SVGID_00000142854414121002718550000011214953954437567674_"  style="overflow:visible;"/>
			</clipPath>
		</g>
		<g>
			<defs>
				<polygon id="SVGID_00000160886798141455636200000011968581365633445814_" points="83.8,69.7 95.2,54.3 92.1,65.8 				"/>
			</defs>
			<use xlink:href="#SVGID_00000160886798141455636200000011968581365633445814_"  style="overflow:visible;fill:#FFFFFF;"/>
			<clipPath id="SVGID_00000141445407900077661470000005200604918454010558_">
				<use xlink:href="#SVGID_00000160886798141455636200000011968581365633445814_"  style="overflow:visible;"/>
			</clipPath>
			
				<rect x="83.8" y="54.3" style="clip-path:url(#SVGID_00000141445407900077661470000005200604918454010558_);fill:#FFFFFF;" width="11.4" height="15.4"/>
		</g>
		<path class="st3" d="M104.5,101.1h7.2c2.4,0,4.1-0.4,5.1-1.3c1-0.9,1.5-2.1,1.5-3.8c0-1.2-0.3-2.2-0.9-3c-0.6-0.8-1.4-1.4-2.3-1.6
			c-0.6-0.2-1.8-0.2-3.5-0.2h-7.1V101.1z M100.8,115.7V87.8h10.5c1.9,0,3.3,0.1,4.3,0.3c1.4,0.2,2.5,0.7,3.5,1.3
			c0.9,0.6,1.7,1.5,2.2,2.7c0.6,1.2,0.8,2.4,0.8,3.8c0,2.4-0.8,4.4-2.3,6c-1.5,1.6-4.2,2.5-8.2,2.5h-7.2v11.4H100.8z"/>
		<path class="st3" d="M104.5,101.1h7.2c2.4,0,4.1-0.4,5.1-1.3c1-0.9,1.5-2.1,1.5-3.8c0-1.2-0.3-2.2-0.9-3c-0.6-0.8-1.4-1.4-2.3-1.6
			c-0.6-0.2-1.8-0.2-3.5-0.2h-7.1V101.1z M100.8,115.7V87.8h10.5c1.9,0,3.3,0.1,4.3,0.3c1.4,0.2,2.5,0.7,3.5,1.3
			c0.9,0.6,1.7,1.5,2.2,2.7c0.6,1.2,0.8,2.4,0.8,3.8c0,2.4-0.8,4.4-2.3,6c-1.5,1.6-4.2,2.5-8.2,2.5h-7.2v11.4H100.8z"/>
		<path class="st3" d="M146.8,105.9l3.7,0.9c-0.8,3-2.2,5.4-4.2,6.9c-2,1.6-4.5,2.4-7.4,2.4c-3,0-5.5-0.6-7.3-1.8
			c-1.9-1.2-3.3-3-4.3-5.3c-1-2.3-1.5-4.8-1.5-7.5c0-2.9,0.6-5.4,1.7-7.6c1.1-2.2,2.7-3.8,4.7-4.9c2.1-1.1,4.3-1.7,6.8-1.7
			c2.8,0,5.1,0.7,7.1,2.1c1.9,1.4,3.2,3.4,4,6l-3.6,0.9c-0.6-2-1.6-3.5-2.8-4.4c-1.2-0.9-2.8-1.4-4.7-1.4c-2.1,0-3.9,0.5-5.4,1.5
			c-1.4,1-2.5,2.4-3,4.1c-0.6,1.7-0.9,3.5-0.9,5.4c0,2.4,0.3,4.5,1,6.2c0.7,1.8,1.8,3.1,3.2,4c1.5,0.9,3,1.3,4.7,1.3
			c2.1,0,3.8-0.6,5.3-1.8C145.3,110.1,146.3,108.3,146.8,105.9"/>
		<path class="st3" d="M146.8,105.9l3.7,0.9c-0.8,3-2.2,5.4-4.2,6.9c-2,1.6-4.5,2.4-7.4,2.4c-3,0-5.5-0.6-7.3-1.8
			c-1.9-1.2-3.3-3-4.3-5.3c-1-2.3-1.5-4.8-1.5-7.5c0-2.9,0.6-5.4,1.7-7.6c1.1-2.2,2.7-3.8,4.7-4.9c2.1-1.1,4.3-1.7,6.8-1.7
			c2.8,0,5.1,0.7,7.1,2.1c1.9,1.4,3.2,3.4,4,6l-3.6,0.9c-0.6-2-1.6-3.5-2.8-4.4c-1.2-0.9-2.8-1.4-4.7-1.4c-2.1,0-3.9,0.5-5.4,1.5
			c-1.4,1-2.5,2.4-3,4.1c-0.6,1.7-0.9,3.5-0.9,5.4c0,2.4,0.3,4.5,1,6.2c0.7,1.8,1.8,3.1,3.2,4c1.5,0.9,3,1.3,4.7,1.3
			c2.1,0,3.8-0.6,5.3-1.8C145.3,110.1,146.3,108.3,146.8,105.9z"/>
		<rect x="155.7" y="87.8" class="st3" width="3.7" height="27.9"/>
		<rect x="155.7" y="87.8" class="st3" width="3.7" height="27.9"/>
		<path class="st3" d="M177.1,104.3h9.5l-2.9-7.7c-0.9-2.4-1.6-4.3-2-5.8c-0.4,1.8-0.9,3.6-1.5,5.3L177.1,104.3z M169,115.7
			l10.7-27.9h4l11.4,27.9H191l-3.3-8.5H176l-3.1,8.5H169z"/>
		<path class="st3" d="M177.1,104.3h9.5l-2.9-7.7c-0.9-2.4-1.6-4.3-2-5.8c-0.4,1.8-0.9,3.6-1.5,5.3L177.1,104.3z M169,115.7
			l10.7-27.9h4l11.4,27.9H191l-3.3-8.5H176l-3.1,8.5H169z"/>
		<path class="st3" d="M202.6,115.7l-7.7-20.2h3.6l4.3,12.1c0.5,1.3,0.9,2.7,1.3,4.1c0.3-1.1,0.7-2.4,1.3-3.9l4.5-12.4h3.5
			l-7.7,20.2H202.6z"/>
		<path class="st3" d="M202.6,115.7l-7.7-20.2h3.6l4.3,12.1c0.5,1.3,0.9,2.7,1.3,4.1c0.3-1.1,0.7-2.4,1.3-3.9l4.5-12.4h3.5
			l-7.7,20.2H202.6z"/>
		<path class="st3" d="M216.5,95.5h3.4v20.2h-3.4V95.5z M216.5,87.8h3.4v3.9h-3.4V87.8z"/>
		<path class="st3" d="M216.5,95.5h3.4v20.2h-3.4V95.5z M216.5,87.8h3.4v3.9h-3.4V87.8z"/>
		<path class="st3" d="M238.1,105.6c-1.2,0.5-3.1,0.9-5.6,1.3c-1.4,0.2-2.4,0.4-3,0.7c-0.6,0.3-1,0.6-1.4,1.1
			c-0.3,0.5-0.5,1-0.5,1.6c0,0.9,0.3,1.7,1,2.3c0.7,0.6,1.7,0.9,3,0.9c1.3,0,2.5-0.3,3.5-0.9c1-0.6,1.8-1.4,2.3-2.4
			c0.4-0.8,0.6-1.9,0.6-3.4V105.6z M238.4,113.2c-1.3,1.1-2.5,1.8-3.7,2.3c-1.2,0.4-2.4,0.7-3.8,0.7c-2.2,0-3.9-0.5-5.1-1.6
			c-1.2-1.1-1.8-2.5-1.8-4.2c0-1,0.2-1.9,0.7-2.7c0.5-0.8,1-1.5,1.8-2c0.7-0.5,1.6-0.9,2.5-1.1c0.7-0.2,1.7-0.3,3-0.5
			c2.8-0.3,4.8-0.7,6.1-1.2c0-0.5,0-0.8,0-0.9c0-1.4-0.3-2.4-1-3c-0.9-0.8-2.2-1.2-3.9-1.2c-1.6,0-2.8,0.3-3.6,0.8
			c-0.8,0.6-1.3,1.6-1.7,3l-3.4-0.5c0.3-1.4,0.8-2.6,1.5-3.5c0.7-0.9,1.7-1.6,3-2c1.3-0.5,2.9-0.7,4.6-0.7c1.7,0,3.1,0.2,4.2,0.6
			s1.9,0.9,2.4,1.5c0.5,0.6,0.9,1.4,1.1,2.3c0.1,0.6,0.2,1.6,0.2,3.2v4.6c0,3.2,0.1,5.2,0.2,6.1c0.1,0.8,0.4,1.7,0.9,2.4h-3.6
			C238.7,115,238.5,114.2,238.4,113.2"/>
		<path class="st3" d="M238.1,105.6c-1.2,0.5-3.1,0.9-5.6,1.3c-1.4,0.2-2.4,0.4-3,0.7c-0.6,0.3-1,0.6-1.4,1.1
			c-0.3,0.5-0.5,1-0.5,1.6c0,0.9,0.3,1.7,1,2.3c0.7,0.6,1.7,0.9,3,0.9c1.3,0,2.5-0.3,3.5-0.9c1-0.6,1.8-1.4,2.3-2.4
			c0.4-0.8,0.6-1.9,0.6-3.4V105.6z M238.4,113.2c-1.3,1.1-2.5,1.8-3.7,2.3c-1.2,0.4-2.4,0.7-3.8,0.7c-2.2,0-3.9-0.5-5.1-1.6
			c-1.2-1.1-1.8-2.5-1.8-4.2c0-1,0.2-1.9,0.7-2.7c0.5-0.8,1-1.5,1.8-2c0.7-0.5,1.6-0.9,2.5-1.1c0.7-0.2,1.7-0.3,3-0.5
			c2.8-0.3,4.8-0.7,6.1-1.2c0-0.5,0-0.8,0-0.9c0-1.4-0.3-2.4-1-3c-0.9-0.8-2.2-1.2-3.9-1.2c-1.6,0-2.8,0.3-3.6,0.8
			c-0.8,0.6-1.3,1.6-1.7,3l-3.4-0.5c0.3-1.4,0.8-2.6,1.5-3.5c0.7-0.9,1.7-1.6,3-2c1.3-0.5,2.9-0.7,4.6-0.7c1.7,0,3.1,0.2,4.2,0.6
			s1.9,0.9,2.4,1.5c0.5,0.6,0.9,1.4,1.1,2.3c0.1,0.6,0.2,1.6,0.2,3.2v4.6c0,3.2,0.1,5.2,0.2,6.1c0.1,0.8,0.4,1.7,0.9,2.4h-3.6
			C238.7,115,238.5,114.2,238.4,113.2z"/>
		<path class="st3" d="M254.4,112.7l0.5,3c-1,0.2-1.8,0.3-2.6,0.3c-1.2,0-2.2-0.2-2.9-0.6c-0.7-0.4-1.2-0.9-1.4-1.6
			c-0.3-0.6-0.4-2-0.4-4.1V98.2H245v-2.7h2.5v-5l3.4-2.1v7.1h3.5v2.7h-3.5V110c0,1,0.1,1.6,0.2,1.9c0.1,0.3,0.3,0.5,0.6,0.7
			c0.3,0.2,0.7,0.2,1.2,0.2C253.3,112.8,253.8,112.7,254.4,112.7"/>
		<path class="st3" d="M254.4,112.7l0.5,3c-1,0.2-1.8,0.3-2.6,0.3c-1.2,0-2.2-0.2-2.9-0.6c-0.7-0.4-1.2-0.9-1.4-1.6
			c-0.3-0.6-0.4-2-0.4-4.1V98.2H245v-2.7h2.5v-5l3.4-2.1v7.1h3.5v2.7h-3.5V110c0,1,0.1,1.6,0.2,1.9c0.1,0.3,0.3,0.5,0.6,0.7
			c0.3,0.2,0.7,0.2,1.2,0.2C253.3,112.8,253.8,112.7,254.4,112.7z"/>
		<path class="st3" d="M257.7,95.5h3.4v20.2h-3.4V95.5z M257.7,87.8h3.4v3.9h-3.4V87.8z"/>
		<path class="st3" d="M257.7,95.5h3.4v20.2h-3.4V95.5z M257.7,87.8h3.4v3.9h-3.4V87.8z"/>
		<path class="st3" d="M268.7,105.6c0,2.6,0.6,4.5,1.7,5.8c1.1,1.3,2.6,1.9,4.3,1.9c1.7,0,3.1-0.6,4.3-1.9c1.1-1.3,1.7-3.3,1.7-5.9
			c0-2.5-0.6-4.4-1.7-5.7c-1.1-1.3-2.6-1.9-4.2-1.9c-1.7,0-3.1,0.6-4.3,1.9C269.2,101.1,268.7,103,268.7,105.6 M265.1,105.6
			c0-3.7,1-6.5,3.1-8.3c1.7-1.5,3.9-2.2,6.4-2.2c2.8,0,5.1,0.9,6.8,2.7c1.8,1.8,2.6,4.3,2.6,7.6c0,2.6-0.4,4.7-1.2,6.1
			c-0.8,1.5-1.9,2.7-3.4,3.5c-1.5,0.8-3.1,1.2-4.9,1.2c-2.8,0-5.1-0.9-6.9-2.7C266,111.6,265.1,109,265.1,105.6"/>
		<path class="st3" d="M268.7,105.6c0,2.6,0.6,4.5,1.7,5.8c1.1,1.3,2.6,1.9,4.3,1.9c1.7,0,3.1-0.6,4.3-1.9c1.1-1.3,1.7-3.3,1.7-5.9
			c0-2.5-0.6-4.4-1.7-5.7c-1.1-1.3-2.6-1.9-4.2-1.9c-1.7,0-3.1,0.6-4.3,1.9C269.2,101.1,268.7,103,268.7,105.6z M265.1,105.6
			c0-3.7,1-6.5,3.1-8.3c1.7-1.5,3.9-2.2,6.4-2.2c2.8,0,5.1,0.9,6.8,2.7c1.8,1.8,2.6,4.3,2.6,7.6c0,2.6-0.4,4.7-1.2,6.1
			c-0.8,1.5-1.9,2.7-3.4,3.5c-1.5,0.8-3.1,1.2-4.9,1.2c-2.8,0-5.1-0.9-6.9-2.7C266,111.6,265.1,109,265.1,105.6z"/>
		<path class="st3" d="M288.1,115.7V95.5h3.1v2.9c1.5-2.2,3.6-3.3,6.4-3.3c1.2,0,2.3,0.2,3.4,0.7c1,0.4,1.8,1,2.3,1.7
			c0.5,0.7,0.9,1.6,1.1,2.5c0.1,0.6,0.2,1.7,0.2,3.3v12.4h-3.4v-12.3c0-1.4-0.1-2.4-0.4-3.1c-0.3-0.7-0.7-1.2-1.4-1.7
			c-0.7-0.4-1.5-0.6-2.4-0.6c-1.5,0-2.7,0.5-3.8,1.4c-1.1,0.9-1.6,2.7-1.6,5.3v11.1H288.1z"/>
		<path class="st3" d="M288.1,115.7V95.5h3.1v2.9c1.5-2.2,3.6-3.3,6.4-3.3c1.2,0,2.3,0.2,3.4,0.7c1,0.4,1.8,1,2.3,1.7
			c0.5,0.7,0.9,1.6,1.1,2.5c0.1,0.6,0.2,1.7,0.2,3.3v12.4h-3.4v-12.3c0-1.4-0.1-2.4-0.4-3.1c-0.3-0.7-0.7-1.2-1.4-1.7
			c-0.7-0.4-1.5-0.6-2.4-0.6c-1.5,0-2.7,0.5-3.8,1.4c-1.1,0.9-1.6,2.7-1.6,5.3v11.1H288.1z"/>
	</g>
</g>
</svg>
