<?xml version="1.0" encoding="utf-8"?>
<!-- Generator: Adobe Illustrator 28.1.0, SVG Export Plug-In . SVG Version: 6.00 Build 0)  -->
<svg version="1.1" xmlns="http://www.w3.org/2000/svg" xmlns:xlink="http://www.w3.org/1999/xlink" x="0px" y="0px"
	 viewBox="0 0 328 213" style="enable-background:new 0 0 328 213;" xml:space="preserve">
<style type="text/css">
	.st0{fill:#FFFFFF;}
	.st1{display:none;}
	.st2{display:inline;}
	.st3{clip-path:url(#SVGID_00000129186715658334844100000009750436909376161667_);fill:#FFFFFF;}
	.st4{clip-path:url(#SVGID_00000008858944283469507580000009393440357232277423_);fill:#FFFFFF;}
</style>
<g id="Layer_1">
	<g>
		<g>
			<path class="st0" d="M266.6,109.2c0,2-1.2,2.8-3,2.8c-0.5,0-1.1-0.1-1.5-0.2v-1.5c0.4,0,0.8,0.1,1.1,0.1c1.1,0,1.7-0.3,1.7-1.4
				v-7.8h1.7V109.2z"/>
			<path class="st0" d="M277.6,101.2l-4.7,10.8h-0.6l-4.7-10.8h1.9l3.1,7.4l3.1-7.4H277.6z"/>
			<path class="st0" d="M283.4,110.3h4.9v1.5h-6.6v-10.7h1.7V110.3z"/>
			<path class="st0" d="M291,110.3h4.9v1.5h-6.6v-10.7h1.7V110.3z"/>
			<path class="st0" d="M306.2,103.4l-1.3,1c-0.7-1.1-1.8-1.8-3.3-1.8c-2.2,0-3.8,1.7-3.8,3.9c0,2.3,1.6,3.9,3.8,3.9
				c1.4,0,2.5-0.7,3.3-1.8l1.3,1c-0.9,1.5-2.6,2.5-4.6,2.5c-3.1,0-5.6-2.4-5.6-5.5c0-3.1,2.5-5.5,5.6-5.5
				C303.6,101,305.3,101.9,306.2,103.4z"/>
		</g>
		<g>
			<g>
				<path class="st0" d="M50.5,86c0,6.4-4.9,11-12.1,11H31v14.7h-5.7V75.1h13C45.6,75.1,50.5,79.6,50.5,86z M31,80.2v11.7h7.2
					c4.1,0,6.3-2.4,6.3-5.8c0-3.5-2.2-5.9-6.3-5.9H31z"/>
				<path class="st0" d="M88.8,83.7l-4.3,3.2c-2.5-3.8-6.2-6.2-10.9-6.2c-7.4,0-12.9,5.6-12.9,13.2c0,7.6,5.5,13.2,12.9,13.2
					c4.8,0,8.4-2.3,10.9-6.2l4.3,3.2c-3,5-8.6,8.2-15.3,8.2c-10.4,0-18.8-8-18.8-18.4c0-10.4,8.3-18.4,18.8-18.4
					C80.2,75.5,85.7,78.7,88.8,83.7z"/>
				<path class="st0" d="M101.4,111.8h-5.7V75.2h5.7V111.8z"/>
			</g>
			<g>
				<path class="st0" d="M205,91.5c0-3.8-3.4-7-7.2-7c-6.3,0-12.6,0-18.8,0c-0.3,0-0.5,0-0.8,0.1v5.3h0.9c6.2,0,12.4,0,18.6,0
					c0.9,0,1.9,0.7,2,1.6c0.1,0.8,0,1.6,0,2.4c-0.4,0-0.7,0.1-1,0.1c-0.8,0-1.6-0.1-2.4-0.1c-4.2,0-8.5,0-12.7,0
					c-3,0-5.2,1.5-6.6,4.1c-1.3,2.5-1,5.2-0.7,7.8c0.5,3.7,3.7,6.2,7.4,6.2H205c0-0.2,0.1-0.4,0.1-0.5
					C205,104.8,205.1,98.2,205,91.5z M199.6,106.4c-0.3,0-0.6,0.1-0.9,0.1c-5,0-10,0-15,0c-1.6,0-2.4-0.8-2.4-2.4c0-0.9,0-1.7,0-2.6
					c0-1.2,0.9-2.2,2.1-2.2l15.6,0c0.2,0,0.4,0,0.6,0.1V106.4z"/>
				<path class="st0" d="M237.4,100.5c4.9,0,9.8,0,14.7,0c3.1,0,5.2-1.5,6.7-4.1c0.9-1.6,0.8-3.3,0.7-5c-0.1-3.7-3.3-7-7-7
					c-4.8,0-9.6,0-14.5,0c-3.8,0-7.1,3.5-7.1,7.2c0,4.4,0,8.7,0,13.1c0,3.8,3.4,7.2,7.2,7.2c6.4,0,12.9,0,19.3,0c0.3,0,0.5,0,0.8,0
					v-5.3h-0.9c-6.3,0-12.6,0-18.9,0c-1,0-2-0.7-2.1-1.6c-0.1-1.4,0-2.9,0-4.4H237.4z M236.4,91.3c0.1-0.8,1-1.6,1.9-1.6
					c4.6,0,9.3,0,13.9,0c0.9,0,1.9,0.8,1.9,1.7c0.1,1.1,0.4,2.3-0.7,3.1c-0.4,0.3-0.8,0.5-1.2,0.5c-5.1,0-10.2,0-15.3,0
					c-0.1,0-0.2,0-0.4-0.1C236.4,93.8,236.4,92.6,236.4,91.3z"/>
				<path class="st0" d="M171.3,111.9c0-0.2,0.1-0.4,0.1-0.5c0-6.6,0-13.1,0-19.7c0-3.9-3.4-7.1-7.3-7.1c-4.9,0-9.8,0-14.7,0
					c-0.3,0-0.6,0-1.1-0.1c0-3.1,0-6.2,0-9.3c-1.9,0-3.6,0-5.3,0c0,12.2,0,24.4,0,36.6c1.8,0,3.5,0,5.4,0c0-7.3,0-14.6,0-21.9
					c0.3,0,0.6,0,0.8,0c4.8,0,9.6,0,14.5,0c1.6,0,2.4,0.9,2.4,2.4c0,6.3,0,12.5,0,18.8c0,0.3,0,0.5,0,0.8
					C167.8,111.9,169.5,111.9,171.3,111.9z"/>
				<path class="st0" d="M226.8,89.9c0-1.9,0-3.6,0-5.5c-2.4,0-4.7,0-7.1,0c0-3.2,0-6.2,0-9.3c-1.8,0-3.5,0-5.4,0c0,3.1,0,6.2,0,9.4
					c-1.8,0-3.5,0-5.2,0c0,1.9,0,3.6,0,5.4c1.8,0,3.5,0,5.2,0c0,0.4,0,0.7,0,0.9c0,4.5,0,9.1,0,13.6c0,3,1.5,5.1,4,6.5
					c1.1,0.6,2.2,0.9,3.5,0.8c1.5,0,2.9,0,4.4,0c0-1.8,0-3.6,0-5.3c-0.1,0-0.2-0.1-0.3-0.1c-1.3,0-2.6,0-3.9,0
					c-1.5,0-2.3-0.8-2.3-2.4c0-4.4,0-8.8,0-13.3c0-0.3,0-0.5,0-0.9C222.1,89.9,224.5,89.9,226.8,89.9z"/>
				<path class="st0" d="M205,91.5c0-3.8-3.4-7-7.2-7c-6.3,0-12.6,0-18.8,0c-0.3,0-0.5,0-0.8,0.1v5.3h0.9c6.2,0,12.4,0,18.6,0
					c0.9,0,1.9,0.7,2,1.6c0.1,0.8,0,1.6,0,2.4c-0.4,0-0.7,0.1-1,0.1c-0.8,0-1.6-0.1-2.4-0.1c-4.2,0-8.5,0-12.7,0
					c-3,0-5.2,1.5-6.6,4.1c-1.3,2.5-1,5.2-0.7,7.8c0.5,3.7,3.7,6.2,7.4,6.2H205c0-0.2,0.1-0.4,0.1-0.5
					C205,104.8,205.1,98.2,205,91.5z M199.6,106.4c-0.3,0-0.6,0.1-0.9,0.1c-5,0-10,0-15,0c-1.6,0-2.4-0.8-2.4-2.4c0-0.9,0-1.7,0-2.6
					c0-1.2,0.9-2.2,2.1-2.2l15.6,0c0.2,0,0.4,0,0.6,0.1V106.4z"/>
				<path class="st0" d="M109.9,111.9c0-12.3,0-24.5,0-36.7c1.8,0,3.5,0,5.3,0c0,3,0,6,0,9c0.3,0,0.6,0.1,0.8,0.1
					c4.6,0.1,9.1,0.1,13.7,0.2c4,0,7.1,2.3,7.8,6c0.1,0.4,0.1,0.9,0.1,1.3c0,4.3,0,8.6,0,12.9c0,3.9-3.3,7.2-7.2,7.2
					c-6.6,0-13.1,0-19.7,0C110.5,111.9,110.3,111.9,109.9,111.9z M115.3,106.5c0.3,0,0.5,0.1,0.7,0.1c4.7,0,9.5,0,14.2,0
					c1.2,0,2.1-0.9,2.1-2.2c0-4-0.1-8,0-11.9c0-1.4-0.9-2.6-2.6-2.5c-4.5,0.1-9,0-13.6,0c-0.3,0-0.6,0-0.9,0.1
					C115.3,95.5,115.3,100.9,115.3,106.5z"/>
				<path class="st0" d="M237.4,100.5c4.9,0,9.8,0,14.7,0c3.1,0,5.2-1.5,6.7-4.1c0.9-1.6,0.8-3.3,0.7-5c-0.1-3.7-3.3-7-7-7
					c-4.8,0-9.6,0-14.5,0c-3.8,0-7.1,3.5-7.1,7.2c0,4.4,0,8.7,0,13.1c0,3.8,3.4,7.2,7.2,7.2c6.4,0,12.9,0,19.3,0c0.3,0,0.5,0,0.8,0
					v-5.3h-0.9c-6.3,0-12.6,0-18.9,0c-1,0-2-0.7-2.1-1.6c-0.1-1.4,0-2.9,0-4.4H237.4z M236.4,91.3c0.1-0.8,1-1.6,1.9-1.6
					c4.6,0,9.3,0,13.9,0c0.9,0,1.9,0.8,1.9,1.7c0.1,1.1,0.4,2.3-0.7,3.1c-0.4,0.3-0.8,0.5-1.2,0.5c-5.1,0-10.2,0-15.3,0
					c-0.1,0-0.2,0-0.4-0.1C236.4,93.8,236.4,92.6,236.4,91.3z"/>
				<path class="st0" d="M171.3,111.9c-1.8,0-3.5,0-5.3,0c0-0.3,0-0.6,0-0.8c0-6.3,0-12.5,0-18.8c0-1.5-0.8-2.4-2.4-2.4
					c-4.8,0-9.6,0-14.5,0c-0.2,0-0.5,0-0.8,0c0,7.3,0,14.6,0,21.9c-1.9,0-3.6,0-5.4,0c0-12.2,0-24.4,0-36.6c1.7,0,3.5,0,5.3,0
					c0,3.1,0,6.1,0,9.3c0.4,0,0.7,0.1,1.1,0.1c4.9,0,9.8,0,14.7,0c4,0,7.3,3.2,7.3,7.1c0.1,6.6,0,13.1,0,19.7
					C171.4,111.5,171.3,111.7,171.3,111.9z"/>
				<path class="st0" d="M226.8,89.9c-2.3,0-4.7,0-7,0c0,0.3,0,0.6,0,0.9c0,4.4,0,8.8,0,13.3c0,1.5,0.8,2.4,2.3,2.4
					c1.3,0,2.6,0,3.9,0c0.1,0,0.1,0,0.3,0.1c0,1.7,0,3.5,0,5.3c-1.5,0-2.9,0-4.4,0c-1.2,0-2.4-0.2-3.5-0.8c-2.5-1.5-4-3.5-4-6.5
					c0-4.5,0-9.1,0-13.6c0-0.3,0-0.6,0-0.9c-1.8,0-3.5,0-5.2,0c0-1.8,0-3.6,0-5.4c1.7,0,3.4,0,5.2,0c0-3.2,0-6.3,0-9.4
					c1.8,0,3.5,0,5.4,0c0,3.1,0,6.1,0,9.3c2.4,0,4.7,0,7.1,0C226.8,86.3,226.8,88.1,226.8,89.9z"/>
			</g>
			<rect x="104.9" y="75.1" class="st0" width="1.4" height="37.3"/>
		</g>
	</g>
</g>
<g id="Layer_2" class="st1">
	<g class="st2">
		<g>
			<defs>
				<polygon id="SVGID_1_" points="83.8,69.7 95.2,54.3 97.1,73.4 92.1,65.8 				"/>
			</defs>
			<use xlink:href="#SVGID_1_"  style="overflow:visible;fill:#FFFFFF;"/>
			<clipPath id="SVGID_00000093871548769271749710000004696764668022398638_">
				<use xlink:href="#SVGID_1_"  style="overflow:visible;"/>
			</clipPath>
			
				<rect x="83.8" y="54.3" style="clip-path:url(#SVGID_00000093871548769271749710000004696764668022398638_);fill:#FFFFFF;" width="13.2" height="19.1"/>
		</g>
		<g>
			<defs>
				<path id="SVGID_00000042697697178523745530000001701729837877863088_" d="M43.6,127L43.6,127L43.6,127L43.6,127l-4.8,2.6l0,0h0
					c4.4,2.6,9.6,4.1,15.1,4.1c16.5,0,29.9-13.4,29.9-29.9c0-1.5-0.1-3-0.3-4.5c-1.3,2.2-2.7,4.3-4.3,6.3
					c-1,13.1-11.9,23.5-25.3,23.5c-1.5,0-3-0.1-4.4-0.4c20.1-11.1,40.4-31.4,40.2-56.3C82.7,98.3,66.8,114.1,43.6,127"/>
			</defs>
			<use xlink:href="#SVGID_00000042697697178523745530000001701729837877863088_"  style="overflow:visible;fill:#FFFFFF;"/>
			<clipPath id="SVGID_00000036216768472795029220000008254241273200331935_">
				<use xlink:href="#SVGID_00000042697697178523745530000001701729837877863088_"  style="overflow:visible;"/>
			</clipPath>
		</g>
		<path class="st0" d="M30.8,121.5c19.3-3.3,36.1-9.7,46-24.5c-17,15.8-32.7,20.1-48,21.3C29.4,119.4,30,120.5,30.8,121.5"/>
		<g>
			<defs>
				<path id="SVGID_00000101785841934141145140000018074815043123257736_" d="M29.6,104.9c0-0.4,0-0.7,0-1.1
					c0-14,11.3-25.3,25.3-25.3c8.2,0,15.4,3.9,20.1,9.9c1.1-1.1,2.1-2.2,3.1-3.3C72.6,78.3,64.3,74,54.9,74
					C38.4,74,25,87.3,25,103.8c0,1.4,0.1,2.9,0.3,4.3l0,0c25.2,9,57.8-10.2,64.4-36.5C77.8,91.7,55.8,112.2,29.6,104.9"/>
			</defs>
			<use xlink:href="#SVGID_00000101785841934141145140000018074815043123257736_"  style="overflow:visible;fill:#FFFFFF;"/>
			<clipPath id="SVGID_00000152241922801833867070000010001335103933121196_">
				<use xlink:href="#SVGID_00000101785841934141145140000018074815043123257736_"  style="overflow:visible;"/>
			</clipPath>
		</g>
		<g>
			<defs>
				<polygon id="SVGID_00000088845186314668210670000003147256486920719008_" points="83.8,69.7 95.2,54.3 92.1,65.8 				"/>
			</defs>
			<use xlink:href="#SVGID_00000088845186314668210670000003147256486920719008_"  style="overflow:visible;fill:#FFFFFF;"/>
			<clipPath id="SVGID_00000131326840125803508040000013815286329549098394_">
				<use xlink:href="#SVGID_00000088845186314668210670000003147256486920719008_"  style="overflow:visible;"/>
			</clipPath>
			
				<rect x="83.8" y="54.3" style="clip-path:url(#SVGID_00000131326840125803508040000013815286329549098394_);fill:#FFFFFF;" width="11.4" height="15.4"/>
		</g>
		<path class="st0" d="M104.5,101.1h7.2c2.4,0,4.1-0.4,5.1-1.3c1-0.9,1.5-2.1,1.5-3.8c0-1.2-0.3-2.2-0.9-3c-0.6-0.8-1.4-1.4-2.3-1.6
			c-0.6-0.2-1.8-0.2-3.5-0.2h-7.1V101.1z M100.8,115.7V87.8h10.5c1.9,0,3.3,0.1,4.3,0.3c1.4,0.2,2.5,0.7,3.5,1.3
			c0.9,0.6,1.7,1.5,2.2,2.7c0.6,1.2,0.8,2.4,0.8,3.8c0,2.4-0.8,4.4-2.3,6c-1.5,1.6-4.2,2.5-8.2,2.5h-7.2v11.4H100.8z"/>
		<path class="st0" d="M104.5,101.1h7.2c2.4,0,4.1-0.4,5.1-1.3c1-0.9,1.5-2.1,1.5-3.8c0-1.2-0.3-2.2-0.9-3c-0.6-0.8-1.4-1.4-2.3-1.6
			c-0.6-0.2-1.8-0.2-3.5-0.2h-7.1V101.1z M100.8,115.7V87.8h10.5c1.9,0,3.3,0.1,4.3,0.3c1.4,0.2,2.5,0.7,3.5,1.3
			c0.9,0.6,1.7,1.5,2.2,2.7c0.6,1.2,0.8,2.4,0.8,3.8c0,2.4-0.8,4.4-2.3,6c-1.5,1.6-4.2,2.5-8.2,2.5h-7.2v11.4H100.8z"/>
		<path class="st0" d="M146.8,105.9l3.7,0.9c-0.8,3-2.2,5.4-4.2,6.9c-2,1.6-4.5,2.4-7.4,2.4c-3,0-5.5-0.6-7.3-1.8
			c-1.9-1.2-3.3-3-4.3-5.3c-1-2.3-1.5-4.8-1.5-7.5c0-2.9,0.6-5.4,1.7-7.6c1.1-2.2,2.7-3.8,4.7-4.9c2.1-1.1,4.3-1.7,6.8-1.7
			c2.8,0,5.1,0.7,7.1,2.1c1.9,1.4,3.2,3.4,4,6l-3.6,0.9c-0.6-2-1.6-3.5-2.8-4.4c-1.2-0.9-2.8-1.4-4.7-1.4c-2.1,0-3.9,0.5-5.4,1.5
			c-1.4,1-2.5,2.4-3,4.1c-0.6,1.7-0.9,3.5-0.9,5.4c0,2.4,0.3,4.5,1,6.2c0.7,1.8,1.8,3.1,3.2,4c1.5,0.9,3,1.3,4.7,1.3
			c2.1,0,3.8-0.6,5.3-1.8C145.3,110.1,146.3,108.3,146.8,105.9"/>
		<path class="st0" d="M146.8,105.9l3.7,0.9c-0.8,3-2.2,5.4-4.2,6.9c-2,1.6-4.5,2.4-7.4,2.4c-3,0-5.5-0.6-7.3-1.8
			c-1.9-1.2-3.3-3-4.3-5.3c-1-2.3-1.5-4.8-1.5-7.5c0-2.9,0.6-5.4,1.7-7.6c1.1-2.2,2.7-3.8,4.7-4.9c2.1-1.1,4.3-1.7,6.8-1.7
			c2.8,0,5.1,0.7,7.1,2.1c1.9,1.4,3.2,3.4,4,6l-3.6,0.9c-0.6-2-1.6-3.5-2.8-4.4c-1.2-0.9-2.8-1.4-4.7-1.4c-2.1,0-3.9,0.5-5.4,1.5
			c-1.4,1-2.5,2.4-3,4.1c-0.6,1.7-0.9,3.5-0.9,5.4c0,2.4,0.3,4.5,1,6.2c0.7,1.8,1.8,3.1,3.2,4c1.5,0.9,3,1.3,4.7,1.3
			c2.1,0,3.8-0.6,5.3-1.8C145.3,110.1,146.3,108.3,146.8,105.9z"/>
		<rect x="155.7" y="87.8" class="st0" width="3.7" height="27.9"/>
		<rect x="155.7" y="87.8" class="st0" width="3.7" height="27.9"/>
		<path class="st0" d="M177.1,104.3h9.5l-2.9-7.7c-0.9-2.4-1.6-4.3-2-5.8c-0.4,1.8-0.9,3.6-1.5,5.3L177.1,104.3z M169,115.7
			l10.7-27.9h4l11.4,27.9H191l-3.3-8.5H176l-3.1,8.5H169z"/>
		<path class="st0" d="M177.1,104.3h9.5l-2.9-7.7c-0.9-2.4-1.6-4.3-2-5.8c-0.4,1.8-0.9,3.6-1.5,5.3L177.1,104.3z M169,115.7
			l10.7-27.9h4l11.4,27.9H191l-3.3-8.5H176l-3.1,8.5H169z"/>
		<path class="st0" d="M202.6,115.7l-7.7-20.2h3.6l4.3,12.1c0.5,1.3,0.9,2.7,1.3,4.1c0.3-1.1,0.7-2.4,1.3-3.9l4.5-12.4h3.5
			l-7.7,20.2H202.6z"/>
		<path class="st0" d="M202.6,115.7l-7.7-20.2h3.6l4.3,12.1c0.5,1.3,0.9,2.7,1.3,4.1c0.3-1.1,0.7-2.4,1.3-3.9l4.5-12.4h3.5
			l-7.7,20.2H202.6z"/>
		<path class="st0" d="M216.5,95.5h3.4v20.2h-3.4V95.5z M216.5,87.8h3.4v3.9h-3.4V87.8z"/>
		<path class="st0" d="M216.5,95.5h3.4v20.2h-3.4V95.5z M216.5,87.8h3.4v3.9h-3.4V87.8z"/>
		<path class="st0" d="M238.1,105.6c-1.2,0.5-3.1,0.9-5.6,1.3c-1.4,0.2-2.4,0.4-3,0.7c-0.6,0.3-1,0.6-1.4,1.1
			c-0.3,0.5-0.5,1-0.5,1.6c0,0.9,0.3,1.7,1,2.3c0.7,0.6,1.7,0.9,3,0.9c1.3,0,2.5-0.3,3.5-0.9c1-0.6,1.8-1.4,2.3-2.4
			c0.4-0.8,0.6-1.9,0.6-3.4V105.6z M238.4,113.2c-1.3,1.1-2.5,1.8-3.7,2.3c-1.2,0.4-2.4,0.7-3.8,0.7c-2.2,0-3.9-0.5-5.1-1.6
			c-1.2-1.1-1.8-2.5-1.8-4.2c0-1,0.2-1.9,0.7-2.7c0.5-0.8,1-1.5,1.8-2c0.7-0.5,1.6-0.9,2.5-1.1c0.7-0.2,1.7-0.3,3-0.5
			c2.8-0.3,4.8-0.7,6.1-1.2c0-0.5,0-0.8,0-0.9c0-1.4-0.3-2.4-1-3c-0.9-0.8-2.2-1.2-3.9-1.2c-1.6,0-2.8,0.3-3.6,0.8
			c-0.8,0.6-1.3,1.6-1.7,3l-3.4-0.5c0.3-1.4,0.8-2.6,1.5-3.5c0.7-0.9,1.7-1.6,3-2c1.3-0.5,2.9-0.7,4.6-0.7c1.7,0,3.1,0.2,4.2,0.6
			s1.9,0.9,2.4,1.5c0.5,0.6,0.9,1.4,1.1,2.3c0.1,0.6,0.2,1.6,0.2,3.2v4.6c0,3.2,0.1,5.2,0.2,6.1c0.1,0.8,0.4,1.7,0.9,2.4h-3.6
			C238.7,115,238.5,114.2,238.4,113.2"/>
		<path class="st0" d="M238.1,105.6c-1.2,0.5-3.1,0.9-5.6,1.3c-1.4,0.2-2.4,0.4-3,0.7c-0.6,0.3-1,0.6-1.4,1.1
			c-0.3,0.5-0.5,1-0.5,1.6c0,0.9,0.3,1.7,1,2.3c0.7,0.6,1.7,0.9,3,0.9c1.3,0,2.5-0.3,3.5-0.9c1-0.6,1.8-1.4,2.3-2.4
			c0.4-0.8,0.6-1.9,0.6-3.4V105.6z M238.4,113.2c-1.3,1.1-2.5,1.8-3.7,2.3c-1.2,0.4-2.4,0.7-3.8,0.7c-2.2,0-3.9-0.5-5.1-1.6
			c-1.2-1.1-1.8-2.5-1.8-4.2c0-1,0.2-1.9,0.7-2.7c0.5-0.8,1-1.5,1.8-2c0.7-0.5,1.6-0.9,2.5-1.1c0.7-0.2,1.7-0.3,3-0.5
			c2.8-0.3,4.8-0.7,6.1-1.2c0-0.5,0-0.8,0-0.9c0-1.4-0.3-2.4-1-3c-0.9-0.8-2.2-1.2-3.9-1.2c-1.6,0-2.8,0.3-3.6,0.8
			c-0.8,0.6-1.3,1.6-1.7,3l-3.4-0.5c0.3-1.4,0.8-2.6,1.5-3.5c0.7-0.9,1.7-1.6,3-2c1.3-0.5,2.9-0.7,4.6-0.7c1.7,0,3.1,0.2,4.2,0.6
			s1.9,0.9,2.4,1.5c0.5,0.6,0.9,1.4,1.1,2.3c0.1,0.6,0.2,1.6,0.2,3.2v4.6c0,3.2,0.1,5.2,0.2,6.1c0.1,0.8,0.4,1.7,0.9,2.4h-3.6
			C238.7,115,238.5,114.2,238.4,113.2z"/>
		<path class="st0" d="M254.4,112.7l0.5,3c-1,0.2-1.8,0.3-2.6,0.3c-1.2,0-2.2-0.2-2.9-0.6c-0.7-0.4-1.2-0.9-1.4-1.6
			c-0.3-0.6-0.4-2-0.4-4.1V98.2H245v-2.7h2.5v-5l3.4-2.1v7.1h3.5v2.7h-3.5V110c0,1,0.1,1.6,0.2,1.9c0.1,0.3,0.3,0.5,0.6,0.7
			c0.3,0.2,0.7,0.2,1.2,0.2C253.3,112.8,253.8,112.7,254.4,112.7"/>
		<path class="st0" d="M254.4,112.7l0.5,3c-1,0.2-1.8,0.3-2.6,0.3c-1.2,0-2.2-0.2-2.9-0.6c-0.7-0.4-1.2-0.9-1.4-1.6
			c-0.3-0.6-0.4-2-0.4-4.1V98.2H245v-2.7h2.5v-5l3.4-2.1v7.1h3.5v2.7h-3.5V110c0,1,0.1,1.6,0.2,1.9c0.1,0.3,0.3,0.5,0.6,0.7
			c0.3,0.2,0.7,0.2,1.2,0.2C253.3,112.8,253.8,112.7,254.4,112.7z"/>
		<path class="st0" d="M257.7,95.5h3.4v20.2h-3.4V95.5z M257.7,87.8h3.4v3.9h-3.4V87.8z"/>
		<path class="st0" d="M257.7,95.5h3.4v20.2h-3.4V95.5z M257.7,87.8h3.4v3.9h-3.4V87.8z"/>
		<path class="st0" d="M268.7,105.6c0,2.6,0.6,4.5,1.7,5.8c1.1,1.3,2.6,1.9,4.3,1.9c1.7,0,3.1-0.6,4.3-1.9c1.1-1.3,1.7-3.3,1.7-5.9
			c0-2.5-0.6-4.4-1.7-5.7c-1.1-1.3-2.6-1.9-4.2-1.9c-1.7,0-3.1,0.6-4.3,1.9C269.2,101.1,268.7,103,268.7,105.6 M265.1,105.6
			c0-3.7,1-6.5,3.1-8.3c1.7-1.5,3.9-2.2,6.4-2.2c2.8,0,5.1,0.9,6.8,2.7c1.8,1.8,2.6,4.3,2.6,7.6c0,2.6-0.4,4.7-1.2,6.1
			c-0.8,1.5-1.9,2.7-3.4,3.5c-1.5,0.8-3.1,1.2-4.9,1.2c-2.8,0-5.1-0.9-6.9-2.7C266,111.6,265.1,109,265.1,105.6"/>
		<path class="st0" d="M268.7,105.6c0,2.6,0.6,4.5,1.7,5.8c1.1,1.3,2.6,1.9,4.3,1.9c1.7,0,3.1-0.6,4.3-1.9c1.1-1.3,1.7-3.3,1.7-5.9
			c0-2.5-0.6-4.4-1.7-5.7c-1.1-1.3-2.6-1.9-4.2-1.9c-1.7,0-3.1,0.6-4.3,1.9C269.2,101.1,268.7,103,268.7,105.6z M265.1,105.6
			c0-3.7,1-6.5,3.1-8.3c1.7-1.5,3.9-2.2,6.4-2.2c2.8,0,5.1,0.9,6.8,2.7c1.8,1.8,2.6,4.3,2.6,7.6c0,2.6-0.4,4.7-1.2,6.1
			c-0.8,1.5-1.9,2.7-3.4,3.5c-1.5,0.8-3.1,1.2-4.9,1.2c-2.8,0-5.1-0.9-6.9-2.7C266,111.6,265.1,109,265.1,105.6z"/>
		<path class="st0" d="M288.1,115.7V95.5h3.1v2.9c1.5-2.2,3.6-3.3,6.4-3.3c1.2,0,2.3,0.2,3.4,0.7c1,0.4,1.8,1,2.3,1.7
			c0.5,0.7,0.9,1.6,1.1,2.5c0.1,0.6,0.2,1.7,0.2,3.3v12.4h-3.4v-12.3c0-1.4-0.1-2.4-0.4-3.1c-0.3-0.7-0.7-1.2-1.4-1.7
			c-0.7-0.4-1.5-0.6-2.4-0.6c-1.5,0-2.7,0.5-3.8,1.4c-1.1,0.9-1.6,2.7-1.6,5.3v11.1H288.1z"/>
		<path class="st0" d="M288.1,115.7V95.5h3.1v2.9c1.5-2.2,3.6-3.3,6.4-3.3c1.2,0,2.3,0.2,3.4,0.7c1,0.4,1.8,1,2.3,1.7
			c0.5,0.7,0.9,1.6,1.1,2.5c0.1,0.6,0.2,1.7,0.2,3.3v12.4h-3.4v-12.3c0-1.4-0.1-2.4-0.4-3.1c-0.3-0.7-0.7-1.2-1.4-1.7
			c-0.7-0.4-1.5-0.6-2.4-0.6c-1.5,0-2.7,0.5-3.8,1.4c-1.1,0.9-1.6,2.7-1.6,5.3v11.1H288.1z"/>
	</g>
</g>
</svg>
