<!--Created with Inkscape (http://www.inkscape.org/)-->
<svg xmlns="http://www.w3.org/2000/svg" width="184.23" height="200">
  <path fill="#bcbcbc" d="M140.02 76.84v-.08c-.07-6.27-.13-10.3-.1-13.71l.01-1.5-95.9.01v1.5c.03 3.4-.03 7.46-.1 13.75v.03c-.16 15.74-.02 37.37.57 43.53.64 6.56 1.7 17.54 8.14 28.44 7.5 12.69 20.58 22.18 38.88 28.22l.45.15.47-.15c18.28-6.04 31.36-15.53 38.87-28.22 6.44-10.9 7.51-21.87 8.14-28.44.6-6.14.72-27.78.57-43.53"/>
  <path fill="#1c4e9d" d="M137.62 63.86h-91.3c.01 3.46-.04 7.18-.1 13.01-.14 14.22-.05 37.04.56 43.3 1.34 13.81 4.46 41.03 45.19 54.6 40.72-13.58 43.86-40.78 45.19-54.6.6-6.26.7-29.07.56-43.3-.06-5.84-.12-9.56-.1-13.01"/>
  <path fill="#edae09" d="m109.9 72.82-5.78 32.08-8.43-1.22-.4-22.53 4.64.93-7.85-13.7-7.84 13.7 4.64-.93-.4 22.53-8.43 1.22-5.78-32.08-7.73 15.03 4.19-.88 4.18 27.65 1.99-.9c1.24-.55 4.42-1.83 7.07-1.83 1.34 0 2.34.33 2.98.98.68.69 1 1.82.97 3.33l-.77 28.4h9.87l-.78-28.38c-.03-1.53.3-2.66.98-3.35.64-.65 1.64-.98 2.98-.98 2.65 0 5.82 1.29 7.06 1.84l2 .89 4.17-27.65 4.19.88z"/>
  <path fill="#fddf11" d="m110.54 77.06-5.3 29.4-10.9-1.59-.45-25.4 3.35.67-5.15-9-5.16 9 3.35-.67-.45 25.4-10.9 1.58-5.3-29.4-4.55 8.87 2.8-.59 4.13 27.3.34-.16c1.64-.73 4.8-1.96 7.62-1.96 1.72 0 3.05.47 3.96 1.4.95.97 1.4 2.42 1.37 4.33l-.73 26.98h7.04l-.74-26.97c-.03-1.92.42-3.37 1.37-4.34.9-.93 2.24-1.4 3.96-1.4 2.82 0 5.99 1.23 7.62 1.96l.34.16 4.14-27.3 2.78.59z"/>
  <path fill="#fff" d="M111.16 145.03c-5.05 0-9.56-5.72-19.21-5.72l-.02-.01h-.03c-9.66 0-14.16 5.73-19.2 5.73s-13.99-6.65-18.85-6.65c-1.29 0-2.39.38-3.2.8a51.17 51.17 0 0 0 4.3 8.93c5.06-.76 12.35 5.27 17.75 5.27 7.81 0 9.54-5.73 19.2-5.73h.05c9.65 0 10.45 5.73 19.2 5.73 5.43 0 12.78-6.1 17.84-5.25a51 51 0 0 0 4.3-8.9 7.06 7.06 0 0 0-3.3-.85c-4.86 0-13.8 6.65-18.83 6.65"/>
  <path fill="#fff" d="M92.11 156.29h-.04c-9.3 0-10.97 5.72-18.49 5.72-3.32 0-7.19-2.46-10.8-4.04 4.16 4.1 9.46 8 16.22 11.44 3.73-1.67 6.48-4.55 13.07-4.55h.04c6.64 0 8.93 2.91 12.77 4.58a64.81 64.81 0 0 0 16.08-11.26c-3.49 1.57-7.17 3.83-10.36 3.83-8.42 0-9.2-5.72-18.49-5.72"/>
  <path fill="#edae09" d="M167.06 55.47A91.46 91.46 0 0 0 121.88 22l-4.32-1.47 1.52 4.3c.32.89 1.32 2.73 2.18 4.16l.4 5.33.04 2.56-1.44 2.53-3.04 3.81-3.66 2.93 3.5 1.42a66.4 66.4 0 0 1 29.21 23.1 66 66 0 0 1 12.3 38.52 66.05 66.05 0 0 1-19.48 47c-13.88 13.88-30.56 21.53-46.97 21.53-16.44 0-33.14-7.65-47.02-21.53a66.03 66.03 0 0 1-19.47-47 66.46 66.46 0 0 1 41.78-61.73l3.79-1.52-4.1-2.88-2.72-3.44-1.53-2.58-.18-4.65.42-5.5 1.66-5.79-4.07 1.48a91.56 91.56 0 0 0-44 33.64 91.73 91.73 0 0 0-16.7 52.97c0 27.7 12.34 53.69 33.86 71.3l.2.17.27.05c30.17 6.48 35.57 7.52 43.22 7.52 1.42 0 2.92-.03 4.65-.07 2.4-.06 5.39-.13 9.34-.13 21.19 0 30.04-1.48 57.5-6.64l.28-.05.2-.17a93.23 93.23 0 0 0 25.28-31.41 91.04 91.04 0 0 0 9.43-40.58 91.71 91.71 0 0 0-17.15-53.7"/>
  <path fill="#fddf11" d="M121.18 24.09c.24.7 1.2 2.5 2.07 3.93l.17.28.45 5.94.05 3.22-1.84 3.2-3.28 4.13-.91.72a68.46 68.46 0 0 1 30.18 23.88 68.2 68.2 0 0 1 12.7 39.8c0 18.34-7.14 35.59-20.11 48.56a68.21 68.21 0 0 1-48.56 20.12 68.22 68.22 0 0 1-48.57-20.12 68.23 68.23 0 0 1-20.11-48.56 68.22 68.22 0 0 1 12.84-40A68.5 68.5 0 0 1 66.6 45.4l-1.02-.72-3.03-3.82-1.88-3.18-.2-5.35.44-5.84.53-1.84a89.73 89.73 0 0 0-59.24 84.53 89.82 89.82 0 0 0 35.5 71.51c17.36 5.49 34.32 9.26 54.75 9.26 20.4 0 32.88-2.3 53.99-9.2a89.8 89.8 0 0 0 35.56-71.58 89.51 89.51 0 0 0-60.81-85.1"/>
  <g fill="#1c4e9d">
    <path d="M25.04 144.68c.26.45.58 1.08 1.03 1.85.58 1.03.96 1.6 1.18 1.97-.02.09-.3.25-.39.22-.2-.26-.4-.54-.52-.66-.24-.25-.42-.27-.94-.01-1.17.6-3.24 1.82-5 2.84-.02 0-.08.07-.06.1.1.22.45.84.63 1.09.15.23.33.34.72.32a8 8 0 0 0 1.2-.15c.06.02.2.42.13.5-.51.17-1.53.6-2.05.86-.03.02-.12-.02-.13-.06-.09-.43-.3-.85-.46-1.12l-2.3-4c-.36-.61-.62-.96-.88-1.2-.02-.03.03-.1.06-.12.54-.16 1.35-.5 2.12-.86.07.02.27.35.26.4-.37.3-.65.55-.87.8-.2.26-.2.42-.1.65.14.33.56 1.03.68 1.2.02 0 .06.01.11-.01 1.6-.93 4.44-2.55 5.13-3 .2-.13.4-.29.35-.58-.03-.23-.12-.4-.3-.83.02-.07.33-.22.4-.2"/>
    <path d="M16.76 146.2c-.11-.27-.3-.8-.72-1.77-.4-.94-.67-1.44-.8-1.75.04-.07.35-.2.41-.16.1.18.25.4.35.5.18.2.36.19.72.03.58-.23 1.31-.55 1.97-.84.03-.03.06-.05.06-.1-.03-.11-.09-.25-.65-1.55l-.57-1.29c-.02-.02-.08-.05-.12-.03-.6.26-1.49.63-2.13.95-.14.08-.33.22-.3.42 0 .2.06.41.16.71-.03.08-.34.22-.42.16-.21-.49-.34-.9-.75-1.83-.43-.98-.62-1.33-.78-1.68.04-.07.33-.2.42-.17.13.2.25.4.36.52.16.18.32.2.7.05.81-.31 1.3-.54 2.78-1.18.8-.35 1.73-.75 2.25-1 .32-.16.5-.29.5-.52-.02-.19-.08-.4-.18-.83.03-.04.37-.16.43-.11.13.3.36.93.73 1.78.35.8.71 1.54.82 1.8-.02.09-.32.22-.4.19a8.69 8.69 0 0 0-.36-.54c-.15-.17-.35-.2-.73-.04-.58.21-1.4.59-2.19.93-.04.01-.07.05-.05.09.08.25.34.83.57 1.36.6 1.37.65 1.48.7 1.52a128.6 128.6 0 0 0 2.17-.93c.35-.15.54-.28.5-.6l-.15-.72c.04-.07.36-.16.43-.13.1.22.3.8.78 1.9.4.93.7 1.5.8 1.74-.01.07-.34.22-.4.2l-.35-.51c-.22-.3-.42-.29-.96-.1-.18.06-1.28.54-2.34 1l-2.56 1.12c-.38.2-.48.3-.45.58.04.22.1.4.16.67-.01.06-.35.2-.4.16"/>
    <path d="M12.55 135.98c-.14-.48-.34-1.29-.52-1.9l-.75-2.51c-.13-.5-.35-1.19-.55-1.61 0-.01.01-.04.04-.05a16.7 16.7 0 0 0 1.95-.38c.06.06.19.39.17.46a3.6 3.6 0 0 0-.86.51.6.6 0 0 0-.17.61c.06.34.41 1.55.5 1.75.03.05.2.08.26.05.8-.22 1.58-.46 2.43-.71.05-.01.09-.08.08-.12-.1-.32-.35-1.2-.49-1.58-.1-.26-.24-.34-.57-.33-.13 0-.3.02-.48.04-.05-.05-.15-.43-.12-.51.3-.08.83-.18 1.23-.3l1.26-.4c.05.06.17.42.15.49l-.47.28c-.16.13-.28.27-.24.53.05.23.33 1.19.43 1.57.02.04.12.06.15.06l2.2-.65c.2-.06.34-.22.34-.39-.02-.25-.17-.87-.38-1.58-.16-.56-.26-.72-.67-.9a4.82 4.82 0 0 0-1.35-.32c-.04-.09-.02-.45.03-.51.3-.03 1.51-.07 2 .03.14.01.24.05.4.6.31 1.04.61 2.26 1 3.58.2.67.5 1.57.7 2.25-.09.05-.35.13-.42.12-.2-.42-.33-.72-.43-.87-.13-.21-.3-.3-.7-.18-.74.17-1.6.43-3.04.85-.92.28-1.9.56-2.34.74-.34.12-.41.24-.42.5 0 .2.04.44.08.68-.05.07-.38.14-.43.1"/>
    <path d="M9.72 125.68c-.07-.48-.13-1.21-.24-2-.13-.85-.26-1.5-.34-2.03.06-.07.36-.1.44-.07.06.23.14.43.19.58.12.31.37.38.77.33.93-.09 2.09-.28 2.77-.38a12 12 0 0 0 1.63-.34c.86-.29 1.37-.99 1.19-2.26-.13-.86-.56-1.78-2.33-1.65-.97.06-3.02.36-3.7.51-.5.1-.72.24-.75.67-.03.2-.03.5-.02.78-.08.05-.35.1-.44.05-.07-.47-.11-1-.2-1.6-.14-.98-.22-1.26-.26-1.56.06-.08.36-.12.44-.06.06.18.12.36.19.52.13.31.34.4.97.34l3.1-.35c2.67-.28 3.73.92 4.01 2.92.34 2.32-.69 3.26-1.92 3.59-.92.25-2.9.5-4.44.74-.33.06-.54.2-.58.52-.03.17-.05.45-.03.7a1 1 0 0 1-.45.05"/>
    <path d="M8.35 115.72c-.02-.46.02-1.1 0-1.91 0-.4-.03-.8-.04-.98.19-.1.38-.23.7-.5 1.27-1.04 3.67-2.99 4.67-3.87 0-.03-.02-.03-.02-.05-1.62.03-3.3.06-4.14.15-.45.05-.64.18-.73.6-.06.27-.09.46-.12.8-.05.05-.42.03-.44 0-.01-.34.02-.93 0-1.76-.02-.73-.07-1.28-.08-1.53.04-.05.4-.06.45 0 .03.16.06.33.11.5.13.38.28.51.84.54a75.43 75.43 0 0 0 6.61-.05c-.02.22.02 1.05.05 1.3-1.04.81-4.82 3.8-5.93 4.7-.04.04 0 .07.01.07 1.43 0 4-.1 4.54-.13.56-.05.76-.25.82-.62.05-.2.07-.43.13-.76.04-.05.37-.06.45 0 0 .47-.02 1.06 0 1.66 0 .68.06 1.3.07 1.71-.07.05-.4.05-.44.01-.06-.3-.1-.52-.2-.75-.08-.29-.32-.4-.74-.43-.68-.06-3.19-.06-5.1-.02-.33.01-.72.18-.83.5-.1.24-.16.48-.18.82-.05.04-.42.03-.46 0"/>
    <path d="M8.31 105.64c.03-.47.11-1.04.18-1.94.08-1.26.07-1.7.1-1.98.05-.03.38-.03.43.03.02.27.05.52.09.69.08.3.27.32.64.36.4.05 1.33.1 2.45.18 1.57.1 2.52.19 3.03.2.24 0 .54 0 .65-.35.07-.15.13-.47.2-.73.07-.04.4.04.44.1-.05.52-.11 1.02-.18 1.94-.08 1.17-.06 1.57-.1 2.06-.06.06-.4.04-.44-.03l-.07-.6c-.05-.35-.15-.44-.67-.51-.45-.06-1.95-.16-3-.23-1.38-.1-2-.15-2.57-.14-.28 0-.46.07-.56.29-.08.24-.11.4-.18.7-.07.04-.39.01-.44-.04"/>
    <path d="M17.38 95.9c-.08.52-.23 1.21-.36 2.09-.18 1.17-.25 1.85-.31 2.27-.07.06-.4 0-.44-.06.01-.33.03-.68 0-.85-.03-.35-.15-.47-.71-.6-1.3-.25-3.67-.6-5.68-.91-.03 0-.11 0-.11.04-.07.23-.18.94-.2 1.24-.02.27.05.47.37.7.27.2.62.43 1.02.64.03.06-.1.44-.2.47-.51-.19-1.58-.48-2.15-.61-.03 0-.08-.09-.06-.13.2-.39.3-.85.35-1.16l.7-4.56c.11-.7.12-1.13.07-1.48.01-.04.1-.07.12-.06.52.2 1.37.46 2.2.65.04.06 0 .45-.06.49a5.5 5.5 0 0 0-1.18.07c-.31.07-.41.2-.48.44-.09.35-.2 1.16-.22 1.35 0 .03.04.07.1.07 1.83.28 5.04.8 5.87.88.25.03.5.03.64-.23.1-.2.16-.4.29-.84.06-.04.39.04.43.1"/>
    <path d="M10 92.02c.14-.5.38-1.28.54-1.9l.65-2.54c.13-.49.3-1.2.35-1.66 0-.01.03-.04.06-.03.37.2 1.17.45 1.86.67a1 1 0 0 1-.08.5 3.38 3.38 0 0 0-1 0 .6.6 0 0 0-.46.42c-.13.32-.44 1.55-.47 1.76 0 .06.14.16.2.18.8.22 1.59.41 2.45.64.05 0 .1-.03.12-.07.09-.33.32-1.2.4-1.6.06-.27-.03-.42-.32-.57l-.43-.22a.99.99 0 0 1 .16-.5c.3.09.8.27 1.2.37.34.1.93.23 1.29.31.02.07-.06.44-.12.5l-.54-.01c-.22.02-.38.1-.49.33-.08.22-.33 1.2-.43 1.58-.01.03.07.1.09.12l2.23.57c.2.05.4-.02.48-.16.12-.23.31-.84.5-1.54.14-.57.14-.76-.12-1.13-.22-.3-.6-.66-.99-.96.01-.1.2-.4.29-.43.27.14 1.33.72 1.7 1.06.1.08.18.16.04.71-.28 1.06-.64 2.26-.99 3.6-.17.67-.37 1.6-.54 2.28-.11 0-.38-.06-.43-.1.05-.47.08-.8.08-.98-.01-.25-.12-.4-.52-.51-.71-.23-1.59-.45-3.04-.83-.93-.24-1.92-.49-2.38-.57-.36-.07-.49 0-.63.22-.1.17-.2.39-.28.62-.07.04-.4-.07-.42-.13"/>
    <path d="M19.94 83.32c.37-.17.65-.69.72-.89.19-.49.17-1.01-.18-1.6a4.25 4.25 0 0 0-2.26-1.67c-1.13-.43-2.4-.44-3.27.14a2.82 2.82 0 0 0-1.12 1.8c0 .06.08.13.13.16a184.7 184.7 0 0 0 5.52 2.1c.1.03.33.03.46-.04m-7.76.45.74-1.81c.34-.95.46-1.35.83-2.31a4.2 4.2 0 0 1 1.74-2.27 3.84 3.84 0 0 1 3.26-.17c1.3.5 2.07 1.35 2.42 2.33.45 1.26.24 2.5-.26 3.81-.28.73-.73 1.78-1.18 2.93l-.18.46c-.09.02-.42-.1-.41-.16.08-.33.11-.52.15-.76.04-.28-.1-.46-.4-.62-.33-.15-1.38-.57-2.78-1.1-1.3-.51-1.9-.74-2.48-.92-.32-.09-.45-.09-.65.14-.12.14-.3.45-.4.63-.07.02-.37-.12-.4-.18"/>
    <path d="M24.24 74.06c.39-.18.7-.54.88-.87.3-.54.21-1.14-.36-1.45-.54-.3-1-.27-2.23.44-1.15.64-2.12 1.17-3.33.5-1.36-.73-1.46-2.25-.74-3.57.48-.88.9-1.26 1.24-1.8.4.32.9.68 1.6 1.12.02.09-.14.38-.2.42-.76-.28-1.18-.32-1.52-.15-.33.14-.54.36-.73.71-.34.6-.12 1.22.42 1.51.48.27.92.2 1.5-.1l1.47-.84c.99-.56 1.7-.66 2.53-.2 1.2.66 1.64 2.17.68 3.93a4.83 4.83 0 0 1-1.35 1.58 8.43 8.43 0 0 1-2.03-.65c-.06-.07.02-.41.09-.46.93.18 1.53.12 2.08-.12"/>
    <path d="M30.34 65.5c-.3.42-.73.98-1.23 1.72-.66.98-1.01 1.56-1.25 1.92-.1.02-.36-.17-.37-.25.15-.3.31-.6.36-.76.13-.32.07-.5-.39-.85-1.06-.78-3.05-2.12-4.73-3.27-.02 0-.1-.03-.13 0a9.9 9.9 0 0 0-.7 1.04c-.14.23-.16.44.03.8.16.29.38.64.65 1 0 .07-.28.36-.39.34-.38-.39-1.21-1.11-1.67-1.47-.02-.01-.04-.12 0-.14.35-.27.63-.64.81-.9l2.6-3.82c.39-.58.59-.97.7-1.31.01-.03.1-.02.12 0 .38.41 1.05 1 1.7 1.53.02.07-.19.4-.24.41-.43-.2-.78-.35-1.11-.43-.31-.08-.46 0-.62.19-.23.27-.68.96-.78 1.13 0 .03 0 .07.06.1 1.53 1.03 4.22 2.88 4.92 3.3.21.14.44.24.68.07.19-.13.3-.29.62-.63.07-.01.34.2.36.27"/>
    <path d="M28.95 57.5c.39.67 1 1.63 1.32 2.18.03.04.07.06.1.03.1-.1.25-.29.48-.56l.55-.67c.01-.02 0-.06-.02-.08-.4-.16-1.68-.67-2.4-.94-.01.01-.04.03-.03.04m1.94 4.75c-.84-1.65-2.37-4.32-2.88-5.18a4.75 4.75 0 0 0-.53-.78l.46-.5.4-.52.72.31c1.26.47 4.19 1.59 5.36 2 1.11.37 1.24.38 1.99-.26.05.01.29.25.3.32-.21.25-.61.67-1.26 1.44-.7.83-.93 1.17-1.26 1.55-.07-.03-.32-.22-.33-.29.13-.23.25-.47.27-.6.03-.17-.07-.25-.1-.26-.4-.2-1.3-.54-1.76-.7-.03 0-.12 0-.16.04l-.63.76c-.34.4-.56.66-.67.81-.02.03-.02.13 0 .19.35.57.75 1.27.92 1.42.15.1.3.2.56-.01.18-.12.33-.25.52-.4.06 0 .3.25.3.32-.23.28-.6.65-1.08 1.23-.3.37-.62.8-.92 1.15-.07-.01-.32-.2-.34-.29.48-.8.51-1 .12-1.75"/>
    <path d="M40.89 53.66c-.38.36-.91.82-1.56 1.44-.85.82-1.31 1.32-1.63 1.62-.09 0-.31-.24-.3-.32.2-.26.42-.52.51-.67.19-.3.17-.47-.2-.92-.88-.98-2.55-2.7-3.96-4.17-.02-.02-.09-.06-.12-.03-.18.14-.7.64-.9.87-.19.2-.25.4-.14.78.1.32.24.71.43 1.12 0 .07-.36.3-.45.25-.3-.46-.95-1.34-1.34-1.79-.01-.02 0-.12.04-.13.4-.2.75-.5.97-.72l3.34-3.2c.5-.48.78-.81.96-1.13.02-.02.1 0 .13.02.28.49.8 1.2 1.34 1.86 0 .07-.27.35-.33.35-.37-.3-.68-.5-1-.66-.29-.13-.44-.09-.64.06-.28.22-.86.8-1 .94 0 .03 0 .08.04.12 1.28 1.33 3.53 3.7 4.12 4.26.2.17.38.32.66.2.22-.09.36-.22.74-.49.07 0 .29.27.28.34"/>
    <path d="M37.6 45.94c.4-.32 1.07-.79 1.58-1.18l2.06-1.62c.4-.32.97-.77 1.29-1.1.01-.01.05 0 .06.01.18.37.65 1.07 1.07 1.66-.03.1-.3.33-.37.34-.36-.33-.58-.5-.78-.6-.27-.13-.48-.05-.64.06-.29.17-1.28.95-1.43 1.1-.04.05 0 .22.04.27.5.66 1.01 1.3 1.56 1.99.03.04.1.05.13.03.27-.21.99-.76 1.3-1.03.21-.18.23-.35.1-.65-.05-.13-.14-.28-.21-.44.02-.07.34-.3.42-.3.18.26.47.71.73 1.04.21.28.6.74.83 1.02-.03.07-.31.32-.39.33l-.43-.34c-.19-.11-.36-.16-.58-.03-.2.12-1 .74-1.3.99-.04.02-.02.12 0 .14l1.41 1.8c.13.18.34.25.48.18.23-.1.76-.47 1.33-.92.46-.36.58-.52.59-.96.02-.38-.07-.9-.2-1.37.07-.07.41-.19.5-.17.13.28.61 1.39.7 1.88.03.13.03.24-.4.59-.87.67-1.89 1.4-2.98 2.25-.54.43-1.27 1.05-1.82 1.48a1.2 1.2 0 0 1-.28-.35c.32-.33.54-.57.66-.73.15-.2.16-.38-.1-.71a61.3 61.3 0 0 0-1.9-2.5c-.6-.77-1.23-1.57-1.54-1.91-.25-.28-.39-.3-.63-.21-.2.07-.4.19-.61.32-.08-.02-.27-.3-.25-.36"/>
    <path d="M49.56 46.07c.42.02.87-.14 1.19-.34.52-.34.73-.9.38-1.45-.33-.52-.75-.71-2.18-.69-1.3.01-2.42.01-3.16-1.15-.83-1.3-.2-2.68 1.07-3.48.84-.55 1.38-.69 1.95-1 .2.48.46 1.04.86 1.76-.02.09-.3.26-.38.27-.52-.61-.87-.84-1.25-.86-.35-.04-.65.06-.99.28-.58.37-.68 1-.35 1.52.29.46.71.61 1.36.63.66 0 1.04-.01 1.7-.03 1.13-.01 1.8.24 2.3 1.03.75 1.17.42 2.7-1.28 3.78-.77.5-1.57.71-1.93.74a8.46 8.46 0 0 1-1.49-1.54c0-.09.22-.36.3-.37.74.6 1.3.85 1.9.9"/>
    <path d="M133.95 37.77c.4.25.9.63 1.6 1.08l.82.52c-.03.21-.03.45.02.86.14 1.64.38 4.72.55 6.04.02.02.03 0 .05.02.88-1.36 1.82-2.76 2.21-3.5.21-.4.21-.64-.07-.95a6.1 6.1 0 0 0-.6-.54c0-.07.22-.37.25-.37.29.18.75.54 1.45 1 .62.4 1.1.66 1.3.8.02.06-.18.37-.24.37a3.67 3.67 0 0 0-.48-.19c-.39-.1-.58-.07-.93.38-.69.9-1.81 2.57-2.73 3.96l-.96 1.53c-.17-.15-.88-.6-1.1-.71-.08-1.31-.4-6.13-.52-7.54-.02-.06-.06-.04-.06-.03-.8 1.18-2.2 3.34-2.46 3.82-.28.49-.23.76.04 1.02.14.16.31.3.56.54.02.06-.16.33-.26.36-.4-.25-.86-.61-1.36-.94-.57-.37-1.1-.67-1.46-.9 0-.08.19-.36.24-.37.28.12.5.2.73.27.29.08.52-.05.78-.38.43-.53 1.85-2.59 2.9-4.19.18-.28.26-.7.05-.97-.14-.2-.3-.4-.56-.6 0-.07.2-.37.25-.39"/>
    <path d="M143.25 46.64c-.67.4-1.62 1.03-2.16 1.36-.05.03-.06.07-.04.08.1.1.3.26.57.49l.68.54s.06 0 .07-.03c.17-.39.67-1.69.91-2.4 0 0-.02-.05-.03-.04m-4.72 2.01c1.63-.86 4.29-2.43 5.13-2.95.24-.14.62-.39.78-.54a9.35 9.35 0 0 0 1.03.84l-.3.73c-.45 1.27-1.53 4.21-1.92 5.4-.35 1.1-.37 1.23.29 1.97-.02.06-.25.3-.32.3-.26-.2-.68-.6-1.46-1.23-.84-.7-1.18-.92-1.56-1.24.03-.07.22-.32.28-.34.23.13.46.25.6.27.16.03.25-.07.27-.11.19-.4.52-1.3.67-1.77-.01-.03-.01-.12-.05-.15-.15-.15-.5-.41-.77-.63-.4-.33-.66-.54-.82-.65-.02-.03-.12-.03-.18 0-.58.35-1.27.77-1.4.94-.12.15-.2.3 0 .56.13.18.25.33.42.5-.01.07-.26.31-.32.33-.3-.24-.66-.59-1.24-1.07l-1.17-.9c.01-.08.2-.33.28-.35.8.47 1.01.5 1.76.1"/>
    <path d="M146.93 47.06c.32.3.9.93 1.4 1.4.61.6 1.27 1.18 1.47 1.37.01.07-.23.33-.3.34-.29-.2-.53-.32-.63-.33-.1-.01-.2.05-.28.21-.35.73-1.66 3.94-1.92 4.65 0 .02.02.05.06.05.76-.29 3.4-1.5 4.14-1.94.4-.21.56-.43.38-.75-.1-.17-.27-.41-.48-.68.02-.08.28-.3.35-.3.16.17.45.52 1.13 1.17.61.59.92.84 1.14 1.05 0 .06-.2.3-.3.33a2 2 0 0 0-.61-.34c-.38-.1-.69 0-1.29.23-.96.4-2.8 1.2-4.42 1.91-.88.39-1.43.68-1.8.88-.16-.2-.58-.6-.81-.79.26-.53.52-1.1.8-1.77.74-1.79 1.37-3.28 1.73-4.22.38-1 .44-1.32.21-1.7a3.07 3.07 0 0 0-.32-.47c.04-.1.3-.32.35-.3"/>
    <path d="M153.13 56.09c-.72.28-1.76.74-2.35.98-.04.03-.07.06-.04.08.07.12.24.3.48.57.28.32.48.56.58.65l.07-.01c.22-.37.93-1.56 1.3-2.23-.01 0-.02-.05-.04-.04m-4.98 1.2c1.75-.57 4.63-1.68 5.55-2.06.26-.09.68-.28.86-.4a8.59 8.59 0 0 0 .88 1l-.43.66c-.64 1.18-2.2 3.9-2.79 5-.52 1.04-.56 1.16-.04 2-.01.05-.29.26-.36.25-.21-.24-.56-.7-1.23-1.46-.71-.82-1.01-1.1-1.34-1.47.04-.08.27-.29.33-.3.22.17.43.33.56.37.15.05.26-.03.27-.07.26-.36.73-1.19.96-1.63 0-.04.01-.12-.02-.15-.13-.17-.43-.5-.66-.75-.34-.4-.56-.65-.69-.78-.03-.03-.12-.05-.19-.03-.62.25-1.37.54-1.53.7-.14.12-.26.26-.09.55l.32.57c-.01.06-.3.25-.35.26-.26-.28-.56-.7-1.06-1.27-.32-.36-.7-.74-1-1.08.02-.07.25-.28.33-.29.71.6.92.65 1.73.38"/>
    <path d="M158.54 59.53c.3.44.48.75 1.1 1.63.53.77.85 1.17 1.14 1.55-.02.08-.3.26-.37.26a4.6 4.6 0 0 0-.45-.44c-.24-.19-.37-.15-.66.04-.18.1-.89.6-1.95 1.35-1.1.74-2.4 1.69-2.66 1.91-.2.15-.22.33-.2.43.12.29.55.91.9 1.4.15.2.36.34.78.35.44.02 1.24-.06 1.8-.17.06.03.18.4.11.48-.28.15-1.8.68-2.4.7-.1.04-.25-.04-.58-.51-.61-.88-1.37-2.06-1.95-2.9-.59-.83-.9-1.21-1.18-1.61.03-.08.29-.27.36-.25.28.3.35.38.54.54.21.16.37.14.65 0 .25-.15 1.43-.94 2.5-1.7a79.3 79.3 0 0 0 2.22-1.58c.2-.16.33-.33.22-.62-.05-.16-.19-.4-.3-.64.03-.08.32-.24.38-.22"/>
    <path d="M164.06 67.39c.25.51.37.84.86 1.81.49.98.67 1.26.9 1.74 0 .06-.3.21-.4.2-.17-.24-.32-.41-.42-.5-.14-.1-.29-.04-.37.03-1.09.98-2.53 2.4-3.21 3.1-.02.04.02.06.05.06 1.28-.1 3.8-.45 4.95-.7.06.2.3.67.42.83-.78.75-3.11 3.35-3.63 3.97 0 .03.02.07.05.07 1.29-.18 3.46-.57 4.17-.76.36-.11.59-.25.53-.62-.02-.26-.1-.47-.22-.85.02-.08.36-.21.4-.18.14.26.36.8.7 1.48.4.78.6 1.12.74 1.38-.03.04-.33.2-.4.2-.18-.21-.24-.31-.38-.43-.24-.22-.49-.28-1-.23-1.78.19-5.2.7-6.96.96-.08-.2-.31-.69-.44-.84.75-.76 3.02-3.18 3.58-3.87 0-.02-.02-.05-.04-.05-1.43.14-3.92.4-5.17.6-.06-.18-.3-.68-.43-.85a79.56 79.56 0 0 0 5.02-4.8c.23-.26.47-.57.44-.88a2.86 2.86 0 0 0-.16-.7c.04-.05.36-.22.42-.17"/>
    <path d="M168.38 81.32c-.77 0-1.9.06-2.54.07-.05 0-.08.03-.08.06l.25.7c.15.4.25.7.31.81 0 .02.05.03.08.02.34-.26 1.42-1.12 2-1.61 0-.01 0-.06-.02-.05m-5.08-.66c1.84.08 4.92.08 5.92.06.28 0 .73-.02.94-.07a7.12 7.12 0 0 0 .46 1.25l-.63.47c-1.03.86-3.45 2.85-4.4 3.67-.85.78-.93.87-.74 1.85-.05.04-.37.13-.43.1-.12-.3-.27-.86-.62-1.8-.38-1.03-.56-1.4-.73-1.86.06-.05.35-.17.41-.15.14.22.28.45.4.54.12.1.24.05.28.03.36-.25 1.1-.85 1.46-1.18.02-.03.06-.1.04-.15l-.33-.94c-.19-.48-.3-.8-.38-.97-.01-.04-.1-.09-.16-.1-.67.02-1.48.02-1.69.1-.16.07-.32.16-.28.49l.1.65c-.03.05-.37.13-.43.11-.13-.35-.27-.84-.53-1.55-.16-.46-.38-.95-.54-1.37.04-.06.34-.18.41-.16.45.81.63.94 1.47.98"/>
    <path d="M172.36 89.75c-.05-.04-.16-.05-.22-.04-.28.04-1.22.26-2.9.66-.05.01-.08.06-.08.1.1.55.3 1.14.48 1.33.24.29.63.46 1.43.27 1.05-.25 1.65-1.01 1.42-1.99-.02-.1-.07-.25-.13-.33m-.09-3.02c.07.3.27 1.3.39 1.78.22.97.42 1.66.6 2.4.38 1.56-.22 2.6-1.36 2.88-1 .23-1.74-.27-2.28-1.03h-.1a17.1 17.1 0 0 0-2.3 2.69c-.32.55-.34.63-.26 1.3-.04.03-.43.06-.48.01a7.25 7.25 0 0 1-.38-2.61c.08-.34.28-.66.38-.76.5-.66 1.44-1.51 2.02-2.08.1-.12.16-.24.14-.42l-.08-.3c0-.03-.06-.04-.08-.03-.8.18-1.58.38-2.12.52-.36.1-.5.21-.52.5 0 .24.01.36.04.7 0 .07-.4.15-.44.08-.06-.28-.17-.9-.41-1.9-.25-1.05-.42-1.62-.49-1.88.04-.06.37-.17.43-.12.08.22.16.4.24.56.13.25.31.3.71.22a95.56 95.56 0 0 0 5.46-1.28c.34-.1.5-.26.49-.5 0-.16-.01-.42-.04-.67.06-.07.4-.12.44-.06"/>
    <path d="M174.59 104.58c.22-.5.25-1.03.2-1.55-.12-1.38-1.26-2.24-3.62-2.04-1.76.15-3.6 1.1-3.41 3.2.03.37.12.85.5 1.22.32.3.87.63 1.39.88a.84.84 0 0 1-.24.4 4.64 4.64 0 0 1-1.91-.9c-.17-.4-.4-.96-.48-1.91-.24-2.92 1.03-4.77 3.85-5a3.82 3.82 0 0 1 3.7 1.83c.4.67.67 1.51.77 2.59.09 1.01 0 2.07.01 2.66-.4-.05-1.5-.09-2.18-.03-.08-.04-.14-.44-.08-.48.74-.2 1.22-.32 1.5-.87"/>
    <path d="M168.14 112.74c.56.62 1.71.85 2.83.88 1.31.04 2.74-.26 3.48-1.05.32-.35.49-.73.5-1.22.02-.37-.08-.75-.26-1-.52-.75-1.62-1.03-2.86-1.07-1.18-.03-2.72.26-3.54 1.15-.31.35-.52.78-.54 1.3-.01.37.14.74.4 1.01m.3-4.56a4.38 4.38 0 0 1 3.02-1c1.04.02 2.14.37 2.9 1.28a4.46 4.46 0 0 1 1.14 3.24c-.08 2.71-1.98 4.1-4.16 4.03a4.37 4.37 0 0 1-2.61-.86 4.22 4.22 0 0 1-1.56-3.54 4.21 4.21 0 0 1 1.28-3.15"/>
    <path d="M175.1 116.52c-.08.53-.16.87-.3 1.93-.11.94-.15 1.44-.2 1.93-.06.04-.39-.02-.45-.06 0-.35-.01-.5-.03-.64-.05-.3-.18-.35-.51-.4-.21-.05-1.06-.17-2.36-.34-1.3-.18-2.91-.36-3.25-.38-.23-.01-.38.1-.43.2-.1.29-.21 1.03-.28 1.63-.03.24.03.5.33.78.32.32.97.8 1.44 1.08.04.07-.13.43-.23.44-.31-.08-1.8-.71-2.25-1.09-.1-.05-.16-.22-.08-.79.14-1.06.38-2.43.51-3.44.13-1.01.16-1.51.21-1.99.1-.04.4 0 .44.06 0 .42 0 .51.04.77.04.25.18.35.48.43.3.06 1.7.27 3 .44 1.5.2 2.19.28 2.7.32.25.02.46-.02.57-.3.08-.16.14-.42.2-.68.09-.04.42.04.44.1"/>
    <path d="M174.03 124.22c-.1.52-.23.86-.47 1.9-.2.92-.3 1.42-.39 1.9-.06.03-.38-.05-.43-.1.03-.35.03-.5.03-.64-.03-.3-.15-.37-.48-.46-.2-.06-1.03-.26-2.3-.55-1.29-.3-2.87-.64-3.21-.69-.23-.04-.39.06-.45.15-.12.28-.3 1.02-.43 1.6-.05.25-.01.5.26.81.29.35.88.89 1.33 1.22.03.07-.17.41-.27.42-.31-.12-1.72-.9-2.13-1.3-.1-.07-.14-.24-.02-.8.24-1.04.62-2.39.84-3.38.23-1 .3-1.49.4-1.96.1-.03.4.04.44.1-.04.42-.05.51-.04.77.02.26.14.37.44.47.27.1 1.65.43 2.94.72 1.47.34 2.14.5 2.65.58.25.05.46.03.6-.25.1-.14.17-.4.27-.65.1-.03.41.08.42.14"/>
    <path d="M172.2 131.99c-.16.48-.45 1.25-.66 1.85l-.83 2.49c-.16.48-.38 1.18-.46 1.64l-.06.02c-.36-.22-1.14-.53-1.82-.8a1 1 0 0 1 .12-.49c.48.08.76.1 1 .08.29-.04.42-.23.5-.4.13-.31.54-1.52.58-1.72 0-.07-.13-.18-.19-.2l-2.4-.8c-.05-.02-.11.02-.12.05-.11.32-.41 1.18-.52 1.58-.07.26 0 .41.29.59.1.08.26.16.41.25.02.07-.12.44-.2.48-.28-.1-.77-.33-1.17-.46-.34-.11-.9-.3-1.26-.4-.02-.07.1-.43.15-.48l.55.05c.22-.02.38-.07.5-.3.1-.22.42-1.17.54-1.54.01-.04-.06-.12-.08-.13l-2.18-.73c-.2-.06-.4-.01-.5.13-.12.22-.36.81-.6 1.5-.18.56-.19.75.04 1.13.2.33.56.7.92 1.04-.02.09-.23.37-.31.4-.27-.16-1.29-.81-1.63-1.18-.1-.08-.16-.17.02-.7.34-1.05.8-2.22 1.23-3.53.21-.65.48-1.57.7-2.24.1.01.37.1.43.14-.08.45-.14.78-.15.97-.01.24.08.41.48.55.69.27 1.55.56 2.97 1.03.92.3 1.88.63 2.34.74.35.1.48.04.63-.17.13-.16.22-.38.33-.6.08-.04.4.1.41.16"/>
    <path d="M159.38 143.64c.07-.52.32-1.89.82-2.97 1.22-2.67 3.17-3.7 5.78-2.5a3.76 3.76 0 0 1 2.34 3.67 6.3 6.3 0 0 1-.67 2.59c-.5 1.08-1.1 1.8-1.4 2.33-.42-.32-1.35-.88-1.99-1.16-.04-.09.1-.46.17-.5.83.27 1.31.32 1.69.13.53-.26.93-.77 1.2-1.38.53-1.14.34-2.55-2.04-3.64-2.06-.95-3.98-.63-4.68.9-.06.13-.13.39-.1.54.02.12.18.26.29.33.29.18.83.44 1.2.58.4.15.62.2.87-.1.16-.19.28-.41.47-.7.1-.02.4.13.43.19-.16.34-.58 1.16-.96 2-.39.84-.55 1.26-.65 1.51a.9.9 0 0 1-.43-.2c.03-.12.07-.26.08-.4.03-.25 0-.35-.54-.6-.32-.16-1.06-.5-1.23-.54-.1-.03-.19-.01-.4.12a.8.8 0 0 1-.25-.2"/>
    <path d="M165.47 148.39c-.26.44-.72 1.12-1.04 1.67l-1.36 2.25c-.26.43-.62 1.07-.8 1.5h-.06c-.3-.29-1-.76-1.6-1.17 0-.1.16-.4.22-.44.46.18.72.26.96.28.3.02.46-.13.56-.28.21-.28.86-1.36.94-1.56.02-.05-.07-.2-.13-.22-.7-.45-1.4-.85-2.17-1.3-.05-.03-.12-.02-.14.02-.17.29-.65 1.05-.84 1.43-.12.23-.08.4.16.63.08.1.22.21.34.33 0 .08-.2.4-.29.44-.26-.17-.7-.5-1.05-.7-.3-.19-.82-.48-1.14-.66 0-.08.18-.41.25-.44l.53.16c.2.03.38.01.55-.2.14-.18.65-1.04.85-1.37.02-.04-.02-.13-.05-.14l-1.97-1.19c-.18-.1-.4-.1-.5.02-.18.19-.54.72-.92 1.34-.3.5-.35.69-.2 1.11.12.37.38.8.67 1.21a.95.95 0 0 1-.4.33c-.22-.21-1.07-1.07-1.33-1.5-.07-.1-.12-.21.17-.7.56-.93 1.25-1.98 1.97-3.17.34-.6.8-1.43 1.16-2.04.1.04.34.18.38.23-.18.43-.3.74-.35.92-.06.24 0 .42.35.63.62.42 1.4.89 2.68 1.66.83.5 1.7 1.02 2.12 1.22.34.17.46.14.66-.03.16-.13.3-.32.46-.52.08-.01.35.19.36.25"/>
  </g>
  <path fill="#fddf11" d="M32.96 175.4c17.52 2.38 24.15 11.3 24.15 11.3l-2.27 3.18-.48.68c-3.76 2.7-12.41 10.16-27.42 9.04a21.8 21.8 0 0 1-12.18-4.55l-.05-.07a25.2 25.2 0 0 1-5.04-5.99c-.13-.22-.26-.4-.37-.57-.49-.73-1.11-2-1.73-3.66 1.68-2.16 9.89-11.46 25.4-9.36"/>
  <path fill="#edae09" d="M32.96 175.4c17.51 2.38 24.14 11.3 24.14 11.3l-.2 1.66c-.4.33-1.04.9-1.86 1.62a37.4 37.4 0 0 1-9.6 6.25s-10.75-8.53-26.98-6.58c-2.32.28-4.74.77-7.27 1.53-.62-.84-1.1-1.6-1.5-2.2-.13-.22-.26-.4-.37-.57a19.69 19.69 0 0 1-1.74-3.67c1.71-2.2 9.92-11.43 25.38-9.34"/>
  <path fill="#fddf11" d="M151.15 175.4c-17.51 2.38-24.14 11.3-24.14 11.3l2.26 3.18.48.68c3.76 2.7 12.41 10.16 27.43 9.04a21.81 21.81 0 0 0 12.23-4.62c2.54-2.13 4.08-4.52 5.03-5.99l.37-.57c.48-.73 1.11-2 1.74-3.66-1.68-2.16-9.9-11.46-25.4-9.36"/>
  <path fill="#edae09" d="M151.17 175.4c-17.52 2.38-24.14 11.3-24.14 11.3l.2 1.66c.4.33 1.04.9 1.86 1.62a37.53 37.53 0 0 0 9.6 6.25s10.74-8.53 26.98-6.58c2.32.28 4.75.77 7.26 1.53.62-.84 1.11-1.6 1.5-2.2l.37-.57c.49-.74 1.12-2.02 1.74-3.67-1.71-2.2-9.91-11.43-25.37-9.34"/>
  <path fill="#fddf11" d="M64.7 7.93c-1.53 1-3 2.11-4.25 3.49a9.68 9.68 0 0 0-2.55 4.79 6.2 6.2 0 0 0 .25 2.83c.28.86.84 1.63 1.57 2.18.73.58 1.68.82 2.62.8a6.04 6.04 0 0 0 2.73-.75 6.37 6.37 0 0 0 2.06-1.93c.59-.79.96-1.66 1.2-2.58.25-.9.48-1.87.63-2.78.14-.91.35-1.86.43-2.74a24.73 24.73 0 0 1 1.03-4.98l.6-1.53-1.47.63a32.9 32.9 0 0 0-4.85 2.57"/>
  <path fill="#edae09" d="M65.3 8.88c.76-.44 1.55-.84 2.34-1.22.3-.13.9-.47 1.18-.6-.13.36-.24.98-.35 1.35-.24.91-.38 1.87-.56 2.89-.32 1.78-.56 3.25-1.02 4.95-.22.81-.5 1.6-.88 2.33-.37.72-.7 1.24-1.34 1.78-.64.54-1.16.8-2.02.9-.62.07-.83 0-1.22-.17 0 0 .11-.2.3-.62.26-.53.47-1 .65-1.46.22-.55.41-1.05.55-1.49.15-.46.24-.79.37-1.22a55.23 55.23 0 0 1 1.26-3.74l.3-.67.29-.5c-.33.3-.61.65-.89 1-.27.36-.52.73-.77 1.1-.5.75-.97 1.5-1.44 2.26l-.67 1.13a10.64 10.64 0 0 1-1.94 2.29l-.2.16-.09.06c-.16-.28-.3-.56-.38-.82a6.51 6.51 0 0 1-.1-2.38c.18-.92.4-1.5.87-2.23A11 11 0 0 1 61.08 12a20.67 20.67 0 0 1 4.21-3.12m-.57-.95c-1.54 1-3 2.11-4.25 3.49a9.66 9.66 0 0 0-2.55 4.78c-.15.91-.04 1.96.24 2.83.28.87.85 1.63 1.58 2.2.73.56 1.68.8 2.62.78a6.05 6.05 0 0 0 4.8-2.63 8.62 8.62 0 0 0 1.32-2.74c.25-.9.42-1.74.57-2.65.13-.91.33-1.81.4-2.7.1-.88.18-1.73.34-2.56.15-.83.38-1.65.64-2.47h.01l.6-1.53-1.48.63c-1.7.73-3.3 1.58-4.84 2.57"/>
  <path fill="#fddf11" d="M56.07 16.6a24.03 24.03 0 0 0-1 6.14c-.02 2.09.32 4.2 1.42 5.96.55.88 1.42 1.7 2.32 2.21.9.53 1.94.75 2.97.68a4.64 4.64 0 0 0 2.81-1.29 6.85 6.85 0 0 0 1.76-2.67c.38-1.03.39-2.06.3-3.18a8.4 8.4 0 0 0-.9-3.09c-.47-.93-1-1.93-1.56-2.82-.56-.87-1.09-1.83-1.68-2.64a30.97 30.97 0 0 1-2.84-4.98v-.01l-.64-1.74-.78 1.63c-.9 1.9-1.61 3.81-2.18 5.8"/>
  <path fill="#edae09" d="M57.28 16.98c.32-.94.69-1.87 1.08-2.78.14-.34.4-1.07.55-1.4.16.4.52 1.01.71 1.4.49.95 1.08 1.88 1.69 2.87 1.05 1.75 1.94 3.18 2.83 4.96.43.86.78 1.74 1 2.63.21.9.33 1.59.2 2.52-.14.93-.4 1.54-1.05 2.27-.47.52-.7.62-1.16.77l-.2-.75c-.18-.64-.35-1.21-.54-1.72-.23-.63-.44-1.2-.65-1.68l-.6-1.3c-.42-.9-.82-1.81-1.2-2.73a27.53 27.53 0 0 1-.78-2.2l-.13-.62c-.06.5-.03 1 0 1.51a57 57 0 0 0 .64 4.5c.1.48.2 1 .27 1.46.07.47.12.93.15 1.4a8.96 8.96 0 0 1-.13 2.28l-.03.1c-.35-.1-.68-.24-.94-.4a7.42 7.42 0 0 1-1.86-1.95 6.3 6.3 0 0 1-.92-2.53c-.15-.97-.24-1.84-.17-2.81.12-1.97.62-3.91 1.24-5.8m-1.2-.37a24.03 24.03 0 0 0-1 6.13c-.02 2.1.32 4.2 1.42 5.96a7 7 0 0 0 2.32 2.22c.9.53 1.95.75 2.97.67h.01a4.61 4.61 0 0 0 2.8-1.28 6.82 6.82 0 0 0 2.12-5.82 9.7 9.7 0 0 0-.93-3.32c-.47-.94-.96-1.78-1.5-2.66-.57-.88-1.08-1.79-1.68-2.59-.58-.82-1.14-1.6-1.63-2.43-.5-.82-.91-1.68-1.3-2.57l-.64-1.75-.78 1.63c-.9 1.9-1.61 3.81-2.18 5.8"/>
  <path fill="#fddf11" d="m68.56 17.31-.4-1.62-.9 1.47a27.24 27.24 0 0 1-3.5 4c-.69.63-1.33 1.41-2.01 2.1-.67.7-1.33 1.51-1.92 2.28a7.72 7.72 0 0 0-1.39 2.64c-.28 1-.47 1.94-.3 2.94.15 1 .52 1.95 1.1 2.75.57.8 1.38 1.44 2.31 1.68a4.8 4.8 0 0 0 2.83-.07c.9-.31 1.8-.44 2.46-1.14 1.33-1.4 2.06-3.7 2.43-5.6.35-1.91.36-3.85.21-5.75a34.69 34.69 0 0 0-.92-5.68"/>
  <path fill="#edae09" d="M68.36 28.52c-.11.9-.33 1.7-.63 2.63-.27.87-.51 1.65-1.04 2.5-.59.93-1 1.26-1.84 1.65-.27.1-1.07-.46-1.4-.42l-.01-.11v-.28l.06-.6c.04-.4.12-.81.23-1.22.11-.42.24-.83.4-1.24.14-.4.34-.85.5-1.28a68.52 68.52 0 0 0 1.4-3.96c.13-.45.25-.91.28-1.38l-.23.55a21.58 21.58 0 0 1-1.1 1.85 55.6 55.6 0 0 1-1.6 2.25c-.27.38-.5.67-.78 1.08-.28.4-.57.87-.9 1.4a22.36 22.36 0 0 0-1.12 2.11 2 2 0 0 1-.91-.91 3.53 3.53 0 0 1-.54-2.25c.05-.87.28-1.48.64-2.25.37-.77.85-1.5 1.39-2.2 1.13-1.46 2.2-2.6 3.48-3.99.73-.8 1.44-1.52 2.06-2.3.24-.32.68-.8.9-1.14.07.32.17 1.03.24 1.37.19.9.35 1.8.47 2.72.23 1.83.3 3.62.05 5.42m.19-11.21-.41-1.62-.9 1.46v.01a21.03 21.03 0 0 1-3.58 4c-.68.62-1.31 1.36-1.99 2.05-.66.7-1.26 1.38-1.85 2.14a8.94 8.94 0 0 0-1.45 2.85 6.28 6.28 0 0 0 .85 5.67c.58.79 1.38 1.43 2.32 1.68.92.26 1.92.24 2.83-.07.9-.32 1.85-.45 2.5-1.14 1.34-1.41 2.02-3.7 2.39-5.6.35-1.92.36-3.85.2-5.76a34.59 34.59 0 0 0-.91-5.67"/>
  <path fill="#fddf11" d="m69.29 30.27-.87-1.43-.44 1.68a27.46 27.46 0 0 1-2.2 4.93c-.47.81-.87 1.76-1.33 2.63a31.4 31.4 0 0 0-1.18 2.79 7.86 7.86 0 0 0-.56 2.96c.02 1.04.12 2 .57 2.92a6.16 6.16 0 0 0 1.89 2.29c.78.58 1.75.95 2.73.9a4.92 4.92 0 0 0 2.71-.94 6.8 6.8 0 0 0 1.97-2.3c.86-1.77.98-3.75.78-5.69-.23-1.94-.8-3.8-1.5-5.58a34.27 34.27 0 0 0-2.57-5.16"/>
  <path fill="#edae09" d="M72.47 41.15c.16.9.15 1.7.1 2.63-.04.92-.2 1.55-.63 2.45-.44.8-.84 1.37-1.56 2-.22.18-.52.34-.83.48l-.04-.1-.07-.27a9.47 9.47 0 0 1-.26-1.84c-.01-.42.12-.85.24-1.28.13-.46.15-.72.18-1.18.08-.94.15-1.88.18-2.83.02-.47.02-.94 0-1.41a7.16 7.16 0 0 0-.13-1.4l-.06.6-.15.77-.37 1.34c-.27.89-.57 1.77-.88 2.65-.14.45-.58.57-.73 1.05-.15.47-.3 1.01-.46 1.62-.13.5-.23 1.05-.34 1.66l-.13.72c-.42-.1-.66-.16-1.15-.6a3.44 3.44 0 0 1-1.17-1.99 5.54 5.54 0 0 1-.06-2.35c.13-.86.38-1.71.7-2.55.66-1.75 1.36-3.17 2.19-4.9.47-1 .94-1.91 1.3-2.85.15-.38.43-.98.54-1.37.17.3.48.94.64 1.23.45.81.87 1.63 1.26 2.48a21.1 21.1 0 0 1 1.69 5.24M69.3 30.27l-.88-1.43-.43 1.69a21.06 21.06 0 0 1-2.28 4.95c-.48.82-.88 1.71-1.32 2.59-.43.87-.81 1.7-1.16 2.63a9.14 9.14 0 0 0-.56 3.17 6.2 6.2 0 0 0 2.5 5.17c.79.6 1.76.96 2.74.9a4.9 4.9 0 0 0 2.71-.94 6.8 6.8 0 0 0 1.96-2.3c.87-1.76.99-3.74.78-5.68a22.1 22.1 0 0 0-1.5-5.59 34.11 34.11 0 0 0-2.56-5.16"/>
  <path fill="#fddf11" d="M54.15 32.54c.32 2.13.8 4.25 1.6 6.26.83 2 1.95 3.86 3.6 5.07.83.6 1.9 1 2.87 1.11.98.12 1.97-.11 2.81-.63a4.57 4.57 0 0 0 1.89-2.42c.38-1.01.52-2.16.43-3.3a8.19 8.19 0 0 0-1.02-3.15 8.83 8.83 0 0 0-2.01-2.55c-.77-.69-1.62-1.42-2.46-2.02-.83-.59-1.66-1.28-2.5-1.8a29.16 29.16 0 0 1-4.42-3.52l-.77-.21-.48.7c-.02 2.2.14 4.32.46 6.46"/>
  <path fill="#edae09" d="M55.34 32.37c-.1-1.03-.17-2.08-.2-3.1-.01-.39-.08-1.2-.09-1.57.3.31.86.73 1.17 1.02.8.7 1.68 1.33 2.6 2.02 1.6 1.21 2.93 2.19 4.4 3.5.7.63 1.36 1.32 1.9 2.08a6.6 6.6 0 0 1 1.18 2.31c.25.95.29 1.64.02 2.6-.2.7-.35.9-.68 1.23 0 0-.15-.22-.47-.63a27.5 27.5 0 0 0-2.38-2.72l-1.04-.98a63.93 63.93 0 0 1-3.13-3.18c-.17-.21-.36-.43-.52-.66l-.37-.54c.14.5.37.97.6 1.44s.49.91.75 1.36c.52.9 1.05 1.77 1.6 2.64.27.43.58.88.81 1.28a13.88 13.88 0 0 1 1.43 3.19l.07.3.02.12c-.34.04-.68.05-.97.01a6.36 6.36 0 0 1-4.17-3.08c-.52-.86-.94-1.64-1.27-2.6a26.28 26.28 0 0 1-1.26-6.05m-1.18.17c.32 2.13.8 4.25 1.6 6.26.83 2 1.96 3.85 3.61 5.07.82.6 1.9 1 2.87 1.11s1.96-.11 2.8-.63h.01a4.57 4.57 0 0 0 1.88-2.42 7.72 7.72 0 0 0-.52-6.44 10.2 10.2 0 0 0-2.13-2.76c-.77-.7-1.52-1.29-2.35-1.89-.84-.6-1.63-1.24-2.47-1.75a21.17 21.17 0 0 1-4.51-3.5l-.8-.31-.51.9c-.02 2.18.2 4.22.52 6.36"/>
  <path fill="#fddf11" d="M59.93 47.22a27.37 27.37 0 0 0 4.87 4.5 12.95 12.95 0 0 0 6.15 2.46c1.11.09 2.35-.12 3.34-.52 1-.4 1.83-1.1 2.37-1.97.56-.88.7-1.97.51-3.02a6.94 6.94 0 0 0-1.34-3.02 8.34 8.34 0 0 0-2.64-2.17 9.89 9.89 0 0 0-3.3-1.13c-1.1-.2-2.3-.38-3.43-.47-1.11-.07-2.28-.24-3.34-.25a32.92 32.92 0 0 1-6.13-.73l-1.98-.32 1.05 1.38a41.11 41.11 0 0 0 3.87 5.26"/>
  <path fill="#edae09" d="M60.97 46.47a43.95 43.95 0 0 1-1.85-2.54c-.21-.32-.7-.97-.91-1.28.45.11 1.2.19 1.67.27 1.13.19 2.3.27 3.55.39 2.19.2 3.98.35 6.1.72 1 .18 2 .43 2.92.79.93.36 1.61.69 2.36 1.36a4.15 4.15 0 0 1 1.4 2.2c.19.7.14.95 0 1.4l-.78-.29a28.46 28.46 0 0 0-3.74-1.1l-1.51-.31c-1.05-.2-2.1-.43-3.14-.68a30.82 30.82 0 0 1-2.4-.7l-.65-.28c.4.35.88.63 1.35.91.47.27.95.53 1.44.78.97.5 1.95.97 2.94 1.42.49.23 1.02.46 1.46.68a15.1 15.1 0 0 1 2.53 1.54 9.02 9.02 0 0 1 .76.66l.08.1c-.3.2-.62.38-.92.5-1 .3-1.8.34-2.83.3a7.4 7.4 0 0 1-2.8-.78c-.96-.47-1.79-.92-2.62-1.57a25.95 25.95 0 0 1-4.41-4.5m-1.05.75a27.27 27.27 0 0 0 4.87 4.5 12.95 12.95 0 0 0 6.16 2.46c1.1.09 2.34-.12 3.34-.52s1.82-1.1 2.36-1.97c.56-.87.7-1.97.51-3.02a7 7 0 0 0-1.34-3.02 8.16 8.16 0 0 0-2.58-2.19 11.55 11.55 0 0 0-3.51-1.25c-1.12-.2-2.15-.32-3.27-.4-1.1-.09-2.21-.23-3.29-.24-1.07-.02-2.1-.04-3.12-.16-1.02-.09-2.04-.28-3.07-.5l-2.48-.6 1.26 1.75c1.35 1.8 2.73 3.5 4.16 5.16"/>
  <path fill="#fddf11" d="M71.17 45.21c.39 1.96.93 3.91 1.8 5.75a11.1 11.1 0 0 0 3.75 4.61c.84.54 1.92.89 2.88.98.96.09 1.94-.15 2.76-.64a4.16 4.16 0 0 0 1.78-2.27c.34-.95.44-2 .31-3.05a7.41 7.41 0 0 0-1.12-2.89 8.37 8.37 0 0 0-2.08-2.32 31.33 31.33 0 0 0-2.5-1.82c-.84-.53-1.7-1.15-2.54-1.61a27.6 27.6 0 0 1-2.31-1.47c-.77-.5-1.61-.97-2.32-1.59l-1.1-.95v1.31c.07 2.02.3 3.99.69 5.96"/>
  <path fill="#edae09" d="M72.33 45.03a36.3 36.3 0 0 1-.3-2.87c-.02-.34-.12-1.09-.15-1.43.31.28.88.66 1.2.92.8.63 1.7 1.19 2.63 1.8 1.64 1.1 3 1.97 4.5 3.16.7.57 1.38 1.2 1.95 1.88.57.7.95 1.25 1.24 2.12.3.86.35 1.5.11 2.4-.16.65-.32.83-.63 1.15l-.49-.57c-.43-.49-.8-.9-1.19-1.28-.47-.46-.88-.86-1.26-1.2l-1.06-.89a57.55 57.55 0 0 1-3.2-2.86l-.56-.6-.37-.5c.16.46.4.9.65 1.32.25.42.51.83.78 1.24.55.82 1.12 1.62 1.68 2.41.29.4.6.8.85 1.16a12.48 12.48 0 0 1 1.51 2.92l.09.28.02.11c-.33.05-.67.06-.96.03a6.29 6.29 0 0 1-4.23-2.76c-.54-.79-.98-1.5-1.35-2.38a23.37 23.37 0 0 1-1.45-5.56m-1.17.17c.4 1.96.94 3.91 1.81 5.75a11.06 11.06 0 0 0 3.75 4.61c.83.54 1.91.89 2.87.98.97.09 1.94-.15 2.76-.64a4.16 4.16 0 0 0 1.78-2.27c.34-.95.44-2 .32-3.05a7.33 7.33 0 0 0-1.06-2.89 9.77 9.77 0 0 0-2.2-2.5 28.61 28.61 0 0 0-2.4-1.7c-.84-.53-1.66-1.12-2.5-1.57-.83-.47-1.64-.92-2.4-1.45-.77-.5-1.61-.97-2.31-1.58v-.01l-1.12-.97.02 1.34c.07 2.02.3 3.98.68 5.95"/>
  <path fill="#fddf11" d="M80.88 48.9a20.66 20.66 0 0 0 2.95 4.12 9.31 9.31 0 0 0 4.21 2.7c.81.21 1.76.21 2.56.03s1.52-.62 2.05-1.23c.54-.6.8-1.45.82-2.29a5.57 5.57 0 0 0-2.2-4.54c-.69-.6-1.46-1.01-2.28-1.3-.8-.3-1.66-.6-2.48-.81-.81-.2-1.66-.48-2.45-.62-.8-.15-1.5-.35-2.24-.56-.74-.2-1.54-.36-2.27-.67l-1.39-.52.6 1.1c.6 1.6 1.3 3.1 2.12 4.59"/>
  <path fill="#edae09" d="M81.76 48.43a35.6 35.6 0 0 1-1-2.21l-.5-1.12c.33.15.88.3 1.2.43.83.3 1.68.5 2.6.76 1.58.44 2.9.78 4.41 1.34.72.27 1.43.59 2.06.99.63.4 1.1.74 1.55 1.36.46.62.67 1.12.72 1.9.04.56-.03.75-.2 1.08l-.54-.33c-.48-.27-.9-.5-1.29-.7l-1.31-.65c-.38-.2-.75-.38-1.2-.59a71.05 71.05 0 0 1-3.48-1.75l-.44-.3c.26.32.46.6.77.88l1 .85 1.87 1.4c.34.23.7.47.99.7.31.23.44.66.71.9.28.26.54.52.77.8l.33.41.13.2.05.08c-.25.13-.51.23-.76.28a5.43 5.43 0 0 1-4.12-1.1c-.63-.48-1.17-.94-1.7-1.54a19.87 19.87 0 0 1-2.62-4.07m-.88.44A20.77 20.77 0 0 0 83.83 53a9.32 9.32 0 0 0 4.21 2.7c.81.21 1.76.21 2.56.03a3.9 3.9 0 0 0 2.05-1.23c.54-.61.8-1.45.82-2.29a5.53 5.53 0 0 0-.56-2.53 5.95 5.95 0 0 0-1.6-2.03 8.28 8.28 0 0 0-2.42-1.42c-.8-.3-1.55-.53-2.36-.74-.82-.2-1.62-.45-2.41-.6-.8-.15-1.56-.3-2.3-.52-.75-.2-1.76-.46-2.5-.76-.73-.31-1.38-.66-1.38-.66l.73 1.43c.58 1.6 1.38 3.02 2.2 4.5"/>
  <path fill="#fddf11" d="m114.4 5.35-1.47-.63.6 1.53a26.67 26.67 0 0 1 1.03 4.97c.08.89.3 1.84.43 2.75.15.9.38 1.88.63 2.78.24.92.6 1.79 1.2 2.58s1.2 1.47 2.06 1.93 1.8.73 2.73.74a4.1 4.1 0 0 0 2.62-.79 4.53 4.53 0 0 0 1.57-2.18c.3-.88.4-1.93.25-2.83a9.67 9.67 0 0 0-2.55-4.79 21.26 21.26 0 0 0-4.25-3.49 33.06 33.06 0 0 0-4.85-2.57"/>
  <path fill="#edae09" d="M122.9 12c.6.6 1.06 1.23 1.53 1.96s.7 1.3.87 2.22c.1.85.1 1.51-.1 2.38-.08.26-.21.55-.38.82l-.08-.06-.21-.16a11.1 11.1 0 0 1-1.93-2.29l-.69-1.12a65 65 0 0 0-1.42-2.26c-.26-.37-.51-.74-.78-1.1-.27-.35-.55-.7-.89-1l.29.5.3.67c.17.4.32.81.47 1.23.28.83.54 1.66.8 2.5.12.44.21.77.36 1.23.14.44.34.93.55 1.5a23.35 23.35 0 0 0 .95 2.07c-.38.16-.6.23-1.22.16a3.35 3.35 0 0 1-2.01-.89 5.2 5.2 0 0 1-1.35-1.79c-.38-.72-.66-1.51-.88-2.32-.45-1.7-.7-3.18-1.02-4.95-.18-1.02-.33-1.98-.57-2.9-.1-.36-.2-.98-.34-1.34.3.13.9.47 1.18.6.8.38 1.58.78 2.35 1.22A20.6 20.6 0 0 1 122.9 12m-8.49-6.63-1.47-.63.6 1.53c.26.82.5 1.63.64 2.47.17.83.25 1.68.34 2.56.07.89.27 1.79.4 2.7.15.91.32 1.75.56 2.65a8.6 8.6 0 0 0 1.33 2.74 6.04 6.04 0 0 0 4.81 2.62c.93.03 1.89-.21 2.62-.78a4.55 4.55 0 0 0 1.57-2.19c.3-.87.4-1.92.25-2.83a9.74 9.74 0 0 0-2.55-4.79 21.18 21.18 0 0 0-4.25-3.48c-1.55-1-3.14-1.84-4.85-2.57"/>
  <path fill="#fddf11" d="m125.7 10.8-.78-1.63-.64 1.74a30.08 30.08 0 0 1-2.84 4.98c-.6.82-1.12 1.78-1.68 2.65-.56.9-1.1 1.9-1.55 2.83a8.33 8.33 0 0 0-.91 3.08 7.23 7.23 0 0 0 .3 3.19 6.84 6.84 0 0 0 1.76 2.66 4.6 4.6 0 0 0 2.8 1.3 5.13 5.13 0 0 0 2.98-.68 7.04 7.04 0 0 0 2.32-2.22 10.92 10.92 0 0 0 1.42-5.96c-.03-2.1-.44-4.14-1-6.13-.56-2-1.28-3.91-2.18-5.8"/>
  <path fill="#edae09" d="M127.9 22.76c.08.98-.01 1.84-.16 2.81-.14.98-.39 1.63-.92 2.54a7.56 7.56 0 0 1-1.86 1.95c-.27.16-.6.3-.94.4l-.03-.1-.05-.3a9.42 9.42 0 0 1-.08-1.98 16 16 0 0 1 .15-1.4l.26-1.46c.18-1 .35-2 .48-3 .07-.5.12-1 .16-1.5.04-.5.07-1.02 0-1.51l-.13.63a14.88 14.88 0 0 1-.77 2.19c-.38.92-.79 1.82-1.2 2.72-.2.47-.39.81-.6 1.3-.21.49-.42 1.06-.65 1.69-.19.5-.35 1.08-.55 1.72l-.2.75a2.19 2.19 0 0 1-1.15-.77 3.85 3.85 0 0 1-1.05-2.27 6.15 6.15 0 0 1 .2-2.52c.22-.9.57-1.77 1-2.62.88-1.79 1.78-3.22 2.83-4.97.6-1 1.2-1.92 1.69-2.87.19-.39.55-1 .71-1.4.15.33.4 1.06.55 1.4.4.9.75 1.84 1.07 2.78a22.86 22.86 0 0 1 1.25 5.8m-2.23-11.98-.78-1.63-.63 1.74c-.39.9-.8 1.76-1.3 2.58-.49.82-1.05 1.61-1.64 2.43-.59.8-1.1 1.71-1.66 2.59-.56.88-1.05 1.72-1.5 2.66a9.8 9.8 0 0 0-.94 3.32 6.86 6.86 0 0 0 2.12 5.82 4.62 4.62 0 0 0 2.8 1.28 5.11 5.11 0 0 0 2.98-.68 7 7 0 0 0 2.31-2.2 10.91 10.91 0 0 0 1.43-5.97c-.03-2.1-.45-4.15-1-6.13-.57-2-1.29-3.91-2.19-5.8"/>
  <path fill="#fddf11" d="M114.49 22.99c-.15 1.9-.14 3.83.21 5.74.37 1.9 1.1 4.2 2.43 5.61.66.7 1.55.83 2.46 1.14.91.31 1.9.33 2.83.07a4.34 4.34 0 0 0 2.32-1.68c.57-.8.94-1.75 1.1-2.75s-.03-1.95-.31-2.94a7.66 7.66 0 0 0-1.39-2.64 27.88 27.88 0 0 0-1.92-2.28c-.67-.7-1.32-1.47-2.01-2.1a27.93 27.93 0 0 1-3.5-4l-.89-1.47-.41 1.62a35.55 35.55 0 0 0-.92 5.67"/>
  <path fill="#edae09" d="M115.64 23.1c.12-.92.27-1.83.47-2.73.06-.33.16-1.04.24-1.37.22.34.66.83.9 1.14.62.78 1.32 1.5 2.06 2.3 1.28 1.4 2.34 2.54 3.48 3.99.54.7 1.02 1.43 1.38 2.2.36.77.6 1.38.64 2.25.05.88-.07 1.48-.53 2.25a2 2 0 0 1-.91.92s-.1-.23-.32-.65c-.29-.54-.54-1.03-.81-1.46-.33-.53-.62-1-.9-1.4l-.78-1.08a62.15 62.15 0 0 1-2.32-3.42 8.44 8.44 0 0 1-.37-.68l-.24-.55c.04.46.16.92.28 1.37.13.45.27.9.42 1.34.3.88.64 1.76.98 2.63.18.42.36.88.5 1.28a11.36 11.36 0 0 1 .64 2.46c.03.2.05.4.05.6v.38c-.33-.04-1.13.52-1.4.42a3.6 3.6 0 0 1-1.85-1.65c-.52-.84-.76-1.62-1.04-2.5-.3-.93-.51-1.72-.63-2.62-.24-1.8-.17-3.6.06-5.42m-1.16-.12c-.15 1.9-.14 3.84.2 5.75.38 1.9 1.06 4.2 2.39 5.6.66.7 1.6.83 2.5 1.14.92.31 1.91.33 2.83.07a4.3 4.3 0 0 0 2.33-1.68 6.45 6.45 0 0 0 .84-5.67 8.94 8.94 0 0 0-1.45-2.84 27.5 27.5 0 0 0-1.85-2.15c-.67-.69-1.3-1.42-1.98-2.04a28.88 28.88 0 0 1-1.93-1.9c-.6-.66-1.14-1.37-1.66-2.1v-.01l-.89-1.47-.41 1.62a35.27 35.27 0 0 0-.92 5.68"/>
  <path fill="#fddf11" d="M112.17 35.43a22.08 22.08 0 0 0-1.48 5.59 10.2 10.2 0 0 0 .77 5.68 6.68 6.68 0 0 0 1.96 2.3c.78.58 1.74.9 2.7.94h.01c.98.06 1.95-.3 2.74-.9a6.1 6.1 0 0 0 1.88-2.28c.45-.92.55-1.88.57-2.92a7.78 7.78 0 0 0-.56-2.96c-.34-.92-.75-1.91-1.19-2.79-.44-.87-.84-1.82-1.32-2.63-.48-.82-.85-1.58-1.23-2.4-.39-.8-.69-1.66-.97-2.52v-.01l-.43-1.69-.87 1.43a33.89 33.89 0 0 0-2.58 5.16"/>
  <path fill="#edae09" d="M113.27 35.9c.4-.85.82-1.67 1.26-2.48.17-.29.48-.94.64-1.23.12.39.4 1 .54 1.37.37.94.84 1.86 1.31 2.85.83 1.73 1.53 3.15 2.19 4.9a12 12 0 0 1 .7 2.55c.12.85.16 1.5-.06 2.35-.21.85-.5 1.4-1.17 2-.5.43-.72.5-1.16.59 0 0-.03-.25-.12-.71-.11-.62-.22-1.16-.35-1.66-.16-.62-.3-1.16-.45-1.63-.15-.48-.59-.6-.74-1.05-.3-.88-.6-1.76-.87-2.65-.13-.45-.26-.9-.36-1.34-.07-.26-.12-.52-.16-.77l-.06-.6c-.1.45-.13.93-.14 1.4-.02.47 0 .94.01 1.42.03.93.1 1.88.17 2.82.04.46.06.72.2 1.18.11.43.25.85.22 1.29a7.84 7.84 0 0 1-.25 1.83l-.07.27-.04.1c-.32-.14-.6-.3-.84-.48a7.13 7.13 0 0 1-1.56-2 5.86 5.86 0 0 1-.62-2.45c-.05-.92-.06-1.73.1-2.63.3-1.8.93-3.56 1.68-5.24m-1.08-.48a22.2 22.2 0 0 0-1.49 5.59 10.2 10.2 0 0 0 .77 5.68 6.72 6.72 0 0 0 1.97 2.3c.78.58 1.74.9 2.7.94h.01c.98.06 1.95-.3 2.73-.9a6.14 6.14 0 0 0 1.89-2.28c.45-.92.6-1.84.62-2.89a8.99 8.99 0 0 0-.56-3.18c-.34-.91-.72-1.75-1.16-2.62-.45-.88-.84-1.77-1.33-2.59-.47-.81-.92-1.6-1.3-2.42-.39-.8-.7-1.66-.97-2.52v-.01l-.43-1.69-.87 1.43a34.16 34.16 0 0 0-2.58 5.16"/>
  <path fill="#fddf11" d="m130.25 26.08-.49-.7-.76.2c-.7.69-1.4 1.33-2.14 1.9-.75.57-1.46 1.1-2.3 1.63-.82.52-1.66 1.2-2.5 1.8-.82.6-1.67 1.33-2.44 2.02-.8.71-1.5 1.53-2.01 2.55a8.15 8.15 0 0 0-1.02 3.15c-.1 1.14.04 2.28.42 3.3a4.6 4.6 0 0 0 1.89 2.42c.85.51 1.84.75 2.81.63a6.36 6.36 0 0 0 2.87-1.12c1.66-1.2 2.78-3.07 3.6-5.06.82-2.01 1.28-4.14 1.6-6.26.32-2.15.48-4.27.47-6.47"/>
  <path fill="#edae09" d="M127.36 38.41c-.33.96-.76 1.74-1.27 2.6a6.32 6.32 0 0 1-4.18 3.08c-.28.05-.62.04-.96 0l.02-.13.07-.3a13 13 0 0 1 1.42-3.19l.8-1.28a65.66 65.66 0 0 0 2.36-4c.23-.46.46-.94.6-1.44l-.36.55-.53.65a56.58 56.58 0 0 1-3.13 3.18l-1.03.98c-.38.37-.77.82-1.23 1.32-.37.41-.73.88-1.15 1.4l-.47.64a2.3 2.3 0 0 1-.68-1.23 4.43 4.43 0 0 1 .01-2.6c.26-.95.64-1.57 1.18-2.32.54-.76 1.2-1.44 1.9-2.07 1.48-1.32 2.8-2.3 4.42-3.5.91-.7 1.79-1.32 2.58-2.02.32-.3.88-.71 1.18-1.03 0 .38-.08 1.18-.1 1.56a39.1 39.1 0 0 1-.2 3.1 26.44 26.44 0 0 1-1.25 6.05m2.96-12.24-.5-.9-.81.3a21.76 21.76 0 0 1-4.52 3.5c-.83.52-1.63 1.17-2.46 1.76a28 28 0 0 0-2.35 1.9c-.8.7-1.6 1.74-2.13 2.75a7.95 7.95 0 0 0-.53 6.44 4.58 4.58 0 0 0 1.89 2.42c.85.52 1.84.75 2.8.63a6.36 6.36 0 0 0 2.88-1.11c1.65-1.21 2.78-3.07 3.6-5.07.81-2 1.28-4.13 1.6-6.26.32-2.14.54-4.17.54-6.36"/>
  <path fill="#fddf11" d="m127.89 41.97 1.03-1.38-1.96.31h-.01a34.25 34.25 0 0 1-6.12.74c-1.08 0-2.24.17-3.36.25-1.12.08-2.31.26-3.42.46-1.14.2-2.25.54-3.3 1.14a8.27 8.27 0 0 0-2.64 2.16 7 7 0 0 0-1.34 3.02 4.22 4.22 0 0 0 .52 3.02 4.88 4.88 0 0 0 2.36 1.97c1 .4 2.23.61 3.34.53 2.23-.2 4.3-1.2 6.15-2.47a27.27 27.27 0 0 0 4.87-4.5 40.75 40.75 0 0 0 3.87-5.25"/>
  <path fill="#edae09" d="M118.55 50.97a14.6 14.6 0 0 1-2.6 1.57 7.4 7.4 0 0 1-5.64.48c-.3-.12-.61-.3-.92-.5l.08-.1a5.7 5.7 0 0 1 .76-.66c.37-.3.77-.57 1.2-.83.42-.25.87-.5 1.33-.72.44-.21.98-.44 1.45-.67a77.06 77.06 0 0 0 4.39-2.2c.47-.28.94-.56 1.35-.91l-.64.28a26.33 26.33 0 0 1-2.41.7c-1.04.25-2.1.47-3.14.68-.53.11-.94.18-1.52.31a35.53 35.53 0 0 0-3.73 1.1l-.8.29c-.12-.45-.17-.7.01-1.4.26-.95.66-1.52 1.4-2.2.76-.67 1.44-1 2.36-1.36.93-.37 1.93-.61 2.93-.79 2.12-.37 3.91-.51 6.1-.72 1.24-.12 2.42-.2 3.55-.4.47-.07 1.22-.15 1.67-.27-.2.32-.7.97-.91 1.28-.58.87-1.2 1.72-1.85 2.55a25.55 25.55 0 0 1-4.42 4.49m9.63-8.9 1.26-1.76-2.48.59c-1.03.23-2.05.42-3.07.51-1.02.11-2.05.13-3.12.16-1.07.01-2.18.15-3.3.23-1.12.08-2.15.2-3.26.4-1.14.2-2.47.67-3.5 1.26a8.03 8.03 0 0 0-2.6 2.19 7.02 7.02 0 0 0-1.34 3.02 4.24 4.24 0 0 0 .52 3.02 4.9 4.9 0 0 0 2.37 1.97c1 .4 2.23.6 3.34.52 2.23-.18 4.3-1.19 6.15-2.46a27.26 27.26 0 0 0 4.86-4.5 97.63 97.63 0 0 0 4.17-5.16"/>
  <path fill="#fddf11" d="m113.47 39.25.01-1.32-1.1.95v.01c-.71.61-1.55 1.08-2.32 1.6-.75.51-1.48 1-2.31 1.45-.84.46-1.7 1.09-2.53 1.61a30.4 30.4 0 0 0-2.5 1.83 8.33 8.33 0 0 0-2.09 2.32 6.62 6.62 0 0 0-.8 5.94c.33.94.93 1.79 1.77 2.27.82.5 1.8.72 2.77.63a6.71 6.71 0 0 0 2.88-.97 11.06 11.06 0 0 0 3.74-4.61 24.35 24.35 0 0 0 1.8-5.75c.4-1.98.62-3.94.68-5.96"/>
  <path fill="#edae09" d="M110.16 50.6c-.36.87-.8 1.59-1.34 2.37a6.3 6.3 0 0 1-4.24 2.77c-.3.03-.62.01-.96-.03l.03-.12.07-.27a9.89 9.89 0 0 1 .8-1.76c.22-.4.46-.78.72-1.16l.85-1.16c.57-.8 1.14-1.6 1.68-2.41l.79-1.25c.24-.42.48-.85.64-1.31l-.38.5a21.89 21.89 0 0 1-1.59 1.59c-.7.63-1.42 1.26-2.15 1.87-.38.31-.67.55-1.07.9-.38.32-.79.73-1.26 1.18a27.17 27.17 0 0 0-1.68 1.85c-.31-.31-.46-.5-.63-1.15-.23-.9-.18-1.53.12-2.4.28-.87.66-1.42 1.23-2.11.57-.7 1.25-1.31 1.97-1.88 1.5-1.19 2.86-2.06 4.48-3.16.93-.62 1.83-1.17 2.64-1.8.32-.27.89-.65 1.2-.93-.03.35-.13 1.09-.15 1.44-.07.96-.17 1.91-.31 2.87a23.3 23.3 0 0 1-1.46 5.56m3.3-11.35.03-1.33-1.12.96v.01c-.72.61-1.55 1.08-2.32 1.6-.76.51-1.57.96-2.4 1.43-.84.46-1.65 1.04-2.5 1.57-.85.54-1.6 1.07-2.4 1.7a9.49 9.49 0 0 0-2.19 2.51 7.06 7.06 0 0 0-1.06 2.89 6.62 6.62 0 0 0 .3 3.05c.34.94.95 1.79 1.79 2.27.82.5 1.8.72 2.76.63a6.75 6.75 0 0 0 2.88-.97 11.06 11.06 0 0 0 3.74-4.61 24.35 24.35 0 0 0 1.81-5.75c.39-1.98.62-3.94.68-5.96"/>
  <path fill="#fddf11" d="m105.86 44.3.6-1.1-1.38.53c-.73.3-1.52.46-2.27.66-.74.22-1.45.41-2.24.57-.8.14-1.63.42-2.45.62-.82.2-1.69.5-2.48.8-.82.3-1.6.7-2.28 1.3a5.48 5.48 0 0 0-2.2 4.54c.02.85.28 1.69.82 2.3.53.6 1.25 1.05 2.04 1.23.8.18 1.75.18 2.56-.03a9.3 9.3 0 0 0 4.21-2.7 20.44 20.44 0 0 0 2.96-4.13 31.09 31.09 0 0 0 2.1-4.59"/>
  <path fill="#edae09" d="M100.25 52.52c-.51.6-1.06 1.05-1.7 1.54a5.38 5.38 0 0 1-4.12 1.1c-.24-.05-.5-.15-.76-.28l.06-.08.13-.2c.1-.14.2-.28.33-.41.23-.28.48-.54.77-.8.28-.25.4-.67.71-.9.3-.23.65-.47.98-.71a47.38 47.38 0 0 0 2.88-2.24c.3-.28.52-.56.77-.89l-.44.3a12.02 12.02 0 0 1-1.69.86c-.73.33-1.07.55-1.8.9l-1.2.59-1.3.64c-.4.2-.82.44-1.3.71l-.53.33a1.73 1.73 0 0 1-.2-1.08c.05-.78.26-1.28.72-1.9.45-.62.91-.97 1.55-1.37.63-.4 1.34-.72 2.06-.98 1.51-.56 2.82-.9 4.42-1.35.9-.25 1.77-.46 2.58-.76.34-.12.88-.27 1.2-.42-.1.27-.38.84-.5 1.11-.3.75-.63 1.5-.99 2.22a19.88 19.88 0 0 1-2.63 4.07m5.72-8.13.72-1.42s-.64.34-1.37.65c-.73.31-1.75.56-2.5.77-.74.22-1.5.37-2.3.52-.78.15-1.6.4-2.41.6-.81.21-1.57.43-2.36.73-.82.3-1.74.84-2.42 1.43a6.06 6.06 0 0 0-1.6 2.03 5.5 5.5 0 0 0-.56 2.53c.02.84.28 1.68.83 2.28.53.6 1.24 1.06 2.04 1.24.8.18 1.75.18 2.56-.03a9.3 9.3 0 0 0 4.2-2.7 20.44 20.44 0 0 0 2.97-4.13c.82-1.48 1.62-2.9 2.2-4.5"/>
  <path fill="#1c4e9d" d="M151.26 157.37c-13.88 0-21.75 4.24-32.18 10.72-9.2 5.72-19.67 7.86-26.44 7.97l-.61.01c-6.85 0-17.53-2.1-27-7.98-10.42-6.47-18.3-10.72-32.17-10.72-12.94 0-23.29 5.53-27.7 14.79.03 7.15 2.71 14.13 4.15 16.3.12.15.24.35.37.56.96 1.48 2.51 3.89 5.09 6.03 2.1-3.83 6.37-9.86 13.12-11.71 2.13-.59 4.32-.88 6.5-.88 7.3 0 13.55 3.24 18.18 6.07l.2.12c6.92 4.22 18.47 11.28 39.1 11.32l.08-.01h.15c20.72 0 32.32-7.08 39.25-11.32l.2-.12c4.63-2.82 10.88-6.07 18.17-6.07 2.18 0 4.37.3 6.51.88 6.74 1.85 11.02 7.88 13.12 11.71a25.04 25.04 0 0 0 5.08-6.02l.37-.58c1.44-2.16 4.13-9.14 4.16-16.29-4.41-9.25-14.76-14.78-27.7-14.78"/>
  <g fill="#fddf11">
    <path d="M14.3 172.69c.35-.21 1.09-.57 1.67-.9l1.64-.96c.08 0 .24.3.23.36-.26.22-.43.4-.48.5-.03.09 0 .2.12.31.57.51 3.15 2.6 3.73 3.04.01 0 .05 0 .06-.04-.05-.78-.44-3.52-.63-4.33-.08-.43-.24-.63-.58-.55-.19.05-.45.13-.76.25-.07-.04-.2-.35-.17-.4.19-.1.59-.28 1.38-.71.7-.4 1.02-.62 1.27-.76.06.01.22.26.22.36-.22.19-.4.35-.48.47-.2.31-.2.63-.14 1.24.1 1 .32 2.9.53 4.58.1.9.23 1.5.3 1.88-.22.1-.71.38-.94.53-.41-.38-.86-.78-1.4-1.22-1.44-1.17-2.63-2.16-3.4-2.75-.8-.62-1.07-.77-1.49-.66-.17.03-.28.07-.52.16-.08-.06-.2-.36-.17-.4"/>
    <path d="M22.77 168.34c.43-.13.96-.25 1.8-.5 1.15-.35 1.54-.5 1.8-.58.04.03.15.33.12.4-.23.11-.45.21-.6.3-.22.18-.18.35-.1.7.1.38.36 1.23.67 2.26.43 1.44.68 2.32.85 2.77.08.22.17.49.53.47.16 0 .46-.04.72-.07.05.05.1.37.06.43-.5.13-.95.24-1.8.5-1.07.32-1.42.46-1.88.6-.07-.03-.17-.34-.12-.4l.52-.27c.29-.16.33-.28.22-.77-.1-.42-.51-1.8-.8-2.77a39.08 39.08 0 0 0-.74-2.34c-.1-.25-.23-.39-.45-.4-.24 0-.4.03-.7.07-.05-.04-.13-.34-.1-.4"/>
    <path d="M32.17 167.23a.3.3 0 0 0-.09.2c-.02.27 0 1.2.03 2.84 0 .05.04.1.07.1.54.02 1.13-.04 1.35-.17.32-.17.55-.5.54-1.29-.02-1.03-.6-1.75-1.57-1.73-.09 0-.25.02-.33.05m-2.85-.53c.3 0 1.28.02 1.75 0 .95 0 1.63-.06 2.37-.07 1.54-.03 2.39.74 2.4 1.87.02.97-.6 1.57-1.42 1.9-.01.02-.02.08-.01.1.25.46 1.4 2.13 2.03 2.7.45.42.52.45 1.16.52.03.03-.03.4-.08.45-.74.08-2 .04-2.53-.18a1.8 1.8 0 0 1-.63-.52c-.5-.6-1.11-1.65-1.53-2.3a.4.4 0 0 0-.36-.22l-.3.01c-.02 0-.05.05-.05.07l.06 2.09c.03.36.1.5.36.58.23.05.34.07.67.1.06.02.06.4-.02.44-.28 0-.87-.03-1.86-.01-1.03.02-1.6.06-1.86.07-.05-.05-.08-.37-.02-.42.23-.03.41-.07.57-.11.26-.07.35-.23.36-.62a98.25 98.25 0 0 0-.09-5.37c-.02-.33-.13-.5-.36-.55-.15-.04-.4-.08-.63-.1-.06-.08-.04-.4.02-.43"/>
    <path d="M39.38 166.88c.45.07.99.19 1.84.32 1.2.2 1.62.21 1.88.26.02.05-.01.36-.07.42-.26 0-.5 0-.66.02-.29.06-.33.23-.4.58-.08.38-.2 1.26-.37 2.32-.23 1.49-.38 2.39-.43 2.87-.02.23-.06.51.28.65.14.08.44.16.68.25.03.07-.07.38-.13.4-.5-.08-.96-.18-1.84-.32-1.11-.17-1.49-.2-1.96-.26-.05-.06 0-.39.07-.42l.58-.01c.33-.03.42-.11.54-.6.1-.43.3-1.85.47-2.85.2-1.3.29-1.9.34-2.43.03-.27-.04-.44-.24-.55-.22-.1-.38-.15-.65-.23-.03-.07.02-.38.07-.42"/>
    <path d="M47.82 169.31c-.04 0-.1.07-.14.13a56 56 0 0 0-.77 2.29c-.02.03.01.07.04.07.1.05.3.11.55.2.36.12.68.19.83.16.37-.1.61-.37.77-.83.28-.87.04-1.64-1-1.99l-.28-.03m.54 5.33c.32-1-.09-1.83-1.21-2.2a3.9 3.9 0 0 0-.37-.11c-.03-.01-.07 0-.09.05-.28.85-.64 1.93-.78 2.49-.05.13-.01.32.03.43.14.3.55.52.67.56.73.24 1.4-.17 1.75-1.22m-3.1-6.78c.28.1.78.3 1.68.6.93.3 1.78.54 2.1.65 1.11.36 2.24 1.03 1.79 2.38-.2.64-.87 1.1-1.8 1.05-.03 0-.04.06-.03.07 1 .57 1.6 1.33 1.25 2.37-.3.92-.99 1.4-2.07 1.52-.62.07-1.44-.09-2.14-.32-.52-.17-2.47-.87-3.28-1.14-.01-.08.07-.38.14-.4.37.08.6.1.81.1.2 0 .33-.12.47-.44.13-.3.43-1.2.86-2.54.4-1.2.63-1.9.82-2.56.08-.32.03-.47-.15-.61-.16-.13-.4-.25-.58-.32-.03-.08.08-.4.13-.4"/>
    <path d="M52.87 170.44c.42.2 1.03.53 1.71.86.75.36 1.34.6 1.8.82.02.08-.1.34-.19.39-.2-.08-.4-.12-.56-.16-.3-.07-.5.09-.67.43-.43.78-.88 1.81-1.17 2.4-.21.43-.47 1.04-.6 1.48-.24.84.05 1.61 1.15 2.15.76.36 1.71.5 2.55-.97.48-.8 1.33-2.58 1.58-3.22.19-.43.2-.69-.13-.95a4.67 4.67 0 0 0-.62-.43c0-.08.12-.32.2-.37.42.2.86.45 1.38.7.85.41 1.12.5 1.37.62.03.08-.1.35-.18.38-.18-.05-.35-.1-.52-.12-.31-.07-.49.05-.79.59-.2.36-1 1.91-1.37 2.65-1.2 2.26-2.71 2.46-4.46 1.62-2.02-.97-2.22-2.29-1.82-3.44.3-.87 1.15-2.58 1.78-3.92.12-.3.13-.53-.1-.74-.12-.11-.33-.27-.53-.4 0-.07.13-.33.19-.37"/>
    <path d="M59.47 181.54c.17.37.51.67.82.85.5.29 1.09.2 1.4-.34.29-.51.26-.95-.4-2.14-.6-1.1-1.11-2.04-.46-3.2.72-1.28 2.17-1.37 3.43-.66.83.47 1.2.86 1.7 1.2-.3.38-.66.85-1.08 1.51-.09.03-.36-.13-.4-.19.28-.72.31-1.12.16-1.45a1.4 1.4 0 0 0-.68-.7 1.01 1.01 0 0 0-1.45.38c-.25.46-.2.88.08 1.44.3.56.49.87.8 1.42.52.95.61 1.63.17 2.41-.65 1.16-2.1 1.56-3.78.62-.75-.42-1.3-1-1.5-1.3-.01-.24.44-1.56.65-1.95.07-.04.4.03.45.1-.2.88-.14 1.47.09 2"/>
    <path d="M70.9 179.7c.9.31 1.7.62 2.82 1a2.7 2.7 0 0 0-.03.84c.12 1.18.34 3.44.44 4.18.02.03.06.03.07.03.54-.51 2.31-2.35 2.94-3.08.2-.22.4-.47.47-.65 1.34.46 1.92.61 2.63.85.04.05-.08.37-.14.4-.35-.06-.59-.09-.77-.1-.32 0-.42.19-.53.5-.3.83-1.3 4.07-1.5 4.9-.1.31-.13.6.18.79.15.1.38.23.63.37.03.07-.1.35-.17.39-.39-.13-.84-.32-2-.72-.65-.22-1.17-.36-1.7-.53-.02-.08.1-.37.15-.4.3.04.49.07.67.07.22-.01.32-.16.45-.51.34-.92 1.07-3.1 1.46-4.25-.02-.02-.05-.02-.06-.02-.94 1.03-3.41 3.67-4.06 4.51-.09.01-.5-.14-.54-.16.04-1.07-.11-3.14-.3-6.02h-.09a99.1 99.1 0 0 0-1.6 4.06c-.15.43-.11.6.2.83.19.13.36.25.7.4.03.06-.1.36-.16.4-.4-.13-.84-.32-1.62-.58-.46-.16-.97-.3-1.41-.45-.02-.07.07-.37.12-.4.24.05.46.09.63.1.37.02.56-.09.81-.6.42-.86 1.67-3.7 2.01-4.61.1-.22.12-.5-.1-.67-.18-.15-.46-.3-.78-.48 0-.07.13-.37.18-.39"/>
    <path d="M83.66 185.33c-.38.64-.88 1.6-1.18 2.13-.03.05-.02.09 0 .1l.7.13c.4.08.7.13.82.14.02 0 .05-.03.06-.05-.06-.4-.24-1.72-.36-2.44-.01 0-.04-.02-.04 0m-3.02 3.85c.96-1.47 2.46-4.01 2.93-4.84.14-.23.34-.61.4-.82l.64.15c.25.05.44.07.61.08l.08.76c.21 1.27.67 4.23.89 5.4.21 1.1.26 1.2 1.15 1.52.02.05-.06.37-.12.4-.31-.05-.84-.19-1.79-.36-1.03-.19-1.42-.22-1.88-.3-.01-.09.03-.38.07-.42.26-.01.51-.01.64-.07a.22.22 0 0 0 .16-.2c-.02-.43-.16-1.33-.25-1.8-.03-.02-.06-.1-.1-.1-.2-.05-.62-.11-.94-.17l-.98-.17c-.05 0-.13.04-.16.08-.32.57-.71 1.23-.75 1.44-.02.18-.02.35.27.47.2.09.36.16.58.23.03.06-.07.37-.12.41-.35-.06-.82-.19-1.53-.32-.46-.08-.97-.13-1.4-.21-.02-.07.02-.37.08-.42.89.02 1.07-.06 1.52-.74"/>
    <path d="M91.54 185a.27.27 0 0 0-.1.19c-.03.27-.03 1.2-.04 2.84 0 .05.04.1.07.1.54.03 1.13-.01 1.35-.14.33-.16.57-.48.57-1.26 0-1.04-.56-1.77-1.52-1.78-.09 0-.25.01-.33.05m-2.84-.6c.3 0 1.28.04 1.75.04.95.01 1.63-.02 2.37-.02 1.53.01 2.37.8 2.36 1.93-.01.97-.65 1.56-1.47 1.87-.02.02-.03.08-.02.1.23.47 1.36 2.16 1.96 2.75.44.43.52.46 1.15.54.02.04-.03.42-.09.46a7.1 7.1 0 0 1-2.52-.25 1.9 1.9 0 0 1-.62-.53c-.5-.61-1.07-1.68-1.47-2.34a.43.43 0 0 0-.36-.23h-.3c-.02 0-.04.05-.04.07v2.09c.01.36.09.5.35.59.22.06.33.08.66.13.06.01.05.4-.03.42-.27 0-.87-.04-1.85-.05-1.05 0-1.6.03-1.87.03-.05-.05-.07-.38 0-.43.21-.02.4-.06.57-.1.26-.06.35-.22.36-.6a85.9 85.9 0 0 0 .05-5.37c0-.34-.12-.51-.34-.57-.15-.04-.4-.09-.64-.11-.05-.08-.02-.4.04-.43"/>
    <path d="M96.9 184.27c.45-.05 1-.08 1.85-.2 1.2-.15 1.62-.24 1.88-.27.04.04.09.35.04.42l-.62.2c-.26.14-.26.32-.21.68.02.38.14 1.26.28 2.33.19 1.5.29 2.4.37 2.88.04.22.09.5.45.55.16.03.47.03.72.04.05.06.04.39 0 .43-.52.05-.99.09-1.86.2-1.12.14-1.49.23-1.96.28-.07-.04-.1-.36-.05-.42l.56-.17c.3-.11.37-.22.35-.72-.04-.44-.22-1.86-.34-2.86-.17-1.32-.25-1.91-.35-2.44-.05-.26-.15-.42-.37-.47-.25-.03-.4-.03-.7-.04-.05-.05-.09-.36-.04-.42"/>
    <path d="M105.1 182.93c.4-.14 1.19-.37 1.8-.6.77-.26 1.55-.57 1.8-.67.08.02.18.34.17.4-.3.17-.5.32-.57.4-.04.09-.03.2.07.34.47.6 2.66 3.1 3.15 3.63.02 0 .06 0 .07-.03.09-.78.17-3.54.12-4.37 0-.44-.13-.66-.47-.65-.2.02-.48.05-.8.13-.06-.07-.13-.38-.1-.43.2-.07.64-.17 1.48-.47.76-.27 1.12-.43 1.38-.53.06.03.18.3.16.4-.26.14-.46.27-.56.38-.24.27-.3.58-.34 1.19a330 330 0 0 0-.26 4.6 18.6 18.6 0 0 0-.02 1.91c-.24.06-.78.25-1.02.36a171.66 171.66 0 0 0-4.04-4.73c-.7-.75-.94-.94-1.37-.9-.17 0-.3.02-.54.07-.07-.07-.14-.4-.1-.43"/>
    <path d="M114.22 179.53c.41-.2.92-.4 1.7-.75 1.1-.51 1.47-.73 1.7-.84.06.03.2.3.19.39-.21.14-.41.27-.54.38-.2.2-.14.37 0 .7.14.37.52 1.17.98 2.14.64 1.37 1.01 2.2 1.24 2.63.1.2.24.45.59.38.16-.01.46-.11.7-.17.07.04.16.35.13.41-.47.2-.91.38-1.72.75-1.01.48-1.34.67-1.76.87-.09-.02-.22-.3-.19-.38l.48-.34c.27-.2.29-.32.1-.79-.15-.4-.76-1.7-1.18-2.62-.56-1.2-.81-1.74-1.07-2.21-.13-.24-.28-.36-.5-.34-.25.05-.4.1-.68.18-.06-.04-.19-.32-.17-.4"/>
    <path d="M123.8 175.53c-.53-.02-1 .15-1.45.37-1.18.6-1.54 1.92-.52 3.94.76 1.51 2.25 2.8 4.05 1.9.32-.17.72-.42.9-.89.16-.39.26-1 .29-1.54.1-.02.35 0 .45.07.1.5.09 1.64-.12 2.01-.31.3-.72.7-1.53 1.1-2.5 1.27-4.6.8-5.8-1.62a3.64 3.64 0 0 1 .3-3.94c.45-.6 1.1-1.15 2.03-1.6.86-.45 1.83-.74 2.35-.97.1.38.46 1.36.76 1.95-.01.09-.35.29-.4.24-.43-.6-.73-.98-1.3-1.02"/>
    <path d="M133.98 178.34c-.46.21-1.08.46-1.85.82-1.03.48-1.6.79-1.97.97-.09-.03-.22-.32-.18-.39.26-.17.54-.34.66-.45.27-.2.3-.37.1-.89-.5-1.16-1.47-3.24-2.3-5 0-.02-.06-.08-.1-.07-.21.08-.83.37-1.08.51-.23.13-.35.29-.36.67-.02.32-.02.72.04 1.15-.03.06-.41.15-.48.09-.13-.5-.46-1.5-.67-2.04 0-.02.04-.1.08-.1.41-.05.83-.22 1.1-.35l4-1.87c.61-.29.97-.5 1.22-.73.03-.02.1.03.1.05.12.53.37 1.34.66 2.1-.03.06-.36.24-.4.22a5.45 5.45 0 0 0-.7-.9c-.23-.21-.39-.23-.61-.15-.32.11-1.04.46-1.2.55-.01.02-.02.06 0 .1.76 1.61 2.06 4.45 2.44 5.14.1.21.24.41.52.39.22-.02.4-.1.82-.22.06.02.18.33.16.4"/>
    <path d="M140.62 175.18c.4-.68.27-1.8-.03-2.82-.34-1.22-1.03-2.43-1.96-2.88a1.7 1.7 0 0 0-1.27-.1c-.33.1-.65.3-.83.53-.53.7-.47 1.77-.14 2.91.32 1.1 1.02 2.41 2.07 2.9.41.18.86.25 1.35.1.33-.09.63-.33.81-.64m-4.25 1.04a4.2 4.2 0 0 1-1.8-2.46 3.65 3.65 0 0 1 .33-3.01 4.2 4.2 0 0 1 2.63-1.98c2.5-.71 4.3.6 4.88 2.62.25.9.28 1.85-.02 2.63a4.09 4.09 0 0 1-2.78 2.45 4.04 4.04 0 0 1-3.24-.25"/>
    <path d="M146.11 168.07a.32.32 0 0 0-.07.2c-.01.27.04 1.2.13 2.84 0 .05.04.1.08.1.53-.01 1.12-.1 1.33-.23.31-.17.54-.5.5-1.3-.06-1.03-.66-1.72-1.63-1.68-.09 0-.25.03-.34.07m-2.85-.43c.3-.02 1.27-.03 1.75-.06.94-.05 1.62-.12 2.36-.16 1.53-.08 2.41.66 2.46 1.78.06.98-.55 1.6-1.36 1.96v.1c.26.45 1.48 2.08 2.12 2.63.46.4.54.43 1.18.48.02.03-.01.4-.06.45-.74.1-2 .1-2.53-.1-.31-.13-.58-.38-.65-.48-.54-.59-1.18-1.62-1.61-2.26-.1-.13-.2-.2-.37-.2l-.3.01c-.02 0-.05.05-.05.08l.14 2.08c.02.36.11.5.38.57.22.05.33.05.67.09.06 0 .06.4 0 .42-.28.02-.88.01-1.86.06-1.04.06-1.6.12-1.86.14-.06-.05-.1-.37-.04-.43.22-.03.4-.08.57-.13.26-.07.33-.24.33-.62 0-.4-.07-2.08-.11-2.85-.07-1.21-.1-1.97-.16-2.52-.03-.33-.15-.5-.38-.54-.15-.03-.4-.07-.63-.08-.06-.07-.06-.4 0-.42"/>
    <path d="M153.93 167.61c.44.08.98.2 1.83.34 1.19.2 1.61.24 1.87.28.03.05 0 .36-.06.42-.26-.01-.5-.01-.66.01-.3.06-.34.23-.4.58-.1.38-.23 1.25-.4 2.32-.25 1.48-.42 2.38-.47 2.87-.03.22-.06.5.27.65.14.07.44.16.68.25.02.07-.08.38-.13.4-.5-.09-.97-.2-1.84-.34-1.11-.18-1.49-.2-1.95-.28-.05-.06 0-.38.06-.42h.59c.33-.02.42-.11.54-.6.1-.43.33-1.84.5-2.84.22-1.3.32-1.9.37-2.43.02-.26-.03-.45-.23-.55-.22-.1-.37-.16-.65-.24-.03-.07.02-.38.08-.42"/>
    <path d="M162.98 171.83c-.51.54-1.21 1.37-1.62 1.82-.02.04-.03.08-.01.1l.66.28c.38.16.65.28.77.31l.06-.04c.03-.4.14-1.73.18-2.46-.02 0-.04-.03-.04-.01m-3.78 3.12c1.26-1.24 3.27-3.4 3.9-4.1.18-.2.46-.53.57-.71a8.68 8.68 0 0 0 1.17.5l-.08.74c-.07 1.29-.26 4.28-.3 5.47-.02 1.12 0 1.23.8 1.73 0 .06-.14.35-.21.38-.29-.13-.78-.37-1.66-.75-.97-.4-1.35-.52-1.78-.7.01-.08.11-.36.17-.4.24.06.5.1.63.08.15-.01.2-.13.2-.17.07-.42.13-1.33.14-1.8-.01-.03-.03-.1-.08-.13-.18-.09-.58-.24-.88-.36-.45-.2-.76-.32-.93-.38-.03-.02-.12.01-.16.05-.43.48-.96 1.05-1.04 1.24-.05.17-.1.34.16.52l.52.35c.02.06-.15.35-.2.38-.34-.14-.77-.37-1.44-.65-.42-.18-.9-.34-1.31-.51 0-.07.1-.35.16-.4.86.22 1.07.18 1.65-.38"/>
  </g>
  <path fill="#edae09" d="M92.07 28.48a4.01 4.01 0 1 1 0-8.03 4.01 4.01 0 0 1 0 8.03m1.11-16.28.45-.82c2.29.17 4.99 1.48 6.43 2.66l-.26.92c-.2.2-1.56 1.5-1.97 1.87l-.08.07c-.45.4-1.64 1.48-2.75 1.48-.16 0-.3-.02-.47-.07-1.15-.6-1.23-2.62-1.27-3.3v-.1c-.03-.55-.07-2.42-.08-2.71m8.36 10.94h-.06c-1.94-.1-3.07-.53-3.34-1.3l-.02-.04c-.32-1.21 1-2.66 1.44-3.15l.06-.08 1.87-1.97.92-.26a13.03 13.03 0 0 1 2.66 6.43l-.81.45c-.3-.01-2.17-.05-2.72-.08m-3.42 3.81c.58-1.14 2.54-1.23 3.28-1.27h.11c.55-.04 2.43-.07 2.72-.08l.82.45c-.17 2.3-1.48 5-2.67 6.43l-.92-.26c-.2-.21-1.49-1.56-1.86-1.98l-.08-.08c-.44-.48-1.8-1.98-1.4-3.2m-4.87 6.96.01-.08c.04-.68.14-2.72 1.3-3.32a.92.92 0 0 1 .41-.08c1.05 0 2.56 1.31 2.86 1.57l1.97 1.87.26.92a13 13 0 0 1-6.43 2.67l-.45-.82.07-2.73m-2.5-19V15c-.04.67-.14 2.71-1.27 3.3-.16.05-.32.07-.48.07-1.11 0-2.3-1.07-2.74-1.48l-.08-.07c-.41-.37-1.76-1.67-1.98-1.87l-.26-.92a13.06 13.06 0 0 1 6.43-2.66l.46.82c0 .29-.05 2.16-.08 2.71m-10.96 10.6c.3 0 2.16.04 2.72.08h.1c.67.03 2.7.12 3.28 1.26.4 1.23-.98 2.74-1.43 3.23l-.07.08c-.37.42-1.67 1.77-1.87 1.98l-.9.26a13.03 13.03 0 0 1-2.66-6.43c.22-.12.7-.4.83-.46m6.11-3.64c-.6 1.16-2.64 1.26-3.31 1.3h-.1c-.55.03-2.42.06-2.71.07l-.83-.45a13.1 13.1 0 0 1 2.67-6.43l.92.26c.2.21 1.5 1.56 1.87 1.98l.08.09c.5.54 1.8 1.97 1.4 3.18M84.2 33.88c.22-.2 1.57-1.5 1.98-1.87l.08-.07c.45-.4 1.63-1.48 2.74-1.48.16 0 .31.02.47.07 1.15.6 1.24 2.63 1.27 3.3l.01.1c.03.55.07 2.42.08 2.72l-.46.82a13 13 0 0 1-6.43-2.67l.26-.92m29.97-11.74c-.5 0-.86.15-.88.16l-.86.38-.82.37-.8.02c-.3-.07-.6-.14-.86-.17-.3-3.79-1.76-7.3-4.23-10.2.13-.18.29-.4.47-.69l.59-.56 1.71-.66c.02-.01.38-.16.74-.52a2.23 2.23 0 1 0-3.65-2.4l-.35.89-.31.83-.57.58c-.25.16-.48.31-.7.47a17.82 17.82 0 0 0-10.18-4.22c-.03-.23-.08-.5-.16-.84l.02-.81.75-1.68c0-.02.15-.38.15-.9a2.22 2.22 0 1 0-4.44 0c0 .52.16.88.17.9l.37.87.37.8.01.82c-.06.28-.12.57-.16.84-3.79.31-7.32 1.77-10.2 4.25l-.72-.5-.57-.58-.66-1.72c-.01 0-.16-.38-.51-.74a2.2 2.2 0 0 0-1.57-.64 2.21 2.21 0 0 0-1.57 3.79c.35.35.71.5.73.5l.89.36.83.31.58.56c.17.26.33.51.5.73a17.84 17.84 0 0 0-4.2 10.15c-.24.03-.5.08-.86.17l-.81-.02-1.69-.75c-.01 0-.37-.16-.88-.16a2.22 2.22 0 1 0 0 4.45c.5 0 .87-.16.88-.17l.88-.37.8-.37.82-.02c.3.07.59.13.85.17.31 3.77 1.76 7.29 4.2 10.18-.14.19-.3.42-.5.74l-.59.56-1.7.66c-.03.01-.4.16-.75.52a2.22 2.22 0 0 0 0 3.15 2.22 2.22 0 0 0 3.14 0c.36-.37.5-.74.51-.75l.35-.89.32-.83.56-.58c.27-.17.52-.33.75-.5a17.83 17.83 0 0 0 10.19 4.22c.03.23.08.5.16.84l-.02.8-.74 1.69c0 .02-.17.38-.17.89 0 1.22 1 2.22 2.22 2.22h.01c1.22 0 2.22-1 2.22-2.22 0-.51-.15-.87-.16-.89l-.38-.87-.37-.81-.01-.82.16-.83c3.77-.3 7.28-1.75 10.17-4.2.18.14.4.29.7.48l.56.58.66 1.72c.01.01.15.38.52.74a2.21 2.21 0 0 0 3.78-1.57c0-.6-.23-1.16-.64-1.57-.37-.36-.73-.51-.74-.52l-.89-.35-.83-.31-.58-.56c-.17-.26-.32-.5-.47-.7a17.8 17.8 0 0 0 4.25-10.22c.23-.03.48-.08.84-.16l.81.02 1.68.74c.02.01.38.17.88.17a2.23 2.23 0 1 0 0-4.45"/>
  <path fill="#edae09" d="M123.89 57.08a25.11 25.11 0 0 0-1.85-3.54c-.29-.57-1.16-1.48-2.78-1.54h-.25c-1.4 0-2.12.44-2.5.86a3.44 3.44 0 0 0-2.23-.86h-.26c-1.4 0-2.13.44-2.5.87a3.45 3.45 0 0 0-2.25-.87H109c-1.39 0-2.12.44-2.49.86a3.44 3.44 0 0 0-2.24-.86h-.25c-1.4 0-2.12.43-2.5.85-.46-.42-1.19-.81-2.22-.85h-.26c-1.4 0-2.12.43-2.5.85a3.42 3.42 0 0 0-2.24-.85h-.25c-1.4 0-2.13.44-2.5.86A3.42 3.42 0 0 0 89.3 52h-.26c-1.38 0-2.1.43-2.48.84-.47-.42-1.2-.8-2.23-.84h-.25c-1.4 0-2.11.43-2.5.84-.46-.42-1.2-.8-2.23-.84h-.25c-1.4 0-2.12.43-2.5.85a3.41 3.41 0 0 0-2.23-.85h-.26c-1.38 0-2.1.42-2.49.84-.46-.42-1.2-.8-2.23-.84l-.24-.01c-1.35 0-2.07.4-2.45.81a3.43 3.43 0 0 0-2.19-.8l-.25-.01c-1.56 0-2.28.55-2.61 1-.3.43-.56 1.15-.05 2.22l.18.36c.63 1.35 1.3 2.76 3.16 3.33a4.1 4.1 0 0 0 3.62-.63 4.2 4.2 0 0 0 2.43.81 4.1 4.1 0 0 0 2.5-.83 4.23 4.23 0 0 0 2.47.83c.95 0 1.92-.34 2.51-.84a4.12 4.12 0 0 0 4.98 0 4.17 4.17 0 0 0 4.98 0 4.18 4.18 0 0 0 2.47.84c.94 0 1.91-.35 2.5-.85a4.26 4.26 0 0 0 2.5.85c.94 0 1.92-.34 2.51-.84a4.02 4.02 0 0 0 2.48.84c.94 0 1.9-.34 2.5-.83a4.22 4.22 0 0 0 2.47.83c.95 0 1.92-.34 2.51-.84a4.14 4.14 0 0 0 5 0 4.2 4.2 0 0 0 2.49.84c.95 0 1.91-.34 2.5-.84a4.08 4.08 0 0 0 2.49.84c1.21 0 2.46-.56 2.91-1.3l.2-.33z"/>
  <path fill="#1c4e9d" d="M67.94 57.28c-.25.41-1.5 1.04-2.73.66-1.53-.48-2-1.74-2.67-3.14-.68-1.4.44-1.85 1.83-1.8 1.4.05 1.81.97 1.81.97s1.63 2.77 1.76 3.31"/>
  <path fill="#1c4e9d" d="M72.82 57.28c-.24.41-1.5 1.04-2.73.66-1.53-.48-2-1.74-2.67-3.14-.68-1.4.44-1.85 1.83-1.8 1.4.05 1.82.97 1.82.97s1.63 2.77 1.75 3.31"/>
  <path fill="#fddf11" d="M77.79 57.28c-.25.41-1.5 1.04-2.73.66-1.53-.48-2-1.74-2.68-3.14-.67-1.4.45-1.85 1.84-1.8 1.39.05 1.8.97 1.8.97s1.64 2.77 1.77 3.31"/>
  <path fill="#fddf11" d="M82.77 57.28c-.25.41-1.5 1.04-2.73.66-1.52-.48-2-1.74-2.67-3.14-.68-1.4.45-1.85 1.83-1.8 1.4.05 1.81.97 1.81.97s1.64 2.77 1.76 3.31"/>
  <path fill="#1c4e9d" d="M87.76 57.28c-.25.41-1.5 1.04-2.74.66-1.52-.48-2-1.74-2.67-3.14-.67-1.4.45-1.85 1.84-1.8 1.39.05 1.8.97 1.8.97s1.64 2.77 1.77 3.31"/>
  <path fill="#1c4e9d" d="M92.73 57.28c-.25.41-1.5 1.04-2.73.66-1.53-.48-2-1.74-2.68-3.14-.67-1.4.45-1.85 1.84-1.8 1.39.05 1.8.97 1.8.97s1.64 2.77 1.77 3.31"/>
  <g fill="#fddf11">
    <path d="M97.72 57.28c-.25.41-1.5 1.04-2.74.66-1.52-.48-2-1.74-2.67-3.14-.67-1.4.45-1.85 1.84-1.8 1.39.05 1.8.97 1.8.97s1.64 2.77 1.77 3.31"/>
    <path d="M102.73 57.28c-.26.41-1.5 1.04-2.74.66-1.52-.48-2-1.74-2.67-3.14-.68-1.4.44-1.85 1.84-1.8 1.39.05 1.8.97 1.8.97s1.63 2.77 1.77 3.31"/>
    <path d="M117.69 57.28c-.25.41-1.5 1.04-2.73.66-1.53-.48-2-1.74-2.68-3.14-.67-1.4.45-1.85 1.84-1.8 1.39.05 1.8.97 1.8.97s1.64 2.77 1.77 3.31"/>
    <path d="M122.68 57.28c-.25.41-1.5 1.04-2.73.66-1.53-.48-2-1.74-2.68-3.14-.67-1.4.45-1.85 1.83-1.8 1.4.05 1.82.97 1.82.97s1.62 2.77 1.76 3.31"/>
  </g>
  <path fill="#1c4e9d" d="M107.7 57.28c-.25.41-1.5 1.04-2.74.66-1.53-.48-2-1.74-2.67-3.14-.68-1.4.45-1.85 1.84-1.8 1.38.05 1.8.97 1.8.97s1.63 2.77 1.76 3.31"/>
  <path fill="#1c4e9d" d="M112.68 57.28c-.25.41-1.5 1.04-2.73.66-1.53-.48-2-1.74-2.68-3.14-.67-1.4.45-1.85 1.84-1.8 1.39.05 1.8.97 1.8.97s1.63 2.77 1.77 3.31"/>
</svg>
