<?xml version="1.0" encoding="UTF-8"?>
<svg id="Layer_2" data-name="Layer 2" xmlns="http://www.w3.org/2000/svg" viewBox="0 0 425.75 265.14">
  <defs>
    <style>
      .cls-1 {
        fill: #fff;
        stroke-width: 0px;
      }
    </style>
  </defs>
  <g id="Layer_1-2" data-name="Layer 1">
    <path class="cls-1" d="M46.99,145.7c.4-.3.5-.8.8-1.1l17-27.5L135.79,2.4c.2-.4.5-.8.8-1.2.1-.2.3-.2.5-.2h37.5c.94,0,1.7.76,1.7,1.7v94.94c0,.1.1.2.1.2.1.1.2,0,.2-.1.2-.4.5-.8.8-1.2l24.35-40.09,15.03-24.83c.3-.4.6-.8.7-1.3h0c.19-.1.3-.29.3-.5h0c.19-.1.3-.29.3-.5h0c.2-.1.2-.2.2-.4h0c.19-.1.3-.29.3-.5h0c.19-.1.3-.29.3-.5h0c.2-.1.2-.2.2-.4h0c.19-.1.3-.29.3-.5h0c.3-.2.5-.5.5-.9h0c.19-.1.3-.29.3-.5h0c.3-.2.5-.5.5-.9h0c.19-.1.3-.29.3-.5h0c.3-.2.5-.5.5-.9h0c.19-.1.3-.29.3-.5h0c.3-.2.5-.5.5-.9h0c.19-.1.3-.29.3-.5h0c.3-.2.5-.5.5-.9h0c.19-.1.3-.29.3-.5h0c.3-.2.5-.5.5-.9h0c.19-.1.3-.29.3-.5h0c.3-.2.5-.5.5-.9h0c.19-.1.3-.29.3-.5h0c.2-.1.2-.2.2-.4h0c.19-.1.3-.29.3-.5h0c.19-.1.3-.29.3-.5h0c.2-.1.2-.2.2-.4h0c.19-.1.3-.29.3-.5h0c.3-.2.5-.5.5-.9h0c.19-.1.3-.29.3-.5h0c.3-.2.5-.5.5-.9h0c.19-.1.3-.29.3-.5h0c.3-.2.5-.5.5-.9h0c.2-.1.3-.3.3-.6h0c.3-.2.5-.5.5-.9h0c.2-.1.3-.3.3-.6h0c.3-.2.5-.5.5-.9h0c.2-.1.3-.3.3-.6h0c.3-.2.5-.5.5-.9h0c.2-.1.3-.3.3-.6h0c.3-.2.5-.5.5-.9h0c.2-.1.3-.3.3-.6h0c.2-.1.2-.2.2-.4h0c.19-.1.3-.29.3-.5h0c.2-.1.3-.3.3-.6h0c.2-.1.2-.2.2-.4h0c.19-.1.3-.29.3-.5h0c.2-.1.3-.3.3-.6h0c.2-.1.2-.2.2-.4h0c.19-.1.3-.29.3-.5h0c.3-.2.4-.5.6-.8h40.08c.33,0,.6.27.6.6v183.9c0,.3-.1.5-.5.5h-19.8c-.5.7-.6.6-.7.1V12c.1-.1,1-.4,1-.4v-.3l-.1-.1c0-.2,0-.5-.3-.6h0c0-.2-.1-.3-.3-.3h0c-.5-.4-.71-.4-1.11,0h0c-.2,0-.3.1-.3.3h0c-.2,0-.2.2-.2.3h0c-.19.1-.31.29-.3.5h0c-.3.2-.5.5-.5.9h0c-.19.1-.31.29-.3.5h0c-.3.2-.5.5-.5.9h0c-.19.1-.31.29-.3.5h0c-.3.2-.5.5-.5.9h0c-.19.1-.31.29-.3.5h0c-.2.1-.2.2-.2.4h0c-.19.1-.31.29-.3.5h0c-.3.2-.5.5-.5.9h0c-.19.1-.31.29-.3.5h0c-.3.2-.5.5-.5.9h0c-.19.1-.31.29-.3.5h0c-.3.2-.5.5-.5.9h0c-.19.1-.31.29-.3.5h0c-.2.1-.2.2-.2.4h0c-.19.1-.31.29-.3.5h0c-.3.2-.5.5-.5.9h0c-.19.1-.31.29-.3.5h0c-.3.2-.5.5-.5.9h0c-.19.1-.31.29-.3.5h0c-.3.2-.5.5-.5.9h0c-.19.1-.31.29-.3.5h0c-.2.1-.2.2-.2.4h0c-.19.1-.31.29-.3.5h0c-.3.2-.5.5-.5.9h0c-.19.1-.31.29-.3.5h0c-.3.2-.5.5-.5.9h0c-.19.1-.31.29-.3.5h0c-.3.2-.5.5-.5.9h0c-.19.1-.31.29-.3.5h0c-.2.1-.2.2-.2.4h0c-.19.1-.31.29-.3.5h0c-.3.2-.5.5-.5.9h0c-.19.1-.31.29-.3.5h0c-.3.2-.5.5-.5.9h0c-.19.1-.31.29-.3.5h0c-.3.2-.5.5-.5.9h0c-.19.1-.31.29-.3.5h0c-.2.1-.2.2-.2.4h0c-.19.1-.31.29-.3.5h0c-.3.2-.5.5-.5.9h0c-.19.1-.31.29-.3.5h0c-.3.2-.5.5-.5.9h0c-.19.1-.31.29-.3.5h0c-.3.2-.5.5-.5.9h0c-.19.1-.31.29-.3.5h0c-.2.1-.2.2-.2.4h0c-.19.1-.31.29-.3.5h0c-.3.2-.5.5-.5.9h0c-.19.1-.31.29-.3.5h0c-.3.2-.5.5-.5.9h0c-.19.1-.31.29-.3.5h0c-.3.2-.5.5-.5.9h0c-.19.1-.31.29-.3.5h0c-.2.1-.2.2-.2.4h0c-.19.1-.31.29-.3.5h0c-.19.1-.31.29-.3.5h0c-.2.1-.2.2-.2.4h0c-.19.1-.31.29-.3.5h0c-.3.2-.5.5-.5.9h0c-.19.1-.31.29-.3.5h0c-.3.2-.5.5-.5.9h0c-.19.1-.31.29-.3.5h0c-.2.1-.2.2-.2.4-.3.2-.4.6-.61.9l-13.01,21.14-40.94,66.61c-.3.4-.61.8-.71,1.3-.2.1-.3.3-.3.6h0c-.3.2-.5.5-.5.9h0c-.2.1-.3.3-.3.6h0c-.3.2-.5.5-.5.9h0c-.19.1-.31.29-.3.5h0c-.2.1-.2.2-.2.4h0c-.19.1-.31.29-.3.5h0c-.3.2-.5.5-.5.9h0c-.19.1-.31.29-.3.5h0c-.3.2-.5.5-.5.9h0c-.2.1-.3.3-.3.6h0c-.3.2-.5.5-.5.9h0c-.19.1-.31.29-.3.5h0c-.2.1-.2.2-.2.4h0c-.19.1-.31.29-.3.5h0c-.3.2-.5.5-.5.9h0c-.19.1-.31.29-.3.5h0c-.3.2-.5.5-.5.9h0c-.2.1-.3.3-.3.6h0c-.3.2-.5.5-.5.9h0c-.2.1-.3.3-.3.6h0c-.2.1-.2.2-.2.4h0c-.19.1-.31.29-.3.5h0c-.3.2-.5.5-.5.9h0c-.19.1-.31.29-.3.5h0c-.3.2-.5.5-.5.9h0c-.2.1-.3.3-.3.6h0c-.3.2-.5.5-.5.9h0c-.2.1-.3.3-.3.6h0c-.2.1-.2.2-.2.4h0c-.19.1-.31.29-.3.5h0c-.19.1-.31.29-.3.5h0c-.2.1-.2.2-.2.4h0c-.19.1-.31.29-.3.5h0c-.3.2-.5.5-.5.9h0c-.2.1-.3.3-.3.6h0c-.3.2-.5.5-.5.9h0c-.2.1-.3.3-.3.6h0c-.2.1-.2.2-.2.4h0c-.19.1-.31.29-.3.5h0c-.19.1-.31.29-.3.5h0c-.2.1-.2.2-.2.4h0c-.2.1-.3.1-.5.2,0-.1.1-.3.1-.4V14.8c0-.6.1-1.1-.1-1.7.1-.3,0-.6-.3-.8h0c0-.2-.1-.3-.3-.3h-.1c-.5-.4-.71-.4-1.11,0h0c-.2,0-.3.1-.4.2h0c-.3.1-.5.2-.61.6h0c-.2.1-.2.2-.2.4h0c-.19.1-.31.29-.3.5h0c-.3.2-.5.5-.61.9h0c-.2.1-.3.3-.4.5h0c-.2.1-.2.2-.2.4h0c-.19.1-.31.29-.3.5h0c-.3.2-.5.5-.61.9h0c-.3.2-.5.5-.61.9h0c-.19.1-.31.29-.3.5h0c-.2.1-.2.2-.2.4h0c-.19.1-.31.29-.3.5h0c-.3.2-.5.5-.61.9h0c-.2.1-.3.3-.4.5h0c-.2.1-.2.2-.2.4h0c-.19.1-.31.29-.3.5h0c-.3.2-.5.5-.61.9h0c-.3.2-.5.5-.61.9h0c-.19.1-.31.29-.3.5h0c-.2.1-.2.2-.2.4h0c-.19.1-.31.29-.3.5h0c-.3.2-.5.5-.61.9h0c-.2.1-.3.3-.4.5h0c-.2.1-.2.2-.2.4h0c-.19.1-.31.29-.3.5-.3.2-.5.5-.61.9h0c-.3.2-.5.5-.61.9h0c-.19.1-.31.29-.3.5h0c-.2.1-.2.2-.2.3h0c-.19.1-.31.29-.3.5h0c-.3.2-.5.5-.61.9h0c-.2.1-.3.3-.4.5h0c-.2.1-.2.2-.2.4h0c-.19.1-.31.29-.3.5-.3.2-.5.5-.61.9h0c-.3.2-.5.5-.61.9h0c-.19.1-.31.29-.3.5h0c-.2.1-.2.2-.2.3h0c-.19.1-.31.29-.3.5h0c-.3.2-.5.5-.61.9h0c-.2.1-.3.3-.4.5h0c-.2.1-.2.2-.2.4h0c-.19.1-.31.29-.3.5h0c-.3.2-.5.5-.61.9h0c-.3.2-.5.5-.61.9h0c-.19.1-.31.29-.3.5h0c-.2.1-.2.2-.2.3h0c-.19.1-.31.29-.3.5h0c-.3.2-.5.5-.61.9h0c-.2.1-.3.3-.4.5h0c-.2.1-.2.2-.2.4h0c-.19.1-.31.29-.3.5h0c-.3.2-.5.5-.61.9h0c-.3.2-.5.5-.61.9h0c-.19.1-.31.29-.3.5h0c-.2.1-.2.2-.2.3h0c-.19.1-.31.29-.3.5h0c-.3.2-.5.5-.61.9h0c-.2.1-.3.3-.4.5h0c-.2.1-.2.2-.2.4h0c-.19.1-.31.29-.3.5h0c-.3.2-.5.5-.61.9h0c-.3.2-.5.5-.61.9h0c-.19.1-.31.29-.3.5h0c-.2.1-.2.2-.2.3h0c-.19.1-.31.29-.3.5h0c-.3.2-.5.5-.61.9h0c-.2.1-.3.3-.4.5h0c-.2.1-.2.2-.2.4h0c-.19.1-.31.29-.3.5h0c-.3.2-.5.5-.61.9h0c-.3.2-.5.5-.61.9h0c-.19.1-.31.29-.3.5h0c-.2.1-.2.2-.2.3h0c-.19.1-.31.29-.3.5h0c-.3.2-.5.5-.61.9h0c-.2.1-.3.3-.4.5h0c-.2.1-.2.2-.2.4h0c-.19.1-.31.29-.3.5h0c-.3.2-.5.5-.61.9h0c-.3.2-.5.5-.61.9h0c-.19.1-.31.29-.3.5h0c-.2.1-.2.2-.2.3h0c-.19.1-.31.29-.3.5h0c-.3.2-.5.5-.61.9h0c-.19.1-.31.29-.3.5h0c-.2.1-.2.2-.2.4h0c-.19.1-.31.29-.3.5h0c-.3.2-.5.5-.61.9h0c-.3.2-.5.5-.61.9h0c-.19.1-.31.29-.3.5h0c-.3.2-.5.5-.61.9h0c-.3.2-.5.5-.61.9h0c-.19.1-.31.29-.3.5h0c-.2.1-.2.2-.2.4h0c-.19.1-.31.29-.3.5h0c-.3.2-.5.5-.61.9h0c-.3.2-.5.5-.61.9h0c-.19.1-.31.29-.3.5h0c-.3.2-.5.5-.61.9h0c-.3.2-.5.5-.61.9h0c-.19.1-.31.29-.3.5h0c-.2.1-.2.2-.2.4h0c-.19.1-.31.29-.3.5h0c-.3.2-.5.5-.61.9h0c-.3.2-.5.5-.61.9h0c-.19.1-.31.29-.3.5h0c-.3.2-.5.5-.61.9h0c-.3.2-.5.5-.61.9h0c-.19.1-.31.29-.3.5h0c-.2.1-.2.2-.2.4h0c-.19.1-.31.29-.3.5h0c-.3.2-.5.5-.61.9h0c-.19.1-.31.29-.3.5h0c-.2.1-.2.2-.2.4h0c-.19.1-.31.29-.3.5h0c-.3.2-.5.5-.61.9h0c-.3.2-.5.5-.61.9h0c-.19.1-.31.29-.3.5h0c-.2.1-.2.2-.2.4h0c-.19.1-.31.29-.3.5h0c-.3.2-.5.5-.61.9h0c-.19.1-.31.29-.3.5h0c-.2.1-.2.2-.2.4h0c-.19.1-.31.29-.3.5h0c-.3.2-.5.5-.61.9h0c-.3.2-.5.5-.61.9h0c-.19.1-.31.29-.3.5h0c-.2.1-.2.2-.2.4h0c-.19.1-.31.29-.3.5h0c-.3.2-.5.5-.61.9h0c-.19.1-.31.29-.3.5h0c-.2.1-.2.2-.2.4h0c-.19.1-.31.29-.3.5h0c-.3.2-.5.5-.61.9h0c-.3.2-.5.5-.61.9h0c-.19.1-.31.29-.3.5h0c-.2.1-.2.2-.2.3h0c-.19.1-.31.29-.3.5h0c-.3.2-.5.5-.61.9h0c-.19.1-.31.29-.3.5h0c-.2.1-.2.2-.2.4h0c-.19.1-.31.29-.3.5h0c-.3.2-.5.5-.61.9h0c-.3.2-.5.5-.61.9h0c-.19.1-.31.29-.3.5h0c-.2.1-.2.2-.2.3h0c-.19.1-.31.29-.3.5h0c-.3.2-.5.5-.61.9h0c-.19.1-.31.29-.3.5h0c-.2.1-.2.2-.2.4h0c-.19.1-.31.29-.3.5h0c-.3.2-.5.5-.61.9h0c-.3.2-.5.5-.61.9h0c-.19.1-.31.29-.3.5h0c-.2.1-.2.2-.2.3h0c-.19.1-.31.29-.3.5h0c-.3.2-.5.5-.61.9h0c-.19.1-.31.29-.3.5h0c-.2.1-.2.2-.2.4h0c-.19.1-.31.29-.3.5h0c-.3.2-.5.5-.61.9h0c-.3.2-.5.5-.61.9h0c-.19.1-.31.29-.3.5h0c-.2.1-.2.2-.2.3h0c-.19.1-.31.29-.3.5h0c-.3.2-.5.5-.61.9h0c-.19.1-.31.29-.3.5h0c-.2.1-.2.2-.2.4h0c-.19.1-.31.29-.3.5h0c-.3.2-.5.5-.61.9h0c-.3.2-.5.5-.61.9h0c-.19.1-.31.29-.3.5h0c-.2.1-.2.2-.2.3h0c-.19.1-.31.29-.3.5h0c-.3.2-.5.5-.61.9h0c-.19.1-.31.29-.3.5h0c-.2.1-.2.2-.2.4h0c-.19.1-.31.29-.3.5h0c-.3.2-.5.5-.61.9h0c-.3.2-.5.5-.61.9h0c-.19.1-.31.29-.3.5h0c-.2.1-.2.2-.2.3h0c-.19.1-.31.29-.3.5h0c-.3.2-.5.5-.61.9h0c-.19.1-.31.29-.3.5h0c-.2.1-.2.2-.2.4h0c-.19.1-.31.29-.3.5h0c-.3.2-.5.5-.61.9h0c-.3.2-.5.5-.61.9h0c-.19.1-.31.29-.3.5h0c-.2.1-.2.2-.2.4h0c-.19.1-.31.29-.3.5h0c-.3.2-.5.5-.61.9h0c-.19.1-.31.29-.3.5h0c-.2.1-.2.2-.2.4h0c-.19.1-.31.29-.3.5h0c-.3.2-.5.5-.61.9h0c-.3.2-.5.5-.61.9h0c-.19.1-.31.29-.3.5h0c-.2.1-.2.2-.2.4h0c-.19.1-.31.29-.3.5h0c-.3.2-.5.5-.61.9h0c-.19.1-.31.29-.3.5h0c-.2.1-.2.2-.2.4h0c-.19.1-.31.29-.3.5h0c-.3.2-.5.5-.61.9h0c-.3.2-.5.5-.61.9h0c-.19.1-.31.29-.3.5h0c-.2.1-.2.2-.2.4h0c-.19.1-.31.29-.3.5h0c-.3.2-.5.5-.61.9h0c-.19.1-.31.29-.3.5h0c-.2.1-.2.2-.2.4h0c-.19.1-.31.29-.3.5h0c-.3.2-.5.5-.61.9h0c-.3.2-.5.5-.61.9h0c-.19.1-.31.29-.3.5h0c-.2.1-.2.2-.2.4h0c-.19.1-.31.29-.3.5h0c-.3.2-.5.5-.61.9h0c-.19.1-.31.29-.3.5h0c-.2.1-.2.2-.2.4h0c-.19.1-.31.29-.3.5h0c-.3.2-.5.5-.61.9h0c-.3.2-.5.5-.61.9h0c-.19.1-.31.29-.3.5h0c-.2.1-.2.2-.2.4h0c-.19.1-.31.29-.3.5h0c-.3.2-.5.5-.61.9h0c-.19.1-.31.29-.3.5h0c-.2.1-.2.2-.2.4h0c-.19.1-.31.29-.3.5h0c-.3.2-.5.5-.61.9h0c-.3.2-.5.5-.61.9h0c-.19.1-.31.29-.3.5h0c-.3.2-.5.5-.61.9h0c-.3.2-.5.5-.61.9h0c-.19.1-.31.29-.3.5h0c-.2.1-.2.2-.2.4h0c-.19.1-.31.29-.3.5h0c-.3.2-.5.5-.61.9h0c-.3.2-.5.5-.61.9h0c-.19.1-.31.29-.3.5h0c-.3.2-.5.5-.61.9h0c-.3.2-.5.5-.61.9h0c-.19.1-.31.29-.3.5h0c-.2.1-.2.2-.2.4h0c-.19.1-.31.29-.3.5h0c-.3.2-.5.5-.61.9h0c-.3.2-.5.5-.61.9h0c-.19.1-.31.29-.3.5h0c-.3.2-.5.5-.61.9h0c-.3.2-.5.5-.5.9h0c-.19.1-.31.29-.3.5h0c-.2.1-.2.2-.2.4h0c-.19.1-.31.29-.3.5h0c-.3.2-.5.5-.61.9h0c-.19.1-.31.29-.3.5h0c-.2.1-.2.2-.2.4h0c-.19.1-.31.29-.3.5h0c-.3.2-.5.5-.61.9h0c-.3.2-.5.5-.5.9h0c-.19.1-.31.29-.3.5h0c-.2.1-.2.2-.2.4h0c-.19.1-.31.29-.3.5h0c-.3.2-.5.5-.61.9h0c-.19.1-.31.29-.3.5h0c-.2.1-.2.2-.2.4h0c-.19.1-.31.29-.3.5h0c-.3.2-.5.5-.61.9h0c-.3.2-.5.5-.5.9h0c-.19.1-.31.29-.3.5h0c-.2.1-.2.2-.2.4h0c-.19.1-.31.29-.3.5h0c-.3.2-.5.5-.5.9h0c-.19.1-.31.29-.3.5h0c-.2.1-.2.2-.2.4h0c-.19.1-.31.29-.3.5h0c-.3.2-.5.5-.5.9h0c-.3.2-.5.5-.5.9h0c-.19.1-.31.29-.3.5h0c-.2.1-.2.2-.2.4h0c-.19.1-.31.29-.3.5h0c-.3.2-.5.5-.61.9h0c-.19.1-.31.29-.3.5h0c-.2.1-.2.2-.2.4h0c-.19.1-.31.29-.3.5h0c-.3.2-.5.5-.61.9h0c-.3.2-.5.5-.61.9h0c-.5.2-1.01.1-1.51.1h-19.52c-.3,0-.6,0-.8-.1-.1,0-.2-.2-.2-.3h0c.3-.2.5-.5.5-.9h0c.19-.1.3-.29.3-.5h0c.2-.1.2-.2.2-.4h0c.19-.1.3-.29.3-.5h0c.3-.2.5-.5.5-.9h0c.19-.1.3-.29.3-.5h0c.3-.2.5-.5.5-.9h0c.2-.1.3-.3.4-.5h0c.2-.1.2-.2.2-.4h0c.19-.1.3-.29.3-.5h0c.3-.2.5-.5.5-.9h0c.19-.1.3-.29.3-.5h0c.2-.1.2-.2.2-.4h0c.19-.1.3-.29.3-.5h0c.3-.2.5-.5.5-.9h0c.19-.1.3-.29.3-.5h0c.3-.2.5-.5.6-.9h0c.19-.1.3-.29.3-.5h0c.2-.1.2-.2.2-.4h0c.19-.1.3-.29.3-.5h0c.3-.2.5-.5.5-.9h0c.19-.1.3-.29.3-.5h0c.2-.1.2-.2.2-.4h0c.19-.1.3-.29.3-.5h0c.3-.2.5-.5.5-.9h0c.19-.1.3-.29.3-.5h0c.3-.2.5-.5.5-.9h0c.19-.1.3-.29.3-.5h0c.2-.1.2-.2.2-.4h0c.19-.1.3-.29.3-.5h0c.3-.2.5-.5.5-.9h0c.19-.1.3-.29.3-.5h0c.2-.1.2-.2.2-.4h0c.19-.1.3-.29.3-.5h0c.3-.2.5-.5.5-.9h0c.19-.1.3-.29.3-.5h0c.3-.2.5-.5.5-.9h0c.19-.1.3-.29.3-.5h0c.2-.1.2-.2.2-.4h0c.19-.1.3-.29.3-.5h0c.3-.2.5-.5.5-.9h0c.19-.1.3-.29.3-.5h0c.2-.1.2-.2.2-.4h0c.19-.1.3-.29.3-.5h0c.3-.2.5-.5.5-.9h0c.19-.1.3-.29.3-.5h0c.3-.2.5-.5.5-.9h0c.19-.1.3-.29.3-.5h0c.2-.1.2-.2.2-.4h0c.19-.1.3-.29.3-.5h0c.3-.2.5-.5.5-.9h0c.19-.1.3-.29.3-.5h0c.2-.1.2-.2.2-.4h0c.19-.1.3-.29.3-.5h0c.3-.2.5-.5.5-.9h0c.19-.1.3-.29.3-.5h0c.3-.2.5-.5.5-.9h0c.19-.1.3-.29.3-.5h0c.2-.1.2-.2.2-.4h0c.19-.1.3-.29.3-.5h0c.3-.2.5-.5.5-.9h0c.19-.1.3-.29.3-.5h0c.2-.1.2-.2.2-.4h0c.19-.1.3-.29.3-.5h0c.3-.2.5-.5.5-.9h0c.19-.1.3-.29.3-.5h0c.3-.2.5-.5.5-.9h0l2.6-5.3h0Z"/>
    <path class="cls-1" d="M175.73,143.04c.3-.3.5-.7.7-1l18.32-30.17,35.04-57.55c.3-.4.6-.8.7-1.3.19-.1.3-.29.3-.5h0c.3-.2.5-.5.5-.9h0c.19-.1.3-.29.3-.5h0c.3-.2.5-.5.5-.9h0c.19-.1.3-.29.3-.5h0c.2-.1.2-.2.2-.4h0c.19-.1.3-.29.3-.5h0c.3-.2.5-.5.5-.9h0c.19-.1.3-.29.3-.5h0c.3-.2.5-.5.5-.9h0c.19-.1.3-.29.3-.5h0c.3-.2.5-.5.5-.9h0c.19-.1.3-.29.3-.5h0c.2-.1.2-.2.2-.4h0c.19-.1.3-.29.3-.5h0c.3-.2.5-.5.5-.9h0c.19-.1.3-.29.3-.5h0c.3-.2.5-.5.5-.9h0c.19-.1.3-.29.3-.5h0c.3-.2.5-.5.5-.9h0c.19-.1.3-.29.3-.5h0c.2-.1.2-.2.2-.4h0c.19-.1.3-.29.3-.5h0c.3-.2.5-.5.5-.9h0c.19-.1.3-.29.3-.5h0c.3-.2.5-.5.5-.9h0c.19-.1.3-.29.3-.5h0c.3-.2.5-.5.5-.9h0c.19-.1.3-.29.3-.5h0c.2-.1.2-.2.2-.4h0c.19-.1.3-.29.3-.5h0c.3-.2.5-.5.5-.9h0c.19-.1.3-.29.3-.5h0c.3-.2.5-.5.5-.9h0c.19-.1.3-.29.3-.5h0c.3-.2.5-.5.5-.9h0c.19-.1.3-.29.3-.5h0c.2-.1.2-.2.2-.4h0c.19-.1.3-.29.3-.5h0c.3-.2.5-.5.5-.9h0c.19-.1.3-.29.3-.5h0c.3-.2.5-.5.5-.9h0c.19-.1.3-.29.3-.5h0c.3-.2.5-.5.5-.9h0c.19-.1.3-.29.3-.5h0c.2-.1.2-.2.2-.4h0c.19-.1.3-.29.3-.5h0c.19-.1.3-.29.3-.5h0c.2-.1.2-.2.2-.4h0c.19-.1.3-.29.3-.5h0c.3-.2.5-.5.5-.9h0c.19-.1.3-.29.3-.5h0c.3-.2.5-.5.5-.9h0c.19-.1.3-.29.3-.5h0c.2-.1.2-.2.2-.4h0c.19-.1.3-.29.3-.5h0c.19-.1.3-.29.3-.5h0c.2-.1.2-.2.2-.4h0c.2-.1.3-.3.4-.5h0c.1.1.2.2.2.3v168.54c0,.1-.2.3-.3.3h-17.31c-.2,0-.39-.2-.39-.3v-104.9l-.3-.8h-.1c-.2.8-.2,1-.2,1h-.04l-.1-.1c-.3.2-.5.5-.5.9h0c-.19.1-.3.29-.3.5h0c-.2.1-.2.2-.2.4h0c-.19.1-.3.29-.3.5h0c-.3.2-.5.5-.5.9h0c-.19.1-.3.29-.3.5h0c-.3.2-.5.5-.5.9h0c-.19.1-.3.29-.3.5h0c-.3.2-.5.5-.5.9h0c-.19.1-.3.29-.3.5h0c-.2.1-.2.2-.2.4h0c-.19.1-.3.29-.3.5h0c-.3.2-.5.5-.5.9h0c-.19.1-.3.29-.3.5h0c-.3.2-.5.5-.5.9h0c-.2.1-.3.3-.3.6h0c-.2.1-.2.2-.2.4h0c-.19.1-.3.29-.3.5h0c-.19.1-.3.29-.3.5h0c-.2.1-.2.2-.2.4h0c-.19.1-.3.29-.3.5h0c-.3.2-.5.5-.5.9h0c-.2.1-.3.3-.3.6h0c-.3.2-.5.5-.5.9h0c-.2.1-.3.3-.3.6h0c-.2.1-.2.2-.2.4h0c-.19.1-.3.29-.3.5h0c-.3.2-.5.5-.5.9h0c-.19.1-.3.29-.3.5h0c-.3.2-.5.5-.5.9h0c-.2.1-.3.3-.3.6h0c-.3.2-.5.5-.5.9h0c-.19.1-.3.29-.3.5h0c-.2.1-.2.2-.2.4h0c-.19.1-.3.29-.3.5h0c-.3.2-.5.5-.5.9h0c-.19.1-.3.29-.3.5h0c-.3.2-.5.5-.5.9h0c-.2.1-.3.3-.3.6h0c-.3.2-.5.5-.5.9h0c-.19.1-.3.29-.3.5h0c-.2.1-.2.2-.2.4h0c-.19.1-.3.29-.3.5h0c-.3.2-.5.5-.5.9h0c-.2.1-.3.3-.3.6h0c-.3.2-.5.5-.5.9h0c-.19.1-.3.29-.3.5h0c-.2.1-.2.2-.2.4h0c-.19.1-.3.29-.3.5h0c-.3.2-.5.5-.5.9h0c-.19.1-.3.29-.3.5h0c-.3.2-.5.5-.5.9h0c-.19.1-.3.29-.3.5h0c-.3.2-.5.5-.5.9h0c-.2.1-.3.3-.3.6h0c-.2.1-.2.2-.2.4h0c-.19.1-.3.29-.3.5h0c-.3.2-.5.5-.5.9h0c-.19.1-.3.29-.3.5h0c-.3.2-.5.5-.5.9h0c-.19.1-.3.29-.3.5-.3.2-.5.5-.5.9h0c-.19.1-.3.29-.3.5h0c-.2.1-.2.2-.2.4h0c-.19.1-.3.29-.3.5h0c-.3.2-.5.5-.5.9h0c-.2.1-.3.3-.3.6h0c-.3.2-.5.5-.5.9h0c-.19.1-.3.29-.3.5h0c-.3.2-.5.5-.5.9h0c-.19.1-.3.29-.3.5h0c-.2.1-.2.2-.2.4h0c-.19.1-.3.29-.3.5h0c-.3.2-.5.5-.5.9h0c-.19.1-.3.29-.3.5h0c-.3.2-.5.5-.5.9h0c-.2.1-.3.3-.3.6h0c-.2.1-.2.2-.2.4h0c-.19.1-.3.29-.3.5h0c-.3.2-.5.5-.5.9h0c-.19.1-.3.29-.3.5h0c-.3.2-.5.5-.5.9h0c-.19.1-.3.29-.3.5h0c-.3.2-.5.5-.5.9h0c-.19.1-.3.29-.3.5h0c-.2.1-.2.2-.2.4h0c-.19.1-.3.29-.3.5h0c-.3.2-.5.5-.5.9h0c-.19.1-.3.29-.3.5h0c-.3.2-.5.5-.5.9h0c-.19.1-.3.29-.3.5h0c-.3.2-.5.5-.5.9h0c-.19.1-.3.29-.3.5h0c-.2.1-.2.2-.2.4h0c-.19.1-.3.29-.3.5h0c-.3.2-.5.5-.5.9h0c-.19.1-.3.29-.3.5h0c-.3.2-.5.5-.5.9h0c-.2.1-.3.3-.3.6h0c-.2.1-.2.2-.2.4h0c-.19.1-.3.29-.3.5h0c-.2.1-.3.3-.4.5h0c-.2.1-.2.2-.2.4h0c-.19.1-.3.29-.3.5h0c-.3.2-.5.5-.5.9h0c-.2.1-.3.3-.3.6h0c-.3.2-.5.5-.5.9h0c-.19.1-.3.29-.3.5h0c-.2.1-.2.2-.2.4h0c-.19.1-.3.29-.3.5h0c-.3.2-.5.5-.5.9h0c-.19.1-.3.29-.3.5h0c-.3.2-.5.5-.5.9h0c-.19.1-.3.29-.3.5h0c-.3.2-.5.5-.5.9h0c-.19.1-.3.29-.3.5h0c-.2.1-.2.2-.2.4h0c-.19.1-.3.29-.3.5h0c-.3.2-.5.5-.5.9h0c-.19.1-.3.29-.3.5h0c-.3.2-.5.5-.5.9h0c-.2.1-.3.3-.3.6h0c-.3.2-.5.5-.5.9h0c-.19.1-.3.29-.3.5h0c-.2.1-.2.2-.2.4h0c-.19.1-.3.29-.3.5h0c-.3.2-.5.5-.5.9h0c-.19.1-.3.29-.3.5h0c-.3.2-.5.5-.5.9h0c-.2.1-.3.3-.3.6h0c-.2.1-.2.2-.2.4h0c-.19.1-.3.29-.3.5h0c-.3.2-.5.5-.5.9h0c-.19.1-.3.29-.3.5h0c-.3.2-.5.5-.5.9h0c-.19.1-.3.29-.3.5h0c-.3.2-.5.5-.5.9h0c-.2.1-.3.3-.3.6h0c-.2.1-.2.2-.2.4h0c-.19.1-.3.29-.3.5h0c-.3.2-.5.5-.5.9h0c-.19.1-.3.29-.3.5h0c-.3.2-.5.5-.5.9h0c-.2.1-.3.3-.3.6h0c-.3.2-.5.5-.5.9h0c-.19.1-.3.29-.3.5h0c-.2.1-.2.2-.2.4h0c-.19.1-.3.29-.3.5h0c-.3.2-.5.5-.5.9h0c-.19.1-.3.29-.3.5h0c-.3.2-.5.5-.5.9h0c-.19.1-.3.29-.3.5h0c-.3.2-.5.5-.5.9h0c-.19.1-.3.29-.3.5h0c-.2.1-.2.2-.2.4h0c-.19.1-.3.29-.3.5h0c-.3.2-.5.5-.5.9h0c-.19.1-.3.29-.3.5h0c-.3.2-.5.5-.5.9h0c-.19.1-.3.29-.3.5h0c-.2.1-.2.2-.2.4h0c-.19.1-.3.29-.3.5h0c-.3.2-.5.5-.5.9h0c-.19.1-.3.29-.3.5h0c-.3.2-.5.5-.5.9h0c-.2.1-.3.3-.3.6h0c-.3.2-.5.5-.5.9h0c-.19.1-.3.29-.3.5h0c-.2.1-.2.2-.2.4h0c-.2.2-.5.4-.9.4h-32.34c-.1,0-.2-.1-.2-.2v-104.4c0-.1,0-.2-.1-.3l-.1-.1h-.09c-.2.1-.2.3-.2.5h0c-.3.2-.5.5-.5.9h0c-.19.1-.3.29-.3.5h0c-.3.2-.5.5-.6.9h0c-.19.1-.3.29-.3.5h0c-.2.1-.2.2-.2.4h0c-.19.1-.3.29-.3.5h0c-.3.2-.5.5-.5.9h0c-.19.1-.3.29-.3.5-.3.2-.5.5-.6.9h0c-.19.1-.3.29-.3.5h0c-.2.1-.2.2-.2.4h0c-.19.1-.3.29-.3.5h0c-.3.2-.5.5-.5.9h0c-.19.1-.3.29-.3.5h0c-.3.2-.5.5-.6.9h0c-.19.1-.3.29-.3.5h0c-.2.1-.2.2-.2.4h0c-.19.1-.3.29-.3.5h0c-.3.2-.5.5-.5.9h0c-.19.1-.3.29-.3.5h0c-.3.2-.5.5-.6.9h0c-.19.1-.3.29-.3.5h0c-.2.1-.2.2-.2.4h0c-.19.1-.3.29-.3.5h0c-.3.2-.5.5-.5.9h0c-.19.1-.3.29-.3.5h0c-.3.2-.5.5-.6.9h0c-.19.1-.3.29-.3.5h0c-.2.1-.2.2-.2.4h0c-.19.1-.3.29-.3.5h0c-.3.2-.5.5-.5.9h0c-.19.1-.3.29-.3.5h0c-.3.2-.5.5-.5.9h0c-.19.1-.3.29-.3.5h0c-.2.1-.2.2-.2.4h0c-.19.1-.3.29-.3.5h0c-.3.2-.5.5-.5.9h0c-.19.1-.3.29-.3.5h0c-.3.2-.5.5-.5.9h0c-.19.1-.3.29-.3.5h0c-.2.1-.2.2-.2.4h0c-.19.1-.3.29-.3.5h0c-.3.2-.5.5-.5.9h0c-.19.1-.3.29-.3.5h0c-.3.2-.5.5-.5.9h0c-.19.1-.3.29-.3.5h0c-.2.1-.2.2-.2.4h0c-.19.1-.3.29-.3.5h0c-.3.2-.5.5-.5.9h0c-.19.1-.3.29-.3.5h0c-.3.2-.5.5-.6.9h0c-.19.1-.3.29-.3.5h0c-.2.1-.2.2-.2.4h0c-.19.1-.3.29-.3.5h0c-.3.2-.5.5-.5.9h0c-.19.1-.3.29-.3.5h0c-.3.2-.5.5-.6.9h0c-.19.1-.3.29-.3.5h0c-.2.1-.2.2-.2.4h0c-.19.1-.3.29-.3.5h0c-.3.2-.5.5-.5.9h0c-.19.1-.3.29-.3.5h0c-.3.2-.5.5-.5.9h0c-.19.1-.3.29-.3.5h0c-.2.1-.2.2-.2.4h0c-.19.1-.3.29-.3.5h0c-.3.2-.5.5-.5.9h0c-.19.1-.3.29-.3.5h0c-.3.2-.5.5-.5.9h0c-.19.1-.3.29-.3.5h0c-.2.1-.2.2-.2.4h0c-.19.1-.3.29-.3.5h0c-.3.2-.5.5-.5.9h0c-.19.1-.3.29-.3.5h0c-.3.2-.5.5-.5.9h0c-.19.1-.3.29-.3.5h0c-.2.1-.2.2-.2.4h0c-.19.1-.3.29-.3.5h0c-.3.2-.5.5-.5.9h0c-.19.1-.3.29-.3.5h0c-.3.2-.5.5-.5.9h0c-.19.1-.3.29-.3.5h0c-.2.1-.2.2-.2.4h0c-.19.1-.3.29-.3.5h0c-.3.2-.5.5-.5.9h0c-.19.1-.3.29-.3.5h0c-.3.2-.5.5-.5.9h0c-.19.1-.3.29-.3.5h0c-.2.1-.2.2-.2.4h0c-.19.1-.3.29-.3.5h0c-.3.2-.5.5-.5.9h0c-.19.1-.3.29-.3.5h0c-.3.2-.5.5-.6.9h0c-.19.1-.3.29-.3.5h0c-.2.1-.2.2-.2.4h0c-.19.1-.3.29-.3.5h0c-.3.2-.5.5-.5.9h0c-.19.1-.3.29-.3.5h0c-.3.2-.5.5-.5.9h0c-.19.1-.3.29-.3.5h0c-.2.1-.2.2-.2.4h0c-.19.1-.3.29-.3.5h0c-.3.2-.5.5-.5.9h0c-.19.1-.3.29-.3.5h0c-.3.2-.5.5-.6.9h0c-.19.1-.3.29-.3.5h0c-.2.1-.2.2-.2.4h0c-.19.1-.3.29-.3.5h0c-.3.2-.5.5-.5.9h0c-.19.1-.3.29-.3.5h0c-.3.2-.5.5-.5.9h0c-.19.1-.3.29-.3.5h0c-.2.1-.2.2-.2.4h0c-.19.1-.3.29-.3.5h0c-.3.2-.5.5-.5.9h0c-.19.1-.3.29-.3.5h0c-.3.2-.5.5-.5.9h0c-.19.1-.3.29-.3.5h0c-.2.1-.2.2-.2.4h0c-.19.1-.3.29-.3.5h0c-.3.2-.5.5-.5.9h0c-.19.1-.3.29-.3.5h0c-.3.2-.5.5-.5.9h0c-.19.1-.3.29-.3.5h0c-.2.1-.2.2-.2.4h0c-.19.1-.3.29-.3.5h0c-.3.2-.5.5-.5.9h0c-.19.1-.3.29-.3.5h0c-.3.2-.5.5-.5.9h0c-.19.1-.3.29-.3.5h0c-.2.1-.2.2-.2.4h0c-.19.1-.3.29-.3.5h0c-.3.2-.5.5-.5.9h0c-.19.1-.3.29-.3.5h0c-.3.2-.5.5-.5.9h0c-.19.1-.3.29-.3.5h0c-.3.2-.5.5-.6.9h0c-.3.2-.5.5-.5.9h0c-.19.1-.3.29-.3.5h0c-.3.2-.5.5-.5.9h0c-.19.1-.3.29-.3.5h0c-.3.2-.5.5-.5.9h0c-.19.1-.3.29-.3.5h0c-.2.1-.2.2-.2.4h0c-.19.1-.3.29-.3.5h0c-.3.2-.5.5-.5.9h0c-.19.1-.3.29-.3.5h0c-.3.2-.5.5-.5.9h0c-.19.1-.3.29-.3.5h0c-.2.1-.2.2-.2.4h0c-.19.1-.3.29-.3.5h0c-.3.2-.5.5-.5.9h0c-.19.1-.3.29-.3.5h0c-.3.2-.5.5-.6.9h0c-.19.1-.3.29-.3.5h0c-.2.1-.2.2-.2.4h0c-.19.1-.3.29-.3.5h0c-.3.2-.5.5-.5.9h0c-.19.1-.3.29-.3.5h0c-.3.2-.5.5-.5.9h0c-.19.1-.3.29-.3.5h0c-.2.1-.2.2-.2.4h0c-.19.1-.3.29-.3.5h0c-.3.2-.5.5-.5.9h0c-.19.1-.3.29-.3.5h0c-.3.2-.5.5-.6.9h0c-.19.1-.3.29-.3.5h0c-.2.1-.2.2-.2.4h0c-.19.1-.3.29-.3.5h0c-.3.2-.5.5-.5.9h0c-.19.1-.3.29-.3.5h0c-.5.3-1,.2-1.49.2h-21.1c-.2,0-.3-.1-.4-.3h0c.2-.1.2-.2.2-.4h0c.19-.1.3-.29.3-.5h0c.3-.2.5-.5.6-.9h0c.3-.2.5-.5.5-.9h0c.19-.1.3-.29.3-.5h0c.2-.1.2-.2.2-.4h0c.19-.1.3-.29.3-.5h0c.3-.2.5-.5.5-.9h0c.19-.1.3-.29.3-.5h0c.2-.1.2-.2.2-.4h0c.19-.1.3-.29.3-.5h0c.3-.2.5-.5.5-.9h0c.3-.2.5-.5.5-.9h0c.19-.1.3-.29.3-.5h0c.2-.1.2-.2.2-.4h0c.19-.1.3-.29.3-.5h0c.3-.2.5-.5.6-.9h0c.19-.1.3-.29.3-.5h0c.2-.1.2-.2.2-.4h0c.19-.1.3-.29.3-.5h0c.3-.2.5-.5.6-.9h0c.3-.2.5-.5.5-.9h0c.19-.1.3-.29.3-.5h0c.2-.1.2-.2.2-.4h0c.19-.1.3-.29.3-.5h0c.3-.2.5-.5.5-.9h0c.19-.1.3-.29.3-.5h0c.2-.1.2-.2.2-.4h0c.19-.1.3-.29.3-.5h0c.3-.2.5-.5.6-.9h0c.3-.2.5-.5.6-.9h0c.19-.1.3-.29.3-.5h0c.2-.1.2-.2.2-.4h0c.19-.1.3-.29.3-.5h0c.3-.2.5-.5.6-.9h0c.19-.1.3-.29.3-.5h0c.2-.1.2-.2.2-.4h0c.19-.1.3-.29.3-.5h0c.3-.2.5-.5.6-.9h0c.3-.2.5-.5.6-.9h0c.19-.1.3-.29.3-.5h0c.2-.1.2-.2.2-.4h0c.19-.1.3-.29.3-.5h0c.3-.2.5-.5.6-.9h0c.19-.1.3-.29.3-.5h0c.2-.1.2-.2.2-.4h0c.19-.1.3-.29.3-.5h0c.3-.2.5-.5.6-.9h0c.3-.2.5-.5.6-.9h0c.19-.1.3-.29.3-.5h0c.2-.1.2-.2.2-.4h0c.19-.1.3-.29.3-.5h0c.3-.2.5-.5.6-.9h0c.19-.1.3-.29.3-.5h0c.2-.1.2-.2.2-.4h0c.19-.1.3-.29.3-.5h0c.3-.2.5-.5.6-.9h0c.3-.2.5-.5.6-.9h0c.19-.1.3-.29.3-.5h0c.3-.2.5-.5.6-.9h0c.3-.2.5-.5.6-.9h0c.19-.1.3-.29.3-.5h0c.2-.1.2-.2.2-.4h0c.19-.1.3-.29.3-.5h0c.3-.2.5-.5.6-.9h0c.3-.2.5-.5.6-.9h0c.19-.1.3-.29.3-.5h0c.3-.2.5-.5.6-.9h0c.3-.2.5-.5.6-.9h0c.19-.1.3-.29.3-.5h0c.2-.1.2-.2.2-.4h0c.19-.1.3-.29.3-.5h0c.3-.2.5-.5.6-.9h0c.3-.2.5-.5.6-.9h0c.19-.1.3-.29.3-.5h0c.3-.2.5-.5.6-.9h0c.3-.2.5-.5.6-.9h0c.19-.1.3-.29.3-.5h0c.2-.1.2-.2.2-.4h0c.19-.1.3-.29.3-.5h0c.3-.2.5-.5.6-.9h0c.3-.2.5-.5.6-.9h0c.19-.1.3-.29.3-.5h0c.3-.2.5-.5.6-.9h0c.3-.2.5-.5.6-.9h0c.19-.1.3-.29.3-.5h0c.2-.1.2-.2.2-.4h0c.19-.1.3-.29.3-.5h0c.3-.2.5-.5.6-.9h0c.19-.1.3-.29.3-.5h0c.2-.1.2-.2.2-.4h0c.19-.1.3-.29.3-.5h0c.3-.2.5-.5.6-.9h0c.3-.2.5-.5.6-.9h0c.19-.1.3-.29.3-.5h0c.2-.1.2-.2.2-.4h0c.19-.1.3-.29.3-.5h0c.3-.2.5-.5.6-.9h0c.19-.1.3-.29.3-.5h0c.2-.1.2-.2.2-.4h0c.19-.1.3-.29.3-.5h0c.3-.2.5-.5.6-.9h0c.3-.2.5-.5.6-.9h0c.19-.1.3-.29.3-.5h0c.2-.1.2-.2.2-.4h0c.19-.1.3-.29.3-.5h0c.3-.2.5-.5.6-.9h0c.19-.1.3-.29.3-.5h0c.2-.1.2-.2.2-.4h0c.19-.1.3-.29.3-.5.3-.2.5-.5.6-.9h0c.3-.2.5-.5.6-.9h0c.19-.1.3-.29.3-.5h0c.2-.1.2-.2.2-.3h0c.19-.1.3-.29.3-.5h0c.3-.2.5-.5.6-.9h0c.19-.1.3-.29.3-.5h0c.2-.1.2-.2.2-.4h0c.19-.1.3-.29.3-.5h0c.3-.2.5-.5.6-.9h0c.3-.2.5-.5.6-.9h0c.19-.1.3-.29.3-.5h0c.2-.1.2-.2.2-.3h0c.19-.1.3-.29.3-.5h0c.3-.2.5-.5.6-.9h0c.19-.1.3-.29.3-.5h0c.2-.1.2-.2.2-.4h0c.19-.1.3-.29.3-.5h0c.3-.2.5-.5.6-.9h0c.3-.2.5-.5.6-.9h0c.19-.1.3-.29.3-.5h0c.2-.1.2-.2.2-.3h0c.19-.1.3-.29.3-.5h0c.3-.2.5-.5.6-.9h0c.19-.1.3-.29.3-.5h0c.2-.1.2-.2.2-.4h0c.19-.1.3-.29.3-.5h0c.3-.2.5-.5.6-.9h0c.3-.2.5-.5.6-.9h0c.19-.1.3-.29.3-.5h0c.2-.1.2-.2.2-.3h0c.19-.1.3-.29.3-.5h0c.3-.2.5-.5.6-.9h0c.19-.1.3-.29.3-.5h0c.2-.1.2-.2.2-.4h0c.19-.1.3-.29.3-.5h0c.3-.2.5-.5.6-.9h0c.3-.2.5-.5.6-.9h0c.19-.1.3-.29.3-.5h0c.2-.1.2-.2.2-.3h0c.19-.1.3-.29.3-.5h0c.3-.2.5-.5.6-.9h0c.19-.1.3-.29.3-.5h0c.2-.1.2-.2.2-.4h0c.19-.1.3-.29.3-.5h0c.3-.2.5-.5.6-.9h0c.3-.2.5-.5.6-.9h0c.19-.1.3-.29.3-.5h0c.2-.1.2-.2.2-.3h0c.19-.1.3-.29.3-.5h0c.3-.2.5-.5.6-.9h0c.19-.1.3-.29.3-.5h0c.2-.1.2-.2.2-.4h0c.19-.1.3-.29.3-.5h0c.3-.2.5-.5.6-.9h0c.3-.2.5-.5.6-.9h0c.19-.1.3-.29.3-.5h0c.2-.1.2-.2.2-.3h0c.19-.1.3-.29.3-.5h0c.3-.2.5-.5.6-.9h0c.19-.1.3-.29.3-.5h0c.2-.1.2-.2.2-.4h0c.19-.1.3-.29.3-.5h0c.3-.2.5-.5.6-.9h0c.3-.2.5-.5.6-.9h0c.19-.1.3-.29.3-.5h0c.2-.1.2-.2.2-.3h0c.19-.1.3-.29.3-.5h0c.3-.2.5-.5.6-.9h0c.19-.1.3-.29.3-.5h0c.2-.1.2-.2.2-.4h0c.19-.1.3-.29.3-.5h0c.3-.2.5-.5.6-.9h0c.3-.2.5-.5.6-.9h0c.19-.1.3-.29.3-.5h0c.2-.1.2-.2.2-.3h0c.19-.1.3-.29.3-.5h0c.3-.2.5-.5.6-.9h0c.19-.1.3-.29.3-.5h0c.2-.1.2-.2.2-.4h0c.19-.1.3-.29.3-.5h0c.3-.2.5-.5.6-.9h0c.3-.2.5-.5.6-.9h0c.19-.1.3-.29.3-.5h0c.2-.1.2-.2.2-.3h0c.19-.1.3-.29.3-.5h0c.3-.2.5-.5.6-.9h0c.2-.1.3-.3.4-.5h0c.2-.1.2-.2.2-.4h0c.19-.1.3-.29.3-.5h0c.3-.2.5-.5.6-.9h0c.3-.2.5-.5.6-.9h0c.19-.1.3-.29.3-.5h0c.3-.2.5-.5.6-.9h0c.3-.2.5-.5.6-.9h0c.2-.1.3-.3.4-.5h0c.2-.1.2-.2.2-.4h0c.19-.1.3-.29.3-.5h0c.3-.2.5-.5.6-.9h0c.3-.2.5-.5.6-.9h0c.19-.1.3-.29.3-.5h0c.3-.2.5-.5.6-.9h0c.3-.2.5-.5.6-.9h0c.2-.1.3-.3.4-.5h0c.2-.1.2-.2.2-.4h0c.19-.1.3-.29.3-.5h0c.3-.2.5-.5.6-.9h0c.3-.2.5-.5.6-.9h0c.19-.1.3-.29.3-.5h0c.3-.2.5-.5.6-.9h0c.3-.2.5-.5.6-.9h0c.2-.1.3-.3.4-.5h0c.2-.1.2-.2.2-.4h0c.19-.1.3-.29.3-.5h0c.3-.2.5-.5.6-.9h0c.3-.2.5-.5.6-.9h0c.19-.1.3-.29.3-.5h0c.3-.2.5-.5.6-.9h0c.3-.2.5-.5.6-.9h0c.2-.1.3-.3.4-.5h0c.2-.1.2-.2.2-.4h0c.19-.1.3-.29.3-.5h0c.3-.2.5-.5.6-.9h0c.2-.1.3-.3.4-.5h0c.2-.1.2-.2.2-.4h0c.19-.1.3-.29.3-.5h0c.3-.2.5-.5.6-.9h0c.3-.2.5-.5.6-.9h0c.2-.1.3-.3.4-.5h0c.2-.1.2-.2.2-.4h0c.19-.1.3-.29.3-.5h0c.3-.2.5-.5.6-.9h0c.2-.1.3-.3.4-.5h0c.2-.1.2-.2.2-.4h0c.19-.1.3-.29.3-.5h0c.3-.2.5-.5.6-.9h0c.3-.2.5-.5.6-.9h0c.19-.1.3-.29.3-.5h0c.2-.1.2-.2.2-.3h0c.19-.1.3-.29.3-.5h0c.3-.2.5-.5.6-.9h0c.2-.1.3-.3.4-.5h0c.2-.1.2-.2.2-.4h0c.19-.1.3-.29.3-.5h0c.3-.2.5-.5.6-.9h0c.3-.2.5-.5.6-.9h0c.2-.1.3-.3.4-.5h0c.2-.1.2-.2.2-.3h0c.19-.1.3-.29.3-.5h0c.3-.2.5-.5.6-.9h0c.2-.1.3-.3.4-.5h0c.2-.1.2-.2.2-.4h0c.19-.1.3-.29.3-.5h0c.3-.2.5-.5.6-.9h0c.3-.2.5-.5.6-.9h0c.2-.1.3-.3.4-.5h0c.2-.1.2-.2.2-.4h0c.19-.1.3-.29.3-.5h0c.3-.2.5-.5.6-.9h0c.2-.1.3-.3.4-.5h0c.2-.1.2-.2.2-.4h0c.19-.1.3-.29.3-.5h0c.3-.2.5-.5.6-.9h0c.3-.2.5-.5.6-.9h0c.19-.1.3-.29.3-.5h0c.2-.1.2-.2.2-.4h0c.19-.1.3-.29.3-.5h0c.1,0,.1-.1.2-.2l.1-.1c.1,0,.2.1.2.1v154.76c.1.3.2.5.4.7h0c0,.2.1.3.3.2h0c.4.3.5.3.9.1h0c.5-.1.8-.4.9-.9h0c.3-.2.5-.5.5-.9h0c.19-.1.3-.29.3-.5h0c.3-.2.5-.5.5-.9h0c.2-.1.3-.3.3-.6h0c.3-.2.5-.5.5-.9h0c.2-.1.3-.3.3-.6h0c.2-.1.2-.2.2-.4h0c.19-.1.3-.29.3-.5h0c.3-.2.5-.5.5-.9h0c.19-.1.3-.29.3-.5h0c.3-.2.5-.5.5-.9h0c.2-.1.3-.3.3-.6h0c.3-.2.5-.5.5-.9h0c.19-.1.3-.29.3-.5h0c.2-.1.2-.2.2-.4h0c.19-.1.3-.29.3-.5h0c.3-.2.5-.5.5-.9h0c.19-.1.3-.29.3-.5h0c.3-.2.5-.5.5-.9h0c.19-.1.3-.29.3-.5h0c.3-.2.5-.5.5-.9h0c.19-.1.3-.29.3-.5h0c.2-.1.2-.2.2-.4h0c.19-.1.3-.29.3-.5h0c.3-.2.5-.5.5-.9h0c.19-.1.3-.29.3-.5h0c.3-.2.5-.5.5-.9h0c.2-.1.3-.3.3-.6h0c.3-.2.5-.5.5-.9h0c.2-.1.3-.3.3-.6h0c.2-.1.2-.2.2-.4h0c.19-.1.3-.29.3-.5h0c.3-.2.5-.5.5-.9h0c.19-.1.3-.29.3-.5h0c.3-.2.5-.5.5-.9h0c.2-.1.3-.3.3-.6h0c.3-.2.5-.5.5-.9h0c.2-.1.3-.3.3-.6h0c.2-.1.2-.2.2-.4h0c.19-.1.3-.29.3-.5h0c.3-.2.5-.5.5-.9h0c.19-.1.3-.29.3-.5h0c.3-.2.5-.5.5-.9h0c.2-.1.3-.3.3-.6h0c.3-.2.5-.5.5-.9h0c-6.77,1.4-6.67,1.2-6.57,1h0Z"/>
    <path class="cls-1" d="M37.38,195.15c0,.29-.1.58-.1.77v24.02c0,.29,0,.58.1.77-.19.19-.39.29-.67.29h-5.52c-.2.1-.1-.4.1-.9v-13.4c-.2-.1-.3-.1-.4-.2,0,0-.1,0-.1.1-.1.1-.2.3-.2.5h0c-.19.1-.3.29-.3.5h0c-.2.1-.2.2-.2.4h0c-.19.1-.3.29-.3.5h0c-.3.2-.5.5-.5.9h0c-.19.1-.3.29-.3.5h0c-.3.2-.5.5-.5.9h0c-.19.1-.3.29-.3.5h0c-.2.1-.2.2-.2.4h0c-.19.1-.3.29-.3.5h0c-.2.1-.3.3-.4.5h0c-.2.1-.2.2-.2.4h0c-.19.1-.3.29-.3.5h0c-.3.2-.5.5-.5.9h0c-.2.1-.3.3-.3.6h0c-.3.2-.5.5-.5.9h0c-.19.1-.3.29-.3.5h0c-.2.1-.2.2-.2.4h0c-.19.1-.3.29-.3.5h0c-.3.2-.5.5-.5.9h0c-.19.1-.3.29-.3.5h0c-.3.2-.5.5-.5.9h0c-.2.1-.3.3-.3.6h0c-.3.2-.5.5-.5.9h0c-.19.1-.3.29-.3.5h0c-.2,0-.2.2-.3.3h-4.4c-.3,0-.3-.4-.3-.4v-14.55c0-.2,0-.4-.11-.5,0,0-.11-.1-.11,0-.32.3-.64.7-.74,1.2h0c-.2.1-.32.29-.32.5h0c-.32.2-.53.5-.53.9h0c-.2.1-.32.29-.32.5h0c-.21.1-.21.2-.21.4h0c-.2.1-.32.29-.32.5h0c-.32.2-.53.5-.53.9h0c-.2.1-.32.29-.32.5h0c-.32.2-.53.5-.53.9h0c-.2.1-.32.29-.32.5h0c-.21.1-.21.2-.21.4h0c-.2.1-.32.29-.32.5h0c-.32.2-.53.5-.53.9h0c-.2.1-.32.29-.32.5h0c-.32.2-.53.5-.53.9h0c-.2.1-.32.29-.32.5h0c-.21.1-.21.2-.21.4h0c-.2.1-.32.29-.32.5h0c-.32.2-.53.5-.53.9h0c-.2.1-.32.29-.32.5h0c-.32.2-.53.5-.53.9h0c-.2.1-.32.29-.32.5h0c-.21.1-.21.2-.21.4h0c-.2.1-.32.29-.32.5h0c-.21,0-.32.1-.32.3H0h.11c.11-.3.11-.5.21-.8H.32c.2-.1.32-.29.32-.5h0c.21-.1.21-.2.21-.4h0c.2-.1.32-.29.32-.5h0c.32-.2.53-.5.64-.9h0c.2-.1.32-.29.32-.5h0c.32-.2.53-.5.64-.9h0c.2-.1.32-.29.32-.5h0c.21-.1.21-.2.21-.4h0c.2-.1.32-.29.32-.5h0c.32-.2.53-.5.64-.9h0c.2-.1.32-.29.32-.5h0c.21-.1.21-.2.21-.4h0c.2-.1.32-.29.32-.5h0c.32-.2.53-.5.64-.9h0c.2-.1.32-.29.32-.5h0c.32-.2.53-.5.64-.9h0c.21-.1.32-.3.42-.5h0c.21-.1.21-.2.21-.4h0c.2-.1.32-.29.32-.5h0c.32-.2.53-.5.64-.9h0c.2-.1.32-.29.32-.5h0c.21-.1.21-.2.21-.4h0c.2-.1.32-.29.32-.5h0c.32-.2.53-.5.64-.9h0c.2-.1.32-.29.32-.5h0c.32-.2.53-.5.64-.9h0c.21-.1.32-.3.42-.5h0c.21-.1.21-.2.21-.4h0c.2-.1.32-.29.32-.5h0c.32-.2.53-.5.64-.9h0c.2-.1.32-.29.32-.5h0c.21-.1.21-.2.21-.4h0c.2-.1.32-.29.32-.5h0c.32-.2.53-.5.53-.9h0c.2-.1.32-.29.32-.5h0c.32-.2.53-.5.53-.9h0c.21-.1.32-.3.42-.5h0c.21-.1.21-.2.21-.4h0c.2-.1.32-.29.32-.5h0c.32-.2.53-.5.53-.9h0c.2-.1.32-.29.32-.5h0c.21-.1.21-.2.21-.4h0c.2-.1.32-.29.32-.5h0c.32-.2.53-.5.53-.9h0c.2-.1.32-.29.32-.5h0c.21-.1.21-.2.32-.3h5.94l.32.3v13.92s0,.1.1.1c.1.1.1,0,.19-.1.19-.29.48-.58.48-.96h0c.19-.1.29-.29.29-.58h0c.29-.19.48-.48.48-.86h0c.19-.1.29-.29.29-.58h0c.29-.19.48-.48.48-.86h0c.19-.1.29-.29.29-.58h0c.29-.19.48-.48.48-.86h0c.19-.1.29-.29.29-.58h0c.29-.19.48-.48.48-.86h0c.19-.1.29-.29.29-.58h0c.29-.19.48-.48.48-.86h0c.19-.1.29-.29.29-.58h0c.19-.1.19-.19.19-.38h0c.18-.09.29-.28.29-.48h0c.19-.1.29-.29.29-.58h0c.19-.1.19-.19.19-.38h0c.18-.09.29-.28.29-.48h0c.29-.19.48-.48.48-.86h0c.19-.1.29-.29.29-.58h0c.29-.19.48-.48.48-.86h0c.19-.1.29-.29.29-.58h0c.19-.1.39-.29.67-.29h4.91c-.48.77-.29.96-.19,1.15h0ZM144.69,222h-.4c-.65.11-1.32,0-2,0h0c-.25-.22-.59-.29-.9-.2h0c-.2-.2-.5-.3-.9-.3h0c-.5-.4-1.1-.6-1.7-.8h0c-.1-.19-.29-.3-.5-.3h0c-.1-.2-.2-.2-.3-.2h0c-.1-.2-.3-.3-.5-.4h0c-.1-.2-.2-.2-.3-.3h0c0-.2-.1-.3-.3-.3h0c0-.2-.1-.3-.3-.3h0c0-.2-.1-.3-.3-.3h0c0-.2-.1-.3-.3-.3h0c0-.2-.1-.3-.3-.3h0c0-.2-.1-.3-.3-.3h0c0-.2-.1-.3-.3-.3h0c-.1-.3-.3-.6-.6-.8h0c0-.2-.1-.3-.2-.4h0c0-.2-.1-.4-.4-.5h0c0-.2-.1-.4-.3-.6h0c0-.2-.1-.4-.3-.6h0c0-.2-.1-.4-.3-.6h0c-.1-.6-.3-1.1-1.7-1.5v-.1l1-.1c0-.3,0-1,0-1v-.1l-.3-.1c0-.5,0-1.1-.2-1.5l.1-.1-.6-.1v-3.1h0c.3-.5.3-1.1.3-1.7h0c.3-.3.3-.7.3-1.1h0c.3-.2.3-.5.3-.9h0c.3-.4.5-.9.6-1.4h0c.3-.2.4-.6.5-.9h0c.19-.1.31-.29.3-.5h0c.3-.2.5-.5.6-.8h0c.2-.1.2-.2.3-.3h0c.2,0,.3-.1.3-.3h0c.42-.31.79-.69,1.1-1.1h0c.2,0,.3-.1.3-.3h0c.2,0,.3-.1.3-.3h0c.3-.1.6-.3.8-.6h0c.2,0,.3-.1.4-.2h0c.2,0,.4-.1.6-.3h0c.2,0,.4-.1.6-.3h0c.2,0,.5-.1.6-.3h0c.3,0,.6-.1.8-.3h0c.3,0,.6,0,.9-.3h0c.4,0,.8,0,1.1-.3h.7c1.2-.1,2.31-.1,3.51,0h.6c.3.3.8.3,1.1.3h0c.2.3.6.3.9.3h0c.1.2.4.2.6.2h0c.1.2.3.3.6.3h0c.1.2.3.3.6.3h0c.1.2.3.3.6.3h0c.2.3.5.5.9.6h0c.1.2.2.2.3.3h0c0,.2.1.2.3.3h0c.6.7,1.31,1.4,1.91,2h0c0,.2.1.3.3.3h0c.1.4.3.6.6.9h0c0,.2.1.4.3.6h0c.1.4.3.8.6,1.1h0c0,.2,0,.5.2.6h0c0,.3,0,.6.3.9v-.75.45h-6.27c0-.18-.09-.27-.27-.27h0c0-.19-.1-.37-.27-.45h0c0-.18-.09-.27-.18-.27h0c-.18-.45-.55-.82-1-1.09h0c-.09-.18-.18-.18-.36-.18h0c-.09-.18-.27-.27-.55-.27h0c-.09-.18-.36-.27-.55-.27h0c-.18-.27-.55-.27-.82-.18l-.09-.09-.09.09c-.73-.27-1.09-.27-1.82,0h-.93l-.1.1c-.3,0-.6,0-.9.2h0c-.3,0-.6.1-.8.4h0c-.4.1-.7.2-.9.6h0c-.2,0-.3.1-.3.3h0c-.2,0-.3.1-.3.3h0c-.2,0-.3.1-.3.3h0c-.2,0-.3.1-.3.3h0c-.2,0-.2.1-.2.3h0c-.19.1-.3.29-.3.5h0c-.2.1-.3.3-.3.6h0c-.2.1-.3.4-.3.6h0c-.3.2-.3.5-.3.9h0c-.3.4-.3.9-.3,1.4h0c-.3.9-.3,1.5,0,2.4l-.1.1.1.1c0,.5,0,1,.3,1.4h0c0,.3,0,.6.3.9h0c0,.2,0,.5.3.6h0c0,.2.1.5.3.6h0c0,.21.11.4.3.5h0c0,.2.1.3.2.3h0c.2.5.6.9,1.1,1.2h0c.1.2.2.2.3.2h0c.1.2.3.3.6.3h0c.1.2.4.3.6.3h0c.2.3.6.3.9.3h0q.1.1.2.1c.8.2,1.7.1,2.5,0,.1,0,.2-.1.2-.1h.12l.09-.09c.28,0,.56,0,.84-.28h0c.19,0,.47,0,.56-.28h0c.37-.09.65-.19.84-.56h0c.19,0,.28-.09.28-.28h0c.19,0,.28-.09.28-.28h0c.19,0,.28-.09.28-.28h0c.19-.09.28-.28.37-.47h0c.19-.09.28-.28.28-.56h0c.19-.09.19-.37.28-.56.09-.28,0-.28-.37-.28-.19,0-.37-.09-.47-.09h-5.21c-.09,0-.28,0-.37.09-.09-.28-.09-.47-.09-.74v-5.05l.3-.3h12.98c1.21,0,1.11,0,1.11,1.11,0,.6-.1,1.21-.1,1.81,0,.5-.1,1.01-.1,1.51h0c-.3.4-.3.91-.3,1.41h0c-.3.2-.3.6-.3.91h0c-.3.2-.3.5-.3.91h0c-.2.1-.3.4-.2.6h0c-.3.3-.5.7-.6,1.11h0c-.2.1-.3.3-.3.6h0c-.3.2-.5.5-.6.91h0c-.3.2-.5.5-.6.81h0c-.2.1-.2.2-.3.3h0c-.2,0-.3.1-.3.3h0c-.2,0-.3.1-.3.3h0c-.2,0-.3.1-.3.3h0c-.2,0-.3.1-.3.3h0c-.2,0-.3.1-.3.3h0c-.3.1-.6.3-.81.6h0c-.2,0-.3.1-.4.2h0c-.2.1-.4.1-.5.4h0c-.2,0-.4.1-.6.3h0c-.2,0-.4.1-.6.3h0c-.2,0-.5,0-.6.3h0c-.3,0-.6.1-.91.3h0c-.4,0-.81,0-1.11.3h0c-.6,0-1.21,0-1.81.3-.1-.1-.3-.1-.4,0-.2-.6-.6-.6-1.01-.5h0Z"/>
    <path class="cls-1" d="M114.69,194h.7c1.1.2,2.3.2,3.4,0h.5l.1,1h.1c.4-.3.8-.3,1.2-.3h0c.2.3.6.3.9.3h0c.2.2.4.2.6.2h0c.1.2.3.3.6.3h0c.1.2.3.3.6.3h0c.1.19.29.3.5.3h0c.1.2.2.2.4.2h0c.2.3.5.5.8.6h0c0,.2.1.3.3.3h0c0,.2.1.3.3.3h0c.2.4.5.6.8.8h0c0,.2.1.3.3.3h0c0,.2.1.3.3.3h0c0,.2.1.3.3.3h0c.1.2.1.4.4.5h0c0,.2.1.3.2.4h0c0,.21.11.4.3.5h0c.2.6.5,1.2.9,1.7h0c0,.2,0,.5.2.6h0c0,.3,0,.6.3.9h0c0,.4,0,.8.3,1.1h0c0,.5,0,1.1.3,1.5l-.1.1.1.1v3.6l-.1.1.1.1c-.3.5-.3,1-.3,1.5h0c-.3.3-.3.7-.3,1.1h0c-.3.2-.3.5-.3.9h0c-.3.4-.5.9-.6,1.4h0c-.2.1-.3.4-.3.6h0c-.3.2-.5.5-.5.9h0c-.3.2-.5.5-.6.8h0c-.2.1-.2.2-.3.3h0c-.7.6-1.3,1.3-2,2h0c-.2,0-.3.1-.3.3h0c-.4.1-.6.3-.9.6h0c-.21,0-.4.11-.5.3h0c-.6.2-1.2.5-1.7.8h0c-.3,0-.6,0-.8.3h0c-.4,0-.8,0-1.1.3h0c-1.66.2-3.34.2-5,0h0c-.3-.3-.7-.3-1.1-.3h0c-.2-.3-.5-.3-.9-.3h0c-.1-.2-.4-.3-.6-.3h0c-.1-.2-.3-.3-.6-.3h0c-.1-.2-.3-.3-.6-.3h0c-.1-.19-.29-.3-.5-.3h0c-.1-.2-.2-.2-.3-.2h0c-.2-.3-.5-.5-.8-.6h0c0-.2-.2-.2-.3-.3h0c0-.2-.1-.3-.3-.3h0c0-.2-.1-.3-.3-.3h0c0-.2-.1-.3-.3-.3h0c0-.2-.1-.3-.3-.3h0c0-.2-.1-.3-.3-.3h0c0-.2-.1-.3-.3-.3h0c-.1-.3-.3-.6-.6-.8h0c0-.2-.1-.3-.2-.4h0c0-.21-.11-.4-.3-.5h0c0-.2-.1-.4-.3-.6h0c0-.2-.1-.4-.3-.6h0c0-.2-.1-.4-.3-.6h0c0-.2,0-.5-.2-.6h0c-.1-.4-.1-.8-.4-1.1h0c0-.4,0-.8-.3-1.1h0c0-.7,0-1.4-.3-2.1.1-.6.1-1.1,0-1.7.3-.8.3-1.6.3-2.4h0c.3-.3.3-.8.3-1.1l-.4-.1v-.1c.8-.3.8-.6.8-.9h0c.3-.2.3-.5.3-.9h0c.2-.1.3-.4.3-.6h0c.2-.1.3-.4.3-.6h0c.2-.1.3-.3.3-.6h0c.2-.1.2-.2.2-.4h0c.19-.1.3-.29.3-.5h0c.2-.1.2-.2.2-.3h0c.3-.2.5-.5.6-.8h0c.2,0,.3-.2.3-.3h0c.2,0,.3-.1.3-.3h0c.2,0,.3-.1.3-.3h0c.2,0,.3-.1.3-.3h0c.2,0,.3-.1.3-.3h0c.2,0,.3-.1.3-.3h0c.3-.1.6-.3.8-.6h0c.2,0,.3-.1.3-.2h0c.21,0,.4-.11.5-.3h0c.2,0,.4-.1.6-.3h0c.2,0,.4-.1.6-.3h0c.2,0,.5,0,.6-.2h0c.3,0,.6,0,.9-.3h0c.2.2.6.2,1-.1v-.3ZM110.59,208c0,1.4.2,2.6.7,3.8.5,1.1,1.1,2.1,2.1,2.9,2.3,1.9,5.8,2,8.1-.4.7-.7,1.2-1.4,1.5-2.3,1.1-2.6,1.1-5.2-.1-7.7-.4-.9-1-1.8-1.8-2.5-2-1.8-5-2.1-7.3-.5-1,.7-1.7,1.6-2.2,2.6-.7,1.4-1,2.7-1,4.1h0ZM54.05,194.9c.1,0,.29.1.38.1h4.96s.3-.4.4-.4c.1.2.2.4-.5.6v18.9l1,.1v.1s-.8.8-.8,1.2h0c-.2.2-.3.5-.3.9h0c-.2.2-.3.5-.3.8h0c-.2.1-.3.4-.3.6h0c-.3.2-.5.5-.6.9h0c-.2.1-.2.2-.3.3h0c-.5.4-1,.9-1.4,1.4h0c-.2,0-.3.1-.3.3h0c-.3.1-.6.3-.9.6h0c-.2,0-.5.1-.6.3h0c-.3,0-.6.1-.8.3h0c-.3,0-.6,0-.9.1h-.3c-1.3.4-2.7.4-4.1,0h-.4l-.1,1h-.1c-.29-1.1-.64-1.21-1-1.2h0c-.2-.3-.5-.3-.8-.3h0c-.1-.2-.4-.3-.6-.3h0c-.1-.19-.29-.3-.5-.3h0c-.1-.2-.2-.2-.3-.2h0c-.3-.4-.7-.7-1.1-.9h0c-.2-.3-.4-.6-.7-.8h0c0-.2-.1-.3-.2-.3h0c0-.2-.1-.3-.2-.4h0c0-.21-.11-.4-.3-.5h0c0-.2-.1-.4-.3-.6h0c0-.2,0-.5-.3-.6h0c0-.3,0-.6-.3-.9h0c0-.4,0-.8-.3-1.2h0l.4-4v-15.01c0-.2.1-.39.19-.59.1,0,.29.1.39.1h4.65c.1,0,.29-.1.39-.1.19.1.39.3.39.59v15.28l.1,2.17c0,.2.1.39.19.49h0c0,.3,0,.59.19.89h0c0,.2.1.49.29.59h0c.1.39.39.79.87.89h0c.19.2.39.3.58.2h0c.68.3,1.16.3,1.84,0h-.06v-.1c.19,0,.48,0,.57-.3h0c.19,0,.29-.1.29-.3h0c.19,0,.29-.1.29-.3h0c.19-.1.29-.3.29-.6h0c.29-.2.29-.6.29-.9h0c.19-.2.19-.4.19-.6l.1-2.09v-15.73c.48.1.67,0,.76-.2h0ZM84.48,194.9c.2,0,.39.1.49.1h4.61c.2,0,.3-.1.5-.1.2.3.2.7.2,1.1v9.9c0,.1.1.1.19.1h.1c.1-.19.1-.29.19-.48h0c.29-.19.48-.48.48-.87h0c.19-.1.29-.29.29-.58h0c.19-.1.29-.29.29-.58h0c.19-.1.29-.29.29-.58h0c.29-.19.48-.48.48-.87h0c.19-.1.29-.29.29-.58h0c.19-.1.29-.29.29-.58h0c.29-.19.48-.48.48-.87h0c.19-.1.29-.29.29-.58h0c.19-.1.29-.29.29-.58h0c.29-.19.48-.48.48-.87h0c.19-.1.29-.29.29-.58h0c.19-.1.29-.29.29-.58h0c.19-.1.29-.29.29-.58h0c.29-.19.48-.48.48-.87h0c.19-.1.29-.29.29-.58h0c.19-.1.29-.29.29-.58h0l.58-.29c.19,0,.39.1.48.1h4.82c.2,0,.41-.1.51-.1.19.1.31.29.3.51h0c-.3.2-.51.51-.51.91h0c-.2.1-.3.3-.3.61h0c-.3.2-.51.51-.51.91h0c-.2.1-.3.3-.3.61h0c-.3.2-.51.51-.51.91h0c-.2.1-.3.3-.3.61h0c-.3.2-.51.51-.51.91h0c-.2.1-.3.3-.3.61h0c-.2.1-.3.3-.3.61h0c-.2.1-.2.2-.2.41h0c-.2.1-.3.3-.3.61h0c-.2.1-.3.3-.3.61h0c-.2.1-.2.2-.2.41h0c-.2.1-.3.3-.3.61h0c-.2.1-.3.3-.3.61h0c-.2.1-.2.2-.2.41h0c-.19.1-.31.29-.3.51h0c-.2.1-.3.3-.3.61h0c-.2.1-.2.2-.2.41h0c-.19.1-.31.29-.3.51h0c-.2.1-.3.3-.3.61h0c-.2.1-.2.2-.2.41h0c-.19.1-.31.29-.3.51h0c-.41.41-.41.51,0,.91h0c0,.2.1.3.2.41h0c0,.21.11.41.3.51h0c.1.41.3.61.61.91h0c0,.21.11.41.3.51h0c0,.2.1.3.2.41h0c0,.21.11.41.3.51h0c.1.41.3.61.61.91h0c.1.41.3.61.61.91h0c0,.21.11.41.3.51h0c0,.2.1.3.2.41h0c0,.21.11.41.3.51h0c.1.41.3.61.61.91h0c.1.41.3.61.61.91h0c0,.21.11.41.3.51h0c0,.2.1.3.2.41h0c0,.21.11.41.3.51h0c.1.41.3.61.61.91h0c.1.41.3.61.61.91h0c0,.21.11.41.3.51h0c0,.2.1.3.2.41h0c0,.21.11.41.3.51h0c.1.3.2.51.2.81h.1-7.3c-.2-.3-.3-.61-.61-.91h0c0-.2-.1-.41-.3-.61h0c0-.2-.1-.41-.3-.61h0c-.1-.41-.2-.71-.51-.91h0c0-.2-.1-.41-.3-.61h0c0-.2-.1-.41-.3-.61h0c-.1-.41-.2-.71-.51-.91h0c0-.2-.1-.41-.3-.61h0c0-.2-.1-.41-.3-.61h0c-.1-.41-.2-.71-.51-.91h0c0-.2-.1-.41-.3-.61h0c0-.2-.1-.41-.3-.61h0c-.1-.41-.2-.71-.51-.91h0c0-.2-.1-.41-.3-.61h0c0-.2-.1-.41-.3-.61h0c0-.2-.1-.41-.3-.61h0c0-.2,0-.3-.2-.41l-.1.1.1-.1c0-.1,0-.2-.1-.3,0,0,0-.1-.1-.1l-.2-.2c-.1-.1-.2.1-.2.3v10.57c0,.22-.18.4-.4.4h-5.6l.1.1c0-.5-.1-1-.1-1.5v-25c-.2-.4,0-.5.2-.7h0Z"/>
    <path class="cls-1" d="M80.08,202.2c0,.1-.11.1-.11.2,0,0,0,.1.11.1l-.42.4c-1.05-.1-4.84-.1-6,0-.11-.2-.32-.4-.42-.6h0c0-.3,0-.6-.21-.9h0c0-.2-.11-.5-.32-.6h0c0-.2-.11-.3-.32-.3h0c-.11-.3-.32-.3-.63-.3h0c-.42-.3-.84-.3-1.26,0h0c-.74.1-1.26.4-1.47,1.2h0c-.32.6-.32,1.1,0,1.7h0c.11.5.42.8.84.9h0c.11.2.21.2.32.2h0c.11.2.32.3.53.4h0c.11.2.21.2.42.2.11.2.32.3.63.3h0c.11.2.32.3.63.3h0c.11.2.32.3.63.3h0c.11.2.32.3.63.3h0c.11.2.32.3.63.3h0c.11.2.32.3.63.3h0c.11.2.32.3.63.3h0c.11.2.32.3.63.3h0c.11.2.21.2.32.2h0c.11.2.32.3.53.4h0c.11.2.21.2.32.2h0c.53.6,1.16,1.1,1.79,1.7h0c0,.2.11.3.21.4h0c0,.2.11.4.32.6h0c0,.2.11.5.32.6h0c.11.4.11.8.32,1.1h0c.11,1.2.21,2.5,0,3.8v.4h0c-.32.3-.32.7-.32,1.1h0c-.21.1-.21.4-.21.6h0c-.21.1-.32.3-.32.6h0c-.2.1-.32.29-.32.5h0c-.63.7-1.37,1.3-2.11,2h0c-.21,0-.42.1-.63.3h0c-.21,0-.42.1-.63.3h0c-.21,0-.53,0-.63.2h0c-.42.1-.84.1-1.16.3h0c-1.75.2-3.52.2-5.26,0h0c-.32-.3-.74-.3-1.16-.3h0c-.21-.2-.42-.2-.63-.2h0c-.11-.2-.32-.3-.63-.3h0c-.11-.2-.32-.3-.63-.3h0c-.32-.4-.74-.6-1.16-.9h0c0-.2-.11-.3-.32-.3h0c0-.2-.11-.3-.32-.3h0c-.11-.3-.32-.6-.63-.8h0c0-.2-.11-.4-.32-.6h0c0-.2-.11-.4-.32-.6h0c0-.3,0-.5-.32-.7v-.3l.8-.1c0-.3.2-1,.2-1v-.2s0-1,0-1v-1.5c-.5-.2-.3-.3-.2-.1h5.5c.1-.1.2-.1.3.1.1.4,0,.8.3,1.2h0c0,.3,0,.6.3.8h0c.2.6.5,1,1.1,1.1h0c.5.4,1,.4,1.5,0h0c.2,0,.5-.1.6-.3h0c.29-.09.51-.31.6-.6h0s.1,0,.1-.1c.5-.8.6-1.6.2-2.4l-.1-.1h0c-.1-.6-.6-1-1.1-1.2h0c-.7-.6-1.5-.9-2.3-1.1h0c-.1-.2-.4-.3-.6-.3h0c-.1-.2-.4-.3-.6-.3h0c-.1-.2-.3-.3-.6-.3h0c-.1-.2-.3-.3-.6-.3h0c-.1-.2-.3-.3-.6-.3h0c-.2-.3-.5-.5-.9-.6h0c-.3-.4-.7-.7-1.1-.9,0-.2-.1-.3-.3-.3h0c0-.2-.1-.3-.3-.3h0c-.1-.3-.3-.6-.6-.8h0c-.1-.4-.3-.6-.5-.9h0c-.1-.3-.1-.6-.3-.8h0c0-.4,0-.8.2-1.1h0v-2.8h0c-.2-.3-.2-.8-.2-1.1h0c.3-.2.3-.5.3-.8h0c.2-.1.3-.4.3-.6h0c.2-.1.2-.2.2-.4h0c.2-.1.3-.3.4-.5h0c.2-.1.2-.2.3-.3h0c.2,0,.3-.1.3-.3h0c.2,0,.3-.1.3-.3h0c.2,0,.3-.1.3-.3h0c.2,0,.3-.1.3-.3h0c.3-.1.6-.3.8-.6h0c.2,0,.4-.1.6-.3h0c.2,0,.4-.1.6-.3h0c.3,0,.6-.1.8-.3h0c.3,0,.6,0,.9-.2h0c1.3-.1,4,.2,4,.2h-.25c.21.2.63.3.95.3h0c.21.3.53.3.84.3h0c.11.2.32.3.63.3h0c.21.3.53.5.95.6h0c.11.2.21.2.32.3h0c.24.34.56.62.95.8h0c0,.2.11.3.32.3h0c0,.2.11.3.21.4h0c.11.2.11.4.32.5h0c0,.2.11.4.32.6h0c0,.2,0,.5.32.6h0c0,.3,0,.6.32.9h0l.21,1.7c.11.4.21.5.21.6h0ZM192,211.09c-.1,0-.19-.09-.29-.09h-6.42c-.1,0-.3.1-.4.1s-.2.1-.6.1v4c.4.2.6.3.8.8h6.4c.6-.5.8-.4.8.2v5c0,.3-.1.6-.1.8h.1-13,.1c-.19-.5-.1-1-.1-1.49v-24.91c0-.2.1-.4.19-.7.19,0,.39.1.49.1h11.48c.19,0,.37-.1.47-.1.19.1.37.2.37.5v5.2c0,.22-.18.4-.4.4h-6.23c-.19,0-.37.2-.37.3v3.42c0,.19.19.28.38.28h6.23c.29,0,.38.09.38.37v4.87c-.19.47-.29.66-.29.84ZM161.77,194.9c.19,0,.39.1.49.1h12.07c.21,0,.43-.1.53-.1.32.1.43.3.43.6v5.3c0,.1-.11.2-.21.2h-7.36c-.32,0-.43.2-.43.4v1.83c0,2.07-.29,1.77,1.82,1.77h4.79c.29,0,.38.2.38.39v4.92c0,.2-.1.39-.19.69h.09-6.5c-.1-.1-.2,0-.2,0-.1.1-.2.1-.2.1v3.9c0,.2.2.4.3,1h6.8c.2-.6-.1-.2-.1-.2v5.8c0,.1-.1.3-.1.4h.1-13,.1c-.1-.5-.1-.91-.1-1.41v-25.39c.1,0,.29-.2.49-.3h0ZM389.99,194h.6c1.4-.1,2.8-.1,4.2,0h0c.3.3.8.3,1.1.3h0c.2.2.5.3.9.3h0c.2.2.5.3.8.3h0c.1.2.4.3.6.3h0c.1.2.3.3.6.3h0c.1.19.29.3.5.3h0c.1.2.2.2.4.2h0c.2.3.5.5.8.6h0c0,.2.2.2.3.3h0c.52.62,1.08,1.18,1.7,1.7h0c0,.2.1.3.3.3h0c0,.2.1.3.3.3h0c0,.2.1.4.4.5h0c0,.2.1.3.2.4h0c0,.2.1.4.3.6h0c0,.2.1.4.3.6v.3c0,.3-.1.4-.2.4h-2c-.3,0-.5-.2-.7-.4h0c0-.21-.11-.4-.3-.5h0c0-.2-.1-.3-.2-.3h0c-.5-.9-.8-1.1-1.7-1.7h0c0-.2-.2-.2-.3-.3h0c-.2-.3-.5-.5-.9-.6h0c-.1-.2-.3-.3-.6-.3h0c-.1-.2-.4-.3-.6-.3h0c-.1-.2-.4-.3-.6-.2h0c-.2-.3-.5-.3-.9-.3l-.1-.1h-.55c-.49-.31-.97-.31-1.46-.31-.49-.2-.88-.2-1.36,0-.49-.1-.97,0-1.46.1-.1,0-.1.1-.19.1h0c-.29,0-.58,0-.88.31h0c-.29,0-.58.1-.78.31h0c-.19,0-.39.1-.58.31h0c-.39.1-.68.2-.88.51h0c-.39.1-.58.31-.78.61h0c-.19,0-.29.1-.29.31h0c-.19,0-.29.1-.29.31h0c-.19,0-.29.1-.29.31h0c-.19,0-.29.1-.29.31h0c-.19,0-.29.1-.29.31h0c-.19,0-.19.1-.29.31h0c-.19.1-.29.31-.39.51h0c-.19.1-.19.2-.19.41h0c-.18.1-.3.3-.29.51h0c-.49.51-.68,1.12-.78,1.73h0c-.29.2-.29.51-.29.92h0c-.29.2-.29.61-.19.92l-.1.1v.1c0,.1-.1.1-.1.2-.1.51-.19,1.12-.1,1.63-.1.41-.1.71,0,1.12-.1.71,0,1.43.1,2.04,0,.1.1.1.1.2h0c0,.41,0,.82.29,1.12h0c0,.61.19,1.02.58,1.43h0c0,.2.1.41.29.61h0c0,.41.19.71.49.92h0c0,.2.1.41.39.51h0c0,.2.1.31.19.31h0c0,.2.1.31.29.31h0c0,.2.1.31.29.31h0c0,.2.1.31.29.31h0c0,.2.1.31.29.31h0c0,.2.1.31.29.31h0c0,.2.19.31.29.31h0c.19.31.49.51.78.61h0c.1.2.19.2.39.2h0c.09.19.28.31.49.31h0c.1.2.29.31.58.31h0c.19.31.49.31.78.31h0c.19.31.58.31.88.31h0c.39.31.97.31,1.46.31l.1.1.1-.1c.78.2,1.07.2,1.85,0h0c.49,0,.97.1,1.36-.31h0c.29,0,.58,0,.88-.31h0c.68-.1,1.17-.41,1.65-.82h0c.19,0,.39-.1.49-.41h0c.19,0,.29-.1.39-.2h0c.29-.1.58-.31.78-.61h0c.19,0,.29-.1.29-.31h0c.19,0,.29-.1.29-.31h0c.19,0,.29-.1.29-.31h0c.39-.31.68-.61.88-1.12h0c.29-.2.49-.51.49-.92h0c.19-.1.29-.31.29-.61h0c.29-.2.29-.51.39-.82h0c.29-.2.29-.61.29-.92,0-.1-.1-.2-.1-.2-.29,0-.58-.1-.97-.1h-10.69c-.49,0-.88.1-1.36-.1v-2.7h0c.1-.1.31-.2.41-.3.2,0,.51.1.72.1h14.95c.2,0,.51-.1.72-.1.1.2.2.5.2.69v.89h0c-.31.4-.31.89-.31,1.39h0c-.31.2-.31.6-.31.89h0c-.31.2-.31.5-.31.79h0c-.2.1-.31.4-.31.6h0c-.2.1-.31.3-.31.6h0c-.2.1-.31.3-.31.6h0c-.2.1-.31.3-.31.6h0c-.2.1-.2.2-.2.4h0c-.31.2-.51.5-.61.79h0c-.2,0-.2.2-.31.3h0c-.63.51-1.21,1.08-1.74,1.69h0c-.2,0-.31.1-.31.3h0c-.2,0-.31.1-.31.3h0c-.31.1-.61.3-.92.6h0c-.22,0-.41.11-.51.3h0c-.2,0-.41.1-.61.3h0c-.2,0-.41.1-.61.3h0c-.2,0-.51,0-.61.2h0c-.31,0-.61,0-.92.3h0c-.41,0-.82,0-1.13.3h-.94c-1.2.6-2.4.6-3.6,0h-.6c-.3.2-.7.2-1.1.2h0c-.2-.3-.5-.3-.9-.3h0c-.1-.2-.4-.3-.6-.2h0c-.3-.3-.7-.5-1.1-.6h0c-.1-.19-.29-.3-.5-.3h0c-.2-.3-.5-.5-.9-.6h0c0-.2-.2-.2-.3-.3h0c-.3-.4-.6-.7-1.1-.9h0c0-.2-.1-.3-.3-.3h0c-.2-.4-.5-.8-.9-1.1h0c0-.2-.1-.3-.3-.3h0c0-.2-.1-.3-.2-.3h0c0-.2-.1-.4-.4-.5h0c0-.2-.1-.3-.2-.4h0c0-.2-.1-.4-.3-.6h0c0-.2-.1-.4-.3-.6h0c0-.2-.1-.4-.3-.6h0c0-.2,0-.5-.3-.6h0c0-.3,0-.6-.3-.9h0c0-.4,0-.7-.6-1v-.1l.2-.1c0-.4.8-1.3.8-1.3l-1-.1v-4.5s.2-.8.2-1.3l.8-.1v-.1c-.4-.3-.4-.6-.4-1h0c.3-.2.3-.5.3-.9h0c.2-.1.3-.4.3-.6h0c.2-.1.3-.3.3-.6h0c.2-.1.3-.3.3-.6h0c.2-.1.3-.3.3-.6h0c.3-.2.5-.5.6-.9h0c.2-.1.2-.2.2-.3h0c.4-.3.7-.6.9-1.1h0c.2,0,.3-.1.3-.3h0c.2,0,.3-.1.3-.3h0c.2,0,.3-.1.3-.3h0c.4-.2.8-.5,1.1-.9h0c.4-.1.6-.3.9-.6h0c.21,0,.4-.11.5-.3h0c.4-.1.8-.2,1.1-.6h0c.2,0,.5,0,.6-.2.3,0,.6,0,.9-.3h0c.1.8.5.8.9.5v-.3Z"/>
    <path class="cls-1" d="M300.99,194.6c.6.2,1.3.1,1.9,0l.4.4c-.1.4-.1.7,0,1.1v23.8c-.1.5-.2.9,0,1.4-.2.1-.3.3-.6.7h-1.9l-.3-.7h0c0-.2-.1-.3-.2-.4h0c0-.21-.11-.4-.3-.5h0c0-.21-.11-.4-.3-.5h0c0-.2,0-.3-.2-.4h0c0-.2-.1-.4-.3-.6h0c-.1-.4-.2-.7-.5-.9h0c0-.2-.1-.4-.3-.6h0c-.1-.4-.2-.7-.5-.9h0c0-.2-.1-.4-.3-.6h0c-.1-.4-.2-.7-.5-.9h0c0-.2-.1-.4-.3-.6h0c-.06-.35-.24-.66-.5-.9h0c0-.21-.11-.4-.3-.5h0c0-.2,0-.3-.2-.4h0c0-.2-.1-.4-.3-.6h0c-.1-.4-.2-.7-.5-.9h0c0-.2-.1-.4-.3-.6h0c-.1-.4-.2-.7-.5-.9h0c0-.2-.1-.4-.3-.6h0c-.1-.4-.2-.7-.5-.9h0c0-.2-.1-.4-.3-.6h0c-.1-.4-.2-.7-.5-.9h0c0-.21-.11-.4-.3-.5h0c0-.2,0-.3-.2-.4h0c0-.21-.11-.4-.3-.5h0c0-.21-.11-.4-.3-.5h0c0-.2,0-.3-.2-.4h0c0-.2-.1-.4-.3-.6h0c-.1-.4-.2-.7-.5-.9h0c0-.2-.1-.4-.3-.6h0c-.1-.4-.2-.7-.5-.9h0c0-.2-.1-.4-.3-.6h0c-.1-.4-.2-.7-.5-.9h0c0-.2-.1-.4-.3-.6h0c-.06-.35-.24-.66-.5-.9h0c0-.21-.11-.4-.3-.5h0c0-.2,0-.3-.2-.4l-.1.1.1-.1c0-.2-.3-.4-.3-.4h.1l-.1.1v22.47c0,.51,0,.92-.1,1.43h-2.4c-.3,0-.4-.2-.6-.3,0-.3.1-.6.1-.8v-24.7c0-.3-.1-.6-.1-.8l.4-.4c.99.1,1.79.1,2.78,0,.1.1.3.2.4.3h0c.1.4.3.6.5.9h0c0,.2.1.4.3.6h0c.06.35.24.66.5.9h0c0,.21.11.4.3.5h0c0,.2,0,.3.2.4h0c0,.2.1.4.3.6h0c0,.21.11.4.3.5h0c0,.2,0,.3.2.4h0c0,.2.1.4.3.6h0c.1.4.2.7.5.9h0c0,.2.1.4.3.6h0c.1.4.2.7.5.9h0c0,.2.1.4.3.6h0c.1.4.2.7.5.9h0c0,.2.1.4.3.6h0c.1.4.2.7.5.9h0c0,.21.11.4.3.5h0c0,.2,0,.3.2.4h0c0,.2.1.4.3.6h0c0,.21.11.4.3.5h0c0,.2,0,.3.2.4h0c0,.2.1.4.3.6h0c.1.4.2.7.5.9h0c0,.2.1.4.3.6h0c.1.4.2.7.5.9h0c0,.2.1.4.3.6h0c.1.4.2.7.5.9h0c0,.2.1.4.3.6h0c.1.4.2.7.5.9h0c0,.2.1.4.3.6h0c.06.35.24.66.5.9h0c0,.21.11.4.3.5h0c0,.2,0,.3.2.4h0c0,.2.1.4.3.6h0c0,.21.11.4.3.5h0c0,.1.1.3.1.4s.1.1.2.2c0-.1.1-.1.1-.2v-22l.7-.8h0ZM307.29,212.24v.16-.1c.2-.4,1-1,1-1v-.2c-1-.6-1.1-1.3-1.2-1.9,0-.1-.1-.2-.1-.2.1-.4.1-.9,0-1.4.3-.7.2-1.4.3-2.1v-.1s0-.1,0-.1c.4-.4.4-.8.4-1.2h0c.3-.2.3-.6.3-.9h0c.3-.2.3-.5.3-.8h0c.2-.1.3-.4.3-.6h0c.2-.1.3-.3.3-.6h0c.2-.1.3-.3.3-.6h0c.2-.1.3-.3.3-.6h0c.2-.1.2-.2.2-.4h0c.3-.2.5-.5.6-.8h0c.2,0,.2-.2.3-.3h0c.62-.52,1.18-1.08,1.7-1.7h0c.2,0,.3-.1.3-.3h0c.2,0,.3-.1.3-.3h0c.3-.1.6-.3.9-.6h0c.21,0,.4-.11.5-.3h0c.2,0,.4-.1.6-.3h0c.2,0,.5-.1.6-.3h0c.2,0,.5,0,.6-.2h0c.3,0,.6,0,.9-.3h0c.4,0,1.2-.2,1.2-.2h-.14l.1-.1c1.39-.1,2.79-.1,4.18,0h0c.3.3.8.3,1.1.3h0c.2.2.5.3.9.3h0c.2.3.5.3.8.3h0c.1.2.4.3.6.3h0c.1.2.3.3.6.3h0c.2.3.5.49.9.59h0c0,.2.2.2.3.2h0c.2.3.5.49.8.59h0c0,.2.1.3.3.3h0c0,.2.1.3.3.3h0c0,.2.1.3.3.3h0c0,.2.1.3.3.3h0c0,.2.1.3.3.3h0c0,.2.1.3.3.3h0c.1.3.3.59.6.79h0c0,.2.1.3.2.39h0c0,.2.1.39.4.49h0c.3.79.7,1.38,1,2.17l.1.1h0c0,.3,0,.59.3.79h0c0,.3,0,.59.3.89h0c0,.49,0,.99.3,1.38h0v.69c.1,1.08.1,2.17,0,3.35v.69h0c-.3.39-.3.89-.3,1.38h0c-.2.2-.3.59-.3.89h0c-.2.2-.3.49-.3.79h0c-.3.39-.5.89-.6,1.38h0c-.3.2-.4.59-.5.89h0c-.19.09-.3.29-.3.49h0c-.2.1-.2.2-.2.39h0c-.3.2-.5.49-.6.79h0c-.2,0-.3.2-.3.3h0c-.2,0-.3.1-.3.3h0c-.2,0-.3.1-.3.3h0c-.2,0-.3.1-.3.3h0c-.2,0-.3.1-.3.3h0c-.2,0-.3.1-.3.3h0c-.2,0-.3.1-.3.3h0c-.3.1-.6.3-.8.59h0c-.4.1-.6.3-.9.59h0c-.2,0-.5.1-.6.3h0c-.2,0-.5.1-.6.3h0c-.2,0-.5,0-.6.3h0c-.3,0-.6.1-.9.3h0c-.4.1-.8,0-1.1.3h-.4c-1.29.2-2.6.2-3.89,0h-.4c-.3-.3-.7-.3-1.1-.3h0c-.2-.3-.5-.3-.9-.3h0c-.1-.2-.4-.3-.6-.3h0c-.1-.2-.3-.3-.6-.3h0c-.1-.2-.3-.3-.6-.3h0c-.1-.18-.29-.3-.5-.3h0c-.2-.3-.5-.49-.9-.59h0c0-.2-.2-.2-.3-.3h0c0-.2-.1-.2-.3-.3h0c-.51-.61-1.08-1.17-1.69-1.68h0c0-.2-.1-.3-.3-.3h0c0-.2-.1-.3-.3-.3h0c0-.2-.1-.39-.4-.49h0c0-.2-.1-.3-.2-.39h0c0-.21-.11-.4-.3-.49h0c0-.2-.1-.39-.3-.59h0c0-.2-.1-.39-.3-.59h0c0-.2,0-.39-.3-.59h0c0-.2,0-.49-.2-.59h0c-.3-.2-.3-.59-.6-.79h0ZM330.29,208.1c0-1.3-.2-2.8-.7-4.1-.86-2.44-2.51-4.52-4.7-5.9-3.1-1.9-7.1-1.9-10.2.2-1,.7-1.9,1.5-2.6,2.5-2.5,3.4-3.2,7.2-1.9,11.3.9,2.8,2.6,5,5.2,6.5,3,1.6,6.1,1.6,9.1,0,1.2-.6,2.2-1.4,3-2.4,1.9-2.4,2.8-5,2.8-8.1h0ZM366.12,222h-.69c-1.09.1-2.27.1-3.36,0h-.49c-.3-.3-.69-.3-1.09-.3h0c-.2-.3-.49-.3-.89-.3h0c-.1-.2-.4-.3-.59-.2h0c-.3-.3-.69-.5-1.09-.6h0c-.09-.19-.29-.3-.49-.3h0c-.2-.3-.49-.5-.89-.6h0c0-.2-.2-.2-.3-.3h0c-.69-.79-1.48-1.49-2.17-2.18h0c0-.2-.1-.3-.3-.3h0c-.1-.4-.3-.6-.59-.89h0c0-.21-.11-.4-.3-.5h0c-.2-.6-.49-1.19-.79-1.69h0c0-.2,0-.5-.2-.6h0c0-.3,0-.6-.3-.89h0c0-.4,0-.89-.3-1.19v-.1l-.1-.1c0-.7,0-1.39-.3-2.09.1-.5.1-.99,0-1.49.3-.79.2-1.59.3-2.28h0c.3-.3.3-.79.3-1.09h0c.3-.2.3-.6.3-.89h0c.3-.2.3-.5.3-.79h0c.2-.1.3-.4.3-.6h0c.2-.1.3-.3.3-.6h0c.2-.1.3-.3.3-.6h0c.2-.1.3-.3.3-.6h0c.2-.1.2-.2.2-.4h0c.2-.1.3-.3.4-.5h0c.2-.1.2-.2.3-.3h0c.2,0,.2-.1.3-.3h0c.69-.6,1.38-1.29,1.98-1.89h0c.2,0,.3-.1.3-.3h0c.4-.1.59-.3.89-.6h0c.21,0,.4-.11.49-.3h0c.2,0,.4-.1.59-.3h0c.2,0,.4-.1.59-.3h0c.2,0,.49,0,.59-.2h0c.3,0,.59,0,.89-.3h0c.4,0,.89,0,1.19-.3h.1l.1-.1c1.38-.1,2.77-.1,4.15,0h0c.3.3.79.3,1.09.3h0c.2.2.49.3.89.3h0c.2.3.49.3.79.4h0c.1.2.4.3.59.3h0c.1.2.3.3.59.3h0c.1.2.2.2.4.2h0c.09.19.29.3.49.3h0c0,.2.2.2.3.2h0c.2.3.49.5.79.6h0c0,.2.1.3.3.3h0c0,.2.1.3.3.3h0c0,.2.1.3.3.3h0c0,.2.1.3.3.3h0c0,.2.1.3.3.3h0c0,.2.1.3.3.3h0c.1.3.3.6.59.79h0c.1.4.3.6.59.89h0c0,.2.1.4.3.6h0c.1.4.3.79.59,1.09h0c0,.2,0,.5.3.6h0c0,.3,0,.6.3.89h0c0,.3,0,.6.3.89h0c0,.5,0,.99.3,1.39h0v4.67h0c-.3.4-.3.89-.3,1.39h0c-.3.2-.3.6-.3.89h0c-.2.2-.3.5-.3.79h0c-.4.6-.69,1.39-1.09,1.99,0,.1,0,.2-.1.3h0c-.2.1-.3.3-.4.5h0c-.2.1-.2.2-.2.4h0c-.3.2-.49.5-.59.79h0c-.2,0-.3.2-.3.3h0c-.2,0-.3.1-.3.3h0c-.2,0-.3.1-.3.3h0c-.2,0-.3.1-.3.3h0c-.2,0-.3.1-.3.3h0c-.2,0-.3.1-.3.3h0c-.2,0-.3.1-.3.3h0c-.3.1-.59.3-.79.6h0c-.4.1-.59.3-.89.6h0c-.2,0-.49.1-.59.3h0c-.2,0-.49.1-.59.3h0c-.2,0-.49,0-.59.3h0c-.3,0-.59.1-.89.3h0c-.69-.2-1.09-.2-1.48.1h0ZM373.99,208.2c0-1.4-.2-2.8-.7-4.1-1-2.7-2.7-4.9-5.3-6.3-3-1.6-6.1-1.5-9.1.1-1.3.7-2.4,1.6-3.2,2.8-2.5,3.4-3.2,7.2-1.9,11.3.9,2.8,2.6,5,5.3,6.4,2.8,1.5,5.7,1.6,8.6.3,1.4-.6,2.5-1.6,3.5-2.7,1.9-2.2,2.8-4.8,2.8-7.8h0ZM276.19,209.1c-.2,0-.5-.1-.7-.1h-10.28c-.2,0-.51,0-.72.1-.1.1-.2.1-.2.2v11.26c0,.51,0,.92-.1,1.43h-2.4c-.2-.3-.3-.5-.5-.7v-26.1c.1-.2.2-.4.4-.6.6.2,1.3.1,1.9,0,.1.2.2.4-.3.7v11.1c.5.1.8.6.8.6h11.9c.2-.4.3-.6.3-.8v-11c0-.3.2-.4.4-.5.6.1,1.1.1,1.7,0,.2.1-.1.6-.1.6v25.3c.5.4.5.8,0,1.2v.2h-3v-.2c1-.5.9-1,1-1.5v-10c-.1-.3-.1-.6-.2-1,.3-.1.1-.1.1-.2h0Z"/>
    <path class="cls-1" d="M236.29,209.9h0v.1c.1.4.1.9,1,1.3v.1l-.5.1c0,.3,0,.6.3.9h0c0,.2,0,.5.2.6h0c0,.5.2.8.6,1.2h0c0,.2.1.4.3.6h0c.1.4.3.6.6.9h0c0,.2.1.3.3.3h0c.5.8,1.1,1.5,2,2h0c.1.2.2.2.3.2h0c.1.2.3.3.5.4h0c.1.2.2.2.4.2h0c.1.2.3.3.6.3h0c.4.3.9.6,1.4.6h0c.4.3.9.3,1.4.3l.1.1.1-.1c.6.2,1.2.2,1.8,0h0c.5,0,1,.1,1.4-.3h0c.3,0,.6,0,.9-.3h0c.2,0,.5,0,.6-.3h0c.2,0,.5-.1.6-.3h0c.2,0,.4-.1.6-.3h0c.2,0,.3-.1.4-.2h0c.2-.1.4-.1.5-.4h0c.2,0,.3-.1.3-.3h0c.2,0,.3-.1.3-.3h0c.2,0,.3-.1.3-.3h0c.2,0,.3-.1.3-.3h0c.2,0,.3-.1.3-.3h0c.2,0,.3-.1.3-.3h0c.2,0,.3-.1.3-.3h0c.3-.2.5-.5.6-.8h0c.2,0,.3-.1.4-.3.8.1,1.5.1,2.3,0,.2.2.1.5.1.8h0c-.2.1-.3.3-.3.6h0c-.3.2-.5.5-.6.9h0c-.2.1-.2.2-.2.3h0c-.3.2-.5.5-.6.8h0c-.2,0-.3.2-.3.3h0c-.2,0-.3.1-.3.3h0c-.2,0-.3.1-.3.3h0c-.2,0-.3.1-.3.3h0c-.2,0-.3.1-.3.3h0c-.4.2-.8.5-1.1.9h0c-.4.1-.6.3-.9.6h0c-.2,0-.5.1-.6.3h0c-.2,0-.4.1-.6.3h0c-.2,0-.5,0-.6.3h0c-.3,0-.6.1-.9.3h0c-.4,0-.8,0-1.1-.3h-.3c-1.3.8-2.5.8-3.8,0h-.4l-.1,1h-.1s-.8-.8-1.2-.8h0c-.2-.3-.6-.3-.9-.3h0c-.1-.2-.4-.2-.6-.3h0c-.1-.2-.4-.3-.6-.3h0c-.1-.2-.3-.3-.6-.3h0c-.2-.3-.5-.5-.9-.6h0c-.1-.2-.2-.2-.3-.2h0c-.2-.3-.5-.5-.8-.6h0c0-.2-.1-.3-.3-.3h0c0-.2-.1-.3-.3-.3h0c0-.2-.1-.3-.3-.3h0c0-.2-.1-.3-.3-.3h0c0-.2-.1-.3-.3-.3h0c-.1-.3-.3-.6-.6-.8h0c0-.2-.1-.3-.2-.4h0c0-.2-.1-.4-.4-.5h0c-.1-.4-.2-.7-.5-.9h0c0-.2-.1-.5-.3-.6h0c0-.3-.1-.6-.4-.8h0c0-.2,0-.5-.2-.6h0c0-.3,0-.6-.3-.9h0c0-.4,0-.9-.9-1.2v-.1l.5-.1c-.1-.6-.1-1.3-.1-1.9,0-.1-.1-.2-.1-.2.2-.5.1-.9,0-1.4.3-.8.2-1.6.3-2.4h0c.3-.3.3-.7.3-1.1l.1-.1v-.1c.3-.3.3-.6.3-1h0c.2-.1.2-.4.2-.6h0c.3-.2.3-.5.4-.8h0c.2-.1.3-.4.3-.6h0c.3-.2.4-.5.5-.9h0c.2-.1.3-.3.4-.5h0c.2-.1.2-.2.2-.4h0c.4-.3.7-.7.9-1.1h0c.2,0,.3-.1.3-.3h0c.2,0,.3-.1.3-.3h0c.2,0,.3-.1.3-.3h0c.2,0,.3-.1.3-.3h0c.3-.1.6-.3.8-.6h0c.2,0,.3-.1.3-.2h0c.2,0,.4-.1.5-.4h0c.4-.1.7-.2.9-.5h0c.2,0,.5-.1.6-.3h0c.3-.1.6-.1.8-.4h0c.3,0,.6,0,.9-.3h0c.4,0,1.3-1.2,1.3-1.2h.1l.1,1h3.6l.1-.1.1-.1c.4.3.8.3,1.2.3h0c.2.3.6.3.9.3h0c.2.3.5.3.8.3h0c.1.2.4.3.6.3h0c.1.2.3.3.6.3h0c.1.2.2.2.4.2h0c.1.19.29.3.5.3h0c0,.2.2.2.3.2h0c.2.3.5.5.8.6h0c0,.2.1.3.3.3h0c0,.2.1.3.3.3h0c0,.2.1.3.3.3h0c0,.2.1.3.3.3h0c0,.2.1.3.3.3h0c.2.4.5.8.9,1.1h0c.1.4.3.6.6.9h0c0,.2.1.4.4.6h0v.1c-.1.3-.2.4-.3.4-.8,0-1.7.1-2.5-.1h0c-.1-.4-.3-.6-.6-.8h0c0-.2-.1-.3-.3-.3h0c0-.2-.1-.3-.3-.3h0c-.19-.39-.51-.71-.9-.9h0c0-.2-.2-.3-.3-.3h0c0-.2-.2-.2-.3-.3h0c-.2-.3-.5-.5-.9-.6h0c-.1-.2-.3-.3-.6-.3h0c-.1-.2-.4-.3-.6-.3h0c-.1-.2-.4-.3-.6-.2h0c-.3-.3-.7-.3-1.1-.3h0q-.1-.1-.2-.1c-1.2-.2-2.4-.2-3.7,0-.1,0-.2.1-.4.2h0c-.3,0-.6,0-.9.3h0c-.2,0-.5,0-.6.2h0c-.2,0-.5.1-.6.3h0c-.2,0-.4.1-.6.3h0c-.4.1-.6.3-.9.6h0c-.2,0-.3.1-.3.3h0c-.9.6-1.1.9-1.7,1.7h0c-.2.1-.2.2-.3.3h0c-.3.2-.5.5-.6.9h0c-.2.1-.3.3-.3.6h0c-.2.1-.3.3-.3.6h0c-.2.1-.3.4-.3.6h0c-.3.2-.3.5-.3.8h0c-.3.2-.3.6-.3.9-.3.4-.3.9-.3,1.4h0l-.1.1c-.2,1-.2,2,0,3q0,.3.1.4h-.1ZM292.09,249.6c.1-.1.1-.3,0-.4.1-.5.1-.9,0-1.4.1-.2.1-.4,0-.6.1-.2.1-.4,0-.6,0,0,0-.1-.1-.1l-.1.1c-.1.2-.1.4.4.6v.6c-.8.7-.8,1.5-.8,2.2h0c-.3.5-.3,1.1-.3,1.7l.1.1v.1s-.5,1.2-.5,1.8h0c-.3.5-.3,1.1-.3,1.7l-.2.1v.1s-.2,1.2-.2,1.8h0c-.3.5-.3,1.1-.3,1.7l-.5.1v.1c.2.1-.2.7-.2.7h-1.6s-.4-.6-.3-.8c0-.4.1-.8.1-1.2v-.1s0-.1,0-.1c.4-.5.4-1,.4-1.5l-.4-.1v-.1s.8-1,.8-1.5l.2-.1v-.1s.2-1,.2-1.5l.8-.1v-.1s-.4-1-.4-1.5l.4-.1v-1.8c.3-.5,1-1.6,1-1.6v-.2c-.4-.5-.4-1-.4-1.6h0c.3-.5.3-1.1.3-1.7h0c.1-.2.2-.4.2-.6,0-.4-.1-1.1-.1-1.1v.5c1.27-.2,2.54-.1,3.9,0h.1v-.1l.1,2.93.1,3.43c0,.3,0,.61.2.81-.1.2-.1.5,0,.71-.1.81,0,1.51,0,2.22-.1.3-.1.61,0,.91,0,0,0,.1.1.1h.41s.4-1.1.4-1.5h0c.2-.2.3-.5.3-.8h0c.3-.4.5-.9.6-1.4h0c.3-.2.3-.5.3-.8h0c.2-.1.2-.4.2-.6h0c.3-.2.3-.5.3-.8h0c.2-.1.2-.4.2-.6h0c.3-.2.3-.5.3-.8h0c.2-.1.3-.4.2-.6h0c.3-.2.3-.5.3-.8h0c.2-.1.3-.4.2-.6h0c.2-.2.3-.5.3-.8h0c.3-.4.5-.9.6-1.4h0c1.1-.1,2.3-.1,3.4-.1.2,0,.5.1.5.1h0v.4c-.1.5,1,1.6,1,1.6v.2c-1.4.5-1.4,1-1.4,1.6h0c-.3.5-.3,1.1-.3,1.7h0c-.3.5-.3,1.1-.3,1.7h0c-.3.5-.3,1.1-.3,1.7h0c-.3.5-.3,1.1-.3,1.7h0c-.3.5-.3,1.1-.3,1.7h0c-.3.5-.3,1.1-.3,1.7h0c-.3.5-.3,1.1-.3,1.7h0c-.1.1-.1.2-.2.4,0,.2,0,.5-.1.7,0,.1-.1.3-.2.3-.7.1-1.4.1-2,0-.1,0-.2-.2-.2-.3,0-.3,0-.6.1-1h0c.3-.4.3-.9.3-1.4h0c.3-.4.3-.9.3-1.4h0c.3-.4.3-.9.3-1.4h0c.3-.4.3-.9.3-1.4l-.1-.1v-.1c.5-.5.5-1,.5-1.5h0c.1-.1.2-.3.2-.5.1-.3.1-.6.1-.9.11-.11.17-.25.2-.4,0-.3.1-.6.1-.9.2-.3.2-.6.2-.9.2-.3.3-.6.2-.9l-.1-.5h-.1s-.4.8-.3,1.1l-.3.8c-.1.3-.3.5-.3.9-.2.3-.4.7-.4,1.1h0c-.3.2-.3.5-.3.8h0c-.2.1-.2.4-.2.6h0c-.3.2-.3.5-.3.8h0c-.2.1-.2.4-.2.6h0c-.3.2-.3.5-.3.8h0c-.3.2-.3.5-.3.8h0c-.2.1-.2.4-.2.6h0c-.3.2-.3.5-.3.8h0c-.2.1-.3.4-.2.6h0c-.3.2-.3.5-.3.8h0c-.3.2-.3.5-.3.8h0c-.2.1-.2.4-.2.6h0c-.3.2-.3.5-.3.8h0c-.2,0-.2.2-.3-.3h-2c-.5.6-.6.5-.6.1s0-.8-.2-1.2c.1-.2.1-.5,0-.7,0-.1.1-.2.1-.3l-.2-6.5c-.4-.3-.5-.6-.6-.8h0ZM18.29,248.1l-1.1,6.9-1.9,3.9v.3s1.1.4.9.8h-1.8c-.1-.4-.3-.6-.3-.8l.6-3.9,1-6.1.6-1.6v-.6h0c0-.5,0-1.1,0-1.7h0c.3-.5.3-1.1.3-1.7h0c.1-.1.1-.2.2-.4.1-.3.5-1.2.5-1.2h1.7s1.8.4,1.9,2.4c0,.4,0,.7.1,1.1,0,.1.1.3.1.4-.1.2-.1.5,0,.7,0,.1-.1.2-.1.3l.2,6.2c0,.1,0,.3.1.4l.1.1c.1,0,.2-.1.2-.1,0-.1,0-.3.1-.4h0c.3-.2.3-.5.3-.8h0c.2-.1.2-.4.2-.6h0c.3-.2.3-.5.3-.8h0c.2-.1.3-.4.2-.6h0c.3-.2.3-.5.3-.8h0c.2-.1.3-.4.2-.6h0c.2-.2.3-.5.3-.8h0c.3-.4.5-.9.6-1.4h0c.3-.2.3-.5.3-.8h0c.2-.1.2-.4.2-.6h0c.3-.2.3-.5.3-.8h0c.2-.1.2-.4.2-.6h0c.3-.2.3-.5.3-.8h0c.2-.1.3-.3.6-.1h3.3c.1-.2.2-.1,0,.1v1c-.1.5,1,1.6,1,1.6v.2c-1.4.5-1.4,1-1.4,1.6h0c-.3.5-.3,1.1-.3,1.7h0c-.3.5-.3,1.1-.3,1.7h0c-.3.5-.3,1.1-.3,1.7h0c-.3.5-.3,1.1-.3,1.7h0c-.3.5-.3,1.1-.3,1.7h0c-.3.5-.3,1.1-.3,1.7h0c-.3.5-.3,1.1-.3,1.7h0c0,.1-.1.1-.2.2-.1.2-.2.3-.4.3-.7-.1-1.4.2-2-.2,0-.6.2-1.3.3-1.9l1.2-6.5.3-1.9c.3-.3.2-.7.3-1.1.2-.4.3-.8,0-1.2v-.1c.1,0,0,.1,0,.1-.1.2-.2.4-.2.6-.1.2-.2.4-.2.6s-.1.3-.1.5l-1.7,4.3-2.2,5.9-.3.8c0,.1-.1.2-.2.2h-2.2c-.1,0-.2-.1.1-.3v-.8l-.6-9.4c.1-.8.6-2.5.6-2.5v-.3l-.7-.1-.3.1v.3s0,.5,0,.8c0-.3-.1,0,0,.3h0ZM217.58,194.9c.2,0,.39.1.49.1h11.41s.4-.4.5-.4c.1.1.2.2.3.4v1.9c-.1.1-.2.2-.3.1h-10.3c-.1.1-.1.2-.2.3,0,.1-.2.4-.2.4v8.5s.2.2.2.4c.1.1.1.2.2.4h9.2c.3-.2.6-.2.8-.1.1,0,.2.1.6.2v1.7c-.4.3-.6.5-.8.6-.1,0-.4.6-.4.6h-9.49l-.31.27c-.1.09,0,.27,0,.36v7.64c0,.18.1.36.1.45.1.09.1.18.1.18.31,0,.62.09,1.03.09h9.56c.1,0,.21.09.21.18v2.52c0,.1-.2.3-.3.3h-12.7.1c-.2-.5-.1-1-.1-1.51v-25.09c.2,0,.3-.3.3-.5h0Z"/>
    <path class="cls-1" d="M112.42,247.53c.11.09.22.09.32,0,.32.18.65.28.97.18.54.18,1.19.09,1.73,0,.22.09.32.28.43.55,0,.46.11.83.11,1.28,0,.18.11.37.22.64l-.11.09.11.09c-.11.92,0,1.74.22,2.66,0,.09.11.18.11.18l-.11.09.11.09c-.11.28,0,.55,0,.73-.11.18-.11.37,0,.55,0,0,0,.09.11.09,0,0,.11,0,.11-.09.22-.28.43-.55.32-.92q.11-.09.11-.18h0c.22-.09.22-.37.22-.55h0c.22-.18.32-.46.32-.73h0c.32-.18.32-.46.32-.73h0c.22-.09.22-.37.22-.55h0c.22-.18.32-.46.32-.73h0c.32-.18.32-.46.32-.73h0c.22-.09.22-.37.22-.55h0c.22-.18.32-.46.32-.73h0c.11-.18.32-.37.43-.55.76.09,1.41.09,2.16,0,.22.18.32.28.32.55,0,.46,0,.83.11,1.28l.11,2.94c0,.28,0,.55.22.73-.11.09-.11.28,0,.37-.11.28-.11.55,0,.83,0,0,0,.09.11.09s.22-.09.22-.09c.22-.37.43-.64.43-1.01h0c.22-.09.22-.37.22-.55h0c.22-.18.32-.46.32-.73h0c.32-.18.32-.46.32-.73h0c.32-.37.54-.83.54-1.28h0c.32-.18.32-.46.32-.73h0c.32-.18.32-.46.32-.83h0c.22-.09.22-.37.22-.55h0c.11-.09.22-.18.43-.28.76.09,1.51.09,2.16,0,.2.09.33.27.32.46h0c-.32.37-.54.83-.65,1.28h0c-.32.37-.54.83-.65,1.28h0c-.22.09-.32.37-.22.55h0c-.22.18-.32.46-.32.73h0c-.22.09-.32.37-.22.55h0c-.22.18-.32.46-.32.73h0c-.22.09-.32.37-.22.55h0c-.32.18-.32.46-.32.73h0c-.22.09-.32.37-.22.55h0c-.32.18-.32.46-.32.73h0c-.22.09-.32.37-.22.55h0c-.32.18-.32.46-.32.73h0c-.22.09-.32.37-.22.55h0c-.32.18-.32.46-.32.73h0c-.22.09-.32.28-.32.55h-3.79.1c-.1.2-.1-.2-.2-.5,0-.3,0-.5-.2-.8.1-.1.1-.3,0-.4.1-1.3,0-2.5-.2-3.8,0-.1-.1-.2-.1-.2l.1-.1-.3-.1v-.5c.2-.1.1-.1,0-.2l-.1.1c-.1.4-.4.7-.4,1.1h0c-.3.2-.3.5-.3.8h0c-.2.1-.2.4-.2.6h0c-.3.2-.3.5-.3.8h0c-.2.1-.3.4-.2.6h0c-.2.2-.3.5-.3.8h0c-.3.2-.3.5-.3.8h0c-.2.1-.2.4-.2.6h0c-.1.1-.2.1-.2.2-.1.5-.5.6-.9.2h-1.7l-.3-.5.1-.1-.1-.1c.1-.8,0-1.6-.2-2.4,0-.1-.1-.2-.1-.2l.1-.1-.1-.1c.1-.8,0-1.6-.2-2.4,0-.1-.1-.2-.1-.2l.1-.1-.1-.1c.1-.8,0-1.5-.2-2.3,0-.1-.1-.2-.1-.2h0c.1-.4.1-.8-.2-1.2-.1.1-.2.2-.2.4-.2.4-.3.6-.8.5-.2-.1-.5,0-.8.1-.1,0-.2.1-.3.2h0c-.2,0-.3.1-.3.2h0c-.2,0-.3.1-.3.3h0c-.2,0-.3.1-.3.3h0c-.5.5-.8,1-.8,1.7h0c-.3.3-.3.7-.3,1.1l-.4.1v.1c0,.5,0,1,0,1.5h0c-.3.5-.3.9-.2,1.4l-.1.1.1.1c-.3.5-.3,1-.3,1.5l-.1.1.1.1-.3.2h-1.9c-.1.4-.3.4-.4.3-.1,0-.2-.1-.9-.2v-1.1h0c1-.5,1-1,.9-1.5l.1-.1v-.34c.32-.46.32-.92.22-1.38l.11-.09-.11-.09c.32-.46.32-.92.22-1.38l.11-.09-.11-.09c.32-.46.32-.92.32-1.38l.11-.09-.11-.09c.32-.46.32-.92.32-1.38l.11-.09-.11-.09c.32-.46.32-.92.32-1.38l.11-.09-.11-.09c.22-.18.22-.46.22-.64.43,0,.86-.09,1.3-.09q1.19,0,1.08.92v.46l.11.09h.11c.11-.09.22-.28.32-.46.43-.37.86-.83,1.41-1.19h0c.54.37.86.37,1.19.18h0ZM423.59,194.6c.6.1,1.3.1,2,0,.2.2.2.5.1.8h0c-.2.1-.3.3-.3.6h0c-.2.1-.3.3-.3.6h0c-.4.4-.5.9-.6,1.4h0c-.2.1-.3.4-.3.6h0c-.2.1-.3.4-.3.6h0c-.2.1-.3.4-.3.6h0c-.2.1-.3.4-.3.6h0c-.2.1-.3.4-.3.6h0c-.2.1-.3.3-.3.6h0c-.2.1-.3.3-.3.6h0c-.4.6-.7,1.2-.9,1.9h0c-.2.1-.3.4-.3.6h0c-.2.1-.3.4-.3.6h0c-.2.1-.3.4-.3.6h0c-.2.1-.3.4-.3.6h0c-.2.1-.3.4-.3.6h0c-.2.1-.3.3-.3.6h0c-.2.1-.3.3-.3.6h0c-.4.4-.5.9-.6,1.4h0c-.2.1-.3.4-.3.6h0c-.2.1-.3.4-.3.6h0c-.2.1-.3.4-.3.6h0c-.2.1-.3.4-.3.6h0c-.2.1-.3.4-.3.6h0c-.2.1-.3.3-.3.6h0c-.1.1-.2.1-.7.2v8.7c.5.2.4.2.2.8h-.3c-2-.5-1.8-.2-1.9-2.2v-6.6c.1-.2.1-.5,0-.7h0c0-.3-.1-.6-.3-.8h0c0-.2,0-.4-.3-.6h0c0-.2,0-.4-.3-.6h0c0-.2,0-.5-.3-.6h0c0-.2,0-.5-.3-.6h0c0-.2-.1-.5-.3-.6h0c-.1-.5-.3-1-.6-1.4h0c0-.2-.1-.4-.3-.6h0c0-.2,0-.4-.3-.6h0c0-.2,0-.5-.3-.6h0c0-.2,0-.5-.3-.6h0c0-.2,0-.5-.3-.6h0c0-.2-.1-.5-.3-.6h0c-.1-.5-.3-1-.6-1.4h0c0-.2-.1-.4-.3-.6h0c0-.2,0-.4-.3-.6h0c0-.2,0-.5-.3-.6h0c0-.2,0-.5-.3-.6,0-.2,0-.5-.3-.6h0c0-.2-.1-.5-.3-.6h0c-.1-.5-.3-1-.6-1.4h0c0-.2-.1-.4-.3-.6h0c0-.2,0-.4-.3-.6h0c0-.2,0-.5-.3-.6h0c0-.2,0-.5-.3-.6h0c0-.2,0-.5-.3-.6h0c0-.3-.1-.5.1-.8.7.1,1.5.1,2.2,0,.1.2.2.3.4.3h0c0,.2.1.5.3.6h0c0,.3.1.6.4.8h0c0,.2,0,.4.3.6h0c0,.2,0,.5.3.6h0c0,.2,0,.5.3.6h0c0,.2,0,.5.3.6h0c.1.5.3,1,.6,1.4h0c0,.2,0,.4.3.6h0c0,.2,0,.5.3.6h0c0,.2,0,.5.3.6h0c0,.2.1.5.3.6h0c0,.3.1.6.4.8h0c0,.2,0,.4.3.6h0c0,.2,0,.5.3.6h0c0,.2,0,.5.3.6h0c0,.2,0,.5.3.6h0c.1.5.3,1,.6,1.4h0c0,.2,0,.4.3.6h0c0,.2,0,.5.3.6h0c0,.2,0,.5.3.6h0c0,.2.1.5.3.6h0c0,.1,0,.3.1.4.1.2.2.3.4.1.1-.1.1-.3.2-.5h0c.2-.1.3-.3.3-.6h0c.4-.4.5-.9.6-1.4h0c.2-.1.3-.4.3-.6h0c.2-.1.3-.4.3-.6h0c.2-.1.3-.4.3-.6h0c.2-.1.3-.4.3-.6h0c.2-.1.3-.3.3-.6h0c.2-.1.3-.3.3-.6h0c.4-.6.7-1.2.9-1.9h0c.2-.1.3-.4.3-.6h0c.2-.1.3-.4.3-.6h0c.2-.1.3-.4.3-.6h0c.2-.1.3-.4.3-.6h0c.2-.1.3-.3.3-.6h0c.4-.6.7-1.2.9-1.9h0c.2-.1.3-.4.3-.6h0c.2-.1.3-.4.3-.6h0c.2-.1.3-.4.3-.6h0c.1-.2.3-.4.6-.6h0ZM411.29,253.1h0v.1c0,.5,0,1,0,1.6l1,.1v.1s-1.4,1.2-1.4,1.8h0c-.3.5-.3,1.1-.3,1.7h0c-.3.4-.3.9-.3,1.4v.1s0,.1,0,.1c-.4.4-.4.8-.4,1.2-.3.2-.3.5-.3.9h0c-.2.1-.3.4-.3.6h0c-.2.1-.2.2-.2.4h0c-.3.3-.6.6-.9.8h0c-.4.1-.9.3-1.2,0h-.1l-.1,1h-3.89c-.2-.2-.49-.29-.88-.29h0l-1.17-1.07h0c0-.2-.1-.49-.29-.59h0c0-.49-.1-.98-.29-1.46,0-.1.1-.2.1-.2,0,0,0-.1-.1-.1.2-.39.49-.29.78-.39l.1.1h.1c.49.29.98.29,1.46.29h0c.2.1.39.2.59.39v-.38l.6.1c0,.3,0,.5.2.6h0c0,.2.1.3.3.3h0c.5.4,1,.3,1.5,0h0c.2,0,.5,0,.6-.3h0c.2,0,.3-.1.3-.3h0c.3-.1.3-.3.3-.6h0c.3-.3.3-.7.3-1.1h0c.2-.3.2-.7-.1-1h0s.1,0,.1,0c-.2,0-.5.2-.6.4h0c-.2,0-.4.1-.6.3h0c-.3,0-.9-.7-.9-.7h-.8l-.1,1h-.1c-.3-.3-.6-.4-.9-.4h0c-.1-.2-.2-.2-.4-.2h0c-.3-.3-.5-.6-.8-.9h0c0-.2-.1-.4-.3-.6h0c0-.2,0-.5-.2-.6h0c-.1-.7-.1-1.4-.3-2,.1-.4.1-.8,0-1.1,0-.1.1-.1.1-.2.1-.6.1-1.2.2-1.9h0c.22-.25.29-.59.2-.9h0c.2-.2.3-.5.3-.8h0c.2-.1.3-.4.3-.6h0c.2-.1.3-.3.3-.6h0c.2-.1.2-.2.2-.4h0c.3-.2.6-.5.9-.9h0c.2,0,.3-.1.4-.2h0c.2,0,.4-.1.6-.3h0c.4-.1.8-.1,1.2-.3.1.1.2.1.4,0l1.5.6h0l.9.9h0c0,.2.2.4.3.6,0,0,.1,0,.1.1.1,0,.2,0,0-.1v-.8h0c.3-.3.5-.6.6-.9.7.1,1.3.1,2,0,.1.2.2.3.4.5h0c-.3.5-.3,1.1-.3,1.7l-.7.1v.1s.3,1.2,0,1.8h0v1.4h0ZM408.89,252.5c0-.4,0-.8-.1-1.1-.1-.6-.3-1.1-.7-1.5-.6-.6-1.5-.6-2-.1-.3.2-.5.5-.7.9-.7,1.4-1,2.9-.8,4.5,0,.4.2.8.4,1.2.4.7,1.2.9,1.9.5.5-.3.9-.7,1.1-1.2.7-1.1.9-2.1.9-3.2h0ZM75.5,247.6c.63.1,1.26.1,1.89,0,.32.2.32.5.32.8h0c-.32.5-.32,1.1-.32,1.7l-.11.1v-.2c-.3.5-.3,1-.3,1.6l-.1.1.1.1c-.3.6-.3,1.2-.3,1.8h0c-.3.5-.3,1.1-.3,1.7l-.1.1v-.26c-.32.65-.32,1.29-.32,1.94h0c-.32.54-.32,1.19-.32,1.83h0c-.32.43-.32.97-.32,1.51h0c-.32.32-.32.75-.32,1.19h0c-.32.22-.32.54-.32.97h0c-.22.11-.32.43-.32.65h0l-1.19,1.29h0c-.43.11-.86.22-1.29.54h0c-1.29.11-2.59.11-3.88,0h0c-.22-.22-.54-.32-.86-.32h0c-.11-.22-.22-.22-.43-.22h0c-.32-.32-.54-.65-.86-.97h0c0-.22-.11-.54-.32-.65h0c-.11-.43-.11-.86-.22-1.29v-.81s.8-.2,1.1-.8h1.1c.5.5,1,.5,1.5.5h0l.3.3h0v.4c.3.2.4.4.6.4h0c0,.2.1.3.3.3h0l.1.1c.5.2,1.1.3,1.6-.1h0c.2,0,.3,0,.4-.2h0c.2,0,.3-.1.3-.3h0c.2-.1.3-.3.3-.6h0c.3-.3.2-.6.2-.9l.2-.1v-.1c.1-.3.1-.7.1-1,0-.1-.1-.2-.1.3h-.2c-.2-.4-.3-.2-.5,0h0c-.2,0-.4.1-.6.3h0c-.3,0-.9-.3-.9-.3h-.8l-.1,1h-.25c-.31-.2-.61-.31-.92-.31h0c-.1-.2-.2-.2-.31-.2h0c0-.2-.1-.2-.31-.31h0c0-.2-.1-.31-.31-.31h0c0-.2-.1-.31-.2-.31h0c0-.2-.1-.41-.31-.61h0c0-.31-.1-.61-.31-.92h0c-.2-1.56-.2-3.13,0-4.69v-.1h0c.31-.31.31-.71.31-1.12h0c.31-.2.31-.51.31-.81h0c.2-.1.31-.41.31-.61h0c.31-.2.51-.51.61-.92h0c.2,0,.2-.2.31-.31h0c.2,0,.31-.1.31-.31h0c.2,0,.31-.1.31-.31h0c.31-.1.61-.31.92-.61h0c.41-.1.81-.1,1.22-.31.1.1.2.1.31,0l1.22.31h0c.1.2.2.2.41.2h0l1.22,1.53h.15l.11-.1v-.5h0c.11-.2.21-.3.21-.5-.42,0-.32-.2,0-.3h0ZM69.79,254.3c0,.1,0,.5.1.8.1.5.3,1,.6,1.4.4.5,1.1.6,1.6.4s1-.7,1.3-1.3c.7-1.4.9-2.8.7-4.3-.1-.5-.3-1-.7-1.4-.5-.6-1.4-.6-2-.1-.3.2-.5.5-.7.9-.6,1-.9,2.1-.9,3.6Z"/>
    <path class="cls-1" d="M196.29,246.4h0v.2c.1.3.1.6,0,.8v.1l1,.1v.48c.19.37.56.75,1.03.84h0c.09.19.28.28.47.37h0c.09.19.19.19.37.19h0c.09.19.28.28.56.28h0c.09.19.28.28.56.28h0c.09.19.28.28.56.28h0c.19.28.47.47.84.56h0c.09.19.19.19.28.28h0c0,.19.09.19.28.28h0c0,.19.09.28.28.28h0c0,.19.09.28.19.28h0c0,.19.09.37.28.56h0c0,.28.09.56.28.84v2.88s-.61.64-.6,1h0c-.2.1-.3.4-.3.6h0c-.3.2-.5.5-.6.8h0c-.2,0-.3.1-.3.3h0c-.2,0-.3.1-.3.3h0c-.3.1-.6.3-.9.6h0c-.3,0-.6.1-.8.4h0c-.4,0-.8,0-1.2-.3h-.1l-.1,1h-1.4c-.4-.5-.9-.6-1.4-.6h0c-.1-.2-.4-.2-.6-.3h0c-.1-.2-.3-.3-.6-.3h0c-.1-.2-.2-.2-.3-.2h0c-.2-.3-.5-.6-.8-.9h0c-.1-.4-.3-.8-.6-1.1h0c0-.4-.1-1.1-.1-1.1h0v-1.2c-.2-.2,0-.4.1-.4.6,0,1.3-.1,1.9-.1.2,0,.3.1.5.2-.1.1-.1.3,0,.4,0,.4-.1.8.2,1.2h0c.1.5.4.8.9.9h0c.3.4.7.3,1.2.3.2.1.4.1.6,0,.4.1.8.1,1.2-.3h0c.5-.1.8-.4.9-.9h0s.1,0,.1-.1c.2-.5.2-1,0-1.6l-.1-.1h0c0-.2-.1-.3-.3-.3h0c0-.2-.1-.3-.3-.3h0c-.1-.2-.3-.3-.5-.4h0c-.1-.2-.2-.2-.4-.2h0c-.1-.2-.3-.3-.6-.3h0c-.1-.2-.3-.3-.6-.3h0c-.1-.2-.3-.3-.6-.3h0c-.2-.3-.5-.5-.9-.5h0l-1.4-1.4h0c0-.2-.1-.4-.3-.6h0c0-.3,0-.5.4-.7v-.1l-.7-.1.1-2.8h0c.2-.2.3-.6.3-.9h0c.2-.1.3-.4.3-.6h0c.2-.1.2-.2.2-.4h0c.3-.2.6-.5.9-.9h0c.2,0,.3-.1.4-.2h0c.2,0,.4-.1.6-.3h0c.3-.1.7-.1,1-1.2h.1l.1,1h2.2l.1-1h.1s.6,1.2.9,1.2h0c.1.2.4.3.6.3h0c.2.3.5.5.8.6h0c0,.2.1.3.3.3h0c.1.3.3.6.6.8h0c0,.2.1.4.3.6h0c0,.3,0,.6-.2.9h0v1.1c.5.1.4.3.3.3-.4.1-.9,0-1.4.2-.1-.1-.3-.1-.4-.3h-.5l-.3-.3h0c0-.3,0-.6-.3-.9h0c-.1-.5-.4-.8-.9-.8h0l-.2-.2c-.6-.2-1.3-.2-1.9,0-.1,0-.1.1-.2.2h0c-.6-.4-.8-.1-.9.4h-.3ZM201.29,194.6c.2,0,.7-.6.7-.6h11.5s.4.6.7.6c.2.1.4.3.1.6v1.7c.3.1.1.2,0,.2-.2.1-.7-.1-.7-.1h-3.8s-.4.1-.6.2c-.1,0-.2.1-.2.2,0,.4-.1.8-.7,1.2v21.4c.6.6.7,1.1.5,2h.1-1.9c-.2-.3-.7-.7-.7-.7v-23.6c.3-.2.1-.4-.2-.7h-4c-.4.3-.7.3-1.8.2v.1-2.2h0c.7-.3.8-.4,1-.5h0ZM339.39,195c0,.3-.1.6-.1.8v22.3c0,.3,0,.6.1.8,0,.1.1.2.1.2.3,0,.5.1.8-.1h7.5c1.6.2,1.4.1,1.5,1.6v.6c-.1.1-.1.2-.2.3,0,.1-.1.2-.2.2-.3,0-.8.3-.8.3h-11.3c-.2-.7-.1-1.2-.5-1.7v-25c.4-.2.5-.4.6-.7.6.1,1.3.1,1.9,0l.6.4h0ZM154.29,246.7h0v.1c.3.5.3,1,.3,1.5h0c-.3.5-.3,1.1-.3,1.7h0c-.3.4-.3.9-.3,1.4l-.1.1.1.1c-.3.5-.3,1-.3,1.5l-.4.1v.1c-.3.5-.3,1-.3,1.5h0c-.3.5-.3,1.1-.3,1.7h0c-.3.5-.3,1-.3,1.5l-.1.1v.1s.1.5.1.8c-.1.5-.1.7-.8,0h-1.5c-.2.7-.2.6-.8.4v-.4c.6-.2.4-.2.3-.1l-.6.6h0c-.2,0-.4.1-.6.3h0c-.3,0-.9.2-.9.2h.09-1.15c-.21-.2-.63-.3-.94-.3h0c-.1-.2-.31-.3-.52-.4h0c0-.2-.1-.3-.31-.3h0c0-.2-.1-.3-.31-.3h0c-.1-.2-.1-.4-.42-.49h0c0-.2-.1-.4-.31-.59h0c0-.3,0-.59-.31-.89h0c-.1-1.19-.1-2.47,0-3.76v-.4h0c.31-.3.31-.69.31-1.09h0c.21-.2.31-.49.31-.79h0c.21-.1.31-.4.31-.59h0c.21-.1.31-.3.31-.59h0c.2-.09.32-.29.31-.49h0c.21-.1.21-.2.21-.3h0l1.26-1.09h0c.21,0,.42-.1.63-.3h0c.43-.1.86-.1,1.29-.31.16.12.45.12.64.05.3.17.6.17,1,.27h0c.1.2.31.3.63.3h0c0,.2.21.2.31.3,0,.2.1.3.31.3h0c.1.2.21.3.31.49,0,.1.1.1.21.1l.1-.1c0-.2,0-.49.1-.69h0c.31-.4.31-.89.31-1.38l.1-.1v-.1c.31-.49.31-.99.31-1.48h0c.31-.49.31-1.09.31-1.68h0c.21-.1.31-.3.63-.3h1.44s.4,0,.3.3v.4h0c-.2.5-.2,1.1-.2,1.7h0c-.2.3-.2.8-.2,1.3h-.6ZM151.29,252.4v-.7c-.09-.68-.41-1.32-.9-1.8-.5-.4-1-.4-1.6-.2-.4.2-.8.5-1,.9-.8,1.5-1.1,3.1-.9,4.7.1.6.3,1.2.8,1.6s1,.5,1.6.2c.54-.26,1-.68,1.3-1.2.4-1,.7-2.1.7-3.5h0ZM172.29,256.2h0v-.1c.3-.5.3-1,.3-1.5l.7-.1v-.1c-.3-.5-.3-1.4-.3-1.4h-.7v-.3c1.1-.6,1-1.8,1-1.8v.1c.11-.5-.11-.8-.53-1s-.95-.2-1.37.1h0c-.63.2-.95.6-1.16,1.1h0c-.21.1-.21.2-.21.4h0c-.32.2-.42.5-.42.8h0c-.32.2-.32.6-.21.9l-.11.1v.1c-.32.5-.32,1-.32,1.5h0c-.32.5-.32,1.1-.32,1.7h0c-.32.5-.32,1.1-.32,1.7h0c-.32.4-.21.8-.32,1.2-.11.2-.21.4-.53.4h-1.81c0-.6-.1-.7-.1-.9l.7-.1v-.1c-.3-.5-.3-1-.3-1.5l.3-.1v-.1s.1-1,.1-1.2h.9v-.5c-.5-.5-.5-1-.5-1.5h0c.3-.5.3-1.1.3-1.7h0c.3-.5.3-1.1.3-1.7h0c.3-.5.3-1.1.3-1.7h0c.3-.5.3-1.1.3-1.7h0c.3-.5.3-1.1.3-1.7h0c.3-.5.3-1.1.3-1.7h0c.2-.2.2-.6.3-.9.1-.1.3.1.3.1h.9s1.4-.5.2,1v.4l1,.1v.1s-.4,1-.4,1.6l.4.1v.3c-.09.2-.19.3-.19.5-.09.2-.09.5-.09.8-.2.25-.27.59-.19.9,0,.1.09.1.19.1.19-.1.28-.1.37-.4l.28-.3h0c.56-.3,1.21-.6,1.86-.8l.09-.1c.19.1.37.1.56,0l1.4.6h0c0,.2.09.3.28.3h0c.09.2.09.4.37.5h0c0,.2,0,.5.19.6h0c.09.9,0,1.8,0,2.8h0c-.28.5-.28,1.1-.28,1.7h0c-.28.5-.28,1.1-.28,1.7h0c-.28.5-.28,1.1-.28,1.7h0c-.28.5-.28,1-.19,1.4l-.09.1v.1c-.09.2-.09.3-.19.5s-.09.5-.09.7h-2.32c-.1-.2-.4-.4-.3-.6,0-.4.1-.8.1-1.2l-.2-.1v-.1c0-.8,0-1.3,0-1.8h0ZM85.29,255.6h0v.2c.7.5.7,1,.7,1.5l.3.1v.1s-.7,1-.7,1.5l-.3.1v.1c0,.1-.4.8-.4.8h-1.9s-.3-.6-.3-.8c0-.4.1-.8.1-1.2l.1-.1-.1-.1c.3-.5.3-1,.3-1.5l.1-.1-.1-.1c.3-.5.3-1,.3-1.5l.1-.1-.1-.1c.3-.5.3-1,.3-1.5l-.4-.1v-.1c.8-.5.8-1,.8-1.5l.2-.1v-.1s.2-1,.2-1.6l.8-.1v-.1s-.4-1-.4-1.6l.4-.1v-.1s0-1,0-1.6h0c.3-.5.3-1.1.3-1.7h0c.2-.2.2-.4.2-.6.1-.4.1-.7.1-1.1l-.1.1c.4,0,.8-.1,1.2-.5h7.5c.7.4-.2,1.1-.2,1.1v.4h0c.8.2.7.3.7.5-.1.4-.1.8.3,1.2v-.1c-.9.1-1.3.1-1.7-.1h-4.6c-.2.2-.5.2-.7.3-.1,0-.1.1-.1.2h0c-.1.1-.2.2-.2.3-.1.4-.1.9-.1,1.3h0c-.1.1-.2.2-.2.4-.1.5-.1.9-.2,1.4,0,.1.2.1.2.1h5.5c.5.2.7.2.6.8-.1.3,0,.6-.1,1l-.1.1.1.1q-.1.1-.1.2c0,.1,0,.2-.1.3-.1.5-.2.5-.7.5h-5.7c-.1,0-.1.1-.2.2h0c-.1.1-.2.1-.2.2-.1.4-.2.8-.1,1.2l-.3.1v.1c0,.8,0,1.3,0,1.8h-1ZM30.29,253h0v-.2c.29-.5.29-1,.29-1.5h0c.29-.2.29-.6.29-.9h0c.2-.1.29-.4.29-.6h0c.2-.1.29-.3.29-.6h0c.29-.2.49-.5.59-.8h0c.2,0,.29-.1.29-.3h0c.2,0,.29-.1.29-.3h0c.29-.1.59-.3.78-.6h0c.2,0,.49-.1.59-.3h0c.49-.1.98-.1,1.47-.3.29.1.59.1.78,0,.39.2.78.2,1.18.3h0c.29.3.69.5,1.08.6h0c0,.2.2.2.29.3h0c0,.2.1.3.29.3h0c0,.2.1.3.29.3h0c0,.21.11.4.29.5h0c0,.2.1.4.29.6h0c0,.3,0,.6.29.9h0c.1,1.2.2,2.5,0,3.8v.4h0c-.21.25-.29.59-.2.9h0c-.2.2-.29.5-.29.8h0c-.2.1-.29.4-.29.6h0c-.29.2-.49.5-.59.9h0c-.2,0-.2.2-.29.3h0c-.2,0-.29.1-.29.3h0c-.2,0-.29.1-.29.3h0c-.2,0-.29.1-.29.3h0c-.2,0-.39.1-.49.4h0c-.2,0-.49.1-.59.3h0c-.39,0-.78,0-1.08.3h-1.37c-.29-.2-.78-.2-1.08-.3h0c-.1-.2-.29-.3-.59-.3h0c-.49-.5-.98-.9-1.37-1.4h0c0-.2,0-.3-.2-.4h0c-.1-.3-.1-.6-.39-.8h0c0-.4,0-.8-.29-1.1h0v-2.7h0ZM32.49,254.4c0,.1,0,.4.1.8,0,.4.2.8.5,1.2.7.9,1.8,1.1,2.7.4.3-.2.5-.5.7-.9.8-1.4,1.1-2.9.9-4.4,0-.4-.2-.8-.5-1.2-.5-.7-1.3-.9-2.1-.7-.6.2-1,.6-1.3,1.2-.7,1-1,2.1-1,3.6ZM266.29,253h0v-.2c.29-.5.29-1,.29-1.5h0c.29-.2.29-.6.29-.9h0c.19-.1.29-.4.29-.6h0c.19-.1.29-.3.29-.6h0c.29-.2.49-.5.58-.8h0c.19,0,.29-.1.29-.3h0c.19,0,.29-.1.29-.3h0c.29-.1.58-.3.87-.6h0c.19,0,.49-.1.58-.3h0c.49-.1.97-.1,1.46-.3.29.1.58.1.78,0,.39.2.78.2,1.17.3h0c.29.3.68.5,1.07.6h0c0,.2.19.2.29.3h0c0,.2.1.3.29.3h0c0,.2.1.3.29.3h0c0,.21.11.4.29.5h0c0,.2.1.4.29.6h0c0,.3,0,.6.29.9h0c.1,1.2.19,2.5,0,3.8v.4h0c-.21.25-.28.59-.19.9h0c-.19.2-.29.5-.29.8h0c-.19.1-.29.4-.29.6h0c-.29.2-.49.5-.58.9h0c-.19,0-.19.2-.29.3h0c-.19,0-.29.1-.29.3h0c-.19,0-.29.1-.29.3h0c-.19,0-.29.1-.29.3h0c-.19,0-.39.1-.49.4h0c-.19,0-.49.1-.58.3h0c-.39,0-.78,0-1.07.3h-1.36c-.29-.2-.78-.2-1.07-.3h0c-.1-.2-.39-.3-.58-.3h0c-.49-.5-.97-.9-1.36-1.4h0c0-.2,0-.3-.19-.4h0c-.1-.3-.1-.6-.39-.8h0c0-.4,0-.8-.29-1.1h0c-.1-1-.1-1.8-.1-2.7h0ZM273.29,252.3v-.7c0-.5-.2-.9-.5-1.3-.4-.6-1.3-1.1-2.2-.7-.54.26-1,.68-1.3,1.2-.8,1.4-1,2.9-.8,4.5,0,.4.2.7.4,1,.7,1,1.8,1.2,2.8.4.4-.3.6-.7.8-1.1.6-1,.8-2.1.8-3.3h0ZM104.29,254h0v.2c-.1.4-.1.8-.1,1.2h0c-.3.2-.3.5-.3.9h0c-.2.1-.3.4-.3.6h0c-.2.1-.3.3-.3.6h0c-.2,0-.2.2-.2.4h0c-.3.2-.5.5-.7.8h0c-.4.2-.8.5-1.1.9h0c-.2,0-.4.1-.6.3h0c-.4.1-.8.1-1.2.1h-.1l-.1,1h-1.1l-.1-1h-.1c-.3,0-.6,0-1,0h0c-.3-.3-.7-.5-1.1-.6h0c0-.2-.2-.3-.3-.3h0c0-.2-.1-.3-.3-.3h0c0-.2-.1-.3-.3-.3h0c0-.21-.11-.4-.3-.5h0c0-.2-.1-.4-.3-.6h0c0-.3,0-.6-.1-.9h0v-3.9h0c.1-.3.1-.7.1-1.1h0c.3-.2.3-.5.3-.8h0c.2-.1.3-.4.3-.6h0c.3-.2.4-.5.6-.9h0c.2,0,.2-.2.3-.3h0c.2,0,.2-.1.3-.3h0c.2,0,.3-.1.3-.3h0c.2,0,.3-.1.3-.3h0c.2,0,.4-.1.6-.3h0c.2,0,.5-.1.6-.3h0c.5-.1,1-.1,1.5-.3.2.1.4.1.6,0,.5.2,1,.2,1.5.3h0c.1.2.4.3.6.3h0c.2.3.5.5.8.6h0l.9,1.1h0c.1.3.1.6.4.8h0c0,.3,0,.7,0,1v.1l.3.1c-.1.7-.1,1.6-.1,2.6h-.2ZM101.89,252.2c-.1-.3-.1-.8-.2-1.2s-.3-.7-.6-.9c-.5-.5-1.1-.6-1.8-.4-.6.2-1,.5-1.3,1-.77,1.22-1.12,2.66-1,4.1,0,.5.2,1.1.5,1.6.7,1,1.9,1.1,2.8.3.32-.32.59-.69.8-1.1.6-1,.7-2.1.8-3.4ZM311.09,257.6c-.1.2-.1.4.2.6v1c-.2.2-.4.4-.5.8h-2.2c-.1-.7-.1-1-.2-1.3l-.2-.1c-.2.1-.4.3-.5.5h0c-.2,0-.3.1-.3.3h0c-.2,0-.4.1-.6.3h0c-.3,0-.9-.7-.9-.7h-.8l-.1,1h-.1s-.4-.3-.7-.3h0c-.1-.2-.3-.3-.5-.4h0c0-.2-.1-.3-.3-.3h0c-.4-.6-.7-1.2-.8-1.9,0,0,0-.1-.3-.1v-.1l.1-.1c.1-.4.1-.8.9-1.1v-.2c-.6-.4-.7-.8-.6-1.2h0c.2-.2.4-.5.5-.9h0c.2,0,.3-.1.3-.3h0c.3-.1.6-.3.9-.6h0c.3,0,.6-.1.9-.3h0c.5,0,1.1-.1,1.6-.2.1,0,.4,0,.4,0h.1l.1-.2c.5,0,1,0,1.4-.3h0c.2,0,.3-.1.3-.3h0c.3-.4.3-.8.2-1.2,0-.1-.1-.1-.2-.2h0c0-.2-.1-.3-.3-.3h0c-.1-.1-.1-.2-.2-.2-.51-.2-1.09-.2-1.6,0-.1,0-.1.1-.2.2h0c-.2,0-.3.1-.3.3h0c-.3.1-.3.3-.3.6h0c-.2.1-.4.2-.5.6h-.1l-.1-.2c-.2-.1-.4-.2-.6-.2-.5-.1-1-.1-1.7-.2h0v-.5h0c.4-.1.4-.4.4-.6h0c.2-.1.3-.3.3-.6h0c.2-.1.2-.2.2-.3h0c.3-.2.6-.5.9-.8h0c.4-.1.8-.3,1.1-.6h0c.5,0,1-.1,1.5-.3.2.1.4.1.6,0,.5.2,1,.2,1.5.3h0c.1.2.4.3.6.3h0c.4.4.7.8,1.1,1.1h0c0,.3-.2.8-.2.8h0v2.2h0c.2.4.2.9.2,1.4h0c-.3.4-.3.9-.3,1.4h0c-.3.4-.9,1.2-.9,1.2h0v.1c.8.9.8,1.2.8,2.1h0ZM308.99,254.1c-.1-.1-.1-.2-.2-.2-.8,0-1.5.2-2.3.5-.15.03-.29.09-.4.2-.4.2-.6.5-.7,1s0,1,.4,1.4.8.4,1.3.2.9-.4,1.2-.9c.4-.6.6-1.4.7-2.2ZM340.95,256.65c.11-.22.11-.43,0-.54.22-.54.22-1.08.32-1.62h0c.32-.32.54-.76.65-1.19h0c.22,0,.32-.11.32-.32h0c.32-.11.65-.32.97-.65h0c.32-.11.76-.11.97-.32h0l.1.2c.6,0,1.8.8,1.8.8h.1l.1-1.1c.5,0,1,.1,1.4-.3h0c.2,0,.3-.1.3-.3h0c.3-.4.3-.9.1-1.4l-.1-.1h0c0-.2-.1-.3-.3-.3h0c-.1-.1-.1-.2-.2-.2-.51-.2-1.09-.2-1.6,0-.1,0-.1.1-.2.2h0c-.2,0-.3.1-.3.3h0c-.3.1-.3.3-.3.6h0c-.2.1-.4.2-.5.6h-.1c0-.3,0-.2-.1-.2-.2-.1-.3-.2-.5-.2-.4-.1-.7-.1-1.1-.1-.2,0-.3-.2-.3-.4s.1-.5.1-.7h0c.2-.1.3-.3.3-.6h0c.2-.1.2-.2.2-.4h0c.2,0,.2-.1.3-.3h0c.2,0,.3-.1.3-.3h0c.2,0,.3-.1.3-.3h0c.4-.1.8-.3,1.1-.6h0c.5,0,1-.1,1.5-.3.3.1.6.1.9,0,.4.3.8.2,1.3.3h0c.1.2.4.3.6.3h0l1.1,1.1h0c0,.2,0,.5.3.6h0c.1.9,0,1.8,0,2.8h0c-.3.4-.3.8-.2,1.2l-.3.1v.1s-.1.8-.1,1.2h0c-.3.4-.3.9-.3,1.4h0c-.1.2-.2.3-.2.5-.1.9-.1,1.8,0,2.7,0,.2-.1.4-.3,1.1h-2.2c0-1-.1-1.2-.2-1.5,0-.2-.3-.2-.4-.1l-.7.7h0c-.21,0-.4.11-.5.3h0c-.3,0-.9.6-.9.6h.14-1.08c-.22-.22-.43-.22-.76-.32h0l-1.19-1.19h0c0-.22-.11-.43-.32-.65h0c0-.32,0-.76-.32-1.19h0ZM347.29,254.7c0-.3.1-.4.1-.5s-.1-.2-.3-.2c-.7,0-1.4.2-2,.4-.2,0-.4.1-.5.2-.4.2-.7.6-.8,1.1s0,.9.4,1.3c.3.4.8.5,1.3.3.7-.2,1.2-.6,1.5-1.3l.3-1.3ZM131.79,247c.3.1.6.1.9,0,.4.2.8.2,1.3.3h0c.1.2.4.3.6.3h0c.1.2.3.3.5.4h0c0,.2.1.3.3.3h0c.1.2.2.4.4.5h0c0,.2.1.4.3.6h0c.1.9,0,1.9,0,2.8l.2.1v.1s-.6.8-.6,1.3h0c-.3.4-.3.9-.3,1.4h0c-.3.4-.3.8-.2,1.2l.1.1v.1c-.3.1-.3.2-.4.4-.1.6-.1,1.3-.1,1.9,0,.2.1.5.1.7s-.2.4-.3.5h-1.9c-.1-.1-.2-.2-.3-.4s-.1-.4-.1-.5-.2-.2-.3-.1c-.3.2-.5.5-.8.8h0c-.4.2-1.3,1.2-1.3,1.2h-.96c-.21-.21-.53-.32-.95-.32h0l-1.16-1.16h0c0-.21-.11-.53-.32-.63h0c-.21-1.15-.21-2.33,0-3.47h0c.21-.11.32-.42.32-.63h0c.32-.21.53-.53.63-.84h0c.53-.32,1.16-.63,1.79-.84l.11-.11h.04l.1-.4c.6,0,1.2,0,1.8.4h.1l.1-.8c.5,0,1,.1,1.4-.3h0c.1,0,.3-.1.4-.1.2-.5.3-1,.1-1.5l-.1-.1h0c0-.2-.1-.3-.3-.3h0c-.1-.1-.1-.2-.2-.2-.4-.2-.9-.1-1.3-.1-.3.1-.5.2-.7.4-.1.2-.3.4-.4.6s-.3.3-.5.4h0c-.2-.1-.3-.1-.5-.2-.4-.1-.7-.1-1.1-.1s-.5-.1-.4-.6c0-.1.1-.3.1-.4h0c.3-.2.4-.6.5-.9h0c.2,0,.2-.1.3-.3h0c.2,0,.3-.1.3-.3h0c.2,0,.3-.1.3-.3h0c.21,0,.4-.11.5-.3h0c.2,0,.4-.1.6-.3h0c.3-.1.8-.1,1.3-.3h0ZM132.29,254q-.1,0,0,0v-.1c0-.2-.1-.3-.3-.3-.7,0-1.4.2-2,.4l-.6.3c-.5.3-.8,1-.7,1.6.2.9.9,1.2,1.7,1,.6-.2,1.2-.6,1.4-1.2.1-.6.3-1.1.5-1.7h0Z"/>
    <path class="cls-1" d="M255.48,260h.21-1.25c-.31-.18-.73-.18-1.15-.27h0c-.1-.18-.31-.27-.63-.27h0c0-.18-.21-.18-.31-.18h0c0-.18-.1-.18-.31-.27h0c0-.18-.1-.27-.31-.27h0c0-.18-.1-.27-.31-.27h0c-.1-.27-.31-.55-.52-.82h0c0-.27-.1-.55-.31-.73h0c0-.45-.1-.91-.31-1.36l.1-.09-.1-.09c.1-.45.1-.82,0-1.27l.1-.09-.1-.09c.21-.45.21-.91.31-1.36h0c.21-.18.31-.45.31-.82h0c.21-.18.31-.45.42-.73h0c.21-.09.31-.27.31-.55h0c.21-.09.21-.18.21-.36h0c.31-.18.52-.45.63-.73.21,0,.31-.09.31-.27h0c.31-.09.63-.27.84-.55h0c.21,0,.52-.09.63-.27h0c.52-.09,1.04-.09,1.57-.27.21.09.42.09.63,0,.42.18.84.18,1.25.27h0c.1.18.31.27.63.27h0l1.15,1h0c0,.18.1.36.31.55h0c0,.18,0,.45.21.55h0c0,.45.1.91.31,1.36v.09l.1.09c-.1.55-.1,1.18,0,1.82l-.1.09v.09l-.31.82h-6.58c-.1,0-.21.18-.21.27s.1.27.1.36v-.22l.1.1c0,.29,0,.68.29.88h0c0,.21.11.39.29.49h0c0,.2.1.29.29.29h0c0,.1.1.2.19.2.48.2.95.2,1.33,0,.48-.2.86-.49.95-.98h0c.29-.39.57-.49,1.05-.39h.48c.29.29.67.2,1.05.39h0v.49h0c-.19.1-.29.39-.29.59h0c-.19.1-.19.2-.19.39h0c-.19.1-.29.29-.38.49h0c-.19,0-.19.2-.29.29h0c-.19,0-.29.1-.29.29h0c-.19,0-.29.1-.29.29h0c-.19,0-.38.1-.48.39h0c-.19,0-.38.1-.57.29h0c-.48-.2-.86-.1-1.05.1h0ZM255.69,252h1.4c.1,0,.3,0,.4-.1.1,0,.2-.1.2-.2.1-.7,0-1.3-.3-1.9-.5-1.1-1.8-1.1-2.5-.5-.68.58-1.11,1.41-1.2,2.3,0,.2.1.4.3.4h1.7ZM236.29,252.8h0v-.1c.4-.6.4-1.2,1-1.8v-.3c-.5-.5-.7-.9-1.1-1-.4-.2-.9-.2-1.3.2h0c-.6.2-.9.6-1.2,1.1h0c-.2.1-.2.2-.2.4h0c-.3.2-.3.5-.3.8h0c-.3.3-.3.7-.3,1.1h0c-.3.4-.3.9-.3,1.4h0c-.3.5-.3,1.1-.3,1.7h0c-.3.5-.3,1.1-.3,1.7h0c-.3.4-.2.8-.3,1.2-.1.2-.5.8-.5.8h-2.2c0-.6-.1-.7-.1-.9l-.6-.1v-.1c1-.5,1-1,1-1.5v-.1s0-.1,0-.1c0,0,.4-1,.4-1.5l-.4-.1v-.1s.8-1,.8-1.6l.2-.1v-.1c.2-.5.2-1,.2-1.5h0c.3-.5.3-1.1.3-1.7h0c.3-.5.3-1.1.3-1.7h0c.2-.3.2-.7.3-1,0-.3.2-.5.4-.7.7.1,1.3.1,2,0,.2.3.1.7.1,1.1,0,.1,0,.2.1.2s.2,0,.2-.1c.1-.1.2-.2.2-.3h0c.2,0,.3-.1.3-.3h0c.6-.3,1.3-.7,2-.8l.1-.1c.2.1.4.1.6,0,.3.2.6.2.9.3h0c.1.2.3.3.5.4h0c0,.2.1.3.3.3h0c.1.2.1.4.4.5h0c0,.2,0,.5.2.6h0l.1,2.5-.1.1.1.1c-.3.6-.3,1.2-.3,1.8h0c-.3.5-.3,1.1-.3,1.7h0c-.3.5-.3,1.1-.3,1.7h0c-.3.5-.3,1.1-.3,1.7h0c-.1.2-.1.3-.2.5s-.1,1-.1,1h.1-2.2c-.1-.4-.4-.6-.3-.8,0-.4.1-.8.1-1.2l.3-.1v-.1c.1-.5.1-1,.1-1.5l.9-.1v-.1s-.5-1-.5-1.5l.5-.1v-.1s-.9-1-.9-1.6h-.1ZM375.29,251.18v-.28c0-.5,0-1,0-1.5h0c.3-.4.3-.9.3-1.4l.7-.1v-.1s-.4-.4-.2-.6c.8.1,1.5.1,2.3,0,.2.3,0,.7.1,1.1l-.2.1v.1s-.2,1-.2,1.5h0c-.3.4-.3.9-.3,1.4l-.5.1v.1s.1,1,.1,1.5h0c-.3.4-.3.9-.3,1.4l1.2.1v.1s-1.6,1-1.6,1.5h0c-.3.4-.3.9-.3,1.4l-.1.1v.1c-.3.5-.3,1-.3,1.5h0c-.2.1-.3.2-.5-.3h-1.8c-.1.5-.2.4-.4.3v-.5c.2-.1.2-.3.1-.4-.2-.1-.3.1-.4.2s-.2.3-.4.4h0c-.3.1-.6.3-.9.5h0c-.4.1-1.1.5-1.1.5h-1.1c-.2-.4-.5-.5-.8-.5h0c0-.2-.2-.2-.3-.2h0c0-.2-.1-.3-.3-.3h0c-.2-.4-.3-.8-.8-1.1h0v-3c.5-.5.5-1,.5-1.5l-.5-.1v-.1s.9-1,.9-1.5l.1-.1v-.1s.3-1,.3-1.5l.7-.1v-.1s-.3-1-.3-1.5l.3-.1v-.1s.1-.6.2-.9c.8.1,1.5.1,2.2,0,.1.2.2.4.1.7,0,.3,0,.6-.1,1h0c0,.1-.1.1-.1.2-.1.5-.1,1-.1,1.5h0c0,.1-.1.1-.1.2-.1.5-.1,1-.2,1.5h0c-.3.5-.3,1-.2,1.5l.3.1v.11c-.29.59-.29,1.17-.29,1.76h0c-.2.29-.2.59,0,.88h0c0,.29,0,.49.29.59h0c0,.1.1.2.1.2.49.2.88.2,1.27-.1h0c.2,0,.39-.1.49-.39h0c.2,0,.29-.1.29-.29h0c.29-.2.49-.49.59-.78h0c.29-.2.29-.49.39-.78h0c.29-.2.29-.59.2-.88h0c.29-.39.29-.88.29-1.37h0c.39-.68.39-1.07.39-1.66h0ZM66.29,255.3h0v.2c-1.3.5-1.3,1-1.3,1.5l-.1.1.1.1c-.3.5-.3,1-.3,1.5l-.1.1.1.1-.3,1.1h-1.9c-.1-.5-.3-.5-.4-.6-.1,0-.2-.1.2-.2v-1.1h0c-.1-.5-.1-1.1-.1-1.7h0c.3-.5.3-1.1.3-1.7h0c.3-.5.3-1.1.3-1.7h0c.3-.5.3-1.1.3-1.7h0c.2-.4.3-.8,0-1.2h0c0-.3,0-.5-.3-.6h0s0-.1-.1-.1c-.2-.2-.5-.2-.7-.2s-.5,0-.7.3h0c-.2,0-.3.1-.3.2h0c-.29.09-.51.31-.6.6h0c-.2.1-.2.2-.2.4h0c-.2.1-.3.3-.3.6h0c-.3.2-.3.5-.3.9h0c-.3.3-.3.8-.3,1.2h0c-.3.4-.3.9-.3,1.4l-.7.1v.1s.3,1,.3,1.5l-.3.1v.1s-.1,1,1,1.5v.2c-1.2.1-1.3.3-1.3.5-.1.2-.2,1.1-.2,1.1h-2.1c-.4-.3-.5-.5-.5-.8,0-.5.1-.9.1-1.4h0c.3-.5.3-1.1.3-1.7h0c.3-.5.3-1.1.3-1.7h0c.3-.5.3-1.1.3-1.7h0c.3-.5.3-1.1.3-1.7h0c.3-.4.3-.9.2-1.4l-.4-.1v-.1c.8-.5.8-1,.7-1.5l.3-.1v-.1l.2-.4c.7.1,1.3.1,2,0,.1.2.8.5.8.5v.7l-.4.1.4-.4h0c.2,0,.3-.1.3-.3h0c.2-.1.4-.1.5-.4h0c.2,0,.4-.1.6-.3h0c.4,0,.8-.1,1.2-.3.1.1.2.1.4,0l1.5.6h0c0,.2.1.3.3.3h0c0,.2.1.3.3.3h0c0,.2.1.4.3.6h0c.2.9-.4,2.6-.4,2.6v.9s.1,1,.1,1.5l-.1.1.1.1c-.1.4-.1.9.9,1.4ZM181.65,260h-.11c-.33-.22-.65-.22-1.09-.33h0c-.11-.22-.33-.33-.65-.33h0l-1.53-1.53h0c0-.22-.11-.44-.33-.65h0c0-.22,0-.55-.33-.65h0c-.11-.44,0-.87-.33-1.2h0v-3.27h0c.33-.44.22-.87.33-1.31h0c.22-.22.33-.55.33-.98h0c.22-.11.33-.44.33-.65h0c.22-.11.33-.33.33-.65h0c.33-.22.55-.55.65-.87h0c.22,0,.33-.11.33-.33h0c.22,0,.33-.11.33-.33h0c.22,0,.33-.11.33-.33h0c.22-.11.44-.11.55-.44h0c.22,0,.55-.11.65-.33h0c.55-.11,1.09-.11,1.64-.33.22.11.44.11.65,0,.44.22.87.22,1.31.33h0c.11.22.33.33.65.33h0c.11.22.22.22.33.33h0c0,.22.11.33.33.33h0c0,.22.11.33.33.33h0c0,.22.11.33.22.44h0c0,.22.11.44.33.65h0c0,.33.11.65.33.98h0c0,.55.11.98.11,1.53.11,1.09.11,2.18-.22,3.27h.11-6.87c-.11,0-.22.22-.22.33,0,.33-.11.65.22.98h0c0,.33,0,.65.33.87h0c0,.22.11.33.22.33h0c0,.22.11.33.33.33h0c.11.11.22.22.33.22.44.22.98.11,1.42,0,.11,0,.11-.11.22-.22h0c.33,0,.55-.22.65-.65h0c.22-.11.22-.22.22-.44h0c.33-.33.65-.55,1.09-.33.22.11.44,0,.76.11h0c.22.22.55.22.76.33.11,0,.22.11.22.33s-.11.44-.11.55h0c-.22.11-.33.33-.33.65h0c-.56.67-1.18,1.29-1.85,1.85h0c-.22,0-.44.11-.65.33h0c-.44,0-.87.11-1.2.33h0c-.65.11-1.09.11-1.42.11h0ZM182.29,253s0-.1,0,0h1.4c.37,0,.69-.3.7-.67.02-.56-.08-1-.3-1.43-.3-.6-.9-1-1.6-.9-.6,0-1,.3-1.4.8-.4.6-.6,1.2-.8,1.9,0,.1.1.3.2.3.7-.1,1.2-.1,1.8,0h0ZM223.65,260h-.11c-.33-.22-.65-.22-1.09-.33h0c-.11-.22-.33-.33-.65-.33h0l-1.53-1.53h0c0-.22-.11-.44-.33-.65h0c0-.22,0-.55-.33-.65h0c-.11-.44,0-.87-.33-1.2h0v-3.27h0c.33-.44.22-.87.33-1.31h0c.22-.22.33-.55.33-.98h0c.22-.11.33-.44.33-.65h0c.22-.11.33-.33.33-.65h0c.33-.22.55-.55.65-.87h0c.22,0,.33-.11.33-.33h0c.22,0,.33-.11.33-.33h0c.22,0,.33-.11.33-.33h0c.22-.11.44-.11.55-.44h0c.22,0,.55-.11.65-.33h0c.55-.11,1.09-.11,1.64-.33.22.11.44.11.65,0,.44.22.87.22,1.31.33h0c.11.22.33.33.65.33h0c.11.22.22.22.33.33h0c0,.22.11.33.33.33h0c0,.22.11.33.33.33h0c0,.22.11.33.22.44h0c0,.22.11.44.33.65h0c0,.33.11.65.33.98h0c0,.55.11.98.11,1.53.11,1.09.11,2.18-.22,3.27h.11-6.87c-.11,0-.22.22-.22.33,0,.33-.11.65.22.98h0c0,.33,0,.65.33.87h0c0,.22.11.33.22.33h0c0,.22.11.33.33.33h0c.11.11.22.22.33.22.44.22.98.11,1.42,0,.11,0,.11-.11.22-.22h0c.33,0,.55-.22.65-.65h0c.22-.11.22-.22.22-.44h0c.33-.33.65-.55,1.09-.33.22.11.44,0,.76.11h0c.22.22.55.22.76.33.11,0,.22.11.22.33s-.11.44-.11.55h0c-.22.11-.33.33-.33.65h0c-.56.67-1.18,1.29-1.85,1.85h0c-.22,0-.44.11-.65.33h0c-.44,0-.87.11-1.2.33h0c-.55.11-.98.11-1.42.11h0ZM224.19,252h1.3c.8,0,.9-.2.8-.9-.1-.4-.1-.8-.3-1.2-.5-1.2-1.8-1.1-2.5-.6-.3.3-.6.6-.8.9-.2.4-.3.9-.5,1.3-.1.2.1.5.4.5h1.6ZM397.4,247.04c.19.1.38.1.58,0l1.44.58h0c0,.19.1.29.29.29h0c.19.38.29.77.58,1.06v3.04c.1.6.1,1.2.1,1.8h0c0,.1-.1.1-.1.2-.1.5-.1,1-.1,1.5h0c0,.1-.1.1-.1.2-.1.5-.1,1-.1,1.5h0c-.3.5-.3,1.1-.3,1.7h0c-.2.2-.3,1.1-.3,1.1h-2.2c-.2-.2-.4-.4-.3-.6,0-.4.1-.8.1-1.2h0c.3-.5.3-1,.2-1.5l.1-.1v-.1c.3-.5.3-1,.3-1.5l.7-.1v-.1s-.3-1-.3-1.5l.3-.1v-.1s.1-1.2.1-1.8h0c.2-.3.2-.6,0-.9h0c0-.3,0-.5-.3-.6h0s0-.1-.1-.1c-.2-.2-.5-.2-.7-.2s-.5,0-.7.3h0c-.6.2-1,.6-1.2,1.1h0c-.4.3-.5.7-.5,1.2h0c-.3.3-.3.7-.3,1.1h0c-.3.5-.3,1.1-.3,1.7h0c-.3.5-.3,1-.2,1.5l-.8.1v.1s.4,1,.4,1.5l-.4.1v.1c.2.2.1.3.1.5-.1.9-1.1,1.2-1.1,1.2h-1.2s-.3-.4-.8-.5v-.1l.2-.1c.3-.5.3-1,.2-1.5l-.4-.1v-.1s.8-1,.8-1.5l.2-.1v-.1s.2-1,.2-1.5l.8-.1v-.1s-.4-1-.4-1.5l-.6-.1v-.1s1-1,1-1.5v-.1s0-.1,0-.1c0,0,.4-1,.4-1.5l-.4-.1v-.04c.11-.21.21-.32.21-.54,0-.43.11-.75.11-1.07.11-.11.21-.21.43-.32.75.11,1.39.11,2.14,0,0,.21.11.32.11.54v.71l.19.1c.1-.1.19-.29.38-.38h0c.19,0,.29-.1.29-.29h0c.19,0,.38-.1.48-.38h0c.19,0,.38-.1.58-.29h0c-.38,0-.1,0,.19-.19h0ZM334.29,252h0v.2c-.2.5-.2,1-.2,1.5h0c-.3.4-.3.9-.3,1.4l-.5.1v.1s.1,1,.1,1.5h0c-.3.5-.3,1.1-.3,1.7h0c-.1.2-.1.3-.2.5s-.1.4-.1,0h-2.5v.6-.5c.4-.2.4-.5.3-.8,0-.1-.1-.1-.2-.1-.2.1-.3.2-.3.4-.3.3-.6.5-.9.8h0c-.2,0-.5.1-.6.3h0c-.3,0-.7,0-.9.3h-.1l-.1,1h-.8l-.1-1h-.1c-.2-.2-.4-.2-.7-.3h0c-.1-.2-.3-.3-.5-.4h0c-.2-.3-.4-.6-.6-.8h0c0-.3-.1-.7-.4-.9v-.1l1-.1v-1.4l-1-.1v.05c.31-.63.31-1.25.31-1.88h0c.31-.52.31-1.15.31-1.78h0c.31-.52.31-1.15.31-1.78h0c.31-.52.31-1.15.31-1.78h0c.21-.31.21-.73.31-1.04,0-.31.21-.52.42-.73.73.1,1.46.1,2.09,0,.1.21.21.31.42.52h0c-.31.52-.31,1.15-.31,1.78h0c-.31.52-.31,1.15-.31,1.78h0c-.31.52-.31,1.15-.31,1.78h0c-.31.52-.31,1.15-.31,1.78h0c-.31.63-.31,1.46-.21,2.09,0,.31.21.63.63.84.52.21,1.04.21,1.46-.21h0c.21,0,.31-.1.31-.21h0c.21,0,.31-.1.31-.31h0c.21,0,.31-.1.31-.31h0c.42-.31.63-.63.63-1.15h0c.21-.21.21-.42.21-.63l.1-.1v-.2s.1-.8.1-1.2h0c.3-.4.3-.9.3-1.4l-.4-.1v-.1s.8-1,.8-1.5h0c.3-.4.3-.9.3-1.4l-.1-.1v-.1s.4-.4.4-.6c0-.3.2-.5.4-.6.7.1,1.3.1,2,0,.1.2.2.4.2.6,0,.4,0,.7-.1,1.1l.1.1v.1s-.5,1-.5,1.5h0c-.4.3-.4.8-.4,1.3h-.1ZM320.49,247c.1.1.2.1.4,0l1.2.3h0c.1.2.2.2.4.2h0c0,.2.1.3.3.3h0c0,.2.1.3.3.3h0c0,.2.1.4.3.6h0c.2,1-1.1,3-1.1,3v.9c.8.5,1,1.6,1,1.6h0v.1c-.5.5-1,1.6-1,1.6v.2c.2.5.2,1,0,1.6v.2c-.1.5-.1,1-.1,1.5h0l-.1.1c-.1.2-.6.5-.6.5h-2c0-.5,0-.8-.1-1.2h0c.3-.5.3-1.1.3-1.7h0c.3-.5.3-1.1.3-1.7h0c.3-.5.3-1.1.3-1.7h0c.3-.5.3-1.1.3-1.7h0c.3-.5.3-1,.1-1.5,0-.1-.1-.1-.2-.2h0c0-.2-.1-.3-.2-.3h0c-.1-.19-.29-.3-.5-.3-.3,0-.7,0-.9.3h0c-.2,0-.3.1-.3.2h0c-.2,0-.3.1-.3.3h0c-.2,0-.3.1-.3.3h0c-.2.1-.2.2-.2.3h0c-.2.1-.3.3-.3.6h0c-.3.2-.3.5-.3.9h0c-.3.3-.3.7-.3,1.1l.4.1v.1c-.8.5-.8,1-.8,1.5h0c-.3.5-.3,1.1-.3,1.7h0c-.3.5-.3,1.1-.3,1.7h0c-.1.2-.1.3-.2.5s-.1.4-.1.7h-2.2c-.2-.1-.4-.3-.3-.5,0-.4,0-.8.1-1.2h0c.3-.5.3-1.1.3-1.7h0c.3-.5.3-1.1.3-1.7h0c.3-.5.3-1.1.3-1.7h0c.3-.5.3-1.1.3-1.7h0c.3-.5.3-1.1.3-1.7h0c.3-.5.3-1.1.3-1.7h0c.1-.2.2-.4.4-.6.7.1,1.3.1,2,0,.1.1.2.3.4.4h0c-.2.2-.2.5-.2.8,0,.1.1.1.2.1l.4-.4h0c.3-.1.6-.3.8-.6h0c.2,0,.5-.1.6-.3h0c.1-.3.5-.3.9-.5h0Z"/>
    <path class="cls-1" d="M249.34,252h.55-1.1c-.2,0-.4,0-.5-.1-.2-.1-.1-.3-.2-.5-.1-.1-.1-.2-.2-.4h0c0-.2-.1-.5-.3-.6h0c0-.2-.1-.3-.3-.2v-.2h-.6c-.4-.8-.7-.8-1-.5h0c-.2,0-.5.1-.6.3h0c-.2,0-.3.1-.3.3h0c-.2,0-.3.1-.3.3h0c-.2.1-.3.3-.3.6h0c-.3.2-.3.5-.4.8h0c-.3.2-.3.6-.2.9h0l-.1.1c-.3,1-.3,2.1-.1,3.1,0,.1.1.1.2.2h0c.1.5.3.8.9.8.2.1.4.1.6,0,.3,0,.5,0,.6-.3h0c.2,0,.3-.1.3-.3h0c.2,0,.3-.1.3-.3h0c.2-.1.3-.3.3-.6h0c.2-.1.2-.4.3-.6h0c.2-.1.4-.1.7-.1s.6.1,1,.1h0c.2.1.3.1.5.2s.4.1.6.1h0c-.1.1,0,.1,0,.2h0c-.2.3-.3.6-.3.9h0c-.2.1-.3.4-.3.6h0c-.2.1-.3.3-.3.6h0c-.52.62-1.08,1.18-1.7,1.7h0c-.2,0-.4.1-.6.3h0c-.4,0-1.1-.4-1.1-.4h-1.1l-.1,1h-.1c-.3-.6-.6-.6-1-.7h0c-.1-.2-.3-.3-.6-.3h0c-.1-.2-.2-.2-.3-.2h0c0-.2-.1-.2-.3-.3h0c0-.2-.1-.3-.3-.3h0c0-.2-.1-.3-.2-.3h0c0-.2-.1-.4-.3-.6h0c0-.3-.8-.7-.8-.7v.86l-.11-.11c0-.43,0-.96-.21-1.39.11-.11.11-.32,0-.43.11-.43.11-.86,0-1.18.11-.11.11-.32,0-.43.32-.54.21-1.07.32-1.71h0c.32-.32.32-.75.42-1.18h0c.21-.11.21-.43.32-.64h0c.21-.11.32-.32.32-.64h0c.32-.21.53-.54.63-.96h0c.21,0,.32-.11.32-.32h0c.21,0,.32-.11.32-.32h0c.21,0,.32-.11.32-.32h0c.32-.11.63-.32.95-.64h0c.21,0,.53-.11.63-.32h0c.53-.11,1.05-.11,1.58-.32.21.11.42.11.63,0,.42.21.84.21,1.26.32h0c.11.21.42.32.63.32h0c.11.21.21.21.32.21h0c.21.32.53.64.84.96h0c0,.21.11.43.32.64h-.11c0,.32.11.64.32.86h0v.86c0,.21-.11.32-.32.43-.32.75-.42.75-.63.86h0ZM209.59,247c.2.1.4.1.6,0,.4.2.8.2,1.2.3h0c.1.2.3.3.6.3h0c.4.4.8.7,1.1,1.1h0c0,.2.1.3.2.4h0c.1.3.1.6.4.8h0c0,.4.1.7.1,1.1,0,.2-.1.3-.3.4s-.3.1-.5-.4h-.1l-.1,1h-.8s-.6-.3-.7-.4v-.1l-.2-.1c0-.3,0-.6-.3-.9h0c0-.2-.1-.3-.2-.3h0c-.1-.2-.2-.3-.4-.2h0c-.4-.3-.8-.3-1.1,0h0c-.6.1-1,.5-1.2,1.1h0c-.2.1-.3.4-.3.6h0c-.2.1-.2.4-.2.6h0c-.3.3-.3.7-.3,1.1h0q-.1.1-.1.2c-.2.8-.2,1.6-.1,2.4,0,.2.1.3.2.5h0c0,.2,0,.3.2.4h0c.1.3.3.5.6.5l.1.6h.1c.1-.4.3-.4.4-.5h0c.3,0,.5,0,.6-.2h0c.29-.09.51-.31.6-.6h0c.2-.1.2-.2.2-.4h0c.2-.1.3-.3.3-.6h0c.2-.3.5-.4.8-.3s.6,0,.8.1h0c.2.1.3.2.5.2.2.1,1,.1,1,.1h0v.5h0c-.7.2-.7.5-.7.8h0c-.2.1-.3.4-.3.6h0c-.3.2-.5.5-.6.9h0c-.2,0-.2.2-.3.3h0c-.2,0-.3.1-.3.3h0c-.2,0-.3.1-.3.3h0c-.2,0-.4.1-.5.4h0c-.2,0-.4.1-.6.3h0c-.3,0-.7,0-1-.2h-.1l-.1,1h-1.1c-.3-.6-.7-.6-1.1-.7h0c-.1-.2-.3-.3-.6-.3h0c-.1-.2-.2-.2-.3-.3h0c0-.2-.1-.3-.3-.3h0c0-.2-.1-.3-.3-.3h0c-.1-.3-.3-.6-.5-.9h0c-.1-.3-.1-.6-.3-.9h0c-.2-1.4.3-4.2.3-4.2v-.3h0c0-.3,0-.7,0-1.1h0c.3-.5.6-1.1.8-1.7h0c.3-.2.5-.5.6-.8h0c.2,0,.3-.1.3-.3h0c.2,0,.3-.1.3-.3h0c.2-.1.4-.1.5-.4h0c.2,0,.3-.1.4-.2h0c.3-.1.6-.1.8-.4h0c.8-.4,1.3-.4,1.6-.6h0ZM356.89,247c.2.1.4.1.6,0,.8.2,1.6.4,2.3.9h0c0,.2.1.3.3.3h0c0,.2.1.3.3.3h0c0,.2.1.4.4.5h0c0,.2.1.4.3.6h0c0,.4,0,.8.3,1.1h0c0,.3-.1.6-.5.6-.1,0-.4-.3-.4-.3h-1.2c-.2.5-.3.4-.4.3s-.1-.2-.2-.3h0c0-.2,0-.5-.2-.6h0c-.1-.3-.3-.5-.6-.5h0c-.4-.3-.8-.3-1.1,0h0c-.2,0-.3,0-.4.2h0c-.4.2-.7.5-.8.9h0c-.2.1-.3.3-.3.6h0c-.3.2-.3.5-.3.8h0c-.3.3-.3.7-.3,1.1l-.4.1v.1s0,1.5.2,2.3c0,0,0,.1.1.1h0c0,.2,0,.5.3.6h0c0,.2.1.3.3.3h0c.1.3.3.3.6.3h0c.1.2.2.2.4,0h0c.8,0,1.2-.4,1.5-1.1h0c.2-.1.3-.4.3-.6h0c.2-.3.5-.5.9-.4.2.1.5,0,.7,0h0c.1.1.2.1.4.2.2,0,.4.1.5.1.2,0,.3.1-.2.4v.4h0c.2.1.2.4.2.6h0c-.2.1-.3.3-.3.6h0c-.2.1-.3.3-.4.5h0c-.2,0-.2.2-.3.3h0c-.2,0-.3.1-.3.3h0c-.2,0-.3.1-.3.3h0c-.2,0-.3.1-.3.3h0c-.4.1-.8.3-1.1.6h0c-.3,0-.7,0-1,.2h-.1l-.1,1h-1.1c-.3-1.2-.7-1.1-1.1-1.3h0c-.2-.2-.5-.4-.9-.6h0c0-.2-.1-.3-.3-.3h0c-.1-.3-.3-.6-.6-.8h0c0-.2-.1-.5-.3-.6h0c0-.3,0-.7-.7-.9v-.1l1-.1v-3.6h0c-.4-.3-.4-.7-.4-1.1h0c.3-.2.3-.5.3-.9h0c.2-.1.3-.4.3-.6h0c.2-.1.3-.3.3-.6h0c.2-.1.2-.2.2-.4h0c.5-.5,1-.9,1.4-1.4h0c.4-.1.8-.3,1.1-.6h0c.6.1,1,.1,1.4-.1h0ZM280.29,251.7h0v.2c.3.5.3,1,.3,1.5l-.3.1v.1s-.1,1-.1,1.5l.1.1v.1s-.5,1-.5,1.5l.5.1v.1s-.9,1-.9,1.5l-.1.1v.1c-.2.3-.3,1.3-.3,1.3h-2.2c-.2-.4-.3-.6-.3-.8,0-.4,0-.8.1-1.2h0c0-.1.1-.1.1-.2.1-.5.1-1,.1-1.5h0c.3-.5.3-1,.2-1.5l-.7-.1v-.1c1.1-.5,1.1-1,1-1.5v-.1s0-.1,0-.1c0,0,.4-1,.3-1.5l.7-.1v-.1c-.3-.4-.4-.9-.4-1.3l-.1-.1-.1.2h-.7s-.3-.3-.4-.4-.1-.3-.1-.4h0c.1-.2.2-.3.2-.5.1-.4.1-.8-.4-1.2v.1c.6-.1.7-.2.9-.3.3.1.7.1,1,0,.1,0,.1-.2.1-.2v-.6l1-.1v-.1s-.4-.8-.5-1.2l.5-.1v-.1c-.2-.3-.1-.6-.1-.9h0c.3-.2.4-.5.6-.8h0c.2-.1.4-.2.5-.4h0c.2,0,.5-.1.6-.8h1.9l.1,1h.1s.64,0,1,0h0c.3.2.5.4.3.8-.1.3-.1.6-.1.8h0c-.2.2-.2.4-.2.6-.1.2-.2.2-.4.8h-.1c-.4-1-.9-.9-1.4-.8-.2.1-.4.2-.4.5h0c-.3.3-.3.7-.3,1.1l-.1.1v.1q-.2.2,0,.3t.2.1c.4,0,.7.1,1.1-.1.3.2.3.5.3.8h0c-.1.2-.2.3-.2.5-.1.4-.4,1.2-.4,1.2v-.11c-.42,0-.84.11-1.26.11-.21,0-.42,0-.53.11,0,0-.11.11-.11.21l-.11.11v.09s.6.9.6,1.4h-.6ZM42.29,258.6h0v-.2c.6-.5,0-1.5,0-1.5v-.2c.3-.6.3-1.2,0-1.7h0c0-.6,0-1.2-.3-1.7h0c0-.6,0-1.2-.3-1.7h0c0-.6-1.4-1.8-1.4-1.8v-.1l1-.1c0-.5,0-1.5,0-1.5v-.1l-.3-.1c0-.3,0-.6.4-.8.7.1,1.3.1,2,0,.1.2-.1.7-.1.7v.1l.6.1c0,.7.4,2.1.4,2.1v.2c-.1.6,0,1.1.1,1.6,0,.1.9.2.9.2v.2c-.8.6-.8,1.3-.6,1.9,0,.1-.4.2-.4.2v.4c.5,0,.6.1.6.2,0-.1.1-.1.4-.2v-.2h0c.1-.2.1-.5.2-.8h0c.2-.1.3-.4.3-.6h0c.2-.1.3-.4.3-.6h0c.2-.1.3-.4.3-.6h0c.2-.1.3-.3.3-.6h0c.2-.1.3-.3.3-.6h0c.3-.4.5-.9.7-1.4h0c.2-.1.3-.4.3-.6h0c.2-.1.3-.4.3-.6h0c.2-.1.3-.4.3-.6h0l.6-.6c.8.1,1.5.1,2.3,0,.1.2.1.5,0,.8h0c-.2.1-.3.4-.3.6h0c-.2.1-.3.4-.3.6h0c-.2.1-.3.4-.3.6h0c-.2.1-.3.4-.3.6h0c-.2.1-.3.4-.3.6h0c-.2.1-.3.4-.3.6h0c-.2.1-.3.4-.3.6h0c-.2.1-.3.4-.3.6h0c-.2.1-.3.4-.3.6h0c-.2.1-.3.4-.3.6h0c-.2.1-.3.4-.3.6h0c-.2.1-.3.4-.3.6h0c-.2.1-.3.4-.3.6h0c-.2.1-.3.4-.3.6h0c-.2.1-.3.4-.3.6h0c-.2.1-.3.4-.3.6h0c-.2.1-.3.4-.3.6h0c-.2.1-.3.4-.3.6h0c-.2.1-.3.4-.3.6h0c-.2.1-.3.4-.3.6h0c-.2,0-.3.2-.3.2h-2.2c.1-.8.2-1.2-.1-1.4h-.6ZM336.29,254h0v-.2c.4-.5.4-1,.3-1.5l.7-.1v-.1s-.3-1-.3-1.5l.3-.1v-.1s-.1-.1-.1-.2c0-.2,0-.4-.2-.2h-.7c-.3-.2-.4-.3,0-.6v-.9h0c-.3-.2-.2-.3-.2-.5,0-.3.2-.5.4-.6.3,0,.5.1.8.1.1,0,.2-.2.3-.2.3-.5.3-1,.3-1.5h0c.3-.3.3-.7.3-1.1h0c.2-.2.3-.5.4-.8h0c.2-.1.2-.2.2-.3h0c.2,0,.3-.1.3-.3h0c.2,0,.3-.1.3-.2h0c.3-.1.8-.1.8-.1h-.47,2.05c.32.3.76.3,1.19.3h0c.22.2.43.5.32.8v.3h0c-.32.3-.32.8-.32,1.2h0c-.22.3-.54.3-.86.2h0c-.43-.4-.97-.3-1.41-.2-.11,0-.11.1-.22.2h0c-.43.2-.32.5-.32.8h0c-.32.3-.22.6-.22,1,0,.1.11.2.32.2.43.1.97.1,1.41,0,.11.2.22.4.11.7,0,.3,0,.6-.11,1h0c-.11.2-.22.5-.32.7-.22.3-.65.1-.97.1-.22,0-.54,0-.76.1-.11,0-.22.1-.32.3v.8s.1,1,.1,1.5l.9.1v.1s-1.3,1-1.3,1.5l-.7.1v.1s.3,1,.3,1.5l-.3.1v.1s-.1,1-.1,1.5l.1.1v.1c-.5.5-.4,1-.5,1.5h0c-.2.1-.6.2-.6.2h-1.9s0-.8,0-.8h0c.1-.5.1-1.1.1-1.7h0c0-.1.1-.1.1-.2.1-.5.1-1,.1-1.5h0c.8-.8.8-1.4.8-1.8h-.1ZM365.29,253.7h0v.2c-.1.5-.1,1,0,1.5l1,.1v.1s-1.3.7-1.3,1.1c0,.1.1.1.1.2h0c0,.2.1.3.3.3h0c.3.3.7.2,1,0h0c.2.2-.1.7-.1.7v.6l1,.1v.1c-.9.2-1,.3-1,.5,0,.3-.2.5-.5.6-.1,0-.2-.8-.2-.8h-.1l-.1,1h-1.1l-.1-1h-.1c-.3.7-.6.7-1,.6h0c-.1-.2-.2-.2-.4-.2h0c0-.2-.1-.2-.3-.3h0c0-.2-.1-.3-.2-.4h0l-.3-1.2c.1-.2.1-.4,0-.6.3-.6.3-1.2.2-1.8l.2-.1v-.1c.2-.5.2-1,.1-1.5l.9-.1v-.1s-.5-1-.6-1.5l.6-.1v-.1s-.2-1-.2-1.6c0-.1-.1-.2-.2-.2-.2,0-.5,0-.7-.1-.2,0-.9-.4-.9-.4v-.4h0c.8-.3.8-.7.9-1,0-.3.2-.5.4-.7.2.1.5.1.7,0,.2,0,.3-.1,0-.3v-.5c.4-.2.4-.3.5-.5s.1-.5.1-.8h0c.2,0,.3-.1.3-.3h0c.2-.1.4-.1.5-.4h0c.2,0,.3-.1.3-.2h0c.2,0,.3-.1.3-.2h0c.2-.1.4-.1.5-.4h0c.2,0,.3-.1.3-.2h0c.2,0,.3-.3.3-.3h.1c.2.1.3.1-.2.3v.2h0c.2.5.2,1.1.2,1.7h0c-.3.5-.3,1-.3,1.6,0,.2.2.2.3.2.3.1.6.1,1,0,.2.3,0,.7.1,1.1l-.3.1v.1c-.1.1-.1.3-.2.5s-.1.5-.1.8h0c-.5,0-.9,0-1.4.1-.1,0-.3.1-.3.3v.6h0c-.1.4-.1.9,0,1.4l1,.1v.1c-.9.4-.9,1-.8,1.5h-.2ZM163.29,255.9h0v.1c-.2.2-.2.5,0,.7h0c0,.2.1.3.3.3h0c.1.1.3.2.5,0h.6c.1.2.2.3.2.4,0,.5-.1,1-.1,1.5h0q-.1.1-.1.2c-.1.3-.2.4-.5.5-.1,0-.2-.6-.2-.6h-.1l-.1,1h-1.1l-1.4-.8h0c0-.2-.1-.3-.3-.3h0c0-.2-.1-.4-.3-.6h0c-.1-.8-.1-1.6-.4-2.4v-.7h0c.7-.5.7-1.1.7-1.7h0c.3-.5.3-1.1.3-1.7h0c.3-.5.3-1.1.3-1.7h0c.2-.5.1-.6-.3-.6-.3,0-.5-.1-.8-.1h0c0-.1,0-.2-.1-.2l.1-.1-.1-.1c.3-.5.3-1,.3-1.5l-.4-.1v-.1s.7-.3.9-.4c.2.1.5.1.7,0q.3,0,.3-.3h0c.2-.2.2-.5.2-.8,0-.5.2-.9.6-1.2h0c.2,0,.3-.1.3-.2h0c.2,0,.3-.1.3-.3h0c.2-.1.4-.1.5-.4h0c.2,0,.3-.1.3-.2h0c.2,0,.3-.1.3-.3h0c.2-.1.3-.2.5-.2.1-.1.2,0,.3.2s0,.4,0,.6l-.1.1.1.1c-.3.5-.3,1-.3,1.5l.1.1v.1s-.4.7-.4,1.1c0,.2.1.2.3.2.3.1.7.1,1,0,.1.2.2.4.1.7,0,.3,0,.6-.1,1h0c-.1.2-.2.5-.3.7-.2.3-.6.1-.9.6h-.4c-.1-.5-.2-.4-.3-.2,0,.3,0,.5-.1.8h0c-.3.5-.3,1.1-.3,1.7h0c-.3.5-.3,1.1-.3,1.7h0c-.3.7-.3,1.3-.3,1.9h0ZM381.29,258.3h0v.2c-.1.1-.1.2-.2.4-.1,1.2-.1,1.1-1.33,1.1h-.87s-.5-.6-.6-.9h0c.3-.5.3-1.1.3-1.7h0c.3-.5.3-1,.2-1.5l-.5-.1v-.1c.9-.5.9-1,.8-1.5l.2-.1v-.1s.2-1,.1-1.5l.9-.1v-.1s-.5-1-.5-1.5l-.5-.1v-.1s.9-1,.9-1.5l.1-.1v-.1c.3-.5.2-1,.3-1.5h0c.1-.1.2-.2.4-.3.7.1,1.3.1,2,0,.1.2.2.5.1.8-.3.3-.3.7-.2,1.1l.2.1c.1-.1.3-.2.3-.4.1-.2.3-.5.4-.7h0c.2,0,.3-.1.3-.3h0c.2,0,.3-.1.3-.3h0c.2,0,.4-.1.5-.4h0c.3,0,.6-.1.9-.3.1.1.2.1.3,0,.2.1.3.2.5.2.3.1.4.3.5.6h0c-.3.2-.3.5-.3.8h0c-.2.2-.2.4-.2.6h0c-.3.2-.3.5-.3.8v.3c-.41,0-.71,0-1.12.1-.2,0-.51,0-.61.3h0c-.61.2-.92.6-1.22,1.1h0c-.2.1-.2.2-.2.4h0c-.31.2-.31.5-.31.8h0c-.31.2-.31.6-.2.9h0c-.31.4-.31.9-.31,1.4h0c-.31.5-.31,1.1-.31,1.7h0c-.71.6-.71,1.1-.71,1.6h0ZM138.33,247.11c.62.1,1.24.1,1.86,0,.31.21.41.41.31.82-.31.31-.21.62-.21,1.03v.1c.1,0,.21,0,.21-.1.11-.11.18-.26.21-.41.1-.21.21-.41.31-.52h0c.21,0,.31-.1.31-.31h0c.21,0,.31-.1.31-.31h0l1.24-.62c.1.1.21.1.31,0,.31.21.62.21.93.31h0c.1.21.1.41,0,.62s-.1.31-.1.52h0c-.31.21-.31.52-.31.82h0c-.21.21-.21.41-.21.62h0c-.21.1-.31.31-.62.31h-.82c-.41.1-.72.21-.93.62h0c-.21,0-.31.1-.31.31h0c-.21,0-.31.1-.31.31h0c-.19.1-.31.3-.31.52h0c-.21.1-.31.41-.31.62h0c-.31.21-.31.52-.31.93h0c-.31.41-.31.93-.31,1.44h0c-.31.41-.31.93-.31,1.44h0c-.31.52-.31,1.13-.31,1.75h0c-.31.52-.31,1.13-.31,1.75h0c-.21.1-.41.31-.62.31h-2.16.1c0-.31-.1-.52-.1-.82h0c.31-.52.31-1.13.31-1.75h0c.31-.52.31-1.13.31-1.75h0c.31-.52.31-1.13.31-1.75h0c.31-.52.31-1.13.31-1.75h0c.31-.52.31-1.13.31-1.75h0c.31-.52.31-1.13.31-1.75h0c.21-.21.21-.62.21-.93.31-.41.52-.52.72-.62h0ZM216.29,247.8h0v-.1c-.2-.1-.1-.3.1-.4.8.1,1.5.1,2.3,0,.2.3,0,.7.1,1.1h0c-.3.5-.3,1.1-.3,1.7h0c-.3.5-.3,1.1-.3,1.7h0c-.3.5-.3,1.1-.3,1.7h0c-.3.5-.3,1.1-.3,1.7h0c-.3.5-.3,1.1-.3,1.7h0q-.1.1-.1.2c-.1.5-.1,1-.1,1.5h0c-.1.2-.1.3-.2.5s-.1.9-.1.9h.1-2.2c-.1-.3-.4-.5-.3-.7,0-.4.1-.8.1-1.2l.1-.1-.1-.1c.3-.5.3-1,.3-1.5l.1-.1-.1-.1c.3-.5.3-1,.3-1.5l.1-.1-.1-.1c.3-.5.3-1,.3-1.5l.1-.1-.1-.1c.3-.5.3-1,.3-1.5l-.4-.1v-.1c.8-.5.8-1,.8-1.5l.2-.1v-.1s-.3-1.1-.3-1.6h.3ZM389.29,250.3h0v.1c.2.5,0,1.6,0,1.6v.2c-.1.5,1,1.5,1,1.5v.2c-1.4.5-1.4,1-1,1.6v.2c-.7.5-.7,1-.7,1.5h0c-.3.5-.3,1.1-.3,1.7h0l-.3,1.1h-1.9c-.1-.3-.3-.3-.4-.4-.1,0-.2-.1-.4-.2v-1.1h0c.5-.5.5-1.1.5-1.7h0c.3-.5.3-1.1.3-1.7h0c.3-.5.3-1.1.3-1.7h0c.3-.5.3-1.1.3-1.7h0c.3-.5.3-1.1.3-1.7h0c.3-.5.3-1.1.3-1.7h0c.1-.3.3-.6.4-.8.8.1,1.5.1,2.3,0,.1.2-.7.7-.7.7v.6l1,.1v.1s-.5,1-.5,1.5h-.5Z"/>
    <path class="cls-1" d="M53.03,247.6c.72.1,1.33.1,2.05,0,.21.2.21.5.21.7v.9h0c-.31.5-.31,1.1-.31,1.7h0c-.31.5-.31,1.1-.31,1.7h0c-.31.5-.31,1.1-.31,1.7h0c-.31.5-.31,1.1-.31,1.7h0c-.31.5-.31,1.1-.31,1.7h0c-.31.5-.31,1.1-.31,1.7h0l-.31.6h.05-2.5c0-.7,0-1-.1-1.4l.7-.1v-.1c-.3-.5-.3-1-.3-1.5l.3-.1v-1.6.2-.1c.31-.5.31-1,.31-1.5h0c.31-.5.31-1.1.31-1.7h0c.31-.5.31-1.1.31-1.7h0c.31-.5.31-1.1.31-1.7h0c.1-.2.21-.3.21-.5-.1-.3,0-.5.31-.6ZM415.29,243.6h0v-.2c0-.1.1-.1.1-.2.1-.3.6-.2.6-.2h2.08c.11,0,.22.2.22.3v1.1h0c-.32.5-.32,1.1-.32,1.7h0c-.32.3-.32.7-.32,1.1h0c-.32.2-.32.5-.32.8h0c-.22.1-.32.3-.32.6h0c-.22.1-.22.2-.22.4h0c-.22,0-.32.1-.32.3h0c-.22,0-.32.1-.32.3h0c-.22,0-.43.1-.65.3h0c-.32,0-.54.1-.86.1-.22,0-.32-.1-.32-.3v-1h0c.2-.2.4-.4.5-.6h0c.2,0,.3-.1.4-.2h0c.2,0,.3-.1.3-.3h0c.2-.1.3-.3.3-.6h0c.3-.6.3-.7-.3-.8-.1,0-.3,0-.4-.1s-.8-.3-.8-.3v-.3l1-.1v-.1s0-1.2,0-1.7h0ZM422.29,246.7h0v.1c-.5.2-.5.4-.5.7h0c-.3.3-.5.7-.6,1.1h0c-.2,0-.3.1-.3.3h0c-.3.1-.6.3-.9.6h0c-.2,0-.5.1-.7.1-.3,0-1-.5-1-.5v-.7l1-.1v-.1s0-.3.2-.4h0c.2,0,.3-.1.3-.2h0c.2,0,.3-.1.3-.3h0c.3-.1.3-.3.3-.6h0c.2-.2.2-.4.2-.6s-.3-.1-.5-.2c-.1,0-.3,0-.4-.1-.1,0-.4-.2-.4-.2v-.7l1-.1v-.1s-.4-1-.4-1.5l.4-.1v-.1c-.1-.2.4,0,.4,0h1.8s.3-.3.8-.1v1c-.8.5-.8,1-.8,1.6h0c-.5.4-.5.8-.5,1.2h.3ZM219.29,243.3h0v.1c0,.5,0,1,0,1.5l1,.1v.1s-1.3.4-1.5.7c-.8-.1-1.5-.1-2.3,0-.1-.2-.2-.7-.2-.7v-.7l1-.1v-.1s-.6-.3-.6-.5c.1-.3.1-.7.1-1l-.1.1c.8-.1,1.6-.1,2.4-.1.2,0,.2.2.3.4.2.1.2.2.2.2h-.3ZM391.29,245.3h0v.2l-1,.4c-.8-.1-1.5-.1-2.3,0-.2-.3,0-.7-.1-1.1h0c.3-.4.3-.9.2-1.4q.1-.1,0-.2c.2-.2.3-.4.6-.2h1.9c.1-.2.3-.1.7.1v.8h0c-.7.4-.6.9,0,1.4ZM56.29,244.1h0v.2c-.3.5-.2,1-.3,1.5h0c-.1.1-.2.2-.4.3-.7-.1-1.4-.1-2.1,0-.3-.2-.3-.5-.3-.8h0c.3-.5.3-1.1.3-1.7h0c.2-.4.4-.7.9-.6h.8c.3,0,.7-.1.9.1.4.2,0,.6.2,1ZM109.69,248.6c-.1.2-.2.3-.3.4h-.1v-.5c0-1.1,0-1-1.1-1-.4,0-.8,0-1.2.1-.1-.1-.1-.2-.1-.3.9-.1,1.7-.1,3.4,0v.8c-.7.1-.7.3-.6.5ZM294.69,253h.6c0,.4-.1.7-.4,1h-.1s0-.1-.1-.1c-.1-.3-.1-.6,0-.9h0ZM12.99,243.3c.2,0,.3-.1.3-.2.3,0,.6-.1.8-.3.1,0,.3,0,.4.1.1,0,.2.1-.2.2v.8c.4.2.3.4.1.6-.26.13-.49.3-.7.5-.1.1-.1.2-.2.4-.3.2-.3.6-.4.9,0,.1.1.3.2.3.2,0,.4,0,.5.1.2,0,.3.2,1.5.4v.6l-1.5,1.8c0,.2-.2.4-.5.5h-1.4c-.9-.1-.9-.2-.7-1,.1-.3.1-.6.2-1,.2-1.3.5-2.6,1.1-3.8.2,0,.2-.1.3-.3,0-.3.1-.4.2-.6ZM7.93,249h-.91c-.18,0-.36-.18-.27-.36l.45-2.55c.09-.64.27-1.27.55-1.82.36-.82,1.09-1.27,1.91-1.45.12.02.25.05.36.09.09.36,0,.73-.18,1.09,0,.09-.18.18-.27.27-.55.27-.82.82-1,1.36-.09.27,0,.36.27.36h.36c.09,0,.18.18.18.27,0,.27,0,.55-.09.73l-.27,1.45c0,.18-.18.27-.36.27-.18.27-.45.27-.73.27h0ZM18.29,247.7c-.1-.3,0-.6,0-.9.1-.3.1-.5.2-.8h.2c.1.8.2,1.7,0,2.5-.1-.1-.1-.3-.2-.4,0-.2,0-.3-.2-.4h0ZM26.09,248.4c0-.2,0-.3.1-.5s.1-.4.2-.6c.2.1.2.4.3.6,0,.4,0,.8-.3,1.1-.1-.2,0-.5-.3-.6ZM355.29,104.7V23.3c0-.1.1-.1.2-.2s.2-.1.3-.1h67.11c.1,0,.3.2.4.4v17.7c0,.8-.1.9-.9.9h-47.9c-.1,0-.2.1-.2.2v143.4c0,.2-.2.4-.4.4h-18.6c-.2.3-.5.3-.7.2-.1,0-.1-.1-.3-.2v-1.7l1-79.6h0ZM352.89,21h-69c-.4-.8-.6-1.3-.6-1.3V2.2c.1-.4.1-.7.2-1.1,0-.1.1-.2.2-.2.2,0,.5-.1.7-.9h7.6l112.4,1,17.4-1h.7c.2.8.8,1.2.8,1.2v18.5c-.3.2-.5.4-.8.3h-1.5l-68.1,1ZM299.69,249.6c0-.2-.1-.3-.1-.5s-.1-.3-.2-.4c-.1-.3.2-.6.3-.9.1.1.2.3.3.4,0,.3,0,.6-.1.9,0,.2-.1.3-.2.5h0ZM299.99,246.7c0-.3.1-.5.3-.7h.1l.1.1c.1.3,0,.6-.2.9-.1-.2-.1-.3-.3-.3Z"/>
    <path class="cls-1" d="M299.99,247c.2,0,.2.2.3.3,0,.3,0,.7-.2.9-.1-.1-.2-.3-.3-.4,0-.3.1-.6.2-.8ZM291.89,247c0-.2,0-.4.1-.6,0,0,0-.1.1-.1l.1.1c.1.2.1.4,0,.6h-.3Z"/>
    <path class="cls-1" d="M292.29,247h-.2c.1.4.1.6,0,1h-.1.3v-1ZM27.19,247.8c-.1-.2-.1-.4-.3-.6.1-.2.1-.4.2-.6,0-.1.1-.1.2-.1v.1c.2.5.1.9-.1,1.2h0ZM18.29,246h0v.1c.3,0,.3-.1.4-.1l-.4.1v-.1ZM115.29,254.2c.2-.1.4-.2.5-.3.1.4-.2.7-.3,1,0,0-.1,0-.1.1,0,0,0-.1-.1-.1v-.7ZM283.49,42c-.1-.2-.1-.3-.2-.5v-18.3c0-.1.1-.1.2-.2h66.88c2.22,0,1.91-.3,1.91,1.8v160.8c0,.2-.2.3-.4.4h-19.49c-.3,0-.6,0-.8-.1-.1,0-.3-.2-.3-.3V44c0-.6.2-1.3-.1-1.9-.6-.2-1.21-.1-1.81-.1h-45.89ZM170.29,247.5c0,.1,0,.3.1.4l.3.3c0,.2-.2.3-.4.4-.1,0-.2,0-.2-.1-.1-.5-.1-.8.2-1h0ZM308.99,254.1c-.1.8-.3,1.5-.7,2.2-.3.5-.7.7-1.2.9-.5.1-.9.1-1.3-.2-.4-.4-.5-.9-.4-1.4.1-.4.4-.8.7-1,.1-.1.2-.1.4-.2.7-.3,1.5-.5,2.3-.5,0,.1.1.2.2.2ZM347.29,254.7c-.1.2-.2.8-.4,1.2-.3.7-.8,1.1-1.5,1.3-.5.1-.9.1-1.3-.3-.3-.4-.5-.8-.4-1.3s.4-.8.8-1.1c.2-.1.3-.2.5-.2.7-.2,1.3-.4,2-.4.1,0,.3.1.3.2.1.2,0,.3,0,.6h0ZM132.69,254c-.2.5-.3,1.1-.5,1.6-.3.6-.8,1-1.4,1.2-.8.2-1.5-.1-1.7-1-.1-.6.1-1.3.7-1.6l.6-.3c.7-.2,1.3-.4,2-.4.2,0,.3.1.3.3-.1.1-.1.2,0,.2q-.1,0,0,0h0ZM255.69,252h-1.7c-.2,0-.3-.2-.3-.4.09-.89.52-1.72,1.2-2.3.7-.6,1.9-.6,2.5.5.3.6.4,1.2.3,1.9,0,.1-.1.2-.2.2s-.3.1-.4.1c-.5.1-1,.1-1.4,0h0ZM181.89,252.5c-.6,0-1.2,0-1.8-.1-.1,0-.2-.2-.2-.3.1-.7.3-1.4.8-1.9.4-.4.8-.8,1.4-.8.7,0,1.3.3,1.6.9.19.41.3.85.3,1.3,0,.6-.1.8-.7.8-.5.1-.9.1-1.4.1h0ZM224.19,252h-1.7c-.3,0-.4-.2-.4-.5.1-.4.2-.9.5-1.3.18-.36.46-.67.8-.9.6-.5,1.9-.5,2.5.6.2.4.3.8.3,1.2.1.8,0,.9-.8.9h-1.2ZM330.49,259c-.1-.2,0-.5-.3-.6,0-.2.2-.3.3-.4.1,0,.2,0,.2.1.1.4.1.7-.2.9ZM382.79,248.1c0,.1,0,.2.1.4,0,.2,0,.3.2.4,0,.2-.1.3-.3.4,0,0-.2,0-.2-.1-.1-.4-.1-.8.2-1.1h0ZM141.39,248c0,.1.1.2.1.3s.1.3.2.3c-.1.1-.1.3-.2.4,0,.1-.1.1-.2.1v-.1c-.2-.4-.2-.7.1-1h0Z"/>
  </g>
</svg>