<?xml version="1.0" encoding="utf-8"?>
<!-- Generator: Adobe Illustrator 28.2.0, SVG Export Plug-In . SVG Version: 6.00 Build 0)  -->
<svg version="1.1" id="Layer_1" xmlns="http://www.w3.org/2000/svg" xmlns:xlink="http://www.w3.org/1999/xlink" x="0px" y="0px"
	 viewBox="0 0 328 213" style="enable-background:new 0 0 328 213;" xml:space="preserve">
<style type="text/css">
	.st0{display:none;}
	.st1{display:inline;}
	.st2{fill:none;}
	.st3{fill:#231F20;}
	.st4{fill:#FFFFFF;}
	.st5{fill:#F6E500;}
	.st6{fill:#BA2636;}
	.st7{fill:#D91B5D;}
	.st8{display:inline;fill:#00A651;}
	.st9{clip-path:url(#SVGID_00000053532772739451963590000009807879720865109401_);fill:#FFFFFF;}
	.st10{clip-path:url(#SVGID_00000120533095595045544220000015664380713412382127_);fill:#FFFFFF;}
</style>
<g id="Layer_1_00000091714820648527341570000011926669765291450790_">
	<g>
		<path d="M65.7,137.5c0.2-0.2,0.4-0.5,0.6-0.7c2.5-3.5,5.1-7.1,7.6-10.6c15.3-21.5,30.6-43,45.9-64.5c1.1-1.5,2.2-3.1,3.3-4.6
			c0.2-0.2,0.3-0.4,0.5-0.6c0.2-0.1,0.4-0.2,0.6-0.1c0.2,0,0.8,0.4,0.8,0.4s0,0.6,0,0.7c0,0.3,0,0.6,0,0.9c0,23.2,0,46.3,0,69.5
			c0,0.3,0,0.5,0,0.8c0,0.1,0,0.2,0,0.2l0.1,0.1h0.1c0.1-0.2,0.3-0.4,0.4-0.6c2.1-3.1,4.3-6.2,6.4-9.3
			c11.7-16.9,23.3-33.9,34.9-50.8c2.5-3.6,4.9-7.2,7.4-10.7c0.1-0.2,0.3-0.4,0.5-0.6c0.2-0.3,0.9-0.3,1.1,0.2c0,0.1,0.1,0.3,0.1,0.4
			c0,0.2,0,0.5,0,0.7c0,6.5,0,13,0,19.5c0,19.7,0,39.3,0,59c0,0.3,0,0.6,0,0.9c0,0.1,0.1,0.2,0.2,0.3c0.2,0-0.1,0,0,0c3,0,6,0,9.1,0
			c0.2,0,0.4,0,0.5,0c0.1,0,0.2-0.1,0.2-0.2c0-0.3,0-0.7,0-1c0-27.9,0-55.7,0-83.6c0-0.3,0-0.5,0-0.8c0-0.1,0-0.2,0-0.2
			c0-0.1-0.1-0.2-0.2-0.2c-0.3,0-0.5,0-0.8,0c-6.4,0-12.9,0-19.3,0c-0.2,0-0.3,0-0.5,0c-0.2,0-0.3,0-0.5,0.1
			c-0.1,0.2-0.3,0.4-0.4,0.6c-9.3,13.7-18.7,27.5-27.9,41.2c-0.7,1-1.4,2-2.1,3c0,0.1-0.1,0.1-0.2,0.1s-0.1-0.1-0.1-0.3
			c0-0.3,0-1,0-1V52.9V52c0.1-0.2,0-0.3-0.1,0H133h-18.1h-1.1h-0.5c-0.2-0.1-0.3,0.1-0.5,0.3c-5.6,8-11.2,16-16.7,24
			c-12.6,18.1-25.2,36.1-37.8,54.2c-1.5,2.1-2.9,4.2-4.4,6.3c-0.1,0.2-0.3,0.4-0.4,0.6c0,0.1,0,0.2,0.1,0.6h0.6h10.5
			C65.2,137.5,65.4,137.5,65.7,137.5z M79.2,138c0.2-0.3,0.3-0.5,0.5-0.7c8-11.7,16.1-23.4,24-35c2.9-4.2,5.8-8.5,8.7-12.7
			c0.1-0.2,0.3-0.4,0.4-0.6h0.1l0.1,0.1c0,0.3,0,0.5,0,0.8c0,15.3,0,30.7,0,45.9c0,0.3,0,0.6,0,0.9c0,0.2,0.1,0.3,0.3,0.3
			c0.2,0,0.4,0,0.6,0c5.2,0,10.4,0,15.6,0c1,0,0.7,0.1,1.3-0.7c2.3-3.3,4.6-6.6,6.9-9.9c8.6-12.3,17.1-24.5,25.7-36.8
			c0.1-0.2,0.3-0.4,0.5-0.6h0.1v-0.2c0,0.3,0,0.6,0,0.9c0,15.7,0,31.3,0,47c0,0.2,0,0.5,0,0.7c0,0.1,0,0.2,0,0.3
			c0,0.2,0.1,0.3,0.3,0.3s0.3,0,0.5,0c2.8,0,5.5,0,8.3,0c0.2,0,0.4,0,0.5,0c0.2,0,0.3-0.1,0.3-0.2c0-0.3,0-0.6,0-0.9
			c0-25.6,0-51.2,0-76.9c0-0.3,0-0.5,0-0.8c0-0.1,0-0.1,0-0.2l0,0h-0.1c-0.1,0.7-0.2,0.8-0.3,1c-0.8,1.2-1.7,2.4-2.5,3.7
			c-14.3,20.7-28.5,41.4-42.8,62.1c-1.2,1.8-2.5,3.6-3.7,5.4c-0.1,0.2-0.2,0.3-0.4,0.5c-0.2,0.2-0.6,0.3-0.9,0
			c-0.1-0.1-0.2-0.3-0.3-0.5c0-0.3,0-0.6,0-0.9c0-23.2,0-46.4,0-69.7c0-0.3,0-0.5,0-0.8c0-0.1,0-0.2,0-0.2l-0.1,0.4h-0.1
			c-0.2-0.3-0.4-0.1-0.5,0.2c-8,11.3-16.1,22.6-24.1,33.9c-8.9,12.4-17.7,24.9-26.6,37.3c-1.3,1.8-2.5,3.6-3.8,5.3
			c-0.1,0.2-0.8,0.6-0.8,0.6s0,0.6,0,0.7c0.1,0,0.2,0,0.2,0c3.8,0,7.6,0,11.3,0C79,138,79.1,138,79.2,138z M227,99.8
			c0,0,0-24.3,0-36.5c0-0.3,0-0.5,0-0.8c0-0.1,0-0.2,0-0.3s-0.1-0.2-0.2-0.2c-0.3,0-0.5,0-0.8,0c-11.7,0-23.3,0-35,0
			c-0.2,0-0.4,0-0.5,0c-0.1,0-0.2,0-0.2,0c-0.1,0-0.2,0.1-0.2,0.2c0,0.2,0,0.2,0,0.4c0,2.5,0,5.1,0,7.7c0,0.2,0,0.3,0,0.5
			c0,0.1,0.1,0.2,0.2,0.2c0.3,0,0.6,0,0.9,0c7.6,0,15.2,0,22.8,0c0.3,0,0.5,0,0.8,0c0.1,0,0.3,0.1,0.3,0.2c0,0.3,0,0.6,0,0.9
			c0,21.6,0,43,0,64.6c0,0.3,0,0.5,0,0.8c0,0.1,0,0.2,0,0.3c0,0.1,0.1,0.2,0.2,0.2c0.2,0,0.9,0,0.9,0h9.5h0.5
			c0.1-0.6,0.2-0.7-0.1-0.8v-0.9C226.1,124.2,227,99.8,227,99.8z M228,99.7c0,0,0,24.9,0,37.1c0,0.3,0,0.6,0,0.9c0,0.1,0,0.2,0,0.2
			c0,0.1,0.1,0.1,0.2,0.1c0.2,0,0.3,0,0.5,0c2.8,0,5.8,0,8.6,0c0.2,0,0.3,0,0.5,0c0.1,0,0.2-0.1,0.2-0.2c0-0.3,0-0.4,0-0.7
			c0-21.5,0-43.2,0-64.7c0-0.2,0-0.5,0-0.7c0-0.1,0-0.3,0-0.4c0-0.2,0-0.3,0.3-0.3s0.5,0,0.8,0c7.9,0,15.8,0,23.8,0
			c0.3,0,0.5,0,0.8,0c0.1,0,0.1,0,0.2,0l0.1-0.1c0-0.2,0-0.5,0-0.7c0-2.4,0-4.9,0-7.4c0-0.2,0-0.4,0-0.5c0-0.2-0.1-0.3-0.3-0.3
			c-0.3,0-1.6,0-1.6,0h-33.3h-0.7h-0.3c-0.1,0.1-0.2,0.2-0.8,0.3v1C227.5,75.3,228,99.7,228,99.7z M226.8,61c0,0,23.4,0,35.1,0
			c0.3,0,0.6,0,0.9,0c0.1,0,0.2-0.1,0.2-0.2c0-0.4,0-0.9,0-1.3c0-2.1,0-4.4,0-6.5c0-0.2,0-0.5,0-0.7c0-0.1-0.1-0.2-0.3-0.2
			c-0.1,0-0.3,0-0.4,0c-3,0-6.1,0-9.1,0c-16.3,0-32.6,0-49,0c-4.5,0-9,0-13.4,0c-0.1,0-0.3,0-0.4,0c-0.1,0-0.1,0-0.2,0
			c-0.1,0-0.2,0.1-0.2,0.2c0,0.2,0,0.3,0,0.3v7.4v0.4c0.3,0.3,0.4,0.3,0.7-0.3h0.8C203.3,60.6,226.8,61,226.8,61z"/>
		<path d="M61.9,141.2c0.1,0.2,0,0.5,0.1,0.8c0,1.5,0,3.3,0,5c0,2,0,4.2,0,6.2c0,0.2,0,0.5,0,0.7c0,0.1-0.1,0.2-0.3,0.2
			c-0.1,0-0.2,0-0.2,0c-0.8,0-1.4,0-2.2,0c-0.1,0-0.2,0-0.2,0c-0.1,0-0.2-0.1-0.2-0.2c0-0.2,0-0.5,0-0.7c0-1.9,0-3.8,0-5.7
			c0-0.1,0-0.3-0.1-0.4h-0.1l-0.1,0.1c-0.1,0.2-0.3,0.4-0.4,0.6c-1.2,1.8-2.3,3.8-3.6,5.6c-0.5,0.8-0.4,0.7-1.2,0.7
			c-0.5,0-1.7,0-2.4,0c-0.1,0-0.2-0.1-0.2-0.2c0-0.2,0-0.5,0-0.7c0-1.7,0-3.5,0-5.3c0-0.2,0-0.5,0-0.7c0-0.1,0-0.1-0.1-0.1
			c0,0-0.1,0-0.1,0.1c-0.2,0.2-0.3,0.4-0.5,0.6c-1.1,1.6-2.3,3.2-3.4,4.8c-0.4,0.5-0.6,1-1,1.5c0,0-0.1,0-0.1,0h-3.6
			c-0.2,0-0.2-0.1-0.1-0.3c0-0.1,0.1-0.1,0.1-0.2c0.1-0.1,0.1-0.2,0.2-0.3c2.7-3.8,5.4-7.7,8.1-11.5c0.5-0.8,0.4-0.7,1.3-0.7
			c0.6,0,1.1,0,1.8,0c0.1,0,0.2,0,0.3,0s0.2,0.1,0.2,0.2c0,0.2,0,0.5,0,0.7c0,1.5,0,2.9,0,4.4c0,0.2,0,0.4,0,0.6c0,0,0,0,0,0.1
			c0.1,0,0.1,0,0.1,0c0.1-0.2,0.3-0.4,0.4-0.6c1.2-1.6,2.3-3.2,3.5-4.9c0.4-0.6,0.4-0.6,1-0.6c0.7,0,1.4,0,2,0
			C61.6,141.1,61.7,141.1,61.9,141.2z"/>
		<path d="M121.2,147h3.1h0.5c0.1-0.3,0.1-0.2,0.2-0.1c0,0.1,0-0.1,0-0.1c0,1.3-0.2,2.5-0.8,3.7c-0.9,1.8-2.5,2.8-4.4,3.4
			c-0.9,0.2-2,0.2-3.1,0.1c-2.8-0.5-4.8-2.1-5.7-4.9c-0.8-2.8,0.2-6,2.9-7.6c0.8-0.5,1.7-0.8,2.6-0.9c0.4-0.1,0.9-0.1,1.4-0.1
			c2.1,0.1,3.9,0.8,5.4,2.4c0.5,0.5,0.8,1.2,1.2,1.9c0.1,0.2,0,0.3-0.3,0.3c-0.2,0-0.4,0-0.5,0c-0.7,0-1.4,0-2.1,0
			c-0.2,0-0.4,0-0.5,0c-0.1,0-0.3-0.1-0.3-0.2c-0.1-0.1-0.2-0.3-0.3-0.4c-0.8-0.8-1.8-1.2-2.9-1.1c-1.9,0.2-3.1,1.8-3.2,3.5
			c-0.1,0.7,0.1,1.6,0.4,2.2c0.6,1.3,1.7,1.9,3.1,2c0.4,0,0.9,0,1.4-0.2c0.8-0.3,1.5-0.7,1.8-1.6c0-0.1,0-0.2-0.1-0.2
			c-0.2,0-0.3,0-0.5,0H118c-0.6,0-1-0.4-1-1v-1.2c0,0,0.5-0.2,0.6-0.8h0.6C119.2,146.7,120.2,146.7,121.2,147z"/>
		<path d="M103.7,154.1c-1.9,0-3.5-0.6-4.8-1.7c-1.1-0.9-1.8-2.1-2-3.5c-0.6-4,1.9-6.8,4.9-7.5c2-0.5,3.9-0.1,5.6,1
			c1.4,0.9,2.3,2.3,2.7,3.9c0.6,3-0.8,5.8-3.3,7.1C106,153.7,104.8,154.1,103.7,154.1z M100.2,147.6c0,0.9,0.3,1.8,0.9,2.5
			c0.8,0.9,1.8,1.3,3,1.1c0.9-0.1,1.7-0.6,2.2-1.4c0.9-1.4,0.9-2.9,0.1-4.3c-0.5-0.8-1.3-1.4-2.3-1.5c-1.2-0.2-2.2,0.1-3,1
			C100.5,145.8,100.2,146.6,100.2,147.6z"/>
		<path d="M64,145.9c0-1.2,0-2.5,0-3.7c0-0.2,0-0.4,0-0.5s0.1-0.7,0.1-0.7h0.2c0.8,0,1.5,0,2.3,0c0.1,0,0.2,0,0.3,0.1l0.1,0.1
			c0,0.1,0,0.1,0,0.2c0,0.2,0,0.5,0,0.7c0,2,0,4.1,0,6.1c0,0.4,0,0.7,0,1.1c0,0.3,0.1,0.5,0.2,0.8c0.2,0.5,0.6,0.8,1.2,0.9
			c0.3,0,0.6,0,0.9-0.1c0.3-0.1,0.5-0.4,0.6-0.6c0.1-0.3,0.2-0.5,0.2-0.8s0-0.5,0-0.8c0-2.3,0-4.5,0-6.8c0-0.2,0-0.5,0-0.7
			c0-0.1,0.1-0.2,0.2-0.2c0.1,0,0.2,0,0.3,0c0.7,0,1.4,0,2.1,0c0.1,0,0.2,0,0.3,0s0.1,0.1,0.2,0.1c0,0.1,0,0.3,0,0.4
			c0,2.5,0,5.1,0,7.6c0,0.4,0,0.9-0.1,1.4c-0.2,1.4-0.8,2.3-1.8,2.9c-0.6,0.4-1.3,0.6-2,0.6c-0.3,0-0.8,0-0.8,0s-1.3,0-1.9-0.2
			c-1.3-0.5-2.5-1.9-3.4-3.6v-1.4C64,147.7,64,146.8,64,145.9z"/>
		<path d="M92.4,141c0.1,0,0.8,0,0.9,0c0.9,0,1.9,0,2.8,0c0.1,0,0.2,0,0.2,0l0.1,0.1c-0.1,0.2-0.2,0.4-0.3,0.5
			c-1.1,1.7-2.3,3.3-3.4,5.1c-0.1,0.2-0.3,0.4-0.4,0.7c0.1,0.3,0.3,0.4,0.4,0.7c1.2,1.8,2.5,3.4,3.6,5.2c0.1,0.1,0.2,0.3,0.3,0.5
			c0,0,0,0.2-0.1,0.2h-0.2c-1.1,0-2.1,0-3.1,0c-0.2,0-0.3-0.1-0.4-0.2c-0.1-0.2-0.3-0.4-0.4-0.6c-0.9-1.4-1.7-2.6-2.5-4
			c-0.1-0.1-0.1-0.2-0.2-0.2c0,0-0.5,0-0.6,0H89c0,0.2,0,0.3,0,0.5c0,1.2,0,2.5,0,3.7c0,0.2,0,0.4,0,0.6c0,0.1-0.1,0.2-0.2,0.2
			s-0.3,0-0.3,0c-0.7,0-1.5,0-2.1,0c-0.1,0-0.2,0-0.2,0c-0.1,0-0.2-0.1-0.2-0.2c0-0.2,0-0.3,0-0.5c0-3.8,0-7.6,0-11.6
			c0-0.6,0-0.7,0.6-0.7s1.3,0,1.9,0c0.1,0,0.3,0,0.4,0l0.1,0.1c0,0.2,0,0.3,0,0.5c0,1.4,0,2.7,0,4.1c0,0.1,0,0.2,0.1,0.3h0.1
			c0,0,0.1,0,0.1-0.1c0.1-0.2,0.2-0.3,0.3-0.5c0.9-1.4,1.7-2.6,2.5-4C92.1,141.4,92.2,141.2,92.4,141z"/>
		<path d="M81.1,145.7c-0.1-0.2-0.1-0.4-0.2-0.5c-0.1-0.3-0.4-0.5-0.6-0.5c-0.4-0.1-0.7,0-1,0.4c-0.3,0.3-0.3,0.9,0.1,1.2
			c0.2,0.2,0.4,0.3,0.6,0.4c0.4,0.2,0.7,0.4,1.2,0.5c0.5,0.2,0.8,0.4,1.3,0.6c0.3,0.1,0.5,0.3,0.7,0.5c0.7,0.6,1.1,1.5,1.1,2.4
			c0,0.4-0.1,0.8-0.2,1.2c-0.3,0.7-0.6,1.3-1.3,1.6c-0.6,0.4-1.3,0.5-1.9,0.5c-0.4,0-1.1,0-1.4,0c-0.6,0-1.3-0.2-1.9-0.5
			c-1.1-0.5-1.7-1.5-1.7-2.7c-0.1-0.8-0.1-0.7,0.7-0.7c0.6,0,1.4,0,2,0c0.1,0,0.2,0,0.3,0c0.1,0,0.2,0.1,0.2,0.2
			c0,0.2,0.1,0.4,0.1,0.5c0.1,0.3,0.3,0.5,0.5,0.7c0.7,0.5,1.6-0.1,1.7-0.8c0-0.3-0.1-0.5-0.3-0.7c-0.2-0.2-0.4-0.3-0.6-0.4
			c-0.5-0.2-0.8-0.4-1.3-0.5c-0.5-0.2-0.8-0.4-1.2-0.5c-0.4-0.2-0.6-0.5-0.9-0.7c-0.5-0.5-0.7-1.2-0.7-1.8c0-1,0.4-1.8,1.2-2.5
			c0.5-0.4,1-0.6,1.5-0.8c0.5-0.2,1-0.3,1.5-0.2c0.8,0.1,1.5,0.3,2.2,0.7c0.7,0.5,1.3,1.2,1.4,2.1c0,0.1,0.1,0.3,0.1,0.4
			c0,0.4,0,0.5-0.4,0.5c-0.7,0-1.3,0-2,0C81.3,145.7,81.1,145.7,81.1,145.7z"/>
		<path d="M127,147.6v-5.2v-0.7c-0.4-0.1-0.1-0.7-0.1-0.7s0.6,0,0.7,0c2,0,4,0,5.9,0c0.1,0,0.2,0,0.3,0s0.2,0.1,0.2,0.2
			c0,0.1,0,0.2,0,0.2c0,0.8,0,1.4,0,2.1c0,0.1,0,0.2-0.1,0.3l-0.1,0.1c-0.1,0-0.3,0-0.4,0c-0.9,0-1.8,0-2.7,0c-0.2,0-0.3,0-0.5,0
			c-0.1,0-0.1,0.1-0.2,0.1c0,0.5,0,1.1,0,1.8l0.1,0.1c0.1,0,0.3,0,0.4,0c0.9,0,1.8,0,2.7,0c0.7,0,0.8,0,0.7,0.8c0,0.5,0,1.1,0,1.6
			c0,0.1,0,0.3,0,0.4c0,0.1-0.1,0.2-0.2,0.2c-0.2,0-0.4,0-0.5,0c-0.8,0-1.7,0-2.5,0c-0.2,0-0.3,0-0.5,0c-0.1,0-0.1,0.1-0.2,0.1
			c0,0,0-0.1,0,0v1.5c0,0.2,0.2,0.4,0.4,0.4h2.7c0.2,0,0.5,0,0.7,0c0.1,0,0.2,0.1,0.2,0.3c0,0.4,0,0.8,0,1.3c0,0.3,0,0.7,0,1
			c0,0.2-0.1,0.3-0.3,0.3s-1,0-1,0h-5.6h-0.5c-0.1-0.1-0.2-0.2,0.4-0.3v-0.2v-0.6C126.6,151.1,126.6,149.3,127,147.6z"/>
		<path d="M135,147.6v-5.2v-0.6c0.7-0.3,0.8-0.3,1.1-0.8h0.6h3h2.3h0.5c0.1,0.4,0.5,0.5,0.5,0.5s0-0.1,0,0c0,0.7,0,1.6,0,2.3
			c0,0.1,0,0.1,0,0.1c0,0.1-0.1,0.1-0.2,0.1c-0.2,0-0.4,0-0.5,0c-0.9,0-1.7,0-2.7,0c-0.2,0-0.3,0-0.5,0l-0.1,0.1c0,0.1,0,0.3,0,0.4
			c0,1.2,0,1.4,0.1,1.4c0.4,0.1,0.8,0.1,1.2,0.1c0.7,0,1.8,0,1.8,0h0.3l0.6,0.1v0.1v2.3c-0.5,0.1-0.6,0.2-0.8,0.5h-0.8h-2h-0.5
			c-0.1-0.3-0.9-0.1-0.9-0.1v1.6c0,0,0.7,0.2,0.8,0.5h0.5h2.4h0.5c0.1-0.3,0.1-0.2-0.2-0.2v0.1v2.3c0.4,0.1,0.1,0.8,0.1,0.8h-0.5
			H136h-0.4c-0.2-0.6-0.3-0.7-0.6-0.9v-0.7C135.7,151.1,135,147.6,135,147.6z"/>
		<path d="M251.8,144.7c-0.1-0.1-0.2-0.2-0.3-0.3c-0.7-1-1.7-1.6-2.9-1.9c-2.3-0.6-4.5,0.4-5.7,1.9c-1.7,2.2-1.5,5.4,0.9,7.3
			c1.2,1,2.7,1.4,4.2,1.2c1.6-0.2,2.9-1,3.8-2.3c0.2-0.3,0.4-0.7,0.2-1v-0.2c0-0.1-0.2,0-0.5-0.4h-5.4h-0.6l-0.1,0.3
			c-0.1-0.3-0.1-0.6,0-0.9l0.1-0.4h0.5h3h4.4h0.5l0.1,0.4c0,0.1,0,0.2,0,0.3c-0.4,2.3-1.7,3.9-3.8,4.9c-1.2,0.6-2.4,0.8-3.7,0.6
			c-1.9-0.2-3.5-1.1-4.7-2.6c-0.9-1.1-1.3-2.3-1.4-3.7c0-1,0.2-2,0.7-2.9c0.9-1.7,2.3-2.8,4.2-3.4c0.7-0.2,1.4-0.3,2.1-0.3
			c2,0.1,3.7,0.8,5.1,2.3c0.3,0.3,0.5,0.6,0.7,0.9c0.1,0.2,0.1,0.3-0.2,0.3C252.6,144.7,252.2,144.7,251.8,144.7z"/>
		<path d="M192.7,141c0.1,0.2,0.3,0.4,0.4,0.6c2.1,2.9,4.1,5.8,6.2,8.7c0.2,0.2,0.3,0.5,0.5,0.7h0.1l0.1-0.1c0-0.2,0-0.2,0-0.2v-8
			v-0.5c-0.5-1-0.6-0.9,0.5-1.2h0.2c0.1,0.3,0.1,0.4,0.3,0.5v0.6v6.6v4.4v0.5c-0.1,0.1-0.3,0.4-0.3,0.4h-0.9h-0.1
			c-0.1-0.2-0.2-0.3-0.2-0.3c-0.1-0.2-0.3-0.4-0.4-0.6c-2.1-3.1-4.2-6.1-6.3-9.2c-0.5-0.8-0.6-0.8-0.6-0.7c-0.2,0.3-0.1,0.6-0.2,0.9
			v8.8c0.1,1,0.1,0.9-0.9,1.1h-0.2l0.1-0.3c0,0,0-0.5,0-0.6c0-0.2,0-0.4,0-0.6c0-3.5,0-7.1,0-10.6c0-0.2,0-0.5,0-0.7
			c0-0.1,0.1-0.2,0.2-0.2C191.6,141,192.1,141,192.7,141z"/>
		<path d="M209.5,154.1c-2.3,0-4.9-1.3-6.1-3.7c-0.4-0.7-0.6-1.5-0.6-2.3c-0.2-3,1.8-5.7,4.7-6.6c0.7-0.2,1.4-0.3,2.1-0.3
			c2.3,0.1,4.2,1,5.6,3c1.5,2.2,1.4,5-0.1,7.2c-1,1.4-2.4,2.3-4.1,2.6C210.4,154.1,209.9,154.1,209.5,154.1z M214.9,147.6
			c0-0.3,0-0.7-0.1-1c-0.6-2.7-3.1-4.7-6.3-4.2c-1.4,0.2-2.6,1-3.4,2.1c-1,1.4-1.3,3-0.8,4.7c0.9,2.9,4.3,4.7,7.4,3.2
			C213.8,151.5,214.8,149.9,214.9,147.6z"/>
		<path d="M232.3,154.1c-2.4,0-4.9-1.4-6-3.7c-0.5-1-0.7-2-0.6-3.1c0.1-2.5,1.8-5,4.7-5.9c0.7-0.2,1.4-0.3,2.1-0.3
			c2.4,0.1,4.3,1.1,5.6,3c1.6,2.3,1.4,5.3-0.4,7.4c-1,1.2-2.3,2-3.9,2.4C233.2,154.1,232.8,154.1,232.3,154.1z M232.4,142.3
			c-0.4,0-0.7,0-1,0.1c-1.9,0.4-3.3,1.4-4.1,3.2c-0.5,1.2-0.6,2.5-0.2,3.7c0.8,2.2,3.2,4.1,6.3,3.5c1.2-0.2,2.2-0.9,3-1.8
			c1.5-1.7,1.6-4.1,0.5-6C235.9,143.3,234.4,142.4,232.4,142.3z"/>
		<path d="M188,147.7v5.2v0.7c0.1,0.1,0,0.3-0.1,0.4H187c-0.1-0.1-0.2-0.2,0-0.3v-0.6v-3.4v-1.2v-0.3c-0.2-0.1-0.3-0.1-0.4-0.2
			c-0.1,0-0.2,0-0.3,0c-1.8,0-3.6,0-5.5,0c-0.1,0-0.2,0-0.3,0s-0.2,0.1-0.5,0.2v0.6v4.1v0.6c0.3,0.2,0.2,0.3,0,0.5h-0.2
			c-0.8-0.2-0.8-1-0.8-1v-10.9v-0.5c0-0.1,0.1-0.2,0.2,0.4h0.9h0.1c0.1-0.5,0.1-0.5-0.2-0.4v0.6v4v0.5l0.4,0.3h0.4h2.7h2.6h0.5
			c0.1-0.2,0.2-0.3,0.4-0.5v-0.7v-3.6v-0.7c-0.2-0.1-0.1-0.2,0-0.5h0.9c0.1,0.3,0.2,0.4,0.1,0.6v0.7V147.7z"/>
		<path d="M175.6,144c-0.2-0.2-0.3-0.4-0.5-0.6c-0.9-0.9-1.9-1.4-3.2-1.6c-1.5-0.2-2.8,0.2-4.1,1.1c-1.2,0.9-1.8,2.2-2,3.8
			c-0.1,0.7,0,1.4,0.2,2c0.7,1.9,2,3.2,4,3.7c1.3,0.3,2.5,0.1,3.7-0.5c0.5-0.3,1-0.7,1.4-1.1c0.1-0.2,0.3-0.3,0.4-0.5
			c0.1-0.1,0.2-0.2,0.3-0.2c0.3,0,0.6,0,0.9,0c0.1,0,0.2,0.1,0.1,0.2c0,0.1-0.1,0.2-0.2,0.3c-1.1,1.6-2.5,2.5-4.5,2.9
			c-3.3,0.6-6.5-1.2-7.6-4.3c-1-3.1,0.2-6.4,3.3-7.9c0.9-0.5,2-0.7,3.1-0.7c2.3,0,4.2,0.9,5.6,2.7c0.1,0.1,0.2,0.3,0.3,0.5
			c0,0.1,0,0.2-0.1,0.2C176.3,144,175.9,144,175.6,144C175.7,144.1,175.6,144.1,175.6,144z"/>
		<path d="M156,147.6c0,0,0-3,0-4.7c0-0.2,0-0.5,0-0.7c0-0.1,0.1-0.2,0.3-0.2s0.4,0,0.5,0c1.8,0,3.7,0,5.5,0c0.2,0,0.4,0,0.5,0
			s0.2,0.1,0.2,0.3s0,0.1,0,0.1s-0.5,0.2-0.6-0.4h-0.6h-4h-0.6c-0.1,0.6-0.2,0.7-0.2,0.9c0,0.1,0,0.3,0,0.4c0,1,0,2.1,0,3.1
			c0,0.1,0,0.3,0,0.4c0,0.2,0.3,0.2,0.3,0.2s0.6,0,0.8,0c1.3,0,2.6,0,3.9,0c0.2,0,0.5,0,0.8,0c0.1,0,0.2,0.1,0.2,0.2
			c0,0.2,0,0.5,0,0.6c0,0.1-0.1,0.2-0.3,0.2c-0.2,0-0.4,0-0.7,0c-1.3,0-2.6,0-4,0c-0.2,0-0.4,0-0.7,0c-0.2,0-0.3,0.1-0.3,0.3
			c0,1.2,0,4.1,0,4.1v0.2c-0.1,0.1,0,0.1,0.1,0.4h0.6h4.1c0.8-0.2,0.8-0.2,1.2,0.6v0.2c-0.5,0.1-0.6,0.2-0.7,0.2c-0.1,0-0.2,0-0.3,0
			c-2,0-4,0-5.9,0c-0.1,0-0.3,0-0.4,0l-0.7-0.1v-0.2v-0.6C155.7,151.1,156,147.6,156,147.6z"/>
		<path d="M263.4,141.4c0.4-0.1,0.8-0.1,1.2,0l0.1,0.1c0,0.1-0.1,0.2-0.1,0.4c-0.5,0.9-1,1.8-1.5,2.8c-0.8,1.4-1.5,2.9-2.3,4.3
			l-0.1,0.1c-0.4,0.7-0.3,0.5-0.7,1.3v2.7v0.5c0.4,0.1,0.3,0.2,0.2,0.4h-0.9c-0.1-0.2-0.2-0.3-0.3-0.4V153v-2.8c0.1-0.3,0-0.7-0.1-1
			c-1.2-2.3-2.5-4.7-3.7-7c-0.1-0.2-0.2-0.4-0.3-0.6c0-0.1,0-0.2,0.1,0.4h0.9c0.2-0.6,0.3-0.5,0.4-0.4c0.1,0.2,0.2,0.4,0.3,0.6
			c0.9,1.7,1.8,3.5,2.7,5.2c0.1,0.2,0.2,0.4,0.3,0.6c0,0.1,0.2,0.1,0.3,0c0.1-0.2,0.2-0.4,0.3-0.6c0.9-1.8,1.9-3.5,2.8-5.3
			C263.2,141.9,263.3,141.7,263.4,141.4z"/>
		<path d="M218,148.5c0-1.6,0-6.2,0-6.2v-0.7c0.3-0.1,0.4-0.1,0.5-0.2c0.3-0.1,0.6,0,0.9,0c0.1,0,0.2,0.1-0.4,0.2v0.2v0.7v9.1v0.8
			c0.6,0.1,0.8,0.6,0.8,0.6s0.2,0,0.5,0c1.2,0,2.4,0,3.7,0c0.2,0,0.5,0,0.8,0c0.2,0,0.3,0.1,0.3,0.3c0,0.2,0,0.4,0,0.5
			c0,0.1-0.1,0.2-0.2,0.2c-0.1,0-0.3,0-0.4,0c-1.9,0-3.8,0-5.7,0c-0.1,0-0.3,0-0.4,0c-0.1,0-0.2-0.1-0.2-0.2c0-0.2,0-0.5,0-0.6
			C218,151.7,218,150.1,218,148.5z"/>
		<path d="M150,148.2v-4.8v-0.7c0.2-0.1,0.1-0.7,0.1-0.7s-0.6,0-0.7,0c-0.6,0-1.2,0-1.8,0c-0.1,0-0.3,0-0.4,0s-0.1-0.1-0.2-0.1
			c0-0.2,0-0.3,0-0.5c0-0.4,0.1-0.5,0.5-0.5c1.4,0,2.8,0,4.1,0c0.6,0,1.3,0,1.9,0c0.1,0,0.3,0,0.4,0c0.1,0,0.1,0.1,0.1,0.2
			c0,0.2,0,0.4,0,0.5s-0.1,0.3-0.3,0.3c-0.2,0-0.2,0-0.2,0H152h-0.3c-0.1,0.5-0.2,0.6-0.7,0.7v0.8v9.4v0.8c0.5,0.1,0.4,0.2,0.3,0.3
			h-0.2c-0.9-0.1-0.9,0-1.1-1V148.2z"/>
	</g>
</g>
<g id="Layer_4" class="st0">
	<g class="st1">
		<g>
			<path d="M110.8,92.1c0,1.7-0.4,3-1.2,3.9s-2.1,1.3-4,1.3h-2.4v4.5h-2.9V87.2h5.4c1.6,0,2.9,0.4,3.8,1.1S110.8,90.4,110.8,92.1z
				 M107.7,92.1c0-0.8-0.2-1.4-0.7-1.8s-1.3-0.5-2.4-0.5h-1.5v4.9h1.2c1.1,0,1.8-0.1,2.2-0.2s0.7-0.4,0.9-0.8
				C107.6,93.3,107.7,92.8,107.7,92.1z"/>
			<path d="M122.5,96.2c0,1.8-0.4,3.2-1.3,4.3c-0.8,1-2.2,1.5-4,1.5c-3.5,0-5.3-1.9-5.3-5.8c0-1.9,0.4-3.3,1.3-4.3
				c0.8-1,2.2-1.5,4-1.5s3.1,0.5,4,1.5C122.1,92.9,122.5,94.4,122.5,96.2z M119.7,96.2c0-1.2-0.2-2.1-0.6-2.6
				c-0.4-0.6-1-0.8-1.9-0.8s-1.5,0.3-1.9,0.9s-0.6,1.4-0.6,2.6s0.2,2,0.6,2.6s1,0.8,1.9,0.8s1.5-0.3,1.9-0.8
				C119.5,98.3,119.7,97.4,119.7,96.2z"/>
			<path d="M130.9,101.7v-1.1c-1.1,1-2.2,1.5-3.4,1.5c-1.2,0-2.1-0.3-2.7-1c-0.6-0.6-0.9-1.5-0.9-2.5c0-0.8,0.2-1.4,0.5-1.9
				s0.8-0.9,1.4-1.2c0.6-0.3,1.5-0.5,2.7-0.6l2.3-0.2v-0.5c0-0.6-0.2-1-0.6-1.3c-0.4-0.2-0.9-0.3-1.6-0.3c-0.6,0-1.1,0.1-1.5,0.3
				c-0.4,0.2-0.7,0.5-0.9,0.8l-2.1-1.3c0.4-0.6,0.9-1.1,1.7-1.4c0.8-0.3,1.7-0.5,2.9-0.5c1.7,0,2.9,0.3,3.7,0.9s1.1,1.6,1.1,2.9v7.4
				C133.5,101.7,130.9,101.7,130.9,101.7z M130.7,96.6l-1.4,0.1c-1,0.1-1.7,0.3-2.1,0.6s-0.6,0.7-0.6,1.3c0,0.5,0.1,0.8,0.4,1
				s0.6,0.3,1.1,0.3c0.3,0,0.7-0.1,1.2-0.3c0.5-0.2,0.9-0.5,1.4-0.9V96.6z"/>
			<path d="M142.4,93.3c-0.3-0.1-0.6-0.2-1.1-0.2s-1,0.1-1.4,0.4s-0.9,0.6-1.4,1.1v7.1h-2.7v-11h2.7v1.6c0.5-0.5,1-0.9,1.5-1.2
				c0.5-0.3,1.1-0.5,1.8-0.5c0.6,0,1,0.1,1.2,0.2L142.4,93.3z"/>
			<path d="M152.7,100.1c-0.4,0.6-1,1.1-1.7,1.4s-1.5,0.5-2.6,0.5c-1.8,0-3.1-0.5-4-1.4c-0.9-1-1.4-2.4-1.4-4.3
				c0-1.8,0.4-3.3,1.3-4.3c0.9-1,2.2-1.5,3.9-1.5c0.9,0,1.8,0.2,2.5,0.5s1.3,0.8,1.7,1.4l-2,1.4c-0.2-0.3-0.5-0.6-0.9-0.7
				c-0.3-0.2-0.7-0.2-1.3-0.2c-0.9,0-1.6,0.3-2,0.8c-0.4,0.6-0.6,1.4-0.6,2.6s0.2,2,0.6,2.6c0.4,0.5,1.1,0.8,2.1,0.8
				c0.4,0,0.8-0.1,1.1-0.2s0.7-0.4,1-0.8L152.7,100.1z"/>
			<path d="M161.2,101.7v-6c0-1.2-0.1-1.9-0.3-2.3s-0.6-0.6-1.1-0.6c-0.8,0-1.8,0.5-2.9,1.6v7.3h-2.7V86.1h2.7v6
				c0.6-0.6,1.2-1,1.8-1.3s1.3-0.4,1.9-0.4c1.2,0,2.1,0.3,2.6,1s0.7,1.7,0.7,2.9v7.3L161.2,101.7L161.2,101.7z"/>
			<path d="M182.8,99.3c-0.6,0.9-1.4,1.6-2.3,2s-2,0.7-3.3,0.7c-4.5,0-6.7-2.5-6.7-7.5c0-2.6,0.6-4.5,1.7-5.7
				c1.1-1.2,2.8-1.8,4.9-1.8c1.4,0,2.6,0.2,3.5,0.7s1.6,1.1,2,1.9l-2.3,1.8c-0.3-0.5-0.6-0.9-0.9-1.1c-0.3-0.2-0.6-0.4-1-0.5
				s-0.8-0.2-1.3-0.2c-1.2,0-2.1,0.4-2.7,1.1c-0.6,0.8-0.9,2-0.9,3.8c0,1.7,0.3,2.9,0.9,3.7s1.5,1.2,2.8,1.2c0.9,0,1.5-0.2,2-0.5
				s0.9-0.8,1.3-1.3L182.8,99.3z"/>
			<path d="M191,93.3c-0.3-0.1-0.6-0.2-1.1-0.2s-1,0.1-1.4,0.4s-0.9,0.6-1.4,1.1v7.1h-2.7v-11h2.7v1.6c0.5-0.5,1-0.9,1.5-1.2
				c0.5-0.3,1.1-0.5,1.8-0.5c0.6,0,1,0.1,1.2,0.2L191,93.3z"/>
			<path d="M194.4,96.9c0,1,0.3,1.7,0.7,2.1s1.1,0.6,2,0.6c0.5,0,1-0.1,1.4-0.2s0.8-0.4,1.1-0.8l2,1.4c-0.4,0.6-1,1.1-1.7,1.4
				s-1.7,0.5-2.9,0.5c-1.8,0-3.2-0.5-4-1.4c-0.9-0.9-1.3-2.4-1.3-4.3c0-3.9,1.8-5.9,5.3-5.9c1.6,0,2.7,0.4,3.6,1.3
				c0.8,0.9,1.2,2.2,1.2,3.9v1.3L194.4,96.9L194.4,96.9z M199,95c0-1.7-0.7-2.5-2.2-2.5c-0.5,0-0.9,0.1-1.2,0.2
				c-0.3,0.2-0.6,0.4-0.7,0.7c-0.2,0.3-0.3,0.8-0.4,1.5h4.5V95z"/>
			<path d="M205.8,96.9c0,1,0.3,1.7,0.7,2.1s1.1,0.6,2,0.6c0.5,0,1-0.1,1.4-0.2s0.8-0.4,1.1-0.8l2,1.4c-0.4,0.6-1,1.1-1.7,1.4
				s-1.7,0.5-2.9,0.5c-1.8,0-3.2-0.5-4-1.4c-0.9-0.9-1.3-2.4-1.3-4.3c0-3.9,1.8-5.9,5.3-5.9c1.6,0,2.7,0.4,3.6,1.3
				c0.8,0.9,1.2,2.2,1.2,3.9v1.3L205.8,96.9L205.8,96.9z M210.4,95c0-1.7-0.7-2.5-2.2-2.5c-0.5,0-0.9,0.1-1.2,0.2
				c-0.3,0.2-0.6,0.4-0.7,0.7c-0.2,0.3-0.3,0.8-0.4,1.5h4.5V95z"/>
			<path d="M221.6,101.7l-2.9-4.5l-1.1,1.1v3.4H215V86.1h2.7V95l3.7-4.3h3.1l-4.1,4.6l4.4,6.4H221.6z"/>
			<path d="M237.1,101.7h-7v-2.3h2v-9.9h-2v-2.3h7v2.3h-2v9.9h2V101.7z"/>
			<path d="M246.2,101.7v-6c0-1.1-0.1-1.9-0.3-2.3s-0.6-0.6-1.2-0.6c-0.8,0-1.8,0.5-2.9,1.6v7.3h-2.7v-11h2.7v1.4
				c0.6-0.6,1.2-1,1.8-1.3s1.3-0.4,1.9-0.4c1.1,0,2,0.3,2.5,0.9c0.6,0.6,0.8,1.6,0.8,3v7.3L246.2,101.7L246.2,101.7z"/>
			<path d="M258.5,101.7v-1.1c-0.5,0.4-1,0.8-1.6,1c-0.6,0.3-1.2,0.4-1.9,0.4c-1.4,0-2.4-0.5-3.2-1.5c-0.7-1-1.1-2.4-1.1-4.2
				c0-1.9,0.4-3.3,1.2-4.3s1.9-1.5,3.4-1.5c0.5,0,1,0.1,1.6,0.3c0.5,0.2,1,0.5,1.3,0.8v-5.4h2.7v15.6h-2.4V101.7z M258.3,93.8
				c-0.3-0.3-0.6-0.5-1.1-0.7c-0.4-0.2-0.9-0.3-1.3-0.3c-0.7,0-1.3,0.3-1.7,0.9s-0.7,1.5-0.7,2.5c0,1.1,0.2,1.9,0.5,2.5
				c0.4,0.6,0.9,0.9,1.7,0.9c0.4,0,0.9-0.1,1.4-0.3c0.5-0.2,0.9-0.5,1.2-0.8V93.8z"/>
			<path d="M266.3,87.7c0,0.5-0.1,0.9-0.4,1.1s-0.6,0.3-1.1,0.3c-0.6,0-1-0.1-1.2-0.4c-0.2-0.2-0.3-0.6-0.3-1c0-0.5,0.1-0.8,0.3-1.1
				c0.2-0.2,0.6-0.3,1.1-0.3s0.9,0.1,1.2,0.3S266.3,87.2,266.3,87.7z M263.5,101.7v-11h2.7v11H263.5z"/>
			<path d="M275.1,101.7v-1.1c-1.1,1-2.2,1.5-3.4,1.5c-1.2,0-2.1-0.3-2.7-1c-0.6-0.6-0.9-1.5-0.9-2.5c0-0.8,0.2-1.4,0.5-1.9
				s0.8-0.9,1.4-1.2c0.6-0.3,1.5-0.5,2.7-0.6l2.3-0.2v-0.5c0-0.6-0.2-1-0.6-1.3c-0.4-0.2-0.9-0.3-1.6-0.3c-0.6,0-1.1,0.1-1.5,0.3
				c-0.4,0.2-0.7,0.5-0.9,0.8l-2.1-1.3c0.4-0.6,0.9-1.1,1.7-1.4c0.8-0.3,1.7-0.5,2.9-0.5c1.7,0,2.9,0.3,3.7,0.9s1.1,1.6,1.1,2.9v7.4
				C277.7,101.7,275.1,101.7,275.1,101.7z M274.9,96.6l-1.4,0.1c-1,0.1-1.7,0.3-2.1,0.6s-0.6,0.7-0.6,1.3c0,0.5,0.1,0.8,0.4,1
				s0.6,0.3,1.1,0.3c0.3,0,0.7-0.1,1.2-0.3c0.5-0.2,0.9-0.5,1.4-0.9V96.6z"/>
			<path d="M287.1,101.7v-6c0-1.1-0.1-1.9-0.3-2.3c-0.2-0.4-0.6-0.6-1.2-0.6c-0.8,0-1.8,0.5-2.9,1.6v7.3H280v-11h2.7v1.4
				c0.6-0.6,1.2-1,1.8-1.3c0.6-0.3,1.3-0.4,1.9-0.4c1.1,0,2,0.3,2.5,0.9c0.6,0.6,0.8,1.6,0.8,3v7.3L287.1,101.7L287.1,101.7z"/>
			<path d="M300.6,98.5c0,0.7-0.2,1.3-0.5,1.9s-0.9,0.9-1.6,1.2c-0.7,0.3-1.4,0.4-2.3,0.4c-2.3,0-3.9-0.6-4.7-1.9l2-1.4
				c0.3,0.4,0.7,0.7,1.1,0.9c0.4,0.1,0.9,0.2,1.4,0.2c1.3,0,1.9-0.4,1.9-1.1c0-0.3-0.2-0.6-0.5-0.8c-0.4-0.2-0.9-0.4-1.7-0.5
				c-1.5-0.3-2.5-0.8-3.1-1.4s-0.9-1.3-0.9-2.3s0.4-1.8,1.1-2.4s1.8-0.9,3.3-0.9c1,0,1.8,0.2,2.6,0.5c0.7,0.3,1.3,0.8,1.7,1.4
				l-2,1.4c-0.5-0.7-1.3-1.1-2.4-1.1c-0.6,0-1,0.1-1.3,0.3c-0.3,0.2-0.4,0.4-0.4,0.7c0,0.3,0.1,0.5,0.4,0.7s0.8,0.4,1.5,0.5
				c1.2,0.3,2.1,0.6,2.7,0.9c0.5,0.3,0.9,0.7,1.2,1.1C300.4,97.3,300.6,97.9,300.6,98.5z"/>
		</g>
		<g>
			<path d="M101.2,109.2v2.8h3.9v1.2h-3.9v4.5h-1.3v-9.6h5.8v1.2L101.2,109.2L101.2,109.2z"/>
			<path d="M109,117.7v-9.6h5.9v1.2h-4.6v2.8h3.9v1.2h-3.9v3.3h4.6v1.2L109,117.7L109,117.7z"/>
			<path d="M125.4,112.9c0,1.2-0.2,2.1-0.5,2.8s-0.8,1.2-1.4,1.5s-1.5,0.5-2.7,0.5h-2.5v-9.6h2.4c1.1,0,2,0.2,2.7,0.5
				s1.1,0.8,1.4,1.5C125.3,110.8,125.4,111.7,125.4,112.9z M124.1,112.9c0-0.9-0.1-1.6-0.3-2.2s-0.5-0.9-1-1.1s-1.1-0.4-2-0.4h-1.1
				v7.3h1.1c0.8,0,1.5-0.1,2-0.4c0.5-0.2,0.8-0.6,1-1.1C124,114.6,124.1,113.8,124.1,112.9z"/>
			<path d="M128.9,117.7v-9.6h5.9v1.2h-4.6v2.8h3.9v1.2h-3.9v3.3h4.6v1.2L128.9,117.7L128.9,117.7z"/>
			<path d="M143.8,117.7l-2.5-3.9h-1.7v3.9h-1.3v-9.6h3c1.2,0,2.1,0.2,2.6,0.7s0.8,1.1,0.8,2c0,0.8-0.2,1.4-0.5,1.9
				s-0.8,0.8-1.5,0.9l2.6,4.1H143.8z M143.4,110.9c0-0.6-0.2-1.1-0.5-1.3c-0.3-0.2-0.8-0.4-1.6-0.4h-1.7v3.4h1.6
				c0.5,0,1-0.1,1.3-0.2s0.5-0.3,0.7-0.5C143.3,111.7,143.4,111.3,143.4,110.9z"/>
			<path d="M147.5,117.7l3.3-9.6h1.7l3.3,9.6h-1.4l-0.8-2.5h-3.9l-0.8,2.5H147.5z M150,114h3.1l-1.6-4.7L150,114z"/>
			<path d="M158.8,117.7v-9.6h1.3v8.5h4.4v1.2L158.8,117.7L158.8,117.7z"/>
			<path d="M179.2,115.1c0,0.9-0.3,1.6-0.9,2.1c-0.6,0.5-1.5,0.7-2.6,0.7c-0.9,0-1.6-0.2-2.2-0.5s-1.1-0.8-1.4-1.4l1-0.7
				c0.5,1,1.4,1.4,2.5,1.4c0.7,0,1.2-0.1,1.6-0.4s0.6-0.7,0.6-1.2c0-0.3-0.1-0.5-0.2-0.7c-0.1-0.2-0.3-0.4-0.5-0.5s-0.4-0.2-0.7-0.3
				c-0.3-0.1-0.5-0.2-0.8-0.2c-0.5-0.1-0.9-0.2-1.3-0.4c-0.4-0.1-0.8-0.3-1.1-0.5s-0.5-0.4-0.7-0.7c-0.2-0.3-0.3-0.7-0.3-1.2
				c0-0.9,0.3-1.5,0.8-2c0.6-0.5,1.4-0.7,2.5-0.7c0.9,0,1.6,0.2,2.1,0.5s0.9,0.7,1.2,1.2l-1,0.7c-0.3-0.4-0.6-0.7-0.9-1
				c-0.4-0.2-0.8-0.3-1.4-0.3c-0.6,0-1.1,0.1-1.5,0.4s-0.5,0.6-0.5,1.1c0,0.2,0.1,0.5,0.2,0.6s0.3,0.3,0.4,0.4
				c0.2,0.1,0.4,0.2,0.7,0.3s0.6,0.2,1,0.3c0.4,0.1,0.9,0.2,1.2,0.4c0.4,0.1,0.7,0.3,1,0.5s0.5,0.5,0.7,0.8
				C179.2,114.2,179.2,114.6,179.2,115.1z"/>
			<path d="M182.7,117.7v-9.6h5.9v1.2H184v2.8h3.9v1.2H184v3.3h4.6v1.2L182.7,117.7L182.7,117.7z"/>
			<path d="M197.6,117.7l-2.5-3.9h-1.7v3.9h-1.3v-9.6h3c1.2,0,2.1,0.2,2.6,0.7s0.8,1.1,0.8,2c0,0.8-0.2,1.4-0.5,1.9
				s-0.8,0.8-1.5,0.9l2.6,4.1H197.6z M197.2,110.9c0-0.6-0.2-1.1-0.5-1.3s-0.8-0.4-1.6-0.4h-1.7v3.4h1.6c0.5,0,1-0.1,1.3-0.2
				s0.5-0.3,0.7-0.5C197.1,111.7,197.2,111.3,197.2,110.9z"/>
			<path d="M205.8,117.7h-1.7l-3-9.6h1.3l2.6,8.4l2.6-8.4h1.3L205.8,117.7z"/>
			<path d="M215.3,117.7h-3.9v-1.1h1.3v-7.4h-1.3v-1.1h3.9v1.1H214v7.4h1.3V117.7z"/>
			<path d="M226.1,116c-0.3,0.5-0.6,0.9-0.9,1.1c-0.3,0.3-0.7,0.4-1.1,0.6s-0.9,0.2-1.5,0.2c-1.4,0-2.5-0.4-3.2-1.3
				c-0.7-0.8-1-2.1-1-3.8c0-1.7,0.3-2.9,1-3.8c0.7-0.8,1.7-1.3,3.1-1.3c0.6,0,1.1,0.1,1.5,0.2s0.8,0.3,1.1,0.6
				c0.3,0.2,0.6,0.6,0.8,1l-1.1,0.7c-0.2-0.3-0.4-0.6-0.6-0.8c-0.2-0.2-0.5-0.3-0.8-0.4s-0.6-0.2-1-0.2c-1,0-1.7,0.3-2.1,1
				c-0.5,0.6-0.7,1.6-0.7,2.9s0.2,2.2,0.7,2.9c0.4,0.7,1.2,1,2.2,1c0.5,0,1-0.1,1.4-0.3c0.4-0.2,0.8-0.6,1.1-1.1L226.1,116z"/>
			<path d="M229.3,117.7v-9.6h5.9v1.2h-4.6v2.8h3.9v1.2h-3.9v3.3h4.6v1.2L229.3,117.7L229.3,117.7z"/>
			<path d="M245.3,115.1c0,0.9-0.3,1.6-0.9,2.1c-0.6,0.5-1.5,0.7-2.6,0.7c-0.9,0-1.6-0.2-2.2-0.5s-1.1-0.8-1.4-1.4l1-0.7
				c0.5,1,1.4,1.4,2.5,1.4c0.7,0,1.2-0.1,1.6-0.4s0.6-0.7,0.6-1.2c0-0.3-0.1-0.5-0.2-0.7c-0.1-0.2-0.3-0.4-0.5-0.5s-0.4-0.2-0.7-0.3
				c-0.3-0.1-0.5-0.2-0.8-0.2c-0.5-0.1-0.9-0.2-1.3-0.4c-0.4-0.1-0.8-0.3-1.1-0.5s-0.5-0.4-0.7-0.7s-0.3-0.7-0.3-1.2
				c0-0.9,0.3-1.5,0.8-2c0.6-0.5,1.4-0.7,2.5-0.7c0.9,0,1.6,0.2,2.1,0.5s0.9,0.7,1.2,1.2l-1,0.7c-0.3-0.4-0.6-0.7-0.9-1
				c-0.4-0.2-0.8-0.3-1.4-0.3c-0.6,0-1.1,0.1-1.5,0.4s-0.5,0.6-0.5,1.1c0,0.2,0.1,0.5,0.2,0.6s0.3,0.3,0.4,0.4
				c0.2,0.1,0.4,0.2,0.7,0.3s0.6,0.2,1,0.3c0.4,0.1,0.9,0.2,1.2,0.4c0.4,0.1,0.7,0.3,1,0.5s0.5,0.5,0.7,0.8
				C245.2,114.2,245.3,114.6,245.3,115.1z"/>
		</g>
		<g>
			<g>
				<polyline class="st2" points="53.7,123 55.2,125.2 56.8,123.1 				"/>
				<polygon points="53.6,81.3 55.1,79.4 56.6,81.4 56.6,98 53.6,98 				"/>
				<polygon points="33,103.7 31.1,102.2 33,100.7 44.2,100.7 44.2,103.7 				"/>
				<polygon points="56.6,123.1 55.1,125 53.6,123.1 53.6,106.4 56.6,106.4 				"/>
				<polygon points="77.4,100.7 79.3,102.2 77.3,103.7 66.6,103.7 66.6,100.7 				"/>
				<path d="M55.2,125.3l-4.3-5.5v-13.3H36.1H36l-5.2-4.3l5.3-4.2H51V84.6v-0.1l4.1-5.4l4.2,5.4V98h14.8h0.1l5.3,4.1l-5.3,4.4H59.4
					v13.3L55.2,125.3z M51.3,119.7l3.9,5l3.9-5v-13.5h15l4.9-4l-5-3.8H59V84.7l-3.9-4.9l-3.8,4.9v13.6h-15l-4.8,3.8l4.7,3.9h15
					L51.3,119.7L51.3,119.7z"/>
				<g>
					<path class="st3" d="M55,118.6c-8.9,0-16.2-7.3-16.2-16.2S46.1,86.2,55,86.2s16.2,7.3,16.2,16.2
						C71.2,111.3,63.9,118.6,55,118.6z M55,86.5c-8.7,0-15.8,7.1-15.8,15.8s7.1,15.8,15.8,15.8s15.8-7.1,15.8-15.8
						S63.7,86.5,55,86.5z M55.1,112.8c-5.8,0-10.5-4.7-10.5-10.5s4.7-10.5,10.5-10.5s10.5,4.7,10.5,10.5
						C65.6,108.1,60.9,112.8,55.1,112.8z M55.1,92.1c-5.6,0-10.2,4.6-10.2,10.2s4.6,10.2,10.2,10.2s10.2-4.6,10.2-10.2
						C65.2,96.7,60.7,92.1,55.1,92.1z"/>
				</g>
				<g>
					<path class="st3" d="M42.3,103.1c-0.4,0-0.8-0.4-0.8-0.8s0.4-0.8,0.8-0.8c0.4,0,0.8,0.4,0.8,0.8S42.8,103.1,42.3,103.1z"/>
				</g>
				<g>
					<path class="st3" d="M67.8,103c-0.4,0-0.8-0.4-0.8-0.8s0.4-0.8,0.8-0.8s0.8,0.4,0.8,0.8C68.6,102.6,68.2,103,67.8,103z"/>
				</g>
				<g>
					<path d="M79.4,102.2c0,0-0.2,0.1-0.1,0.3c0,0.1,0.1,0.1,0.1,0.1s-0.1,0.1-0.1,0.3c0,0.2,0.1,0.2,0.1,0.2s-0.1,0.1-0.1,0.2
						s0,0.1,0,0.1l-0.2-0.2L79,104l-1.1-0.4l0.1,0.6h-0.7l0.2,0.7c0,0-0.4,0.1-0.6,0.3c-0.2,0.2-0.2,0.3-0.2,0.3h0.6l-0.4,0.3
						L77,106l-0.1,0.3l0.7,0.3l-0.7,0.9v0.6l0.8-0.5l-0.3,1.3v1.7c0,0,0.2-0.5,0.3-0.6c0.1-0.1,0.2-0.2,0.2-0.2s-0.3,0.9-0.5,1.4
						c-0.2,0.4-0.1,0.6-0.1,0.6s-0.2,1-0.2,1.7c0,0.6-0.1,1.4-0.1,1.6s0,0.2,0,0.2l0.2-0.3l-0.1,0.3c0,0,0,2.2,0,2.4
						c0,0.2,0,0.3,0,0.3h0.2l-0.1,0.3c0,0,0,1.6,0,1.8c0,0.2,0.2,0.7,0.3,0.9c0.1,0.3,0.6,1.1,1.1,1.7s0.8,0.9,0.8,1s0.1,0.4,0,0.4
						s-0.8,0-1,0.1s-0.2,0-0.3,0.1c-0.1,0-0.6,0.3-0.6,0.3l0.1,0.2c0,0,0.3,0,0.6-0.1c0.2,0,0.2-0.1,0.5-0.1s0.6,0.1,0.7,0
						s0.3-0.3,0.3-0.3s0.1,0.4-0.1,0.5c-0.2,0.2-1.2,0.5-1.4,0.6c-0.2,0.1-0.5,0.3-0.5,0.5s0.5,0.2,0.5,0.2s0-0.4,0.1-0.5
						s0.3-0.1,0.6-0.1c0.3,0,0.5-0.1,0.7-0.3c0.2-0.2,0.3-0.3,0.4-0.7c0-0.4,0-0.4,0-0.4s0-0.2,0.5-0.4c0.5-0.2,0.9-0.5,1-0.5
						c0.1-0.1,0.4-0.2,0.4-0.2s0.1-1.2,0.2-1.5s0.2-0.3,0.2-0.3s0.6-3.8,0.6-4.2c0-0.4,0.1-0.7,0.1-0.7s-1.3-0.4-2-2.1
						s-0.9-2.9-0.9-3s0,1.8,0.1,2.2c0.2,0.4,1.2,2.8,1.3,3.1c0.1,0.3,0.6,1.5,0.3,2.4c-0.3,0.9-0.5,0.8-0.5,0.8s0.2-0.2,0.4-0.8
						c0.1-0.6,0-1.6-0.4-2.5s-1.1-2.5-1.1-2.7c-0.1-0.2-0.2-0.6-0.2-1s-0.1-1.4-0.1-1.7c0-0.3-0.3-2.5-0.3-2.7s0.5,2.1,0.5,2.2
						s0.2,0.4,0.2,0.6c0,0.3,0.2,1.5,0.8,2.6c0.6,1.1,1,1.5,1.7,2c0.2,0.1,0.3,0.2,0.3,0.2s0-1,0-1.4c-0.1-0.3-0.6-1.5-0.7-1.8
						c-0.2-0.3-0.2-0.3-0.2-0.3s0.5,0.6,0.6,1c0.2,0.5,0.2,0.4,0.2,0.4s0.2-1.1,0.1-2.2c-0.2-1-0.3-1.7-0.3-1.7s0.3,0.3,0.7,1.3
						c0.5,1,0.4,1.1,0.4,1.2s0.1,0.1,0.1,0.1h0.3l-0.1-0.9c0-0.1-0.7-1.1-0.8-1.3c-0.1-0.2-0.4-0.8-0.6-1.1C82,109,82,109,82,109
						s0-0.1,0.1,0c0.1,0,0.1-0.3-0.1-0.5s-0.4-0.4-0.4-0.4s0.4,0.3,0.5,0.4s0.3,0.2,0.3,0s-0.1-0.5-0.2-0.5c0-0.1-0.2-0.3-0.2-0.3
						s1.3,1.1,1.5,1.5s0.4,0.9,0.5,1s0.1,0.3,0.1,0.3l0.2-0.2l-0.1-0.5l-0.2-0.4c0,0-0.7-1-0.9-1.1c-0.1-0.2-0.6-0.5-0.6-0.5
						s0.2-0.1,0.3,0c0.1,0.1-0.1-0.6-0.2-0.7s-0.4-0.5-0.5-0.5s0.4-0.1,0.5,0c0.2,0.1,0.5,0.2,0.6,0.3c0.1,0.1-0.2-0.5-0.4-0.7
						c-0.2-0.2-0.7-0.5-0.8-0.5c0-0.1,0-0.1,0.1-0.2s0.6-0.2,0.7-0.3c0.1-0.1,0.2-0.2-0.1-0.2c-0.4,0-0.8,0-0.8-0.1s0-0.3,0.1-0.4
						c0.1-0.2,0.2-0.2,0.3-0.3c0,0-0.2-0.1-0.3-0.1c-0.1,0-0.1-0.1-0.1-0.1s-0.4-1-0.7-1.2c-0.2-0.2-0.3-0.4-0.5-0.5
						s-0.7-0.3-0.9-0.2C79.8,101.9,79.5,102.1,79.4,102.2z"/>
					<path class="st4" d="M82.6,115.9c0,0-0.1,0-0.3-0.2c-0.7-0.5-1.1-0.9-1.7-2s-0.8-2.4-0.8-2.6c0-0.3-0.2-0.5-0.2-0.6
						s-0.6-2.5-0.5-2.2c0,0.2,0.3,2.4,0.3,2.7c0,0.3,0.1,1.4,0.1,1.7c0,0.4,0.2,0.8,0.2,1c0.1,0.2,0.8,1.8,1.1,2.7
						c0.4,0.9,0.5,1.9,0.4,2.5s-0.4,0.8-0.4,0.8s0.3,0.1,0.5-0.8c0.3-0.9-0.2-2.1-0.3-2.4c-0.1-0.3-1.2-2.7-1.3-3.1
						c-0.2-0.4-0.1-2.3-0.1-2.2c0,0.1,0.1,1.3,0.9,3c0.7,1.7,2,2.1,2,2.1L82.6,115.9z"/>
					<path class="st4" d="M81.1,108.5c0,0-0.1-0.7-0.2-0.8c-0.1-0.2-0.2-0.3-0.3-0.4c-0.1-0.1-0.1-0.2-0.1-0.2l0.3,0.1
						c0.1,0,0.3-2.9-0.1-3.5c-0.1-0.1-0.6,0.5-0.7,0.6c-0.1,0-0.2-0.7-0.3-0.8c-0.1-0.1-0.2,0.7-0.2,0.8c0,0-0.3-0.6-0.4-0.6
						c0,0,0,0.7-0.1,0.8c-0.1,0.1-0.6-0.2-0.8-0.2c0,0,0,0.4,0,0.6v0.1c0,0-0.4-0.1-0.6,0c-0.2,0,0.2,0.2,0.3,0.3
						c0.1,0.1,0.1,0.1,0.1,0.1s-0.3,0.2-0.5,0.3c-0.2,0.1-0.1,0.1-0.1,0.1s0.4,0.1,0.4,0.2c0.1,0.1-0.5,0.5-0.6,0.6s0.7,0.2,0.7,0.2
						s-0.2,0.7-0.2,0.8c-0.1,0.1,0.5-0.1,0.5-0.1s0,0.8,0,0.9S79,108,79,108l0.4,0.4c0,0,0.1-0.5,0.1-0.6s0.3,0.4,0.4,0.4
						c0,0.1,0.3-0.4,0.3-0.4S81.1,108.3,81.1,108.5z"/>
					<path class="st4" d="M81.3,105.3c0,0-0.1,0.6-0.1,0.8c0,0.2,0,0.7,0,0.7s0.5,0.1,0.5,0.2c0.1,0.1,0-0.2,0.1-0.3
						c0-0.2-0.1-0.4-0.1-0.4s-0.3-0.1-0.3-0.2c0.1,0,0.1-0.1,0.2-0.1s0.1,0,0.1,0v-0.8c0,0,0-0.1-0.1-0.1L81.3,105.3z"/>
					<path class="st4" d="M81.9,105.8c0,0,0.1-0.4,0.2-0.3c0.1,0,0.8,0.6,0.7,0.6c-0.1,0-0.3,0-0.4-0.1c-0.1,0-0.2,0-0.3,0
						C81.9,106.1,82,105.8,81.9,105.8z"/>
					<path class="st4" d="M82.2,106.5c0,0,0.2,0.2,0.3,0.3c0.1,0.1,0.2,0.3,0.2,0.4s0,0-0.2,0S82,107,82,107s0-0.5,0-0.6
						C82,106.4,82.1,106.5,82.2,106.5z"/>
					<path class="st4" d="M81.3,107.5c0.1,0.2,0.7,0.5,0.8,0.6c0.1,0.1,0.1-0.1,0-0.4c-0.1-0.2-0.5-0.5-0.6-0.5l-0.2-0.2
						C81.2,107,81.1,107.2,81.3,107.5z"/>
					<path class="st4" d="M78.1,121.4c0,0,0.4,0.8,1.2,1.6c0,0,0.4,0.3,0.5,0.3s0.6-0.3,0.8-0.4c0.2-0.1,0.6-0.6,0.6-0.6
						s0.2-0.7,0.3-1c0-0.3,0-0.4,0-0.4s-1-0.9-1.2-1.2c-0.2-0.3-0.2-0.5-0.2-0.5s-0.6-3.6-0.8-5.2c-0.2-1.6-0.2-2.1-0.2-2.1
						s-0.2,0.3-0.2,0.6c-0.1,0.3,0.1,3.1,0.3,4.3c0.2,1.1,0.2,2,0.2,2S78.2,120.9,78.1,121.4z"/>
					<path class="st4" d="M79.8,109.3c0,0,0.4,0.2,0.5,0.6c0.1,0.2,0.2,1.8,0.4,2.3c0.1,0.4,0.3,0.6,0.5,0.7
						c0.1,0.1-0.3-0.4-0.4-1.2c-0.1-0.7-0.2-1.4-0.2-1.6C80.5,109.9,80.4,109.3,79.8,109.3z"/>
					<path class="st4" d="M79.8,108.4c0,0,0.7,0.7,1.2,1c0.6,0.5,0.9,1.1,0.8,1.7c0,0.2-0.2-0.7-0.6-1.3
						C81.1,109.7,79.9,108.7,79.8,108.4z"/>
					<path class="st4" d="M78,115.9c0,0,0.2-0.4,0.3-0.5c0.1-0.1,0.5-0.5,0.3-1.4c-0.1-0.7-0.2-1.8,0-2.1c0.2-0.3,0.2-0.3,0.3-0.5
						c0.1-0.1-0.1,0-0.3,0.3c-0.2,0.3,0.1-0.8,0.2-1.2c0.1-0.5,0.1-0.7,0.1-0.7s-0.4,1.1-0.7,2.4c-0.3,1.3-0.2,1-0.2,1.3
						c0,0.1,0.2-0.7,0.5-1.1c0.1-0.1,0.1,0.7,0.1,1.1c0.1,0.6,0,1.2-0.1,1.4C78.4,115.1,78,115.6,78,115.9z"/>
					<path class="st4" d="M77.8,119.4c0,0,0-0.3,0.2-0.6c0.2-0.1,0.2-0.5,0.2-0.6s0.3,0.4,0.1,0.7c-0.2,0.3-0.3,0.5-0.4,0.9
						C77.9,119.9,77.8,119.4,77.8,119.4z"/>
					<path class="st4" d="M77.4,118.6c0,0,0.4-0.7,0.6-1.5c0.1-0.4,0.1-0.7,0.1-0.7S78.3,117.6,77.4,118.6z"/>
					<path class="st4" d="M78.6,109.6c0,0-0.2-0.8,0.4-1.3C79,108.2,78.5,109.5,78.6,109.6z"/>
					<path class="st4" d="M81.4,108.1c0,0,0,0.3,0,0.4c0,0,0.3,0.2,0.4,0.2c0,0,0.2,0,0.1-0.1C81.9,108.5,81.5,108.1,81.4,108.1z"/>
				</g>
				<path class="st4" d="M81.3,105l0.4-0.1c0,0,0.2-0.5,0.3-0.6c0-0.1-0.7,0-0.7,0C81.2,104.2,81.3,104.9,81.3,105z"/>
				<path class="st4" d="M81.2,103.9c0,0-0.2-0.4-0.3-0.8c0-0.1,0.1-0.4,0.1-0.4c-0.1-0.2,0.6,0.9,0.7,1
					C81.8,103.9,81.2,103.9,81.2,103.9z"/>
				<g>
					<path class="st5" d="M80.7,102.4c0,0.1-0.3,0.2-0.6,0.2c-0.3,0-0.6-0.1-0.6-0.2s0.3-0.2,0.6-0.2
						C80.4,102.2,80.7,102.3,80.7,102.4z"/>
					<path class="st3" d="M80.1,102.7c-0.3,0-0.6-0.1-0.6-0.2s0.3-0.2,0.6-0.2c0.3,0,0.6,0.1,0.6,0.2S80.5,102.7,80.1,102.7z
						 M80.1,102.2c-0.3,0-0.5,0.1-0.5,0.2s0.2,0.2,0.5,0.2s0.5-0.1,0.5-0.2S80.5,102.2,80.1,102.2z"/>
				</g>
				<g>
					<path class="st6" d="M80.7,102.9c0,0.1-0.3,0.2-0.6,0.2c-0.3,0-0.6-0.1-0.6-0.2s0.3-0.2,0.6-0.2
						C80.4,102.7,80.7,102.8,80.7,102.9z"/>
					<path class="st3" d="M80.1,103.1c-0.3,0-0.6-0.1-0.6-0.2s0.3-0.2,0.6-0.2c0.3,0,0.6,0.1,0.6,0.2S80.5,103.1,80.1,103.1z
						 M80.1,102.7c-0.3,0-0.5,0.1-0.5,0.2s0.2,0.2,0.5,0.2s0.5-0.1,0.5-0.2C80.7,102.8,80.5,102.7,80.1,102.7z"/>
				</g>
				<g>
					<path class="st5" d="M80.7,103.3c0,0.1-0.3,0.2-0.6,0.2c-0.3,0-0.6-0.1-0.6-0.2s0.3-0.2,0.6-0.2
						C80.4,103.1,80.7,103.2,80.7,103.3z"/>
					<path class="st3" d="M80.1,103.6c-0.3,0-0.6-0.1-0.6-0.2s0.3-0.2,0.6-0.2c0.3,0,0.6,0.1,0.6,0.2S80.5,103.6,80.1,103.6z
						 M80.1,103.1c-0.3,0-0.5,0.1-0.5,0.2s0.2,0.2,0.5,0.2s0.5-0.1,0.5-0.2C80.7,103.2,80.4,103.1,80.1,103.1z"/>
				</g>
				<g>
					<path d="M77.6,126.5c-0.3,0-0.5-0.2-0.5-0.5s0.2-0.5,0.5-0.5s0.5,0.2,0.5,0.5S77.9,126.5,77.6,126.5z"/>
				</g>
				<g>
					<path d="M77.3,125.1c-0.3,0-0.5-0.2-0.5-0.5s0.2-0.5,0.5-0.5s0.5,0.2,0.5,0.5C77.7,124.9,77.5,125.1,77.3,125.1z"/>
				</g>
				<g>
					<path d="M83.9,112.9c-0.3,0-0.5-0.2-0.5-0.5s0.2-0.5,0.5-0.5s0.5,0.2,0.5,0.5C84.3,112.7,84.1,112.9,83.9,112.9z"/>
				</g>
				<g>
					<path d="M84.4,110.6c-0.3,0-0.5-0.2-0.5-0.5s0.2-0.5,0.5-0.5s0.5,0.2,0.5,0.5S84.7,110.6,84.4,110.6z"/>
				</g>
				<g>
					<path d="M30.9,102.2c0,0,0.2,0.1,0.1,0.3c0,0.1-0.1,0.1-0.1,0.1s0.1,0.1,0.1,0.3c0,0.2-0.1,0.2-0.1,0.2s0.1,0.1,0.1,0.2
						s0,0.1,0,0.1l0.2-0.2l0.1,0.8l1.1-0.4l-0.1,0.6H33l-0.2,0.7c0,0,0.4,0.1,0.6,0.3c0.2,0.2,0.2,0.3,0.2,0.3H33l0.4,0.3l-0.1,0.2
						l0.1,0.3l-0.7,0.3l0.7,0.9v0.6l-0.8-0.5l0.3,1.3v1.7c0,0-0.2-0.5-0.3-0.6s-0.2-0.2-0.2-0.2s0.3,0.9,0.5,1.4
						c0.2,0.4,0.1,0.6,0.1,0.6s0.2,1,0.2,1.7c0,0.6,0.1,1.4,0.1,1.6s0,0.2,0,0.2L33,115l0.1,0.3c0,0,0,2.2,0,2.4c0,0.2,0,0.3,0,0.3
						h-0.2l0.1,0.3c0,0,0,1.6,0,1.8c0,0.2-0.2,0.7-0.3,0.9c-0.1,0.3-0.6,1.1-1.1,1.7c-0.5,0.6-0.8,0.9-0.8,1s-0.1,0.4,0,0.4
						s0.8,0,1,0.1s0.2,0,0.3,0.1c0.1,0,0.6,0.3,0.6,0.3l-0.1,0.2c0,0-0.3,0-0.6-0.1c-0.2,0-0.2-0.1-0.5-0.1s-0.6,0.1-0.7,0
						s-0.3-0.3-0.3-0.3s-0.1,0.4,0.1,0.5c0.2,0.2,1.2,0.5,1.4,0.6s0.5,0.3,0.5,0.5s-0.5,0.2-0.5,0.2s0-0.4-0.1-0.5s-0.3-0.1-0.6-0.1
						c-0.3,0-0.5-0.1-0.7-0.3c-0.2-0.2-0.3-0.3-0.4-0.7c0-0.4,0-0.4,0-0.4s0-0.2-0.5-0.4c-0.5-0.2-0.9-0.5-1-0.5
						c-0.1-0.1-0.4-0.2-0.4-0.2s-0.1-1.2-0.2-1.5s-0.2-0.3-0.2-0.3s-0.6-3.8-0.6-4.2c0-0.4-0.1-0.7-0.1-0.7s1.3-0.4,2-2.1
						s0.9-2.9,0.9-3s0,1.8-0.1,2.2c-0.2,0.4-1.2,2.8-1.3,3.1c-0.1,0.3-0.6,1.5-0.3,2.4c0.3,0.9,0.5,0.8,0.5,0.8s-0.2-0.2-0.4-0.8
						c-0.1-0.6,0-1.6,0.4-2.5s1.1-2.5,1.1-2.7c0.1-0.2,0.2-0.6,0.2-1s0.1-1.4,0.1-1.7c0-0.3,0.3-2.5,0.3-2.7s-0.5,2.1-0.5,2.2
						s-0.2,0.4-0.2,0.6c0,0.3-0.2,1.5-0.8,2.6c-0.6,1.1-1,1.5-1.7,2c-0.2,0.1-0.3,0.2-0.3,0.2s0-1,0-1.4c0.1-0.3,0.6-1.5,0.7-1.8
						c0.2-0.3,0.2-0.3,0.2-0.3s-0.5,0.6-0.6,1c-0.2,0.5-0.2,0.4-0.2,0.4s-0.2-1.1-0.1-2.2c0.2-1,0.3-1.7,0.3-1.7s-0.3,0.3-0.7,1.3
						c-0.5,1-0.4,1.1-0.4,1.2s-0.1,0.1-0.1,0.1h-0.3l0.1-0.9c0-0.1,0.7-1.1,0.8-1.3c0.1-0.2,0.4-0.8,0.6-1.1
						c0.3-0.3,0.2-0.4,0.2-0.4s0-0.1-0.1,0c-0.1,0-0.1-0.3,0.1-0.5s0.4-0.4,0.4-0.4s-0.4,0.3-0.5,0.4s-0.3,0.2-0.3,0
						s0.1-0.5,0.2-0.5c0-0.1,0.2-0.3,0.2-0.3s-1.3,1.1-1.5,1.5s-0.4,0.9-0.5,1s-0.1,0.3-0.1,0.3l-0.2-0.2l0.1-0.5l0.2-0.4
						c0,0,0.7-1,0.9-1.1c0.1-0.2,0.6-0.5,0.6-0.5s-0.2-0.1-0.3,0c-0.1,0.1,0.1-0.6,0.2-0.7s0.4-0.5,0.5-0.5s-0.4-0.1-0.5,0
						c-0.2,0.1-0.5,0.2-0.6,0.3c-0.1,0.1,0.2-0.5,0.4-0.7c0.2-0.2,0.7-0.5,0.8-0.5c0-0.1,0-0.1-0.1-0.2s-0.6-0.2-0.7-0.3
						c-0.1-0.1-0.2-0.2,0.1-0.2c0.4,0,0.8,0,0.8-0.1s0-0.3-0.1-0.4c-0.1-0.2-0.2-0.2-0.3-0.3c0,0,0.2-0.1,0.3-0.1
						c0.1,0,0.1-0.1,0.1-0.1s0.4-1,0.7-1.2c0.2-0.2,0.3-0.4,0.5-0.5s0.6-0.2,0.8-0.1C30.5,102,30.8,102,30.9,102.2z"/>
					<path class="st6" d="M29.2,108.4c0,0,0.1-0.7,0.2-0.8c0.1-0.2,0.2-0.3,0.3-0.4c0.1-0.1,0.1-0.2,0.1-0.2l-0.3,0.1
						c-0.1,0-0.3-2.9,0.1-3.5c0.1-0.1,0.6,0.5,0.7,0.6c0.1,0,0.2-0.7,0.3-0.8c0.1-0.1,0.2,0.7,0.2,0.8c0,0,0.3-0.6,0.4-0.6
						c0,0,0,0.7,0.1,0.8c0.1,0.1,0.6-0.2,0.8-0.2c0,0,0,0.4,0,0.6v0.1c0,0,0.4-0.1,0.6,0c0.2,0-0.2,0.2-0.3,0.3
						c-0.1,0.1-0.1,0.1-0.1,0.1s0.3,0.2,0.5,0.3c0.2,0.1,0.1,0.1,0.1,0.1s-0.4,0.1-0.4,0.2c-0.1,0.1,0.5,0.5,0.6,0.6
						s-0.7,0.2-0.7,0.2s0.2,0.7,0.2,0.8c0.1,0.1-0.5-0.1-0.5-0.1s0,0.8,0,0.9s-0.8-0.4-0.8-0.4l-0.4,0.4c0,0-0.1-0.5-0.1-0.6
						s-0.3,0.4-0.4,0.4c0,0.1-0.3-0.4-0.3-0.4S29.2,108.3,29.2,108.4z"/>
					<path class="st6" d="M29,105.3c0,0,0.1,0.6,0.1,0.8c0,0.2,0,0.7,0,0.7s-0.5,0.1-0.5,0.2c-0.1,0.1,0-0.2-0.1-0.3
						c0-0.2,0.1-0.4,0.1-0.4s0.3-0.1,0.3-0.2c-0.1,0-0.1-0.1-0.2-0.1s-0.1,0-0.1,0v-0.8c0,0,0-0.1,0.1-0.1
						C28.7,105.1,29,105.3,29,105.3z"/>
					<path class="st6" d="M28.3,105.8c0,0-0.1-0.4-0.2-0.3c-0.1,0-0.8,0.6-0.7,0.6c0.1,0,0.3,0,0.4-0.1c0.1,0,0.2,0,0.3,0
						C28.3,106,28.3,105.8,28.3,105.8z"/>
					<path class="st6" d="M28.1,106.5c0,0-0.2,0.2-0.3,0.3c-0.1,0.1-0.2,0.3-0.2,0.4s0,0,0.2,0s0.5-0.2,0.5-0.2s0-0.5,0-0.6
						C28.3,106.4,28.1,106.5,28.1,106.5z"/>
					<path class="st6" d="M29,107.4c-0.1,0.2-0.7,0.5-0.8,0.6c-0.1,0.1-0.1-0.1,0-0.4c0.1-0.2,0.5-0.5,0.6-0.5l0.2-0.2
						C29.1,107,29.2,107.1,29,107.4z"/>
					<path class="st6" d="M32.2,121.4c0,0-0.4,0.8-1.2,1.6c0,0-0.4,0.3-0.5,0.3s-0.6-0.3-0.8-0.4c-0.2-0.1-0.6-0.6-0.6-0.6
						s-0.2-0.7-0.3-1c0-0.3,0-0.4,0-0.4s1-0.8,1.2-1.2c0.2-0.3,0.2-0.5,0.2-0.5s0.6-3.6,0.8-5.2c0.2-1.6,0.2-2.1,0.2-2.1
						s0.2,0.3,0.2,0.6c0.1,0.3-0.1,3.1-0.3,4.3c-0.2,1.1-0.2,2-0.2,2S32.1,120.9,32.2,121.4z"/>
					<path class="st4" d="M30.5,109.3c0,0-0.4,0.2-0.5,0.6c-0.1,0.2-0.2,1.8-0.4,2.3c-0.1,0.4-0.3,0.6-0.5,0.7
						c-0.1,0.1,0.3-0.4,0.4-1.2c0.1-0.7,0.2-1.4,0.2-1.6C29.8,109.8,29.9,109.3,30.5,109.3z"/>
					<path class="st4" d="M30.4,108.4c0,0-0.7,0.7-1.2,1c-0.6,0.5-0.9,1.1-0.8,1.7c0,0.2,0.2-0.7,0.6-1.3
						C29.2,109.6,30.4,108.6,30.4,108.4z"/>
					<path class="st4" d="M32.2,115.9c0,0-0.2-0.4-0.3-0.5c-0.1-0.1-0.5-0.5-0.3-1.4c0.1-0.7,0.2-1.8,0-2.1
						c-0.2-0.3-0.2-0.3-0.3-0.5c-0.1-0.1,0.1,0,0.3,0.3c0.2,0.3-0.1-0.8-0.2-1.2c-0.1-0.5-0.1-0.7-0.1-0.7s0.4,1.1,0.7,2.4
						s0.2,1,0.2,1.3c0,0.1-0.2-0.7-0.5-1.1c-0.1-0.1-0.1,0.7-0.1,1.1c-0.1,0.6,0,1.2,0.1,1.4C31.9,115.1,32.3,115.5,32.2,115.9z"/>
					<path class="st4" d="M32.5,119.4c0,0,0-0.3-0.2-0.6c-0.2-0.1-0.2-0.5-0.2-0.6s-0.3,0.4-0.1,0.7c0.2,0.3,0.3,0.5,0.4,0.9
						C32.4,119.9,32.5,119.4,32.5,119.4z"/>
					<path class="st4" d="M32.9,118.6c0,0-0.4-0.7-0.6-1.5c-0.1-0.4-0.1-0.7-0.1-0.7S31.9,117.6,32.9,118.6z"/>
					<path class="st4" d="M31.7,109.6c0,0,0.2-0.8-0.4-1.3C31.3,108.2,31.7,109.5,31.7,109.6z"/>
					<path class="st6" d="M28.8,108.1c0,0,0,0.3,0,0.4c0,0-0.3,0.2-0.4,0.2c0,0-0.2,0-0.1-0.1S28.8,108.1,28.8,108.1z"/>
				</g>
				<path class="st6" d="M29,104.9l-0.4-0.1c0,0-0.2-0.5-0.3-0.6c0-0.1,0.7,0,0.7,0C29.1,104.2,29,104.9,29,104.9z"/>
				<path class="st4" d="M29.1,103.9c0,0,0.3-0.5,0.2-0.8c-0.1-0.6-0.6,0.5-0.6,0.7C28.5,103.9,29.1,103.8,29.1,103.9z"/>
				<path class="st6" d="M30.1,102.2c-0.3,0-0.5,0.1-0.5,0.2s0.2,0.2,0.5,0.2s0.5-0.1,0.5-0.2C30.7,102.3,30.5,102.2,30.1,102.2z"/>
				<g>
					<path class="st4" d="M30.1,102.6c-0.3,0-0.5,0.1-0.5,0.2s0.2,0.2,0.5,0.2s0.5-0.1,0.5-0.2C30.7,102.8,30.5,102.6,30.1,102.6z"
						/>
				</g>
				<g>
					<path class="st6" d="M30.1,103.1c-0.3,0-0.5,0.1-0.5,0.2s0.2,0.2,0.5,0.2s0.5-0.1,0.5-0.2C30.7,103.2,30.5,103.1,30.1,103.1z"
						/>
				</g>
				<g>
					<path d="M32.6,126.5c-0.3,0-0.5-0.2-0.5-0.5s0.2-0.5,0.5-0.5s0.5,0.2,0.5,0.5S32.9,126.5,32.6,126.5z"/>
				</g>
				<g>
					<path d="M33,125.1c-0.3,0-0.5-0.2-0.5-0.5s0.2-0.5,0.5-0.5s0.5,0.2,0.5,0.5S33.3,125.1,33,125.1z"/>
				</g>
				<g>
					<path d="M26.4,112.9c-0.3,0-0.5-0.2-0.5-0.5s0.2-0.5,0.5-0.5s0.5,0.2,0.5,0.5C26.9,112.7,26.7,112.9,26.4,112.9z"/>
				</g>
				<g>
					<path d="M25.9,110.6c-0.3,0-0.5-0.2-0.5-0.5s0.2-0.5,0.5-0.5s0.5,0.2,0.5,0.5C26.3,110.4,26.1,110.6,25.9,110.6z"/>
				</g>
				<path class="st3" d="M61.2,124C61.3,124,61.3,124.1,61.2,124l0.2,0.2c0,0,0,0.1,0,0.2s0,0.1-0.1,0.2c0,0.1-0.1,0.1-0.2,0.2
					c0.1,0,0.1,0.1,0.1,0.1c0,0.1,0,0.1,0,0.2v0.1c0,0.1,0,0.1,0,0.1s0,0.1,0.1,0.1l0,0H61v-0.1v-0.1v-0.1c0-0.1,0-0.2,0-0.2
					s-0.1-0.1-0.2-0.1h-0.3v0.6h-0.3V124h0.7C61,124,61.1,124,61.2,124z M60.5,124.3v0.4h0.3c0.1,0,0.1,0,0.1,0
					c0.1,0,0.1-0.1,0.1-0.2s0-0.2-0.1-0.2h-0.1C60.8,124.3,60.5,124.3,60.5,124.3z"/>
				<path class="st3" d="M60.8,126.1c-0.7,0-1.3-0.6-1.3-1.3c0-0.7,0.6-1.3,1.3-1.3s1.3,0.6,1.3,1.3S61.5,126.1,60.8,126.1z
					 M60.8,123.6c-0.7,0-1.2,0.5-1.2,1.2s0.5,1.2,1.2,1.2s1.2-0.5,1.2-1.2S61.5,123.6,60.8,123.6z"/>
				<path class="st6" d="M28.3,105l-0.6-0.1c0,0.1,0.5,0.3,0.5,0.3C28.2,105.3,28.3,105.1,28.3,105z"/>
				<g>
					<g>
						<path class="st3" d="M47.4,104.4c-1.1,0-2-0.9-2-2.1s0.7-2.4,2.1-2.4c0.5,0,0.7,0.1,1,0.3c0.3,0.2,0.4,0.3,0.4,0.6v0.4
							c0,0.3-0.1,0.3-0.3,0.3s-0.2-0.2-0.3-0.3c-0.2-0.5-0.5-0.7-0.9-0.7c-0.9,0-1.3,0.8-1.3,1.6c0,1.2,0.7,1.6,1.2,1.6
							c0.4,0,0.6-0.1,0.9-0.5c0.1-0.1,0.2-0.2,0.3-0.2s0.3,0.1,0.3,0.3c0,0.3-0.6,0.7-0.6,0.7C48.1,104.3,47.8,104.4,47.4,104.4z"/>
					</g>
					<g>
						<path class="st3" d="M52.8,104.3h-0.7c-0.3,0-0.4-0.2-0.4-0.3c0-0.2,0.1-0.2,0.2-0.3c0,0,0,0,0.1,0c0-0.2-0.4-1-0.7-1.3
							c-0.2,0.1-0.4,0.1-0.6,0.1v1.1l0,0h0.1c0.1,0,0.2,0.1,0.2,0.3c0,0.1-0.1,0.3-0.3,0.3H50c-0.3,0-0.3-0.2-0.3-0.3
							c0-0.2,0.1-0.2,0.2-0.3l0,0c0,0,0-0.1,0-0.2v-2.8c0-0.2,0-0.2,0-0.2c-0.1,0-0.3-0.1-0.3-0.3c0-0.1,0-0.3,0.3-0.3h1.6
							c0.8,0,1.3,0.4,1.3,1.1c0,0.4-0.3,0.8-0.7,1.1c0.3,0.4,0.5,0.9,0.7,1.3c0.1,0.2,0.1,0.2,0.2,0.2c0.1,0,0.2,0.1,0.2,0.3
							C53.1,104.1,53.1,104.3,52.8,104.3z M51.1,100.6c-0.4,0-0.4,0-0.4,0.3v1.1c0.7-0.1,1.3-0.3,1.3-0.8
							C52,100.9,51.9,100.6,51.1,100.6z"/>
					</g>
					<g>
						<path class="st3" d="M56.3,104.3H54c-0.3,0-0.4-0.2-0.4-0.3c0-0.2,0.2-0.3,0.2-0.3c0.1,0,0.1,0,0.1,0v-0.1v-2.9
							c0-0.1,0-0.1,0-0.1l0,0c-0.1,0-0.2-0.1-0.2-0.3c0-0.1,0-0.3,0.3-0.3h2.2c0.2,0,0.3,0.1,0.4,0.4v0.1c0,0.1,0,0.2,0,0.3
							c0,0.1-0.1,0.2-0.2,0.2c-0.1,0-0.1,0-0.2-0.1c-0.1-0.2-0.3-0.3-0.8-0.3h-0.5c-0.1,0-0.2,0-0.2,0s0,0.1,0,0.2v0.8h0.7
							c0.2,0,0.3,0,0.3-0.1c0,0,0.1-0.1,0.2-0.1c0.3,0,0.3,0.3,0.3,0.4c0,0.3,0,0.5-0.3,0.5c-0.1,0-0.2-0.1-0.2-0.1s0,0-0.3,0h-0.7
							v1.1c0,0.3,0,0.3,0.2,0.3h0.4c0.8,0,0.9-0.1,1-0.3c0.1-0.1,0.2-0.2,0.3-0.2s0.2,0.1,0.2,0.2s0,0.2,0,0.3v0.2
							C56.7,104.2,56.6,104.3,56.3,104.3z"/>
					</g>
					<g>
						<path class="st3" d="M60,104.3h-2.3c-0.3,0-0.4-0.2-0.4-0.3c0-0.2,0.2-0.3,0.2-0.3h0.1v-0.1v-2.9c0-0.1,0-0.1,0-0.1l0,0
							c-0.1,0-0.2-0.1-0.2-0.3c0-0.1,0-0.3,0.3-0.3h2.2c0.2,0,0.3,0.1,0.4,0.4v0.1c0,0.1,0,0.2,0,0.3c0,0.1-0.1,0.2-0.2,0.2
							c-0.1,0-0.2,0-0.2-0.1c-0.1-0.2-0.3-0.3-0.8-0.3h-0.5c-0.1,0-0.2,0-0.2,0s0,0.1,0,0.2v0.8h0.7c0.2,0,0.3,0,0.3-0.1
							c0,0,0.1-0.1,0.2-0.1c0.3,0,0.3,0.3,0.3,0.4c0,0.3,0,0.5-0.3,0.5c-0.1,0-0.2-0.1-0.2-0.1s0,0-0.3,0h-0.7v1.1
							c0,0.3,0,0.3,0.2,0.3H59c0.8,0,0.9-0.1,1-0.3c0.1-0.1,0.2-0.2,0.3-0.2s0.2,0.1,0.2,0.2s0,0.2,0,0.3c0,0.1,0,0.1,0,0.2
							C60.3,104.2,60.2,104.3,60,104.3z M60,100.7L60,100.7L60,100.7z"/>
					</g>
					<g>
						<path class="st3" d="M63.6,104.3c-0.1,0-0.2,0-0.3-0.1c-0.1,0-0.1-0.1-0.1-0.2c0-0.2,0.1-0.2,0.2-0.3c0-0.2-0.6-1.1-0.9-1.5
							l-0.5,0.5v0.9l0,0c0,0,0,0,0.1,0s0.2,0.1,0.2,0.3c0,0.1,0,0.3-0.3,0.3h-0.7c-0.3,0-0.3-0.2-0.3-0.3c0-0.2,0.2-0.3,0.2-0.3
							c0.1,0,0.1,0,0.1,0v-0.1v-3l0,0c-0.1,0-0.3-0.1-0.3-0.3c0-0.1,0-0.3,0.3-0.3H62c0.3,0,0.3,0.2,0.3,0.3c0,0.2-0.1,0.2-0.2,0.3
							c-0.1,0-0.1,0-0.1,0.1l0,0c0,0,0,0,0,0.1v0.1v1.2c0.4-0.4,0.7-0.7,1-1.1c0.1-0.1,0.2-0.2,0.2-0.3l0,0c-0.1,0-0.2-0.1-0.2-0.3
							c0-0.1,0-0.3,0.3-0.3H64c0.1,0,0.2,0,0.3,0.1c0,0,0.1,0.1,0.1,0.2c0,0.2-0.2,0.3-0.2,0.3c-0.1,0.1-0.1,0.1-0.4,0.4
							c-0.2,0.3-0.5,0.6-0.7,0.9c0.5,0.5,0.9,1.2,1.1,1.7c0.1,0.2,0.1,0.2,0.2,0.3c0.1,0,0.2,0.1,0.2,0.3c0,0.1,0,0.3-0.3,0.3h-0.7
							C63.6,104.3,63.6,104.3,63.6,104.3z"/>
					</g>
				</g>
				<g>
					<path d="M48.8,101.1c0,0.1,0,0.2-0.1,0.2s-0.1-0.1-0.2-0.2c-0.2-0.5-0.6-0.8-1-0.8c-1,0-1.4,0.9-1.4,1.8c0,1.2,0.7,1.8,1.4,1.8
						c0.4,0,0.7-0.2,1.1-0.5c0.1-0.1,0.1-0.1,0.2-0.1c0.1,0,0.1,0.1,0.1,0.1c0,0.2-0.4,0.5-0.5,0.6c-0.3,0.2-0.5,0.3-0.9,0.3
						c-1,0-1.8-0.8-1.8-1.9s0.6-2.2,2-2.2c0.4,0,0.7,0.1,1,0.3c0.3,0.2,0.3,0.3,0.3,0.4v0.2H48.8z"/>
					<path d="M50.1,100.7c0-0.3,0-0.3-0.1-0.4c-0.1,0-0.2-0.1-0.2-0.2s0.1-0.1,0.2-0.1h1.6c0.6,0,1.1,0.3,1.1,0.9
						c0,0.5-0.4,0.9-0.8,1c0.3,0.4,0.6,0.9,0.8,1.4c0.1,0.2,0.1,0.2,0.3,0.3c0.1,0,0.1,0,0.1,0.1s-0.1,0.1-0.2,0.1h-0.7
						c-0.1,0-0.2,0-0.2-0.1c0-0.2,0.3-0.1,0.3-0.3c0-0.3-0.6-1.2-0.8-1.4c-0.3,0.1-0.5,0.1-0.8,0.2v1.3c0,0.1,0.1,0.1,0.2,0.1
						c0.1,0,0.1,0,0.1,0.1s-0.1,0.1-0.2,0.1h-0.7c-0.1,0-0.2,0-0.2-0.1s0.1-0.1,0.2-0.2c0.1,0,0.1-0.1,0.1-0.3L50.1,100.7
						L50.1,100.7z M50.5,102.1c0.5-0.1,1.6-0.2,1.6-1c0-0.6-0.6-0.7-1.1-0.7s-0.5,0.1-0.5,0.4V102.1z"/>
					<path d="M54.1,100.7c0-0.1,0-0.3-0.2-0.3c-0.1,0-0.1,0-0.1-0.1s0.1-0.1,0.2-0.1h2.2c0.2,0,0.2,0.2,0.2,0.3c0,0.1,0,0.2,0,0.3
						c0,0.1,0,0.1-0.1,0.1h-0.1c-0.2-0.2-0.4-0.4-0.9-0.4h-0.5c-0.3,0-0.4,0.1-0.4,0.4v1h0.9c0.2,0,0.3,0,0.4-0.1l0.1-0.1
						c0.1,0,0.1,0.1,0.1,0.3c0,0.3,0,0.4-0.1,0.4c0,0-0.1,0-0.1-0.1c-0.1-0.1-0.2-0.1-0.4-0.1h-0.9v1.2c0,0.4,0,0.5,0.3,0.5h0.4
						c0.8,0,0.9-0.1,1.1-0.3c0,0,0.1-0.1,0.2-0.1c0.1,0,0.1,0,0.1,0.1s0,0.3-0.1,0.5c0,0.1,0,0.2-0.2,0.2H54c-0.1,0-0.2,0-0.2-0.1
						s0.1-0.1,0.1-0.1c0.2-0.1,0.2-0.1,0.2-0.3V100.7z"/>
					<path d="M57.7,100.7c0-0.1,0-0.3-0.2-0.3c-0.1,0-0.1,0-0.1-0.1s0.1-0.1,0.2-0.1h2.2c0.2,0,0.2,0.2,0.2,0.3c0,0.1,0,0.2,0,0.3
						c0,0.1,0,0.1-0.1,0.1h-0.1c-0.2-0.2-0.4-0.4-0.9-0.4h-0.5c-0.3,0-0.4,0.1-0.4,0.4v1h0.9c0.2,0,0.3,0,0.4-0.1l0.1-0.1
						c0.1,0,0.1,0.1,0.1,0.3c0,0.3,0,0.4-0.1,0.4c0,0-0.1,0-0.1-0.1c-0.1-0.1-0.2-0.1-0.4-0.1H58v1.2c0,0.4,0,0.5,0.3,0.5h0.4
						c0.8,0,0.9-0.1,1.1-0.3c0,0,0.1-0.1,0.2-0.1c0.1,0,0.1,0,0.1,0.1s0,0.3-0.1,0.5c0,0.1,0,0.2-0.2,0.2h-2.3c-0.1,0-0.2,0-0.2-0.1
						s0.1-0.1,0.1-0.1c0.2-0.1,0.2-0.1,0.2-0.3L57.7,100.7L57.7,100.7z"/>
					<path d="M61.4,100.5c0-0.1-0.1-0.1-0.2-0.1c-0.1,0-0.1,0-0.1-0.1s0.1-0.1,0.2-0.1H62c0.1,0,0.2,0,0.2,0.1s-0.1,0.1-0.1,0.1
						c-0.2,0.1-0.2,0.1-0.2,0.3v1.6c0.5-0.5,0.9-0.9,1.3-1.4c0.1-0.1,0.2-0.2,0.2-0.4c0-0.2-0.3-0.1-0.3-0.3c0-0.1,0.1-0.1,0.2-0.1
						H64c0.1,0,0.2,0,0.2,0.1s-0.1,0.1-0.1,0.1c-0.1,0.1-0.2,0.1-0.4,0.4s-0.5,0.6-0.8,1c0.5,0.6,1,1.3,1.2,1.8
						c0.1,0.2,0.1,0.3,0.3,0.3c0.1,0,0.1,0.1,0.1,0.2s-0.1,0.1-0.2,0.1h-0.7c-0.1,0-0.2,0-0.2-0.1s0.2-0.1,0.2-0.3
						c0-0.3-0.8-1.4-1.1-1.7l-0.7,0.7v1c0,0.1,0.1,0.1,0.2,0.1c0.1,0,0.1,0,0.1,0.1S62,104,61.9,104h-0.7c-0.1,0-0.2,0-0.2-0.1
						s0.1-0.1,0.1-0.1c0.2-0.1,0.2-0.1,0.2-0.3v-3H61.4z"/>
				</g>
				<g>
					<g>
						<path class="st3" d="M43.8,93.4c-0.1-0.1-0.1-0.1-0.2-0.1c-0.1,0.1-0.1,0.1-0.2,0c-0.1-0.1,0-0.1,0-0.2l0.7-0.8
							c0.6-0.6,1.1-0.6,1.4-0.3c0.7,0.6,0.4,1.5-0.3,2.2l0.6,0.6c0.1,0.1,0.2,0.1,0.3,0.1c0.1-0.1,0.2-0.1,0.2,0
							c0.1,0.1,0,0.1,0,0.2l-0.4,0.4c0,0.1-0.1,0.1-0.2,0c-0.1-0.1,0-0.1,0-0.2s0-0.2-0.1-0.3L43.8,93.4z M45.1,94.1
							c0.4-0.4,0.8-1.2,0.3-1.7c-0.3-0.3-0.7-0.2-1.1,0.2C44,93,44,93,44.2,93.2L45.1,94.1z"/>
						<path class="st3" d="M45.8,95.7c0,0-0.1,0-0.2-0.1c-0.1-0.1-0.1-0.2-0.1-0.3c0-0.1,0-0.1,0-0.1s-0.1,0-0.1-0.1l-1.8-1.7l0,0
							c-0.1,0.1-0.2,0.1-0.4,0c-0.1-0.1-0.2-0.2,0-0.4l0.7-0.8c0.7-0.8,1.3-0.7,1.7-0.4c0.6,0.6,0.6,1.4-0.2,2.3l0.5,0.5l0.1,0.1
							c0.1-0.1,0.3-0.1,0.4,0c0.1,0.1,0.1,0.1,0.1,0.2s-0.1,0.2-0.1,0.2L46,95.6C46,95.6,45.9,95.7,45.8,95.7L45.8,95.7z M44.9,92.4
							L44.9,92.4c-0.2,0-0.4,0.1-0.6,0.3c-0.2,0.3-0.2,0.3-0.1,0.4l0.8,0.7c0.2-0.2,0.4-0.6,0.4-0.9c0-0.2-0.1-0.3-0.2-0.4
							C45.1,92.5,45,92.4,44.9,92.4z"/>
					</g>
					<g>
						<path class="st3" d="M47.1,91.9c-0.5-0.9-0.4-1.9,0.4-2.3c0.7-0.4,1.7-0.2,2.3,0.8c0.5,0.9,0.3,1.9-0.5,2.3
							C48.6,93,47.7,92.9,47.1,91.9z M49.4,90.6c-0.5-0.8-1.2-1.1-1.8-0.8C47,90.2,47,91,47.4,91.7c0.5,0.8,1.2,1.1,1.7,0.8
							C49.8,92.1,49.8,91.3,49.4,90.6z"/>
						<path class="st3" d="M48.6,93c-0.2,0-0.3,0-0.5-0.1c-0.5-0.1-0.9-0.5-1.2-1s-0.4-1-0.3-1.4c0.1-0.5,0.4-0.9,0.8-1.1
							c0.7-0.4,1.8-0.3,2.5,0.8c0.3,0.5,0.4,1,0.3,1.4c-0.1,0.5-0.4,0.9-0.8,1.1C49.1,92.9,48.9,93,48.6,93z M48.1,89.8
							c-0.1,0-0.3,0-0.4,0.1c-0.5,0.3-0.5,1.1-0.1,1.7c0.4,0.7,1,1,1.5,0.7c0.3-0.2,0.4-0.5,0.4-0.7c0-0.3-0.1-0.7-0.2-1l0,0
							c-0.2-0.4-0.5-0.6-0.8-0.8C48.4,89.8,48.3,89.8,48.1,89.8z"/>
					</g>
					<g>
						<path class="st3" d="M51.7,90.2c0,0.2-0.1,0.6,0,0.8c0.1,0.3,0.3,0.2,0.3,0.3c0,0.1-0.1,0.1-0.2,0.2l-0.3,0.1
							c-0.1,0-0.2,0-0.2-0.1s0-0.1,0-0.1c0.1-0.1,0.1-0.1,0.1-0.2c0.1-1.1,0.3-2.2,0.5-3c0-0.1,0.1-0.3,0.1-0.4
							c0.1,0,0.3,0.2,0.3,0.3c0.5,0.6,1,1.4,1.6,2.5c0,0.1,0.1,0.1,0.2,0.1c0,0,0.1,0,0.1,0.1s-0.1,0.1-0.1,0.1L53.6,91
							c-0.1,0-0.2,0-0.2-0.1s0.2-0.1,0.2-0.3c0-0.1-0.3-0.6-0.4-0.8L51.7,90.2z M53,89.7c-0.3-0.5-0.6-1-0.9-1.3
							c-0.1,0.5-0.2,1-0.3,1.6L53,89.7z"/>
						<path class="st3" d="M51.3,91.7L51.3,91.7c-0.2,0-0.2-0.1-0.2-0.2s0.1-0.2,0.1-0.3c0-0.1,0-0.1,0.1-0.1c0.1-1,0.3-2.2,0.5-3
							l0,0c0.1-0.2,0.1-0.4,0.3-0.4c0.1,0,0.3,0.1,0.4,0.3c0.5,0.6,1,1.4,1.7,2.6c0,0,0,0,0.1,0.1c0,0,0.2,0.1,0.2,0.2
							s0,0.3-0.3,0.3l-0.5,0.1c0,0-0.2,0-0.3,0c0,0-0.1-0.1-0.1-0.2c0-0.2,0.1-0.3,0.1-0.3l0,0c0-0.1-0.2-0.4-0.3-0.6L52,90.4v0.1
							c0,0.2,0,0.4,0,0.5s0,0.1,0.1,0.1s0.2,0.1,0.2,0.2s0,0.2-0.1,0.3c-0.1,0-0.1,0-0.2,0.1l-0.3,0.1
							C51.4,91.7,51.3,91.7,51.3,91.7z M52.1,88.7c-0.1,0.4-0.1,0.7-0.2,1.1l0.8-0.2C52.5,89.3,52.3,89,52.1,88.7z"/>
					</g>
					<g>
						<path class="st3" d="M55.4,88.1c0-0.3,0-0.3-0.1-0.3s-0.2-0.1-0.2-0.1c0-0.1,0.1-0.1,0.2-0.1l1.3,0.1c0.5,0.1,0.9,0.3,0.9,0.9
							c0,0.4-0.4,0.7-0.8,0.8c0.3,0.4,0.4,0.8,0.6,1.3c0,0.2,0.1,0.2,0.2,0.3c0,0,0.1,0,0.1,0.1s-0.1,0.1-0.2,0.1l-0.6-0.1
							c-0.1,0-0.2,0-0.2-0.1s0.2-0.1,0.2-0.2c0-0.3-0.4-1.1-0.6-1.3c-0.2,0-0.5,0.1-0.7,0.1l-0.1,1.1c0,0.1,0.1,0.1,0.1,0.1
							c0.1,0,0.1,0,0.1,0.1S55.5,91,55.4,91L55,90.9c-0.1,0-0.2,0-0.1-0.1c0-0.1,0.1-0.1,0.2-0.1c0.1,0,0.1-0.1,0.1-0.2L55.4,88.1z
							 M55.6,89.3c0.5,0,1.4,0,1.4-0.7c0.1-0.5-0.5-0.6-0.8-0.7c-0.4,0-0.5,0-0.5,0.3L55.6,89.3z"/>
						<path class="st3" d="M57.5,91.3C57.4,91.3,57.4,91.3,57.5,91.3l-0.7-0.1c-0.3,0-0.3-0.2-0.3-0.3c0-0.2,0.2-0.2,0.2-0.2l0,0
							c0-0.2-0.3-0.8-0.5-1.1c-0.2,0-0.3,0-0.5,0l-0.1,0.9l0,0c0.1,0,0.2,0.1,0.2,0.3c0,0.1-0.1,0.1-0.1,0.2
							c-0.1,0.1-0.2,0.1-0.3,0.1l-0.4,0c-0.1,0-0.2,0-0.2-0.1c0,0-0.1-0.1-0.1-0.2c0-0.2,0.2-0.2,0.3-0.2l0,0l0,0v-0.1l0.2-2.4
							c0-0.1,0-0.1,0-0.2c-0.1-0.1-0.2-0.1-0.2-0.3c0-0.1,0.1-0.3,0.3-0.2l1.3,0.1c0.3,0,0.6,0.1,0.8,0.3c0.2,0.2,0.3,0.5,0.3,0.8
							c0,0.4-0.3,0.7-0.7,0.9c0.2,0.4,0.4,0.8,0.5,1.2c0,0.1,0.1,0.2,0.1,0.2c0.1,0,0.2,0.1,0.2,0.3c0,0.1-0.1,0.1-0.1,0.2
							C57.6,91.3,57.5,91.3,57.5,91.3z M55.7,90.7L55.7,90.7L55.7,90.7z M56,88C55.9,88,55.9,88,56,88c-0.1,0-0.1,0.1-0.1,0.2
							l-0.1,0.9c0.6,0,1.1-0.1,1.1-0.6c0-0.2,0-0.3-0.2-0.4C56.6,88,56.4,88,56.2,88C56.1,88,56.1,88,56,88z"/>
					</g>
					<g>
						<path class="st3" d="M61.7,90.1c0,0.1-0.1,0.1-0.2,0.1c-0.1,0,0-0.2,0-0.2c0-0.5-0.2-0.8-0.6-1c-0.8-0.3-1.4,0.3-1.7,0.9
							c-0.4,0.9-0.1,1.6,0.5,1.9c0.3,0.1,0.7,0.1,1-0.1c0.1,0,0.1-0.1,0.2-0.1c0.1,0,0.1,0.1,0,0.1c-0.1,0.1-0.5,0.3-0.6,0.3
							c-0.3,0.1-0.5,0-0.8-0.1c-0.8-0.3-1.2-1.3-0.8-2.1c0.4-0.8,1.2-1.6,2.3-1.1c0.3,0.1,0.5,0.3,0.7,0.5s0.2,0.3,0.1,0.5
							L61.7,90.1z"/>
						<path class="st3" d="M60.1,92.3c-0.2,0-0.4,0-0.6-0.1c-0.4-0.2-0.8-0.5-0.9-0.9c-0.2-0.4-0.2-0.9,0-1.4s0.5-0.9,0.9-1.1
							c0.5-0.3,1-0.3,1.6-0.1c0.4,0.2,0.5,0.3,0.7,0.6c0.2,0.2,0.2,0.4,0.1,0.6l-0.1,0.3c0,0.1-0.1,0.2-0.2,0.2c-0.1,0-0.1,0-0.2,0
							c-0.1-0.1-0.1-0.2-0.1-0.3c0-0.5-0.1-0.7-0.5-0.9c-0.4-0.2-0.7,0-0.9,0.1c-0.3,0.2-0.5,0.4-0.6,0.8c-0.4,0.9,0,1.5,0.4,1.7
							c0.3,0.1,0.5,0.1,0.9-0.1c0.1,0,0.2-0.1,0.3-0.1c0.1,0.1,0.2,0.2,0.1,0.3c-0.1,0.3-0.7,0.4-0.7,0.4
							C60.4,92.3,60.2,92.3,60.1,92.3z"/>
					</g>
					<g>
						<path class="st3" d="M63.6,90.7c0-0.1,0-0.1,0-0.2s-0.1-0.1,0-0.2s0.1,0,0.2,0l0.4,0.4c0.1,0,0.1,0.1,0,0.2s-0.1,0-0.2,0
							c-0.2-0.1-0.2,0-0.3,0.1l-0.6,0.7l1.4,1.2l0.7-0.8c0.1-0.1-0.2-0.2,0-0.3c0.1-0.1,0.1,0,0.2,0l0.5,0.4c0.1,0,0.1,0.1,0,0.2
							s-0.1,0-0.2,0c-0.2-0.1-0.2,0-0.3,0.1l-1.7,1.9c-0.1,0.1,0.1,0.3,0,0.4s-0.1,0-0.2,0L63,94.4c-0.1,0-0.1-0.1,0-0.2
							c0-0.1,0.1,0,0.2,0c0.1,0.1,0.2,0.1,0.3-0.1l0.8-0.9L63,91.9L62.1,93c0,0.1,0,0.1,0,0.2s0.1,0.1,0,0.2s-0.1,0-0.2,0L61.5,93
							c-0.1,0-0.1-0.1,0-0.2c0-0.1,0.1,0,0.2,0c0.2,0.1,0.2,0,0.3-0.1L63.6,90.7z"/>
						<path class="st3" d="M63.7,95c-0.1,0-0.2-0.1-0.2-0.1L63,94.5c-0.2-0.2-0.1-0.3-0.1-0.4C63,94,63.2,94,63.2,94h0.1
							c0,0,0-0.1,0.1-0.1l0.7-0.8l-1.2-1L62.2,93l0,0c0,0.1,0.1,0.2,0,0.3c-0.1,0.1-0.1,0.1-0.2,0.1l0,0c-0.1,0-0.2-0.1-0.2-0.1
							L61.4,93c0,0-0.1-0.1-0.1-0.2c0,0,0-0.1,0.1-0.2s0.3-0.1,0.3,0c0,0,0,0,0.1,0c0,0,0,0,0-0.1l1.7-1.9l0,0c0-0.1-0.1-0.2,0-0.4
							c0.1-0.1,0.2-0.2,0.4,0l0.4,0.4c0,0,0.1,0.1,0.1,0.2c0,0,0,0.1-0.1,0.2S64,91.1,64,91.1c-0.1,0-0.1,0-0.1,0s0,0,0,0.1
							l-0.5,0.6l1.2,1l0.6-0.7c0-0.1-0.2-0.2,0-0.4c0.1-0.1,0.2-0.2,0.4,0l0.5,0.4c0,0,0.1,0.1,0.1,0.2c0,0,0,0.1-0.1,0.2
							c-0.1,0.2-0.3,0.1-0.3,0.1s0,0-0.1,0c0,0,0,0,0,0.1L64,94.6l0,0c0,0.1,0.1,0.2,0,0.3C63.9,95,63.8,95,63.7,95L63.7,95z
							 M62.2,93.1L62.2,93.1L62.2,93.1z"/>
					</g>
				</g>
				<g>
					<path d="M43.8,93.4c-0.1-0.1-0.1-0.1-0.2-0.1c-0.1,0.1-0.1,0.1-0.2,0c-0.1-0.1,0-0.1,0-0.2l0.7-0.8c0.6-0.6,1.1-0.6,1.4-0.3
						c0.7,0.6,0.4,1.5-0.3,2.2l0.6,0.6c0.1,0.1,0.2,0.1,0.3,0.1c0.1-0.1,0.2-0.1,0.2,0c0.1,0.1,0,0.1,0,0.2l-0.4,0.4
						c0,0.1-0.1,0.1-0.2,0c-0.1-0.1,0-0.1,0-0.2s0-0.2-0.1-0.3L43.8,93.4z M45.1,94.1c0.4-0.4,0.8-1.2,0.3-1.7
						c-0.3-0.3-0.7-0.2-1.1,0.2C44,93,44,93,44.2,93.2L45.1,94.1z"/>
					<path d="M47.1,91.9c-0.5-0.9-0.4-1.9,0.4-2.3c0.7-0.4,1.7-0.2,2.3,0.8c0.5,0.9,0.3,1.9-0.5,2.3C48.6,93,47.7,92.9,47.1,91.9z
						 M49.4,90.6c-0.5-0.8-1.2-1.1-1.8-0.8C47,90.2,47,91,47.4,91.7c0.5,0.8,1.2,1.1,1.7,0.8C49.8,92.1,49.8,91.3,49.4,90.6z"/>
					<path d="M51.7,90.2c0,0.2-0.1,0.6,0,0.8c0.1,0.3,0.3,0.2,0.3,0.3c0,0.1-0.1,0.1-0.2,0.2l-0.3,0.1c-0.1,0-0.2,0-0.2-0.1
						s0-0.1,0-0.1c0.1-0.1,0.1-0.1,0.1-0.2c0.1-1.1,0.3-2.2,0.5-3c0-0.1,0.1-0.3,0.1-0.4c0.1,0,0.3,0.2,0.3,0.3
						c0.5,0.6,1,1.4,1.6,2.5c0,0.1,0.1,0.1,0.2,0.1c0,0,0.1,0,0.1,0.1s-0.1,0.1-0.1,0.1L53.6,91c-0.1,0-0.2,0-0.2-0.1
						s0.2-0.1,0.2-0.3c0-0.1-0.3-0.6-0.4-0.8L51.7,90.2z M53,89.7c-0.3-0.5-0.6-1-0.9-1.3c-0.1,0.5-0.2,1-0.3,1.6L53,89.7z"/>
					<path d="M55.4,88.1c0-0.3,0-0.3-0.1-0.3s-0.2-0.1-0.2-0.1c0-0.1,0.1-0.1,0.2-0.1l1.3,0.1c0.5,0.1,0.9,0.3,0.9,0.9
						c0,0.4-0.4,0.7-0.8,0.8c0.3,0.4,0.4,0.8,0.6,1.3c0,0.2,0.1,0.2,0.2,0.3c0,0,0.1,0,0.1,0.1s-0.1,0.1-0.2,0.1l-0.6-0.1
						c-0.1,0-0.2,0-0.2-0.1s0.2-0.1,0.2-0.2c0-0.3-0.4-1.1-0.6-1.3c-0.2,0-0.5,0.1-0.7,0.1l-0.1,1.1c0,0.1,0.1,0.1,0.1,0.1
						c0.1,0,0.1,0,0.1,0.1S55.5,91,55.4,91L55,90.9c-0.1,0-0.2,0-0.1-0.1c0-0.1,0.1-0.1,0.2-0.1c0.1,0,0.1-0.1,0.1-0.2L55.4,88.1z
						 M55.6,89.3c0.5,0,1.4,0,1.4-0.7c0.1-0.5-0.5-0.6-0.8-0.7c-0.4,0-0.5,0-0.5,0.3L55.6,89.3z"/>
					<path d="M61.7,90.1c0,0.1-0.1,0.1-0.2,0.1c-0.1,0,0-0.2,0-0.2c0-0.5-0.2-0.8-0.6-1c-0.8-0.3-1.4,0.3-1.7,0.9
						c-0.4,0.9-0.1,1.6,0.5,1.9c0.3,0.1,0.7,0.1,1-0.1c0.1,0,0.1-0.1,0.2-0.1c0.1,0,0.1,0.1,0,0.1c-0.1,0.1-0.5,0.3-0.6,0.3
						c-0.3,0.1-0.5,0-0.8-0.1c-0.8-0.3-1.2-1.3-0.8-2.1c0.4-0.8,1.2-1.6,2.3-1.1c0.3,0.1,0.5,0.3,0.7,0.5s0.2,0.3,0.1,0.5L61.7,90.1
						z"/>
					<path d="M63.6,90.7c0-0.1,0-0.1,0-0.2s-0.1-0.1,0-0.2s0.1,0,0.2,0l0.4,0.4c0.1,0,0.1,0.1,0,0.2s-0.1,0-0.2,0
						c-0.2-0.1-0.2,0-0.3,0.1l-0.6,0.7l1.4,1.2l0.7-0.8c0.1-0.1-0.2-0.2,0-0.3c0.1-0.1,0.1,0,0.2,0l0.5,0.4c0.1,0,0.1,0.1,0,0.2
						s-0.1,0-0.2,0c-0.2-0.1-0.2,0-0.3,0.1l-1.7,1.9c-0.1,0.1,0.1,0.3,0,0.4s-0.1,0-0.2,0L63,94.4c-0.1,0-0.1-0.1,0-0.2
						c0-0.1,0.1,0,0.2,0c0.1,0.1,0.2,0.1,0.3-0.1l0.8-0.9L63,91.9L62.1,93c0,0.1,0,0.1,0,0.2s0.1,0.1,0,0.2s-0.1,0-0.2,0L61.5,93
						c-0.1,0-0.1-0.1,0-0.2c0-0.1,0.1,0,0.2,0c0.2,0.1,0.2,0,0.3-0.1L63.6,90.7z"/>
				</g>
				<g>
					<g>
						<path class="st3" d="M45.4,109.3c0.1,0,0-0.1,0-0.2s0-0.1,0-0.2c0.1-0.1,0.1,0,0.2,0.1l0.4,0.5c0,0.1,0.1,0.1,0,0.2
							c-0.1,0-0.1,0-0.2,0c-0.1-0.1-0.2-0.1-0.3,0l-2.1,1.5c-0.1,0,0,0.1,0,0.2s0,0.1,0,0.2c-0.1,0.1-0.1,0-0.2-0.1l-0.4-0.5
							c0-0.1-0.1-0.1,0-0.2c0.1,0,0.1,0,0.2,0c0.1,0.1,0.2,0.1,0.3,0L45.4,109.3z"/>
						<path class="st3" d="M43.4,111.7C43.3,111.7,43.3,111.7,43.4,111.7c-0.1,0-0.2-0.1-0.2-0.2l-0.4-0.5c0,0-0.1-0.1-0.1-0.2
							s0-0.2,0.1-0.3c0.2-0.1,0.3,0,0.3,0l0,0c0,0,0,0,0.1-0.1l2.1-1.5l0,0c0-0.1-0.1-0.2,0.1-0.3c0.1-0.1,0.2-0.1,0.4,0.1l0.4,0.5
							c0.2,0.2,0,0.4,0,0.4c-0.1,0.1-0.3,0-0.3,0h-0.1l0,0l0,0l-2,1.5l0,0c0,0.1,0.1,0.2-0.1,0.3C43.5,111.7,43.4,111.7,43.4,111.7z
							"/>
					</g>
					<g>
						<path class="st3" d="M46.8,111.2c0.1-0.1,0.2-0.3,0.1-0.4c0,0-0.1-0.1,0-0.2c0-0.1,0.1,0,0.2,0l0.4,0.3c0.1,0,0.1,0.1,0.1,0.2
							c0,1,0,1.9-0.2,3l1.2-1.6c0.2-0.2,0.2-0.2,0.1-0.3c-0.1-0.1-0.1-0.1,0-0.2c0-0.1,0.1,0,0.2,0l0.4,0.3c0.1,0,0.1,0.1,0,0.2
							c0,0.1-0.1,0-0.2,0c-0.1,0-0.1,0-0.3,0.2l-1.7,2.1c-0.1,0.1-0.1,0.2-0.2,0.1c-0.1-0.1,0-0.1,0.1-0.5c0.1-1.1,0.3-2.4,0.2-3.1
							l-1.5,2c-0.1,0.1-0.1,0.2,0,0.3c0,0.1,0.1,0.1,0,0.2c0,0.1-0.1,0.1-0.2,0l-0.5-0.4c-0.1,0-0.1-0.1,0-0.2c0-0.1,0.1,0,0.2,0
							c0.1,0.1,0.2,0,0.3-0.2L46.8,111.2z"/>
						<path class="st3" d="M46.8,115.1c0,0-0.1,0-0.2-0.1c-0.1-0.1-0.1-0.2-0.1-0.4c0-0.1,0-0.2,0.1-0.3c0.1-0.9,0.2-1.9,0.2-2.7
							l-1.3,1.6v0.1c0.1,0.1,0.2,0.2,0,0.4c-0.1,0.1-0.3,0.1-0.4,0l-0.5-0.4c-0.1,0-0.1-0.1-0.1-0.2s0-0.1,0.1-0.2
							c0.1-0.2,0.3-0.1,0.4-0.1l0.1-0.1l1.4-1.8c0.1-0.2,0.1-0.2,0.1-0.2c-0.1-0.1-0.1-0.3,0-0.4s0.2-0.1,0.4,0l0.3,0.3
							c0.1,0.1,0.2,0.1,0.1,0.3c0,0.8,0,1.5-0.1,2.4l0.8-1.1c0,0,0.1-0.1,0.1-0.2c-0.1-0.1-0.2-0.2,0-0.4c0.1-0.1,0.2-0.1,0.4,0
							l0.4,0.3c0.1,0.1,0.1,0.1,0.1,0.2c0,0,0,0.1-0.1,0.2s-0.3,0.1-0.3,0.1l-0.1,0.1l-1.7,2.2C47.1,115,47,115.1,46.8,115.1
							L46.8,115.1z"/>
					</g>
					<g>
						<path class="st3" d="M50.3,113.3C50.3,113.2,50.2,113.2,50.3,113.3c-0.2-0.1-0.2-0.2-0.2-0.2c0-0.1,0.1-0.1,0.2-0.1l0.8,0.3
							c0.5,0.1,0.8,0.3,1.1,0.7c0.3,0.5,0.3,1,0.1,1.5s-0.8,1.5-2.1,1.1l-1.1-0.3c-0.1,0-0.1-0.1-0.1-0.2s0.1-0.1,0.1-0.1
							c0.2,0,0.2,0,0.2-0.2L50.3,113.3z M49.9,115.6c-0.1,0.5-0.2,0.6,0.3,0.7c0.8,0.3,1.5-0.1,1.8-1s0-1.6-0.9-1.9
							c-0.4-0.1-0.4,0-0.6,0.3L49.9,115.6z"/>
						<path class="st3" d="M50.9,116.8c-0.2,0-0.4,0-0.6-0.1l-1.1-0.3c-0.3-0.1-0.2-0.3-0.2-0.3c0.1-0.2,0.2-0.2,0.3-0.2h0.1l0,0
							c0,0,0,0,0-0.1l0,0l0.8-2.4l0,0l0,0c-0.1,0-0.2-0.1-0.1-0.3c0-0.1,0.1-0.2,0.4-0.2l0.8,0.3c0.5,0.2,0.9,0.3,1.2,0.8
							s0.4,1,0.2,1.6C52.3,116,51.8,116.8,50.9,116.8z M50.1,115.6L50.1,115.6c-0.1,0.2-0.1,0.3-0.1,0.4c0,0,0,0.1,0.3,0.1
							c0.4,0.1,0.7,0.1,0.9,0c0.3-0.1,0.5-0.4,0.6-0.8c0.3-0.8,0-1.4-0.8-1.7c-0.2-0.1-0.2,0-0.2,0s-0.1,0.2-0.1,0.3L50.1,115.6z
							 M50.1,113.2L50.1,113.2L50.1,113.2z"/>
					</g>
					<g>
						<path class="st3" d="M54.4,114.2C54.4,114.1,54.3,114.1,54.4,114.2c-0.2-0.1-0.2-0.1-0.2-0.2s0.1-0.1,0.2-0.1H55
							c0.1,0,0.2,0,0.1,0.1c0,0.1-0.1,0.1-0.1,0.1c-0.2,0-0.1,0.1-0.2,0.3l-0.1,2.6c0,0.1,0.1,0.1,0.1,0.1c0.1,0,0.1,0,0.1,0.1
							s-0.1,0.1-0.2,0.1h-0.6c-0.1,0-0.2,0-0.2-0.1s0.1-0.1,0.1-0.1c0.2,0,0.2-0.1,0.2-0.3L54.4,114.2z"/>
						<path class="st3" d="M54.8,117.5L54.8,117.5h-0.6c-0.3,0-0.3-0.2-0.3-0.3c0-0.2,0.2-0.2,0.2-0.3c0,0,0,0,0.1,0l0,0
							c0,0,0,0,0-0.1l0.1-2.6l0,0l0,0c-0.1,0-0.2-0.1-0.2-0.3c0-0.1,0-0.1,0.1-0.2s0.2-0.1,0.2-0.1H55c0.1,0,0.2,0,0.2,0.1
							c0,0,0.1,0.1,0.1,0.2c0,0.2-0.1,0.2-0.2,0.2H55c0,0,0,0,0,0.1l-0.1,2.6l0,0c0.1,0,0.2,0.1,0.2,0.3
							C55.1,117.3,55.1,117.5,54.8,117.5z M54.3,114.2L54.3,114.2L54.3,114.2z"/>
					</g>
					<g>
						<path class="st3" d="M57.5,116c0,0.2-0.1,0.6,0,0.8c0.1,0.3,0.3,0.2,0.3,0.3c0,0.1-0.1,0.1-0.2,0.2l-0.3,0.1
							c-0.1,0-0.2,0-0.2-0.1s0-0.1,0-0.1c0.1-0.1,0.1-0.1,0.1-0.2c0.1-1.1,0.2-2.2,0.4-3c0-0.1,0.1-0.3,0.1-0.4
							c0.1,0,0.3,0.2,0.3,0.3c0.5,0.6,1,1.4,1.7,2.5c0.1,0.1,0.1,0.1,0.2,0.1c0,0,0.1,0,0.1,0.1s-0.1,0.1-0.1,0.1l-0.5,0.1
							c-0.1,0-0.2,0-0.2-0.1s0.2-0.1,0.2-0.3c0-0.1-0.3-0.6-0.4-0.8L57.5,116z M58.7,115.4c-0.3-0.5-0.7-1-1-1.3
							c-0.1,0.5-0.2,1-0.2,1.6L58.7,115.4z"/>
						<path class="st3" d="M57.1,117.4L57.1,117.4c-0.1,0-0.2-0.1-0.2-0.2s0-0.2,0.1-0.3c0-0.1,0-0.1,0.1-0.1c0.1-1,0.2-2.2,0.4-3
							l0,0c0-0.2,0.1-0.4,0.2-0.4c0.1,0,0.3,0.1,0.4,0.3c0.5,0.6,1,1.3,1.7,2.5c0,0,0,0,0.1,0.1c0,0,0.2,0,0.2,0.2
							c0,0.1,0,0.2,0,0.2c-0.1,0.1-0.2,0.1-0.2,0.1l-0.5,0.1c0,0-0.2,0-0.3,0c0,0-0.1-0.1-0.1-0.2c0-0.2,0.1-0.3,0.1-0.3l0,0
							c0-0.1-0.2-0.4-0.4-0.6l-1.1,0.3v0.1c0,0.2,0,0.4,0,0.5s0,0.1,0.1,0.1s0.2,0.1,0.2,0.2s0,0.1,0,0.2c-0.1,0.1-0.2,0.1-0.3,0.2
							l-0.3,0.1C57.2,117.4,57.2,117.4,57.1,117.4z M57.9,114.4c-0.1,0.3-0.1,0.7-0.2,1.1l0.8-0.2C58.3,115,58.1,114.7,57.9,114.4z"
							/>
					</g>
					<g>
						<path class="st3" d="M60.7,113.2c-0.1-0.1-0.2-0.3-0.4-0.2c-0.1,0-0.1,0.1-0.2,0c0-0.1,0-0.1,0.1-0.1l0.4-0.2
							c0.1,0,0.1-0.1,0.2,0c1,0.3,1.8,0.7,2.7,1.2l-1.1-1.7c-0.1-0.2-0.2-0.3-0.3-0.2c-0.1,0-0.2,0.1-0.2,0s0-0.1,0-0.1l0.4-0.3
							c0.1,0,0.1,0,0.2,0c0,0.1,0,0.1-0.1,0.2s0,0.1,0.1,0.3l1.5,2.3c0,0.1,0.2,0.2,0.1,0.3c-0.1,0.1-0.1-0.1-0.5-0.2
							C62.6,114,61.4,113.4,60.7,113.2l1.4,2.1c0.1,0.1,0.1,0.2,0.2,0.1c0.1,0,0.1-0.1,0.2,0c0,0.1,0,0.1,0,0.2l-0.5,0.3
							c-0.1,0-0.1,0-0.2,0c0-0.1,0-0.1,0.1-0.2s0.1-0.1-0.1-0.3L60.7,113.2z"/>
						<path class="st3" d="M62,115.8L62,115.8c-0.1,0-0.2,0-0.2-0.1c-0.1-0.2,0-0.3,0.1-0.4c0,0-0.1-0.1-0.1-0.2l-1.2-1.9
							c-0.1-0.2-0.1-0.2-0.2-0.1c-0.2,0.1-0.3,0-0.4-0.1c-0.1-0.1-0.1-0.3,0.1-0.4l0.4-0.2c0.1-0.1,0.2-0.1,0.3,0
							c0.7,0.2,1.5,0.5,2.2,0.9l-0.8-1.2c0-0.1-0.1-0.2-0.1-0.2c-0.1,0-0.2,0.1-0.4-0.1c-0.1-0.1-0.1-0.2,0-0.2c0,0,0-0.1,0.1-0.2
							l0.4-0.3c0.1-0.1,0.3-0.1,0.4,0.1c0.1,0.1,0,0.3-0.1,0.3c0,0,0,0.1,0.1,0.1l1.5,2.3c0.1,0.1,0.1,0.2,0.1,0.3
							c0,0,0,0.1-0.1,0.2s-0.3,0-0.4,0c-0.1,0-0.1-0.1-0.3-0.2c-0.8-0.4-1.7-0.9-2.4-1.1l1.1,1.7v0.1c0.1,0,0.3-0.1,0.4,0.1
							c0.1,0.1,0.1,0.2,0,0.2c0,0.1-0.1,0.1-0.1,0.2l-0.5,0.3C62.2,115.8,62.1,115.8,62,115.8z"/>
					</g>
					<g>
						<path class="st3" d="M66.7,111.6c0.3-0.3,0.3-0.8,0-1.1c-0.8-0.6-1.5,1.3-2.5,0.5c-0.4-0.3-0.5-0.9-0.1-1.5
							c0.2-0.2,0.4-0.4,0.7-0.5c0.1,0,0.1,0,0.2,0s0.2,0.1,0.2,0.2c0,0,0.1,0.1,0.1,0.2c-0.1,0.1-0.6-0.1-1,0.4
							c-0.2,0.2-0.2,0.6,0.1,0.8c0.8,0.6,1.4-1.3,2.5-0.4c0.3,0.3,0.6,0.9,0,1.6s-1.2,0.5-1.4,0.4c-0.1,0-0.1-0.1,0-0.2
							c0-0.1,0.1,0,0.2,0C66.1,112,66.4,111.9,66.7,111.6z"/>
						<path class="st3" d="M65.9,112.5c-0.2,0-0.4-0.1-0.5-0.2s-0.2-0.3-0.1-0.4s0.3-0.1,0.3-0.1c0.4,0.1,0.7,0,0.9-0.3l0,0
							c0.2-0.3,0.3-0.6,0-0.9c-0.3-0.2-0.5,0-0.9,0.3s-1,0.7-1.6,0.2c-0.2-0.2-0.4-0.5-0.4-0.8s0.1-0.6,0.3-0.9
							c0.2-0.2,0.5-0.4,0.8-0.5c0.1,0,0.2,0,0.3,0c0,0,0.1,0,0.3,0.2c0.1,0,0.1,0.1,0.2,0.2c0,0.1,0,0.1,0,0.2
							c-0.1,0.1-0.2,0.1-0.3,0.1c-0.2,0-0.5,0-0.7,0.3c-0.1,0.2-0.2,0.5,0,0.6c0.3,0.2,0.5,0.1,0.8-0.2c0.4-0.3,1-0.7,1.7-0.2
							c0.2,0.2,0.4,0.5,0.4,0.8s0,0.6-0.3,1C66.6,112.3,66.2,112.5,65.9,112.5z"/>
					</g>
				</g>
				<g>
					<path class="st6" d="M45.4,109.3c0.1,0,0-0.1,0-0.2s0-0.1,0-0.2c0.1-0.1,0.1,0,0.2,0.1l0.4,0.5c0,0.1,0.1,0.1,0,0.2
						c-0.1,0-0.1,0-0.2,0c-0.1-0.1-0.2-0.1-0.3,0l-2.1,1.5c-0.1,0,0,0.1,0,0.2s0,0.1,0,0.2c-0.1,0.1-0.1,0-0.2-0.1l-0.4-0.5
						c0-0.1-0.1-0.1,0-0.2c0.1,0,0.1,0,0.2,0c0.1,0.1,0.2,0.1,0.3,0L45.4,109.3z"/>
					<path class="st6" d="M46.8,111.2c0.1-0.1,0.2-0.3,0.1-0.4c0,0-0.1-0.1,0-0.2c0-0.1,0.1,0,0.2,0l0.4,0.3c0.1,0,0.1,0.1,0.1,0.2
						c0,1,0,1.9-0.2,3l1.2-1.6c0.2-0.2,0.2-0.2,0.1-0.3c-0.1-0.1-0.1-0.1,0-0.2c0-0.1,0.1,0,0.2,0l0.4,0.3c0.1,0,0.1,0.1,0,0.2
						c0,0.1-0.1,0-0.2,0c-0.1,0-0.1,0-0.3,0.2l-1.7,2.1c-0.1,0.1-0.1,0.2-0.2,0.1c-0.1-0.1,0-0.1,0.1-0.5c0.1-1.1,0.3-2.4,0.2-3.1
						l-1.5,2c-0.1,0.1-0.1,0.2,0,0.3c0,0.1,0.1,0.1,0,0.2c0,0.1-0.1,0.1-0.2,0l-0.5-0.4c-0.1,0-0.1-0.1,0-0.2c0-0.1,0.1,0,0.2,0
						c0.1,0.1,0.2,0,0.3-0.2L46.8,111.2z"/>
					<path class="st6" d="M50.3,113.3C50.3,113.2,50.2,113.2,50.3,113.3c-0.2-0.1-0.2-0.2-0.2-0.2c0-0.1,0.1-0.1,0.2-0.1l0.8,0.3
						c0.5,0.1,0.8,0.3,1.1,0.7c0.3,0.5,0.3,1,0.1,1.5s-0.8,1.5-2.1,1.1l-1.1-0.3c-0.1,0-0.1-0.1-0.1-0.2s0.1-0.1,0.1-0.1
						c0.2,0,0.2,0,0.2-0.2L50.3,113.3z M49.9,115.6c-0.1,0.5-0.2,0.6,0.3,0.7c0.8,0.3,1.5-0.1,1.8-1s0-1.6-0.9-1.9
						c-0.4-0.1-0.4,0-0.6,0.3L49.9,115.6z"/>
					<path class="st6" d="M54.4,114.2C54.4,114.1,54.3,114.1,54.4,114.2c-0.2-0.1-0.2-0.1-0.2-0.2s0.1-0.1,0.2-0.1H55
						c0.1,0,0.2,0,0.1,0.1c0,0.1-0.1,0.1-0.1,0.1c-0.2,0-0.1,0.1-0.2,0.3l-0.1,2.6c0,0.1,0.1,0.1,0.1,0.1c0.1,0,0.1,0,0.1,0.1
						s-0.1,0.1-0.2,0.1h-0.6c-0.1,0-0.2,0-0.2-0.1s0.1-0.1,0.1-0.1c0.2,0,0.2-0.1,0.2-0.3L54.4,114.2z"/>
					<path class="st6" d="M57.5,116c0,0.2-0.1,0.6,0,0.8c0.1,0.3,0.3,0.2,0.3,0.3c0,0.1-0.1,0.1-0.2,0.2l-0.3,0.1
						c-0.1,0-0.2,0-0.2-0.1s0-0.1,0-0.1c0.1-0.1,0.1-0.1,0.1-0.2c0.1-1.1,0.2-2.2,0.4-3c0-0.1,0.1-0.3,0.1-0.4
						c0.1,0,0.3,0.2,0.3,0.3c0.5,0.6,1,1.4,1.7,2.5c0.1,0.1,0.1,0.1,0.2,0.1c0,0,0.1,0,0.1,0.1s-0.1,0.1-0.1,0.1l-0.5,0.1
						c-0.1,0-0.2,0-0.2-0.1s0.2-0.1,0.2-0.3c0-0.1-0.3-0.6-0.4-0.8L57.5,116z M58.7,115.4c-0.3-0.5-0.7-1-1-1.3
						c-0.1,0.5-0.2,1-0.2,1.6L58.7,115.4z"/>
					<path class="st6" d="M60.7,113.2c-0.1-0.1-0.2-0.3-0.4-0.2c-0.1,0-0.1,0.1-0.2,0c0-0.1,0-0.1,0.1-0.1l0.4-0.2
						c0.1,0,0.1-0.1,0.2,0c1,0.3,1.8,0.7,2.7,1.2l-1.1-1.7c-0.1-0.2-0.2-0.3-0.3-0.2c-0.1,0-0.2,0.1-0.2,0s0-0.1,0-0.1l0.4-0.3
						c0.1,0,0.1,0,0.2,0c0,0.1,0,0.1-0.1,0.2s0,0.1,0.1,0.3l1.5,2.3c0,0.1,0.2,0.2,0.1,0.3c-0.1,0.1-0.1-0.1-0.5-0.2
						C62.6,114,61.4,113.4,60.7,113.2l1.4,2.1c0.1,0.1,0.1,0.2,0.2,0.1c0.1,0,0.1-0.1,0.2,0c0,0.1,0,0.1,0,0.2l-0.5,0.3
						c-0.1,0-0.1,0-0.2,0c0-0.1,0-0.1,0.1-0.2s0.1-0.1-0.1-0.3L60.7,113.2z"/>
					<path class="st6" d="M66.7,111.6c0.3-0.3,0.3-0.8,0-1.1c-0.8-0.6-1.5,1.3-2.5,0.5c-0.4-0.3-0.5-0.9-0.1-1.5
						c0.2-0.2,0.4-0.4,0.7-0.5c0.1,0,0.1,0,0.2,0s0.2,0.1,0.2,0.2c0,0,0.1,0.1,0.1,0.2c-0.1,0.1-0.6-0.1-1,0.4
						c-0.2,0.2-0.2,0.6,0.1,0.8c0.8,0.6,1.4-1.3,2.5-0.4c0.3,0.3,0.6,0.9,0,1.6s-1.2,0.5-1.4,0.4c-0.1,0-0.1-0.1,0-0.2
						c0-0.1,0.1,0,0.2,0C66.1,112,66.4,111.9,66.7,111.6z"/>
				</g>
			</g>
			<path class="st4" d="M27.7,115.9c0,0,0.1,0,0.3-0.2c0.7-0.5,1.1-0.9,1.7-2s0.8-2.4,0.8-2.6c0-0.3,0.2-0.5,0.2-0.6
				s0.6-2.5,0.5-2.2c0,0.2-0.3,2.4-0.3,2.7c0,0.3-0.1,1.4-0.1,1.7c0,0.4-0.2,0.8-0.2,1c-0.1,0.2-0.8,1.8-1.1,2.7
				c-0.4,0.9-0.5,1.9-0.4,2.5s0.4,0.8,0.4,0.8s-0.3,0.1-0.5-0.8c-0.3-0.9,0.2-2.1,0.3-2.4c0.1-0.3,1.2-2.7,1.3-3.1
				c0.2-0.4,0.1-2.3,0.1-2.2c0,0.1-0.1,1.3-0.9,3c-0.7,1.7-2,2.1-2,2.1L27.7,115.9z"/>
		</g>
		<path class="st7" d="M33,124.2c-0.2,0-0.4,0.2-0.4,0.4c0,0.2,0.2,0.4,0.4,0.4s0.4-0.2,0.4-0.4C33.4,124.4,33.2,124.2,33,124.2z"/>
		<path class="st5" d="M32.6,125.6c-0.2,0-0.4,0.2-0.4,0.4s0.2,0.4,0.4,0.4s0.4-0.2,0.4-0.4S32.9,125.6,32.6,125.6z"/>
		<path class="st5" d="M25.9,109.7c-0.2,0-0.4,0.2-0.4,0.4c0,0.2,0.2,0.4,0.4,0.4c0.2,0,0.4-0.2,0.4-0.4
			C26.2,109.9,26.1,109.7,25.9,109.7z"/>
		<path class="st6" d="M26.4,112c-0.2,0-0.4,0.2-0.4,0.4c0,0.2,0.2,0.4,0.4,0.4c0.2,0,0.4-0.2,0.4-0.4S26.6,112,26.4,112z"/>
		<path class="st6" d="M42.3,101.6c-0.4,0-0.7,0.3-0.7,0.7c0,0.4,0.3,0.7,0.7,0.7s0.7-0.3,0.7-0.7S42.7,101.6,42.3,101.6z"/>
		<path class="st6" d="M67.8,101.5c-0.4,0-0.7,0.3-0.7,0.7c0,0.4,0.3,0.7,0.7,0.7c0.4,0,0.7-0.3,0.7-0.7S68.2,101.5,67.8,101.5z"/>
		<path class="st6" d="M84.4,109.8c-0.2,0-0.4,0.2-0.4,0.4c0,0.2,0.2,0.4,0.4,0.4c0.2,0,0.4-0.2,0.4-0.4
			C84.8,109.9,84.6,109.8,84.4,109.8z"/>
		<path class="st5" d="M83.9,112c-0.2,0-0.4,0.2-0.4,0.4c0,0.2,0.2,0.4,0.4,0.4c0.2,0,0.4-0.2,0.4-0.4S84.1,112,83.9,112z"/>
		<path class="st6" d="M77.6,125.6c-0.2,0-0.4,0.2-0.4,0.4c0,0.2,0.2,0.4,0.4,0.4c0.2,0,0.4-0.2,0.4-0.4
			C78,125.8,77.8,125.6,77.6,125.6z"/>
		<path class="st5" d="M77.3,124.2c-0.2,0-0.4,0.2-0.4,0.4c0,0.2,0.2,0.4,0.4,0.4c0.2,0,0.4-0.2,0.4-0.4
			C77.7,124.4,77.5,124.2,77.3,124.2z"/>
	</g>
	<rect x="10.7" y="67.5" class="st8" width="97.4" height="71.1"/>
</g>
<g id="Layer_3" class="st0">
	<g class="st1">
		<polygon class="st4" points="38.3,102.8 57.7,78.8 60.1,75.8 55.3,75.8 34,102.9 55.3,130 60.3,130 		"/>
		<polygon class="st4" points="72.1,102.8 60.7,117.4 57.7,113.6 66.2,102.8 57.7,92.1 60.7,88.3 		"/>
		<g>
			<path class="st4" d="M108.7,103.4c0,2.6-0.9,4.6-2.6,6s-4.3,2.1-7.6,2.1c-2.3,0-4.3-0.4-6.1-1.2c-1.7-0.8-3.1-2-4.2-3.7l4.1-3.1
				c0.6,0.9,1.2,1.5,1.7,1.9s1.2,0.8,1.9,1c0.7,0.2,1.6,0.4,2.6,0.4c1.5,0,2.6-0.3,3.4-0.7c0.8-0.5,1.2-1.3,1.2-2.3
				c0-0.6-0.1-1.1-0.4-1.5s-0.7-0.7-1.3-1c-0.6-0.3-1.6-0.6-3-1s-2.7-0.7-3.9-1.1c-1.2-0.4-2.2-0.9-3.1-1.5s-1.6-1.3-2.1-2.2
				c-0.5-0.9-0.8-2-0.8-3.4c0-2.5,0.8-4.4,2.5-5.8s4.1-2.1,7.2-2.1c4.5,0,7.7,1.6,9.6,4.7L104,92c-0.7-1.1-1.5-1.9-2.4-2.4
				s-2-0.7-3.2-0.7s-2.2,0.2-3,0.7c-0.8,0.4-1.2,1.2-1.2,2.1c0,0.8,0.4,1.5,1.2,1.9c0.8,0.4,2.2,0.9,4.2,1.4
				c1.1,0.3,2.2,0.6,3.3,0.9c1.1,0.3,2.1,0.8,2.9,1.4c0.9,0.6,1.5,1.4,2.1,2.3C108.4,100.6,108.7,101.9,108.7,103.4z"/>
			<path class="st4" d="M127.6,111v-2.6c-0.9,0.9-1.9,1.7-3.2,2.3c-1.2,0.6-2.4,0.9-3.6,0.9c-2.2,0-3.8-0.6-4.7-1.9
				c-0.9-1.2-1.3-3-1.3-5.3V91.1h4.9v11c0,1.4,0.1,2.5,0.2,3.2c0.2,0.7,0.4,1.3,0.8,1.5c0.4,0.3,0.9,0.4,1.6,0.4
				c1.5,0,3.2-1,5.2-2.9V91.1h4.9V111H127.6z"/>
			<path class="st4" d="M163.7,111V99.3c0-1.2-0.1-2.1-0.2-2.7c-0.1-0.7-0.4-1.1-0.6-1.3c-0.3-0.2-0.8-0.4-1.4-0.4
				c-0.7,0-1.5,0.3-2.4,0.8c-0.8,0.6-1.6,1.2-2.3,2V111h-4.9V99.3c0-1.3-0.1-2.2-0.2-2.8c-0.1-0.6-0.3-1-0.6-1.3s-0.8-0.4-1.5-0.4
				c-0.6,0-1.3,0.2-2.1,0.7s-1.7,1.2-2.6,2.2V111H140V91.1h4.9v2.6c0.9-1,1.9-1.8,2.9-2.3c1-0.6,2.1-0.8,3.3-0.8
				c1.7,0,2.9,0.3,3.7,0.9s1.3,1.4,1.6,2.5c1.1-1.1,2.2-2,3.2-2.5c1-0.6,2.2-0.8,3.5-0.8c1.9,0,3.3,0.5,4.2,1.6s1.3,2.9,1.3,5.5V111
				H163.7z"/>
			<path class="st4" d="M199.6,111V99.3c0-1.2-0.1-2.1-0.2-2.7c-0.1-0.7-0.4-1.1-0.6-1.3c-0.3-0.2-0.8-0.4-1.4-0.4
				c-0.7,0-1.5,0.3-2.4,0.8c-0.8,0.6-1.6,1.2-2.3,2V111h-4.9V99.3c0-1.3-0.1-2.2-0.2-2.8c-0.1-0.6-0.3-1-0.6-1.3s-0.8-0.4-1.5-0.4
				c-0.6,0-1.3,0.2-2.1,0.7s-1.7,1.2-2.6,2.2V111h-4.9V91.1h4.9v2.6c0.9-1,1.9-1.8,2.9-2.3c1-0.6,2.1-0.8,3.3-0.8
				c1.7,0,2.9,0.3,3.7,0.9s1.3,1.4,1.6,2.5c1.1-1.1,2.2-2,3.2-2.5c1-0.6,2.2-0.8,3.5-0.8c1.9,0,3.3,0.5,4.2,1.6s1.3,2.9,1.3,5.5V111
				H199.6z"/>
			<path class="st4" d="M229.8,101.1c0,3.3-0.8,5.9-2.3,7.7c-1.5,1.8-3.9,2.8-7.2,2.8c-6.4,0-9.6-3.5-9.6-10.5c0-3.4,0.8-6,2.3-7.8
				s3.9-2.8,7.3-2.8c3.3,0,5.7,0.9,7.2,2.8C229,95.1,229.8,97.7,229.8,101.1z M224.7,101.1c0-2.2-0.3-3.8-1-4.8s-1.8-1.5-3.4-1.5
				c-1.6,0-2.7,0.5-3.5,1.5c-0.7,1-1.1,2.6-1.1,4.7s0.4,3.7,1.1,4.7c0.7,1,1.9,1.5,3.5,1.5s2.7-0.5,3.4-1.5
				C224.4,104.8,224.7,103.2,224.7,101.1z"/>
			<path class="st4" d="M259.9,111V99.3c0-1.2-0.1-2.1-0.2-2.7c-0.1-0.7-0.4-1.1-0.6-1.3c-0.3-0.2-0.8-0.4-1.4-0.4
				c-0.7,0-1.5,0.3-2.4,0.8c-0.8,0.6-1.6,1.2-2.3,2V111h-4.9V99.3c0-1.3-0.1-2.2-0.2-2.8c-0.1-0.6-0.3-1-0.6-1.3s-0.8-0.4-1.5-0.4
				c-0.6,0-1.3,0.2-2.1,0.7s-1.7,1.2-2.6,2.2V111h-4.9V91.1h4.9v2.6c0.9-1,1.9-1.8,2.9-2.3c1-0.6,2.1-0.8,3.3-0.8
				c1.7,0,2.9,0.3,3.7,0.9s1.3,1.4,1.6,2.5c1.1-1.1,2.2-2,3.2-2.5c1-0.6,2.2-0.8,3.5-0.8c1.9,0,3.3,0.5,4.2,1.6
				c0.9,1.1,1.3,2.9,1.3,5.5V111H259.9z"/>
			<path class="st4" d="M276.2,102.3c0.1,1.8,0.5,3,1.3,3.8s2,1.2,3.6,1.2c1,0,1.8-0.1,2.5-0.4c0.7-0.2,1.4-0.7,1.9-1.4l3.6,2.6
				c-0.8,1.1-1.8,2-3.1,2.6c-1.3,0.6-3,0.9-5.2,0.9c-3.3,0-5.7-0.9-7.3-2.6c-1.6-1.7-2.4-4.3-2.4-7.8c0-7.1,3.2-10.7,9.6-10.7
				c2.8,0,5,0.8,6.5,2.4s2.2,3.9,2.2,7v2.4H276.2z M284.5,98.9c0-3-1.3-4.5-4-4.5c-0.9,0-1.6,0.1-2.1,0.4c-0.6,0.3-1,0.7-1.3,1.3
				c-0.3,0.6-0.6,1.5-0.8,2.8C276.3,98.9,284.5,98.9,284.5,98.9z"/>
		</g>
		<g>
			<path class="st4" d="M94.5,130.5l-4-7.9v7.9h-2.2v-11h2.9l3.7,7.4v-7.4h2.2v11H94.5z"/>
			<path class="st4" d="M107.4,130.5v-0.9c-0.8,0.7-1.7,1.1-2.6,1.1s-1.6-0.2-2.1-0.7s-0.7-1.1-0.7-1.9c0-0.6,0.1-1.1,0.4-1.5
				c0.2-0.4,0.6-0.7,1.1-0.9c0.5-0.2,1.2-0.4,2.1-0.5l1.8-0.2v-0.4c0-0.5-0.1-0.8-0.4-1s-0.7-0.3-1.2-0.3c-0.4,0-0.8,0.1-1.2,0.2
				c-0.3,0.1-0.6,0.4-0.7,0.6l-1.6-1c0.3-0.5,0.7-0.8,1.3-1.1c0.6-0.3,1.3-0.4,2.2-0.4c1.3,0,2.2,0.2,2.8,0.7
				c0.6,0.5,0.9,1.2,0.9,2.2v5.7h-2.1V130.5z M107.2,126.6l-1,0.1c-0.7,0.1-1.3,0.2-1.6,0.4c-0.3,0.2-0.5,0.5-0.5,1
				c0,0.4,0.1,0.6,0.3,0.8c0.2,0.1,0.5,0.2,0.8,0.2c0.2,0,0.6-0.1,0.9-0.2c0.4-0.2,0.7-0.4,1.1-0.7
				C107.2,128.2,107.2,126.6,107.2,126.6z"/>
			<path class="st4" d="M119,130.5c-0.6,0.2-1.1,0.2-1.7,0.2c-1,0-1.7-0.2-2.1-0.7c-0.4-0.4-0.6-1.1-0.6-2.1v-4.2h-1.1v-1.6h1.1
				v-2.3h2.1v2.3h1.9v1.6h-1.9v3.9c0,0.5,0.1,0.9,0.2,1.1c0.2,0.2,0.4,0.3,0.7,0.3c0.4,0,0.8-0.1,1.1-0.2L119,130.5z"/>
			<path class="st4" d="M125.5,119.9c0,0.4-0.1,0.7-0.3,0.8c-0.2,0.2-0.5,0.2-0.9,0.2s-0.7-0.1-0.9-0.3c-0.2-0.2-0.2-0.4-0.2-0.8
				s0.1-0.6,0.3-0.8c0.2-0.2,0.5-0.2,0.9-0.2s0.7,0.1,0.9,0.2C125.4,119.2,125.5,119.5,125.5,119.9z M123.3,130.5v-8.4h2.1v8.4
				H123.3z"/>
			<path class="st4" d="M134.6,130.5h-1.9l-3-8.4h2.1l1.9,5.5l1.9-5.5h2.1L134.6,130.5z"/>
			<path class="st4" d="M143.5,126.9c0,0.7,0.2,1.3,0.5,1.6s0.8,0.5,1.5,0.5c0.4,0,0.8,0,1.1-0.2c0.3-0.1,0.6-0.3,0.8-0.6l1.5,1.1
				c-0.3,0.5-0.8,0.8-1.3,1.1c-0.5,0.2-1.3,0.4-2.2,0.4c-1.4,0-2.4-0.4-3.1-1.1c-0.7-0.7-1-1.8-1-3.3c0-3,1.3-4.5,4-4.5
				c1.2,0,2.1,0.3,2.7,1s0.9,1.7,0.9,2.9v1h-5.4V126.9z M147,125.4c0-1.3-0.6-1.9-1.7-1.9c-0.4,0-0.7,0.1-0.9,0.2s-0.4,0.3-0.6,0.6
				c-0.1,0.2-0.3,0.6-0.3,1.2L147,125.4L147,125.4z"/>
			<path class="st4" d="M166,130.5h-2.7l-3.4-11h2.3l2.5,8.2l2.5-8.2h2.2L166,130.5z"/>
			<path class="st4" d="M175,126.9c0,0.7,0.2,1.3,0.5,1.6s0.8,0.5,1.5,0.5c0.4,0,0.8,0,1.1-0.2c0.3-0.1,0.6-0.3,0.8-0.6l1.5,1.1
				c-0.3,0.5-0.8,0.8-1.3,1.1c-0.5,0.2-1.3,0.4-2.2,0.4c-1.4,0-2.4-0.4-3.1-1.1c-0.7-0.7-1-1.8-1-3.3c0-3,1.3-4.5,4-4.5
				c1.2,0,2.1,0.3,2.7,1s0.9,1.7,0.9,2.9v1H175V126.9z M178.5,125.4c0-1.3-0.6-1.9-1.7-1.9c-0.4,0-0.7,0.1-0.9,0.2s-0.4,0.3-0.6,0.6
				c-0.1,0.2-0.3,0.6-0.3,1.2L178.5,125.4L178.5,125.4z"/>
			<path class="st4" d="M190.8,130.5v-4.6c0-0.9-0.1-1.5-0.2-1.7c-0.2-0.3-0.5-0.4-0.9-0.4c-0.6,0-1.3,0.4-2.2,1.2v5.6h-2.1v-8.4
				h2.1v1.1c0.4-0.4,0.9-0.8,1.4-1s1-0.3,1.5-0.3c0.9,0,1.5,0.2,1.9,0.7s0.6,1.2,0.6,2.3v5.6h-2.1V130.5z"/>
			<path class="st4" d="M202.8,130.5c-0.6,0.2-1.1,0.2-1.7,0.2c-1,0-1.7-0.2-2.1-0.7c-0.4-0.4-0.6-1.1-0.6-2.1v-4.2h-1.1v-1.6h1.1
				v-2.3h2.1v2.3h1.9v1.6h-1.9v3.9c0,0.5,0.1,0.9,0.2,1.1c0.2,0.2,0.4,0.3,0.7,0.3c0.4,0,0.8-0.1,1.1-0.2L202.8,130.5z"/>
			<path class="st4" d="M212.3,130.5v-1.1c-0.4,0.4-0.8,0.7-1.3,1c-0.5,0.2-1,0.4-1.5,0.4c-0.9,0-1.6-0.3-2-0.8s-0.6-1.3-0.6-2.2
				v-5.6h2.1v4.6c0,0.6,0,1,0.1,1.4c0.1,0.3,0.2,0.5,0.3,0.6c0.2,0.1,0.4,0.2,0.7,0.2c0.6,0,1.3-0.4,2.2-1.2v-5.6h2.1v8.4
				L212.3,130.5L212.3,130.5z"/>
			<path class="st4" d="M224.7,124.1c-0.2-0.1-0.5-0.2-0.8-0.2c-0.4,0-0.7,0.1-1.1,0.3c-0.3,0.2-0.7,0.5-1.1,0.8v5.4h-2.1V122h2.1
				v1.2c0.4-0.4,0.7-0.7,1.1-0.9c0.4-0.3,0.9-0.4,1.4-0.4c0.4,0,0.7,0.1,0.9,0.2L224.7,124.1z"/>
			<path class="st4" d="M230.8,126.9c0,0.7,0.2,1.3,0.5,1.6s0.8,0.5,1.5,0.5c0.4,0,0.8,0,1.1-0.2c0.3-0.1,0.6-0.3,0.8-0.6l1.5,1.1
				c-0.3,0.5-0.8,0.8-1.3,1.1c-0.5,0.2-1.3,0.4-2.2,0.4c-1.4,0-2.4-0.4-3.1-1.1c-0.7-0.7-1-1.8-1-3.3c0-3,1.3-4.5,4-4.5
				c1.2,0,2.1,0.3,2.7,1s0.9,1.7,0.9,2.9v1h-5.4V126.9z M234.3,125.4c0-1.3-0.6-1.9-1.7-1.9c-0.4,0-0.7,0.1-0.9,0.2
				s-0.4,0.3-0.6,0.6c-0.1,0.2-0.3,0.6-0.3,1.2L234.3,125.4L234.3,125.4z"/>
			<path class="st4" d="M247.6,128.1c0,0.6-0.1,1-0.4,1.4c-0.3,0.4-0.7,0.7-1.2,0.9s-1.1,0.3-1.8,0.3c-1.7,0-2.9-0.5-3.6-1.5
				l1.5-1.1c0.3,0.3,0.5,0.6,0.9,0.7c0.3,0.1,0.7,0.2,1,0.2c1,0,1.5-0.3,1.5-0.9c0-0.2-0.1-0.4-0.4-0.6c-0.3-0.1-0.7-0.3-1.3-0.4
				c-1.1-0.2-1.9-0.6-2.3-1c-0.5-0.4-0.7-1-0.7-1.7s0.3-1.3,0.9-1.8c0.6-0.5,1.4-0.7,2.5-0.7c0.8,0,1.4,0.1,2,0.4
				c0.6,0.2,1,0.6,1.3,1.1l-1.5,1.1c-0.4-0.6-1-0.8-1.8-0.8c-0.4,0-0.7,0.1-1,0.2c-0.2,0.1-0.3,0.3-0.3,0.6c0,0.2,0.1,0.4,0.3,0.5
				s0.6,0.3,1.2,0.4c1,0.2,1.6,0.5,2,0.7s0.7,0.5,0.9,0.9C247.5,127.2,247.6,127.6,247.6,128.1z"/>
			<path class="st4" d="M259.3,130.5v-11h2.2v9h4.6v2.1h-6.8V130.5z"/>
			<path class="st4" d="M270.6,130.5v-11h2.2v9h4.6v2.1h-6.8V130.5z"/>
			<path class="st4" d="M290.7,128.7c-0.5,0.7-1.1,1.2-1.7,1.6c-0.7,0.3-1.5,0.5-2.5,0.5c-3.4,0-5.1-1.9-5.1-5.8
				c0-2,0.4-3.4,1.3-4.3s2.1-1.4,3.7-1.4c1.1,0,2,0.2,2.6,0.5c0.7,0.4,1.2,0.8,1.6,1.4l-1.7,1.4c-0.3-0.4-0.5-0.7-0.7-0.8
				c-0.2-0.2-0.5-0.3-0.7-0.4c-0.3-0.1-0.6-0.1-1-0.1c-0.9,0-1.6,0.3-2.1,0.9s-0.7,1.5-0.7,2.9c0,1.3,0.2,2.2,0.7,2.8
				c0.4,0.6,1.2,0.9,2.1,0.9c0.7,0,1.2-0.1,1.5-0.4c0.4-0.3,0.7-0.6,1-1L290.7,128.7z"/>
		</g>
		<path class="st4" d="M82.3,102.9L61.2,75.8l-3,3.8L40,102.9L61.2,130L82.3,102.9z M61.8,88.4L73.2,103l-11.4,14.6l-3-3.8L50.3,103
			l8.5-10.8L61.8,88.4z"/>
	</g>
</g>
<g id="Layer_2_00000174596354155857869370000003472195798690871190_" class="st0">
	<g class="st1">
		<g>
			<g>
				<polygon id="SVGID_1_" class="st4" points="83.8,69.7 95.2,54.3 97.1,73.4 92.1,65.8 				"/>
			</g>
			<g>
				<defs>
					<polygon id="SVGID_00000080927466019254520050000005478015001633932708_" points="83.8,69.7 95.2,54.3 97.1,73.4 92.1,65.8 
											"/>
				</defs>
				<clipPath id="SVGID_00000050664307806583374940000002903144172461278886_">
					<use xlink:href="#SVGID_00000080927466019254520050000005478015001633932708_"  style="overflow:visible;"/>
				</clipPath>
				
					<rect x="83.8" y="54.3" style="clip-path:url(#SVGID_00000050664307806583374940000002903144172461278886_);fill:#FFFFFF;" width="13.2" height="19.1"/>
			</g>
		</g>
		<g>
			<g>
				<path id="SVGID_00000075853229038647850350000010185668189835889048_" class="st4" d="M43.6,127L43.6,127L43.6,127L43.6,127
					l-4.8,2.6l0,0l0,0c4.4,2.6,9.6,4.1,15.1,4.1c16.5,0,29.9-13.4,29.9-29.9c0-1.5-0.1-3-0.3-4.5c-1.3,2.2-2.7,4.3-4.3,6.3
					c-1,13.1-11.9,23.5-25.3,23.5c-1.5,0-3-0.1-4.4-0.4c20.1-11.1,40.4-31.4,40.2-56.3C82.7,98.3,66.8,114.1,43.6,127"/>
			</g>
		</g>
		<path class="st4" d="M30.8,121.5c19.3-3.3,36.1-9.7,46-24.5c-17,15.8-32.7,20.1-48,21.3C29.4,119.4,30,120.5,30.8,121.5"/>
		<g>
			<g>
				<path id="SVGID_00000058585030537218188630000011990152435919291792_" class="st4" d="M29.6,104.9c0-0.4,0-0.7,0-1.1
					c0-14,11.3-25.3,25.3-25.3c8.2,0,15.4,3.9,20.1,9.9c1.1-1.1,2.1-2.2,3.1-3.3C72.6,78.3,64.3,74,54.9,74
					C38.4,74,25,87.3,25,103.8c0,1.4,0.1,2.9,0.3,4.3l0,0c25.2,9,57.8-10.2,64.4-36.5C77.8,91.7,55.8,112.2,29.6,104.9"/>
			</g>
		</g>
		<g>
			<g>
				<polygon id="SVGID_00000054245398796580889530000007501152872903360946_" class="st4" points="83.8,69.7 95.2,54.3 92.1,65.8 
									"/>
			</g>
			<g>
				<defs>
					<polygon id="SVGID_00000109747412384466192020000011440351086303444907_" points="83.8,69.7 95.2,54.3 92.1,65.8 					"/>
				</defs>
				<clipPath id="SVGID_00000129208112422841294360000009839828947137099430_">
					<use xlink:href="#SVGID_00000109747412384466192020000011440351086303444907_"  style="overflow:visible;"/>
				</clipPath>
				
					<rect x="83.8" y="54.3" style="clip-path:url(#SVGID_00000129208112422841294360000009839828947137099430_);fill:#FFFFFF;" width="11.4" height="15.4"/>
			</g>
		</g>
		<path class="st4" d="M104.5,101.1h7.2c2.4,0,4.1-0.4,5.1-1.3s1.5-2.1,1.5-3.8c0-1.2-0.3-2.2-0.9-3s-1.4-1.4-2.3-1.6
			c-0.6-0.2-1.8-0.2-3.5-0.2h-7.1C104.5,91.2,104.5,101.1,104.5,101.1z M100.8,115.7V87.8h10.5c1.9,0,3.3,0.1,4.3,0.3
			c1.4,0.2,2.5,0.7,3.5,1.3c0.9,0.6,1.7,1.5,2.2,2.7c0.6,1.2,0.8,2.4,0.8,3.8c0,2.4-0.8,4.4-2.3,6s-4.2,2.5-8.2,2.5h-7.2v11.4h-3.6
			V115.7z"/>
		<path class="st4" d="M104.5,101.1h7.2c2.4,0,4.1-0.4,5.1-1.3s1.5-2.1,1.5-3.8c0-1.2-0.3-2.2-0.9-3s-1.4-1.4-2.3-1.6
			c-0.6-0.2-1.8-0.2-3.5-0.2h-7.1C104.5,91.2,104.5,101.1,104.5,101.1z M100.8,115.7V87.8h10.5c1.9,0,3.3,0.1,4.3,0.3
			c1.4,0.2,2.5,0.7,3.5,1.3c0.9,0.6,1.7,1.5,2.2,2.7c0.6,1.2,0.8,2.4,0.8,3.8c0,2.4-0.8,4.4-2.3,6s-4.2,2.5-8.2,2.5h-7.2v11.4h-3.6
			V115.7z"/>
		<path class="st4" d="M146.8,105.9l3.7,0.9c-0.8,3-2.2,5.4-4.2,6.9c-2,1.6-4.5,2.4-7.4,2.4c-3,0-5.5-0.6-7.3-1.8
			c-1.9-1.2-3.3-3-4.3-5.3s-1.5-4.8-1.5-7.5c0-2.9,0.6-5.4,1.7-7.6c1.1-2.2,2.7-3.8,4.7-4.9c2.1-1.1,4.3-1.7,6.8-1.7
			c2.8,0,5.1,0.7,7.1,2.1c1.9,1.4,3.2,3.4,4,6l-3.6,0.9c-0.6-2-1.6-3.5-2.8-4.4s-2.8-1.4-4.7-1.4c-2.1,0-3.9,0.5-5.4,1.5
			c-1.4,1-2.5,2.4-3,4.1c-0.6,1.7-0.9,3.5-0.9,5.4c0,2.4,0.3,4.5,1,6.2c0.7,1.8,1.8,3.1,3.2,4c1.5,0.9,3,1.3,4.7,1.3
			c2.1,0,3.8-0.6,5.3-1.8C145.3,110.1,146.3,108.3,146.8,105.9"/>
		<path class="st4" d="M146.8,105.9l3.7,0.9c-0.8,3-2.2,5.4-4.2,6.9c-2,1.6-4.5,2.4-7.4,2.4c-3,0-5.5-0.6-7.3-1.8
			c-1.9-1.2-3.3-3-4.3-5.3s-1.5-4.8-1.5-7.5c0-2.9,0.6-5.4,1.7-7.6c1.1-2.2,2.7-3.8,4.7-4.9c2.1-1.1,4.3-1.7,6.8-1.7
			c2.8,0,5.1,0.7,7.1,2.1c1.9,1.4,3.2,3.4,4,6l-3.6,0.9c-0.6-2-1.6-3.5-2.8-4.4s-2.8-1.4-4.7-1.4c-2.1,0-3.9,0.5-5.4,1.5
			c-1.4,1-2.5,2.4-3,4.1c-0.6,1.7-0.9,3.5-0.9,5.4c0,2.4,0.3,4.5,1,6.2c0.7,1.8,1.8,3.1,3.2,4c1.5,0.9,3,1.3,4.7,1.3
			c2.1,0,3.8-0.6,5.3-1.8C145.3,110.1,146.3,108.3,146.8,105.9z"/>
		<rect x="155.7" y="87.8" class="st4" width="3.7" height="27.9"/>
		<rect x="155.7" y="87.8" class="st4" width="3.7" height="27.9"/>
		<path class="st4" d="M177.1,104.3h9.5l-2.9-7.7c-0.9-2.4-1.6-4.3-2-5.8c-0.4,1.8-0.9,3.6-1.5,5.3L177.1,104.3z M169,115.7
			l10.7-27.9h4l11.4,27.9H191l-3.3-8.5H176l-3.1,8.5H169z"/>
		<path class="st4" d="M177.1,104.3h9.5l-2.9-7.7c-0.9-2.4-1.6-4.3-2-5.8c-0.4,1.8-0.9,3.6-1.5,5.3L177.1,104.3z M169,115.7
			l10.7-27.9h4l11.4,27.9H191l-3.3-8.5H176l-3.1,8.5H169z"/>
		<path class="st4" d="M202.6,115.7l-7.7-20.2h3.6l4.3,12.1c0.5,1.3,0.9,2.7,1.3,4.1c0.3-1.1,0.7-2.4,1.3-3.9l4.5-12.4h3.5
			l-7.7,20.2h-3.1V115.7z"/>
		<path class="st4" d="M202.6,115.7l-7.7-20.2h3.6l4.3,12.1c0.5,1.3,0.9,2.7,1.3,4.1c0.3-1.1,0.7-2.4,1.3-3.9l4.5-12.4h3.5
			l-7.7,20.2h-3.1V115.7z"/>
		<path class="st4" d="M216.5,95.5h3.4v20.2h-3.4V95.5z M216.5,87.8h3.4v3.9h-3.4V87.8z"/>
		<path class="st4" d="M216.5,95.5h3.4v20.2h-3.4V95.5z M216.5,87.8h3.4v3.9h-3.4V87.8z"/>
		<path class="st4" d="M238.1,105.6c-1.2,0.5-3.1,0.9-5.6,1.3c-1.4,0.2-2.4,0.4-3,0.7c-0.6,0.3-1,0.6-1.4,1.1
			c-0.3,0.5-0.5,1-0.5,1.6c0,0.9,0.3,1.7,1,2.3c0.7,0.6,1.7,0.9,3,0.9s2.5-0.3,3.5-0.9s1.8-1.4,2.3-2.4c0.4-0.8,0.6-1.9,0.6-3.4
			L238.1,105.6L238.1,105.6z M238.4,113.2c-1.3,1.1-2.5,1.8-3.7,2.3c-1.2,0.4-2.4,0.7-3.8,0.7c-2.2,0-3.9-0.5-5.1-1.6
			c-1.2-1.1-1.8-2.5-1.8-4.2c0-1,0.2-1.9,0.7-2.7c0.5-0.8,1-1.5,1.8-2c0.7-0.5,1.6-0.9,2.5-1.1c0.7-0.2,1.7-0.3,3-0.5
			c2.8-0.3,4.8-0.7,6.1-1.2c0-0.5,0-0.8,0-0.9c0-1.4-0.3-2.4-1-3c-0.9-0.8-2.2-1.2-3.9-1.2c-1.6,0-2.8,0.3-3.6,0.8
			c-0.8,0.6-1.3,1.6-1.7,3l-3.4-0.5c0.3-1.4,0.8-2.6,1.5-3.5s1.7-1.6,3-2c1.3-0.5,2.9-0.7,4.6-0.7c1.7,0,3.1,0.2,4.2,0.6
			s1.9,0.9,2.4,1.5s0.9,1.4,1.1,2.3c0.1,0.6,0.2,1.6,0.2,3.2v4.6c0,3.2,0.1,5.2,0.2,6.1c0.1,0.8,0.4,1.7,0.9,2.4H239
			C238.7,115,238.5,114.2,238.4,113.2"/>
		<path class="st4" d="M238.1,105.6c-1.2,0.5-3.1,0.9-5.6,1.3c-1.4,0.2-2.4,0.4-3,0.7c-0.6,0.3-1,0.6-1.4,1.1
			c-0.3,0.5-0.5,1-0.5,1.6c0,0.9,0.3,1.7,1,2.3c0.7,0.6,1.7,0.9,3,0.9s2.5-0.3,3.5-0.9s1.8-1.4,2.3-2.4c0.4-0.8,0.6-1.9,0.6-3.4
			L238.1,105.6L238.1,105.6z M238.4,113.2c-1.3,1.1-2.5,1.8-3.7,2.3c-1.2,0.4-2.4,0.7-3.8,0.7c-2.2,0-3.9-0.5-5.1-1.6
			c-1.2-1.1-1.8-2.5-1.8-4.2c0-1,0.2-1.9,0.7-2.7c0.5-0.8,1-1.5,1.8-2c0.7-0.5,1.6-0.9,2.5-1.1c0.7-0.2,1.7-0.3,3-0.5
			c2.8-0.3,4.8-0.7,6.1-1.2c0-0.5,0-0.8,0-0.9c0-1.4-0.3-2.4-1-3c-0.9-0.8-2.2-1.2-3.9-1.2c-1.6,0-2.8,0.3-3.6,0.8
			c-0.8,0.6-1.3,1.6-1.7,3l-3.4-0.5c0.3-1.4,0.8-2.6,1.5-3.5s1.7-1.6,3-2c1.3-0.5,2.9-0.7,4.6-0.7c1.7,0,3.1,0.2,4.2,0.6
			s1.9,0.9,2.4,1.5s0.9,1.4,1.1,2.3c0.1,0.6,0.2,1.6,0.2,3.2v4.6c0,3.2,0.1,5.2,0.2,6.1c0.1,0.8,0.4,1.7,0.9,2.4H239
			C238.7,115,238.5,114.2,238.4,113.2z"/>
		<path class="st4" d="M254.4,112.7l0.5,3c-1,0.2-1.8,0.3-2.6,0.3c-1.2,0-2.2-0.2-2.9-0.6s-1.2-0.9-1.4-1.6c-0.3-0.6-0.4-2-0.4-4.1
			V98.2H245v-2.7h2.5v-5l3.4-2.1v7.1h3.5v2.7h-3.5V110c0,1,0.1,1.6,0.2,1.9c0.1,0.3,0.3,0.5,0.6,0.7s0.7,0.2,1.2,0.2
			C253.3,112.8,253.8,112.7,254.4,112.7"/>
		<path class="st4" d="M254.4,112.7l0.5,3c-1,0.2-1.8,0.3-2.6,0.3c-1.2,0-2.2-0.2-2.9-0.6s-1.2-0.9-1.4-1.6c-0.3-0.6-0.4-2-0.4-4.1
			V98.2H245v-2.7h2.5v-5l3.4-2.1v7.1h3.5v2.7h-3.5V110c0,1,0.1,1.6,0.2,1.9c0.1,0.3,0.3,0.5,0.6,0.7s0.7,0.2,1.2,0.2
			C253.3,112.8,253.8,112.7,254.4,112.7z"/>
		<path class="st4" d="M257.7,95.5h3.4v20.2h-3.4V95.5z M257.7,87.8h3.4v3.9h-3.4V87.8z"/>
		<path class="st4" d="M257.7,95.5h3.4v20.2h-3.4V95.5z M257.7,87.8h3.4v3.9h-3.4V87.8z"/>
		<path class="st4" d="M268.7,105.6c0,2.6,0.6,4.5,1.7,5.8s2.6,1.9,4.3,1.9c1.7,0,3.1-0.6,4.3-1.9c1.1-1.3,1.7-3.3,1.7-5.9
			c0-2.5-0.6-4.4-1.7-5.7c-1.1-1.3-2.6-1.9-4.2-1.9c-1.7,0-3.1,0.6-4.3,1.9C269.2,101.1,268.7,103,268.7,105.6 M265.1,105.6
			c0-3.7,1-6.5,3.1-8.3c1.7-1.5,3.9-2.2,6.4-2.2c2.8,0,5.1,0.9,6.8,2.7c1.8,1.8,2.6,4.3,2.6,7.6c0,2.6-0.4,4.7-1.2,6.1
			c-0.8,1.5-1.9,2.7-3.4,3.5s-3.1,1.2-4.9,1.2c-2.8,0-5.1-0.9-6.9-2.7C266,111.6,265.1,109,265.1,105.6"/>
		<path class="st4" d="M268.7,105.6c0,2.6,0.6,4.5,1.7,5.8s2.6,1.9,4.3,1.9c1.7,0,3.1-0.6,4.3-1.9c1.1-1.3,1.7-3.3,1.7-5.9
			c0-2.5-0.6-4.4-1.7-5.7c-1.1-1.3-2.6-1.9-4.2-1.9c-1.7,0-3.1,0.6-4.3,1.9C269.2,101.1,268.7,103,268.7,105.6z M265.1,105.6
			c0-3.7,1-6.5,3.1-8.3c1.7-1.5,3.9-2.2,6.4-2.2c2.8,0,5.1,0.9,6.8,2.7c1.8,1.8,2.6,4.3,2.6,7.6c0,2.6-0.4,4.7-1.2,6.1
			c-0.8,1.5-1.9,2.7-3.4,3.5s-3.1,1.2-4.9,1.2c-2.8,0-5.1-0.9-6.9-2.7C266,111.6,265.1,109,265.1,105.6z"/>
		<path class="st4" d="M288.1,115.7V95.5h3.1v2.9c1.5-2.2,3.6-3.3,6.4-3.3c1.2,0,2.3,0.2,3.4,0.7c1,0.4,1.8,1,2.3,1.7
			s0.9,1.6,1.1,2.5c0.1,0.6,0.2,1.7,0.2,3.3v12.4h-3.4v-12.3c0-1.4-0.1-2.4-0.4-3.1s-0.7-1.2-1.4-1.7c-0.7-0.4-1.5-0.6-2.4-0.6
			c-1.5,0-2.7,0.5-3.8,1.4c-1.1,0.9-1.6,2.7-1.6,5.3v11.1h-3.5V115.7z"/>
		<path class="st4" d="M288.1,115.7V95.5h3.1v2.9c1.5-2.2,3.6-3.3,6.4-3.3c1.2,0,2.3,0.2,3.4,0.7c1,0.4,1.8,1,2.3,1.7
			s0.9,1.6,1.1,2.5c0.1,0.6,0.2,1.7,0.2,3.3v12.4h-3.4v-12.3c0-1.4-0.1-2.4-0.4-3.1s-0.7-1.2-1.4-1.7c-0.7-0.4-1.5-0.6-2.4-0.6
			c-1.5,0-2.7,0.5-3.8,1.4c-1.1,0.9-1.6,2.7-1.6,5.3v11.1h-3.5V115.7z"/>
	</g>
</g>
</svg>
