<?xml version="1.0" encoding="utf-8"?>
<!-- Generator: Adobe Illustrator 28.1.0, SVG Export Plug-In . SVG Version: 6.00 Build 0)  -->
<svg version="1.1" id="Layer_1" xmlns="http://www.w3.org/2000/svg" xmlns:xlink="http://www.w3.org/1999/xlink" x="0px" y="0px"
	 viewBox="0 0 328 213" style="enable-background:new 0 0 328 213;" xml:space="preserve">
<style type="text/css">
	.st0{fill:#FFFFFF;}
</style>
<g>
	<g>
		<g>
			<path class="st0" d="M79.8,83c0,10.7-8.1,18.2-20.1,18.2H47.7V124h-9.5V64.9h21.6C71.8,64.9,79.8,72.3,79.8,83z M47.7,73.4v19.4
				h11.9c6.8,0,10.5-4,10.5-9.7c0-5.7-3.7-9.8-10.5-9.8H47.7z"/>
			<path class="st0" d="M143.2,77.6l-7.2,5.3c-4.1-6.4-10.2-10.2-18.1-10.2c-12.2,0-21.3,9.2-21.3,21.9s9.1,21.8,21.3,21.8
				c7.9,0,14-3.9,18.1-10.2l7.2,5.3c-4.9,8.2-14.2,13.6-25.3,13.6c-17.3,0-31.1-13.2-31.1-30.5c0-17.3,13.8-30.5,31.1-30.5
				C129,64,138.2,69.3,143.2,77.6z"/>
			<path class="st0" d="M164.1,124h-9.5V64.9h9.5V124z"/>
		</g>
	</g>
	<g>
		<path class="st0" d="M45.6,138.4l-1.8,1.5c-1.1-1.5-2.6-2.4-4.6-2.4c-3.3,0-5.5,2.4-5.5,5.6c0,3.3,2.3,5.7,5.6,5.7
			c2.1,0,3.6-0.9,4.6-2.3v-1.6h-4.7v-2.2h7.2v4.3c-1.3,2.4-4,4-7.2,4c-4.6,0-8.1-3.4-8.1-7.9s3.6-7.9,8.1-7.9
			C41.9,135.2,44.1,136.4,45.6,138.4z"/>
		<path class="st0" d="M64.6,143.1c0,4.5-3.6,7.9-8.1,7.9c-4.5,0-8-3.4-8-7.9s3.6-7.9,8-7.9C61,135.2,64.6,138.6,64.6,143.1z
			 M51,143.1c0,3.3,2.3,5.7,5.5,5.7c3.1,0,5.5-2.4,5.5-5.7c0-3.2-2.4-5.6-5.5-5.6C53.4,137.5,51,139.8,51,143.1z"/>
		<path class="st0" d="M80,135.5L73.2,151h-0.8l-6.8-15.6h2.8l4.4,10.7l4.4-10.7H80z"/>
		<path class="st0" d="M92.5,137.7h-7.6v3.9h5.7v2.1h-5.7v4.9h7.9v2.2H82.5v-15.3h10.1V137.7z"/>
		<path class="st0" d="M105.3,150.8l-4.4-5.9h-2.8v5.9h-2.5v-15.3h5.6c3.1,0,5.2,1.9,5.2,4.7c0,2-1.1,3.6-3,4.3l4.6,6.3H105.3z
			 M98.1,142.7h3.1c1.7,0,2.7-1,2.7-2.5c0-1.5-1-2.5-2.7-2.5h-3.1V142.7z"/>
		<path class="st0" d="M123,135.5V151h-0.8l-9.3-10.6v10.4h-2.5v-15.6h0.9l9.3,10.6v-10.3H123z"/>
		<path class="st0" d="M141.4,135.2v15.6H139v-9.6l-4.4,5.8h-0.8l-4.4-5.8v9.6h-2.5v-15.6h0.9l6.4,8.6l6.4-8.6H141.4z"/>
		<path class="st0" d="M155.4,137.7h-7.6v3.9h5.7v2.1h-5.7v4.9h7.9v2.2h-10.4v-15.3h10.1V137.7z"/>
		<path class="st0" d="M171.1,135.5V151h-0.8l-9.3-10.6v10.4h-2.5v-15.6h0.9l9.3,10.6v-10.3H171.1z"/>
		<path class="st0" d="M186.3,137.7h-5.2v13.1h-2.5v-13.1h-5.2v-2.2h12.8V137.7z"/>
		<path class="st0" d="M203.5,137.9l-1.7,1.3c-0.8-1.2-1.9-1.9-3.2-1.9c-1.2,0-2.3,0.6-2.3,1.9c0,1.2,0.9,1.6,2.1,2.2l1.7,0.8
			c2.3,1.1,3.7,2.3,3.7,4.4c0,2.7-2.2,4.4-5.1,4.4c-2.6,0-4.6-1.3-5.8-3.3l1.7-1.3c0.9,1.3,2.1,2.4,4,2.4c1.6,0,2.6-0.8,2.6-2.1
			c0-1.2-0.9-1.7-2.3-2.3l-1.7-0.8c-2-0.9-3.6-2.1-3.6-4.3c0-2.5,2.2-4.2,4.8-4.2C200.8,135.2,202.5,136.4,203.5,137.9z"/>
		<path class="st0" d="M217,137.7h-7.6v3.9h5.7v2.1h-5.7v4.9h7.9v2.2h-10.4v-15.3H217V137.7z"/>
		<path class="st0" d="M229.7,150.8l-4.4-5.9h-2.8v5.9h-2.5v-15.3h5.6c3.1,0,5.2,1.9,5.2,4.7c0,2-1.1,3.6-3,4.3l4.6,6.3H229.7z
			 M222.6,142.7h3.1c1.7,0,2.7-1,2.7-2.5c0-1.5-1-2.5-2.7-2.5h-3.1V142.7z"/>
		<path class="st0" d="M246.9,135.5l-6.8,15.6h-0.8l-6.8-15.6h2.8l4.4,10.7l4.4-10.7H246.9z"/>
		<path class="st0" d="M251.8,150.8h-2.5v-15.3h2.5V150.8z"/>
		<path class="st0" d="M269.4,138.7l-1.9,1.4c-1.1-1.6-2.6-2.6-4.7-2.6c-3.2,0-5.5,2.4-5.5,5.7s2.4,5.7,5.5,5.7c2,0,3.6-1,4.7-2.6
			l1.9,1.4c-1.3,2.1-3.7,3.5-6.6,3.5c-4.5,0-8.1-3.4-8.1-7.9c0-4.5,3.6-7.9,8.1-7.9C265.7,135.2,268.1,136.6,269.4,138.7z"/>
		<path class="st0" d="M282.4,137.7h-7.6v3.9h5.7v2.1h-5.7v4.9h7.9v2.2h-10.4v-15.3h10.1V137.7z"/>
		<path class="st0" d="M295.1,137.9l-1.7,1.3c-0.8-1.2-1.9-1.9-3.2-1.9c-1.2,0-2.3,0.6-2.3,1.9c0,1.2,0.9,1.6,2.1,2.2l1.7,0.8
			c2.3,1.1,3.7,2.3,3.7,4.4c0,2.7-2.2,4.4-5.1,4.4c-2.6,0-4.6-1.3-5.8-3.3l1.7-1.3c0.9,1.3,2.1,2.4,4,2.4c1.6,0,2.6-0.8,2.6-2.1
			c0-1.2-0.9-1.7-2.3-2.3l-1.7-0.8c-2-0.9-3.6-2.1-3.6-4.3c0-2.5,2.2-4.2,4.8-4.2C292.4,135.2,294.2,136.4,295.1,137.9z"/>
	</g>
	<path class="st0" d="M177.3,65v59.8h113.3V65H177.3z M236.3,106.9c-4,7.2-12,12.1-21.5,12.1c-13.7,0-24.3-10.3-24.3-23.8
		c0-13.4,10.7-23.8,24.3-23.8c8.1,0,14.7,3.6,19,9.6l-5.4,4.4c-3.2-4.5-7.7-7.2-13.7-7.2c-9.8,0-16.5,7.2-16.5,16.9
		c0,9.9,6.9,17.2,16.9,17.2c6.2,0,10.9-2.8,13.7-7v-4.9h-14.1v-6.6h21.5V106.9z M259.4,119c-7.7,0-13.9-3.9-17.4-10l5.2-4
		c2.6,3.8,6.3,7.3,12.1,7.3c4.7,0,7.9-2.4,7.9-6.4c0-3.6-2.7-5-6.8-6.9l-5.1-2.4c-5.9-2.7-10.7-6.3-10.7-12.8
		c0-7.6,6.5-12.5,14.5-12.5c6.8,0,12.1,3.5,14.8,8.2l-5.2,4c-2.4-3.6-5.7-5.6-9.7-5.6c-3.7,0-7,1.8-7,5.6c0,3.5,2.6,4.7,6.4,6.5
		l5.2,2.4c7,3.2,11,6.8,11,13.1C274.8,113.8,268.2,119,259.4,119z"/>
</g>
</svg>
