<?xml version="1.0" encoding="utf-8"?>
<!-- Generator: Adobe Illustrator 28.1.0, SVG Export Plug-In . SVG Version: 6.00 Build 0)  -->
<svg version="1.1" xmlns="http://www.w3.org/2000/svg" xmlns:xlink="http://www.w3.org/1999/xlink" x="0px" y="0px"
	 viewBox="0 0 328 213" style="enable-background:new 0 0 328 213;" xml:space="preserve">
<style type="text/css">
	.st0{fill:#FFFFFF;}
	.st1{display:none;}
	.st2{display:inline;}
	.st3{clip-path:url(#SVGID_00000127016227171511384020000008809235531184258219_);fill:#FFFFFF;}
	.st4{clip-path:url(#SVGID_00000165915294544060674140000016033967281526284188_);fill:#FFFFFF;}
</style>
<g id="Layer_1">
	<g>
		<path class="st0" d="M291.2,120.7c-0.3,0-0.5,0-0.8,0c-29.1,0-58.2,0.1-87.2,0.1c-35.4,0.1-70.7,0.1-106.1,0.2
			c-20.8,0-41.5,0.1-62.3,0.1c-0.2,0-0.4,0-0.6,0c0-0.3,0-0.7,0-1.1c0.2,0,0.5,0,0.7,0c28.1,0,56.3-0.1,84.4-0.1
			c40.3-0.1,80.5-0.1,120.8-0.2c17,0,34.1-0.1,51.1-0.1C291.2,120,291.2,120.3,291.2,120.7z"/>
		<path class="st0" d="M150,139.9c-0.2-0.1-0.3-0.2-0.5-0.2c-2.6-0.5-3.8-2.3-4-4.5c0-0.1,0-0.3,0-0.4c1.2,0,2.3,0,3.5,0
			c0,0.1,0.1,0.2,0.1,0.3c0.2,1.3,0.8,2,2.2,2.1c0.7,0.1,1.3,0,1.9-0.2c0.6-0.2,0.9-0.6,0.9-1.2c0-0.6-0.3-1-0.9-1.1
			c-1-0.3-1.9-0.6-2.9-0.9c-0.8-0.3-1.6-0.6-2.3-0.9c-1-0.5-1.8-1.2-2.1-2.3c-0.5-1.4-0.2-3.4,1.5-4.6c0.9-0.7,2-1,3.1-1.1
			c1.3-0.1,2.6,0,3.8,0.4c1.5,0.6,3,2.1,2.8,4.2c-0.1,0-0.2,0-0.3,0c-1,0-2.1,0-3.1,0c-0.1-0.2-0.1-0.4-0.2-0.5
			c-0.2-0.7-0.6-1.1-1.3-1.3c-0.7-0.2-1.3-0.2-2,0.1c-0.2,0.1-0.5,0.2-0.7,0.4c-0.4,0.4-0.4,0.9,0,1.3c0.4,0.3,0.8,0.6,1.2,0.8
			c0.9,0.4,1.8,0.6,2.6,0.9c0.7,0.2,1.3,0.5,2,0.8c2.8,1.1,2.9,4.9,1,6.6c-0.8,0.7-1.7,1.1-2.7,1.3c-0.3,0.1-0.6,0.1-0.8,0.2
			c-0.3,0-0.6,0.1-0.9,0.1C151.3,139.9,150.6,139.9,150,139.9z"/>
		<path class="st0" d="M270.3,139.9c-0.2-0.1-0.4-0.2-0.6-0.2c-2.6-0.5-3.8-2.3-4-4.7c0-0.1,0-0.2,0-0.3c1.2,0,2.3,0,3.5,0
			c0.3,1.8,1.2,2.6,3.1,2.4c0.4,0,0.9-0.1,1.3-0.3c0.5-0.2,0.8-0.6,0.8-1.2c0-0.5-0.3-0.9-0.8-1.1c-1-0.3-2-0.6-3-1
			c-0.8-0.3-1.7-0.6-2.5-1c-1-0.5-1.7-1.3-2-2.4c-0.5-1.8,0.2-3.5,1.8-4.6c0.9-0.6,1.9-0.8,3-0.9c1.3-0.1,2.5,0,3.7,0.5
			c1.8,0.7,2.9,2.4,2.8,4.2c-1.1,0-2.2,0-3.4,0c-0.1-0.2-0.1-0.4-0.2-0.6c-0.2-0.6-0.6-1-1.1-1.2c-0.7-0.2-1.4-0.2-2.1,0
			c-0.3,0.1-0.6,0.3-0.8,0.5c-0.3,0.4-0.4,0.8,0,1.2c0.3,0.3,0.6,0.5,1,0.7c0.8,0.3,1.7,0.6,2.5,0.9c0.8,0.3,1.6,0.6,2.4,0.9
			c2.7,1.1,2.9,4.9,1,6.6c-0.8,0.7-1.7,1.1-2.7,1.3c-0.3,0.1-0.6,0.1-0.8,0.2c-0.3,0-0.5,0.1-0.8,0.1
			C271.6,139.9,271,139.9,270.3,139.9z"/>
		<path class="st0" d="M124.2,139.9c-0.2-0.1-0.5-0.2-0.7-0.3c-1-0.2-1.9-0.7-2.6-1.3c-0.8-0.7-1.2-1.5-1.4-2.5
			c-0.1-0.5-0.2-1-0.2-1.5c0-3,0-5.9,0-8.9c0-0.1,0-0.3,0-0.4c1.2,0,2.3,0,3.6,0c0,0.2,0,0.5,0,0.7c0,2.7,0,5.3,0,8
			c0,0.4,0,0.8,0.1,1.2c0.1,1,0.7,1.6,1.6,1.8c0.5,0.1,1,0.1,1.4,0c1-0.2,1.5-0.8,1.6-1.8c0.1-0.4,0.1-0.8,0.1-1.2
			c0-2.6,0-5.3,0-7.9c0-0.2,0-0.5,0-0.7c1.2,0,2.4,0,3.6,0c0,0.2,0,0.4,0,0.6c0,2.8,0,5.6,0,8.3c0,0.7-0.1,1.4-0.2,2.1
			c-0.4,1.7-1.5,2.7-3,3.3c-0.5,0.2-1,0.3-1.5,0.4c-0.1,0-0.2,0.1-0.3,0.1C125.7,139.9,125,139.9,124.2,139.9z"/>
		<path class="st0" d="M130.8,67.8c0.3,0,0.5,0,0.6,0c7.5,0,14.9,0,22.4,0c2.7,0,5.4,0.2,8.1,0.6c1.6,0.3,3.2,0.7,4.7,1.3
			c3.4,1.4,5.6,3.9,6.4,7.5c0.6,2.6,0.7,5.3,0.1,8c-0.6,2.8-2.2,5.1-4.6,6.7c-0.8,0.5-1.6,0.9-2.5,1.4c0.2,0.1,0.4,0.1,0.5,0.2
			c0.3,0.1,0.7,0.2,1,0.3c3.2,1.1,5.1,3.4,5.6,6.7c0.2,1.2,0.3,2.4,0.4,3.6c0.1,2.3,0.2,4.7,0.3,7c0,0.4,0.1,0.7,0.2,1.1
			c0.2,0.7,0.4,1.3,1.1,1.4c0,0.6,0,1.2,0,1.8c-5.1,0-10.3,0-15.5,0c-0.2-0.8-0.4-1.7-0.6-2.5c-0.2-1.1-0.3-2.2-0.3-3.4
			c0-1.5,0-2.9,0-4.4c0-0.8-0.1-1.6-0.3-2.4c-0.4-2-1.7-3.1-3.7-3.5c-0.8-0.1-1.5-0.2-2.3-0.2c-2.1,0-4.2,0-6.3,0
			c-0.1,0-0.2,0-0.4,0c0,1.1,0,2.2,0,3.3c0,1.1,0,2.2,0,3.3s0,2.2,0,3.3c0,1.1,0,2.2,0,3.3c0,1.1,0,2.2,0,3.3c-5.1,0-10.1,0-15.1,0
			C130.8,99.6,130.8,83.7,130.8,67.8z M145.9,88.2c0.1,0,0.2,0,0.3,0c2.7,0,5.3,0,8,0c1,0,2-0.2,2.9-0.5c1-0.4,1.7-1.1,2-2.1
			c0.2-0.9,0.3-1.7,0.2-2.6c-0.3-2-1.1-2.9-3.1-3.3c-1.1-0.2-2.3-0.3-3.5-0.3c-2.1-0.1-4.2,0-6.3,0c-0.2,0-0.3,0-0.5,0
			C145.9,82.4,145.9,85.3,145.9,88.2z"/>
		<path class="st0" d="M267.6,66.6c1.2,0,2.4,0,3.6,0c2.7,0.1,5.3,0.5,7.8,1.3c2.2,0.7,4.2,1.8,6,3.3c2.7,2.4,4.2,5.4,4.8,8.9
			c0.1,0.4,0.1,0.8,0.1,1.2c0,0.1,0,0.1,0,0.2c-4.8,0-9.6,0-14.4,0c0,0-0.1-0.1-0.1-0.1c-0.4-2.2-1.9-3.4-4-3.8
			c-1.5-0.3-3-0.3-4.4,0.1c-0.5,0.1-1,0.3-1.4,0.6c-1.4,1-1.5,3-0.2,4c0.6,0.5,1.4,0.9,2.1,1.2c1.7,0.7,3.5,1.1,5.3,1.6
			c3.2,0.8,6.4,1.6,9.4,2.7c2.4,0.9,4.5,2.3,6.2,4.2c1.9,2.1,2.8,4.6,2.8,7.4c0,1.7,0,3.4-0.3,5.1c-0.9,3.8-3,6.8-6.2,8.9
			c-2.1,1.3-4.4,2.2-6.9,2.7c-3.3,0.7-6.6,0.9-10,0.7c-3-0.2-5.9-0.6-8.6-1.8c-3.5-1.4-6.4-3.6-8.3-6.9c-1.2-2.1-1.9-4.4-2.2-6.7
			c0-0.2,0-0.4,0-0.7c5,0,9.9,0,14.9,0c0.1,0.2,0.1,0.4,0.2,0.6c0.6,2.2,2.1,3.6,4.4,4c1.7,0.3,3.4,0.3,5.1-0.1
			c0.7-0.2,1.4-0.5,2-0.9c1.2-0.9,1.8-2.8,0.2-4.1c-0.7-0.6-1.4-0.9-2.2-1.3c-1.6-0.7-3.2-1-4.8-1.4c-3.5-0.9-7-1.8-10.3-3.1
			c-2.3-0.9-4.2-2.1-5.7-4c-1.6-2-2.4-4.2-2.7-6.7c-0.2-2.1-0.1-4.1,0.5-6.1c0.9-3,2.7-5.4,5.2-7.2c2.3-1.7,5-2.6,7.8-3.1
			C264.4,66.9,266,66.8,267.6,66.6z"/>
		<path class="st0" d="M107.4,68.1c-0.7,0-1.4,0.1-2.1,0.1c-3.8,0.3-7,1.7-9.8,4.3c-3.3,3-5.5,6.7-6.5,11.1
			c-0.3,1.1-0.4,2.1-0.2,3.3c2.2-1.1,4.3-2.1,6.4-3.1c0.4-1.2,0.7-2.3,1.1-3.4c0.5-1.5,1.3-2.9,2.2-4.2c2.9-4.2,6.9-6.1,12-6
			c0.9,0,1.8,0.1,2.7,0.3c0.4,0.1,0.8,0.2,1.1,0.4c5.2,3.1,8.5,7.7,10,13.5c0.8,3,1,6.1,0.9,9.2c-0.1,3.4-0.7,6.7-2.1,9.9
			c-0.4,0.9-0.9,1.8-1.4,2.7c-0.2,0.3-0.4,0.6-0.7,0.9c0-0.1,0-0.2,0-0.3c0.5-3.9-0.3-7.6-2-11.2c-1.6-3.3-3.7-6.2-6.5-8.6
			c-0.5-0.4-1.1-0.8-1.7-1.2c-0.1-0.1-0.3-0.1-0.4,0c-0.1,0.1-0.1,0.3-0.1,0.4c0.3,1.3,0.2,2.6,0.1,3.8c-0.1,0.8-0.2,1.6-0.3,2.3
			c-0.1,0.4,0.1,0.6,0.3,0.8c2.3,2,4.2,4.4,5.6,7.1c1.2,2.4,1.9,5,1.7,7.7c-0.1,1.1-0.3,2.2-0.6,3.2c-0.1,0.3-0.3,0.5-0.5,0.7
			c-2.7,2.1-5.7,3.5-8.9,4.3c-3.4,0.8-6.9,1-10.4,0.8c-2.9-0.2-5.8-0.7-8.6-1.7c-6.7-2.6-11.1-7.2-13.4-14c0-0.1-0.1-0.2-0.1-0.5
			c0.1,0.1,0.2,0.2,0.3,0.2c2.5,3.5,6,5.6,10.1,6.7c3.8,1,7.5,1,11.3,0.1c1-0.3,2-0.6,2.9-1.2c0.3-0.2,0.6-0.5,0.9-0.7
			c-0.2-0.1-0.3-0.1-0.4-0.2c-1.8-0.8-3.4-1.8-4.9-3.1c-0.3-0.3-0.6-0.3-1.1-0.3c-3.6,0.6-7.3,0.7-10.9-0.3
			c-4.1-1.1-7.3-3.5-9.2-7.4c-0.2-0.3-0.3-0.7-0.3-1c-0.1-3,0.1-6.1,0.9-9c2.2-8.5,7.7-13.9,16.1-16.3c3.2-0.9,6.4-1.1,9.7-1.1
			c2.2,0.1,4.5,0.3,6.6,0.8C107.3,68.1,107.3,68.1,107.4,68.1C107.4,68.1,107.4,68.1,107.4,68.1z M87.8,101.5
			c2.7-5.5,6.8-9.1,13.2-9.9c0.6-2.3,0.6-4.6,0-6.8c-2.3-0.2-7.1,1-10.9,3.7c-3.9,2.7-6.6,6.4-8.6,10.7
			C83.4,100.4,85.5,101.2,87.8,101.5z M98.9,77.8c3.9,5.3,5,11,2.4,17.2c1.3,1.9,3.4,2.6,5.5,3.2c0.1-0.2,0.3-0.4,0.4-0.6
			c0.2-0.5,0.5-0.9,0.7-1.4c1.5-3.9,1.7-7.8,0.9-11.8c-0.8-3.8-2.4-7.2-4.5-10.5c-0.1-0.2-0.2-0.3-0.4-0.5
			C101.5,74.2,100.3,76.1,98.9,77.8z M114.3,100.3c-6.6,0.7-12-1.2-16.1-6.5c-1.9,1.1-3.7,2.1-5.6,3.2c0.5,0.7,0.9,1.3,1.4,1.9
			c2.5,3.1,5.7,5.2,9.4,6.5c3.3,1.2,6.6,1.6,10.1,1.5c0.7,0,1.5-0.1,2.3-0.1C115.8,104.5,115.4,102.4,114.3,100.3z"/>
		<path class="st0" d="M49.6,87.2c5.5,0,11,0,16.5,0c0,3.9,0,7.6,0,11.5c-5.5,0-11,0-16.5,0c0,5.6,0,11.2,0,16.8
			c-5.1,0-10.2,0-15.3,0c-0.1-0.5-0.2-46.4-0.1-47.6c12,0,24,0,36,0c0,4,0,7.9,0,12c-6.9,0-13.8,0-20.7,0
			C49.6,82.3,49.6,84.7,49.6,87.2z"/>
		<path class="st0" d="M177.7,80.4c0-4.2,0-8.4,0-12.5c14.3,0,28.5,0,42.8,0c0,4.2,0,8.3,0,12.5c-4.6,0-9.1,0-13.7,0
			c0,11.7,0,23.4,0,35.1c-5.1,0-10.2,0-15.3,0c0-11.7,0-23.3,0-35.1C186.9,80.4,182.3,80.4,177.7,80.4z"/>
		<path class="st0" d="M225.8,67.8c5.2,0,10.3,0,15.5,0c0,15.9,0,31.7,0,47.6c-5.2,0-10.3,0-15.5,0
			C225.8,99.6,225.8,83.7,225.8,67.8z"/>
		<path class="st0" d="M69.3,125c1.7,3,3.4,6,5,9c0-2.9-0.1-5.9-0.1-8.9c1.2,0,2.4,0,3.6,0c0,4.8,0,9.6,0,14.4c-1.3,0-2.6,0-4,0
			c-1.7-2.9-3.4-5.9-5.1-9c0.3,3.1,0.2,6,0.2,9c-1.2,0-2.4,0-3.5,0c0-4.8,0-9.6,0-14.4c0.6,0,1.3,0,1.9,0
			C67.9,125,68.5,125,69.3,125z"/>
		<path class="st0" d="M199.6,134c0,1.8,0,3.6,0,5.4c-1.2,0-2.4,0-3.6,0c0-4.8,0-9.6,0-14.4c0.2,0,0.3,0,0.5,0c2.2,0,4.4,0,6.6,0
			c0.9,0,1.7,0.1,2.6,0.4c1.6,0.5,2.5,1.7,2.6,3.4c0.1,1.6-0.5,2.8-1.9,3.6c-0.1,0-0.1,0.1-0.2,0.2c0.1,0.1,0.1,0.1,0.1,0.2
			c1,0.4,1.4,1.3,1.5,2.3c0.1,0.7,0.1,1.4,0.1,2.2c0,0.6,0.1,1.3,0.5,1.8c0.1,0.1,0.1,0.3,0.1,0.6c-0.7,0-1.3,0-1.9,0
			c-0.6,0-1.3,0-2,0c-0.1-0.4-0.2-0.7-0.2-1.1c-0.1-0.7-0.1-1.4-0.1-2c0-0.1,0-0.3,0-0.4c-0.1-1.3-0.6-1.9-1.9-1.9
			C201.3,134,200.5,134,199.6,134z M199.6,127.8c0,1.2,0,2.2,0,3.3c1.2,0,2.3,0,3.4,0c0.1,0,0.3-0.1,0.4-0.1c0.8-0.3,1.1-0.8,1-1.7
			c-0.1-0.7-0.5-1.3-1.3-1.3C202,127.9,200.8,127.9,199.6,127.8z"/>
		<path class="st0" d="M92.6,139.5c0-4.8,0-9.6,0-14.4c0.1,0,0.3,0,0.4,0c2,0,3.9,0,5.9,0c0.8,0,1.6,0.1,2.4,0.4
			c1.9,0.6,3.1,1.9,3.6,3.8c0.6,2,0.6,4,0.1,6c-0.6,2.3-2.2,3.6-4.5,4.1c-0.7,0.1-1.3,0.2-2,0.2C96.5,139.5,94.6,139.5,92.6,139.5z
			 M96.3,128.1c0,2.8,0,5.5,0,8.3c0.9,0,1.7,0,2.5,0c1.2-0.1,2.1-0.7,2.5-1.9c0.1-0.4,0.2-0.9,0.3-1.3c0.1-1.1,0.1-2.2-0.3-3.3
			c-0.4-1-1.1-1.6-2.2-1.7C98.1,128.1,97.2,128.1,96.3,128.1z"/>
		<path class="st0" d="M244.8,136.5c2.5,0,4.9,0,7.4,0c0,1,0,2,0,3c-3.7,0-7.4,0-11.1,0c0-4.8,0-9.6,0-14.4c3.6,0,7.2,0,10.9,0
			c0,1,0,1.9,0,2.9c-2.4,0-4.8,0-7.2,0c0,0.9,0,1.7,0,2.5c2.2,0,4.3,0,6.5,0c0.1,0.5,0,1,0.1,1.5c0,0.5,0,0.9,0,1.4
			c-2.2,0-4.4,0-6.6,0C244.8,134.5,244.8,135.5,244.8,136.5z"/>
		<path class="st0" d="M170.4,125c4,0,8,0,11.9,0c0,1,0,1.9,0,2.9c-1.3,0-2.7,0-4.1,0c0,3.9,0,7.7,0,11.5c-1.2,0-2.4,0-3.7,0
			c0-3.8,0-7.6,0-11.5c-1.4,0-2.7,0-4.1,0c-0.2-0.5-0.1-1-0.1-1.5C170.4,126.1,170.4,125.6,170.4,125z"/>
		<path class="st0" d="M46.9,125c1.2,0,2.4,0,3.6,0c0,4.8,0,9.6,0,14.4c-1.2,0-2.4,0-3.6,0C46.9,134.7,46.9,129.9,46.9,125z"/>
		<path class="st0" d="M222.7,139.5c0-4.8,0-9.6,0-14.4c1.2,0,2.4,0,3.5,0c0.1,0.5,0.2,12.6,0.1,14.4
			C225.1,139.5,223.9,139.5,222.7,139.5z"/>
	</g>
</g>
<g id="Layer_2" class="st1">
	<g class="st2">
		<g>
			<defs>
				<polygon id="SVGID_1_" points="83.8,69.7 95.2,54.3 97.1,73.4 92.1,65.8 				"/>
			</defs>
			<use xlink:href="#SVGID_1_"  style="overflow:visible;fill:#FFFFFF;"/>
			<clipPath id="SVGID_00000008113156657026212030000000635961420901724862_">
				<use xlink:href="#SVGID_1_"  style="overflow:visible;"/>
			</clipPath>
			
				<rect x="83.8" y="54.3" style="clip-path:url(#SVGID_00000008113156657026212030000000635961420901724862_);fill:#FFFFFF;" width="13.2" height="19.1"/>
		</g>
		<g>
			<defs>
				<path id="SVGID_00000055697444694558203230000003938553584514020756_" d="M43.6,127L43.6,127L43.6,127L43.6,127l-4.8,2.6l0,0h0
					c4.4,2.6,9.6,4.1,15.1,4.1c16.5,0,29.9-13.4,29.9-29.9c0-1.5-0.1-3-0.3-4.5c-1.3,2.2-2.7,4.3-4.3,6.3
					c-1,13.1-11.9,23.5-25.3,23.5c-1.5,0-3-0.1-4.4-0.4c20.1-11.1,40.4-31.4,40.2-56.3C82.7,98.3,66.8,114.1,43.6,127"/>
			</defs>
			<use xlink:href="#SVGID_00000055697444694558203230000003938553584514020756_"  style="overflow:visible;fill:#FFFFFF;"/>
			<clipPath id="SVGID_00000037672785006678884500000004293768500005124253_">
				<use xlink:href="#SVGID_00000055697444694558203230000003938553584514020756_"  style="overflow:visible;"/>
			</clipPath>
		</g>
		<path class="st0" d="M30.8,121.5c19.3-3.3,36.1-9.7,46-24.5c-17,15.8-32.7,20.1-48,21.3C29.4,119.4,30,120.5,30.8,121.5"/>
		<g>
			<defs>
				<path id="SVGID_00000096053514567300619790000010100691398151450803_" d="M29.6,104.9c0-0.4,0-0.7,0-1.1
					c0-14,11.3-25.3,25.3-25.3c8.2,0,15.4,3.9,20.1,9.9c1.1-1.1,2.1-2.2,3.1-3.3C72.6,78.3,64.3,74,54.9,74
					C38.4,74,25,87.3,25,103.8c0,1.4,0.1,2.9,0.3,4.3l0,0c25.2,9,57.8-10.2,64.4-36.5C77.8,91.7,55.8,112.2,29.6,104.9"/>
			</defs>
			<use xlink:href="#SVGID_00000096053514567300619790000010100691398151450803_"  style="overflow:visible;fill:#FFFFFF;"/>
			<clipPath id="SVGID_00000081643791286223685210000011700485068747239817_">
				<use xlink:href="#SVGID_00000096053514567300619790000010100691398151450803_"  style="overflow:visible;"/>
			</clipPath>
		</g>
		<g>
			<defs>
				<polygon id="SVGID_00000143617446593963411120000014665777443581439112_" points="83.8,69.7 95.2,54.3 92.1,65.8 				"/>
			</defs>
			<use xlink:href="#SVGID_00000143617446593963411120000014665777443581439112_"  style="overflow:visible;fill:#FFFFFF;"/>
			<clipPath id="SVGID_00000129916422294110933690000002601119713770181541_">
				<use xlink:href="#SVGID_00000143617446593963411120000014665777443581439112_"  style="overflow:visible;"/>
			</clipPath>
			
				<rect x="83.8" y="54.3" style="clip-path:url(#SVGID_00000129916422294110933690000002601119713770181541_);fill:#FFFFFF;" width="11.4" height="15.4"/>
		</g>
		<path class="st0" d="M104.5,101.1h7.2c2.4,0,4.1-0.4,5.1-1.3c1-0.9,1.5-2.1,1.5-3.8c0-1.2-0.3-2.2-0.9-3c-0.6-0.8-1.4-1.4-2.3-1.6
			c-0.6-0.2-1.8-0.2-3.5-0.2h-7.1V101.1z M100.8,115.7V87.8h10.5c1.9,0,3.3,0.1,4.3,0.3c1.4,0.2,2.5,0.7,3.5,1.3
			c0.9,0.6,1.7,1.5,2.2,2.7c0.6,1.2,0.8,2.4,0.8,3.8c0,2.4-0.8,4.4-2.3,6c-1.5,1.6-4.2,2.5-8.2,2.5h-7.2v11.4H100.8z"/>
		<path class="st0" d="M104.5,101.1h7.2c2.4,0,4.1-0.4,5.1-1.3c1-0.9,1.5-2.1,1.5-3.8c0-1.2-0.3-2.2-0.9-3c-0.6-0.8-1.4-1.4-2.3-1.6
			c-0.6-0.2-1.8-0.2-3.5-0.2h-7.1V101.1z M100.8,115.7V87.8h10.5c1.9,0,3.3,0.1,4.3,0.3c1.4,0.2,2.5,0.7,3.5,1.3
			c0.9,0.6,1.7,1.5,2.2,2.7c0.6,1.2,0.8,2.4,0.8,3.8c0,2.4-0.8,4.4-2.3,6c-1.5,1.6-4.2,2.5-8.2,2.5h-7.2v11.4H100.8z"/>
		<path class="st0" d="M146.8,105.9l3.7,0.9c-0.8,3-2.2,5.4-4.2,6.9c-2,1.6-4.5,2.4-7.4,2.4c-3,0-5.5-0.6-7.3-1.8
			c-1.9-1.2-3.3-3-4.3-5.3c-1-2.3-1.5-4.8-1.5-7.5c0-2.9,0.6-5.4,1.7-7.6c1.1-2.2,2.7-3.8,4.7-4.9c2.1-1.1,4.3-1.7,6.8-1.7
			c2.8,0,5.1,0.7,7.1,2.1c1.9,1.4,3.2,3.4,4,6l-3.6,0.9c-0.6-2-1.6-3.5-2.8-4.4c-1.2-0.9-2.8-1.4-4.7-1.4c-2.1,0-3.9,0.5-5.4,1.5
			c-1.4,1-2.5,2.4-3,4.1c-0.6,1.7-0.9,3.5-0.9,5.4c0,2.4,0.3,4.5,1,6.2c0.7,1.8,1.8,3.1,3.2,4c1.5,0.9,3,1.3,4.7,1.3
			c2.1,0,3.8-0.6,5.3-1.8C145.3,110.1,146.3,108.3,146.8,105.9"/>
		<path class="st0" d="M146.8,105.9l3.7,0.9c-0.8,3-2.2,5.4-4.2,6.9c-2,1.6-4.5,2.4-7.4,2.4c-3,0-5.5-0.6-7.3-1.8
			c-1.9-1.2-3.3-3-4.3-5.3c-1-2.3-1.5-4.8-1.5-7.5c0-2.9,0.6-5.4,1.7-7.6c1.1-2.2,2.7-3.8,4.7-4.9c2.1-1.1,4.3-1.7,6.8-1.7
			c2.8,0,5.1,0.7,7.1,2.1c1.9,1.4,3.2,3.4,4,6l-3.6,0.9c-0.6-2-1.6-3.5-2.8-4.4c-1.2-0.9-2.8-1.4-4.7-1.4c-2.1,0-3.9,0.5-5.4,1.5
			c-1.4,1-2.5,2.4-3,4.1c-0.6,1.7-0.9,3.5-0.9,5.4c0,2.4,0.3,4.5,1,6.2c0.7,1.8,1.8,3.1,3.2,4c1.5,0.9,3,1.3,4.7,1.3
			c2.1,0,3.8-0.6,5.3-1.8C145.3,110.1,146.3,108.3,146.8,105.9z"/>
		<rect x="155.7" y="87.8" class="st0" width="3.7" height="27.9"/>
		<rect x="155.7" y="87.8" class="st0" width="3.7" height="27.9"/>
		<path class="st0" d="M177.1,104.3h9.5l-2.9-7.7c-0.9-2.4-1.6-4.3-2-5.8c-0.4,1.8-0.9,3.6-1.5,5.3L177.1,104.3z M169,115.7
			l10.7-27.9h4l11.4,27.9H191l-3.3-8.5H176l-3.1,8.5H169z"/>
		<path class="st0" d="M177.1,104.3h9.5l-2.9-7.7c-0.9-2.4-1.6-4.3-2-5.8c-0.4,1.8-0.9,3.6-1.5,5.3L177.1,104.3z M169,115.7
			l10.7-27.9h4l11.4,27.9H191l-3.3-8.5H176l-3.1,8.5H169z"/>
		<path class="st0" d="M202.6,115.7l-7.7-20.2h3.6l4.3,12.1c0.5,1.3,0.9,2.7,1.3,4.1c0.3-1.1,0.7-2.4,1.3-3.9l4.5-12.4h3.5
			l-7.7,20.2H202.6z"/>
		<path class="st0" d="M202.6,115.7l-7.7-20.2h3.6l4.3,12.1c0.5,1.3,0.9,2.7,1.3,4.1c0.3-1.1,0.7-2.4,1.3-3.9l4.5-12.4h3.5
			l-7.7,20.2H202.6z"/>
		<path class="st0" d="M216.5,95.5h3.4v20.2h-3.4V95.5z M216.5,87.8h3.4v3.9h-3.4V87.8z"/>
		<path class="st0" d="M216.5,95.5h3.4v20.2h-3.4V95.5z M216.5,87.8h3.4v3.9h-3.4V87.8z"/>
		<path class="st0" d="M238.1,105.6c-1.2,0.5-3.1,0.9-5.6,1.3c-1.4,0.2-2.4,0.4-3,0.7c-0.6,0.3-1,0.6-1.4,1.1
			c-0.3,0.5-0.5,1-0.5,1.6c0,0.9,0.3,1.7,1,2.3c0.7,0.6,1.7,0.9,3,0.9c1.3,0,2.5-0.3,3.5-0.9c1-0.6,1.8-1.4,2.3-2.4
			c0.4-0.8,0.6-1.9,0.6-3.4V105.6z M238.4,113.2c-1.3,1.1-2.5,1.8-3.7,2.3c-1.2,0.4-2.4,0.7-3.8,0.7c-2.2,0-3.9-0.5-5.1-1.6
			c-1.2-1.1-1.8-2.5-1.8-4.2c0-1,0.2-1.9,0.7-2.7c0.5-0.8,1-1.5,1.8-2c0.7-0.5,1.6-0.9,2.5-1.1c0.7-0.2,1.7-0.3,3-0.5
			c2.8-0.3,4.8-0.7,6.1-1.2c0-0.5,0-0.8,0-0.9c0-1.4-0.3-2.4-1-3c-0.9-0.8-2.2-1.2-3.9-1.2c-1.6,0-2.8,0.3-3.6,0.8
			c-0.8,0.6-1.3,1.6-1.7,3l-3.4-0.5c0.3-1.4,0.8-2.6,1.5-3.5c0.7-0.9,1.7-1.6,3-2c1.3-0.5,2.9-0.7,4.6-0.7c1.7,0,3.1,0.2,4.2,0.6
			s1.9,0.9,2.4,1.5c0.5,0.6,0.9,1.4,1.1,2.3c0.1,0.6,0.2,1.6,0.2,3.2v4.6c0,3.2,0.1,5.2,0.2,6.1c0.1,0.8,0.4,1.7,0.9,2.4h-3.6
			C238.7,115,238.5,114.2,238.4,113.2"/>
		<path class="st0" d="M238.1,105.6c-1.2,0.5-3.1,0.9-5.6,1.3c-1.4,0.2-2.4,0.4-3,0.7c-0.6,0.3-1,0.6-1.4,1.1
			c-0.3,0.5-0.5,1-0.5,1.6c0,0.9,0.3,1.7,1,2.3c0.7,0.6,1.7,0.9,3,0.9c1.3,0,2.5-0.3,3.5-0.9c1-0.6,1.8-1.4,2.3-2.4
			c0.4-0.8,0.6-1.9,0.6-3.4V105.6z M238.4,113.2c-1.3,1.1-2.5,1.8-3.7,2.3c-1.2,0.4-2.4,0.7-3.8,0.7c-2.2,0-3.9-0.5-5.1-1.6
			c-1.2-1.1-1.8-2.5-1.8-4.2c0-1,0.2-1.9,0.7-2.7c0.5-0.8,1-1.5,1.8-2c0.7-0.5,1.6-0.9,2.5-1.1c0.7-0.2,1.7-0.3,3-0.5
			c2.8-0.3,4.8-0.7,6.1-1.2c0-0.5,0-0.8,0-0.9c0-1.4-0.3-2.4-1-3c-0.9-0.8-2.2-1.2-3.9-1.2c-1.6,0-2.8,0.3-3.6,0.8
			c-0.8,0.6-1.3,1.6-1.7,3l-3.4-0.5c0.3-1.4,0.8-2.6,1.5-3.5c0.7-0.9,1.7-1.6,3-2c1.3-0.5,2.9-0.7,4.6-0.7c1.7,0,3.1,0.2,4.2,0.6
			s1.9,0.9,2.4,1.5c0.5,0.6,0.9,1.4,1.1,2.3c0.1,0.6,0.2,1.6,0.2,3.2v4.6c0,3.2,0.1,5.2,0.2,6.1c0.1,0.8,0.4,1.7,0.9,2.4h-3.6
			C238.7,115,238.5,114.2,238.4,113.2z"/>
		<path class="st0" d="M254.4,112.7l0.5,3c-1,0.2-1.8,0.3-2.6,0.3c-1.2,0-2.2-0.2-2.9-0.6c-0.7-0.4-1.2-0.9-1.4-1.6
			c-0.3-0.6-0.4-2-0.4-4.1V98.2H245v-2.7h2.5v-5l3.4-2.1v7.1h3.5v2.7h-3.5V110c0,1,0.1,1.6,0.2,1.9c0.1,0.3,0.3,0.5,0.6,0.7
			c0.3,0.2,0.7,0.2,1.2,0.2C253.3,112.8,253.8,112.7,254.4,112.7"/>
		<path class="st0" d="M254.4,112.7l0.5,3c-1,0.2-1.8,0.3-2.6,0.3c-1.2,0-2.2-0.2-2.9-0.6c-0.7-0.4-1.2-0.9-1.4-1.6
			c-0.3-0.6-0.4-2-0.4-4.1V98.2H245v-2.7h2.5v-5l3.4-2.1v7.1h3.5v2.7h-3.5V110c0,1,0.1,1.6,0.2,1.9c0.1,0.3,0.3,0.5,0.6,0.7
			c0.3,0.2,0.7,0.2,1.2,0.2C253.3,112.8,253.8,112.7,254.4,112.7z"/>
		<path class="st0" d="M257.7,95.5h3.4v20.2h-3.4V95.5z M257.7,87.8h3.4v3.9h-3.4V87.8z"/>
		<path class="st0" d="M257.7,95.5h3.4v20.2h-3.4V95.5z M257.7,87.8h3.4v3.9h-3.4V87.8z"/>
		<path class="st0" d="M268.7,105.6c0,2.6,0.6,4.5,1.7,5.8c1.1,1.3,2.6,1.9,4.3,1.9c1.7,0,3.1-0.6,4.3-1.9c1.1-1.3,1.7-3.3,1.7-5.9
			c0-2.5-0.6-4.4-1.7-5.7c-1.1-1.3-2.6-1.9-4.2-1.9c-1.7,0-3.1,0.6-4.3,1.9C269.2,101.1,268.7,103,268.7,105.6 M265.1,105.6
			c0-3.7,1-6.5,3.1-8.3c1.7-1.5,3.9-2.2,6.4-2.2c2.8,0,5.1,0.9,6.8,2.7c1.8,1.8,2.6,4.3,2.6,7.6c0,2.6-0.4,4.7-1.2,6.1
			c-0.8,1.5-1.9,2.7-3.4,3.5c-1.5,0.8-3.1,1.2-4.9,1.2c-2.8,0-5.1-0.9-6.9-2.7C266,111.6,265.1,109,265.1,105.6"/>
		<path class="st0" d="M268.7,105.6c0,2.6,0.6,4.5,1.7,5.8c1.1,1.3,2.6,1.9,4.3,1.9c1.7,0,3.1-0.6,4.3-1.9c1.1-1.3,1.7-3.3,1.7-5.9
			c0-2.5-0.6-4.4-1.7-5.7c-1.1-1.3-2.6-1.9-4.2-1.9c-1.7,0-3.1,0.6-4.3,1.9C269.2,101.1,268.7,103,268.7,105.6z M265.1,105.6
			c0-3.7,1-6.5,3.1-8.3c1.7-1.5,3.9-2.2,6.4-2.2c2.8,0,5.1,0.9,6.8,2.7c1.8,1.8,2.6,4.3,2.6,7.6c0,2.6-0.4,4.7-1.2,6.1
			c-0.8,1.5-1.9,2.7-3.4,3.5c-1.5,0.8-3.1,1.2-4.9,1.2c-2.8,0-5.1-0.9-6.9-2.7C266,111.6,265.1,109,265.1,105.6z"/>
		<path class="st0" d="M288.1,115.7V95.5h3.1v2.9c1.5-2.2,3.6-3.3,6.4-3.3c1.2,0,2.3,0.2,3.4,0.7c1,0.4,1.8,1,2.3,1.7
			c0.5,0.7,0.9,1.6,1.1,2.5c0.1,0.6,0.2,1.7,0.2,3.3v12.4h-3.4v-12.3c0-1.4-0.1-2.4-0.4-3.1c-0.3-0.7-0.7-1.2-1.4-1.7
			c-0.7-0.4-1.5-0.6-2.4-0.6c-1.5,0-2.7,0.5-3.8,1.4c-1.1,0.9-1.6,2.7-1.6,5.3v11.1H288.1z"/>
		<path class="st0" d="M288.1,115.7V95.5h3.1v2.9c1.5-2.2,3.6-3.3,6.4-3.3c1.2,0,2.3,0.2,3.4,0.7c1,0.4,1.8,1,2.3,1.7
			c0.5,0.7,0.9,1.6,1.1,2.5c0.1,0.6,0.2,1.7,0.2,3.3v12.4h-3.4v-12.3c0-1.4-0.1-2.4-0.4-3.1c-0.3-0.7-0.7-1.2-1.4-1.7
			c-0.7-0.4-1.5-0.6-2.4-0.6c-1.5,0-2.7,0.5-3.8,1.4c-1.1,0.9-1.6,2.7-1.6,5.3v11.1H288.1z"/>
	</g>
</g>
</svg>
