<?xml version="1.0" encoding="utf-8"?>
<!-- Generator: Adobe Illustrator 28.1.0, SVG Export Plug-In . SVG Version: 6.00 Build 0)  -->
<svg version="1.1" id="Layer_1" xmlns="http://www.w3.org/2000/svg" xmlns:xlink="http://www.w3.org/1999/xlink" x="0px" y="0px"
	 viewBox="0 0 328 213" style="enable-background:new 0 0 328 213;" xml:space="preserve">
<style type="text/css">
	.st0{fill:#BA2535;}
	.st1{fill:#44454F;}
</style>
<g>
	<g>
		
			<rect x="42.4" y="74.1" transform="matrix(0.7071 0.7071 -0.7071 0.7071 75.7491 -17.725)" class="st0" width="33.7" height="16.9"/>
		
			<rect x="57.8" y="101.5" transform="matrix(-0.7071 0.7071 -0.7071 -0.7071 205.2073 134.8101)" class="st1" width="33.7" height="16.9"/>
		
			<rect x="73.1" y="74.1" transform="matrix(0.7071 0.7071 -0.7071 0.7071 84.7424 -39.4368)" class="st0" width="33.7" height="16.9"/>
		
			<rect x="88.5" y="101.5" transform="matrix(-0.7071 0.7071 -0.7071 -0.7071 257.6241 113.0984)" class="st1" width="33.7" height="16.9"/>
		
			<rect x="103.8" y="74.1" transform="matrix(0.7071 0.7071 -0.7071 0.7071 93.7357 -61.1485)" class="st0" width="33.7" height="16.9"/>
	</g>
	<g>
		<path d="M157.8,127.7h-12.6V64.6h25.3c2.3,0,4.5,0.3,6.7,0.9c2.1,0.6,4.1,1.5,6,2.6c1.9,1.1,3.6,2.4,5.1,4s2.9,3.2,4,5.1
			c1.1,1.9,2,3.9,2.6,6c0.6,2.1,0.9,4.4,0.9,6.7c0,3.5-0.7,6.7-2,9.8c-1.3,3.1-3.1,5.7-5.4,8c-2.3,2.3-5,4.1-8,5.4
			c-3.1,1.3-6.3,2-9.8,2h-12.6V127.7z M157.8,77.3v25.3h12.6c1.7,0,3.4-0.3,4.9-1c1.5-0.7,2.9-1.6,4-2.7c1.1-1.1,2-2.5,2.7-4
			c0.7-1.5,1-3.2,1-4.9c0-1.7-0.3-3.4-1-4.9s-1.6-2.9-2.7-4s-2.5-2-4-2.7c-1.5-0.7-3.2-1-4.9-1H157.8z"/>
		<path d="M253.4,121.3c-2.9,2.5-6.2,4.5-9.9,5.8c-3.6,1.3-7.4,2-11.3,2c-3,0-5.9-0.4-8.6-1.2c-2.8-0.8-5.4-1.9-7.8-3.3
			c-2.4-1.4-4.6-3.1-6.6-5.1c-2-2-3.7-4.2-5.1-6.6c-1.4-2.4-2.5-5-3.3-7.8c-0.8-2.8-1.2-5.7-1.2-8.6c0-3,0.4-5.9,1.2-8.7
			c0.8-2.8,1.9-5.4,3.3-7.8c1.4-2.4,3.1-4.6,5.1-6.6c2-2,4.2-3.7,6.6-5.1s5-2.5,7.8-3.3c2.8-0.8,5.7-1.2,8.6-1.2
			c3.9,0,7.7,0.7,11.3,2c3.6,1.3,6.9,3.3,9.9,5.8l-6.7,11c-1.8-2-4-3.5-6.6-4.6c-2.5-1.1-5.2-1.6-7.9-1.6c-2.8,0-5.4,0.5-7.8,1.6
			c-2.4,1.1-4.6,2.5-6.4,4.3c-1.8,1.8-3.3,3.9-4.3,6.4c-1.1,2.4-1.6,5.1-1.6,7.8s0.5,5.3,1.6,7.8c1.1,2.4,2.5,4.5,4.3,6.4
			c1.8,1.8,3.9,3.3,6.4,4.3c2.4,1.1,5,1.6,7.8,1.6c2.8,0,5.4-0.5,7.9-1.6c2.5-1.1,4.7-2.6,6.6-4.6L253.4,121.3z"/>
		<path d="M273.3,127.7h-12.6V64.6h12.6V127.7z"/>
	</g>
	<g>
		<path d="M148.2,138.9H145v-1.2v-1.2h9.3v1.2v1.2h-3.2v14h-1.5h-1.5V138.9z"/>
		<path d="M158.5,152.9v-16.4h7.3v1.2v1.2h-4.3v4.3h4.2v1.2v1.2h-4.2v4.7h4.4v1.2v1.2H158.5z"/>
		<path d="M179.1,147.3v0.5c0,1.9-0.3,3.3-1,4.1c-0.7,0.8-1.8,1.2-3.4,1.2c-1.7,0-2.9-0.4-3.5-1.3c-0.7-0.9-1-2.4-1-4.6v-5.1
			c0-2.2,0.3-3.7,1-4.6c0.7-0.9,1.9-1.3,3.5-1.3c1.5,0,2.5,0.4,3.2,1.2c0.7,0.8,1,1.9,1,3.5v0.3v0.5h-3v-0.5c0-0.9-0.1-1.5-0.3-1.9
			c-0.2-0.4-0.5-0.6-1-0.6c-0.6,0-1,0.2-1.2,0.7c-0.2,0.5-0.4,1.3-0.4,2.4v5.1c0,1.4,0.1,2.4,0.3,3c0.2,0.6,0.6,0.8,1.2,0.8
			c0.5,0,0.8-0.2,1-0.7c0.2-0.5,0.3-1.2,0.3-2.2v-0.5H179.1z"/>
		<path d="M183.5,136.4h1.5h1.5v6.8h2.9v-6.8h1.5h1.5v16.4h-1.5h-1.5v-7.2h-2.9v7.2H185h-1.5V136.4z"/>
		<path d="M199.9,152.9h-1.2h-1.2v-16.4h2.2h2.2l2.5,13.9v-13.9h1.2h1.2v16.4h-2.2h-2.2l-2.5-14V152.9z"/>
		<path d="M212.6,151.9c-0.7-0.8-1-2.3-1-4.3v-6.8c0-1.5,0.4-2.7,1.1-3.4c0.8-0.8,1.9-1.1,3.4-1.1c1.5,0,2.7,0.4,3.4,1.1
			c0.8,0.8,1.1,1.9,1.1,3.4v6.8c0,2-0.3,3.5-1,4.3c-0.7,0.8-1.9,1.3-3.5,1.3C214.4,153.1,213.2,152.7,212.6,151.9z M217.3,150
			c0.2-0.4,0.3-1.2,0.3-2.3v-6.8c0-0.7-0.1-1.3-0.4-1.7c-0.3-0.4-0.7-0.6-1.2-0.6c-0.5,0-0.9,0.2-1.2,0.6c-0.3,0.4-0.4,0.9-0.4,1.7
			v6.8c0,1.1,0.1,1.9,0.3,2.3c0.2,0.4,0.6,0.7,1.2,0.7C216.7,150.6,217.1,150.4,217.3,150z"/>
		<path d="M225.5,152.9v-16.4h1.5h1.5v14h3.8v1.2v1.2H225.5z"/>
		<path d="M237.5,151.9c-0.7-0.8-1-2.3-1-4.3v-6.8c0-1.5,0.4-2.7,1.1-3.4c0.8-0.8,1.9-1.1,3.4-1.1c1.5,0,2.7,0.4,3.4,1.1
			c0.8,0.8,1.1,1.9,1.1,3.4v6.8c0,2-0.3,3.5-1,4.3c-0.7,0.8-1.9,1.3-3.5,1.3C239.4,153.1,238.2,152.7,237.5,151.9z M242.3,150
			c0.2-0.4,0.3-1.2,0.3-2.3v-6.8c0-0.7-0.1-1.3-0.4-1.7c-0.3-0.4-0.7-0.6-1.2-0.6s-0.9,0.2-1.2,0.6c-0.3,0.4-0.4,0.9-0.4,1.7v6.8
			c0,1.1,0.1,1.9,0.3,2.3c0.2,0.4,0.6,0.7,1.2,0.7C241.7,150.6,242.1,150.4,242.3,150z"/>
		<path d="M254.9,153.1c-1.7,0-2.9-0.5-3.5-1.5c-0.7-1-1-2.7-1-5.2v-3.9c0-2.2,0.4-3.9,1.1-4.9c0.8-1,2-1.5,3.7-1.5
			c1.5,0,2.6,0.4,3.3,1.2c0.7,0.8,1.1,2,1,3.6v0.5h-3V141c0-0.8-0.1-1.4-0.4-1.8c-0.3-0.4-0.6-0.6-1.2-0.6c-0.6,0-1,0.3-1.3,0.8
			c-0.2,0.5-0.4,1.5-0.4,2.9v3.9c0,1.8,0.1,3,0.3,3.5s0.7,0.9,1.4,0.9c0.3,0,0.7-0.1,1.4-0.3v-3.8h-1.4v-2.4h4.4v8.3
			C257.9,152.9,256.4,153.1,254.9,153.1L254.9,153.1z"/>
		<path d="M266.9,146.7l-3.4-10.3h1.6h1.6l1.7,6.5l0,0l1.9-6.5h1.5h1.5l-3.4,10.2v6.3h-1.5h-1.5V146.7z"/>
	</g>
</g>
</svg>
