<?xml version="1.0" encoding="utf-8"?>
<!-- Generator: Adobe Illustrator 28.1.0, SVG Export Plug-In . SVG Version: 6.00 Build 0)  -->
<svg version="1.1" id="Layer_1" xmlns="http://www.w3.org/2000/svg" xmlns:xlink="http://www.w3.org/1999/xlink" x="0px" y="0px"
	 viewBox="0 0 328 213" style="enable-background:new 0 0 328 213;" xml:space="preserve">
<style type="text/css">
	.st0{fill:#C10230;}
	.st1{fill:#F5B335;}
</style>
<g>
	<path d="M86.7,152.1c-17.9,0-35-10.4-42.7-27.8c-5-11.4-5.3-24.1-0.8-35.7C47.7,77,56.5,67.8,67.9,62.8
		c23.5-10.4,51.1,0.3,61.5,23.9c10.4,23.5-0.3,51.1-23.9,61.5C99.4,150.8,93,152.1,86.7,152.1z M86.6,63.3c-5.7,0-11.4,1.2-17,3.6
		c-21.3,9.4-31,34.3-21.6,55.6c9.4,21.3,34.3,31,55.6,21.6c21.3-9.4,31-34.3,21.6-55.6C118.3,72.7,102.8,63.3,86.6,63.3z"/>
	<path class="st0" d="M92.5,68.6c-2,3.4-2.6,6.4-4.2,10c1.9-0.1,2.5,0.4,4.4,0.3c0,0.1,0,0.2,0,0.3c-1.2,0.5-2.5,1.1-4,1.7
		c3.1,0.8,6.6,0.5,8.4,3.2c-2.3-1.6-5.1-0.6-7.7-0.5c1.8,1.5,3.7,2.8,6.4,2.6c-1.3,0.6-2.7,0.7-4.1,0.5c-1.3-0.3-2.6-0.6-3.9-0.9
		c2,1.3,3.7,3,6.6,2.9c0.7,0,1.4,0.3,2.3,0.5c-1.8,0.2-3.4,0.4-5.1,0.5c0.3,0.2,0.4,0.3,0.6,0.4c1.6,0.7,2.3,2.2,3.2,3.4
		c0.7,1,1.6,1.8,2.9,2.2c-0.5,0-1,0-1.4-0.2c-1.1-0.6-2.1-1.3-3.1-2.1c-0.9-0.8-1.8-1.6-3.4-1.8c3,5.3,3.4,10.8,1,16.6
		c-0.8-0.9-1.6-1.8-2.5-2.6c-0.1,0-0.2,0.1-0.3,0.1c0.8,1.7,1.5,3.4,2.3,5.2c0.2,0.4,0.3,1,0.2,1.5c-0.3,1.5-0.7,3.1-1.1,4.9
		c-1.4-1.3-2.5-2.3-3.6-3.4c-0.1,0-0.1,0.1-0.2,0.1c0.9,2.1,1.8,4.2,2.8,6.3c-0.1,0.1-0.2,0.1-0.3,0.2c-0.7-0.7-1.4-1.4-2-2.1
		c-0.1,0-0.2,0-0.2,0.1c1.6,4.3,1.6,8.8,1.6,13.4c-2.2-1-4.4-1.9-6.6-2.9c0,0.1-0.1,0.1-0.1,0.2c0.8,0.7,1.7,1.4,2.5,2.1
		c1.5,1.2,2.9,2.4,4.4,3.7c0.2,0.2,0.3,0.4,0.4,0.6c0.2,0.8,0.2,1.7,0.5,2.5c0.4,1.6,0.5,3.1,0.4,4.7c4.1-0.3,8.1-1.3,12.1-3.1
		c18.9-8.3,27.4-30.3,19.1-49.2C115.5,78.4,104.6,70.6,92.5,68.6z"/>
	<path class="st1" d="M70.2,139c-0.3-1.1-0.5-2.1-0.7-3.2c-1.2-5.7-1.8-11.6-1.5-17.5c0.2-4.2,0.5-8.4,2.6-12.4c0.8-1.6,2-3,3-4.5
		c0.5-0.7,1-1.4,1.4-2.3c-0.5,0.3-1.1,0.7-1.6,1c0.7-6.3,4.9-11.2,8.8-16.2c-0.7,2.1-1.5,4.2-2,6.3c-1.2,4.6-2.4,9.3-3.3,13.9
		c-0.7,3.7-1.2,7.4-1.6,11.1c-0.5,6,0,11.8,1.1,17.6c0.5,2.7,1.2,5.4,1.8,8.1c0.1,0.3,0.2,0.6,0.4,0.9l0,0c-0.6-2.8-1.2-5.5-1.7-8.3
		c-1.5-8.5-1.6-17.1,0.1-25.9c1.4-6.9,2.9-13.7,5.3-20.5c1.9-5.5,4.3-11,7.2-16.2c0.5-0.9,1-1.8,1.5-2.7c-6.4-0.7-13,0.2-19.3,2.9
		c-18.9,8.3-27.4,30.3-19.1,49.2C56.2,128.9,62.6,135.2,70.2,139z"/>
	<g>
		<g>
			<path class="st0" d="M155,126.8h-13.2V61h26.3c2.4,0,4.7,0.3,7,0.9c2.2,0.6,4.3,1.5,6.3,2.7c1.9,1.1,3.7,2.5,5.3,4.1
				c1.6,1.6,3,3.4,4.1,5.3c1.1,2,2,4.1,2.7,6.3c0.6,2.2,0.9,4.6,0.9,7c0,3.6-0.7,7-2.1,10.2c-1.4,3.2-3.3,6-5.6,8.4
				c-2.4,2.4-5.2,4.3-8.4,5.6c-3.2,1.4-6.6,2.1-10.2,2.1H155V126.8z M155,74.1v26.3h13.2c1.8,0,3.5-0.3,5.1-1c1.6-0.7,3-1.6,4.2-2.8
				c1.2-1.2,2.1-2.6,2.8-4.2c0.7-1.6,1-3.3,1-5.1c0-1.8-0.3-3.5-1-5.1c-0.7-1.6-1.6-3-2.8-4.2c-1.2-1.2-2.6-2.1-4.2-2.8
				c-1.6-0.7-3.3-1-5.1-1H155z"/>
			<path class="st0" d="M254.7,120c-3.1,2.6-6.5,4.7-10.3,6.1c-3.8,1.4-7.7,2.1-11.8,2.1c-3.1,0-6.1-0.4-9-1.2s-5.6-2-8.1-3.4
				c-2.5-1.5-4.8-3.3-6.9-5.3s-3.9-4.4-5.3-6.9c-1.5-2.5-2.6-5.2-3.4-8.1c-0.8-2.9-1.2-5.9-1.2-9c0-3.1,0.4-6.1,1.2-9
				c0.8-2.9,2-5.6,3.4-8.1c1.5-2.5,3.3-4.8,5.3-6.9c2.1-2.1,4.4-3.9,6.9-5.3c2.5-1.5,5.2-2.6,8.1-3.4c2.9-0.8,5.9-1.2,9-1.2
				c4.1,0,8,0.7,11.8,2.1c3.8,1.4,7.2,3.4,10.3,6.1l-7,11.5c-1.9-2.1-4.2-3.7-6.8-4.8c-2.6-1.1-5.4-1.7-8.3-1.7
				c-2.9,0-5.6,0.6-8.2,1.7c-2.5,1.1-4.8,2.6-6.7,4.5c-1.9,1.9-3.4,4.1-4.5,6.7c-1.1,2.6-1.7,5.3-1.7,8.1c0,2.9,0.6,5.6,1.7,8.1
				c1.1,2.5,2.6,4.7,4.5,6.6c1.9,1.9,4.1,3.4,6.7,4.5s5.3,1.7,8.2,1.7c2.9,0,5.6-0.6,8.3-1.7c2.6-1.1,4.9-2.7,6.8-4.8L254.7,120z"/>
			<path class="st0" d="M275.5,126.8h-13.2V61h13.2V126.8z"/>
		</g>
	</g>
	<g>
		<path d="M141.6,135.3h3.9c2,0,2.7,1.8,2.7,4.7c0,1.8-0.3,4.6-2.9,4.6h-1.6v6.4h-2.1V135.3z M143.8,142.2h1.2
			c0.6,0,1.1-1.1,1.1-2.1c0-1.3-0.2-2.4-1.2-2.4h-1.1V142.2z"/>
		<path d="M153,151h-2.1v-15.7h4c1.5,0,2.4,1.4,2.4,4.1c0,2-0.5,3.5-1.9,3.8v0c0.5,0.1,1.9,0.3,1.9,3.1c0,1,0,4,0.2,4.6h-2.1
			c-0.3-1-0.2-2-0.2-3c0-1.9,0.1-3.5-1.5-3.5H153V151z M153,142.1h1c0.9,0,1.1-1.3,1.1-2.3c0-1.5-0.4-2.1-1.1-2.1h-1V142.1z"/>
		<path d="M160.1,143.2c0-4.1,0-8.1,3.5-8.1c3.5,0,3.5,4,3.5,8.1c0,4.1,0,8.1-3.5,8.1C160.1,151.3,160.1,147.3,160.1,143.2z
			 M165,143.2c0-4-0.2-5.8-1.4-5.8s-1.4,1.7-1.4,5.8s0.2,5.8,1.4,5.8S165,147.2,165,143.2z"/>
		<path d="M170.4,135.3h3.6c2.8,0,3.3,2.9,3.3,7.8c0,2.4,0.2,7.9-3.4,7.9h-3.5V135.3z M172.5,148.6h1c1.3,0,1.6-1.5,1.6-5.4
			c0-2.9,0-5.4-1.5-5.4h-1.1V148.6z"/>
		<path d="M187.3,135.3v11.1c0,2.3-0.9,4.8-3.5,4.8c-2.4,0-3.5-1.9-3.5-4.8v-11.1h2.1v10.9c0,1.9,0.5,2.7,1.3,2.7
			c0.9,0,1.4-1,1.4-2.7v-10.9H187.3z"/>
		<path d="M190.4,143.2c0-4.1,0-8.1,3.5-8.1c2.2,0,3.1,1.8,3,5.2h-2.1c0-2.1-0.2-2.9-0.9-2.9c-1.2,0-1.4,1.7-1.4,5.8
			s0.2,5.8,1.4,5.8c1,0,1-2,1-3.2h2.1c0,4.2-1.1,5.5-3.1,5.5C190.4,151.3,190.4,147.3,190.4,143.2z"/>
		<path d="M205.9,135.3v2.6h-2.4V151h-2.1v-13.1H199v-2.6H205.9z"/>
		<path d="M208.3,151v-15.7h2.1V151H208.3z"/>
		<path d="M213.6,143.2c0-4.1,0-8.1,3.5-8.1c3.5,0,3.5,4,3.5,8.1c0,4.1,0,8.1-3.5,8.1C213.6,151.3,213.6,147.3,213.6,143.2z
			 M218.5,143.2c0-4-0.2-5.8-1.4-5.8c-1.2,0-1.4,1.7-1.4,5.8s0.2,5.8,1.4,5.8C218.3,148.9,218.5,147.2,218.5,143.2z"/>
		<path d="M223.8,151v-15.7h2.9l2.7,10.9h0v-10.9h2V151h-2.8l-2.8-11.5h0V151H223.8z"/>
		<path d="M237.5,151.3c-2.7,0-3.1-2.4-3-5.1h2.1c0,1.5,0,2.8,1.2,2.8c0.7,0,1.1-0.7,1.1-1.8c0-2.8-4.3-3-4.3-7.7
			c0-2.5,0.8-4.4,3.4-4.4c2.1,0,3.1,1.4,3,4.7h-2.1c0-1.2-0.1-2.4-1-2.4c-0.7,0-1.1,0.6-1.1,1.7c0,3,4.3,2.7,4.3,7.6
			C241,150.8,239.1,151.3,237.5,151.3z"/>
		<path d="M244,148.1h1.9l-1.1,5h-1.4L244,148.1z"/>
		<path d="M253.1,151v-15.7h2.1v13.1h3.2v2.6H253.1z"/>
		<path d="M260.9,151v-15.7h2.1v13.1h3.2v2.6H260.9z"/>
		<path d="M268.5,143.2c0-4.1,0-8.1,3.5-8.1c2.2,0,3.1,1.8,3,5.2h-2.1c0-2.1-0.2-2.9-0.9-2.9c-1.2,0-1.4,1.7-1.4,5.8
			s0.2,5.8,1.4,5.8c1,0,1-2,1-3.2h2.1c0,4.2-1.1,5.5-3.1,5.5C268.5,151.3,268.5,147.3,268.5,143.2z"/>
	</g>
</g>
</svg>
