<?xml version="1.0" encoding="utf-8"?>
<!-- Generator: Adobe Illustrator 28.1.0, SVG Export Plug-In . SVG Version: 6.00 Build 0)  -->
<svg version="1.1" id="Layer_1" xmlns="http://www.w3.org/2000/svg" xmlns:xlink="http://www.w3.org/1999/xlink" x="0px" y="0px"
	 viewBox="0 0 328 213" style="enable-background:new 0 0 328 213;" xml:space="preserve">
<style type="text/css">
	.st0{fill:#808285;}
	.st1{fill:#2A3B90;}
</style>
<g>
	<path class="st0" d="M91,90c-0.2-0.4-0.3-0.6-0.4-0.8c-2.3-3.9-4.6-7.8-7-11.6c-0.4-0.6-0.4-0.6-1.2-0.5c-3,0.5-6,0.9-9,1.4
		c-4.3,0.6-8.5,1.2-12.8,1.9c-0.8,0.1-1.6,0.3-2.3,0.4c-0.1,0.7,0.4,0.9,0.7,1.1c4.9,3.9,9.7,7.7,14.6,11.6c0.5,0.4,1,0.5,1.6,0.4
		c4.4-1,8.7-2.1,13.1-3.1C89.1,90.5,90,90.2,91,90z M150.7,45.5c4,3.4,7.9,6.7,11.9,10c3.6-3.3,7.1-6.6,10.6-9.8
		c-0.7-1.5-10.1-15.6-10.7-16.1C158.5,34.9,154.6,40.1,150.7,45.5z M211.1,63.5c0.4-0.1,0.7-0.1,1-0.2c2.5-0.7,5.1-1.3,7.6-2
		c2.2-0.6,4.4-1.2,6.6-1.8c0.4-0.1,0.7-0.2,0.7-0.7c0.2-2.2,0.5-4.4,0.7-6.6c0.2-1.9,0.4-3.8,0.7-5.8c0.2-1.6,0.3-3.3,0.5-5.1
		c-7.1,3-14.1,6-21.1,9C209,54.7,210.1,59,211.1,63.5z M242.7,92.5c0.4,0.1,0.7,0.2,1,0.2c3.6,0.7,7.2,1.4,10.8,2.1
		c1.3,0.2,2.5,0.5,3.8,0.7c0.5,0.1,0.9,0.2,1.4-0.3c1.7-1.9,3.5-3.7,5.2-5.5c2.4-2.5,4.9-5.1,7.3-7.6c0.2-0.2,0.3-0.4,0.5-0.7
		c-1.7-0.1-3.2-0.2-4.7-0.2c-3.5-0.2-6.9-0.4-10.4-0.6c-1.6-0.1-3.2-0.2-4.8-0.2c-1.1-0.1-2.3-0.1-3.4-0.2c-0.7-0.1-0.7-0.1-1.1,0.6
		c-1.4,3-2.9,5.9-4.3,8.9C243.6,90.5,243.2,91.5,242.7,92.5z M124.2,63.5c1-4.3,2-8.4,3-12.6c-2.2-1.2-4.4-2.3-6.6-3.4
		c-2.2-1.1-4.3-2.3-6.5-3.4c-2.2-1.1-4.3-2.3-6.6-3.3c0,6.2-0.2,12.2-0.1,18.3C113,60.6,118.5,62,124.2,63.5z"/>
	<path class="st0" d="M102.4,152.2c-9.6,0-19.1,0-28.6,0c0,0.3-0.1,0.4-0.1,0.6c0,1.7,0,3.3,0,5c0,0.4,0.1,0.7,0.4,1
		c0.6,0.6,1.2,1.3,1.8,2c0.2,0.2,0.4,0.5,0.5,0.8c-5.4,0.1-10.7,0.1-16,0.1c0-10.9,0-21.8,0-32.7c0.3,0,0.5-0.1,0.7-0.1
		c10.3,0,20.5,0,30.8,0c0.5,0,0.9,0.2,1.3,0.5c2.8,2.8,5.6,5.6,8.5,8.3c0.5,0.5,0.7,0.9,0.7,1.6c0,3.9,0,7.7,0,11.6
		C102.4,151.4,102.4,151.7,102.4,152.2z M73.8,142.5c2.3,0.2,14.4,0.2,15.1,0c0-1.3,0-2.6,0-4c-5.1,0-10.1,0-15.1,0
		C73.8,139.9,73.8,141.2,73.8,142.5z"/>
	<path class="st0" d="M120,138.5c0,4.7,0,9.1,0,13.7c0.2,0,0.5,0.1,0.7,0.1c8,0,16,0,23.9,0c0.4,0,0.8-0.1,1.1-0.4
		c0.6-0.5,1.2-1,1.8-1.5c0.2-0.2,0.4-0.2,0.8-0.4c0,4,0,7.9,0,11.8c-13.9,0-27.8,0-41.7,0c0-10.9,0-21.8,0-32.7c0.3,0,0.6,0,0.9,0
		c10.1,0,20.2,0,30.3,0c0.6,0,1,0.2,1.4,0.6c2.7,2.7,5.5,5.3,8.3,8c0.2,0.2,0.5,0.5,0.7,0.7c0,0.1-0.1,0.1-0.1,0.2
		C138.7,138.5,129.4,138.5,120,138.5z"/>
	<path class="st0" d="M152.4,161.8c0-10.9,0-21.8,0-32.7c4.4,0,8.8,0,13.2,0c0,10.9,0,21.8,0,32.7
		C165,161.9,153.9,161.9,152.4,161.8z"/>
	<path class="st1" d="M209.6,156.3c1.1,0.6,1.7,1.4,2.1,2.4c0.5,0.9,1,1.9,1.5,2.9c-1.5,0-2.9,0-4.3,0c-0.2-0.3-0.4-0.7-0.7-1.1
		c-0.5-0.9-1-1.8-1.5-2.7c-0.4-0.7-0.9-1-1.8-1c0,1.6,0,3.2,0,4.9c-1.3,0.1-2.5,0-3.7,0c-0.2-0.7-0.3-9.5-0.1-12
		c0.2,0,0.4-0.1,0.7-0.1c2.1,0,4.2,0,6.3,0c0.5,0,1,0.1,1.5,0.1c1.5,0.2,2.5,1.2,2.7,2.6c0.2,1.5-0.4,2.8-1.7,3.5
		C210.2,156,210,156.1,209.6,156.3z M205,152.1c0,0.8,0,1.5,0,2.4c0.8-0.1,1.6-0.1,2.4-0.2c0.7-0.1,1-0.5,1-1.1c0-0.6-0.4-1-1.1-1
		C206.5,152,205.8,152.1,205,152.1z"/>
	<path class="st1" d="M251,136.1c1.1,0.6,1.7,1.4,2.1,2.4c0.5,0.9,1,1.9,1.6,3c-1.5,0-2.9,0-4.3,0c-0.2-0.4-0.5-0.8-0.7-1.2
		c-0.5-0.9-1-1.8-1.5-2.7c-0.4-0.7-0.9-1-1.8-1c0,1.6,0,3.2,0,4.9c-0.6,0-1.2,0-1.9,0c-0.6,0-1.2,0-1.9,0c-0.2-0.7-0.3-9.5-0.1-12
		c0.2,0,0.4-0.1,0.7-0.1c2.1,0,4.2,0,6.3,0c0.5,0,1,0.1,1.5,0.1c1.5,0.2,2.5,1.2,2.7,2.6c0.2,1.5-0.4,2.8-1.7,3.5
		C251.7,135.8,251.4,135.9,251,136.1z M246.4,134.3c0.9-0.1,1.7-0.1,2.5-0.2c0.7-0.1,0.9-0.5,0.9-1.1c0-0.6-0.4-1-1-1
		c-0.8-0.1-1.6,0-2.4,0C246.4,132.7,246.4,133.4,246.4,134.3z"/>
	<path class="st1" d="M240.4,135.4c-0.1,0.6-0.1,1.2-0.2,1.8c-0.5,2.4-1.9,3.7-4.2,4.3c-1.4,0.3-2.7,0.3-4.1,0
		c-2.3-0.5-3.8-2.1-4.3-4.5c-0.2-1.3-0.2-2.5,0.2-3.8c0.5-1.8,1.7-3,3.5-3.6c1.8-0.6,3.6-0.6,5.4,0c2.3,0.8,3.4,2.5,3.6,4.8
		C240.4,134.8,240.3,135.1,240.4,135.4C240.3,135.4,240.4,135.4,240.4,135.4z M231.3,135.5c0.1,0.6,0.2,1.3,0.4,1.9
		c0.4,1,1.2,1.4,2.3,1.4c1.1,0,1.9-0.5,2.2-1.4c0.4-1.3,0.5-2.6,0.1-3.9c-0.3-1.1-1.2-1.6-2.3-1.6c-1.1,0-2,0.5-2.3,1.6
		C231.4,134.2,231.4,134.8,231.3,135.5z"/>
	<path class="st1" d="M188.6,129.4c1.2,0,2.4,0,3.7,0c0,0.3,0.1,0.5,0.1,0.8c0,2,0,3.9,0,5.9c0,0.2,0,0.4,0,0.6
		c0.1,1.6,1.4,2.5,2.9,2c0.8-0.3,1.3-0.9,1.3-1.8c0-0.9,0-1.8,0-2.8c0-1.5,0-3.1,0-4.7c1.3,0,2.5,0,3.8,0c0,0.2,0.1,0.4,0.1,0.6
		c0,2.1,0,4.3,0,6.4c0,1.3-0.3,2.5-1.2,3.5c-1,1.1-2.2,1.5-3.6,1.6c-1.2,0-2.3,0-3.5-0.2c-2.1-0.4-3.5-2-3.6-4.3c-0.1-2.5,0-5,0-7.5
		C188.5,129.6,188.6,129.5,188.6,129.4z"/>
	<path class="st1" d="M188.5,149.6c3.4,0,6.7,0,10.2,0c0,0.8,0,1.7,0,2.6c-2.1,0-4.2,0-6.3,0c0,0.7,0,1.2,0,1.8c2,0,3.9,0,5.9,0
		c0,0.9,0,1.6,0,2.5c-1.9,0-3.9,0-5.9,0c0,0.8,0,1.5,0,2.3c2.1,0,4.3,0,6.4,0c0.2,0.9,0.1,1.8,0.1,2.8c-3.5,0-6.9,0-10.4,0
		C188.5,157.6,188.5,153.6,188.5,149.6z"/>
	<path class="st1" d="M248,161.6c0-4,0-8,0-12c3.4,0,6.8,0,10.2,0c0,0.8,0,1.7,0,2.5c-2.1,0-4.2,0-6.3,0c0,0.6,0,1.2,0,1.8
		c1.9,0,3.9,0,5.9,0c0,0.9,0,1.6,0,2.5c-1.9,0.1-3.9,0-5.9,0.1c0,0.8,0,1.5,0,2.3c1.1,0.1,2.2,0,3.2,0c1.1,0,2.1,0,3.3,0
		c0,1,0,1.8,0,2.8C254.9,161.6,251.5,161.6,248,161.6z"/>
	<path class="st1" d="M175.3,137.4c1.2-0.1,2.3-0.2,3.6-0.2c0.1,0.2,0.1,0.3,0.1,0.5c0.4,1.2,1.3,1.8,2.6,1.5c0.6-0.1,1.1-0.5,1.1-1
		c0.1-0.5-0.2-1-0.8-1.2c-0.5-0.2-1-0.3-1.4-0.4c-0.9-0.3-1.9-0.5-2.8-0.9c-1.2-0.5-2-1.5-1.9-2.9c0-1.4,0.8-2.4,2.1-2.9
		c2-0.8,4.1-0.8,6.1,0c1.3,0.5,1.9,1.4,2.1,3.1c-0.6,0-1.2,0.1-1.7,0.1c-0.6,0-1.2,0.1-1.8,0.1c-0.1-0.2-0.2-0.4-0.2-0.6
		c-0.4-0.9-1.5-1.3-2.4-0.9c-0.3,0.1-0.5,0.4-0.6,0.7c0,0.4,0.2,0.6,0.6,0.7c0.5,0.2,1,0.3,1.5,0.4c0.9,0.2,1.8,0.4,2.6,0.8
		c1.4,0.6,2.4,1.5,2.4,3.2c0,1.7-0.8,3-2.3,3.7c-1.4,0.6-2.8,0.7-4.3,0.5c-0.5,0-1.1-0.1-1.6-0.3
		C176.5,140.8,175.4,139.4,175.3,137.4z"/>
	<path class="st1" d="M186.2,153.1c-1.2,0.1-2.4,0.1-3.6,0.2c-0.1-0.2-0.1-0.4-0.2-0.6c-0.4-0.9-1.5-1.3-2.4-0.9
		c-0.3,0.1-0.5,0.4-0.6,0.7c0,0.4,0.2,0.6,0.6,0.7c0.5,0.2,1,0.3,1.5,0.4c0.9,0.2,1.8,0.4,2.6,0.8c1.5,0.6,2.5,1.6,2.4,3.3
		c0,1.7-0.9,2.9-2.4,3.6c-1.3,0.6-2.8,0.6-4.2,0.5c-0.5,0-1-0.1-1.5-0.3c-1.9-0.5-3-1.9-3.1-3.9c0.2,0,0.4-0.1,0.6-0.1
		c1-0.1,2-0.1,3-0.2c0.1,0.2,0.1,0.3,0.1,0.5c0.3,1.3,1.4,1.8,2.7,1.5c0.6-0.1,1-0.6,1.1-1.1c0-0.5-0.2-0.9-0.8-1.1
		c-0.5-0.2-1-0.3-1.4-0.4c-0.9-0.3-1.9-0.5-2.8-0.9c-1.2-0.5-2-1.5-2-2.9c0-1.4,0.8-2.4,2.1-2.9c2-0.8,4.1-0.8,6.1,0
		C185.3,150.4,185.9,151.5,186.2,153.1z"/>
	<path class="st1" d="M270.6,153.1c-1.2,0.1-2.3,0.1-3.5,0.2c-0.1-0.1-0.1-0.2-0.2-0.3c-0.4-1.1-1-1.4-2.1-1.3
		c-0.2,0-0.4,0.1-0.5,0.2c-0.2,0.2-0.4,0.5-0.4,0.7c0,0.2,0.3,0.6,0.5,0.6c0.5,0.2,1,0.3,1.5,0.4c0.9,0.2,1.8,0.4,2.7,0.8
		c1.5,0.6,2.5,1.5,2.5,3.2c0,1.6-0.9,3-2.5,3.7c-1.4,0.6-2.8,0.6-4.2,0.5c-0.2,0-0.5-0.1-0.7-0.1c-2.3-0.3-3.6-1.6-3.9-4.1
		c1.2-0.1,2.4-0.2,3.6-0.2c0.1,0.2,0.1,0.4,0.1,0.5c0.4,1.4,1.6,1.7,2.7,1.5c0.5-0.1,0.9-0.4,1-1c0.1-0.5-0.2-0.9-0.8-1.2
		c-0.5-0.2-1-0.3-1.5-0.5c-0.9-0.3-1.9-0.5-2.8-0.9c-1.2-0.6-2-1.5-1.9-2.9c0.1-1.4,0.8-2.4,2.1-2.9c2-0.8,4.1-0.8,6.2,0
		C269.8,150.4,270.5,151.4,270.6,153.1z"/>
	<path class="st1" d="M246,153.1c-0.1,0.1-0.2,0.2-0.3,0.2c-1,0.2-2,0.4-3,0.6c-0.1-0.1-0.2-0.3-0.2-0.4c-0.5-1-1.3-1.4-2.3-1.3
		c-1,0.1-1.7,0.6-2,1.6c-0.4,1.3-0.4,2.6,0,3.9c0.3,0.8,0.9,1.3,1.7,1.3c0.9,0.1,1.7-0.1,2.3-0.9c0.3-0.4,0.4-0.9,0.7-1.4
		c1.1,0.3,2.1,0.6,3.2,1c-0.1,1.9-1.7,3.6-3.7,4c-1.4,0.3-2.8,0.3-4.2-0.1c-2.4-0.6-3.6-2.3-4.1-4.6c-0.2-1.2-0.2-2.4,0.2-3.6
		c0.5-1.9,1.7-3.1,3.6-3.7c1.5-0.4,3-0.5,4.5-0.1C244.2,150,245.3,151.2,246,153.1z"/>
	<path class="st1" d="M206.8,137c0,0.8,0,1.5,0,2.2c0,0.7,0,1.4,0,2.2c-1.3,0-2.5,0-3.8,0c0-4,0-8,0-12c0.3,0,0.5,0,0.7,0
		c1.9,0,3.8,0,5.7,0c0.3,0,0.7,0,1,0.1c2,0.3,3.1,1.6,3.1,3.6c0,2-1.1,3.4-3.1,3.8c-0.6,0.1-1.1,0.1-1.7,0.1
		C208.1,137,207.5,137,206.8,137z M206.8,134.6c0.8-0.1,1.5-0.1,2.1-0.3c0.5-0.1,0.8-0.7,0.8-1.2c0-0.5-0.4-1-0.9-1.2
		c-0.7-0.2-1.3-0.2-2-0.1C206.8,132.8,206.8,133.6,206.8,134.6z"/>
	<path class="st1" d="M219.3,137c0,1.5,0,2.9,0,4.4c-1.3,0-2.5,0-3.7,0c-0.2-0.6-0.3-9.9-0.1-12c0.2,0,0.4-0.1,0.6-0.1
		c2,0,3.9,0,5.9,0c0.3,0,0.7,0,1,0.1c2,0.3,3,1.5,3.1,3.5c0,2-1.1,3.5-3,3.8c-0.5,0.1-1.1,0.1-1.6,0.2
		C220.7,137,220.1,137,219.3,137z M219.3,134.5c0.7,0.1,1.4,0.1,2.1-0.1c0.5-0.2,0.8-0.7,0.8-1.2c0-0.5-0.4-1-0.9-1.2
		c-0.7-0.2-1.3-0.2-2-0.1C219.3,132.8,219.3,133.6,219.3,134.5z"/>
	<path class="st1" d="M221.9,161.6c-1.4,0-2.8,0-4.2,0c-1.5-4-3.1-8-4.7-12c1.4,0,2.7,0,4,0c0.9,2.7,1.8,5.5,2.7,8.2
		c0.1,0,0.1,0,0.2,0c0.9-2.7,1.7-5.5,2.6-8.2c1.3,0,2.5,0,3.9,0C224.9,153.7,223.4,157.6,221.9,161.6z"/>
	<path class="st1" d="M255.9,129.8c3.9,0,7.8,0,11.7,0c0,1,0,1.9,0,2.9c-1.2,0-2.5,0-3.8,0c0,1.1,0,2.1,0,3.1c0,1,0,2,0,2.9
		c0,1,0,2,0,3.1c-1.3,0-2.5,0-3.9,0c0-3,0-6,0-9c-1.3,0-2.6,0-3.9,0C255.9,131.7,255.9,130.8,255.9,129.8z"/>
	<path class="st1" d="M231.7,149.6c0,4,0,8,0,12c-1.3,0-2.5,0-3.8,0c0-4,0-8,0-12C229.1,149.6,230.4,149.6,231.7,149.6z"/>
	<path class="st1" d="M162.4,69.1c0.1,0.1,0.2,0.1,0.3,0.2c0.1,0.3,0.1,0.6,0.2,0.9c0.5,4.3,1,8.6,1.4,12.9
		c0.5,5.6,0.7,11.3,1.1,16.9c0.1,2,0.2,3.9,0.3,5.9c0.2,2,0.5,3.9,0.8,5.9c0,0,0.1,0.1,0.2,0.2c0.2-0.1,0.4-0.3,0.6-0.4
		c2.4-1.9,4.6-4,6.6-6.4c2-2.4,3.9-4.8,6-7.2c5.1-6.1,10.6-12,16.3-17.6c1.3-1.3,2.6-2.5,3.9-3.7c0.1,0.1,0.2,0.1,0.2,0.2
		c-1,1.5-2,2.9-3.1,4.4c-5.8,8-12.1,15.6-18.4,23.2c-2.2,2.7-4.5,5.3-6.4,8.3c-0.3,0.4-0.5,0.8-0.8,1.3c0.2,0,0.3,0.1,0.3,0
		c4.5-0.7,8.9-1.7,13.2-3.2c9.1-3.2,18.3-6,27.6-8.4c4.3-1.1,8.7-2.1,13-3.2c0,0.1,0,0.2,0,0.3c-0.5,0.2-1.1,0.5-1.6,0.7
		c-10.5,4.2-21.2,7.9-31.9,11.5c-4.2,1.4-8.4,2.8-12.6,4.3c-0.8,0.3-1.6,0.7-2.4,1.1c-0.3,0.2-0.7,0.4-0.7,0.8
		c0.3,0.4,0.8,0.4,1.2,0.4c2,0,4,0,6-0.1c3.6-0.2,7.2-0.5,10.8-0.8c3.2-0.3,6.5-0.6,9.7-1.2c3.9-0.7,7.8-1.5,11.7-2.5
		c9.1-2.2,18.2-4.9,27.1-7.7c3.6-1.1,7.3-2.3,10.9-3.5c0.8-0.3,1.5-0.7,2.2-1.2c0.5-0.4,0.5-0.9-0.1-1.2c-0.5-0.2-1-0.4-1.5-0.5
		c-3-0.7-6-1.3-9-1.9c-1.9-0.4-3.8-1-5.8-1c-0.2,0-0.5-0.1-0.7-0.1c-0.9-0.3-1.4-1-1.2-1.9c0.1-0.5,0.2-0.9,0.4-1.4
		c1.3-2.5,2.6-5,3.9-7.4c0.3-0.6,0.7-1.3,1-1.9c0.6-1.5,0.2-2.1-1.5-1.8c-1.8,0.3-3.6,0.7-5.3,1.1c-4,1.1-8,2.4-12,3.5
		c-7.9,2.2-15.7,4.6-23.4,7.7c-0.2,0.1-0.3,0.1-0.7,0.2c0.3-0.3,0.5-0.5,0.7-0.7c0.9-1,1.9-1.9,2.8-2.9c7.3-7.5,14.1-15.3,20.7-23.3
		c0.4-0.5,0.7-1.1,0.9-1.6c0.3-0.9-0.1-1.4-1-1.4c-0.4,0-0.8,0.1-1.2,0.2c-1.8,0.4-3.6,0.9-5.4,1.4c-2.7,0.7-5.5,1.1-8.1,2.2
		c-1,0.4-1.9,0-2.4-0.9c-0.2-0.4-0.4-0.9-0.5-1.3c-0.1-0.5-0.2-1-0.3-1.5c-0.3-2.1-0.7-4.2-1-6.3c-0.2-1.1-0.3-2.2-0.6-3.3
		c-0.3-1-0.9-1.2-1.8-0.6c-0.1,0.1-0.2,0.2-0.3,0.3c-1.5,1.4-3,2.8-4.5,4.3c-2.3,2.4-4.4,5-6.7,7.4c-5.8,6.1-11.1,12.6-15.7,19.7
		c-0.1,0.1-0.2,0.2-0.3,0.4c0-0.4,0-0.7,0-0.9c0.2-3.9,0.5-7.8,0.6-11.7c0.1-4.2,0-8.5-0.1-12.7c0-3-0.2-6-0.3-8.9
		c0-0.6-0.3-1.3-0.5-1.9c-0.4-0.9-1.1-1-1.9-0.5c-0.3,0.2-0.6,0.5-0.9,0.8c-0.3,0.2-0.5,0.5-0.7,0.8c-2.1,2-4.2,4-6.3,6.1
		c-0.3,0.2-0.5,0.5-0.7,0.8c-0.7,1.1-1.5,1.4-2.7,0.9c-0.7-0.3-1.4-0.7-2-1.2c-2.5-2.2-4.9-4.4-7.3-6.5c-0.7-0.6-1.5-1.3-2.3-1.8
		c-0.9-0.6-1.4-0.3-1.7,0.7c0,0.1-0.1,0.2-0.1,0.3c-0.4,2.3-0.5,4.6-0.5,6.8c0,2.5,0.1,4.9,0,7.4c-0.1,3.8-0.1,7.6,0.2,11.3
		c0.1,0.8,0.1,1.7,0.2,2.7c-0.2-0.4-0.4-0.5-0.5-0.7c-4.5-7.2-9.4-14.2-14.4-21c-0.5-0.7-1.1-1.2-1.8-1.7c-1-0.7-1.8-0.3-2.1,0.9
		c-0.1,0.5-0.2,1-0.3,1.5c-0.6,2.4-1.3,4.8-1.9,7.2c-0.1,0.3-0.1,0.6-0.1,1c0,1.2-0.4,1.7-1.6,1.6c-0.9,0-1.8-0.2-2.6-0.4
		c-3.5-1.1-6.9-2.3-10.3-3.4c-1-0.3-2-0.6-3.1-0.9c-0.4-0.1-0.9-0.2-1.2,0.1c-0.4,0.4-0.1,0.8,0.1,1.2c0.9,2,2,3.8,3.2,5.6
		c1.5,2.3,3.1,4.5,4.5,6.8c4.4,7,9.3,13.7,15,19.8c-0.1,0.1-0.2,0.2-0.2,0.3c-0.7-0.4-1.5-0.8-2.2-1.1c-7.8-3.9-15.8-7.4-23.8-10.7
		c-3.7-1.6-7.5-3.1-11.2-4.6c-0.9-0.4-1.9-0.6-2.9-0.5c-0.8,0.1-1.1,0.5-0.8,1.3c0.1,0.2,0.2,0.5,0.4,0.7c0.1,0.2,0.3,0.5,0.4,0.7
		c1.6,2.8,2.7,5.8,4.7,8.4c0.3,0.5,0.3,0.9-0.2,1.2c-0.3,0.3-0.8,0.5-1.2,0.6c-0.9,0.2-1.8,0.5-2.7,0.6c-2.9,0.5-5.8,0.9-8.6,1.4
		c-1.3,0.2-2.6,0.5-3.9,0.7c-0.3,0.1-0.7,0.3-0.7,0.5c-0.1,0.4,0.2,0.6,0.6,0.8c0.2,0.1,0.4,0.2,0.5,0.3c1.8,0.9,3.5,1.9,5.3,2.7
		c4,1.8,8.1,3.6,12.2,5.3c12.4,5.4,25.1,9.9,38.5,11.9c4.1,0.6,8.2,1,12.4,0.9c1.5,0,3-0.2,4.5-0.3c-0.2-0.3-0.4-0.5-0.6-0.6
		c-3.4-2-6.9-3.7-10.5-5.1c-6.9-2.6-13.7-5.4-20.4-8.5c-4.8-2.2-9.4-4.5-14.2-6.8c0.1-0.1,0.1-0.2,0.2-0.2c2.6,0.9,5.3,1.8,7.9,2.7
		c10.1,3.5,20.1,7.5,30.1,11.4c2.2,0.9,4.5,1.7,6.8,2.4c1.3,0.4,2.7,0.8,4,1.3c0.3,0.1,0.6,0.2,1.1,0.4c-0.1-0.4-0.2-0.6-0.3-0.7
		c-1.4-3.2-3.1-6.2-5.2-8.9c-5.1-6.6-9.7-13.5-14-20.6c-1.6-2.6-3-5.3-4.6-7.9c0.1-0.1,0.2-0.2,0.2-0.2c0.8,0.9,1.5,1.7,2.3,2.6
		c6,7.2,11.6,14.8,17.2,22.4c1.9,2.5,3.8,5.1,5.6,7.6c1.1,1.4,2.3,2.6,3.9,3.4c0-0.1,0.1-0.2,0.1-0.2c0.8-3.7,0.9-7.4,0.7-11.1
		c-0.2-2.8-0.4-5.6-0.5-8.5c-0.2-5.8,0-11.6,0.4-17.3C162,73,162.2,71.1,162.4,69.1z"/>
</g>
</svg>
