<?xml version="1.0" encoding="utf-8"?>
<!-- Generator: Adobe Illustrator 28.1.0, SVG Export Plug-In . SVG Version: 6.00 Build 0)  -->
<svg version="1.1" id="Layer_1" xmlns="http://www.w3.org/2000/svg" xmlns:xlink="http://www.w3.org/1999/xlink" x="0px" y="0px"
	 viewBox="0 0 328 213" style="enable-background:new 0 0 328 213;" xml:space="preserve">
<style type="text/css">
	.st0{fill:#FFFFFF;}
</style>
<g>
	<g>
		<g>
			<path class="st0" d="M250.6,109.8c0,18.7-15.2,33.8-33.8,33.8l0,12.3c25.4,0,46.1-20.7,46.1-46.1H250.6z"/>
		</g>
		<g>
			<path class="st0" d="M170.6,109.8h12.3c0-18.7,15.2-33.8,33.8-33.8V63.7C191.3,63.7,170.6,84.4,170.6,109.8z"/>
		</g>
		<g>
			<path class="st0" d="M218.6,81.9v12.3c7.6,0,13.9,6.2,13.9,13.9l12.3,0C244.7,93.6,233,81.9,218.6,81.9z"/>
		</g>
		<g>
			<path class="st0" d="M188.7,111.7c0,14.4,11.7,26.1,26.1,26.1v-12.3c-7.6,0-13.9-6.2-13.9-13.9H188.7z"/>
		</g>
		<path class="st0" d="M224.6,109.5c0,4.4-3.6,8-8,8c-4.4,0-8-3.6-8-8c0-4.4,3.6-8,8-8C221.1,101.6,224.6,105.1,224.6,109.5z"/>
	</g>
	<g>
		<rect x="169.7" y="90" class="st0" width="13.2" height="45.3"/>
		<path class="st0" d="M277.9,89.2c-5.6,0-10.3,3-13.5,5.9v-5h-14v45.3h14v-28.7c1.2-2.6,3.5-5.9,8.2-5.9c7.8,0,7.8,8.3,7.8,8.3
			v26.3h14c0,0,0-21,0-26.3C294.4,103.8,295.3,89.2,277.9,89.2z"/>
		<circle class="st0" cx="176.3" cy="76.4" r="8.3"/>
		<path class="st0" d="M68.5,76.4l1-10.7c-25.4-6.3-25.2,12.2-25.2,18.9V90h-9.4v10.7h9.4c0,15,0,34.6,0,34.6h13.8v-34.6h9.4V90
			h-9.4v-5.5C58.1,72.6,68.5,76.4,68.5,76.4z"/>
		<path class="st0" d="M74.1,119.1V90h13.7v26.4c0,4.6,3.7,8.3,8.3,8.3c4.6,0,8.3-3.7,8.3-8.3V90h13.4v36.4c0,0-8.4-1.4-13.4,3.2
			c-5,4.6-7.6,6.6-14,6.6C86.2,136.3,74.1,135,74.1,119.1z"/>
		<g>
			<path class="st0" d="M125.2,130.1l7.6-8.1c0,0,3.8,3.2,9.8,3.2c1.9,0,3.4-0.3,4.4-0.9c1-0.6,1.5-1.5,1.5-2.7c0-1.9-2-3.3-6-4.3
				c-1.3-0.3-2.4-0.6-3.2-0.8c-4.6-1.3-7.9-2.9-9.9-5c-2.1-2-3.1-4.7-3.1-8c0-4.2,1.6-7.6,4.7-10.1c3.2-2.5,7.4-3.8,12.9-3.8
				c9.5,0,13.8,3.1,16.8,4.5l-7,7.6c0,0-3.4-2.5-8.1-2.5c-5.7,0-5.6,2.4-5.6,3.4c0,1.5,2.2,3.3,6.2,4.4c0.9,0.3,1.6,0.4,2.1,0.6
				c5.3,1.5,9,3.3,11.1,5.3c2.1,2,3.1,4.8,3.1,8.3c0,4.4-1.7,8-5.1,10.7c-3.4,2.7-7.9,4.1-13.5,4.1
				C134.8,136.2,128.1,131.9,125.2,130.1z"/>
		</g>
	</g>
	<g>
		<path class="st0" d="M77,84.2h-2.8V71.9h2.6v2c0.6-0.9,1.2-1.5,1.9-1.9c0.7-0.4,1.6-0.6,2.5-0.6c1,0,1.8,0.2,2.4,0.6
			c0.6,0.4,1.1,1,1.4,1.8c0.6-0.8,1.3-1.5,2.1-1.9c0.7-0.4,1.6-0.6,2.5-0.6c0.8,0,1.5,0.1,2.1,0.4c0.6,0.3,1.1,0.7,1.4,1.3
			c0.2,0.3,0.3,0.6,0.3,1c0.1,0.4,0.1,0.9,0.1,1.6v1v7.4h-2.8v-6.3c0-1.6-0.2-2.7-0.5-3.3c-0.3-0.5-1-0.8-1.9-0.8
			c-1.1,0-1.9,0.4-2.4,1.1c-0.5,0.7-0.7,1.9-0.7,3.7v5.6h-2.8v-6.3c0-1.5-0.2-2.6-0.6-3.2c-0.4-0.6-1-0.9-1.9-0.9
			c-0.6,0-1.1,0.1-1.5,0.4c-0.5,0.3-0.8,0.6-1.1,1c-0.2,0.3-0.3,0.6-0.4,1C77,76.7,77,77.5,77,78.6V84.2z"/>
		<path class="st0" d="M111.7,78.5h-9.8c0.1,1.1,0.4,2,1,2.7c0.6,0.6,1.4,1,2.4,1c0.9,0,1.7-0.2,2.3-0.6c0.6-0.4,1.1-1,1.6-1.8
			l2.4,1.3c-0.7,1.2-1.5,2.2-2.6,2.8c-1,0.6-2.2,0.9-3.6,0.9c-2,0-3.5-0.6-4.7-1.8c-1.2-1.2-1.7-2.8-1.7-4.8c0-1.9,0.6-3.5,1.8-4.7
			c1.2-1.2,2.8-1.9,4.6-1.9c2,0,3.5,0.6,4.6,1.7c1.1,1.1,1.7,2.7,1.7,4.8V78.5z M108.8,76.6c-0.1-0.9-0.4-1.6-1-2
			c-0.6-0.5-1.3-0.7-2.3-0.7c-0.9,0-1.7,0.2-2.2,0.7c-0.6,0.4-1,1.1-1.2,2H108.8z"/>
		<path class="st0" d="M126.9,64.1h2.8v20.1h-2.8v-1.6c-0.5,0.7-1.1,1.2-1.8,1.6c-0.7,0.3-1.4,0.5-2.3,0.5c-1.7,0-3.1-0.6-4.1-1.8
			c-1-1.2-1.5-2.8-1.5-4.9c0-2,0.5-3.5,1.5-4.7c1-1.2,2.3-1.8,4-1.8c1,0,1.9,0.2,2.6,0.6c0.7,0.4,1.2,1,1.6,1.8V64.1z M127,78
			c0-1.3-0.3-2.3-0.9-3c-0.6-0.7-1.4-1.1-2.5-1.1s-1.9,0.4-2.5,1.1c-0.6,0.7-0.9,1.7-0.9,3c0,1.3,0.3,2.3,0.9,3
			c0.6,0.7,1.4,1.1,2.5,1.1c1,0,1.8-0.4,2.5-1.1C126.7,80.3,127,79.3,127,78z"/>
		<path class="st0" d="M137,66.6c0-0.5,0.2-0.9,0.5-1.2c0.3-0.3,0.8-0.5,1.2-0.5c0.5,0,0.9,0.2,1.2,0.5c0.3,0.3,0.5,0.7,0.5,1.2
			c0,0.5-0.2,0.9-0.5,1.3c-0.3,0.3-0.8,0.5-1.2,0.5c-0.5,0-0.9-0.2-1.2-0.5C137.1,67.5,137,67.1,137,66.6z M137.3,84.2V71.9h2.8
			v12.3H137.3z"/>
		<path class="st0" d="M159.3,84.2h-2.8v-1.6c-0.5,0.7-1.1,1.2-1.8,1.6c-0.7,0.3-1.4,0.5-2.3,0.5c-1.7,0-3.1-0.6-4.1-1.8
			c-1-1.2-1.5-2.8-1.5-4.9c0-2,0.5-3.5,1.5-4.7c1-1.2,2.3-1.8,4-1.8c1,0,1.9,0.2,2.6,0.6c0.7,0.4,1.2,1,1.6,1.8v-2h2.8V84.2z
			 M156.5,78c0-1.3-0.3-2.3-0.9-3c-0.6-0.7-1.4-1.1-2.5-1.1s-1.9,0.4-2.5,1.1c-0.6,0.7-0.9,1.7-0.9,3c0,1.3,0.3,2.3,0.9,3
			c0.6,0.7,1.4,1.1,2.5,1.1c1,0,1.8-0.4,2.5-1.2C156.2,80.3,156.5,79.3,156.5,78z"/>
	</g>
</g>
</svg>
