<?xml version="1.0" encoding="utf-8"?>
<!-- Generator: Adobe Illustrator 28.1.0, SVG Export Plug-In . SVG Version: 6.00 Build 0)  -->
<svg version="1.1" id="Layer_1" xmlns="http://www.w3.org/2000/svg" xmlns:xlink="http://www.w3.org/1999/xlink" x="0px" y="0px"
	 viewBox="0 0 328 213" style="enable-background:new 0 0 328 213;" xml:space="preserve">
<style type="text/css">
	.st0{fill:#FFFFFF;}
</style>
<g>
	<g>
		<path class="st0" d="M177.3,80.5c0,7.6-1.8,13.3-5.4,17c-3.6,3.7-9.4,5.5-17.5,5.5H144v19.6h-13V59.3h23.8c7.2,0,12.7,1.7,16.6,5
			C175.4,67.6,177.3,73,177.3,80.5z M164,80.6c0-3.6-1-6.2-3-7.7c-2-1.6-5.5-2.4-10.6-2.4H144v21.3h5.3c4.7,0,8-0.3,9.8-1
			s3.1-1.8,3.8-3.3C163.6,85.9,164,83.6,164,80.6z"/>
		<path class="st0" d="M237.9,112.2c-2.7,4.1-6.1,7-10,9c-4,1.9-8.8,2.9-14.6,2.9c-19.6,0-29.4-11-29.4-33c0-11.3,2.5-19.6,7.5-25
			s12.1-8.1,21.5-8.1c6.2,0,11.2,1,15.2,3.1c3.9,2.1,6.9,4.8,8.9,8.2l-10,7.8c-1.5-2.2-2.8-3.8-4-4.8s-2.6-1.7-4.2-2.2
			c-1.6-0.5-3.4-0.7-5.6-0.7c-5.2,0-9.1,1.7-11.9,5c-2.7,3.3-4.1,8.8-4.1,16.6c0,7.2,1.3,12.6,3.8,16.2s6.6,5.4,12.2,5.4
			c3.8,0,6.7-0.7,8.8-2.2c2.1-1.4,4-3.3,5.7-5.7L237.9,112.2z"/>
		<path class="st0" d="M275.8,122.6h-30.6v-9.9h8.8V69.2h-8.8v-9.9h30.6v9.9H267v43.5h8.8V122.6z"/>
	</g>
	<g>
		<path class="st0" d="M73.5,155v-12.2l-4.4,7.6H67l-4.3-7.6V155h-3.6v-18.2h4.3l4.8,8.6l4.8-8.6h4.2V155H73.5z"/>
		<path class="st0" d="M79.4,155l6-18.2h4.8l6,18.2h-3.8l-1.2-3.7h-7L83,155H79.4z M85.3,148.1h4.9l-2.4-7.5L85.3,148.1z"/>
		<path class="st0" d="M108.9,155l-6.6-13v13h-3.6v-18.2h4.8l6.2,12.3v-12.3h3.6V155H108.9z"/>
		<path class="st0" d="M131.5,147.4c0,2.9-0.6,4.9-1.7,6.1s-3.1,1.9-5.8,1.9c-2.7,0-4.6-0.6-5.7-1.8c-1.2-1.2-1.8-3.3-1.8-6.2v-10.6
			h3.7v10.3c0,1.2,0.1,2.2,0.4,2.9c0.2,0.7,0.6,1.2,1.1,1.6c0.5,0.3,1.3,0.5,2.3,0.5c1.4,0,2.4-0.4,3-1.1c0.6-0.8,0.8-2,0.8-3.8
			v-10.4h3.7V147.4z"/>
		<path class="st0" d="M138.5,140.2v3.9h6.7v3.3h-6.7v7.6h-3.7v-18.2h11.7v3.4H138.5z"/>
		<path class="st0" d="M145.8,155l6-18.2h4.8l6,18.2h-3.8l-1.2-3.7h-7l-1.2,3.7H145.8z M151.7,148.1h4.9l-2.4-7.5L151.7,148.1z"/>
		<path class="st0" d="M179,152c-0.8,1.2-1.7,2-2.9,2.6c-1.1,0.5-2.5,0.8-4.2,0.8c-5.6,0-8.5-3.2-8.5-9.5c0-3.2,0.7-5.6,2.1-7.2
			c1.4-1.5,3.5-2.3,6.2-2.3c1.8,0,3.2,0.3,4.4,0.9c1.1,0.6,2,1.4,2.6,2.4l-2.9,2.2c-0.4-0.6-0.8-1.1-1.2-1.4
			c-0.4-0.3-0.8-0.5-1.2-0.6s-1-0.2-1.6-0.2c-1.5,0-2.6,0.5-3.4,1.4c-0.8,1-1.2,2.5-1.2,4.8c0,2.1,0.4,3.6,1.1,4.7
			c0.7,1,1.9,1.5,3.5,1.5c1.1,0,1.9-0.2,2.5-0.6c0.6-0.4,1.1-1,1.6-1.6L179,152z"/>
		<path class="st0" d="M189.5,140.2V155h-3.7v-14.8h-5.6v-3.4h14.9v3.4H189.5z"/>
		<path class="st0" d="M212.3,147.4c0,2.9-0.6,4.9-1.7,6.1s-3.1,1.9-5.8,1.9s-4.6-0.6-5.7-1.8c-1.2-1.2-1.8-3.3-1.8-6.2v-10.6h3.7
			v10.3c0,1.2,0.1,2.2,0.4,2.9c0.2,0.7,0.6,1.2,1.1,1.6c0.5,0.3,1.3,0.5,2.3,0.5c1.4,0,2.4-0.4,3-1.1c0.6-0.8,0.8-2,0.8-3.8v-10.4
			h3.7V147.4z"/>
		<path class="st0" d="M225.4,155l-4.6-6.9h-1.9v6.9h-3.7v-18.2h6.6c2.3,0,4.1,0.4,5.1,1.3c1.1,0.8,1.6,2.2,1.6,4.1
			c0,1.6-0.3,2.8-1,3.7s-1.6,1.5-2.8,1.8l4.9,7.3L225.4,155L225.4,155z M224.8,142.4c0-0.9-0.2-1.6-0.7-1.9
			c-0.5-0.3-1.2-0.5-2.3-0.5h-2.9v4.9h2.7c0.8,0,1.5-0.1,1.9-0.2c0.4-0.2,0.8-0.4,1-0.7C224.7,143.6,224.8,143.1,224.8,142.4z"/>
		<path class="st0" d="M240.5,155h-8.8v-2.9h2.5v-12.5h-2.5v-2.9h8.8v2.9H238v12.5h2.5V155z"/>
		<path class="st0" d="M254.4,155l-6.6-13v13h-3.6v-18.2h4.8l6.2,12.3v-12.3h3.6V155H254.4z"/>
		<path class="st0" d="M273.4,141.9c-0.5-0.8-1-1.3-1.7-1.7s-1.5-0.5-2.5-0.5c-1.7,0-2.9,0.5-3.6,1.6s-1.1,2.7-1.1,4.8
			s0.4,3.6,1.1,4.6s1.9,1.5,3.5,1.5c1.2,0,2.4-0.3,3.4-0.8v-2.8h-3.6v-3.3h7.3v8.1c-0.8,0.6-1.9,1.1-3.1,1.5
			c-1.3,0.4-2.5,0.6-3.9,0.6c-2.8,0-5-0.7-6.4-2.2s-2.2-3.9-2.2-7.1c0-6.4,2.8-9.6,8.5-9.6c1.6,0,3.1,0.3,4.3,0.8
			c1.2,0.6,2.2,1.4,2.8,2.4L273.4,141.9z"/>
	</g>
	<path class="st0" d="M119.5,90.6c-1.7-3.1-3.2-6.2-4.7-9.4c-2.1-4.6-3.8-9.3-5.2-14.1c-0.1-0.3-0.2-0.6-0.3-0.9
		c-0.1,0-0.2-0.1-0.3-0.1c-4.4-1.2-8.6-2.7-12.8-4.5C92.5,59.9,88.7,58,85,56c-0.2-0.1-0.3-0.2-0.5-0.3c-0.2,0.1-0.3,0.2-0.4,0.2
		c-3.6,1.9-7.2,3.7-11,5.4c-4,1.7-8.1,3.2-12.3,4.4c-0.4,0.1-0.7,0.2-1.1,0.3c-2.3,8.8-6,16.9-10.3,24.8c4.3,7.9,8,16.1,10.3,24.8
		c0.1,0,0.2,0.1,0.3,0.1c4.2,1.1,8.3,2.6,12.2,4.3c4.1,1.7,8,3.7,11.9,5.8c0.1,0.1,0.3,0.1,0.4,0.2c0.6-0.3,1.2-0.7,1.8-1
		c3.5-1.8,7.1-3.6,10.7-5.1s7.3-2.8,11.1-3.9c0.4-0.1,0.8-0.2,1.1-0.3c0.1-0.2,0.1-0.3,0.1-0.5c1.1-4.2,2.6-8.3,4.3-12.3
		c1.7-3.9,3.5-7.6,5.5-11.4c0.1-0.2,0.2-0.4,0.3-0.6C119.7,90.8,119.6,90.7,119.5,90.6z M84.6,119.8c-15.9,0-28.8-12.9-28.8-28.8
		s12.9-28.8,28.8-28.8s28.8,12.9,28.8,28.8S100.5,119.8,84.6,119.8z"/>
	<path class="st0" d="M84.1,73.3c-1.2,0.4-1.8,1.7-1.4,2.8c0.4,1.2,1.7,1.8,2.8,1.4c1.2-0.4,1.8-1.7,1.4-2.8
		C86.5,73.5,85.2,72.9,84.1,73.3z"/>
	<path class="st0" d="M109.2,95.6l-3.9,2.2l2-3.6H103l2.9-2.7h-5.6c-0.8,0-1.6-0.3-2.2-1l-1.3-1.4c-0.3,0.1-0.6,0.2-0.9,0.2
		c-0.8,0-1.5-0.4-2.1-1c-1.1-1.1-5.8-6.3-6.2-6.8c0,0,1.8-1.5,2.3-1.9c0.4-0.4,0.6-1,0.6-1c0.7,0.8,5.6,6.1,6.3,6.9
		c0.4,0.4,0.7,0.9,0.8,1.4c0.1,0.5,0.1,1-0.1,1.5l1.4,1.5c0.4,0.4,0.9,0.6,1.4,0.6h5.5l-2.2-2.3h4l-1.4-3.7l1.8,0.7l-0.8-4.6
		l4.3,5.3c-2.4-12.7-13.6-22.3-27-22.3c-15.1,0-27.4,12.3-27.4,27.4c0,12.6,8.6,23.3,20.2,26.5c-0.1-2.1-0.5-8.6-0.4-9.6
		c0-2.8,1.6-5.5,4.3-6.8c3.8-1.8,8.3-0.3,10.1,3.5c0.5,1.1,0.8,2.2,0.8,3.4c0,2.3-0.3,7.7-0.4,9.5c10-2.7,17.7-10.8,19.8-21l-2.6,2
		L109.2,95.6z M81,98.2c-1.1,0.5-2.3,1.4-3,2c-1,0.8-1.9,2-1.9,2l-6.5-10c0,0,0.6,0.3,1.7,0.2c1.1,0,2.3-0.7,3.1-1.3
		c0.9-0.7,1.4-1.1,2-1.5c0.5-0.4,1.1-0.9,1.1-0.9l5.9,8.8C83.3,97.6,82.1,97.8,81,98.2z M81.4,82.8c-2.6,1.9-5.3,3.8-7.9,5.8
		c-0.5,0.3-0.9,0.7-1.4,1C71.6,89.9,71,90,70.3,90c-1.6-0.1-2.8-0.9-3.5-2.3c-0.3-0.5-0.4-1-0.5-1.6c-0.1-1.3,0.3-2.3,1.4-3.1
		c1.6-1.2,3.2-2.4,4.8-3.5c1.1-0.8,2.3-1.6,3.4-2.5c2.3-1.7,4.6-3.4,6.9-5.1c1-0.7,2.1-0.9,3.3-0.5c1.3,0.4,2.3,1.7,2.7,2.7
		c0.1,0.4,0.2,0.8,0.2,1.3c0,1.2-0.5,2.2-1.5,2.9c-0.9,0.7-1.8,1.4-2.8,2C83.7,81.1,82.6,81.9,81.4,82.8z"/>
	<ellipse class="st0" cx="84.4" cy="107.9" rx="4.4" ry="4.4"/>
</g>
</svg>
