<?xml version="1.0" encoding="UTF-8"?>
<svg id="Layer_1" data-name="Layer 1" xmlns="http://www.w3.org/2000/svg" viewBox="0 0 15.5 15.5">
  <defs>
    <style>
      .cls-1 {
        fill: #016938;
        stroke-width: 0px;
      }
    </style>
  </defs>
  <path class="cls-1" d="M6.34,13.92c-.3.15-.43.12-.72.26,0-.01-.02-.03-.02-.04.16-.18.32-.35.51-.56-.56.1-1.09.4-1.58.08.49.09.86-.27,1.28-.46-.4-.1-.79-.18-1.21.04.17-.19.38-.31.62-.36.23-.05.46-.08.69-.14-.41-.07-.81-.22-1.26,0-.11.06-.25.05-.41.08.28-.16.52-.3.78-.45-.05,0-.09-.01-.13-.02-.3,0-.52-.18-.76-.33-.19-.11-.38-.19-.63-.15.08-.03.16-.08.23-.07.22.03.44.06.65.12.2.06.4.13.67.04-.86-.63-1.31-1.49-1.35-2.6.19.08.39.17.59.25.01-.01.02-.03.03-.04-.25-.22-.49-.44-.73-.67-.06-.06-.12-.13-.14-.22-.06-.27-.11-.54-.17-.86.31.11.57.2.83.29,0-.01.02-.02.03-.03-.3-.27-.6-.54-.89-.81.01-.01.02-.03.03-.04.16.07.32.13.48.2.01,0,.02-.02.04-.03-.56-.57-.89-1.29-1.22-2.03.42,0,.84,0,1.26,0,0-.01,0-.02,0-.03-.19-.05-.37-.11-.56-.16-.32-.09-.64-.18-.96-.28-.04-.01-.08-.04-.1-.07-.09-.12-.16-.25-.25-.37-.18-.22-.3-.47-.4-.73,0,0-.04-.22-.04-.55-.95,1.29-1.51,2.87-1.51,4.59,0,3.82,2.76,6.99,6.4,7.63,0-.49-.06-.93-.05-1.47Z"/>
  <path class="cls-1" d="M9.73,10.22c.36-1.86.96-3.73,1.94-5.44,0-.01,0-.02-.02-.01-1.83,2.58-2.78,5.71-2.92,8.62,0,0,0,0,0,0-1.48-1.93-1.63-4.65-.11-7.01.16-.25.33-.48.51-.71,1.04-1.3,2.46-2.45,3.86-3.29.07-.04.14-.08.22-.12-1.4-1.39-3.33-2.25-5.46-2.25-1.61,0-3.11.49-4.36,1.34.15.25.24.8.24.8l.14-.71s.89.9,1.17,1.49c.12.15.23.3.34.46.6.84,1.11,1.74,1.5,2.71.27.68.52,1.39.46,2.17-.02.31-.11.63-.16.94-.03.15-.05.3-.06.46.06-.09.12-.19.18-.28.33,1.06.02,2.15-.26,3.24-.04-.38-.06-.77-.13-1.15-.14-.83-.28-1.66-.46-2.47-.15-.65-.33-1.28-.54-1.9-.34-1-.84-1.9-1.43-2.75-.28-.4-.58-.79-.87-1.18-.03-.05-.08-.09-.12-.12h0c.29.4.59.8.86,1.21.84,1.26,1.47,2.64,1.82,4.17.27,1.2.51,2.42.61,3.67.08,1.03.09,2.07,0,3.12,0,.07-.01.15-.02.22.35.05.71.08,1.08.08.49,0,.97-.05,1.43-.13.12-1.72.22-3.43.55-5.15Z"/>
  <path class="cls-1" d="M13.56,2.63c0,.09,0,.18,0,.25.01,2,.84,3.9.44,5.95-.23,1.17-.87,2.33-1.76,3.19-.47.45-1,.81-1.58,1.06-1.1.48-1.26,1.25-1.07,2.2,3.39-.83,5.9-3.88,5.9-7.53,0-1.97-.73-3.76-1.94-5.13Z"/>
</svg>