<?xml version="1.0" encoding="utf-8"?>
<!-- Generator: Adobe Illustrator 28.2.0, SVG Export Plug-In . SVG Version: 6.00 Build 0)  -->
<svg version="1.1" id="Layer_1" xmlns="http://www.w3.org/2000/svg" xmlns:xlink="http://www.w3.org/1999/xlink" x="0px" y="0px"
	 viewBox="0 0 321.3 164.2" style="enable-background:new 0 0 321.3 164.2;" xml:space="preserve">
<style type="text/css">
	.st0{enable-background:new    ;}
</style>
<g>
	<path d="M2.8,152.4v-33.3h16.6v4.9H9.6v8.8h9.5v5H9.6v9.6h10v5H2.8L2.8,152.4z"/>
	<path d="M30.7,152.4h-5.6v-33.3h10l5.8,28.1v-28.1h5.6v33.3h-10l-5.8-28.3L30.7,152.4L30.7,152.4z"/>
	<path d="M50.7,119.1h6.8l4.6,25.8l0,0l4.4-25.8H73l-7.2,33.3h-8C57.9,152.4,50.7,119.1,50.7,119.1z"/>
	<path d="M77.3,119.1h6.8v33.3h-6.8V119.1z"/>
	<path d="M89.7,119.1h10c3.6,0,6.1,0.7,7.6,2s2.3,3.5,2.3,6.6c0,3.5-0.8,5.9-2.3,7.1c-0.8,0.6-2,1.1-3.6,1.4h0.4
		c1.9,0,3.3,0.6,4.2,1.8s1.4,3,1.3,5.2c-0.1,1.3-0.1,2.6-0.1,4s0.1,2.5,0.1,3.3s0.2,1.3,0.3,1.7h-6.8c-0.1-0.4-0.2-0.9-0.2-1.6
		s-0.1-1.9-0.1-3.3v-4c0-1.7-0.3-2.8-0.9-3.5c-0.7-0.7-1.8-1-3.4-1h-2v13.6h-6.8V119.1L89.7,119.1z M96.6,133.7h1.9
		c1.8,0,2.9-0.3,3.5-1s0.9-1.9,0.9-3.9c0-1.8-0.3-3.1-0.9-3.7c-0.6-0.7-1.8-1-3.5-1h-1.9V133.7L96.6,133.7z"/>
	<path d="M117.2,150.3c-1.6-1.7-2.3-4.6-2.3-8.8v-13.7c0-3.1,0.9-5.4,2.6-7c1.7-1.5,4.3-2.3,7.8-2.3s6.1,0.8,7.8,2.3s2.6,3.9,2.6,7
		v13.7c0,4.1-0.8,7.1-2.3,8.8s-4.2,2.6-8.1,2.6S118.7,152,117.2,150.3L117.2,150.3z M128,146.5c0.5-0.9,0.8-2.4,0.8-4.7v-13.7
		c0-1.5-0.3-2.6-0.9-3.4c-0.6-0.8-1.5-1.2-2.7-1.2s-2,0.4-2.6,1.2s-0.9,1.9-0.9,3.4v13.7c0,2.2,0.3,3.8,0.8,4.7s1.4,1.3,2.8,1.3
		S127.4,147.4,128,146.5z"/>
	<path d="M147.4,152.4h-5.6v-33.3h10l5.8,28.1v-28.1h5.6v33.3h-10l-5.8-28.3V152.4L147.4,152.4z"/>
	<path d="M174.6,152.4H169v-33.3h9.6l5.3,25.5l0,0l5.3-25.5h9.5v33.3h-5.6v-28l0,0l-5.8,28h-6.8l-5.8-28.1l0,0L174.6,152.4
		L174.6,152.4z"/>
	<path d="M205,152.4v-33.3h16.6v4.9h-9.8v8.8h9.5v5h-9.5v9.6h10v5H205L205,152.4z"/>
	<path d="M233,152.4h-5.6v-33.3h10l5.8,28.1v-28.1h5.6v33.3h-10l-5.8-28.3V152.4L233,152.4z"/>
	<path d="M260.1,124h-7.2v-4.9h21.2v4.9h-7.2v28.3h-6.8V124L260.1,124z"/>
	<path d="M280,119.1h8l7.5,33.3h-6.6l-1.3-7.2h-7.2l-1.4,7.2h-6.6L280,119.1z M281.3,140.2h5.5l-2.7-14.9l0,0L281.3,140.2
		L281.3,140.2z"/>
	<path d="M298.8,152.4v-33.3h6.8v28.3h8.7v5H298.8L298.8,152.4z"/>
</g>
<g class="st0">
	<path d="M137,102h-19.4V5h38.8c3.6,0,7,0.5,10.3,1.4s6.4,2.2,9.2,3.9c2.9,1.7,5.5,3.7,7.8,6.1c2.4,2.4,4.4,5,6.1,7.9
		c1.7,2.9,3,6,3.9,9.3s1.4,6.7,1.4,10.3c0,5.3-1,10.3-3,15s-4.8,8.8-8.3,12.3s-7.6,6.3-12.3,8.3s-9.7,3-15,3h-19.4L137,102L137,102z
		 M137,24.5v38.8h19.4c2.7,0,5.2-0.5,7.5-1.5s4.4-2.4,6.2-4.2s3.1-3.8,4.2-6.2c1-2.4,1.5-4.9,1.5-7.5c0-2.7-0.5-5.2-1.5-7.5
		c-1-2.4-2.4-4.4-4.2-6.2s-3.8-3.1-6.2-4.2c-2.3-1-4.8-1.5-7.5-1.5C156.4,24.5,137,24.5,137,24.5z"/>
	<path d="M283.9,92.1c-4.5,3.9-9.6,6.9-15.1,8.9c-5.6,2.1-11.4,3.1-17.4,3.1c-4.6,0-9-0.6-13.3-1.8c-4.3-1.2-8.2-2.9-12-5.1
		c-3.7-2.2-7.1-4.8-10.2-7.9c-3.1-3.1-5.7-6.5-7.9-10.2s-3.9-7.7-5.1-12c-1.2-4.3-1.8-8.7-1.8-13.3c0-4.6,0.6-9,1.8-13.3
		s2.9-8.3,5.1-12c2.2-3.7,4.8-7.1,7.9-10.2c3.1-3.1,6.5-5.7,10.2-7.9s7.7-3.9,12-5.1s8.7-1.8,13.3-1.8c6,0,11.8,1,17.4,3.1
		s10.6,5,15.1,9l-10.3,16.9c-2.8-3.1-6.2-5.4-10.1-7.1c-3.9-1.6-7.9-2.5-12.2-2.5s-8.3,0.8-12,2.4c-3.7,1.6-7,3.8-9.8,6.6
		s-5,6-6.6,9.8s-2.4,7.8-2.4,12s0.8,8.2,2.4,11.9c1.6,3.7,3.8,7,6.6,9.8s6.1,5,9.8,6.6s7.8,2.4,12,2.4s8.3-0.8,12.2-2.5
		c3.9-1.6,7.2-4,10.1-7.1L283.9,92.1z"/>
	<path d="M314.6,102h-19.4V5h19.4V102z"/>
</g>
<g>
	<path d="M42.5,92.3c-1.9,0.9-2.7,0.8-4.6,1.7c0-0.1-0.1-0.2-0.2-0.3c1-1.1,2-2.2,3.2-3.6c-3.5,0.6-6.9,2.5-10,0.5
		c3.1,0.5,5.4-1.7,8.1-2.9c-2.5-0.7-5-1.1-7.7,0.3c1.1-1.2,2.4-2,3.9-2.3c1.4-0.3,2.9-0.5,4.3-0.9c-2.6-0.4-5.2-1.4-8,0
		c-0.7,0.4-1.6,0.3-2.6,0.5c1.8-1,3.3-1.9,4.9-2.8c-0.3,0-0.6-0.1-0.8-0.1c-1.7-0.1-3.1-1.2-4.6-2.1c-1.2-0.7-2.4-1.2-4-1
		c0.5-0.2,1-0.5,1.5-0.4c1.4,0.2,2.8,0.4,4.1,0.7c1.3,0.3,2.5,0.8,4.2,0.3c-5.4-4-8.3-9.5-8.6-16.5c1.2,0.5,2.5,1.1,3.7,1.6
		c0.1-0.1,0.1-0.2,0.2-0.2c-1.5-1.4-3.1-2.8-4.6-4.2c-0.4-0.4-0.8-0.8-0.9-1.4c-0.4-1.7-0.7-3.4-1.1-5.5c2,0.7,3.6,1.2,5.2,1.8
		c0-0.1,0.1-0.1,0.2-0.2c-1.9-1.7-3.8-3.4-5.7-5.1c0.1-0.1,0.1-0.2,0.2-0.3c1,0.4,2,0.8,3,1.3c0.1-0.1,0.1-0.1,0.2-0.2
		c-3.5-3.6-5.6-8.2-7.7-12.9c2.7,0,5.3,0,8,0c0-0.1,0-0.2,0.1-0.2c-1.2-0.3-2.4-0.7-3.5-1c-2-0.6-4.1-1.2-6.1-1.8
		c-0.2-0.1-0.5-0.3-0.6-0.5c-0.6-0.8-1-1.6-1.6-2.3c-1.1-1.4-1.9-3-2.5-4.7c0,0-0.3-1.4-0.3-3.5c-6,8.2-9.5,18.2-9.5,29.1
		c0,24.2,17.5,44.3,40.5,48.3C42.8,98.4,42.4,95.7,42.5,92.3L42.5,92.3z"/>
	<path d="M64,68.8c2.3-11.8,6.1-23.7,12.3-34.5c0.1-0.1-0.1-0.1-0.1-0.1C64.6,50.6,58.6,70.4,57.7,88.8l0,0
		c-9.5-12.2-10.4-29.4-0.8-44.3c1-1.5,2.1-3.1,3.2-4.5c6.6-8.3,15.6-15.5,24.4-20.8c0.4-0.3,0.9-0.5,1.4-0.8
		C77,9.6,64.8,4.2,51.3,4.2c-10.2,0-19.7,3.1-27.6,8.5c0.9,1.6,1.5,5.1,1.5,5.1l0.9-4.5c0,0,5.7,5.7,7.4,9.5c0.7,1,1.5,1.9,2.2,2.9
		c3.8,5.3,7,11,9.5,17.2c1.7,4.3,3.3,8.8,2.9,13.8c-0.1,2-0.7,4-1,5.9c-0.2,0.9-0.3,1.9-0.4,2.9c0.4-0.6,0.8-1.2,1.2-1.8
		c2.1,6.7,0.1,13.6-1.6,20.5c-0.3-2.4-0.4-4.9-0.8-7.3c-0.9-5.2-1.8-10.5-2.9-15.7c-0.9-4.1-2.1-8.1-3.5-12.1
		c-2.1-6.3-5.3-12-9-17.4c-1.7-2.5-3.6-5-5.5-7.5c-0.2-0.3-0.5-0.5-0.8-0.8l0,0c1.8,2.5,3.7,5.1,5.5,7.7c5.3,8,9.3,16.7,11.5,26.4
		c1.7,7.6,3.2,15.3,3.9,23.2c0.5,6.5,0.5,13.1,0,19.8c0,0.5-0.1,0.9-0.1,1.4c2.2,0.3,4.5,0.5,6.8,0.5c3.1,0,6.1-0.3,9.1-0.8
		C61.2,90.6,61.8,79.7,64,68.8L64,68.8z"/>
	<path d="M88.2,20.7c0.1,0.6,0.1,1.1,0.1,1.6C88.4,35,93.6,47,91.1,60c-1.4,7.4-5.5,14.8-11.2,20.2c-3,2.8-6.3,5.1-10,6.7
		c-7,3-8,7.9-6.8,13.9c21.5-5.3,37.4-24.6,37.4-47.7C100.5,40.7,95.9,29.4,88.2,20.7L88.2,20.7z"/>
</g>
</svg>
