<?xml version="1.0" encoding="utf-8"?>
<!-- Generator: Adobe Illustrator 28.2.0, SVG Export Plug-In . SVG Version: 6.00 Build 0)  -->
<svg version="1.1" id="Layer_1" xmlns="http://www.w3.org/2000/svg" xmlns:xlink="http://www.w3.org/1999/xlink" x="0px" y="0px"
	 viewBox="0 0 321.3 168.6" style="enable-background:new 0 0 321.3 168.6;" xml:space="preserve">
<style type="text/css">
	.st0{fill:#010101;}
	.st1{enable-background:new    ;}
	.st2{fill:#FFFFFF;}
	.st3{fill:#046938;}
</style>
<g>
	<path class="st0" d="M0.5,168.1v-33.3h16.6v4.9H7.3v8.8h9.5v5H7.3v9.6h10v5L0.5,168.1L0.5,168.1z"/>
	<path class="st0" d="M28.4,168.1h-5.6v-33.3h10l5.8,28.1v-28.1h5.6v33.3h-10l-5.8-28.3L28.4,168.1L28.4,168.1z"/>
	<path class="st0" d="M48.4,134.8h6.8l4.6,25.8h0l4.4-25.8h6.5l-7.2,33.3h-8C55.6,168.1,48.4,134.8,48.4,134.8z"/>
	<path class="st0" d="M75,134.8h6.8v33.3H75V134.8z"/>
	<path class="st0" d="M87.4,134.8h10c3.6,0,6.1,0.7,7.6,2s2.3,3.5,2.3,6.6c0,3.5-0.8,5.9-2.3,7.1c-0.8,0.6-2,1.1-3.6,1.4h0.4
		c1.9,0,3.3,0.6,4.2,1.8s1.4,3,1.3,5.2c-0.1,1.3-0.1,2.6-0.1,4c0,1.4,0.1,2.5,0.1,3.3s0.2,1.3,0.3,1.7h-6.8
		c-0.1-0.4-0.2-0.9-0.2-1.6s-0.1-1.9-0.1-3.3v-4c0-1.7-0.3-2.8-0.9-3.5c-0.7-0.7-1.8-1-3.4-1h-2v13.6h-6.8L87.4,134.8L87.4,134.8z
		 M94.3,149.4h1.9c1.8,0,2.9-0.3,3.5-1s0.9-1.9,0.9-3.9c0-1.8-0.3-3.1-0.9-3.7c-0.6-0.7-1.8-1-3.5-1h-1.9L94.3,149.4L94.3,149.4z"/>
	<path class="st0" d="M114.9,166c-1.6-1.7-2.3-4.6-2.3-8.8v-13.7c0-3.1,0.9-5.4,2.6-7c1.7-1.5,4.3-2.3,7.8-2.3s6.1,0.8,7.8,2.3
		s2.6,3.9,2.6,7v13.7c0,4.1-0.8,7.1-2.3,8.8s-4.2,2.6-8.1,2.6S116.4,167.7,114.9,166L114.9,166z M125.7,162.2
		c0.5-0.9,0.8-2.4,0.8-4.7v-13.7c0-1.5-0.3-2.6-0.9-3.4c-0.6-0.8-1.5-1.2-2.7-1.2s-2,0.4-2.6,1.2s-0.9,1.9-0.9,3.4v13.7
		c0,2.2,0.3,3.8,0.8,4.7c0.5,0.9,1.4,1.3,2.8,1.3S125.1,163.1,125.7,162.2z"/>
	<path class="st0" d="M145.1,168.1h-5.6v-33.3h10l5.8,28.1v-28.1h5.6v33.3h-10l-5.8-28.3L145.1,168.1L145.1,168.1z"/>
	<path class="st0" d="M172.3,168.1h-5.6v-33.3h9.6l5.3,25.5h0l5.3-25.5h9.5v33.3h-5.6v-28h0l-5.8,28h-6.8l-5.8-28.1h0L172.3,168.1
		L172.3,168.1z"/>
	<path class="st0" d="M202.7,168.1v-33.3h16.6v4.9h-9.8v8.8h9.5v5h-9.5v9.6h10v5L202.7,168.1L202.7,168.1z"/>
	<path class="st0" d="M230.7,168.1h-5.6v-33.3h10l5.8,28.1v-28.1h5.6v33.3h-10l-5.8-28.3L230.7,168.1L230.7,168.1z"/>
	<path class="st0" d="M257.8,139.7h-7.2v-4.9h21.2v4.9h-7.2v28.3h-6.8L257.8,139.7L257.8,139.7z"/>
	<path class="st0" d="M277.7,134.8h8l7.5,33.3h-6.6l-1.3-7.2h-7.2l-1.4,7.2h-6.6L277.7,134.8z M279,155.9h5.5l-2.7-14.9l0,0
		L279,155.9L279,155.9z"/>
	<path class="st0" d="M296.5,168.1v-33.3h6.8v28.3h8.7v5L296.5,168.1L296.5,168.1z"/>
</g>
<g class="st1">
	<path class="st0" d="M134.7,117.7h-19.4v-97h38.8c3.6,0,7,0.5,10.3,1.4c3.3,0.9,6.4,2.2,9.2,3.9c2.9,1.7,5.5,3.7,7.8,6.1
		c2.4,2.4,4.4,5,6.1,7.9c1.7,2.9,3,6,3.9,9.3c0.9,3.3,1.4,6.7,1.4,10.3c0,5.3-1,10.3-3,15c-2,4.7-4.8,8.8-8.3,12.3
		c-3.5,3.5-7.6,6.3-12.3,8.3s-9.7,3-15,3h-19.4V117.7z M134.7,40.2V79h19.4c2.7,0,5.2-0.5,7.5-1.5c2.3-1,4.4-2.4,6.2-4.2
		s3.1-3.8,4.2-6.2c1-2.4,1.5-4.9,1.5-7.5c0-2.7-0.5-5.2-1.5-7.5c-1-2.4-2.4-4.4-4.2-6.2c-1.8-1.8-3.8-3.1-6.2-4.2
		c-2.3-1-4.8-1.5-7.5-1.5H134.7z"/>
	<path class="st0" d="M281.6,107.8c-4.5,3.9-9.6,6.9-15.1,8.9c-5.6,2.1-11.4,3.1-17.4,3.1c-4.6,0-9-0.6-13.3-1.8
		c-4.3-1.2-8.2-2.9-12-5.1c-3.7-2.2-7.1-4.8-10.2-7.9c-3.1-3.1-5.7-6.5-7.9-10.2c-2.2-3.7-3.9-7.7-5.1-12c-1.2-4.3-1.8-8.7-1.8-13.3
		c0-4.6,0.6-9,1.8-13.3c1.2-4.3,2.9-8.3,5.1-12c2.2-3.7,4.8-7.1,7.9-10.2c3.1-3.1,6.5-5.7,10.2-7.9c3.7-2.2,7.7-3.9,12-5.1
		c4.3-1.2,8.7-1.8,13.3-1.8c6,0,11.8,1,17.4,3.1c5.6,2.1,10.6,5,15.1,9l-10.3,16.9c-2.8-3.1-6.2-5.4-10.1-7.1
		c-3.9-1.6-7.9-2.5-12.2-2.5c-4.3,0-8.3,0.8-12,2.4c-3.7,1.6-7,3.8-9.8,6.6s-5,6-6.6,9.8c-1.6,3.8-2.4,7.8-2.4,12
		c0,4.2,0.8,8.2,2.4,11.9c1.6,3.7,3.8,7,6.6,9.8s6.1,5,9.8,6.6c3.7,1.6,7.8,2.4,12,2.4c4.2,0,8.3-0.8,12.2-2.5
		c3.9-1.6,7.2-4,10.1-7.1L281.6,107.8z"/>
	<path class="st0" d="M312.3,117.7h-19.4v-97h19.4V117.7z"/>
</g>
<g>
	<path class="st2" d="M42.4,96.3c-0.6-7.9-2.1-15.6-3.9-23.2c-2.2-9.7-6.2-18.4-11.5-26.4c-1.7-2.6-3.6-5.1-5.5-7.7
		c0.3,0.2,0.6,0.5,0.8,0.8c1.8,2.5,3.7,4.9,5.5,7.4c3.7,5.4,6.9,11.1,9,17.4c1.3,3.9,2.5,8,3.5,12.1c1.2,5.2,2,10.4,2.9,15.7
		c0.4,2.4,0.5,4.9,0.8,7.3c1.8-6.9,3.7-13.8,1.6-20.5c-0.4,0.6-0.8,1.2-1.2,1.8c0-1,0.2-2,0.4-2.9c0.4-2,0.9-4,1-5.9
		c0.3-5-1.2-9.5-2.9-13.8c-2.5-6.2-5.7-11.9-9.5-17.2c-0.7-1-1.4-1.9-2.2-2.9l0,0c-1.7-3.8-7.4-9.5-7.4-9.5l-0.9,4.5
		c0,0-0.6-3.5-1.5-5.1c-4.6,3.1-8.7,7.1-12,11.5c0,2.1,0.3,3.5,0.3,3.5c0.6,1.7,1.4,3.3,2.5,4.7c0.6,0.7,1,1.6,1.6,2.3
		c0.2,0.2,0.4,0.4,0.6,0.5c2,0.6,4.1,1.2,6.1,1.8c1.2,0.3,2.4,0.7,3.5,1c0,0.1,0,0.2-0.1,0.2c-2.7,0-5.3,0-8,0
		c2.1,4.7,4.2,9.3,7.7,12.9c-0.1,0-0.1,0.1-0.2,0.2c-1-0.4-2-0.8-3-1.3c-0.1,0.1-0.1,0.2-0.2,0.3c1.9,1.7,3.8,3.4,5.7,5.1l-0.2,0.2
		c-1.6-0.6-3.3-1.1-5.2-1.8c0.4,2,0.7,3.8,1.1,5.5c0.1,0.5,0.5,1,0.9,1.4c1.5,1.4,3.1,2.8,4.7,4.2c-0.1,0.1-0.1,0.2-0.2,0.2
		c-1.2-0.5-2.5-1.1-3.7-1.6c0.3,7,3.1,12.5,8.6,16.5c-1.7,0.6-2.9,0.1-4.2-0.3c-1.3-0.4-2.7-0.6-4.1-0.7c-0.4-0.1-1,0.3-1.5,0.4
		c1.5-0.2,2.8,0.2,4,1c1.5,0.9,2.9,2,4.8,2.1c0.2,0,0.5,0.1,0.8,0.1c-1.6,0.9-3.1,1.8-4.9,2.8c1-0.2,1.9-0.2,2.6-0.5
		c2.8-1.4,5.4-0.5,8,0c-1.4,0.4-2.9,0.6-4.3,0.9c-1.5,0.3-2.8,1.1-3.9,2.3c2.7-1.4,5.2-0.9,7.7-0.3c-2.6,1.2-5,3.5-8.1,2.9
		c3.1,2,6.5,0.1,10-0.5c-1.2,1.3-2.2,2.5-3.2,3.6c0,0.1,0.1,0.2,0.1,0.3c1.8-0.9,2.6-0.7,4.6-1.7c-0.1,3.4,0.4,6.2,0.3,9.3
		c0.6,0.1,1.2,0.2,1.8,0.3c0-0.5,0.1-0.9,0.1-1.4C43,109.4,42.9,102.8,42.4,96.3z"/>
	<path class="st2" d="M67.6,102.5c3.7-1.6,7-3.9,10-6.7c5.7-5.4,9.7-12.8,11.2-20.2c2.5-13-2.7-25-2.8-37.7c0-0.5,0-1.1-0.1-1.6
		c-0.7-0.8-1.5-1.6-2.2-2.4c-0.5,0.3-1,0.5-1.4,0.8C73.5,40,64.5,47.3,57.9,55.5c-1.2,1.4-2.2,3-3.2,4.5C45,75,46,92.2,55.3,104.4h0
		c0,0,0,0,0,0c0.9-18.4,6.9-38.3,18.5-54.6c0-0.1,0.2,0,0.1,0.1c-6.2,10.8-10,22.7-12.3,34.5c-2.1,10.9-2.8,21.8-3.5,32.6
		c0.9-0.2,1.8-0.4,2.7-0.6C59.6,110.4,60.7,105.6,67.6,102.5z"/>
</g>
<g>
	<path class="st3" d="M40.2,107.9c-1.9,0.9-2.7,0.8-4.6,1.7c0-0.1-0.1-0.2-0.2-0.3c1-1.1,2-2.2,3.2-3.6c-3.5,0.6-6.9,2.5-10,0.5
		c3.1,0.5,5.4-1.7,8.1-2.9c-2.5-0.7-5-1.1-7.7,0.3c1.1-1.2,2.4-2,3.9-2.3c1.4-0.3,2.9-0.5,4.3-0.9c-2.6-0.4-5.2-1.4-8,0
		c-0.7,0.4-1.6,0.3-2.6,0.5c1.8-1,3.3-1.9,4.9-2.8c-0.3,0-0.6-0.1-0.8-0.1c-1.7-0.1-3.1-1.2-4.6-2.1c-1.2-0.7-2.4-1.2-4-1
		c0.5-0.2,1-0.5,1.5-0.4c1.4,0.2,2.8,0.4,4.1,0.7c1.3,0.3,2.5,0.8,4.2,0.3c-5.4-4-8.3-9.5-8.6-16.5c1.2,0.5,2.5,1.1,3.7,1.6
		c0.1-0.1,0.1-0.2,0.2-0.2c-1.5-1.4-3.1-2.8-4.6-4.2c-0.4-0.4-0.8-0.8-0.9-1.4c-0.4-1.7-0.7-3.4-1.1-5.5c2,0.7,3.6,1.2,5.2,1.8
		c0-0.1,0.1-0.1,0.2-0.2c-1.9-1.7-3.8-3.4-5.7-5.1c0.1-0.1,0.1-0.2,0.2-0.3c1,0.4,2,0.8,3,1.3c0.1-0.1,0.1-0.1,0.2-0.2
		c-3.5-3.6-5.6-8.2-7.7-12.9c2.7,0,5.3,0,8,0c0-0.1,0-0.2,0.1-0.2c-1.2-0.3-2.4-0.7-3.5-1c-2-0.6-4.1-1.2-6.1-1.8
		c-0.2-0.1-0.5-0.3-0.6-0.5c-0.6-0.8-1-1.6-1.6-2.3c-1.1-1.4-1.9-3-2.5-4.7c0,0-0.3-1.4-0.3-3.5C3.5,47.9,0,57.9,0,68.8
		c0,24.2,17.5,44.3,40.5,48.3C40.5,114,40.1,111.3,40.2,107.9L40.2,107.9z"/>
	<path class="st3" d="M61.7,84.4C64,72.6,67.8,60.7,74,49.9c0.1-0.1-0.1-0.1-0.1-0.1C62.3,66.2,56.3,86,55.4,104.4l0,0
		C45.9,92.2,45,75,54.6,60.1c1-1.5,2.1-3.1,3.2-4.5c6.6-8.3,15.6-15.5,24.4-20.8c0.4-0.3,0.9-0.5,1.4-0.8
		C74.7,25.2,62.5,19.8,49,19.8c-10.2,0-19.7,3.1-27.6,8.5c0.9,1.6,1.5,5.1,1.5,5.1l0.9-4.5c0,0,5.7,5.7,7.4,9.5
		c0.7,1,1.5,1.9,2.2,2.9c3.8,5.3,7,11,9.5,17.2c1.7,4.3,3.3,8.8,2.9,13.8c-0.1,2-0.7,4-1,5.9c-0.2,0.9-0.3,1.9-0.4,2.9
		c0.4-0.6,0.8-1.2,1.2-1.8c2.1,6.7,0.1,13.6-1.6,20.5c-0.3-2.4-0.4-4.9-0.8-7.3c-0.9-5.2-1.8-10.5-2.9-15.7
		c-0.9-4.1-2.1-8.1-3.5-12.1c-2.1-6.3-5.3-12-9-17.4c-1.7-2.5-3.6-5-5.5-7.5c-0.2-0.3-0.5-0.5-0.8-0.8l0,0c1.8,2.5,3.7,5.1,5.5,7.7
		c5.3,8,9.3,16.7,11.5,26.4c1.7,7.6,3.2,15.3,3.9,23.2c0.5,6.5,0.5,13.1,0,19.8c0,0.5-0.1,0.9-0.1,1.4c2.2,0.3,4.5,0.5,6.8,0.5
		c3.1,0,6.1-0.3,9.1-0.8C58.9,106.2,59.5,95.3,61.7,84.4L61.7,84.4z"/>
	<path class="st3" d="M85.9,36.3c0.1,0.6,0.1,1.1,0.1,1.6c0.1,12.7,5.3,24.7,2.8,37.7c-1.4,7.4-5.5,14.8-11.2,20.2
		c-3,2.8-6.3,5.1-10,6.7c-7,3-8,7.9-6.8,13.9c21.5-5.3,37.4-24.6,37.4-47.7C98.2,56.3,93.6,45,85.9,36.3L85.9,36.3z"/>
</g>
</svg>
