<?xml version="1.0" encoding="utf-8"?>
<!-- Generator: Adobe Illustrator 28.2.0, SVG Export Plug-In . SVG Version: 6.00 Build 0)  -->
<svg version="1.1" id="Layer_1" xmlns="http://www.w3.org/2000/svg" xmlns:xlink="http://www.w3.org/1999/xlink" x="0px" y="0px"
	 viewBox="0 0 321.3 168.6" style="enable-background:new 0 0 321.3 168.6;" xml:space="preserve">
<style type="text/css">
	.st0{fill:#FFFFFF;}
	.st1{enable-background:new    ;}
</style>
<g>
	<path class="st0" d="M0.5,168.1v-33.3h16.6v4.9H7.3v8.8h9.5v5H7.3v9.6h10v5H0.5L0.5,168.1z"/>
	<path class="st0" d="M28.4,168.1h-5.6v-33.3h10l5.8,28.1v-28.1h5.6v33.3h-10l-5.8-28.3L28.4,168.1L28.4,168.1z"/>
	<path class="st0" d="M48.4,134.8h6.8l4.6,25.8l0,0l4.4-25.8h6.5l-7.2,33.3h-8C55.6,168.1,48.4,134.8,48.4,134.8z"/>
	<path class="st0" d="M75,134.8h6.8v33.3H75V134.8z"/>
	<path class="st0" d="M87.4,134.8h10c3.6,0,6.1,0.7,7.6,2s2.3,3.5,2.3,6.6c0,3.5-0.8,5.9-2.3,7.1c-0.8,0.6-2,1.1-3.6,1.4h0.4
		c1.9,0,3.3,0.6,4.2,1.8s1.4,3,1.3,5.2c-0.1,1.3-0.1,2.6-0.1,4s0.1,2.5,0.1,3.3s0.2,1.3,0.3,1.7h-6.8c-0.1-0.4-0.2-0.9-0.2-1.6
		s-0.1-1.9-0.1-3.3v-4c0-1.7-0.3-2.8-0.9-3.5c-0.7-0.7-1.8-1-3.4-1h-2v13.6h-6.8V134.8L87.4,134.8z M94.3,149.4h1.9
		c1.8,0,2.9-0.3,3.5-1s0.9-1.9,0.9-3.9c0-1.8-0.3-3.1-0.9-3.7c-0.6-0.7-1.8-1-3.5-1h-1.9V149.4L94.3,149.4z"/>
	<path class="st0" d="M114.9,166c-1.6-1.7-2.3-4.6-2.3-8.8v-13.7c0-3.1,0.9-5.4,2.6-7c1.7-1.5,4.3-2.3,7.8-2.3s6.1,0.8,7.8,2.3
		s2.6,3.9,2.6,7v13.7c0,4.1-0.8,7.1-2.3,8.8s-4.2,2.6-8.1,2.6S116.4,167.7,114.9,166L114.9,166z M125.7,162.2
		c0.5-0.9,0.8-2.4,0.8-4.7v-13.7c0-1.5-0.3-2.6-0.9-3.4c-0.6-0.8-1.5-1.2-2.7-1.2s-2,0.4-2.6,1.2s-0.9,1.9-0.9,3.4v13.7
		c0,2.2,0.3,3.8,0.8,4.7s1.4,1.3,2.8,1.3S125.1,163.1,125.7,162.2z"/>
	<path class="st0" d="M145.1,168.1h-5.6v-33.3h10l5.8,28.1v-28.1h5.6v33.3h-10l-5.8-28.3V168.1L145.1,168.1z"/>
	<path class="st0" d="M172.3,168.1h-5.6v-33.3h9.6l5.3,25.5l0,0l5.3-25.5h9.5v33.3h-5.6v-28l0,0l-5.8,28h-6.8l-5.8-28.1l0,0
		L172.3,168.1L172.3,168.1z"/>
	<path class="st0" d="M202.7,168.1v-33.3h16.6v4.9h-9.8v8.8h9.5v5h-9.5v9.6h10v5H202.7L202.7,168.1z"/>
	<path class="st0" d="M230.7,168.1h-5.6v-33.3h10l5.8,28.1v-28.1h5.6v33.3h-10l-5.8-28.3V168.1L230.7,168.1z"/>
	<path class="st0" d="M257.8,139.7h-7.2v-4.9h21.2v4.9h-7.2V168h-6.8V139.7L257.8,139.7z"/>
	<path class="st0" d="M277.7,134.8h8l7.5,33.3h-6.6l-1.3-7.2h-7.2l-1.4,7.2h-6.6L277.7,134.8z M279,155.9h5.5l-2.7-14.9l0,0
		L279,155.9L279,155.9z"/>
	<path class="st0" d="M296.5,168.1v-33.3h6.8v28.3h8.7v5H296.5L296.5,168.1z"/>
</g>
<g class="st1">
	<path class="st0" d="M134.7,117.7h-19.4v-97h38.8c3.6,0,7,0.5,10.3,1.4s6.4,2.2,9.2,3.9c2.9,1.7,5.5,3.7,7.8,6.1
		c2.4,2.4,4.4,5,6.1,7.9c1.7,2.9,3,6,3.9,9.3s1.4,6.7,1.4,10.3c0,5.3-1,10.3-3,15s-4.8,8.8-8.3,12.3s-7.6,6.3-12.3,8.3s-9.7,3-15,3
		h-19.4L134.7,117.7L134.7,117.7z M134.7,40.2V79h19.4c2.7,0,5.2-0.5,7.5-1.5s4.4-2.4,6.2-4.2s3.1-3.8,4.2-6.2
		c1-2.4,1.5-4.9,1.5-7.5c0-2.7-0.5-5.2-1.5-7.5c-1-2.4-2.4-4.4-4.2-6.2s-3.8-3.1-6.2-4.2c-2.3-1-4.8-1.5-7.5-1.5
		C154.1,40.2,134.7,40.2,134.7,40.2z"/>
	<path class="st0" d="M281.6,107.8c-4.5,3.9-9.6,6.9-15.1,8.9c-5.6,2.1-11.4,3.1-17.4,3.1c-4.6,0-9-0.6-13.3-1.8
		c-4.3-1.2-8.2-2.9-12-5.1c-3.7-2.2-7.1-4.8-10.2-7.9c-3.1-3.1-5.7-6.5-7.9-10.2s-3.9-7.7-5.1-12c-1.2-4.3-1.8-8.7-1.8-13.3
		c0-4.6,0.6-9,1.8-13.3s2.9-8.3,5.1-12c2.2-3.7,4.8-7.1,7.9-10.2c3.1-3.1,6.5-5.7,10.2-7.9s7.7-3.9,12-5.1s8.7-1.8,13.3-1.8
		c6,0,11.8,1,17.4,3.1s10.6,5,15.1,9l-10.3,16.9c-2.8-3.1-6.2-5.4-10.1-7.1c-3.9-1.6-7.9-2.5-12.2-2.5s-8.3,0.8-12,2.4
		c-3.7,1.6-7,3.8-9.8,6.6s-5,6-6.6,9.8s-2.4,7.8-2.4,12s0.8,8.2,2.4,11.9c1.6,3.7,3.8,7,6.6,9.8s6.1,5,9.8,6.6s7.8,2.4,12,2.4
		s8.3-0.8,12.2-2.5c3.9-1.6,7.2-4,10.1-7.1L281.6,107.8z"/>
	<path class="st0" d="M312.3,117.7h-19.4v-97h19.4V117.7z"/>
</g>
<g>
	<path class="st0" d="M40.2,108c-1.9,0.9-2.7,0.8-4.6,1.7c0-0.1-0.1-0.2-0.2-0.3c1-1.1,2-2.2,3.2-3.6c-3.5,0.6-6.9,2.5-10,0.5
		c3.1,0.5,5.4-1.7,8.1-2.9c-2.5-0.7-5-1.1-7.7,0.3c1.1-1.2,2.4-2,3.9-2.3c1.4-0.3,2.9-0.5,4.3-0.9c-2.6-0.4-5.2-1.4-8,0
		c-0.7,0.4-1.6,0.3-2.6,0.5c1.8-1,3.3-1.9,4.9-2.8c-0.3,0-0.6-0.1-0.8-0.1C29,98,27.6,96.9,26.1,96c-1.2-0.7-2.4-1.2-4-1
		c0.5-0.2,1-0.5,1.5-0.4c1.4,0.2,2.8,0.4,4.1,0.7c1.3,0.3,2.5,0.8,4.2,0.3c-5.4-4-8.3-9.5-8.6-16.5c1.2,0.5,2.5,1.1,3.7,1.6
		c0.1-0.1,0.1-0.2,0.2-0.2c-1.5-1.4-3.1-2.8-4.6-4.2c-0.4-0.4-0.8-0.8-0.9-1.4c-0.4-1.7-0.7-3.4-1.1-5.5c2,0.7,3.6,1.2,5.2,1.8
		c0-0.1,0.1-0.1,0.2-0.2c-1.9-1.7-3.8-3.4-5.7-5.1c0.1-0.1,0.1-0.2,0.2-0.3c1,0.4,2,0.8,3,1.3c0.1-0.1,0.1-0.1,0.2-0.2
		c-3.5-3.6-5.6-8.2-7.7-12.9c2.7,0,5.3,0,8,0c0-0.1,0-0.2,0.1-0.2c-1.2-0.3-2.4-0.7-3.5-1c-2-0.6-4.1-1.2-6.1-1.8
		c-0.2-0.1-0.5-0.3-0.6-0.5c-0.6-0.8-1-1.6-1.6-2.3c-1.1-1.4-1.9-3-2.5-4.7c0,0-0.3-1.4-0.3-3.5C3.5,48,0,58,0,68.9
		c0,24.2,17.5,44.3,40.5,48.3C40.5,114.1,40.1,111.4,40.2,108L40.2,108z"/>
	<path class="st0" d="M61.7,84.5C64,72.7,67.8,60.8,74,50c0.1-0.1-0.1-0.1-0.1-0.1c-11.6,16.4-17.6,36.2-18.5,54.6l0,0
		C45.9,92.3,45,75.1,54.6,60.2c1-1.5,2.1-3.1,3.2-4.5c6.6-8.3,15.6-15.5,24.4-20.8c0.4-0.3,0.9-0.5,1.4-0.8
		C74.7,25.3,62.5,19.9,49,19.9c-10.2,0-19.7,3.1-27.6,8.5c0.9,1.6,1.5,5.1,1.5,5.1l0.9-4.5c0,0,5.7,5.7,7.4,9.5
		c0.7,1,1.5,1.9,2.2,2.9c3.8,5.3,7,11,9.5,17.2c1.7,4.3,3.3,8.8,2.9,13.8c-0.1,2-0.7,4-1,5.9c-0.2,0.9-0.3,1.9-0.4,2.9
		c0.4-0.6,0.8-1.2,1.2-1.8c2.1,6.7,0.1,13.6-1.6,20.5c-0.3-2.4-0.4-4.9-0.8-7.3c-0.9-5.2-1.8-10.5-2.9-15.7
		c-0.9-4.1-2.1-8.1-3.5-12.1c-2.1-6.3-5.3-12-9-17.4c-1.7-2.5-3.6-5-5.5-7.5c-0.2-0.3-0.5-0.5-0.8-0.8l0,0c1.8,2.5,3.7,5.1,5.5,7.7
		c5.3,8,9.3,16.7,11.5,26.4c1.7,7.6,3.2,15.3,3.9,23.2c0.5,6.5,0.5,13.1,0,19.8c0,0.5-0.1,0.9-0.1,1.4c2.2,0.3,4.5,0.5,6.8,0.5
		c3.1,0,6.1-0.3,9.1-0.8C58.9,106.3,59.5,95.4,61.7,84.5L61.7,84.5z"/>
	<path class="st0" d="M85.9,36.4C86,37,86,37.5,86,38c0.1,12.7,5.3,24.7,2.8,37.7c-1.4,7.4-5.5,14.8-11.2,20.2
		c-3,2.8-6.3,5.1-10,6.7c-7,3-8,7.9-6.8,13.9c21.5-5.3,37.4-24.6,37.4-47.7C98.2,56.4,93.6,45.1,85.9,36.4L85.9,36.4z"/>
</g>
</svg>
